# Blender 4.2.3 LTS
# www.blender.org
mtllib kolumna_1_top.mtl
o Cylinder.016
v 0.000001 -1.203560 2.377808
v 1.078602 -1.203560 2.142334
v 1.179991 -1.203560 2.343719
v 1.943573 -1.203560 1.482514
v 0.000001 -1.203560 2.601349
v 0.000001 0.831024 2.946716
v -1.179989 -1.203560 2.343719
v -1.250674 0.831024 2.654907
v 1.250676 0.831024 2.654907
v 2.253639 0.831024 1.837250
v 1.078602 0.831024 2.142334
v 0.000001 0.831024 2.377808
v 0.000001 0.831024 2.199005
v -1.078601 0.831024 2.142334
v -0.997489 0.831024 1.981232
v -1.797414 0.831024 1.371033
v -1.797414 0.831024 -1.371155
v -2.241338 0.831024 -0.489410
v -2.241338 0.831024 0.489288
v 0.997491 0.831024 1.981232
v 1.797416 0.831024 1.371033
v 2.241340 0.831024 0.489288
v 1.943573 0.831024 1.482513
v 2.423596 0.831024 0.529083
v 2.810242 0.831024 0.655670
v 2.810242 0.831024 -0.655792
v 2.651414 -1.203560 0.578797
v 2.126269 -1.203560 1.621887
v 2.423596 -1.203560 0.529083
v 2.651414 -1.203560 -0.578918
v 2.423596 -1.203560 -0.529205
v 1.943573 -1.203560 -1.482635
v 1.078602 -1.203560 -2.142456
v 1.179991 -1.203560 -2.343842
v 0.000001 -1.203560 -2.377930
v 2.126269 -1.203560 -1.622009
v 2.253639 0.831024 -1.837341
v 1.250676 0.831024 -2.654999
v 1.943573 0.831024 -1.482636
v 1.078602 0.831024 -2.142456
v 0.997491 0.831024 -1.981354
v 0.000001 0.831024 -2.377930
v 1.797416 0.831024 -1.371155
v 2.241340 0.831024 -0.489410
v 2.423596 0.831024 -0.529205
v 0.000001 0.831024 -2.199127
v -1.078601 0.831024 -2.142456
v 0.000001 0.831024 -2.946838
v -1.250674 0.831024 -2.654999
v -2.253637 0.831024 -1.837341
v -1.179989 -1.203560 -2.343842
v 0.000001 -1.203560 -2.601471
v -1.078601 -1.203560 -2.142456
v -1.943571 -1.203560 -1.482635
v -2.423594 -1.203560 -0.529205
v -2.651413 -1.203560 -0.578918
v -2.423594 -1.203560 0.529083
v -2.651413 -1.203560 0.578797
v -1.943571 -1.203560 1.482514
v -1.078601 -1.203560 2.142334
v -2.126267 -1.203560 1.621887
v -2.253637 0.831024 1.837250
v -2.810241 0.831024 0.655670
v -2.810241 0.831024 -0.655792
v -2.423594 0.831024 0.529083
v -1.943571 0.831024 1.482513
v -2.423594 0.831024 -0.529205
v -1.943571 0.831024 -1.482636
v -0.997489 0.831024 -1.981354
v -2.126267 -1.203560 -1.622009
v 0.000001 -1.203560 -0.000061
vn -0.0000 -1.0000 -0.0000
vn 0.4291 -0.1539 0.8900
vn -0.0000 -0.1674 0.9859
vn -0.0000 -0.1616 0.9869
vn -0.4291 -0.1539 0.8900
vn -0.4250 -0.1446 0.8936
vn 0.4250 -0.1446 0.8936
vn -0.0000 1.0000 -0.0000
vn 0.7750 -0.1208 0.6203
vn 0.9704 -0.0894 0.2242
vn 0.7718 -0.1090 0.6264
vn 0.9704 -0.0894 -0.2242
vn 0.9701 -0.0843 0.2276
vn 0.9701 -0.0843 -0.2276
vn 0.7718 -0.1090 -0.6264
vn 0.7750 -0.1208 -0.6203
vn 0.4250 -0.1445 -0.8936
vn 0.4291 -0.1539 -0.8900
vn -0.4291 -0.1539 -0.8900
vn -0.0000 -0.1674 -0.9859
vn -0.0000 -0.1616 -0.9869
vn -0.7750 -0.1208 -0.6203
vn -0.4250 -0.1445 -0.8936
vn -0.7718 -0.1090 0.6264
vn -0.7750 -0.1208 0.6203
vn -0.9704 -0.0894 0.2242
vn -0.9701 -0.0843 0.2276
vn -0.9704 -0.0894 -0.2242
vn -0.7718 -0.1090 -0.6264
vn -0.9701 -0.0843 -0.2276
vt 0.571428 0.954462
vt 0.500000 0.954462
vt 0.642857 0.954462
vt 0.428571 0.954462
vt 0.571428 1.000000
vt 0.500000 1.000000
vt 0.428571 1.000000
vt 0.250000 0.149215
vt 0.293729 0.159196
vt 0.328797 0.187162
vt 0.642857 1.000000
vt 0.206271 0.159196
vt 0.151742 0.227573
vt 0.171203 0.187162
vt 0.171203 0.312838
vt 0.151742 0.272427
vt 0.348258 0.227573
vt 0.714286 1.000000
vt 0.348258 0.272427
vt 0.785714 1.000000
vt 0.714286 0.954462
vt 0.785714 0.954462
vt 0.857143 0.954462
vt 0.928571 0.954462
vt 1.000000 0.954462
vt 0.857143 1.000000
vt 0.328797 0.312838
vt 0.928571 1.000000
vt 0.293729 0.340804
vt 0.250000 0.350785
vt 0.206271 0.340804
vt 0.071428 1.000000
vt -0.000000 1.000000
vt -0.000000 0.954462
vt 0.142857 1.000000
vt 0.071428 0.954462
vt 1.000000 1.000000
vt 0.142857 0.954462
vt 0.214286 0.954462
vt 0.285714 0.954462
vt 0.357143 0.954462
vt 0.357143 1.000000
vt 0.285714 1.000000
vt 0.214286 1.000000
vt 0.555236 0.824367
vt 0.547102 0.787109
vt 0.629240 0.787109
vt 0.555236 0.749851
vt 0.578028 0.719973
vt 0.610963 0.703392
vt 0.647518 0.703392
vt 0.680452 0.719973
vt 0.703244 0.749851
vt 0.711378 0.787109
vt 0.703244 0.824367
vt 0.680452 0.854246
vt 0.647518 0.870827
vt 0.610963 0.870827
vt 0.578028 0.854246
s 1
usemtl kolumna.002
f 2/1/1 3/1/1 5/2/1
f 4/3/1 3/1/1 2/1/1
f 2/1/1 5/2/1 1/2/1
f 1/2/1 5/2/1 7/4/1
f 9/5/2 6/6/3 5/2/4
f 5/2/4 6/6/3 8/7/5
f 5/2/4 8/7/5 7/4/6
f 9/5/2 5/2/4 3/1/7
f 12/8/8 6/8/8 9/9/8
f 11/9/8 9/9/8 10/10/8
f 10/11/9 9/5/2 3/1/7
f 12/8/8 9/9/8 11/9/8
f 13/8/8 12/8/8 11/9/8
f 15/12/8 12/8/8 13/8/8
f 12/8/8 14/12/8 8/12/8
f 15/12/8 14/12/8 12/8/8
f 12/8/8 8/12/8 6/8/8
f 15/12/8 13/8/8 20/9/8
f 19/13/8 16/14/8 15/12/8
f 16/14/8 14/12/8 15/12/8
f 15/12/8 20/9/8 17/15/8
f 17/15/8 18/16/8 15/12/8
f 18/16/8 19/13/8 15/12/8
f 20/9/8 21/10/8 22/17/8
f 20/9/8 23/10/8 21/10/8
f 13/8/8 11/9/8 20/9/8
f 20/9/8 11/9/8 23/10/8
f 20/9/8 22/17/8 17/15/8
f 21/10/8 23/10/8 24/17/8
f 23/10/8 25/17/8 24/17/8
f 11/9/8 10/10/8 23/10/8
f 23/10/8 10/10/8 25/17/8
f 25/18/10 10/11/9 28/3/11
f 24/17/8 25/17/8 26/19/8
f 26/20/12 25/18/10 27/21/13
f 25/18/10 28/3/11 27/21/13
f 4/3/1 28/3/1 3/1/1
f 4/3/1 27/21/1 28/3/1
f 10/11/9 3/1/7 28/3/11
f 4/3/1 29/21/1 27/21/1
f 31/22/1 27/21/1 29/21/1
f 31/22/1 30/22/1 27/21/1
f 26/20/12 27/21/13 30/22/14
f 32/23/1 30/22/1 31/22/1
f 33/24/1 34/24/1 36/23/1
f 35/25/1 34/24/1 33/24/1
f 33/24/1 36/23/1 32/23/1
f 32/23/1 36/23/1 30/22/1
f 36/23/15 37/26/16 26/20/12
f 34/24/17 37/26/16 36/23/15
f 36/23/15 26/20/12 30/22/14
f 39/27/8 26/19/8 37/27/8
f 34/24/17 38/28/18 37/26/16
f 40/29/8 37/27/8 38/29/8
f 40/29/8 39/27/8 37/27/8
f 41/29/8 40/29/8 42/30/8
f 43/27/8 40/29/8 41/29/8
f 42/30/8 40/29/8 38/29/8
f 43/27/8 39/27/8 40/29/8
f 43/27/8 41/29/8 17/15/8
f 44/19/8 43/27/8 17/15/8
f 44/19/8 39/27/8 43/27/8
f 22/17/8 44/19/8 17/15/8
f 22/17/8 45/19/8 44/19/8
f 44/19/8 45/19/8 39/27/8
f 39/27/8 45/19/8 26/19/8
f 22/17/8 24/17/8 45/19/8
f 24/17/8 26/19/8 45/19/8
f 46/30/8 42/30/8 47/31/8
f 41/29/8 42/30/8 46/30/8
f 42/30/8 49/31/8 47/31/8
f 42/30/8 48/30/8 49/31/8
f 42/30/8 38/29/8 48/30/8
f 49/32/19 48/33/20 52/34/21
f 47/31/8 49/31/8 50/15/8
f 50/35/22 49/32/19 51/36/23
f 49/32/19 52/34/21 51/36/23
f 52/25/21 48/37/20 38/28/18
f 35/25/1 52/25/1 34/24/1
f 53/36/1 52/34/1 35/34/1
f 53/36/1 51/36/1 52/34/1
f 52/25/21 38/28/18 34/24/17
f 54/38/1 51/36/1 53/36/1
f 54/38/1 55/39/1 56/39/1
f 57/40/1 56/39/1 55/39/1
f 57/40/1 58/40/1 56/39/1
f 59/41/1 58/40/1 57/40/1
f 60/4/1 7/4/1 61/41/1
f 1/2/1 7/4/1 60/4/1
f 60/4/1 61/41/1 59/41/1
f 59/41/1 61/41/1 58/40/1
f 61/41/24 62/42/25 63/43/26
f 7/4/6 62/42/25 61/41/24
f 61/41/24 63/43/26 58/40/27
f 58/40/27 63/43/26 64/44/28
f 65/13/8 64/16/8 63/13/8
f 66/14/8 63/13/8 62/14/8
f 66/14/8 65/13/8 63/13/8
f 16/14/8 66/14/8 14/12/8
f 19/13/8 66/14/8 16/14/8
f 14/12/8 66/14/8 62/14/8
f 19/13/8 65/13/8 66/14/8
f 18/16/8 65/13/8 19/13/8
f 65/13/8 67/16/8 64/16/8
f 18/16/8 67/16/8 65/13/8
f 17/15/8 67/16/8 18/16/8
f 17/15/8 68/15/8 67/16/8
f 68/15/8 64/16/8 67/16/8
f 69/31/8 68/15/8 17/15/8
f 69/31/8 47/31/8 68/15/8
f 47/31/8 50/15/8 68/15/8
f 68/15/8 50/15/8 64/16/8
f 46/30/8 69/31/8 17/15/8
f 46/30/8 47/31/8 69/31/8
f 64/44/28 50/35/22 70/38/29
f 58/40/27 64/44/28 56/39/30
f 64/44/28 70/38/29 56/39/30
f 54/38/1 70/38/1 51/36/1
f 54/38/1 56/39/1 70/38/1
f 50/35/22 51/36/23 70/38/29
f 7/4/6 8/7/5 62/42/25
f 14/12/8 62/14/8 8/12/8
f 41/29/8 46/30/8 17/15/8
f 21/10/8 24/17/8 22/17/8
f 2/45/1 1/46/1 71/47/1
f 1/46/1 60/48/1 71/47/1
f 60/48/1 59/49/1 71/47/1
f 59/49/1 57/50/1 71/47/1
f 57/50/1 55/51/1 71/47/1
f 55/51/1 54/52/1 71/47/1
f 54/52/1 53/53/1 71/47/1
f 53/53/1 35/54/1 71/47/1
f 35/54/1 33/55/1 71/47/1
f 33/55/1 32/56/1 71/47/1
f 32/56/1 31/57/1 71/47/1
f 31/57/1 29/58/1 71/47/1
f 29/58/1 4/59/1 71/47/1
f 4/59/1 2/45/1 71/47/1
