# Blender 4.2.3 LTS
# www.blender.org
mtllib kolumna_1_podstawa.mtl
o Cylinder.014
v -0.000000 -1.672926 -2.199096
v 0.997489 -1.672926 -1.981323
v -0.997491 -1.672926 -1.981323
v -0.000000 -1.672926 -2.377899
v 2.241338 -1.672926 -0.489380
v 1.078600 -1.672926 -2.142425
v 1.943571 -1.672926 -1.482605
v 1.179989 -1.672926 -2.343811
v 2.126267 -1.672926 -1.621979
v 2.486006 -1.672923 -1.932861
v 2.651412 -1.672926 -0.578888
v 3.099999 -1.672923 -0.689850
v 3.099999 -1.672923 0.689789
v 2.924794 -0.696182 -0.638580
v 2.345503 -0.696182 -1.789215
v 2.126267 -0.696182 -1.621979
v 1.301655 -0.696182 -2.585449
v 2.651412 -0.696182 -0.578888
v 2.651412 3.902656 -0.578888
v 2.651412 -0.696182 0.578827
v 2.126267 3.902656 -1.621979
v 1.943571 3.902656 -1.482605
v 1.179989 3.902656 -2.343811
v 1.179989 -0.696182 -2.343811
v 1.078600 3.902656 -2.142426
v -0.000000 3.902656 -2.601441
v -0.000000 3.902656 -2.377899
v -0.000000 -0.696182 -2.601440
v -1.179991 3.902656 -2.343811
v -1.179991 -0.696182 -2.343811
v -1.078603 3.902656 -2.142426
v -2.126269 3.902656 -1.621979
v -2.126269 -0.696182 -1.621979
v -1.943573 3.902656 -1.482605
v -2.651415 3.902656 -0.578888
v -2.651415 -0.696182 -0.578888
v -2.423596 3.902656 -0.529175
v -2.651415 3.902656 0.578827
v -2.651415 -0.696182 0.578827
v -2.423596 3.902656 0.529113
v -2.126269 3.902656 1.621917
v -1.943573 3.902656 1.482544
v -1.078603 3.902656 2.142364
v -1.179991 3.902656 2.343750
v 1.943571 3.902656 1.482544
v 1.078600 3.902656 2.142364
v 1.179989 3.902656 2.343750
v -0.000000 3.902656 2.377838
v 2.126267 3.902656 1.621917
v 2.126267 -0.696182 1.621918
v 2.651412 3.902656 0.578827
v 1.179989 -0.696182 2.343750
v -0.000000 -0.696182 2.601379
v 1.301655 -0.696182 2.585388
v -0.000000 -0.696182 2.869568
v -0.000000 -1.672923 3.099976
v -1.301658 -0.696182 2.585388
v -1.379631 -1.672923 2.792969
v 1.379629 -1.672923 2.792969
v -1.179991 -0.696182 2.343750
v -2.126269 -0.696182 1.621918
v -0.000000 3.902656 2.601379
v -2.345505 -0.696182 1.789154
v -2.486008 -1.672923 1.932800
v -2.924797 -0.696182 0.638519
v -3.100001 -1.672923 0.689789
v -2.651415 -1.672926 0.578827
v -3.100001 -1.672923 -0.689850
v -2.126269 -1.672926 1.621918
v -2.651415 -1.672926 -0.578888
v -2.924797 -0.696182 -0.638580
v -2.345505 -0.696182 -1.789215
v -2.486008 -1.672923 -1.932861
v -1.301658 -0.696182 -2.585449
v -1.379631 -1.672923 -2.793030
v -0.000000 -0.696182 -2.869629
v -0.000000 -1.672923 -3.100036
v 1.379629 -1.672923 -2.793030
v -0.000000 -1.672926 -2.601440
v -1.179991 -1.672926 -2.343811
v -1.078603 -1.672926 -2.142425
v -1.943573 -1.672926 -1.482605
v -1.797416 -1.672926 -1.371124
v -2.241340 -1.672926 -0.489380
v -2.241340 -1.672926 0.489319
v -2.423596 -1.672926 -0.529175
v -1.797416 -1.672926 1.371063
v -0.997491 -1.672926 1.981262
v -1.943573 -1.672926 1.482544
v -0.000000 -1.672926 2.199036
v -2.423596 -1.672926 0.529114
v 0.997489 -1.672926 1.981262
v -0.000000 -1.672926 2.377838
v -1.078603 -1.672926 2.142365
v -1.179991 -1.672926 2.343750
v -0.000000 -1.672926 2.601380
v 1.179989 -1.672926 2.343750
v 1.078600 -1.672926 2.142365
v 1.943571 -1.672926 1.482544
v 1.797414 -1.672926 1.371063
v 2.241338 -1.672926 0.489319
v 2.423594 -1.672926 0.529114
v 2.423594 -1.672926 -0.529175
v 2.651412 -1.672926 0.578827
v 2.126267 -1.672926 1.621918
v 2.486006 -1.672923 1.932800
v 2.345503 -0.696182 1.789154
v 2.924794 -0.696182 0.638519
v 1.797414 -1.672926 -1.371124
v -2.126269 -1.672926 -1.621979
v 2.423594 3.902656 0.529113
v 2.423594 3.902656 -0.529175
v -0.000000 3.902656 -0.000061
vn -0.0000 -1.0000 -0.0000
vn 0.9567 0.1835 -0.2258
vn 0.9561 0.1855 0.2268
vn 0.9561 0.1855 -0.2268
vn 0.7577 0.1983 -0.6218
vn 0.7552 0.2029 -0.6234
vn -0.0000 1.0000 -0.0000
vn 0.4145 0.2182 -0.8835
vn 0.7695 -0.0000 -0.6387
vn 0.9729 -0.0000 -0.2311
vn 0.9729 -0.0000 0.2311
vn 0.4199 -0.0000 -0.9076
vn -0.0000 -0.0000 -1.0000
vn -0.4199 -0.0000 -0.9076
vn -0.7695 -0.0000 -0.6387
vn -0.9729 -0.0000 -0.2311
vn -0.9729 -0.0000 0.2311
vn -0.7695 -0.0000 0.6387
vn 0.7695 -0.0000 0.6387
vn 0.4199 -0.0000 0.9076
vn -0.0000 -0.0000 1.0000
vn 0.4121 0.2218 0.8837
vn -0.0000 0.2274 0.9738
vn -0.0000 0.2296 0.9733
vn -0.4121 0.2218 0.8837
vn -0.4145 0.2182 0.8835
vn 0.4145 0.2182 0.8835
vn -0.4199 -0.0000 0.9076
vn -0.7577 0.1983 0.6218
vn -0.7552 0.2029 0.6234
vn -0.9561 0.1855 0.2268
vn -0.9567 0.1835 0.2258
vn -0.9567 0.1835 -0.2258
vn -0.9561 0.1855 -0.2268
vn -0.7577 0.1983 -0.6218
vn -0.7552 0.2029 -0.6234
vn -0.4145 0.2182 -0.8835
vn -0.4121 0.2218 -0.8837
vn -0.0000 0.2274 -0.9738
vn 0.4121 0.2218 -0.8837
vn -0.0000 0.2296 -0.9733
vn 0.7552 0.2029 0.6234
vn 0.7577 0.1983 0.6218
vn 0.9567 0.1835 0.2258
vt 0.322266 0.393523
vt 0.363352 0.384145
vt 0.414586 0.319900
vt 0.281179 0.384145
vt 0.396301 0.357869
vt 0.414586 0.277757
vt 0.785714 0.523256
vt 0.714286 0.500000
vt 0.785714 0.500000
vt 0.857143 0.523256
vt 0.857143 0.500000
vt 0.928571 0.523256
vt 0.857143 0.632752
vt 0.785714 0.632752
vt 0.714286 0.523256
vt 0.928571 0.632752
vt 1.000000 0.632752
vt -0.000000 0.632752
vt 0.071428 0.632752
vt -0.000000 0.523256
vt 1.000000 0.523256
vt 0.142857 0.632752
vt 0.071428 0.523256
vt 0.214286 0.632752
vt 0.142857 0.523256
vt 0.285714 0.632752
vt 0.214286 0.523256
vt 0.357143 0.632752
vt 0.285714 0.523256
vt 0.428571 0.632752
vt 0.571428 0.632752
vt 0.642857 0.632752
vt 0.500000 0.632752
vt 0.714286 0.632752
vt 0.642857 0.523256
vt 0.571428 0.523256
vt 0.500000 0.523256
vt 0.571428 0.500000
vt 0.500000 0.500000
vt 0.428571 0.500000
vt 0.428571 0.523256
vt 0.357143 0.523256
vt 0.357143 0.500000
vt 0.285714 0.500000
vt 0.229945 0.319900
vt 0.229945 0.277757
vt 0.248230 0.239787
vt 0.214286 0.500000
vt 0.142857 0.500000
vt 0.071428 0.500000
vt 0.928571 0.500000
vt 1.000000 0.500000
vt -0.000000 0.500000
vt 0.248230 0.357869
vt 0.322266 0.204133
vt 0.281179 0.213511
vt 0.363352 0.213511
vt 0.396301 0.239787
vt 0.642857 0.500000
vt 0.619869 0.867443
vt 0.596575 0.836906
vt 0.672209 0.798828
vt 0.588262 0.798828
vt 0.596575 0.760750
vt 0.619869 0.730214
vt 0.653529 0.713267
vt 0.690889 0.713267
vt 0.724549 0.730214
vt 0.747842 0.760750
vt 0.756155 0.798828
vt 0.747842 0.836906
vt 0.724549 0.867443
vt 0.690889 0.884389
vt 0.653529 0.884389
s 1
usemtl kolumna
f 1/1/1 2/2/1 5/3/1
f 1/1/1 6/2/1 2/2/1
f 3/4/1 1/1/1 5/3/1
f 3/4/1 4/1/1 1/1/1
f 1/1/1 4/1/1 6/2/1
f 2/2/1 6/2/1 7/5/1
f 4/1/1 8/2/1 6/2/1
f 6/2/1 9/5/1 7/5/1
f 6/2/1 8/2/1 9/5/1
f 9/5/1 10/5/1 12/3/1
f 8/2/1 10/5/1 9/5/1
f 7/5/1 9/5/1 11/3/1
f 9/5/1 12/3/1 11/3/1
f 11/3/1 12/3/1 13/6/1
f 14/7/2 13/8/3 12/9/4
f 15/10/5 14/7/2 12/9/4
f 15/10/5 12/9/4 10/11/6
f 16/10/7 15/10/7 17/12/7
f 18/7/7 15/10/7 16/10/7
f 17/12/8 15/10/5 10/11/6
f 18/7/7 14/7/7 15/10/7
f 21/13/9 19/14/10 18/7/10
f 19/14/10 20/15/11 18/7/10
f 20/15/7 14/7/7 18/7/7
f 21/13/9 18/7/10 16/10/9
f 23/16/12 21/13/9 16/10/9
f 22/13/7 21/13/7 23/16/7
f 22/13/7 19/14/7 21/13/7
f 26/17/13 23/16/12 24/12/12
f 23/16/12 16/10/9 24/12/12
f 25/16/7 23/16/7 26/17/7
f 22/13/7 23/16/7 25/16/7
f 27/18/7 26/18/7 29/19/7
f 25/16/7 26/17/7 27/17/7
f 29/19/14 26/18/13 28/20/13
f 26/17/13 24/12/12 28/21/13
f 32/22/15 29/19/14 30/23/14
f 29/19/14 28/20/13 30/23/14
f 31/19/7 29/19/7 32/22/7
f 27/18/7 29/19/7 31/19/7
f 35/24/16 32/22/15 33/25/15
f 32/22/15 30/23/14 33/25/15
f 34/22/7 32/22/7 35/24/7
f 31/19/7 32/22/7 34/22/7
f 38/26/17 35/24/16 36/27/16
f 35/24/16 33/25/15 36/27/16
f 37/24/7 35/24/7 38/26/7
f 34/22/7 35/24/7 37/24/7
f 41/28/18 38/26/17 39/29/17
f 38/26/17 36/27/16 39/29/17
f 42/28/7 40/26/7 38/26/7
f 37/24/7 38/26/7 40/26/7
f 42/28/7 38/26/7 41/28/7
f 42/28/7 41/28/7 44/30/7
f 42/28/7 44/30/7 43/30/7
f 46/31/7 47/31/7 49/32/7
f 48/33/7 47/31/7 46/31/7
f 46/31/7 49/32/7 45/32/7
f 51/34/11 49/32/19 50/35/19
f 49/32/19 52/36/20 50/35/19
f 45/32/7 49/32/7 51/34/7
f 49/32/19 47/31/20 52/36/20
f 47/31/20 53/37/21 52/36/20
f 52/36/7 53/37/7 55/37/7
f 50/35/7 52/36/7 54/36/7
f 52/36/7 55/37/7 54/36/7
f 59/38/22 55/37/23 56/39/24
f 55/37/23 58/40/25 56/39/24
f 60/41/7 57/41/7 55/37/7
f 55/37/23 57/41/26 58/40/25
f 59/38/22 54/36/27 55/37/23
f 60/41/7 55/37/7 53/37/7
f 62/33/21 44/30/28 60/41/28
f 44/30/28 61/42/18 60/41/28
f 61/42/7 57/41/7 60/41/7
f 62/33/21 60/41/28 53/37/21
f 47/31/20 62/33/21 53/37/21
f 48/33/7 62/33/7 47/31/7
f 43/30/7 62/33/7 48/33/7
f 43/30/7 44/30/7 62/33/7
f 44/30/28 41/28/18 61/42/18
f 41/28/18 39/29/17 61/42/18
f 39/29/7 63/42/7 61/42/7
f 61/42/7 63/42/7 57/41/7
f 57/41/26 63/42/29 64/43/30
f 63/42/29 66/44/31 64/43/30
f 39/29/7 65/29/7 63/42/7
f 63/42/29 65/29/32 66/44/31
f 70/45/1 67/46/1 66/46/1
f 69/47/1 66/46/1 67/46/1
f 66/44/31 71/27/33 68/48/34
f 70/45/1 66/46/1 68/45/1
f 66/44/31 65/29/32 71/27/33
f 69/47/1 64/47/1 66/46/1
f 68/48/34 71/27/33 72/25/35
f 36/27/7 72/25/7 71/27/7
f 36/27/7 71/27/7 65/29/7
f 36/27/7 33/25/7 72/25/7
f 33/25/7 74/23/7 72/25/7
f 73/49/36 72/25/35 74/23/37
f 68/48/34 72/25/35 73/49/36
f 33/25/7 30/23/7 74/23/7
f 30/23/7 76/20/7 74/23/7
f 75/50/38 74/23/37 76/20/39
f 73/49/36 74/23/37 75/50/38
f 30/23/7 28/20/7 76/20/7
f 24/12/7 76/21/7 28/21/7
f 76/21/39 78/51/40 77/52/41
f 75/50/38 76/20/39 77/53/41
f 76/21/39 17/12/8 78/51/40
f 24/12/7 17/12/7 76/21/7
f 8/2/1 78/2/1 10/5/1
f 79/1/1 78/2/1 8/2/1
f 17/12/8 10/11/6 78/51/40
f 79/1/1 77/1/1 78/2/1
f 79/1/1 80/4/1 75/4/1
f 81/4/1 80/4/1 79/1/1
f 4/1/1 79/1/1 8/2/1
f 81/4/1 79/1/1 4/1/1
f 79/1/1 75/4/1 77/1/1
f 3/4/1 81/4/1 4/1/1
f 83/54/1 81/4/1 3/4/1
f 83/54/1 82/54/1 81/4/1
f 82/54/1 80/4/1 81/4/1
f 84/45/1 83/54/1 3/4/1
f 84/45/1 82/54/1 83/54/1
f 87/47/1 85/46/1 84/45/1
f 85/46/1 86/45/1 84/45/1
f 84/45/1 86/45/1 82/54/1
f 87/47/1 84/45/1 5/3/1
f 84/45/1 3/4/1 5/3/1
f 90/55/1 88/56/1 87/47/1
f 88/56/1 89/47/1 87/47/1
f 87/47/1 91/46/1 85/46/1
f 87/47/1 89/47/1 91/46/1
f 90/55/1 87/47/1 5/3/1
f 85/46/1 91/46/1 86/45/1
f 91/46/1 67/46/1 70/45/1
f 89/47/1 67/46/1 91/46/1
f 91/46/1 70/45/1 86/45/1
f 92/57/1 90/55/1 5/3/1
f 92/57/1 93/55/1 90/55/1
f 90/55/1 94/56/1 88/56/1
f 90/55/1 93/55/1 94/56/1
f 88/56/1 94/56/1 89/47/1
f 93/55/1 95/56/1 94/56/1
f 94/56/1 69/47/1 89/47/1
f 94/56/1 95/56/1 69/47/1
f 95/56/1 64/47/1 69/47/1
f 93/55/1 96/55/1 95/56/1
f 96/55/1 58/56/1 95/56/1
f 95/56/1 58/56/1 64/47/1
f 96/55/1 97/57/1 59/57/1
f 98/57/1 97/57/1 96/55/1
f 98/57/1 96/55/1 93/55/1
f 96/55/1 56/55/1 58/56/1
f 96/55/1 59/57/1 56/55/1
f 92/57/1 98/57/1 93/55/1
f 100/58/1 98/57/1 92/57/1
f 100/58/1 99/58/1 98/57/1
f 99/58/1 97/57/1 98/57/1
f 5/3/1 101/6/1 100/58/1
f 101/6/1 99/58/1 100/58/1
f 100/58/1 92/57/1 5/3/1
f 5/3/1 102/6/1 101/6/1
f 101/6/1 102/6/1 99/58/1
f 5/3/1 103/3/1 102/6/1
f 103/3/1 104/6/1 102/6/1
f 99/58/1 102/6/1 104/6/1
f 105/58/1 104/6/1 13/6/1
f 99/58/1 104/6/1 105/58/1
f 103/3/1 11/3/1 104/6/1
f 11/3/1 13/6/1 104/6/1
f 97/57/1 105/58/1 106/58/1
f 105/58/1 13/6/1 106/58/1
f 99/58/1 105/58/1 97/57/1
f 106/59/42 54/36/27 59/38/22
f 97/57/1 106/58/1 59/57/1
f 106/59/42 107/35/43 54/36/27
f 13/8/3 107/35/43 106/59/42
f 50/35/7 54/36/7 107/35/7
f 13/8/3 108/15/44 107/35/43
f 20/15/7 107/35/7 108/15/7
f 20/15/7 50/35/7 107/35/7
f 20/15/7 108/15/7 14/7/7
f 14/7/2 108/15/44 13/8/3
f 109/5/1 103/3/1 5/3/1
f 109/5/1 7/5/1 103/3/1
f 7/5/1 11/3/1 103/3/1
f 2/2/1 109/5/1 5/3/1
f 2/2/1 7/5/1 109/5/1
f 89/47/1 69/47/1 67/46/1
f 82/54/1 86/45/1 70/45/1
f 82/54/1 110/54/1 80/4/1
f 82/54/1 70/45/1 110/54/1
f 80/4/1 110/54/1 73/54/1
f 110/54/1 70/45/1 68/45/1
f 110/54/1 68/45/1 73/54/1
f 80/4/1 73/54/1 75/4/1
f 36/27/7 65/29/7 39/29/7
f 57/41/26 64/43/30 58/40/25
f 19/14/10 51/34/11 20/15/11
f 51/34/11 50/35/19 20/15/11
f 111/34/7 51/34/7 19/14/7
f 45/32/7 51/34/7 111/34/7
f 111/34/7 19/14/7 112/14/7
f 22/13/7 112/14/7 19/14/7
f 16/10/7 17/12/7 24/12/7
f 42/60/7 43/61/7 113/62/7
f 43/61/7 48/63/7 113/62/7
f 48/63/7 46/64/7 113/62/7
f 46/64/7 45/65/7 113/62/7
f 45/65/7 111/66/7 113/62/7
f 111/66/7 112/67/7 113/62/7
f 112/67/7 22/68/7 113/62/7
f 22/68/7 25/69/7 113/62/7
f 25/69/7 27/70/7 113/62/7
f 27/70/7 31/71/7 113/62/7
f 31/71/7 34/72/7 113/62/7
f 34/72/7 37/73/7 113/62/7
f 37/73/7 40/74/7 113/62/7
f 40/74/7 42/60/7 113/62/7
