# Blender 4.2.3 LTS
# www.blender.org
mtllib kolumna_1_srodek.mtl
o Cylinder.015
v 1.943573 -6.712152 -1.482574
v 1.078602 -6.712152 -2.142395
v 0.000001 -6.712152 -2.377868
v -1.078601 -6.712152 -2.142395
v -1.943571 -6.712152 -1.482574
v -2.423594 -6.712152 -0.529144
v -2.423594 -6.712152 0.529145
v -1.943571 -6.712152 1.482575
v -1.943571 -6.181683 1.482575
v -1.078601 -6.712152 2.142395
v -1.078601 -6.181683 2.142395
v 0.000001 -6.181683 2.377869
v -1.058202 -6.181683 2.101868
v -0.136420 -6.181683 2.169281
v -0.861068 -6.181683 2.011078
v -1.106890 -6.181683 1.897828
v -1.106890 6.187822 1.897827
v -1.688013 -6.181683 1.454560
v -1.177086 -6.181683 2.037262
v -1.177086 6.187822 2.037261
v -0.931264 -6.181683 2.150483
v -0.931264 6.187822 2.150482
v -0.861068 6.187822 2.011077
v -1.058202 6.187822 2.101867
v -0.136420 6.187822 2.169281
v -1.078601 6.187822 2.142395
v 0.000001 6.187822 2.377868
v 0.000001 6.677683 2.377868
v 1.078602 6.187822 2.142395
v 0.000001 6.187822 2.332916
v 0.136422 6.187822 2.169281
v 1.078602 6.677683 2.142395
v 1.943573 6.677683 1.482574
v 2.423596 6.677683 0.529144
v 2.423596 6.677683 -0.529145
v 1.943573 6.677683 -1.482575
v 2.423596 6.187822 -0.529145
v 2.423596 6.187822 0.529144
v 1.943573 6.187822 1.482574
v 2.377762 6.187822 0.519134
v 1.858129 6.187822 1.250488
v 2.180627 6.187822 0.609924
v 2.241340 6.187822 0.355499
v 2.241340 -6.181683 0.355500
v 2.241340 6.187822 -0.355500
v 2.399068 6.187822 0.389923
v 2.399068 -6.181683 0.389924
v 2.338355 -6.181683 0.644379
v 2.180627 -6.181683 0.609925
v 2.377762 -6.181683 0.519135
v 1.858129 -6.181683 1.250489
v 2.423596 -6.181683 0.529145
v 1.943573 -6.181683 1.482575
v 2.338355 6.187822 0.644378
v 1.943573 -6.712152 1.482575
v 1.078602 -6.181683 2.142395
v 1.906817 -6.181683 1.454560
v 1.688015 -6.181683 1.454560
v 1.078602 -6.712152 2.142395
v 0.000001 -6.712152 2.377869
v 2.423596 -6.712152 0.529145
v 2.423596 -6.712152 -0.529144
v 2.423596 -6.181683 -0.529144
v 1.943573 -6.181683 -1.482574
v 2.377762 -6.181683 -0.519134
v 1.858129 -6.181683 -1.250488
v 2.180627 -6.181683 -0.609924
v 2.241340 -6.181683 -0.355499
v 2.399068 -6.181683 -0.389923
v 2.399068 6.187822 -0.389924
v 2.338355 6.187822 -0.644379
v 2.180627 6.187822 -0.609925
v 2.377762 6.187822 -0.519135
v 1.858129 6.187822 -1.250489
v 1.943573 6.187822 -1.482575
v 2.338355 -6.181683 -0.644378
v 1.078602 6.187822 -2.142395
v 1.906817 6.187822 -1.454529
v 1.688015 6.187822 -1.454529
v 1.078602 6.677683 -2.142395
v 0.000001 6.677683 -2.377869
v -1.078601 6.677683 -2.142395
v -1.943571 6.677683 -1.482575
v -1.078601 6.187822 -2.142395
v 0.000001 6.187822 -2.377869
v 0.000001 6.187822 -2.332917
v -0.136420 6.187822 -2.169281
v 0.861070 6.187822 -2.011078
v 0.136422 6.187822 -2.169281
v 0.136422 -6.181683 -2.169281
v 0.136422 6.187822 -2.324006
v 0.861070 -6.181683 -2.011077
v 1.058204 -6.181683 -2.101867
v 1.106892 -6.181683 -1.897827
v 0.931265 -6.181683 -2.150482
v 1.078602 -6.181683 -2.142395
v 0.000001 -6.181683 -2.377868
v -1.078601 -6.181683 -2.142395
v 0.000001 -6.181683 -2.332916
v -0.861068 -6.181683 -2.011077
v -0.136420 -6.181683 -2.169281
v -0.136420 -6.181683 -2.324005
v -0.861068 6.187822 -2.011078
v -1.058202 6.187822 -2.101868
v -1.106890 6.187822 -1.897828
v -0.931264 6.187822 -2.150483
v -1.177086 6.187822 -2.037262
v -0.931264 -6.181683 -2.150482
v -1.177086 -6.181683 -2.037261
v -1.106890 -6.181683 -1.897827
v -1.058202 -6.181683 -2.101867
v -1.688013 -6.181683 -1.454528
v -1.688013 6.187822 -1.454529
v -1.906815 6.187822 -1.454529
v -1.858127 6.187822 -1.250489
v -1.814501 6.187822 -1.551026
v -1.943571 6.187822 -1.482575
v -2.423594 6.187822 -0.529145
v -2.423594 6.677683 -0.529145
v -2.423594 6.677683 0.529144
v -1.943571 6.677683 1.482574
v -2.423594 6.187822 0.529144
v -1.943571 6.187822 1.482574
v -2.377760 6.187822 0.519134
v -2.241338 6.187822 -0.355500
v -2.241338 6.187822 0.355499
v -2.180626 6.187822 0.609924
v -2.180626 -6.181683 0.609925
v -1.858127 6.187822 1.250488
v -2.338354 6.187822 0.644378
v -2.399067 6.187822 0.389923
v -2.338354 -6.181683 0.644379
v -2.399067 -6.181683 0.389924
v -2.241338 -6.181683 0.355500
v -2.377760 -6.181683 0.519135
v -2.241338 -6.181683 -0.355499
v -2.423594 -6.181683 0.529145
v -2.423594 -6.181683 -0.529144
v -1.943571 -6.181683 -1.482574
v -2.377760 -6.181683 -0.519134
v -2.180626 -6.181683 -0.609924
v -2.180626 6.187822 -0.609925
v -1.858127 -6.181683 -1.250488
v -2.338354 -6.181683 -0.644378
v -2.399067 -6.181683 -0.389923
v -2.338354 6.187822 -0.644379
v -2.399067 6.187822 -0.389924
v -1.906815 -6.181683 -1.454528
v -1.984615 -6.181683 -1.346984
v -1.814501 -6.181683 -1.551025
v -1.984615 6.187822 -1.346985
v -2.377760 6.187822 -0.519135
v -1.858127 -6.181683 1.250489
v -1.906815 -6.181683 1.454560
v -1.984615 -6.181683 1.346985
v -1.984615 6.187822 1.346984
v -1.814501 -6.181683 1.551026
v -1.814501 6.187822 1.551025
v -1.688013 6.187822 1.454559
v -1.906815 6.187822 1.454559
v -1.078601 6.677683 2.142395
v 0.136422 -6.181683 -2.324005
v -0.136420 6.187822 -2.324006
v 1.177088 -6.181683 -2.037261
v 0.931265 6.187822 -2.150483
v 1.177088 6.187822 -2.037262
v 1.106892 6.187822 -1.897828
v 1.058204 6.187822 -2.101868
v 1.688015 -6.181683 -1.454528
v 1.906817 -6.181683 -1.454528
v 1.814502 -6.181683 -1.551025
v 1.984617 -6.181683 -1.346984
v 1.814502 6.187822 -1.551026
v 1.984617 6.187822 -1.346985
v 1.688015 6.187822 1.454559
v 1.106892 -6.181683 1.897828
v 1.814502 -6.181683 1.551026
v 1.814502 6.187822 1.551025
v 1.984617 6.187822 1.346984
v 1.984617 -6.181683 1.346985
v 1.058204 -6.181683 2.101868
v 0.861070 -6.181683 2.011078
v 1.106892 6.187822 1.897827
v 1.177088 -6.181683 2.037262
v 0.931265 -6.181683 2.150483
v 0.931265 6.187822 2.150482
v 1.177088 6.187822 2.037261
v 0.861070 6.187822 2.011077
v 1.058204 6.187822 2.101867
v 0.136422 -6.181683 2.169281
v 0.000001 -6.181683 2.332917
v 0.136422 -6.181683 2.324006
v -0.136420 -6.181683 2.324006
v 0.136422 6.187822 2.324005
v -0.136420 6.187822 2.324005
v 1.906817 6.187822 1.454559
v 0.000002 6.677681 -0.000031
v 0.000002 -6.712151 -0.000030
vn -0.4199 -0.0000 0.9076
vn -0.7695 -0.0000 0.6387
vn -0.9729 -0.0000 0.2311
vn -0.0000 -0.0000 1.0000
vn -0.0000 1.0000 -0.0000
vn -0.0000 -1.0000 -0.0000
vn -0.8932 -0.0000 -0.4497
vn -0.8932 -0.0000 -0.4496
vn -0.8931 -0.0000 -0.4499
vn -0.6064 -0.0000 0.7951
vn -0.6065 -0.0000 0.7951
vn -0.4183 -0.0000 0.9083
vn 0.8931 -0.0000 0.4498
vn 0.8933 -0.0000 0.4495
vn 0.8932 -0.0000 0.4497
vn -0.2133 -0.0000 0.9770
vn 0.4199 -0.0000 0.9076
vn 0.7695 -0.0000 0.6387
vn 0.9729 -0.0000 -0.2311
vn 0.9729 -0.0000 0.2311
vn 0.7695 -0.0000 -0.6387
vn 1.0000 -0.0000 -0.0000
vn 0.2132 -0.0000 -0.9770
vn 0.2134 -0.0000 -0.9770
vn 0.2135 -0.0000 -0.9770
vn 0.9727 -0.0000 0.2321
vn -0.2132 -0.0000 0.9770
vn -0.2134 -0.0000 0.9770
vn -0.2137 -0.0000 0.9769
vn 0.2132 -0.0000 0.9770
vn 0.9727 -0.0000 -0.2321
vn 0.8932 -0.0000 -0.4497
vn -0.2132 -0.0000 -0.9770
vn -0.2137 -0.0000 -0.9769
vn 0.4199 -0.0000 -0.9076
vn -0.0000 -1.0000 -0.0001
vn -0.0000 -0.0000 -1.0000
vn -0.4199 -0.0000 -0.9076
vn -0.7695 -0.0000 -0.6387
vn 0.2133 -0.0000 -0.9770
vn -0.8931 -0.0000 -0.4498
vn -0.2133 -0.0000 -0.9770
vn -1.0000 -0.0000 -0.0000
vn 0.8931 -0.0000 -0.4498
vn -0.4183 -0.0000 -0.9083
vn -0.6065 -0.0000 -0.7951
vn -0.8932 -0.0000 0.4497
vn -0.8932 -0.0000 0.4496
vn 0.6066 -0.0000 -0.7950
vn 0.6065 -0.0000 -0.7951
vn -0.9729 -0.0000 -0.2311
vn 0.2137 -0.0000 0.9769
vn -0.9727 -0.0000 0.2321
vn -0.2134 -0.0000 -0.9770
vn 0.2137 -0.0000 -0.9769
vn -0.9727 -0.0000 -0.2321
vn -0.6066 -0.0000 0.7950
vn -0.7681 -0.0000 -0.6404
vn -0.6066 -0.0000 -0.7950
vn -0.7681 -0.0000 0.6404
vn -0.7680 -0.0000 0.6404
vn 0.6065 -0.0000 0.7951
vn 0.6063 -0.0000 0.7952
vn -0.0000 -1.0000 0.0001
vn 0.4183 -0.0000 -0.9083
vn 0.8932 -0.0000 0.4496
vn 0.7681 -0.0000 -0.6404
vn 0.6066 -0.0000 0.7950
vn -0.6063 -0.0000 0.7952
vn 0.6064 -0.0000 0.7951
vn 0.7680 -0.0000 0.6404
vn 0.7681 -0.0000 0.6404
vn 0.8932 -0.0000 -0.4496
vn 0.4183 -0.0000 0.9083
vn -0.8931 -0.0000 0.4498
vn 0.2133 -0.0000 0.9770
vt 0.428571 0.645382
vt 0.357143 0.645382
vt 0.357143 0.632752
vt 0.285714 0.632752
vt 0.428571 0.632752
vt 0.500000 0.645382
vt 0.418802 0.645382
vt 0.490231 0.645382
vt 0.438340 0.645382
vt 0.419770 0.645382
vt 0.418802 0.942798
vt 0.366912 0.645382
vt 0.438340 0.942798
vt 0.437373 0.942798
vt 0.428571 0.942798
vt 0.490231 0.942798
vt 0.500000 0.942798
vt 0.571428 0.954462
vt 0.500000 0.954462
vt 0.571428 0.942798
vt 0.509769 0.942798
vt 0.642857 0.954462
vt 0.785714 0.954462
vt 0.714286 0.954462
vt 0.714286 0.942798
vt 0.857143 0.954462
vt 0.785714 0.942798
vt 0.642857 0.942798
vt 0.724055 0.942798
vt 0.652626 0.942798
vt 0.704517 0.942798
vt 0.723087 0.942798
vt 0.775945 0.942798
vt 0.724055 0.645382
vt 0.704517 0.645382
vt 0.705484 0.645382
vt 0.714286 0.645382
vt 0.652626 0.645382
vt 0.642857 0.645382
vt 0.642857 0.632752
vt 0.571428 0.632752
vt 0.571428 0.645382
vt 0.633088 0.645382
vt 0.500000 0.632752
vt 0.785714 0.645382
vt 0.714286 0.632752
vt 0.785714 0.632752
vt 0.857143 0.645382
vt 0.775945 0.645382
vt 0.847374 0.645382
vt 0.795483 0.645382
vt 0.776913 0.645382
vt 0.794516 0.942798
vt 0.795483 0.942798
vt 0.847374 0.942798
vt 0.857143 0.942798
vt 0.928571 0.954462
vt 0.928571 0.942798
vt 0.866912 0.942798
vt 1.000000 0.954462
vt 0.071428 0.954462
vt -0.000000 0.954462
vt -0.000000 0.942798
vt 0.142857 0.954462
vt 0.071428 0.942798
vt 1.000000 0.942798
vt 0.938340 0.942798
vt 0.009769 0.942798
vt 0.990231 0.942798
vt 0.990231 0.645382
vt 0.938340 0.645382
vt 0.928572 0.645382
vt 0.919770 0.645382
vt 1.000000 0.645382
vt 0.928571 0.632752
vt 0.857143 0.632752
vt 0.918803 0.645382
vt 0.071428 0.645382
vt -0.000000 0.645382
vt -0.000000 0.632752
vt 1.000000 0.632752
vt 0.061660 0.645382
vt 0.009769 0.645382
vt 0.061660 0.942798
vt 0.080230 0.942798
vt 0.081197 0.942798
vt 0.081197 0.645382
vt 0.062627 0.645382
vt 0.133088 0.942798
vt 0.133088 0.645382
vt 0.142857 0.942798
vt 0.151658 0.942798
vt 0.214286 0.954462
vt 0.214286 0.942798
vt 0.152626 0.942798
vt 0.285714 0.954462
vt 0.357143 0.954462
vt 0.285714 0.942798
vt 0.357143 0.942798
vt 0.295483 0.942798
vt 0.224054 0.942798
vt 0.275945 0.942798
vt 0.294516 0.942798
vt 0.347374 0.942798
vt 0.295483 0.645382
vt 0.276913 0.645382
vt 0.275945 0.645382
vt 0.285714 0.645382
vt 0.224054 0.645382
vt 0.214286 0.645382
vt 0.214286 0.632752
vt 0.142857 0.632752
vt 0.142857 0.645382
vt 0.204517 0.645382
vt 0.205484 0.645382
vt 0.204517 0.942798
vt 0.152626 0.645382
vt 0.223087 0.942798
vt 0.134056 0.645382
vt 0.071428 0.632752
vt 0.347374 0.645382
vt 0.348341 0.645382
vt 0.366912 0.942798
vt 0.365944 0.942798
vt 0.428571 0.954462
vt 0.918802 0.942798
vt 0.937373 0.942798
vt 0.866912 0.645382
vt 0.848341 0.645382
vt 0.865944 0.942798
vt 0.634056 0.645382
vt 0.633088 0.942798
vt 0.581197 0.645382
vt 0.651658 0.942798
vt 0.562627 0.645382
vt 0.581197 0.942798
vt 0.561660 0.645382
vt 0.561660 0.942798
vt 0.580230 0.942798
vt 0.509769 0.645382
vt 0.491198 0.645382
vt 0.508801 0.942798
vt 0.829906 0.720284
vt 0.865046 0.702593
vt 0.884548 0.791915
vt 0.630244 0.752163
vt 0.654562 0.720284
vt 0.709203 0.791915
vt 0.689701 0.702593
vt 0.728704 0.702593
vt 0.763843 0.720284
vt 0.788161 0.752163
vt 0.796839 0.791915
vt 0.788161 0.831667
vt 0.763843 0.863546
vt 0.728704 0.881237
vt 0.689701 0.881237
vt 0.654562 0.863546
vt 0.630244 0.831667
vt 0.621566 0.791915
vt 0.904048 0.702593
vt 0.939188 0.720284
vt 0.963506 0.752163
vt 0.972184 0.791915
vt 0.963506 0.831667
vt 0.939188 0.863546
vt 0.904048 0.881237
vt 0.865046 0.881237
vt 0.829906 0.863546
vt 0.805589 0.831667
vt 0.796910 0.791915
vt 0.805589 0.752163
s 1
usemtl kolumna.001
f 11/1/1 9/2/2 8/3/2
f 9/2/2 7/4/3 8/3/2
f 11/1/1 8/3/2 10/5/1
f 12/6/4 11/1/1 10/5/1
f 9/2/5 11/1/5 16/7/5
f 11/1/5 12/6/5 14/8/5
f 11/1/5 13/1/5 16/7/5
f 15/9/5 13/1/5 11/1/5
f 14/8/5 15/9/5 11/1/5
f 16/10/6 15/9/6 21/9/6
f 15/9/5 16/10/5 13/1/5
f 16/7/7 20/11/8 17/11/9
f 17/11/10 18/12/11 16/7/11
f 16/7/5 18/12/5 9/2/5
f 16/7/7 19/7/7 20/11/8
f 16/10/6 21/9/6 19/10/6
f 19/7/12 21/9/12 22/13/12
f 23/13/13 22/13/14 21/9/15
f 23/13/13 21/9/15 15/9/15
f 17/11/5 22/14/5 23/14/5
f 17/11/6 23/14/6 24/15/6
f 26/15/6 24/15/6 23/13/6
f 25/16/16 23/13/16 15/9/16
f 23/13/6 25/16/6 27/17/6
f 27/17/6 26/15/6 23/13/6
f 32/18/17 28/19/4 27/17/4
f 28/19/4 26/15/1 27/17/4
f 32/18/17 27/17/4 29/20/17
f 29/20/6 27/17/6 31/21/6
f 27/17/6 30/17/6 31/21/6
f 25/16/6 30/17/6 27/17/6
f 33/22/18 32/18/17 29/20/17
f 35/23/19 34/24/20 38/25/20
f 36/26/21 35/23/19 37/27/19
f 35/23/19 38/25/20 37/27/19
f 34/24/20 39/28/18 38/25/20
f 37/27/6 38/25/6 43/29/6
f 38/25/6 39/28/6 41/30/6
f 38/25/6 40/25/6 43/29/6
f 42/31/6 40/25/6 38/25/6
f 41/30/6 42/31/6 38/25/6
f 42/31/5 46/32/5 43/32/5
f 42/31/6 43/32/6 40/25/6
f 45/33/22 43/29/22 44/34/22
f 43/29/23 47/34/24 44/34/25
f 43/29/6 45/33/6 37/27/6
f 43/29/23 46/29/23 47/34/24
f 48/35/26 47/34/26 46/29/26
f 49/36/6 47/34/6 48/36/6
f 49/36/6 44/34/6 47/34/6
f 44/34/5 49/36/5 50/37/5
f 52/37/5 50/37/5 49/35/5
f 49/35/27 54/31/28 42/31/29
f 42/31/15 51/38/15 49/35/15
f 49/35/5 51/38/5 53/39/5
f 49/35/27 48/35/27 54/31/28
f 53/39/5 52/37/5 49/35/5
f 42/31/5 54/31/5 46/32/5
f 48/35/26 46/29/26 54/31/26
f 52/37/20 53/39/18 55/40/18
f 53/39/18 59/41/17 55/40/18
f 53/39/18 56/42/17 59/41/17
f 56/42/5 53/39/5 58/43/5
f 53/39/5 57/39/5 58/43/5
f 51/38/5 57/39/5 53/39/5
f 56/42/17 60/44/4 59/41/17
f 63/45/19 52/37/20 61/46/20
f 52/37/20 55/40/18 61/46/20
f 63/45/19 61/46/20 62/47/19
f 64/48/21 63/45/19 62/47/19
f 52/37/5 63/45/5 68/49/5
f 63/45/5 64/48/5 66/50/5
f 63/45/5 65/45/5 68/49/5
f 67/51/5 65/45/5 63/45/5
f 66/50/5 67/51/5 63/45/5
f 67/51/6 69/52/6 68/52/6
f 67/51/5 68/52/5 65/45/5
f 68/49/30 70/33/30 45/33/30
f 45/33/22 44/34/22 68/49/22
f 68/49/5 44/34/5 52/37/5
f 68/49/30 69/49/30 70/33/30
f 72/53/5 70/33/5 71/53/5
f 69/49/31 71/54/31 70/33/31
f 72/53/5 45/33/5 70/33/5
f 45/33/6 72/53/6 73/27/6
f 37/27/6 73/27/6 72/54/6
f 74/55/32 72/54/32 67/51/32
f 72/54/33 76/51/34 67/51/34
f 72/54/6 74/55/6 75/56/6
f 72/54/33 71/54/33 76/51/34
f 75/56/6 37/27/6 72/54/6
f 69/49/31 76/51/31 71/54/31
f 67/51/6 76/51/6 69/52/6
f 80/57/35 36/26/21 75/56/21
f 36/26/21 37/27/19 75/56/21
f 80/57/35 75/56/21 77/58/35
f 77/58/6 75/56/6 79/59/6
f 75/56/6 78/56/36 79/59/6
f 74/55/6 78/56/36 75/56/6
f 81/60/37 80/57/35 77/58/35
f 82/61/38 81/62/37 85/63/37
f 83/64/39 82/61/38 84/65/38
f 82/61/38 85/63/37 84/65/38
f 81/60/37 77/58/35 85/66/37
f 85/66/6 77/58/6 88/67/6
f 84/65/6 85/63/6 87/68/6
f 89/69/6 86/66/6 85/66/6
f 85/63/6 86/63/6 87/68/6
f 88/67/6 89/69/6 85/66/6
f 89/63/6 87/68/6 86/63/6
f 87/68/5 89/63/5 91/63/5
f 90/70/22 91/69/22 89/69/22
f 89/69/40 92/71/40 90/70/40
f 89/69/40 88/67/40 92/71/40
f 92/71/5 93/72/5 96/72/5
f 92/71/5 94/73/5 93/72/5
f 94/73/6 92/71/6 95/71/6
f 88/67/41 95/71/7 92/71/7
f 90/70/5 92/71/5 96/72/5
f 97/74/37 96/72/35 2/75/35
f 96/72/35 1/76/21 2/75/35
f 96/72/35 64/48/21 1/76/21
f 64/48/5 96/72/5 94/77/5
f 96/72/5 97/74/5 90/70/5
f 96/72/5 93/72/5 94/77/5
f 98/78/38 97/79/37 3/80/37
f 97/74/37 2/75/35 3/81/37
f 97/79/5 98/78/5 100/82/5
f 97/74/5 99/74/5 90/70/5
f 101/83/5 99/79/5 97/79/5
f 100/82/5 101/83/5 97/79/5
f 101/83/5 90/79/5 99/79/5
f 90/79/6 101/83/6 102/83/6
f 103/84/42 87/68/42 101/83/42
f 87/68/43 102/83/43 101/83/43
f 103/84/42 101/83/42 100/82/42
f 103/84/6 104/65/6 84/65/6
f 103/84/6 105/85/6 104/65/6
f 105/85/5 103/84/5 106/84/5
f 100/82/44 106/84/32 103/84/32
f 87/68/6 103/84/6 84/65/6
f 105/85/5 106/84/5 107/85/5
f 108/82/45 107/86/45 106/84/45
f 100/82/44 108/82/44 106/84/32
f 110/87/6 109/87/6 108/88/6
f 108/82/45 109/87/45 107/86/45
f 110/87/6 108/88/6 100/88/6
f 110/87/5 111/78/5 98/78/5
f 110/87/5 100/88/5 111/78/5
f 113/89/46 105/86/46 110/87/46
f 105/86/47 109/87/48 110/87/48
f 112/90/5 110/87/5 98/78/5
f 113/89/46 110/87/46 112/90/46
f 113/89/6 114/91/6 117/91/6
f 113/89/6 115/92/6 114/91/6
f 115/92/5 113/89/5 116/89/5
f 112/90/49 116/89/50 113/89/50
f 105/86/6 113/89/6 117/91/6
f 119/93/51 83/64/39 117/91/39
f 83/64/39 84/65/38 117/91/39
f 119/93/51 117/91/39 118/94/51
f 118/94/6 117/91/6 115/95/6
f 117/91/6 84/65/6 105/86/6
f 117/91/6 114/91/6 115/95/6
f 120/96/3 119/93/51 118/94/51
f 121/97/2 120/96/3 122/98/3
f 120/96/3 118/94/51 122/98/3
f 121/97/2 122/98/3 123/99/2
f 123/99/6 122/98/6 127/100/6
f 122/98/6 118/94/6 125/101/6
f 122/98/6 124/98/6 127/100/6
f 126/102/6 124/98/6 122/98/6
f 125/101/6 126/102/6 122/98/6
f 127/103/5 126/102/5 131/102/5
f 126/102/6 127/103/6 124/98/6
f 129/104/47 127/100/47 128/105/47
f 127/100/30 132/105/52 128/105/52
f 127/100/6 129/104/6 123/99/6
f 127/100/30 130/100/30 132/105/52
f 127/103/5 131/102/5 130/103/5
f 128/105/6 132/105/6 133/106/6
f 133/107/53 132/105/53 130/100/53
f 134/107/33 133/107/33 131/102/54
f 133/107/53 130/100/53 131/102/53
f 128/105/6 133/106/6 134/106/6
f 128/105/5 134/106/5 135/108/5
f 137/108/5 135/108/5 134/107/5
f 134/107/33 131/102/54 126/102/54
f 126/102/43 136/109/43 134/107/43
f 134/107/5 136/109/5 138/110/5
f 138/110/5 137/108/5 134/107/5
f 137/108/3 138/110/51 6/111/51
f 138/110/51 5/112/39 6/111/51
f 138/110/51 139/113/39 5/112/39
f 139/113/5 138/110/5 141/114/5
f 138/110/5 140/110/5 141/114/5
f 136/109/5 140/110/5 138/110/5
f 141/115/6 136/109/6 145/109/6
f 136/109/5 141/115/5 140/110/5
f 141/114/23 146/116/55 142/116/55
f 142/116/7 143/117/7 141/114/7
f 141/114/5 143/117/5 139/113/5
f 141/114/23 144/114/23 146/116/55
f 141/115/6 145/109/6 144/115/6
f 142/116/5 146/116/5 147/118/5
f 144/114/56 147/101/56 146/116/56
f 125/101/27 147/101/27 145/109/27
f 144/114/56 145/109/56 147/101/56
f 142/116/5 147/118/5 125/118/5
f 125/101/27 145/109/27 136/109/27
f 143/117/5 148/113/5 139/113/5
f 143/117/5 112/119/5 148/113/5
f 143/117/6 150/119/6 112/119/6
f 142/116/7 115/95/7 143/117/7
f 115/95/57 149/117/11 143/117/11
f 143/117/6 149/117/6 150/119/6
f 150/90/58 149/117/58 151/95/58
f 112/90/49 150/90/49 116/89/50
f 150/90/58 151/95/58 116/89/58
f 115/92/5 116/89/5 151/92/5
f 115/95/57 151/95/57 149/117/11
f 139/113/5 148/113/5 112/90/5
f 142/116/6 152/94/6 118/94/6
f 142/116/6 125/118/6 152/94/6
f 115/95/6 142/116/6 118/94/6
f 118/94/6 152/94/6 125/101/6
f 139/113/39 4/120/38 5/112/39
f 139/113/39 98/78/38 4/120/38
f 98/78/5 139/113/5 112/90/5
f 9/2/2 137/108/3 7/4/3
f 137/108/3 6/111/51 7/4/3
f 137/108/5 9/2/5 153/121/5
f 128/105/5 135/108/5 137/108/5
f 153/121/5 128/105/5 137/108/5
f 153/122/6 18/12/6 157/12/6
f 18/12/5 153/122/5 154/2/5
f 9/2/5 154/2/5 153/121/5
f 153/121/59 156/104/46 129/104/46
f 129/104/47 128/105/47 153/121/47
f 153/121/59 155/121/59 156/104/46
f 153/122/6 157/12/6 155/122/6
f 155/121/60 157/12/60 158/123/61
f 159/123/62 158/123/62 157/12/63
f 159/123/62 157/12/63 18/12/63
f 129/104/5 158/124/5 159/124/5
f 129/104/6 159/124/6 160/99/64
f 123/99/6 160/99/64 159/123/6
f 17/11/10 159/123/10 18/12/11
f 159/123/6 17/11/6 26/15/6
f 26/15/6 123/99/6 159/123/6
f 129/104/6 160/99/64 123/99/6
f 129/104/5 156/104/5 158/124/5
f 155/121/60 158/123/61 156/104/61
f 18/12/5 154/2/5 9/2/5
f 126/102/43 125/101/43 136/109/43
f 161/125/1 121/97/2 123/99/2
f 161/125/1 123/99/2 26/15/1
f 28/19/4 161/125/1 26/15/1
f 98/78/5 111/78/5 100/82/5
f 105/86/47 107/86/47 109/87/48
f 84/65/6 104/65/6 105/86/6
f 90/79/6 102/83/6 162/79/6
f 163/68/37 162/79/37 102/83/37
f 87/68/43 163/68/43 102/83/43
f 163/68/37 91/63/37 162/79/37
f 87/68/5 91/63/5 163/68/5
f 90/70/22 162/70/22 91/69/22
f 98/78/38 3/80/37 4/120/38
f 164/77/65 95/71/65 165/67/65
f 94/73/6 95/71/6 164/73/6
f 88/67/41 165/67/41 95/71/7
f 167/126/5 166/126/5 165/127/5
f 164/77/65 165/67/65 166/126/65
f 167/126/5 165/127/5 88/127/5
f 167/126/6 168/58/6 77/58/6
f 167/126/6 88/127/6 168/58/6
f 94/77/15 166/126/66 167/126/66
f 167/126/50 169/128/50 94/77/50
f 79/59/6 167/126/6 77/58/6
f 167/126/50 79/59/50 169/128/50
f 169/128/5 170/48/5 64/48/5
f 169/128/5 66/129/5 170/48/5
f 66/129/6 169/128/6 171/128/6
f 79/59/59 171/128/46 169/128/46
f 94/77/5 169/128/5 64/48/5
f 172/50/67 171/128/67 173/59/67
f 66/129/6 171/128/6 172/129/6
f 79/59/59 173/59/59 171/128/46
f 74/55/5 174/55/5 173/130/5
f 172/50/67 173/59/67 174/55/67
f 74/55/5 173/130/5 79/130/5
f 66/50/68 172/50/68 174/55/62
f 66/50/68 174/55/62 74/55/62
f 64/48/5 170/48/5 66/50/5
f 77/58/6 168/58/6 88/67/6
f 94/77/15 164/77/15 166/126/66
f 74/55/6 79/130/6 78/56/36
f 74/55/32 67/51/32 66/50/32
f 45/33/6 73/27/6 37/27/6
f 64/48/21 62/47/19 1/76/21
f 56/42/17 12/6/4 60/44/4
f 12/6/4 10/5/1 60/44/4
f 51/38/6 177/131/6 58/131/6
f 51/38/5 58/131/5 57/39/5
f 58/43/11 178/132/69 175/132/69
f 175/132/62 176/133/70 58/43/70
f 58/43/5 176/133/5 56/42/5
f 58/43/11 177/43/11 178/132/69
f 41/134/5 178/132/5 179/134/5
f 177/43/71 179/30/72 178/132/72
f 41/134/5 175/132/5 178/132/5
f 41/30/49 179/30/49 180/38/50
f 177/43/71 180/38/71 179/30/72
f 51/38/6 180/38/6 177/131/6
f 41/30/49 180/38/50 51/38/50
f 176/133/5 181/42/5 56/42/5
f 176/133/5 182/135/5 181/42/5
f 176/133/6 185/135/6 182/135/6
f 175/132/62 183/136/62 176/133/70
f 183/136/32 184/133/73 176/133/73
f 176/133/6 184/133/6 185/135/6
f 185/137/74 184/133/74 187/136/74
f 182/137/75 185/137/75 186/138/47
f 185/137/74 187/136/74 186/138/74
f 183/139/5 186/138/5 187/139/5
f 183/136/32 187/136/32 184/133/73
f 183/139/5 188/138/5 186/138/5
f 182/137/75 186/138/47 188/138/47
f 188/138/6 189/20/6 29/20/6
f 188/138/6 183/139/6 189/20/6
f 188/138/76 190/140/76 182/137/76
f 188/138/76 31/21/76 190/140/76
f 31/21/6 188/138/6 29/20/6
f 190/140/5 191/6/5 12/6/5
f 190/140/5 14/141/5 191/6/5
f 14/141/6 190/140/6 192/140/6
f 31/21/22 192/140/22 190/140/22
f 182/137/5 190/140/5 12/6/5
f 193/8/4 192/140/4 194/21/4
f 14/141/6 192/140/6 193/141/6
f 31/21/22 194/21/22 192/140/22
f 193/8/4 194/21/4 195/16/4
f 31/142/5 195/16/5 194/142/5
f 14/8/43 193/8/43 195/16/43
f 31/142/5 25/16/5 195/16/5
f 14/8/43 195/16/43 25/16/43
f 12/6/5 191/6/5 14/8/5
f 29/20/6 189/20/6 183/136/6
f 183/136/6 175/132/6 39/28/6
f 39/28/6 29/20/6 183/136/6
f 56/42/5 181/42/5 182/137/5
f 12/6/5 56/42/5 182/137/5
f 175/132/6 196/28/6 39/28/6
f 175/132/6 41/134/6 196/28/6
f 39/28/6 196/28/6 41/30/6
f 44/34/5 50/37/5 52/37/5
f 42/31/15 41/30/15 51/38/15
f 34/24/20 33/22/18 39/28/18
f 33/22/18 29/20/17 39/28/18
f 25/16/6 31/142/6 30/17/6
f 17/11/6 24/15/6 26/15/6
f 25/16/16 15/9/16 14/8/16
f 17/11/5 20/11/5 22/14/5
f 19/7/12 22/13/12 20/11/12
f 8/143/6 7/144/6 198/145/6
f 32/146/5 33/147/5 197/148/5
f 33/147/5 34/149/5 197/148/5
f 34/149/5 35/150/5 197/148/5
f 35/150/5 36/151/5 197/148/5
f 36/151/5 80/152/5 197/148/5
f 80/152/5 81/153/5 197/148/5
f 81/153/5 82/154/5 197/148/5
f 82/154/5 83/155/5 197/148/5
f 83/155/5 119/156/5 197/148/5
f 119/156/5 120/157/5 197/148/5
f 120/157/5 121/158/5 197/148/5
f 121/158/5 161/159/5 197/148/5
f 161/159/5 28/160/5 197/148/5
f 28/160/5 32/146/5 197/148/5
f 7/144/6 6/161/6 198/145/6
f 6/161/6 5/162/6 198/145/6
f 5/162/6 4/163/6 198/145/6
f 4/163/6 3/164/6 198/145/6
f 3/164/6 2/165/6 198/145/6
f 2/165/6 1/166/6 198/145/6
f 1/166/6 62/167/6 198/145/6
f 62/167/6 61/168/6 198/145/6
f 61/168/6 55/169/6 198/145/6
f 55/169/6 59/170/6 198/145/6
f 59/170/6 60/171/6 198/145/6
f 60/171/6 10/172/6 198/145/6
f 10/172/6 8/143/6 198/145/6
