# Blender 3.6.1
# www.blender.org
mtllib murek.mtl
o Cube
v 0.199083 0.012996 4.239330
v 0.199083 0.512996 4.239330
v -0.157327 0.012996 2.908395
v -0.157327 0.512996 2.908395
v 0.673733 0.012996 4.082141
v 0.673733 0.512996 4.082141
v 0.342673 0.012996 2.908395
v 0.342673 0.512996 2.908395
v 0.092673 0.012996 2.908395
v -0.311228 1.012996 0.659770
v 0.436408 0.012996 4.160736
v 0.436408 0.512996 4.160736
v -0.424451 0.512996 2.284537
v -0.424451 0.012996 2.284537
v -0.174451 0.012996 2.284537
v -0.561228 1.012996 0.659770
v 0.075549 0.512996 2.284537
v 0.075549 0.012996 2.284537
v -0.581205 0.512996 1.483971
v -0.581205 0.012996 1.483971
v -0.331205 0.012996 1.483971
v -0.313965 0.512996 1.489532
v -0.081205 0.512996 1.483971
v -0.081205 0.012996 1.483971
v -0.811228 0.512996 0.659770
v -0.811228 0.012996 0.659770
v -0.561228 0.012996 0.659770
v -0.525418 0.512996 0.671322
v -0.311228 0.512996 0.659770
v -0.311228 0.012996 0.659770
v -0.811228 0.512996 -0.090230
v -0.811228 0.012996 -0.090230
v -0.561228 0.012996 -0.090230
v -0.311228 0.762996 -1.590230
v -0.311228 0.512996 -0.090230
v -0.311228 0.012996 -0.090230
v -0.811228 0.512996 -0.840230
v -0.811228 0.012996 -0.840230
v -0.561228 0.012996 -0.840230
v -0.561228 0.762996 -1.590230
v -0.311228 0.512996 -0.840230
v -0.311228 0.012996 -0.840230
v -0.011802 0.012996 3.552710
v -0.011802 0.512996 3.552710
v 0.499746 0.012996 3.472345
v 0.499746 0.512996 3.472345
v 0.244316 0.512996 3.512183
v 0.244316 0.012996 3.512183
v -0.811228 0.512996 -1.590230
v -0.811228 0.012996 -1.590230
v -0.561228 0.012996 -1.590230
v -0.561228 0.512996 -1.590230
v -0.311228 0.512996 -1.590230
v -0.311228 0.012996 -1.590230
v -0.581205 0.512996 -2.266028
v -0.581205 0.012996 -2.266028
v -0.331205 0.012996 -2.266028
v -0.280755 0.512996 -2.282807
v -0.081205 0.512996 -2.266028
v -0.081205 0.012996 -2.266028
v -0.157327 0.512996 -3.091605
v -0.157327 0.012996 -3.091605
v 0.092673 0.012996 -3.091605
v 0.112694 0.512996 -3.101058
v 0.342673 0.512996 -3.091605
v 0.342673 0.012996 -3.091605
v -0.008325 0.762996 3.554565
v -0.157327 0.762996 2.908395
v 0.092673 0.762996 2.908395
v 0.342673 0.762996 2.908395
v -0.174451 0.762996 2.284537
v 0.075549 0.762996 2.284537
v -0.424451 0.762996 2.284537
v -0.313965 0.762996 1.489532
v -0.063965 0.762996 1.489532
v -0.563965 0.762996 1.489532
v 0.503584 0.762996 3.481783
v 0.248240 0.762996 3.517564
v -0.811228 1.012996 0.659770
v -0.561228 1.012996 -0.090230
v -0.311228 1.012996 -0.090230
v -0.811228 1.012996 -0.090230
v -0.561228 1.012996 -0.840230
v -0.311228 1.012996 -0.840230
v -0.811228 1.012996 -0.840230
v -0.311228 1.012996 -1.590230
v -0.561228 1.012996 -1.590230
v -0.811228 1.012996 -1.590230
v -0.811228 0.762996 -1.590230
v -0.581205 0.762996 -2.266028
v -0.331205 0.762996 -2.266028
v -0.081205 0.762996 -2.266028
v -0.174451 1.012996 2.284537
v 0.075549 1.012996 2.284537
v -0.424451 1.012996 2.284537
v -0.331205 1.012996 1.483971
v -0.081205 1.012996 1.483971
v -0.581205 1.012996 1.483971
vn -0.9754 -0.0000 0.2203
vn 0.9616 -0.0000 -0.2744
vn 0.3144 -0.0000 0.9493
vn -0.0000 -1.0000 -0.0000
vn -0.0000 1.0000 -0.0000
vn 0.1541 -0.0237 0.9878
vn -0.9193 -0.0000 0.3936
vn 0.9193 -0.0000 -0.3936
vn 0.9632 -0.0000 -0.2688
vn -0.9814 -0.0000 0.1922
vn 0.9628 -0.0046 -0.2702
vn 0.9814 -0.0000 -0.1922
vn -0.0000 -0.0000 -1.0000
vn -0.9632 -0.0000 0.2688
vn 1.0000 -0.0000 -0.0000
vn -1.0000 -0.0000 -0.0000
vn -0.0000 -0.0000 1.0000
vn -0.9794 0.0633 0.1918
vn -0.0000 0.0222 -0.9998
vn 0.9633 -0.0000 -0.2683
vn -0.9559 -0.0000 0.2936
vn -0.9467 -0.0000 -0.3222
vn 0.9467 -0.0000 0.3222
vn -0.0000 -0.0189 -0.9998
vn -0.8896 -0.0000 -0.4567
vn 0.8896 -0.0000 0.4567
vn -0.0000 -0.0222 -0.9998
vn 0.9849 -0.0000 -0.1728
vn 0.1563 -0.0095 0.9877
vn -0.0000 0.0231 0.9997
vn 0.0838 -0.0000 -0.9965
vn -0.0557 0.0557 -0.9969
vn -0.9794 -0.0633 0.1918
vn -0.9744 0.0119 0.2247
vn 0.1387 -0.0395 0.9896
vn -0.0404 0.0202 0.9990
vn -0.9849 -0.0000 0.1728
vn -0.0239 -0.0000 -0.9997
vn 0.0411 -0.0000 -0.9992
vn -0.0350 -0.0175 -0.9992
vn 0.9794 -0.0633 -0.1918
vn 0.1427 -0.0235 0.9895
vn 0.0208 0.0208 -0.9996
vn 0.0539 -0.0000 0.9985
vn -0.0000 0.0670 -0.9978
vn 0.9794 0.0633 -0.1918
vt 0.625000 0.125000
vt 0.375000 0.250000
vt 0.375000 0.125000
vt 0.625000 0.250000
vt 0.625000 0.625000
vt 0.375000 0.750000
vt 0.375000 0.625000
vt 0.625000 0.875000
vt 0.375000 1.000000
vt 0.375000 0.875000
vt 0.250000 0.750000
vt 0.250000 0.625000
vt 0.750000 0.625000
vt 0.875000 0.750000
vt 0.750000 0.750000
vt 0.625000 0.750000
vt 0.125000 0.750000
vt 0.125000 0.625000
vt 0.125000 0.500000
vt 0.250000 0.500000
vt 0.375000 0.500000
vt 0.625000 0.500000
vt 0.875000 0.500000
vt 0.750000 0.500000
vt 0.625000 0.000000
vt 0.375000 0.000000
vt 0.625000 0.375000
vt 0.375000 0.375000
vt 0.875000 0.625000
vt 0.625000 1.000000
s 0
usemtl Material.009
f 44/1/1 3/2/1 43/3/1
f 44/1/1 68/4/1 4/4/1
f 46/5/2 5/6/2 45/7/2
f 12/8/3 1/9/3 11/10/3
f 45/7/4 11/11/4 48/12/4
f 47/13/5 2/14/5 12/15/5
f 46/5/5 12/15/5 6/16/5
f 48/12/4 1/17/4 43/18/4
f 6/16/3 11/10/3 5/6/3
f 3/19/4 15/20/4 9/20/4
f 46/5/6 78/13/6 47/13/6
f 15/20/4 24/21/4 18/21/4
f 4/4/7 73/4/7 13/4/7
f 4/4/7 14/2/7 3/2/7
f 9/20/4 18/21/4 7/21/4
f 7/21/8 17/22/8 8/22/8
f 24/21/9 29/22/9 23/22/9
f 19/23/5 28/24/5 25/23/5
f 13/4/10 20/2/10 14/2/10
f 46/5/11 70/22/11 77/5/11
f 18/21/12 23/22/12 17/22/12
f 14/19/4 21/20/4 15/20/4
f 49/23/13 87/24/13 52/24/13
f 27/20/4 36/21/4 30/21/4
f 20/19/4 27/20/4 21/20/4
f 21/20/4 30/21/4 24/21/4
f 22/24/5 29/22/5 28/24/5
f 19/4/14 26/2/14 20/2/14
f 32/19/4 39/20/4 33/20/4
f 36/21/15 41/22/15 35/22/15
f 25/4/16 32/2/16 26/2/16
f 25/4/16 82/4/16 31/4/16
f 30/21/15 35/22/15 29/22/15
f 26/19/4 33/20/4 27/20/4
f 37/4/16 50/2/16 38/2/16
f 25/23/17 16/24/17 79/23/17
f 33/20/4 42/21/4 36/21/4
f 37/4/16 88/4/16 49/4/16
f 31/4/16 38/2/16 32/2/16
f 31/4/16 85/4/16 37/4/16
f 9/20/4 43/18/4 3/19/4
f 13/4/18 76/4/18 19/4/18
f 23/22/19 74/24/19 75/22/19
f 7/21/4 48/12/4 9/20/4
f 8/22/20 45/7/20 7/21/20
f 2/25/21 43/3/21 1/26/21
f 52/24/17 89/23/17 49/23/17
f 49/4/22 56/2/22 50/2/22
f 41/22/15 81/22/15 35/22/15
f 42/21/15 53/22/15 41/22/15
f 38/19/4 51/20/4 39/20/4
f 39/20/4 54/21/4 42/21/4
f 59/22/5 64/24/5 58/24/5
f 60/21/4 63/20/4 66/21/4
f 54/21/23 59/22/23 53/22/23
f 51/20/4 56/19/4 57/20/4
f 54/21/4 57/20/4 60/21/4
f 59/22/23 34/22/23 53/22/23
f 64/27/24 66/21/24 63/28/24
f 61/4/13 63/28/13 62/2/13
f 55/4/25 62/2/25 56/2/25
f 58/24/5 61/23/5 55/23/5
f 60/21/26 65/22/26 59/22/26
f 57/20/4 62/19/4 63/20/4
f 68/23/5 71/24/5 73/23/5
f 71/24/17 95/23/17 73/23/17
f 69/24/5 72/22/5 71/24/5
f 74/24/27 97/22/27 75/22/27
f 70/22/5 78/13/5 77/5/5
f 69/24/5 67/29/5 78/13/5
f 17/22/28 75/22/28 72/22/28
f 17/22/8 70/22/8 8/22/8
f 47/13/29 67/29/29 44/29/29
f 22/24/13 76/23/13 74/24/13
f 10/22/5 80/24/5 16/24/5
f 16/24/5 82/23/5 79/23/5
f 84/22/5 87/24/5 83/24/5
f 81/22/5 83/24/5 80/24/5
f 80/24/5 85/23/5 82/23/5
f 83/24/5 88/23/5 85/23/5
f 28/24/30 10/22/30 16/24/30
f 52/24/13 86/22/13 53/22/13
f 53/22/15 84/22/15 41/22/15
f 35/22/15 10/22/15 29/22/15
f 40/24/5 90/23/5 89/23/5
f 34/22/5 91/24/5 40/24/5
f 58/24/31 92/22/31 59/22/31
f 55/23/32 91/24/32 58/24/32
f 49/4/22 90/4/22 55/4/22
f 53/22/17 40/24/17 52/24/17
f 93/24/5 97/22/5 96/24/5
f 95/23/5 96/24/5 98/23/5
f 76/23/27 96/24/27 74/24/27
f 72/22/17 93/24/17 71/24/17
f 76/4/33 95/4/33 98/4/33
f 75/22/28 94/22/28 72/22/28
f 44/1/1 4/4/1 3/2/1
f 44/1/34 67/1/34 68/4/34
f 46/5/2 6/16/2 5/6/2
f 12/8/3 2/30/3 1/9/3
f 45/7/4 5/6/4 11/11/4
f 47/13/5 44/29/5 2/14/5
f 46/5/5 47/13/5 12/15/5
f 48/12/4 11/11/4 1/17/4
f 6/16/3 12/8/3 11/10/3
f 3/19/4 14/19/4 15/20/4
f 46/5/35 77/5/35 78/13/35
f 15/20/4 21/20/4 24/21/4
f 4/4/7 68/4/7 73/4/7
f 4/4/7 13/4/7 14/2/7
f 9/20/4 15/20/4 18/21/4
f 7/21/8 18/21/8 17/22/8
f 24/21/9 30/21/9 29/22/9
f 19/23/5 22/24/5 28/24/5
f 13/4/10 19/4/10 20/2/10
f 46/5/20 8/22/20 70/22/20
f 18/21/12 24/21/12 23/22/12
f 14/19/4 20/19/4 21/20/4
f 49/23/13 88/23/13 87/24/13
f 27/20/4 33/20/4 36/21/4
f 20/19/4 26/19/4 27/20/4
f 21/20/4 27/20/4 30/21/4
f 22/24/5 23/22/5 29/22/5
f 19/4/14 25/4/14 26/2/14
f 32/19/4 38/19/4 39/20/4
f 36/21/15 42/21/15 41/22/15
f 25/4/16 31/4/16 32/2/16
f 25/4/16 79/4/16 82/4/16
f 30/21/15 36/21/15 35/22/15
f 26/19/4 32/19/4 33/20/4
f 37/4/16 49/4/16 50/2/16
f 25/23/36 28/24/36 16/24/36
f 33/20/4 39/20/4 42/21/4
f 37/4/16 85/4/16 88/4/16
f 31/4/16 37/4/16 38/2/16
f 31/4/16 82/4/16 85/4/16
f 9/20/4 48/12/4 43/18/4
f 13/4/37 73/4/37 76/4/37
f 23/22/38 22/24/38 74/24/38
f 7/21/4 45/7/4 48/12/4
f 8/22/20 46/5/20 45/7/20
f 2/25/21 44/1/21 43/3/21
f 52/24/17 40/24/17 89/23/17
f 49/4/22 55/4/22 56/2/22
f 41/22/15 84/22/15 81/22/15
f 42/21/15 54/21/15 53/22/15
f 38/19/4 50/19/4 51/20/4
f 39/20/4 51/20/4 54/21/4
f 59/22/5 65/22/5 64/24/5
f 60/21/4 57/20/4 63/20/4
f 54/21/23 60/21/23 59/22/23
f 51/20/4 50/19/4 56/19/4
f 54/21/4 51/20/4 57/20/4
f 59/22/23 92/22/23 34/22/23
f 64/27/39 65/22/39 66/21/39
f 61/4/40 64/27/40 63/28/40
f 55/4/25 61/4/25 62/2/25
f 58/24/5 64/24/5 61/23/5
f 60/21/26 66/21/26 65/22/26
f 57/20/4 56/19/4 62/19/4
f 68/23/5 69/24/5 71/24/5
f 71/24/17 93/24/17 95/23/17
f 69/24/5 70/22/5 72/22/5
f 74/24/27 96/24/27 97/22/27
f 70/22/5 69/24/5 78/13/5
f 69/24/5 68/23/5 67/29/5
f 17/22/41 23/22/41 75/22/41
f 17/22/8 72/22/8 70/22/8
f 47/13/42 78/13/42 67/29/42
f 22/24/43 19/23/43 76/23/43
f 10/22/5 81/22/5 80/24/5
f 16/24/5 80/24/5 82/23/5
f 84/22/5 86/22/5 87/24/5
f 81/22/5 84/22/5 83/24/5
f 80/24/5 83/24/5 85/23/5
f 83/24/5 87/24/5 88/23/5
f 28/24/44 29/22/44 10/22/44
f 52/24/13 87/24/13 86/22/13
f 53/22/15 86/22/15 84/22/15
f 35/22/15 81/22/15 10/22/15
f 40/24/5 91/24/5 90/23/5
f 34/22/5 92/22/5 91/24/5
f 58/24/45 91/24/45 92/22/45
f 55/23/13 90/23/13 91/24/13
f 49/4/22 89/4/22 90/4/22
f 53/22/17 34/22/17 40/24/17
f 93/24/5 94/22/5 97/22/5
f 95/23/5 93/24/5 96/24/5
f 76/23/27 98/23/27 96/24/27
f 72/22/17 94/22/17 93/24/17
f 76/4/37 73/4/37 95/4/37
f 75/22/46 97/22/46 94/22/46
