# Blender 4.4.3
# www.blender.org
mtllib murek_2.mtl
o Vert.002
v -1.531274 0.314025 -23.700834
v -1.531274 0.314025 25.676195
v -1.531274 4.473741 25.676195
v -1.531274 4.473741 14.903031
v -1.531274 8.633457 14.903031
v -1.531274 8.633457 7.909914
v -1.531274 4.473741 7.909914
v -1.531274 4.473741 -6.312560
v -1.531274 8.633457 -6.312560
v -1.531274 8.633457 -20.346037
v -1.531274 4.473741 -20.346037
v -1.531274 4.473741 -23.700834
v 2.664590 0.314025 -23.700834
v 2.664590 0.314025 25.676195
v 2.664590 4.473741 25.676195
v 2.664590 4.473741 14.903031
v 2.664590 8.633457 14.903031
v 2.664590 8.633457 7.909914
v 2.664590 4.473741 7.909914
v 2.664590 4.473741 -6.312560
v 2.664590 8.633457 -6.312560
v 2.664590 8.633457 -20.346037
v 2.664590 4.473741 -20.346037
v 2.664590 4.473741 -23.700834
vn -0.0000 1.0000 -0.0000
vn -0.0000 -0.0000 -1.0000
vn -0.0000 -0.0000 1.0000
vn -0.0000 -1.0000 -0.0000
vn -1.0000 -0.0000 -0.0000
vn 1.0000 -0.0000 -0.0000
vt 0.000112 0.999889
vt 0.063656 0.836735
vt 0.063656 0.999890
vt 0.000110 0.113913
vt 0.063655 0.050917
vt 0.063655 0.113914
vt 0.000111 0.604834
vt 0.063655 0.389441
vt 0.063655 0.604834
vt 0.000111 0.836735
vt 0.063656 0.773739
vt 0.000110 0.050917
vt 0.063655 0.000110
vt 0.127421 0.063107
vt 0.063878 0.810898
vt 0.063876 0.063107
vt 0.000111 0.389441
vt 0.063655 0.326444
vt 0.000111 0.773738
vt 0.063656 0.667831
vt 0.063876 0.000110
vt 0.127422 0.810898
vt 0.063878 0.873895
vt 0.000111 0.326444
vt 0.000111 0.667831
vt 0.379851 0.747902
vt 0.316854 0.584747
vt 0.316854 0.478840
vt 0.127642 0.000110
vt 0.190639 0.263447
vt 0.190639 0.478840
vt 0.000110 0.000110
vt 0.127421 0.000110
vt 0.127422 0.873895
vt 0.316854 0.000110
vt 0.379851 0.000110
vt 0.316854 0.050917
vt 0.316854 0.263448
vt 0.316854 0.747902
vt 0.253857 0.584747
vt 0.253857 0.478840
vt 0.253857 0.263448
vt 0.253857 0.050917
vt 0.127642 0.747902
vt 0.190639 0.000110
vt 0.190639 0.050917
vt 0.253636 0.050917
vt 0.253636 0.263447
vt 0.190639 0.584747
vt 0.190639 0.747902
vt 0.253636 0.478840
vt 0.253636 0.584747
s 0
usemtl murek_2
f 15/1/1 4/2/1 3/3/1
f 22/4/2 11/5/2 10/6/2
f 19/7/1 8/8/1 7/9/1
f 16/10/3 5/11/3 4/2/3
f 23/12/1 12/13/1 11/5/1
f 13/14/4 2/15/4 1/16/4
f 20/17/3 9/18/3 8/8/3
f 17/19/1 6/20/1 5/11/1
f 12/21/2 13/14/2 1/16/2
f 14/22/3 3/23/3 2/15/3
f 21/24/1 10/6/1 9/18/1
f 18/25/2 7/9/2 6/20/2
f 2/26/5 4/27/5 7/28/5
f 13/29/6 20/30/6 19/31/6
f 15/1/1 16/10/1 4/2/1
f 22/4/2 23/12/2 11/5/2
f 19/7/1 20/17/1 8/8/1
f 16/10/3 17/19/3 5/11/3
f 23/12/1 24/32/1 12/13/1
f 13/14/4 14/22/4 2/15/4
f 20/17/3 21/24/3 9/18/3
f 17/19/1 18/25/1 6/20/1
f 12/21/2 24/33/2 13/14/2
f 14/22/3 15/34/3 3/23/3
f 21/24/1 22/4/1 10/6/1
f 18/25/2 19/7/2 7/9/2
f 12/35/5 1/36/5 11/37/5
f 1/36/5 2/26/5 7/28/5
f 11/37/5 1/36/5 8/38/5
f 2/26/5 3/39/5 4/27/5
f 4/27/5 5/40/5 6/41/5
f 4/27/5 6/41/5 7/28/5
f 8/38/5 1/36/5 7/28/5
f 9/42/5 10/43/5 11/37/5
f 8/38/5 9/42/5 11/37/5
f 14/44/6 13/29/6 19/31/6
f 13/29/6 24/45/6 23/46/6
f 23/46/6 22/47/6 21/48/6
f 13/29/6 23/46/6 20/30/6
f 16/49/6 15/50/6 14/44/6
f 18/51/6 17/52/6 16/49/6
f 19/31/6 18/51/6 16/49/6
f 23/46/6 21/48/6 20/30/6
f 19/31/6 16/49/6 14/44/6
