# Blender 4.4.3
# www.blender.org
mtllib murek_3.mtl
o Vert.003
v 5.192983 0.350870 -22.373402
v -7.935619 0.350870 29.120501
v -7.935619 4.461683 29.120501
v -5.561718 4.461683 26.239786
v -5.561718 8.667000 26.239786
v -3.458269 8.667000 23.687269
v -3.458269 12.919567 23.687269
v 2.607229 12.919567 11.214182
v 2.598168 8.856003 11.211031
v 2.177684 8.856003 14.646196
v 2.134275 4.556185 14.629469
v 3.669612 4.556185 7.583633
v 3.669612 8.619747 7.583633
v 4.630210 8.619747 4.369295
v 4.630210 12.966816 4.369295
v 6.942176 12.966816 -16.047821
v 7.982203 8.761499 -16.038410
v 4.182909 8.761499 -25.966955
v 4.182909 4.508934 -25.966955
v 5.167410 4.508934 -22.464380
v 9.236359 0.350870 -23.509911
v -4.694316 0.350870 31.791548
v -4.694316 4.461683 31.791548
v -2.320415 4.461683 28.910833
v -2.320415 8.667000 28.910833
v -0.216968 8.667000 26.358316
v -0.216968 12.919567 26.358316
v 6.611291 12.919567 12.409304
v 6.611375 8.856003 12.408136
v 6.160422 8.856003 16.294271
v 6.121563 4.556185 16.240610
v 7.693818 4.556185 8.786261
v 7.693818 8.619747 8.786261
v 8.654415 8.619747 5.571920
v 8.654415 12.966816 5.571920
v 11.019505 12.966816 -16.510653
v 11.985142 8.761499 -16.988155
v 8.226285 8.761499 -27.103464
v 8.226285 4.508934 -27.103464
v 9.210786 4.508934 -23.600889
v 4.626517 0.350870 4.381655
v 4.628199 4.109480 4.376028
v 4.628653 5.130547 4.374508
v 2.119204 3.342856 14.626402
v 2.090879 0.350870 14.622519
v 7.947775 1.288714 -15.986294
v 7.957644 0.350870 -15.985764
v 2.219969 12.919567 14.672441
v 7.128436 8.690517 -5.833086
v 7.105915 6.941978 -5.824583
v 7.127468 12.966816 -5.858831
v 7.099953 0.350870 -5.785558
v 7.121461 10.864670 -5.846746
v 7.102040 2.703196 -5.799486
v 5.988334 5.944847 -0.175234
v 5.975537 3.481615 -0.132414
v 6.016976 12.966816 -0.297926
v 6.002399 8.651838 -0.222300
v 6.019811 12.002704 -0.280563
v 5.959267 0.350870 -0.077971
v 8.363708 8.726294 -11.155081
v 8.308208 7.859021 -11.145218
v 7.550626 12.966816 -11.138079
v 8.371546 0.350870 -11.103895
v 8.288356 1.990947 -11.105640
v 8.287894 9.804668 -11.154587
v -0.215457 12.919567 19.752142
v -0.460678 2.335872 20.049711
v -0.410149 4.516417 19.988394
v -0.311954 8.754564 19.869238
v -0.441871 3.147478 20.026892
v -0.357475 6.790029 19.924475
v -0.259796 11.005722 19.805944
v -0.506672 0.350870 20.105528
v 3.226391 4.294773 9.066736
v 3.227754 4.556185 9.062174
v 3.205904 0.350870 9.135286
v 2.818371 4.516281 22.674955
v 3.021163 12.919567 22.428869
v 2.717892 0.350870 22.796888
v 2.765681 2.331904 22.738894
v 2.873374 6.796354 22.608210
v 2.975013 11.009606 22.484869
v 2.785225 3.142177 22.715178
v 2.920603 8.754320 22.550898
v 6.089781 12.919567 16.281118
v 6.164461 8.892965 16.255117
v 6.164646 8.856003 16.255377
v 6.105575 3.339889 16.247473
v 6.003740 0.350870 16.266184
v 7.225365 4.279891 10.353788
v 7.239241 0.350870 10.307360
v 7.224390 4.556185 10.357050
v 8.621433 8.480225 5.682285
v 8.633595 5.119009 5.641592
v 8.650845 0.350870 5.583872
v 8.637221 4.116555 5.629457
v 8.620931 8.619747 5.683968
v 9.997447 3.482684 1.077890
v 10.006238 5.941074 1.048473
v 8.309288 0.350870 0.614216
v 10.027950 12.013850 0.975822
v 10.025758 12.966816 0.957266
v 10.015931 8.651588 1.016039
v 9.986245 0.350870 1.115374
v 11.214518 0.350870 -4.863058
v 11.226416 2.694575 -4.872091
v 11.235806 10.854867 -4.904443
v 11.227690 6.951712 -4.891019
v 11.241800 12.966816 -4.910850
v 11.244948 8.690876 -4.889352
v 12.110570 0.350870 -10.824877
v 12.114958 9.821262 -10.826960
v 12.137133 7.846715 -10.829496
v 12.083673 1.995788 -10.829346
v 11.465332 12.966816 -10.600695
v 12.186522 8.725777 -10.842329
v 11.920799 1.275525 -17.038486
v 11.924112 0.350870 -17.047176
v 0.166712 0.350870 20.656233
v 2.744720 0.350870 22.764349
v 1.647115 0.350870 21.866907
v 1.839631 12.919567 21.485346
v 2.995413 12.919567 22.460115
v 1.468545 12.919567 21.172377
v 11.910888 0.350870 -17.079241
v 10.959556 0.350870 -16.816105
v 9.986589 0.350870 -16.546984
vn -0.0000 -1.0000 -0.0000
vn -0.6360 -0.0000 0.7717
vn -0.0000 1.0000 -0.0000
vn 0.3824 -0.0003 -0.9240
vn -0.2706 -0.0000 -0.9627
vn -0.2863 -0.0000 0.9581
vn -0.2705 -0.0227 -0.9624
vn 0.2860 0.0001 -0.9582
vn -0.1127 -0.0301 -0.9932
vn -0.9581 -0.0000 -0.2863
vn 0.9581 -0.0000 0.2863
vn 0.3746 0.0082 -0.9271
vn 0.2858 0.0003 -0.9583
vn -0.2305 0.0574 -0.9714
vn -0.9167 0.0031 0.3995
vn -0.9177 -0.0094 0.3972
vn -0.7717 -0.0000 -0.6360
vn -0.9926 0.0023 -0.1215
vn -0.9627 -0.0000 0.2706
vn -0.9186 0.0070 0.3952
vn -0.9311 0.0779 0.3563
vn -0.9586 -0.0079 -0.2848
vn 0.7717 -0.0000 0.6360
vn 0.9228 -0.0028 -0.3854
vn 0.9627 -0.0000 -0.2706
vn 0.9714 0.2299 -0.0600
vn 0.9351 -0.0697 -0.3475
vn 0.9909 0.0175 0.1335
vn 0.9941 0.0057 0.1080
vn 0.8887 -0.0138 0.4582
vn 0.9973 0.0656 -0.0323
vn 0.9979 -0.0565 -0.0330
vn -0.9037 0.0123 -0.4281
vn -0.9036 0.0091 -0.4282
vn -0.9977 0.0051 0.0674
vn -0.9958 -0.0504 0.0767
vn -0.9937 0.0111 -0.1113
vn -0.9605 -0.2231 -0.1665
vn -0.9810 -0.0003 -0.1941
vn -0.9758 0.0115 -0.2185
vn -0.9808 0.0017 -0.1952
vn -0.9717 -0.0682 -0.2260
vn -0.9809 0.0017 -0.1945
vn -0.9810 0.0017 -0.1938
vn -0.9804 -0.0044 -0.1968
vn -0.9946 -0.0700 0.0772
vn -0.9648 -0.2384 0.1113
vn -0.9755 0.0018 -0.2201
vn -0.9948 0.0646 0.0782
vn -0.9759 -0.0004 -0.2181
vn -0.9022 0.0122 -0.4313
vn -0.9033 0.0089 -0.4288
vn -0.9027 0.0088 -0.4301
vn -0.9030 0.0108 -0.4295
vn -0.9813 0.0018 -0.1927
vn -0.9808 0.0017 -0.1950
vn 0.8906 -0.0275 0.4540
vn 0.8896 -0.0081 0.4566
vn 0.8880 -0.0080 0.4597
vn 0.8897 -0.0091 0.4565
vn 0.9933 -0.0000 0.1154
vn 0.8915 0.0170 0.4528
vn 0.9829 0.0013 0.1842
vn 0.9824 0.0013 0.1869
vn 0.9795 0.0006 0.2015
vn 0.9585 0.0078 0.2849
vn 0.9793 -0.0011 0.2024
vn 0.9897 -0.0045 0.1429
vn 0.9795 -0.0022 0.2016
vn 0.9790 0.0056 0.2038
vn 0.9886 -0.0090 0.1500
vn 0.9795 -0.0011 0.2013
vn 0.9996 -0.0084 -0.0259
vn 0.9748 0.1933 0.1110
vn 0.9995 0.0163 -0.0281
vn 0.9858 0.0622 0.1563
vn 0.9887 -0.0100 0.1499
vn 0.9239 -0.0054 -0.3825
vn 0.9233 0.0070 -0.3840
vn 0.0008 1.0000 -0.0000
vn -0.1644 0.9864 -0.0000
vn 0.9756 0.2068 -0.0736
vn -0.9036 0.0089 -0.4282
vn -0.9037 0.0089 -0.4281
vn -0.9976 0.0038 0.0691
vn -0.9964 -0.0104 0.0845
vn -0.9968 0.0024 -0.0799
vn -0.9725 0.0597 -0.2253
vn -0.9806 -0.0003 -0.1960
vn -0.9769 -0.0045 -0.2138
vn -0.9806 -0.0064 -0.1958
vn -0.9804 0.0117 -0.1967
vn -0.9667 -0.2260 0.1198
vn -0.9714 -0.0495 -0.2323
vn -0.9017 0.0087 -0.4323
vn -0.9811 0.0127 -0.1932
vn -0.9799 0.0095 -0.1991
vn 0.8939 -0.0037 0.4483
vn 0.8897 -0.0081 0.4565
vn 0.9933 0.0058 0.1153
vn 0.9927 0.0176 0.1191
vn 0.8947 -0.0085 0.4466
vn 0.9827 -0.0119 0.1848
vn 0.9787 -0.0321 0.2029
vn 0.9795 -0.0042 0.2012
vn 0.9888 0.0166 0.1486
vn 0.9792 0.0062 0.2029
vn 0.9795 -0.0011 0.2014
vn 0.9898 0.0003 0.1424
vn 0.9790 -0.0099 0.2037
vn 0.9996 -0.0091 -0.0252
vn 0.9992 -0.0027 0.0393
vn 0.9995 0.0039 -0.0300
vn 0.9893 0.0052 0.1459
vn 0.9864 -0.0531 0.1557
vn 0.9244 0.0069 -0.3813
vn 0.7716 -0.0000 0.6361
vt 0.000085 0.689731
vt 0.038810 0.658364
vt 0.038810 0.689731
vt 0.310683 0.520253
vt 0.271959 0.558154
vt 0.271959 0.520253
vt 0.000085 0.210079
vt 0.038810 0.111186
vt 0.038810 0.210079
vt 0.000085 0.658364
vt 0.038810 0.618720
vt 0.000085 0.999915
vt 0.038810 0.965498
vt 0.038810 0.999915
vt 0.000085 0.111186
vt 0.038810 0.071978
vt 0.000085 0.618720
vt 0.038810 0.566729
vt 0.000085 0.965498
vt 0.038810 0.926725
vt 0.000085 0.071978
vt 0.038810 0.038432
vt 0.000085 0.552501
vt 0.038810 0.515035
vt 0.038810 0.552501
vt 0.000085 0.926725
vt 0.038810 0.896230
vt 0.000085 0.000085
vt 0.038810 0.000085
vt 0.000085 0.515035
vt 0.038810 0.484104
vt 0.000085 0.896230
vt 0.038810 0.857021
vt 0.000085 0.484104
vt 0.038810 0.444024
vt 0.000085 0.857021
vt 0.018500 0.810239
vt 0.038810 0.810007
vt 0.000085 0.444024
vt 0.038810 0.346344
vt 0.038810 0.399117
vt 0.000085 0.727197
vt 0.038810 0.727197
vt 0.294546 0.216848
vt 0.271959 0.216938
vt 0.271959 0.162758
vt 0.000085 0.248852
vt 0.038810 0.248852
vt 0.115219 0.260605
vt 0.146410 0.305350
vt 0.115515 0.304789
vt 0.233015 0.229673
vt 0.237069 0.260051
vt 0.227826 0.259934
vt 0.310683 0.558154
vt 0.000085 0.567616
vt 0.000085 0.038432
vt 0.000085 0.810076
vt 0.000085 0.758279
vt 0.000085 0.345925
vt 0.000085 0.298036
vt 0.310683 0.113746
vt 0.310683 0.162121
vt 0.077318 0.521124
vt 0.038980 0.520253
vt 0.116526 0.455776
vt 0.038980 0.455408
vt 0.047627 0.455449
vt 0.077753 0.229673
vt 0.075343 0.215402
vt 0.077753 0.215445
vt 0.038980 0.000085
vt 0.076882 0.000085
vt 0.076882 0.034502
vt 0.115655 0.034502
vt 0.115655 0.064997
vt 0.137218 0.111368
vt 0.116462 0.110612
vt 0.154863 0.064997
vt 0.154863 0.112011
vt 0.154863 0.194821
vt 0.117397 0.194821
vt 0.117397 0.163454
vt 0.064765 0.108728
vt 0.077387 0.109188
vt 0.098349 0.109952
vt 0.116526 0.554669
vt 0.077318 0.554669
vt 0.115219 0.229673
vt 0.155299 0.260605
vt 0.155299 0.305511
vt 0.083049 0.260554
vt 0.271788 0.000085
vt 0.271788 0.107546
vt 0.253523 0.108239
vt 0.271788 0.520253
vt 0.233451 0.521124
vt 0.194242 0.455776
vt 0.246053 0.108523
vt 0.233451 0.554669
vt 0.194242 0.554669
vt 0.155470 0.455776
vt 0.184471 0.406592
vt 0.233887 0.034502
vt 0.233887 0.000085
vt 0.195114 0.064997
vt 0.195114 0.034502
vt 0.155905 0.194821
vt 0.155905 0.163740
vt 0.193030 0.163740
vt 0.173515 0.111274
vt 0.155905 0.064997
vt 0.193371 0.163454
vt 0.193371 0.163740
vt 0.233383 0.109003
vt 0.212361 0.109801
vt 0.233015 0.163454
vt 0.194572 0.406592
vt 0.195549 0.260605
vt 0.195549 0.259526
vt 0.196836 0.259543
vt 0.202677 0.406592
vt 0.073635 0.260540
vt 0.090557 0.304336
vt 0.038980 0.214742
vt 0.066566 0.163432
vt 0.077753 0.163454
vt 0.038980 0.163376
vt 0.057282 0.108456
vt 0.108205 0.407254
vt 0.038980 0.406835
vt 0.054102 0.406926
vt 0.154863 0.163376
vt 0.135917 0.358167
vt 0.155299 0.407538
vt 0.126144 0.407362
vt 0.060669 0.357711
vt 0.099750 0.357948
vt 0.115872 0.358045
vt 0.038980 0.303400
vt 0.067846 0.303924
vt 0.116202 0.407302
vt 0.155299 0.358284
vt 0.038980 0.260486
vt 0.155299 0.455776
vt 0.038980 0.357580
vt 0.038980 0.107789
vt 0.271788 0.162816
vt 0.244230 0.163270
vt 0.194309 0.110485
vt 0.155905 0.111570
vt 0.193371 0.194821
vt 0.235563 0.214589
vt 0.233015 0.214558
vt 0.271788 0.215036
vt 0.271788 0.260490
vt 0.242913 0.303850
vt 0.220247 0.304133
vt 0.195549 0.229673
vt 0.310683 0.305302
vt 0.310683 0.357521
vt 0.250179 0.358307
vt 0.210929 0.358471
vt 0.164256 0.304832
vt 0.155470 0.304942
vt 0.155470 0.260605
vt 0.195256 0.304445
vt 0.271788 0.303489
vt 0.271788 0.358217
vt 0.256622 0.406592
vt 0.155470 0.358703
vt 0.174942 0.358622
vt 0.194894 0.358538
vt 0.263263 0.456361
vt 0.155470 0.406592
vt 0.271788 0.406592
vt 0.271788 0.456749
vt 0.014025 0.810290
vt 0.038810 0.297090
vt 0.271959 0.000085
vt 0.310683 0.000085
vt 0.271959 0.064930
vt 0.305970 0.063400
vt 0.288373 0.065430
vt 0.279979 0.412519
vt 0.271959 0.412549
vt 0.271959 0.356961
vt 0.271959 0.305596
vt 0.271959 0.259852
vt 0.271959 0.113503
vt 0.000085 0.658649
vt 0.000085 0.485182
vt 0.000085 0.399686
vt 0.310683 0.063905
vt 0.310683 0.216848
vt 0.271788 0.107934
vt 0.155905 0.111942
vt 0.297612 0.412453
vt 0.310683 0.259848
vt 0.310683 0.412791
vt 0.310683 0.412404
vt 0.271788 0.456433
vt 0.038810 0.758642
vt 0.000085 0.810448
vt 0.310683 0.063589
s 0
usemtl murek_3
f 29/1/1 10/2/1 9/3/1
f 22/4/2 3/5/2 2/6/2
f 37/7/3 18/8/3 17/9/3
f 30/10/4 11/11/4 10/2/4
f 23/12/3 4/13/3 3/14/3
f 38/15/5 19/16/5 18/8/5
f 31/17/3 76/18/3 11/11/3
f 24/19/2 5/20/2 4/13/2
f 39/21/1 20/22/1 19/16/1
f 32/23/6 13/24/6 12/25/6
f 25/26/3 6/27/3 5/20/3
f 20/22/7 21/28/7 1/29/7
f 33/30/3 14/31/3 13/24/3
f 26/32/2 7/33/2 6/27/2
f 34/34/6 15/35/6 14/31/6
f 27/36/3 125/37/3 67/38/3
f 35/39/3 51/40/3 57/41/3
f 28/42/8 9/3/8 8/43/8
f 101/44/1 60/45/1 52/46/1
f 36/47/9 17/9/9 16/48/9
f 14/49/10 59/50/10 58/51/10
f 32/52/11 97/53/11 95/54/11
f 29/1/1 30/10/1 10/2/1
f 22/4/2 23/55/2 3/5/2
f 37/7/3 38/15/3 18/8/3
f 30/10/12 31/17/12 11/11/12
f 23/12/3 24/19/3 4/13/3
f 38/15/5 39/21/5 19/16/5
f 93/56/3 12/25/3 31/17/3
f 24/19/2 25/26/2 5/20/2
f 39/21/1 40/57/1 20/22/1
f 32/23/6 33/30/6 13/24/6
f 25/26/3 26/32/3 6/27/3
f 20/22/7 40/57/7 21/28/7
f 33/30/3 34/34/3 14/31/3
f 26/32/2 27/36/2 7/33/2
f 34/34/6 35/39/6 15/35/6
f 79/58/3 86/59/3 8/43/3
f 110/60/3 116/61/3 16/48/3
f 28/42/13 29/1/13 9/3/13
f 112/62/1 106/63/1 101/44/1
f 36/47/14 37/7/14 17/9/14
f 20/64/15 1/65/15 17/66/15
f 1/65/16 47/67/16 46/68/16
f 12/69/10 75/70/10 76/71/10
f 2/72/17 3/73/17 4/74/17
f 4/74/17 5/75/17 6/76/17
f 6/76/17 73/77/17 70/78/17
f 7/79/17 67/80/17 73/77/17
f 8/81/18 9/82/18 10/83/18
f 4/74/17 71/84/17 2/72/17
f 6/76/17 69/85/17 4/74/17
f 6/76/17 70/78/17 72/86/17
f 18/87/19 19/88/19 20/64/19
f 12/69/10 13/89/10 14/49/10
f 1/65/20 46/68/20 17/66/20
f 17/66/21 18/87/21 20/64/21
f 15/90/22 57/91/22 59/50/22
f 12/69/10 14/49/10 43/92/10
f 22/93/23 80/94/23 81/95/23
f 21/96/24 40/97/24 37/98/24
f 22/93/23 81/95/23 84/99/23
f 40/97/25 39/100/25 38/101/25
f 36/102/26 113/103/26 37/98/26
f 40/97/27 38/101/27 37/98/27
f 24/104/23 23/105/23 22/93/23
f 26/106/23 25/107/23 24/104/23
f 28/108/28 86/109/28 87/110/28
f 26/106/23 83/111/23 27/112/23
f 30/113/29 88/114/29 87/110/29
f 24/104/23 84/99/23 78/115/23
f 30/113/30 82/116/30 31/117/30
f 26/106/23 78/115/23 82/116/23
f 37/98/31 113/103/31 117/118/31
f 34/119/11 98/120/11 94/121/11
f 37/98/32 117/118/32 114/122/32
f 43/92/10 42/123/10 12/69/10
f 14/49/10 55/124/10 43/92/10
f 77/125/10 75/70/10 12/69/10
f 44/126/33 71/84/33 11/127/33
f 45/128/34 68/129/34 44/126/34
f 46/68/35 62/130/35 17/66/35
f 46/68/36 64/131/36 65/132/36
f 10/83/37 48/133/37 8/81/37
f 53/134/38 63/135/38 66/136/38
f 54/137/39 55/124/39 50/138/39
f 49/139/40 62/130/40 50/138/40
f 54/137/41 60/140/41 56/141/41
f 49/139/42 66/136/42 61/142/42
f 59/50/43 51/143/43 53/134/43
f 56/141/10 43/92/10 55/124/10
f 58/51/44 50/138/44 55/124/44
f 56/141/10 41/144/10 42/123/10
f 58/51/45 53/134/45 49/139/45
f 61/142/46 66/136/46 17/66/46
f 66/136/47 16/145/47 17/66/47
f 65/132/48 50/138/48 62/130/48
f 62/130/49 61/142/49 17/66/49
f 65/132/50 52/146/50 54/137/50
f 73/77/51 48/133/51 10/83/51
f 71/84/17 68/129/17 2/72/17
f 68/129/17 74/147/17 2/72/17
f 71/84/52 69/85/52 11/127/52
f 69/85/52 72/86/52 11/127/52
f 70/78/53 73/77/53 10/83/53
f 72/86/54 10/83/54 11/127/54
f 75/70/55 11/127/55 76/71/55
f 77/125/56 44/126/56 75/70/56
f 81/95/57 90/148/57 89/149/57
f 82/116/23 85/150/23 26/106/23
f 83/111/23 124/151/23 27/112/23
f 82/116/58 78/115/58 31/117/58
f 83/111/59 85/150/59 30/113/59
f 78/115/58 84/99/58 31/117/58
f 84/99/60 89/149/60 31/117/60
f 87/110/61 29/152/61 28/108/61
f 86/109/62 83/111/62 30/113/62
f 31/117/63 91/153/63 93/154/63
f 89/149/64 92/155/64 91/153/64
f 96/156/11 97/53/11 32/52/11
f 93/154/11 91/153/11 32/52/11
f 95/54/11 99/157/11 100/158/11
f 94/121/11 33/159/11 32/52/11
f 96/156/11 99/157/11 97/53/11
f 95/54/11 94/121/11 32/52/11
f 101/44/1 92/160/1 90/161/1
f 100/158/65 107/162/65 109/163/65
f 102/164/66 103/165/66 35/166/66
f 102/164/11 34/119/11 104/167/11
f 105/168/67 107/162/67 99/157/67
f 95/54/11 34/119/11 94/121/11
f 106/169/68 115/170/68 107/162/68
f 110/171/69 102/164/69 108/172/69
f 108/172/70 104/167/70 111/173/70
f 109/163/71 115/170/71 114/122/71
f 109/163/72 104/167/72 100/158/72
f 114/122/73 118/174/73 37/98/73
f 116/175/74 108/172/74 113/103/74
f 112/176/75 118/174/75 115/170/75
f 113/103/76 111/173/76 117/118/76
f 114/122/77 111/173/77 109/163/77
f 37/98/78 118/174/78 21/96/78
f 118/174/79 126/177/79 21/96/79
f 31/17/3 12/25/3 76/18/3
f 27/36/3 123/178/3 125/37/3
f 67/38/3 7/33/3 27/36/3
f 35/39/1 16/48/1 63/179/1
f 35/39/3 63/179/3 51/40/3
f 57/41/3 15/35/3 35/39/3
f 1/180/1 21/181/1 47/182/1
f 21/181/1 127/183/1 128/184/1
f 47/182/1 21/181/1 128/184/1
f 101/44/1 120/185/1 74/186/1
f 101/44/3 74/186/3 45/187/3
f 101/44/1 45/187/1 77/188/1
f 101/44/1 77/188/1 41/189/1
f 52/46/1 64/190/1 101/44/1
f 101/44/1 41/189/1 60/45/1
f 14/49/10 15/90/10 59/50/10
f 29/1/80 88/191/80 30/10/80
f 93/56/3 32/23/3 12/25/3
f 33/30/81 98/192/81 34/34/81
f 123/178/3 79/58/3 8/43/3
f 86/59/3 28/42/3 8/43/3
f 16/48/3 35/39/3 103/193/3
f 16/48/3 103/193/3 110/60/3
f 116/61/3 36/47/3 16/48/3
f 127/183/1 119/194/1 101/44/1
f 101/44/1 119/194/1 112/62/1
f 106/63/1 105/195/1 101/44/1
f 6/76/17 7/79/17 73/77/17
f 4/74/17 69/85/17 71/84/17
f 6/76/17 72/86/17 69/85/17
f 36/102/82 116/175/82 113/103/82
f 26/106/23 85/150/23 83/111/23
f 24/104/23 22/93/23 84/99/23
f 30/113/59 85/150/59 82/116/59
f 26/106/23 24/104/23 78/115/23
f 14/49/10 58/51/10 55/124/10
f 12/69/10 42/123/10 41/144/10
f 41/144/10 77/125/10 12/69/10
f 44/126/83 68/129/83 71/84/83
f 45/128/84 74/147/84 68/129/84
f 46/68/85 65/132/85 62/130/85
f 46/68/86 47/67/86 64/131/86
f 53/134/87 51/143/87 63/135/87
f 54/137/41 56/141/41 55/124/41
f 49/139/88 61/142/88 62/130/88
f 54/137/89 52/146/89 60/140/89
f 49/139/90 53/134/90 66/136/90
f 59/50/91 57/91/91 51/143/91
f 56/141/10 42/123/10 43/92/10
f 58/51/92 49/139/92 50/138/92
f 56/141/10 60/140/10 41/144/10
f 58/51/43 59/50/43 53/134/43
f 66/136/93 63/135/93 16/145/93
f 65/132/50 54/137/50 50/138/50
f 65/132/94 64/131/94 52/146/94
f 73/77/95 67/80/95 48/133/95
f 72/86/53 70/78/53 10/83/53
f 75/70/96 44/126/96 11/127/96
f 77/125/97 45/128/97 44/126/97
f 81/95/98 121/196/98 90/148/98
f 84/99/99 81/95/99 89/149/99
f 87/110/100 88/114/100 29/152/100
f 30/113/101 87/110/101 86/109/101
f 86/109/102 79/197/102 83/111/102
f 31/117/103 89/149/103 91/153/103
f 89/149/104 90/148/104 92/155/104
f 32/52/11 91/153/11 92/155/11
f 92/155/11 96/156/11 32/52/11
f 95/54/11 97/53/11 99/157/11
f 94/121/11 98/120/11 33/159/11
f 96/156/11 105/168/11 99/157/11
f 2/6/1 120/185/1 122/198/1
f 101/44/1 105/195/1 96/199/1
f 101/44/1 96/199/1 92/160/1
f 80/200/1 22/4/1 2/6/1
f 90/161/1 121/201/1 122/198/1
f 100/158/67 99/157/67 107/162/67
f 102/164/11 35/166/11 34/119/11
f 105/168/105 106/169/105 107/162/105
f 95/54/11 100/158/11 34/119/11
f 100/158/11 104/167/11 34/119/11
f 106/169/106 112/176/106 115/170/106
f 110/171/107 103/165/107 102/164/107
f 108/172/108 102/164/108 104/167/108
f 109/163/109 107/162/109 115/170/109
f 109/163/110 111/173/110 104/167/110
f 114/122/111 115/170/111 118/174/111
f 116/175/112 110/171/112 108/172/112
f 112/176/113 119/202/113 118/174/113
f 113/103/114 108/172/114 111/173/114
f 114/122/115 117/118/115 111/173/115
f 122/198/1 80/200/1 2/6/1
f 74/186/1 120/185/1 2/6/1
f 120/185/1 90/161/1 122/198/1
f 67/38/3 125/37/3 48/203/3
f 124/204/3 123/178/3 27/36/3
f 123/178/3 48/203/3 125/37/3
f 126/205/1 127/183/1 21/181/1
f 127/183/1 64/190/1 128/184/1
f 128/184/1 64/190/1 47/182/1
f 83/111/23 79/197/23 124/151/23
f 118/174/116 119/202/116 126/177/116
f 123/178/3 124/204/3 79/58/3
f 127/183/1 126/205/1 119/194/1
f 81/95/117 80/94/117 121/196/117
f 122/198/1 121/201/1 80/200/1
f 120/185/1 101/44/1 90/161/1
f 123/178/3 8/43/3 48/203/3
f 127/183/1 101/44/1 64/190/1
