# Blender 4.4.3
# www.blender.org
mtllib grzyb_2.2.mtl
o Circle.002
v -0.080570 2.573777 -0.021064
v -0.080570 2.512094 -0.187063
v -0.080570 2.573777 -0.021064
v -0.080570 2.573777 -0.021064
v -0.080570 2.573777 -0.021064
v -0.017045 2.512094 -0.174427
v 0.036809 2.512094 -0.138443
v 0.088469 2.201226 -0.439472
v 0.283282 2.226270 -0.271395
v -0.084407 2.201719 -0.471945
v 0.229303 1.587178 -0.784294
v 0.497386 1.587869 -0.607126
v -0.086423 1.586483 -0.845434
v 0.767728 1.469613 -0.567835
v 0.125255 1.469450 -1.009537
v 0.433823 1.366942 -1.304064
v 0.886037 1.367010 -1.009341
v -0.096630 1.366797 -1.403253
v 0.468689 1.273574 -1.347091
v 0.933326 1.244452 -1.013699
v -0.074722 1.245097 -1.446275
v 0.440439 1.212280 -1.278890
v 0.563003 1.178075 -0.940162
v 0.461343 1.253175 -0.369225
v -0.069445 1.400606 -0.023233
v -0.083430 1.401231 -0.032982
v -0.006393 1.389352 -0.219926
v -0.094291 1.255465 -0.679074
v -0.289641 1.178059 -1.131711
v -0.621548 1.245886 -1.343057
v -1.087896 1.246852 -1.037783
v -0.615767 1.365094 -1.296353
v -1.056411 1.365751 -1.003274
v -0.634256 1.465535 -0.872146
v -0.401727 1.585912 -0.780946
v -0.668344 1.585595 -0.600464
v -0.256412 2.202240 -0.435837
v -0.401290 2.203065 -0.336576
v -0.144095 2.512094 -0.174427
v -0.197949 2.512094 -0.138443
v -0.233933 2.512094 -0.084589
v -0.080570 2.573777 -0.021064
v -0.080570 2.573777 -0.021064
v -0.080570 2.573777 -0.021064
v -0.080570 2.573777 -0.021064
v -0.246568 2.512094 -0.021064
v -0.233933 2.512094 0.042461
v -0.514398 2.223748 -0.021058
v -0.496722 2.204469 -0.189339
v -0.496936 2.204123 0.147342
v -0.897682 1.594940 -0.021093
v -0.845293 1.585672 -0.331607
v -0.845341 1.585618 0.289434
v -1.083707 1.463759 -0.021064
v -1.007347 1.463759 -0.404948
v -1.463850 1.367337 -0.021096
v -1.358405 1.365545 -0.554860
v -1.358348 1.365575 0.512758
v -1.517038 1.254376 -0.021325
v -1.401437 1.247606 -0.577228
v -1.401341 1.247484 0.534522
v -1.024279 1.177415 -0.636937
v -1.184011 1.176392 0.197762
v -0.626144 1.253577 -0.360048
v -0.092961 1.400583 -0.018950
v -0.291933 1.390566 -0.021638
v -0.658466 1.261592 0.210704
v -0.699556 1.178057 0.924410
v -1.087639 1.246650 0.995140
v -0.621342 1.245693 1.300298
v -1.056281 1.365810 0.961161
v -0.615715 1.365163 1.254151
v -0.908769 1.468667 0.556732
v -0.668311 1.585634 0.558289
v -0.401674 1.586017 0.738721
v -0.401403 2.202847 0.294560
v -0.256466 2.202115 0.393787
v -0.197949 2.512094 0.096314
v -0.144095 2.512094 0.132298
v -0.080570 2.573777 -0.021064
v -0.080570 2.573777 -0.021064
v -0.080570 2.573777 -0.021064
v -0.080570 2.573777 -0.021064
v -0.080570 2.512094 0.144934
v -0.017045 2.512094 0.132298
v -0.084431 2.201618 0.429892
v 0.088482 2.201113 0.397428
v -0.086409 1.586624 0.803170
v 0.229261 1.587329 0.742031
v -0.264487 1.465310 0.978164
v -0.096587 1.366835 1.361108
v 0.433915 1.366962 1.261919
v -0.068218 1.241004 1.401768
v 0.477509 1.244397 1.285799
v 0.162246 1.178075 1.074352
v -0.215496 1.250355 0.622900
v -0.078326 1.401203 -0.009178
v 0.285840 1.253172 0.508708
v 0.856686 1.177525 0.603961
v 1.177256 1.212280 0.499944
v 0.932967 1.244494 0.971229
v 1.245458 1.273574 0.528194
v 0.886113 1.367018 0.967181
v 1.190892 1.367034 0.521896
v 0.491665 1.469554 0.810485
v 0.497312 1.588001 0.564904
v 0.677190 1.588492 0.298923
v 0.283398 2.226224 0.229146
v 0.036809 2.512094 0.096314
v 0.072793 2.512094 0.042461
v -0.080570 2.573777 -0.021064
v -0.080570 2.573777 -0.021064
v -0.080570 2.573777 -0.021064
v -0.080570 2.573777 -0.021064
v 0.085429 2.512094 -0.021064
v 0.072793 2.512094 -0.084589
v 0.388625 2.175799 -0.021062
v 0.748654 1.582163 -0.021072
v 0.677249 1.588410 -0.341095
v 0.894778 1.474517 0.174136
v 1.303965 1.367953 -0.021045
v 1.190871 1.367033 -0.564027
v 1.333181 1.246357 -0.021437
v 1.234478 1.244670 -0.548718
v 1.022798 1.176392 -0.240014
v 0.540831 1.254996 0.103241
v 0.037015 1.393302 0.148659
v 0.438684 1.809704 -0.458236
v 0.403585 1.812392 0.474053
v 0.739278 1.615367 0.282354
v 0.806396 1.585117 0.024504
v 0.758252 1.613400 -0.235797
v 0.604495 1.683122 -0.412386
v 0.459358 1.822509 -0.464144
v 0.424048 1.825436 0.480864
v 0.720290 1.665892 0.236529
v 0.768767 1.636448 0.022952
v 0.735268 1.665797 -0.199225
v 0.398703 1.965393 -0.422161
v 0.422189 1.790987 -0.560745
v 0.446912 2.113317 -0.163905
v 0.390811 2.047808 0.347096
v 0.382432 1.796189 0.574355
v 0.573593 1.688535 0.445987
v 0.436687 1.800158 -0.564882
v 0.514762 2.157097 0.012155
v 0.502579 2.124624 -0.232553
v 0.517784 1.860275 -0.479425
v 0.397269 1.805452 0.579130
v 0.481336 1.863431 0.498673
v 0.749399 1.697511 0.261908
v 0.809705 1.661499 0.024338
v 0.768118 1.696658 -0.215678
v 0.787424 1.656004 -0.294093
v 0.764574 1.656832 0.339256
v 0.490829 1.833921 -0.578773
v 0.450017 1.839522 0.595273
v 0.574150 1.833675 -0.226407
v 0.650299 1.820572 0.020254
v 0.551648 1.833213 0.260023
v 0.485358 2.125057 0.251387
v 0.435621 2.012158 0.451968
v 0.468860 2.009534 -0.434764
v 0.670760 1.891634 -0.233780
v 0.743894 1.888324 0.091552
v 0.006729 0.009176 -0.363679
v -0.280732 0.009185 -0.312713
v -0.227633 0.650587 -0.296972
v -0.189655 1.521448 0.066554
v -0.066571 1.534104 -0.049113
v -0.030077 0.647853 -0.342116
v 0.233168 0.009200 -0.183366
v 0.155413 0.642676 -0.186284
v 0.019418 1.523270 0.047077
v 0.074828 0.630973 0.094484
v -0.069583 0.009170 0.331996
v -0.042482 1.511193 0.156873
v -0.183705 0.594200 0.121921
v -0.334505 0.009195 0.223724
v -0.290637 0.604492 0.018726
v -0.434909 0.009339 -0.054639
v -0.317084 0.677052 -0.122888
v 0.231866 0.009346 0.158752
vn 0.0073 0.9993 -0.0366
vn 0.0001 0.8161 -0.5779
vn -0.0073 0.9993 -0.0366
vn -0.2210 0.8162 -0.5338
vn -0.0208 0.9993 -0.0311
vn 0.0208 0.9993 -0.0311
vn 0.2212 0.8161 -0.5339
vn 0.3112 0.6780 -0.6659
vn 0.0782 0.9249 -0.3721
vn -0.0407 0.6650 -0.7457
vn 0.1667 -0.9755 -0.1436
vn 0.1603 -0.9092 -0.3842
vn 0.2495 -0.7694 -0.5881
vn 0.0388 -0.9988 -0.0295
vn 0.0070 -0.9811 0.1934
vn -0.0158 -0.9978 -0.0643
vn -0.0700 -0.9827 0.1712
vn -0.1646 -0.9806 0.1063
vn 0.0074 -0.9988 0.0478
vn 0.1839 -0.9829 -0.0030
vn -0.0008 -0.9701 -0.2426
vn -0.0872 -0.9802 -0.1777
vn -0.2544 0.6783 -0.6893
vn -0.2012 0.9250 -0.3222
vn -0.5294 0.6872 -0.4975
vn -0.4084 0.8163 -0.4085
vn -0.0311 0.9993 -0.0208
vn -0.5321 0.8171 -0.2217
vn -0.0366 0.9993 -0.0073
vn -0.5748 0.8183 -0.0000
vn -0.0366 0.9993 0.0073
vn -0.5321 0.8171 0.2218
vn -0.0311 0.9993 0.0208
vn -0.0692 -0.9975 0.0132
vn -0.1854 -0.9788 0.0870
vn -0.2215 -0.9751 -0.0104
vn 0.1656 -0.9801 0.1090
vn 0.1863 -0.9793 -0.0792
vn -0.0376 -0.9977 0.0557
vn -0.0693 -0.9792 0.1906
vn -0.1496 -0.9798 0.1328
vn -0.3098 0.9240 0.2243
vn -0.4982 0.6800 0.5380
vn -0.6814 0.6848 0.2584
vn -0.4084 0.8163 0.4085
vn -0.0208 0.9993 0.0311
vn -0.2210 0.8162 0.5339
vn -0.0073 0.9993 0.0366
vn 0.0001 0.8161 0.5779
vn 0.0073 0.9993 0.0366
vn 0.2212 0.8161 0.5340
vn 0.0208 0.9993 0.0311
vn -0.0682 0.9260 0.3712
vn 0.0282 0.6794 0.7333
vn -0.3224 0.6652 0.6735
vn -0.0086 -0.9823 0.1873
vn 0.0151 -0.9982 0.0574
vn 0.0897 -0.9804 0.1755
vn 0.0447 -0.9807 -0.1901
vn -0.0993 -0.9857 -0.1364
vn -0.1187 -0.9775 -0.1743
vn -0.1978 -0.9797 -0.0337
vn 0.0296 -0.9988 0.0392
vn 0.1481 -0.9748 0.1667
vn 0.3902 -0.9077 0.1546
vn 0.2153 0.9247 0.3140
vn 0.5364 0.6782 0.5023
vn 0.2504 0.6664 0.7023
vn 0.6529 0.6112 0.4474
vn 0.5382 0.8167 0.2082
vn 0.3978 0.8209 0.4097
vn 0.0311 0.9993 0.0208
vn 0.0366 0.9993 0.0073
vn 0.5867 0.8098 -0.0000
vn 0.0366 0.9993 -0.0073
vn 0.5382 0.8167 -0.2082
vn 0.0311 0.9993 -0.0208
vn 0.3807 0.9215 0.0762
vn 0.7483 0.6623 -0.0367
vn 0.6825 0.6557 0.3228
vn 0.2539 -0.9672 -0.0026
vn 0.5924 -0.7693 0.2391
vn 0.3263 0.5899 -0.7386
vn 0.3978 0.8209 -0.4097
vn 0.6528 0.6113 -0.4475
vn 0.0659 -0.9977 -0.0173
vn 0.1882 -0.9782 -0.0873
vn -0.0865 -0.9960 0.0207
vn 0.6942 0.6735 -0.2537
vn 0.3198 0.9246 -0.2069
vn 0.4964 0.6615 -0.5621
vn -0.1307 -0.9802 -0.1491
vn -0.0575 -0.9976 -0.0373
vn -0.1963 -0.9783 -0.0660
vn 0.7930 0.6084 0.0317
vn 0.7681 0.5995 -0.2251
vn 0.7051 0.6353 -0.3149
vn 0.4386 -0.8385 0.3234
vn 0.6343 -0.7313 0.2509
vn 0.3040 -0.7964 0.5228
vn -0.5967 -0.7620 -0.2515
vn -0.1338 -0.8786 0.4585
vn -0.2117 -0.8808 0.4235
vn -0.2155 0.6692 -0.7112
vn -0.3579 0.7591 -0.5437
vn -0.4345 0.7772 -0.4552
vn -0.4459 0.8821 -0.1518
vn -0.4644 0.8086 0.3611
vn 0.1348 0.9363 0.3242
vn 0.1877 -0.6308 0.7529
vn 0.8171 0.4020 0.4132
vn 0.0531 0.7197 0.6922
vn 0.8226 0.4186 -0.3849
vn 0.8611 0.3825 -0.3351
vn 0.1674 0.7630 -0.6243
vn 0.5415 -0.8381 0.0659
vn 0.2050 -0.6599 0.7228
vn 0.5133 -0.8474 0.1357
vn 0.5139 -0.8483 0.1272
vn 0.5544 -0.8319 -0.0262
vn 0.5749 -0.8179 -0.0208
vn 0.4927 -0.8473 -0.1982
vn 0.5171 -0.8340 -0.1923
vn -0.2673 0.6841 0.6787
vn -0.4418 0.7418 0.5046
vn -0.2659 0.6856 0.6777
vn 0.9991 0.0216 0.0361
vn 0.7674 0.6156 -0.1795
vn 0.7915 0.6000 -0.1162
vn 0.7506 0.6203 0.2276
vn 0.9984 -0.0432 0.0364
vn 0.7051 0.6225 -0.3396
vn 0.7071 0.6120 -0.3542
vn 0.6738 0.6433 0.3635
vn 0.7714 0.6129 0.1710
vn -0.5347 0.8448 -0.0209
vn -0.5213 0.8531 -0.0210
vn 0.3571 -0.5448 -0.7588
vn 0.3425 -0.8008 -0.4914
vn 0.5342 -0.7873 -0.3081
vn -0.4760 0.7568 0.4480
vn 0.2384 -0.6525 -0.7193
vn -0.5866 0.5038 0.6341
vn -0.5361 0.5123 0.6710
vn 0.1523 0.9882 0.0177
vn 0.7885 0.5997 0.1361
vn 0.1863 0.9091 -0.3725
vn -0.4914 0.5113 -0.7050
vn -0.5074 0.6371 -0.5803
vn 0.4588 -0.8550 0.2417
vn 0.5338 -0.8395 0.1014
vn 0.5197 -0.8498 -0.0881
vn 0.5215 -0.8493 -0.0823
vn -0.8344 -0.4283 0.3469
vn -0.8291 -0.3731 0.4163
vn -0.8911 -0.3064 0.3347
vn 0.6629 0.6312 -0.4028
vn 0.6199 0.6563 -0.4301
vn 0.8329 0.5527 0.0275
vn 0.7464 0.6023 0.2829
vn 0.6743 0.6216 0.3986
vn 0.6324 0.5955 0.4954
vn -0.2191 0.6650 -0.7140
vn -0.1772 -0.8867 -0.4270
vn 0.8497 0.3770 0.3688
vn 0.5508 -0.8316 0.0712
vn 0.5442 -0.8387 -0.0207
vn -0.6301 -0.7397 0.2364
vn 0.6748 0.6350 0.3760
vn 0.6585 -0.7254 -0.2006
vn 0.2496 -0.6827 -0.6867
vn 0.7664 0.5550 -0.3234
vn -0.5023 0.5098 -0.6984
vn -0.5416 0.8381 -0.0649
vn -0.5400 0.8392 -0.0650
vn -0.5429 0.8373 -0.0648
vn -0.5466 0.8349 -0.0645
vn -0.9360 -0.2874 0.2031
vn -0.8284 -0.5393 0.1513
vn -0.8287 -0.5567 -0.0582
vn -0.8116 -0.4594 -0.3610
vn -0.8050 -0.4434 -0.3942
vn -0.9072 -0.2368 -0.3477
vn -0.9571 -0.1761 -0.2303
vn -0.5349 0.8446 0.0236
vn -0.5418 0.8402 0.0229
vn -0.5441 0.8387 0.0227
vn -0.5472 0.8367 0.0224
vn -0.5779 0.1797 -0.7961
vn 0.0403 0.7605 -0.6481
vn 0.2260 0.1801 -0.9573
vn 0.9219 0.1872 -0.3393
vn 0.2604 0.0521 -0.9641
vn 0.9026 0.1089 -0.4164
vn 0.8332 0.2092 0.5119
vn 0.6491 0.1798 0.7391
vn 0.0532 0.2694 0.9616
vn -0.3489 0.1860 0.9185
vn 0.1947 0.5540 0.8094
vn -0.7414 0.6475 0.1760
vn -0.6864 0.2424 0.6856
vn -0.9735 0.1667 -0.1565
vn -0.0068 0.5950 -0.8037
vn 0.1040 0.9688 -0.2251
vn 0.1603 0.9701 -0.1825
vn 0.3340 0.4747 -0.8143
vn 0.6670 0.3004 -0.6818
vn 0.7079 0.2873 -0.6453
vn -0.0155 0.9692 -0.2456
vn 0.0123 0.3425 -0.9394
vn 0.2963 0.4811 -0.8251
vn -0.3465 0.3514 -0.8697
vn -0.0214 0.3349 -0.9420
vn -0.6533 0.3633 -0.6643
vn -0.3676 0.3567 -0.8589
vn -0.0869 0.9686 -0.2331
vn -0.1814 0.9680 -0.1731
vn -0.3137 0.5951 -0.7399
vn -0.5728 0.5953 -0.5635
vn -0.7466 0.5931 -0.3015
vn -0.7966 0.6045 0.0001
vn -0.7466 0.5929 0.3016
vn -0.7226 0.6913 -0.0000
vn -0.6602 0.7017 -0.2677
vn -0.3967 0.9179 0.0060
vn -0.3622 0.9189 -0.1566
vn -0.2290 0.9686 -0.0964
vn -0.2459 0.9693 -0.0000
vn -0.2354 0.9677 0.0905
vn -0.9083 0.4184 -0.0001
vn -0.8523 0.3828 -0.3566
vn -0.8507 0.3778 -0.3656
vn -0.8528 0.3806 0.3575
vn -0.8516 0.3755 0.3657
vn 0.0575 -0.9968 -0.0556
vn 0.0578 -0.9941 -0.0920
vn -0.6562 0.3631 0.6615
vn -0.6544 0.3594 0.6653
vn -0.3682 0.3521 0.8605
vn -0.3465 0.3446 0.8725
vn -0.1045 0.9695 0.2217
vn -0.1676 0.9683 0.1851
vn -0.5728 0.5953 0.5635
vn -0.3137 0.5951 0.7399
vn -0.0069 0.5949 0.8037
vn 0.3264 0.5899 0.7386
vn 0.0079 0.9696 0.2448
vn 0.0784 0.9699 0.2305
vn -0.0232 0.3100 0.9504
vn 0.0266 0.3058 0.9517
vn 0.3374 0.3013 0.8919
vn 0.3898 0.2991 0.8710
vn 0.6587 0.2837 0.6969
vn 0.6901 0.2968 0.6601
vn 0.7942 0.4760 0.3778
vn 0.8120 0.4714 0.3441
vn 0.1830 0.9682 0.1707
vn 0.2236 0.9686 0.1089
vn 0.8074 0.5900 -0.0001
vn 0.2341 0.9682 -0.0878
vn 0.2466 0.9690 -0.0121
vn 0.9663 0.2569 -0.0174
vn 0.9721 0.2336 -0.0218
vn 0.9000 0.2712 -0.3413
vn 0.8782 0.2721 -0.3934
vn -0.6555 0.3669 -0.6601
vn -0.0003 -1.0000 -0.0000
vn -0.0000 -1.0000 -0.0000
vn 0.0002 -1.0000 0.0001
vn -0.5818 0.0615 -0.8110
vn 0.7400 0.6724 0.0143
vn -0.9859 0.1538 -0.0654
vn -0.8585 0.1641 0.4858
vn -0.9047 0.4260 0.0002
vn 0.0008 -1.0000 0.0004
vn 0.0003 -1.0000 0.0001
vn -0.0012 -1.0000 -0.0001
vt 0.000000 0.000000
vt 0.106194 1.000000
vt 0.042337 1.000000
vt 0.000000 1.000000
vt 0.806758 1.000000
vt 0.959794 0.500000
vt 0.968422 1.000000
vt 0.957463 1.000000
vt 0.824623 0.500000
vt 0.668659 0.500000
vt 0.599726 1.000000
vt 0.505149 0.500000
vt 0.430683 1.000000
vt 0.562616 1.000000
vt 0.255210 1.000000
vt 0.371016 0.500000
vt 0.228283 1.000000
vt 0.615873 0.442724
vt 0.808872 0.477486
vt 0.757708 0.015245
vt 0.096814 0.500000
vt 0.332107 0.052136
vt 0.274929 0.462328
vt 0.045562 0.244007
vt 0.764784 1.000000
vt 0.235254 0.500000
vt 0.333333 1.000000
vt 0.947367 0.139418
vt 0.959824 0.356085
vt 0.579899 0.088080
vt 0.516230 0.271679
vt 0.000000 0.500000
vt 0.483764 0.271736
s 1
usemtl grzyb
f 4/1/1 2/1/2 1/1/3
f 1/1/3 39/1/4 3/1/5
f 5/1/6 6/1/7 4/1/1
f 11/1/8 15/1/9 13/1/10
f 20/1/11 22/1/12 19/1/13
f 23/1/14 22/1/12 20/1/11
f 28/1/15 29/1/16 23/1/14
f 27/1/17 28/1/15 24/1/18
f 27/1/17 26/1/19 66/1/20
f 21/1/21 29/1/16 30/1/22
f 35/1/23 34/1/24 36/1/25
f 3/1/5 40/1/26 42/1/27
f 42/1/27 41/1/28 43/1/29
f 43/1/29 46/1/30 44/1/31
f 44/1/31 47/1/32 45/1/33
f 63/1/34 61/1/35 59/1/36
f 64/1/37 66/1/20 67/1/38
f 67/1/38 68/1/39 63/1/34
f 68/1/39 70/1/40 69/1/41
f 73/1/42 74/1/43 53/1/44
f 45/1/33 78/1/45 80/1/46
f 80/1/46 79/1/47 81/1/48
f 81/1/48 84/1/49 82/1/50
f 82/1/50 85/1/51 83/1/52
f 90/1/53 88/1/54 75/1/55
f 93/1/56 95/1/57 94/1/58
f 68/1/39 96/1/59 95/1/57
f 96/1/59 127/1/60 98/1/61
f 98/1/61 127/1/60 126/1/62
f 95/1/57 98/1/61 99/1/63
f 101/1/64 99/1/63 100/1/65
f 105/1/66 106/1/67 89/1/68
f 108/1/69 110/1/70 109/1/71
f 83/1/52 109/1/71 111/1/72
f 111/1/72 110/1/70 112/1/73
f 112/1/73 115/1/74 113/1/75
f 113/1/75 116/1/76 114/1/77
f 120/1/78 118/1/79 107/1/80
f 100/1/65 123/1/81 102/1/82
f 8/1/83 7/1/84 9/1/85
f 125/1/86 124/1/87 123/1/81
f 99/1/63 126/1/62 125/1/86
f 25/1/88 27/1/17 127/1/60
f 24/1/18 23/1/14 125/1/86
f 119/1/89 14/1/90 12/1/91
f 116/1/76 9/1/85 7/1/84
f 114/1/77 7/1/84 5/1/6
f 31/1/92 62/1/93 60/1/94
f 159/1/95 132/1/96 158/1/97
f 130/1/98 131/1/99 155/1/100
f 129/1/101 144/1/102 143/1/103
f 135/1/104 151/1/105 136/1/106
f 141/1/107 142/1/108 161/1/109
f 143/1/103 144/1/102 149/1/110
f 150/1/111 161/1/109 162/1/112
f 148/1/113 156/1/114 163/1/115
f 128/1/116 140/1/116 156/1/116
f 149/1/110 155/1/100 157/1/117
f 129/1/118 150/1/119 157/1/120
f 159/1/121 158/1/122 164/1/123
f 134/1/124 153/1/125 148/1/126
f 152/1/127 154/1/128 153/1/129
f 152/1/127 155/1/130 131/1/131
f 148/1/132 154/1/128 156/1/133
f 150/1/134 155/1/130 151/1/135
f 136/1/106 152/1/136 137/1/137
f 133/1/138 154/1/139 132/1/140
f 138/1/141 152/1/136 153/1/125
f 145/1/142 154/1/139 133/1/138
f 143/1/143 157/1/144 162/1/112
f 146/1/145 165/1/146 147/1/147
f 140/1/148 139/1/149 163/1/115
f 160/1/150 165/1/151 150/1/119
f 139/1/149 141/1/107 147/1/147
f 158/1/122 128/1/152 148/1/153
f 158/1/154 139/1/155 128/1/156
f 158/1/97 133/1/157 128/1/158
f 133/1/157 158/1/97 132/1/96
f 132/1/96 159/1/95 131/1/159
f 131/1/159 159/1/95 130/1/160
f 159/1/95 160/1/161 130/1/160
f 130/1/160 160/1/161 129/1/162
f 159/1/121 165/1/151 160/1/150
f 129/1/101 130/1/98 144/1/102
f 135/1/104 150/1/163 151/1/105
f 141/1/107 161/1/109 146/1/145
f 144/1/102 130/1/98 155/1/100
f 140/1/164 145/1/142 133/1/138
f 150/1/111 162/1/112 157/1/165
f 148/1/113 163/1/115 147/1/147
f 128/1/152 156/1/166 148/1/153
f 149/1/110 144/1/102 155/1/100
f 129/1/167 157/1/167 143/1/167
f 159/1/121 164/1/123 165/1/151
f 128/1/168 140/1/164 133/1/138
f 141/1/107 146/1/145 147/1/147
f 134/1/124 138/1/141 153/1/125
f 152/1/127 131/1/131 154/1/128
f 152/1/127 151/1/135 155/1/130
f 148/1/132 153/1/129 154/1/128
f 150/1/134 157/1/169 155/1/130
f 132/1/140 154/1/139 131/1/170
f 136/1/106 151/1/105 152/1/136
f 138/1/141 137/1/137 152/1/136
f 145/1/142 156/1/171 154/1/139
f 143/1/143 162/1/112 142/1/108
f 147/1/147 164/1/172 148/1/113
f 164/1/172 147/1/147 165/1/146
f 165/1/146 161/1/109 150/1/111
f 161/1/109 165/1/146 146/1/145
f 140/1/148 163/1/115 156/1/173
f 160/1/150 150/1/119 129/1/118
f 142/1/108 162/1/112 161/1/109
f 139/1/149 147/1/147 163/1/115
f 158/1/122 148/1/153 164/1/123
f 128/1/174 156/1/175 145/1/176
f 145/1/176 140/1/177 128/1/174
f 140/1/178 128/1/156 139/1/155
f 139/1/155 158/1/154 141/1/179
f 141/1/179 159/1/180 142/1/181
f 159/1/180 160/1/182 142/1/181
f 142/1/181 129/1/183 143/1/184
f 143/1/185 149/1/186 129/1/187
f 149/1/186 157/1/188 129/1/187
f 129/1/183 142/1/181 160/1/182
f 159/1/180 141/1/179 158/1/154
f 168/2/189 170/3/190 171/4/191
f 173/5/192 166/6/193 171/7/191
f 171/7/191 170/8/190 173/5/192
f 172/9/194 173/5/192 183/10/195
f 175/11/196 176/12/197 183/10/195
f 178/13/198 177/14/199 169/15/200
f 178/13/198 179/16/201 176/12/197
f 182/17/202 169/15/200 168/2/189
f 4/1/1 6/1/7 2/1/2
f 1/1/3 2/1/2 39/1/4
f 5/1/6 7/1/84 6/1/7
f 10/1/203 6/1/7 8/1/83
f 11/1/8 9/1/85 12/1/91
f 13/1/10 8/1/83 11/1/8
f 15/1/9 12/1/91 14/1/90
f 16/1/204 14/1/90 17/1/205
f 19/1/206 17/1/207 20/1/208
f 15/1/9 16/1/204 18/1/209
f 21/1/210 16/1/211 19/1/206
f 29/1/16 22/1/12 23/1/14
f 19/1/13 22/1/12 21/1/21
f 64/1/37 27/1/17 66/1/20
f 24/1/18 28/1/15 23/1/14
f 25/1/88 26/1/19 27/1/17
f 64/1/37 29/1/16 28/1/15
f 62/1/93 30/1/22 29/1/16
f 30/1/212 18/1/213 21/1/210
f 31/1/214 32/1/215 30/1/212
f 34/1/24 18/1/209 32/1/216
f 34/1/24 13/1/10 15/1/9
f 32/1/216 33/1/217 34/1/24
f 35/1/23 10/1/203 13/1/10
f 36/1/25 37/1/218 35/1/23
f 37/1/218 2/1/2 10/1/203
f 38/1/219 39/1/4 37/1/218
f 49/1/220 40/1/26 38/1/219
f 3/1/5 39/1/4 40/1/26
f 48/1/221 41/1/28 49/1/220
f 42/1/27 40/1/26 41/1/28
f 43/1/29 41/1/28 46/1/30
f 44/1/31 46/1/30 47/1/32
f 47/1/32 48/1/221 50/1/222
f 51/1/223 49/1/220 52/1/224
f 50/1/222 51/1/223 53/1/44
f 54/1/225 52/1/224 55/1/226
f 53/1/44 54/1/225 73/1/42
f 54/1/225 57/1/227 56/1/228
f 58/1/229 54/1/225 56/1/228
f 59/1/230 57/1/231 60/1/232
f 58/1/233 59/1/230 61/1/234
f 63/1/34 60/1/94 62/1/93
f 63/1/34 64/1/37 67/1/38
f 127/1/60 65/1/235 97/1/236
f 96/1/59 66/1/20 127/1/60
f 69/1/41 63/1/34 68/1/39
f 67/1/38 96/1/59 68/1/39
f 71/1/237 61/1/234 69/1/238
f 72/1/239 69/1/238 70/1/240
f 72/1/241 73/1/42 71/1/242
f 73/1/42 58/1/229 71/1/242
f 75/1/55 73/1/42 90/1/53
f 76/1/243 53/1/44 74/1/43
f 77/1/244 74/1/43 75/1/55
f 78/1/45 50/1/222 76/1/243
f 79/1/47 76/1/243 77/1/244
f 84/1/49 77/1/244 86/1/245
f 45/1/33 47/1/32 78/1/45
f 80/1/46 78/1/45 79/1/47
f 81/1/48 79/1/47 84/1/49
f 82/1/50 84/1/49 85/1/51
f 85/1/51 86/1/245 87/1/246
f 86/1/245 75/1/55 88/1/54
f 87/1/246 88/1/54 89/1/68
f 89/1/68 90/1/53 105/1/66
f 105/1/66 91/1/247 92/1/248
f 72/1/241 91/1/247 90/1/53
f 91/1/249 70/1/240 93/1/250
f 92/1/251 93/1/250 94/1/252
f 93/1/56 68/1/39 95/1/57
f 99/1/63 94/1/58 95/1/57
f 95/1/57 96/1/59 98/1/61
f 127/1/60 97/1/236 25/1/88
f 99/1/63 98/1/61 126/1/62
f 103/1/253 94/1/252 101/1/254
f 101/1/64 100/1/65 102/1/82
f 104/1/255 101/1/254 102/1/256
f 120/1/78 103/1/257 104/1/258
f 92/1/248 103/1/257 105/1/66
f 107/1/80 105/1/66 120/1/78
f 108/1/69 89/1/68 106/1/67
f 109/1/71 87/1/246 108/1/69
f 106/1/67 107/1/80 108/1/69
f 115/1/74 108/1/69 117/1/259
f 83/1/52 85/1/51 109/1/71
f 111/1/72 109/1/71 110/1/70
f 112/1/73 110/1/70 115/1/74
f 113/1/75 115/1/74 116/1/76
f 9/1/85 115/1/74 117/1/259
f 117/1/259 107/1/80 118/1/79
f 119/1/89 117/1/259 118/1/79
f 14/1/90 118/1/79 120/1/78
f 122/1/260 120/1/78 121/1/261
f 104/1/258 121/1/261 120/1/78
f 121/1/262 102/1/256 123/1/263
f 124/1/264 121/1/262 123/1/263
f 125/1/86 100/1/65 99/1/63
f 24/1/18 127/1/60 27/1/17
f 126/1/62 24/1/18 125/1/86
f 20/1/11 125/1/86 23/1/14
f 20/1/208 122/1/265 124/1/264
f 60/1/232 33/1/266 31/1/214
f 14/1/90 122/1/260 17/1/205
f 9/1/85 119/1/89 12/1/91
f 114/1/77 116/1/76 7/1/84
f 66/1/20 26/1/19 65/1/235
f 55/1/226 33/1/217 57/1/227
f 55/1/226 36/1/25 34/1/24
f 52/1/224 38/1/219 36/1/25
f 167/18/267 166/19/268 176/20/269
f 171/4/191 167/21/270 168/2/189
f 177/22/199 170/23/190 169/24/200
f 168/2/189 169/15/200 170/3/190
f 174/25/271 175/11/196 173/5/192
f 173/5/192 170/8/190 174/25/271
f 181/26/272 180/27/273 182/17/202
f 183/10/195 173/5/192 175/11/196
f 175/11/196 178/13/198 176/12/197
f 178/13/198 175/11/196 177/14/199
f 180/27/273 178/13/198 169/15/200
f 178/13/198 180/27/273 179/16/201
f 168/2/189 181/26/272 182/17/202
f 182/17/202 180/27/273 169/15/200
f 8/1/83 6/1/7 7/1/84
f 173/5/192 172/9/194 166/6/193
f 10/1/203 2/1/2 6/1/7
f 11/1/8 8/1/83 9/1/85
f 13/1/10 10/1/203 8/1/83
f 15/1/9 11/1/8 12/1/91
f 16/1/204 15/1/9 14/1/90
f 19/1/206 16/1/211 17/1/207
f 21/1/210 18/1/213 16/1/211
f 29/1/16 21/1/21 22/1/12
f 64/1/37 28/1/15 27/1/17
f 64/1/37 62/1/93 29/1/16
f 62/1/93 31/1/92 30/1/22
f 30/1/212 32/1/215 18/1/213
f 31/1/214 33/1/266 32/1/215
f 34/1/24 15/1/9 18/1/209
f 34/1/24 35/1/23 13/1/10
f 35/1/23 37/1/218 10/1/203
f 36/1/25 38/1/219 37/1/218
f 37/1/218 39/1/4 2/1/2
f 38/1/219 40/1/26 39/1/4
f 49/1/220 41/1/28 40/1/26
f 48/1/221 46/1/30 41/1/28
f 47/1/32 46/1/30 48/1/221
f 51/1/223 48/1/221 49/1/220
f 50/1/222 48/1/221 51/1/223
f 54/1/225 51/1/223 52/1/224
f 53/1/44 51/1/223 54/1/225
f 54/1/225 55/1/226 57/1/227
f 58/1/229 73/1/42 54/1/225
f 59/1/230 56/1/274 57/1/231
f 58/1/233 56/1/274 59/1/230
f 63/1/34 59/1/36 60/1/94
f 63/1/34 62/1/93 64/1/37
f 127/1/60 66/1/20 65/1/235
f 96/1/59 67/1/38 66/1/20
f 69/1/41 61/1/35 63/1/34
f 71/1/237 58/1/233 61/1/234
f 72/1/239 71/1/237 69/1/238
f 72/1/241 90/1/53 73/1/42
f 75/1/55 74/1/43 73/1/42
f 76/1/243 50/1/222 53/1/44
f 77/1/244 76/1/243 74/1/43
f 78/1/45 47/1/32 50/1/222
f 79/1/47 78/1/45 76/1/243
f 84/1/49 79/1/47 77/1/244
f 85/1/51 84/1/49 86/1/245
f 86/1/245 77/1/244 75/1/55
f 87/1/246 86/1/245 88/1/54
f 89/1/68 88/1/54 90/1/53
f 105/1/66 90/1/53 91/1/247
f 91/1/249 72/1/239 70/1/240
f 92/1/251 91/1/249 93/1/250
f 93/1/56 70/1/40 68/1/39
f 99/1/63 101/1/64 94/1/58
f 103/1/253 92/1/251 94/1/252
f 104/1/255 103/1/253 101/1/254
f 120/1/78 105/1/66 103/1/257
f 107/1/80 106/1/67 105/1/66
f 108/1/69 87/1/246 89/1/68
f 109/1/71 85/1/51 87/1/246
f 115/1/74 110/1/70 108/1/69
f 9/1/85 116/1/76 115/1/74
f 117/1/259 108/1/69 107/1/80
f 119/1/89 9/1/85 117/1/259
f 14/1/90 119/1/89 118/1/79
f 122/1/260 14/1/90 120/1/78
f 121/1/262 104/1/255 102/1/256
f 124/1/264 122/1/265 121/1/262
f 125/1/86 123/1/81 100/1/65
f 24/1/18 126/1/62 127/1/60
f 20/1/11 124/1/87 125/1/86
f 20/1/208 17/1/207 122/1/265
f 60/1/232 57/1/231 33/1/266
f 55/1/226 34/1/24 33/1/217
f 55/1/226 52/1/224 36/1/25
f 52/1/224 49/1/220 38/1/219
f 183/28/275 176/20/269 172/29/276
f 176/20/269 179/30/267 167/18/267
f 172/29/276 176/20/269 166/19/268
f 179/30/267 181/31/277 167/18/267
f 171/4/191 166/32/193 167/21/270
f 177/22/199 174/33/271 170/23/190
f 174/25/271 177/14/199 175/11/196
f 181/26/272 179/16/201 180/27/273
f 168/2/189 167/21/270 181/26/272
