# Blender 4.4.3
# www.blender.org
mtllib kamien_3.2.mtl
o rock.003
v 0.558737 0.098965 0.198508
v 0.651846 0.521857 -0.404000
v -0.273678 0.247190 0.450032
v 0.185557 -0.282628 -0.547827
v -0.389845 -0.282628 -0.552628
v -0.526269 -0.282628 0.000430
v -0.228687 0.753765 0.144891
v -0.629233 0.525768 -0.126367
v 0.641161 0.664709 -0.211278
v 0.427208 -0.113179 0.289338
v -0.480288 0.583209 0.278286
v 0.436108 0.762287 -0.362869
v 0.101916 0.942438 -0.450469
v -0.553448 0.698431 0.152867
v -0.486380 0.837558 -0.085040
v -0.525388 -0.045369 -0.498665
v -0.514591 0.578766 -0.452839
v -0.554231 -0.110016 0.259622
v 0.770906 0.242124 -0.228454
v 0.657541 0.366318 0.031112
v 0.123919 0.127549 0.426053
v 0.195346 0.582469 0.090586
v -0.306346 0.929109 -0.309776
v -0.203733 0.990388 -0.193043
v 0.245136 0.905223 -0.222552
v 0.448463 0.380508 -0.538493
v 0.171822 -0.262811 -0.624341
v 0.585697 0.060884 -0.468023
v -0.289434 0.174868 -0.652344
v 0.131921 0.792811 -0.569672
v 0.248504 -0.282628 -0.212350
v 0.174296 -0.282628 0.142115
v 0.617982 -0.143101 -0.231071
v 0.529502 -0.239535 0.042213
v 0.168070 -0.289919 0.332501
v -0.083231 -0.196346 0.418194
v -0.614020 0.365363 0.275926
v -0.657882 0.035364 -0.004651
v -0.522477 0.802806 -0.276026
v 0.702050 -0.009349 -0.033944
v 0.233008 0.780527 -0.088634
v -0.362701 0.851956 0.079732
v -0.311355 0.771535 -0.487855
v -0.214149 -0.282628 0.117671
v 0.461851 -0.185682 -0.485493
v -0.185031 -0.282628 -0.517355
v -0.472680 0.167892 0.418651
vn 0.9228 0.2722 0.2728
vn 0.9230 0.0431 0.3825
vn 0.6298 0.6403 -0.4397
vn 0.5160 0.8423 -0.1558
vn 0.8157 -0.3787 -0.4372
vn 0.3444 0.5216 0.7806
vn -0.1088 -0.1176 0.9871
vn 0.2160 0.5573 0.8017
vn 0.2699 -0.1955 0.9428
vn 0.1109 0.5055 0.8556
vn 0.3809 0.5795 0.7205
vn 0.3344 0.5966 0.7296
vn -0.1514 0.9237 -0.3518
vn -0.4780 0.6644 -0.5745
vn -0.1737 0.5921 -0.7869
vn -0.5171 0.7943 0.3187
vn 0.1717 0.0574 -0.9835
vn 0.4896 0.6013 -0.6315
vn 0.4089 0.2475 -0.8784
vn 0.5310 0.0414 -0.8464
vn 0.4620 -0.1704 -0.8704
vn -0.5891 0.0693 -0.8051
vn -0.3759 0.2334 -0.8968
vn -0.1873 0.2547 -0.9487
vn 0.1108 -0.9932 -0.0344
vn 0.0024 -0.9993 -0.0382
vn 0.3501 -0.9349 -0.0584
vn 0.3355 -0.9172 -0.2150
vn -0.2886 -0.8796 0.3782
vn -0.0000 -1.0000 -0.0000
vn 0.3433 -0.9370 -0.0644
vn -0.9661 -0.0076 -0.2579
vn -0.9949 0.0749 0.0675
vn -0.8997 -0.3759 -0.2219
vn -0.7831 -0.1194 0.6103
vn -0.6140 0.3694 0.6975
vn -0.9286 0.3703 0.0231
vn 0.8510 -0.3351 -0.4044
vn 0.9406 0.2956 -0.1669
vn 0.7766 -0.2305 0.5862
vn 0.8534 0.0109 0.5211
vn 0.7582 -0.3973 0.5170
vn 0.8075 -0.5874 0.0542
vn 0.8024 -0.0324 -0.5959
vn 0.9199 -0.3642 -0.1452
vn 0.3710 0.5977 0.7107
vn 0.0443 -0.0526 0.9976
vn 0.4527 0.3470 0.8214
vn 0.4664 0.0877 0.8802
vn 0.2973 0.4731 0.8293
vn 0.3817 0.6589 0.6481
vn 0.2606 0.7550 0.6017
vn 0.0338 0.5843 0.8109
vn -0.2376 0.6423 0.7287
vn -0.2655 0.3043 0.9148
vn 0.1889 0.9811 0.0415
vn -0.4850 0.8739 -0.0325
vn -0.3974 0.8908 0.2205
vn 0.5026 0.8460 -0.1777
vn 0.1915 0.8257 0.5306
vn 0.2720 0.6919 0.6688
vn -0.5106 0.8578 -0.0596
vn -0.2440 0.7297 -0.6388
vn 0.1130 0.0556 -0.9920
vn 0.5025 0.5631 -0.6560
vn 0.3805 -0.0403 -0.9239
vn 0.3749 -0.8789 -0.2949
vn 0.0021 -0.9680 -0.2511
vn -0.1179 -0.1867 -0.9753
vn -0.4891 -0.0819 -0.8684
vn -0.5790 0.4924 -0.6498
vn 0.1278 -0.9914 0.0268
vn -0.2172 -0.9090 0.3556
vn 0.5313 -0.6448 0.5496
vn 0.2657 -0.1573 0.9511
vn -0.3570 -0.3828 0.8521
vn -0.1985 -0.8255 0.5283
vn -0.8724 -0.4624 -0.1584
vn -0.9141 -0.3759 0.1517
vn -0.9453 -0.1292 0.2997
vn -0.4643 0.2759 0.8416
vn -0.9670 0.2221 0.1251
vn -0.8503 0.5222 0.0657
vn -0.9341 0.2003 -0.2955
vn -0.9448 0.0402 -0.3252
s 0
usemtl kamien
f 20//1 19//1 9//1
f 40//2 19//2 20//2
f 9//3 2//3 12//3
f 9//4 12//4 25//4
f 45//5 28//5 33//5
f 21//6 20//6 22//6
f 36//7 3//7 47//7
f 21//8 22//8 3//8
f 10//9 21//9 36//9
f 11//10 3//10 7//10
f 41//11 22//11 9//11
f 7//12 22//12 41//12
f 23//13 24//13 13//13
f 39//14 23//14 43//14
f 43//15 13//15 30//15
f 42//16 15//16 14//16
f 26//17 27//17 30//17
f 12//18 30//18 13//18
f 2//19 26//19 30//19
f 2//20 28//20 26//20
f 45//21 27//21 28//21
f 29//22 16//22 17//22
f 29//23 17//23 43//23
f 30//24 29//24 43//24
f 35//25 32//25 34//25
f 32//26 35//26 44//26
f 33//27 31//27 45//27
f 34//28 31//28 33//28
f 36//29 18//29 44//29
f 44//30 6//30 46//30
f 31//30 46//30 4//30
f 46//30 5//30 4//30
f 31//31 4//31 45//31
f 38//32 8//32 16//32
f 37//33 8//33 38//33
f 6//34 38//34 5//34
f 47//35 37//35 18//35
f 11//36 14//36 37//36
f 8//37 14//37 39//37
f 33//38 28//38 19//38
f 9//39 19//39 2//39
f 1//40 10//40 40//40
f 1//41 40//41 20//41
f 10//42 34//42 40//42
f 34//43 33//43 40//43
f 28//44 2//44 19//44
f 33//45 19//45 40//45
f 9//46 22//46 20//46
f 36//47 21//47 3//47
f 1//48 20//48 21//48
f 10//49 1//49 21//49
f 7//50 3//50 22//50
f 25//51 41//51 9//51
f 42//52 7//52 41//52
f 42//53 11//53 7//53
f 14//54 11//54 42//54
f 3//55 11//55 47//55
f 13//56 24//56 25//56
f 23//57 15//57 24//57
f 42//58 24//58 15//58
f 12//59 13//59 25//59
f 25//60 24//60 42//60
f 41//61 25//61 42//61
f 39//62 15//62 23//62
f 43//63 23//63 13//63
f 30//64 27//64 29//64
f 12//65 2//65 30//65
f 28//66 27//66 26//66
f 45//67 4//67 27//67
f 27//68 4//68 5//68
f 29//69 27//69 5//69
f 29//70 5//70 16//70
f 43//71 17//71 39//71
f 34//72 32//72 31//72
f 31//30 44//30 46//30
f 32//30 44//30 31//30
f 35//73 36//73 44//73
f 10//74 35//74 34//74
f 35//75 10//75 36//75
f 36//76 47//76 18//76
f 44//77 18//77 6//77
f 46//30 6//30 5//30
f 5//78 38//78 16//78
f 6//79 18//79 38//79
f 18//80 37//80 38//80
f 47//81 11//81 37//81
f 8//82 37//82 14//82
f 39//83 14//83 15//83
f 8//84 39//84 17//84
f 16//85 8//85 17//85
