# Blender 4.4.3
# www.blender.org
mtllib kamien_4.2.mtl
o rock.001
v -0.051239 0.856586 -0.005093
v -0.499641 -0.130109 -0.881134
v -0.664143 -0.279292 0.282053
v -0.461575 0.171535 -0.526287
v 0.577136 0.018379 -0.428704
v 0.422729 -0.332430 0.148214
v 0.784081 0.094160 0.208811
v 0.616113 -0.258313 0.044693
v -0.282083 0.274418 0.372189
v 0.282130 0.593281 -0.412379
v -0.318459 0.809709 -0.288119
v -0.277507 0.405696 -0.608351
v -0.081162 0.419007 -0.672087
v -0.750753 0.082010 0.171655
v -0.428313 0.692298 0.076783
v -0.061495 0.532132 0.355609
v 0.178726 0.231238 0.653278
v 0.217477 0.772818 0.124868
v 0.465058 0.197879 0.544147
v 0.507739 0.626930 0.163937
v 0.662038 0.450594 -0.243835
v 0.562397 0.270058 -0.548718
v 0.303851 -0.022891 -1.028541
v 0.333790 -0.279292 -0.352517
v -0.216904 -0.279292 -0.953316
v -0.176142 -0.069101 0.677217
v 0.360743 -0.279292 -0.155041
v 0.289642 -0.063673 0.666666
v -0.412620 0.669867 -0.378568
v -0.499097 0.781390 -0.168370
v 0.392286 0.414868 0.475842
v 0.208517 0.743862 -0.222692
v 0.358735 -0.258674 -0.802965
v -0.188703 -0.279292 -0.124492
v -0.657214 -0.279292 -0.117323
v -0.001614 -0.279292 0.529296
v 0.148914 0.189501 -0.970623
v -0.692065 0.210071 -0.047362
v -0.606263 -0.224257 -0.607271
v -0.529550 -0.279292 -0.556449
v 0.753568 0.429604 0.109690
v 0.798029 0.212627 0.006586
v -0.269180 -0.071778 -1.033666
v -0.406668 0.292904 -0.601676
v -0.666816 0.060070 0.303179
v -0.159286 -0.279292 -0.476830
v 0.625754 -0.225105 0.213648
vn 0.1712 0.8029 -0.5710
vn -0.2873 0.5769 -0.7646
vn -0.2881 0.6341 -0.7175
vn -0.4360 0.4533 -0.7775
vn -0.1618 0.9868 -0.0107
vn -0.1473 0.6052 -0.7823
vn -0.8662 0.1952 -0.4599
vn -0.8730 0.2155 -0.4375
vn -0.2917 0.8689 0.4000
vn -0.8453 -0.0398 0.5328
vn -0.7123 0.4589 0.5311
vn -0.1776 0.7342 0.6553
vn 0.3673 0.3891 0.8448
vn 0.3686 0.1800 0.9120
vn -0.0084 0.6999 0.7142
vn 0.1550 0.9406 -0.3022
vn 0.4970 0.6657 -0.5566
vn -0.0000 -1.0000 -0.0000
vn 0.2140 -0.6488 -0.7302
vn -0.5055 -0.7654 -0.3982
vn -0.2535 -0.6886 0.6794
vn -0.2305 -0.9654 -0.1220
vn 0.3320 -0.7833 0.5255
vn 0.4234 -0.8932 0.1514
vn 0.2465 -0.9448 -0.2159
vn 0.9067 -0.1371 -0.3989
vn 0.6447 -0.6357 -0.4246
vn 0.5345 0.5620 -0.6312
vn -0.4255 -0.4180 -0.8027
vn 0.0384 -0.3524 -0.9351
vn -0.0130 0.2542 -0.9671
vn -0.9003 0.3745 -0.2218
vn -0.3293 -0.8461 -0.4191
vn -0.9711 -0.2379 -0.0169
vn -0.9925 -0.0550 -0.1094
vn -0.8186 0.3862 -0.4251
vn -0.4246 0.5244 0.7381
vn 0.7389 0.2519 0.6250
vn 0.6962 -0.1368 0.7047
vn 0.6955 -0.3353 0.6355
vn 0.9288 0.2962 -0.2229
vn 0.6072 0.7868 -0.1105
vn 0.1260 0.7332 -0.6682
vn -0.4759 0.6807 -0.5569
vn -0.5235 0.5616 -0.6407
vn -0.5553 0.5399 -0.6325
vn -0.9151 0.1946 -0.3532
vn -0.7836 0.4761 0.3992
vn -0.9494 0.3045 -0.0764
vn -0.3890 0.4371 0.8109
vn -0.4274 0.4174 0.8020
vn -0.5067 0.4798 0.7163
vn -0.3634 0.4924 0.7909
vn -0.0902 0.7417 0.6646
vn -0.0095 0.6977 0.7163
vn 0.2892 0.7385 0.6091
vn 0.3345 0.9384 -0.0868
vn 0.4566 0.8855 -0.0856
vn 0.5309 0.8324 -0.1591
vn 0.4774 0.7690 -0.4252
vn 0.9066 -0.1618 -0.3897
vn 0.0470 -0.9980 -0.0431
vn 0.7759 -0.6307 0.0141
vn 0.2994 -0.8410 0.4506
vn 0.0253 -0.5612 0.8273
vn 0.0916 -0.9957 -0.0125
vn 0.8955 -0.4436 0.0361
vn 0.8857 -0.3653 -0.2864
vn 0.9179 -0.3668 -0.1516
vn 0.4718 0.6571 -0.5879
vn -0.2745 0.6485 -0.7100
vn 0.0363 0.8056 -0.5914
vn -0.5098 -0.8474 -0.1482
vn -0.9611 -0.0292 -0.2746
vn -0.9332 0.3170 -0.1693
vn -0.6143 -0.0538 0.7872
vn 0.0220 0.0536 0.9983
vn 0.9806 0.1320 0.1450
vn 0.6383 0.4176 0.6466
vn 0.9176 0.1286 -0.3761
vn 0.5792 0.5583 0.5940
vn 0.8976 -0.1458 -0.4159
s 0
usemtl kamien
f 10//1 11//1 32//1
f 13//2 12//2 11//2
f 12//3 37//3 43//3
f 12//4 44//4 29//4
f 11//5 30//5 1//5
f 12//6 29//6 11//6
f 29//7 38//7 30//7
f 4//8 38//8 29//8
f 30//9 15//9 1//9
f 45//10 14//10 3//10
f 14//11 45//11 15//11
f 16//12 1//12 15//12
f 31//13 17//13 19//13
f 19//14 17//14 28//14
f 31//15 16//15 17//15
f 1//16 32//16 11//16
f 10//17 21//17 22//17
f 46//18 24//18 27//18
f 23//19 33//19 25//19
f 25//20 40//20 2//20
f 27//18 34//18 46//18
f 35//18 34//18 3//18
f 36//21 26//21 3//21
f 27//22 6//22 36//22
f 28//23 36//23 47//23
f 6//24 8//24 47//24
f 27//25 8//25 6//25
f 42//26 5//26 22//26
f 8//27 24//27 5//27
f 23//28 37//28 22//28
f 43//29 25//29 2//29
f 43//30 23//30 25//30
f 37//31 23//31 43//31
f 39//32 4//32 2//32
f 40//33 39//33 2//33
f 14//34 35//34 3//34
f 38//35 39//35 35//35
f 4//36 39//36 38//36
f 26//37 9//37 45//37
f 7//38 41//38 19//38
f 7//39 19//39 28//39
f 47//40 7//40 28//40
f 21//41 41//41 42//41
f 41//42 21//42 20//42
f 10//43 13//43 11//43
f 11//44 29//44 30//44
f 43//45 44//45 12//45
f 2//46 44//46 43//46
f 4//47 29//47 44//47
f 15//48 30//48 14//48
f 14//49 30//49 38//49
f 9//50 15//50 45//50
f 9//51 16//51 15//51
f 9//52 26//52 16//52
f 17//53 16//53 26//53
f 16//54 18//54 1//54
f 31//55 18//55 16//55
f 20//56 18//56 31//56
f 18//57 32//57 1//57
f 20//58 32//58 18//58
f 20//59 21//59 32//59
f 10//60 32//60 21//60
f 22//61 33//61 23//61
f 24//62 25//62 33//62
f 24//63 33//63 5//63
f 25//18 24//18 46//18
f 46//18 35//18 40//18
f 46//18 34//18 35//18
f 25//18 46//18 40//18
f 34//18 27//18 36//18
f 34//18 36//18 3//18
f 47//64 36//64 6//64
f 28//65 26//65 36//65
f 27//66 24//66 8//66
f 7//67 47//67 8//67
f 42//68 8//68 5//68
f 7//69 8//69 42//69
f 10//70 22//70 37//70
f 12//71 13//71 37//71
f 10//72 37//72 13//72
f 40//73 35//73 39//73
f 14//74 38//74 35//74
f 44//75 2//75 4//75
f 3//76 26//76 45//76
f 17//77 26//77 28//77
f 42//78 41//78 7//78
f 19//79 41//79 31//79
f 22//80 21//80 42//80
f 20//81 31//81 41//81
f 22//82 5//82 33//82
