# Blender 4.4.3
# www.blender.org
mtllib kamien_2.2.mtl
o rock.002
v 0.121487 -0.287910 -0.435633
v -0.200836 -0.287910 -0.419008
v 0.464443 0.368453 -0.194421
v -0.217998 0.661198 -0.185339
v -0.126230 -0.243660 0.391160
v -0.379827 0.134878 0.219938
v 0.559662 -0.028115 0.105409
v -0.489240 0.231367 -0.213550
v 0.612863 -0.109708 -0.302381
v 0.324790 0.578442 -0.579092
v 0.332410 0.171142 -0.602763
v 0.252329 -0.041474 0.352420
v 0.026960 -0.287910 0.311325
v -0.129594 0.216511 0.557368
v 0.164955 0.189700 0.475902
v -0.007042 0.411506 0.467229
v 0.089836 -0.287910 -0.207111
v 0.605251 -0.247111 0.003302
v 0.372125 0.270342 0.167671
v -0.077795 0.729684 -0.031536
v 0.146334 0.715428 0.019716
v 0.098948 0.809111 -0.325051
v -0.428441 -0.141896 0.183596
v -0.414625 0.310882 -0.478967
v -0.209507 0.187192 -0.744274
v 0.193852 -0.216434 -0.576237
v 0.464500 0.279137 -0.441905
v -0.240872 -0.086306 0.589829
v -0.005163 -0.131387 0.553253
v -0.059540 0.090923 0.619080
v -0.352303 0.119250 0.527337
v -0.356093 -0.127005 0.407042
v -0.404770 -0.287910 -0.176996
v -0.183263 -0.287910 0.188722
v 0.494505 -0.287910 0.012815
v 0.641527 0.142159 -0.088410
v 0.389945 0.598122 -0.283529
v -0.083062 0.716185 -0.444383
v -0.408123 0.350385 0.271743
v -0.403701 -0.133525 -0.523708
v 0.122340 0.066202 -0.723345
v -0.145196 -0.105381 -0.720950
v 0.689938 -0.009619 -0.208252
v 0.279063 0.766039 -0.353845
v 0.125080 0.674810 -0.627595
v -0.247157 0.481667 0.331057
v -0.503987 -0.119043 -0.301808
vn -0.4143 -0.8578 0.3042
vn -0.0600 -0.7991 0.5983
vn -0.5027 -0.8364 0.2185
vn 0.6017 -0.6318 0.4886
vn -0.0221 0.4309 0.9021
vn 0.6411 -0.1588 0.7509
vn 0.5668 -0.1034 0.8174
vn -0.2875 0.5448 0.7877
vn -0.9856 -0.1488 0.0807
vn -0.9461 0.1271 0.2979
vn -0.9631 -0.1755 0.2040
vn -0.4929 -0.8172 0.2986
vn -0.0000 -1.0000 -0.0000
vn 0.3013 -0.6567 0.6914
vn 0.6165 -0.2237 0.7549
vn 0.2894 -0.8757 -0.3864
vn 0.3999 -0.8540 -0.3327
vn 0.8282 0.0138 0.5603
vn 0.6052 0.2207 0.7649
vn 0.9236 -0.0079 0.3832
vn 0.6405 0.5188 0.5662
vn 0.6413 0.5145 0.5692
vn 0.7883 0.5129 0.3399
vn 0.7146 0.6130 0.3370
vn -0.0703 0.8383 0.5406
vn 0.7777 0.4301 0.4584
vn 0.2600 0.9403 0.2198
vn -0.4422 0.8966 -0.0237
vn -0.6171 0.7534 0.2271
vn -0.7384 0.6256 -0.2519
vn -0.8460 0.5331 0.0106
vn -0.9881 0.0028 0.1539
vn -0.9106 0.0192 -0.4128
vn -0.8919 -0.4366 0.1182
vn -0.7201 -0.6331 -0.2841
vn -0.0790 -0.8716 -0.4838
vn -0.0269 -0.8533 -0.5208
vn 0.7475 0.0475 -0.6626
vn 0.8147 0.5454 -0.1967
vn 0.8504 0.4652 -0.2456
vn 0.8569 -0.4779 -0.1935
vn 0.4714 0.7224 -0.5059
vn 0.9184 0.3260 -0.2242
vn 0.8539 0.4719 -0.2197
vn 0.1180 0.1538 -0.9810
vn -0.1853 0.8921 -0.4120
vn 0.5738 -0.2583 -0.7772
vn -0.7899 -0.2593 0.5557
vn -0.3860 -0.8185 0.4255
vn 0.0434 -0.8362 0.5467
vn -0.1460 -0.9571 0.2503
vn 0.0993 -0.2601 0.9605
vn -0.2575 0.3067 0.9163
vn -0.2845 0.1344 0.9492
vn 0.3950 0.3396 0.8536
vn -0.9958 -0.0275 0.0878
vn -0.6289 0.5034 0.5925
vn -0.3338 0.5220 0.7849
vn -0.4358 -0.8217 -0.3672
vn 0.4548 -0.5347 0.7123
vn 0.7281 0.3324 0.5995
vn 0.9232 0.0130 0.3842
vn 0.6519 0.6734 0.3487
vn -0.0650 0.8357 0.5453
vn -0.4171 0.9086 -0.0244
vn 0.0015 0.9651 0.2620
vn -0.5510 0.5073 -0.6626
vn -0.6634 0.7176 0.2120
vn -0.8410 0.5357 -0.0759
vn -0.9537 0.1320 0.2701
vn -0.9652 0.1013 -0.2410
vn -0.7804 0.0436 -0.6237
vn 0.0368 -0.0714 -0.9968
vn -0.3211 -0.7831 -0.5326
vn -0.5822 -0.1910 -0.7903
vn 0.2470 -0.3975 -0.8837
vn 0.3893 -0.8864 -0.2502
vn 0.9572 0.2724 -0.0981
vn -0.5071 0.5136 -0.6921
vn 0.2998 0.1469 -0.9426
vn 0.1548 0.9079 -0.3896
vn 0.4742 0.0599 -0.8783
vn 0.7541 0.0528 -0.6547
vn 0.7543 0.0521 -0.6544
vn 0.5748 -0.2586 -0.7763
s 0
usemtl kamien
f 34//1 5//1 32//1
f 28//2 5//2 29//2
f 34//3 32//3 23//3
f 29//4 13//4 12//4
f 14//5 30//5 16//5
f 15//6 29//6 12//6
f 15//7 30//7 29//7
f 14//8 16//8 46//8
f 39//9 6//9 31//9
f 32//10 6//10 23//10
f 6//11 39//11 8//11
f 33//12 34//12 23//12
f 33//13 2//13 34//13
f 17//13 34//13 2//13
f 35//13 13//13 17//13
f 12//14 35//14 18//14
f 12//15 18//15 7//15
f 1//13 35//13 17//13
f 18//16 35//16 9//16
f 9//17 35//17 1//17
f 12//18 19//18 15//18
f 7//19 19//19 12//19
f 43//20 36//20 7//20
f 15//21 19//21 16//21
f 16//22 19//22 21//22
f 21//23 19//23 3//23
f 44//24 21//24 37//24
f 21//25 20//25 46//25
f 3//26 37//26 21//26
f 22//27 21//27 44//27
f 22//28 38//28 20//28
f 20//29 4//29 46//29
f 24//30 4//30 38//30
f 4//31 8//31 39//31
f 23//32 8//32 47//32
f 40//33 47//33 24//33
f 47//34 33//34 23//34
f 47//35 40//35 33//35
f 42//36 26//36 1//36
f 2//37 42//37 1//37
f 27//38 43//38 9//38
f 3//39 36//39 27//39
f 36//40 43//40 27//40
f 18//41 9//41 43//41
f 44//42 10//42 45//42
f 27//43 10//43 37//43
f 10//44 44//44 37//44
f 25//45 45//45 41//45
f 22//46 45//46 38//46
f 11//47 9//47 26//47
f 28//48 31//48 32//48
f 28//49 32//49 5//49
f 13//50 29//50 5//50
f 13//51 5//51 34//51
f 28//52 29//52 30//52
f 31//53 30//53 14//53
f 31//54 28//54 30//54
f 15//55 16//55 30//55
f 32//56 31//56 6//56
f 39//57 31//57 46//57
f 46//58 31//58 14//58
f 2//59 33//59 40//59
f 1//13 17//13 2//13
f 13//13 34//13 17//13
f 12//60 13//60 35//60
f 19//61 7//61 36//61
f 18//62 43//62 7//62
f 19//63 36//63 3//63
f 16//64 21//64 46//64
f 20//65 38//65 4//65
f 21//66 22//66 20//66
f 25//67 24//67 38//67
f 46//68 4//68 39//68
f 24//69 8//69 4//69
f 23//70 6//70 8//70
f 8//71 24//71 47//71
f 40//72 24//72 25//72
f 41//73 42//73 25//73
f 40//74 42//74 2//74
f 25//75 42//75 40//75
f 26//76 42//76 41//76
f 1//77 26//77 9//77
f 27//78 37//78 3//78
f 25//79 38//79 45//79
f 41//80 45//80 10//80
f 22//81 44//81 45//81
f 10//82 11//82 41//82
f 9//83 11//83 27//83
f 27//84 11//84 10//84
f 41//85 11//85 26//85
