# Blender 4.4.3
# www.blender.org
mtllib patyk_1.2.mtl
o Vert.008
v -1.317465 -0.070808 0.038085
v -1.409488 0.022686 0.054603
v -1.333986 0.022686 -0.053940
v -1.283405 0.022686 0.227808
v -1.391948 0.022686 0.152306
v -1.299927 -0.070808 0.135777
v -1.299927 0.215444 0.135777
v -1.391948 0.121951 0.152306
v -1.283405 0.121951 0.227808
v -1.317465 0.215444 0.038085
v -1.333986 0.121951 -0.053940
v -1.409488 0.121951 0.054603
v -0.392679 0.022686 -0.221354
v -0.389821 -0.070808 -0.126953
v -0.386881 -0.070808 -0.029815
v -0.384018 0.022686 0.064767
v -0.384018 0.121951 0.064767
v -0.386881 0.215444 -0.029815
v -0.389821 0.215444 -0.126953
v -0.392679 0.121951 -0.221354
v 1.622885 -0.070808 0.168232
v 1.639999 0.022686 0.076302
v 1.714803 0.022686 0.185327
v 1.604714 -0.070808 0.265845
v 1.696636 0.022686 0.282916
v 1.587611 0.022686 0.357720
v 1.587611 0.121951 0.357720
v 1.696636 0.121951 0.282916
v 1.604714 0.215444 0.265845
v 1.622885 0.215444 0.168232
v 1.714803 0.121951 0.185327
v 1.639999 0.121951 0.076302
v 0.863426 0.022686 -0.377526
v 1.007573 0.022686 -0.479181
v 0.976504 -0.070808 -0.369810
v 1.040768 0.022686 -0.135533
v 1.022203 -0.070808 -0.304700
v 1.174209 0.022686 -0.235225
v 1.174209 0.121951 -0.235225
v 1.022203 0.215444 -0.304700
v 1.040768 0.121951 -0.135533
v 0.863426 0.121951 -0.377526
v 0.976504 0.215444 -0.369810
v 1.007573 0.121951 -0.479181
v 1.463128 0.022686 -0.595535
v 1.575937 0.022686 -0.526568
v 1.485619 -0.070808 -0.502283
v 1.530244 0.022686 -0.317262
v 1.508169 -0.070808 -0.408788
v 1.599211 0.022686 -0.430071
v 1.508169 0.215444 -0.408788
v 1.530244 0.121951 -0.317262
v 1.599211 0.121951 -0.430071
v 1.463128 0.121951 -0.595535
v 1.485619 0.215444 -0.502283
v 1.575937 0.121951 -0.526568
v -1.172916 0.022686 -0.082856
v -1.156395 -0.070808 0.009169
v -1.138857 -0.070808 0.106860
v -1.122335 0.022686 0.198892
v -1.122335 0.121951 0.198892
v -1.138857 0.215444 0.106860
v -1.156395 0.215444 0.009169
v -1.172916 0.121951 -0.082856
v -0.919824 0.022686 -0.128293
v -0.903303 -0.070808 -0.036268
v -0.885765 -0.070808 0.061422
v -0.869242 0.022686 0.153455
v -0.869242 0.121951 0.153455
v -0.885765 0.215444 0.061422
v -0.903303 0.215444 -0.036268
v -0.919824 0.121951 -0.128293
v -0.666731 0.022686 -0.173730
v -0.650210 -0.070808 -0.081705
v -0.632673 -0.070808 0.015983
v -0.616150 0.022686 0.108018
v -0.616150 0.121951 0.108018
v -0.632673 0.215444 0.015983
v -0.650210 0.215444 -0.081705
v -0.666731 0.121951 -0.173730
v -0.089146 0.022686 -0.187206
v -0.100070 -0.070808 -0.094356
v -0.111665 -0.070808 0.004204
v -0.122592 0.022686 0.097085
v -0.122592 0.121951 0.097085
v -0.111665 0.215444 0.004204
v -0.100070 0.215444 -0.094356
v -0.089146 0.121951 -0.187206
v 0.193333 0.022686 -0.153973
v 0.182409 -0.070808 -0.061123
v 0.170815 -0.070808 0.037431
v 0.159887 0.022686 0.130318
v 0.159887 0.121951 0.130318
v 0.170815 0.215444 0.037431
v 0.182409 0.215444 -0.061123
v 0.193333 0.121951 -0.153973
v 0.455126 -0.070808 -0.029038
v 0.475812 0.022686 -0.120741
v 0.442366 0.022686 0.163551
v 0.453295 -0.070808 0.070654
v 0.453295 0.215444 0.070654
v 0.442366 0.121951 0.163551
v 0.475812 0.121951 -0.120741
v 0.455126 0.215444 -0.029038
v 1.090765 0.022686 -0.031480
v 0.865039 -0.070808 0.014356
v 1.040768 0.022686 -0.135533
v 0.970059 -0.070808 0.147716
v 0.956412 0.022686 0.240218
v 0.956412 0.121951 0.240218
v 0.970059 0.215444 0.147716
v 1.090765 0.121951 -0.031480
v 1.040768 0.121951 -0.135533
v 0.865039 0.215444 0.014356
v 1.249838 0.022686 0.003671
v 1.232724 -0.070808 0.095604
v 1.214552 -0.070808 0.193221
v 1.197450 0.022686 0.285089
v 1.197450 0.121951 0.285089
v 1.214552 0.215444 0.193221
v 1.232724 0.215444 0.095604
v 1.249838 0.121951 0.003671
v 1.490876 0.022686 0.048542
v 1.473762 -0.070808 0.140473
v 1.455591 -0.070808 0.238087
v 1.438488 0.022686 0.329959
v 1.438488 0.121951 0.329959
v 1.455591 0.215444 0.238087
v 1.473762 0.215444 0.140473
v 1.490876 0.121951 0.048542
v 0.805448 0.022686 -0.296008
v 0.831917 -0.070808 -0.165174
v 0.663284 0.022686 -0.188174
v 0.805448 0.121951 -0.296008
v 0.663284 0.121951 -0.188174
v 0.831917 0.215444 -0.165174
v 1.162192 0.022686 -0.522952
v 1.184776 -0.070808 -0.429314
v 1.207208 -0.070808 -0.336309
v 1.229308 0.022686 -0.244679
v 1.229308 0.121951 -0.244679
v 1.207208 0.215444 -0.336309
v 1.184776 0.215444 -0.429314
v 1.162192 0.121951 -0.522952
v 1.358104 0.022686 -0.570204
v 1.380618 -0.070808 -0.476857
v 1.403139 -0.070808 -0.383483
v 1.425220 0.022686 -0.291931
v 1.425220 0.121951 -0.291931
v 1.403139 0.215444 -0.383483
v 1.380618 0.215444 -0.476857
v 1.358104 0.121951 -0.570204
vn -0.0000 -1.0000 -0.0000
vn -0.0000 1.0000 -0.0000
vn -0.1767 -0.0000 -0.9843
vn -0.1712 -0.0000 -0.9852
vn 0.1767 -0.0000 0.9843
vn -0.3385 -0.0000 -0.9410
vn -0.1475 -0.0000 0.9891
vn 0.1830 -0.0000 -0.9831
vn 0.1118 -0.0000 -0.9937
vn -0.1227 -0.0000 0.9924
vn 0.1832 -0.0000 0.9831
vn 0.1168 -0.0000 -0.9932
vn -0.1168 -0.0000 0.9932
vn 0.2158 -0.0000 -0.9764
vn -0.1830 -0.0000 0.9831
vn 0.9831 -0.0000 0.1830
vn -0.8149 -0.0000 -0.5796
vn -0.2724 -0.0000 -0.9622
vn 0.1691 -0.0000 0.9856
vn 1.0000 -0.0000 -0.0000
vn -0.2345 -0.0000 -0.9721
vn 0.2345 -0.0000 0.9721
vn 0.9721 -0.0000 -0.2345
vn -0.6703 -0.5774 -0.4662
vn -0.4662 -0.5774 0.6703
vn -0.4662 0.5774 0.6703
vn -0.6703 0.5774 -0.4662
vn 0.6732 -0.5774 -0.4619
vn 0.4620 -0.5772 0.6734
vn 0.4620 0.5772 0.6734
vn 0.6732 0.5774 -0.4619
vn -0.4579 -0.6073 -0.6492
vn 0.3218 -0.8432 0.4307
vn 0.3218 0.8432 0.4307
vn -0.4579 0.6073 -0.6492
vn 0.4222 -0.5872 -0.6906
vn 0.6950 -0.5800 0.4249
vn 0.6950 0.5800 0.4249
vn 0.4222 0.5872 -0.6906
vn 0.3481 -0.9224 -0.1673
vn 0.3481 0.9224 -0.1673
vn -0.3710 -0.7894 -0.4891
vn -0.3710 0.7894 -0.4891
vn 0.6952 -0.7071 0.1294
vn 0.5658 -0.0000 0.8246
vn -0.6043 -0.0000 -0.7967
vn -0.2596 -0.6451 -0.7186
vn -0.6960 0.7071 0.1249
vn -0.2581 0.6468 -0.7177
vn -0.1043 0.7071 0.6994
vn -0.5710 -0.0000 0.8209
vn 0.6952 0.7071 0.1294
vn -0.1043 -0.7071 0.6993
vn -0.6960 -0.7071 0.1249
vn 0.8246 -0.0000 -0.5658
vn -0.8209 -0.0000 -0.5710
vn 0.5216 -0.0000 -0.8532
vn 0.6874 0.7071 -0.1658
vn 0.8532 -0.0000 0.5216
vn 0.6874 -0.7071 -0.1658
vn -0.1249 -0.7071 -0.6960
vn 0.1249 -0.7071 0.6959
vn 0.1249 0.7071 0.6959
vn -0.1249 0.7071 -0.6960
vn 0.1249 -0.7072 0.6959
vn 0.1249 0.7072 0.6959
vn -0.1211 -0.7071 -0.6967
vn 0.1295 -0.7072 0.6951
vn 0.1295 0.7072 0.6951
vn -0.1211 0.7071 -0.6967
vn 0.0791 -0.7071 -0.7027
vn -0.0867 -0.7072 0.7017
vn -0.0867 0.7072 0.7017
vn 0.0791 0.7071 -0.7027
vn 0.0826 -0.7071 -0.7023
vn -0.0826 -0.7072 0.7021
vn -0.0826 0.7072 0.7021
vn 0.0826 0.7071 -0.7023
vn -0.0826 -0.7073 0.7021
vn -0.0826 0.7073 0.7021
vn 0.1526 -0.7070 -0.6906
vn -0.1294 -0.7069 0.6953
vn -0.1294 0.7069 0.6953
vn 0.1526 0.7070 -0.6906
vn 0.9013 -0.0000 -0.4331
vn 0.1294 -0.7072 -0.6951
vn 0.1294 0.7072 -0.6951
vn -0.1294 -0.7070 0.6953
vn -0.1294 0.7070 0.6953
vn -0.5664 -0.7204 -0.4002
vn 0.1455 -0.8001 0.5819
vn 0.5985 -0.0000 0.8011
vn 0.9947 0.1031 -0.0000
vn -0.5667 0.7186 -0.4030
vn -0.5763 -0.0000 -0.8172
vn -0.1910 -0.7187 -0.6686
vn 0.1192 -0.7092 0.6949
vn 0.1192 0.7092 0.6949
vn -0.1898 0.7173 -0.6704
vn -0.1643 -0.7176 -0.6768
vn 0.1652 -0.7097 0.6849
vn 0.1652 0.7097 0.6849
vn -0.1636 0.7165 -0.6782
vn -0.1642 -0.7165 -0.6780
vn 0.1652 -0.7096 0.6850
vn 0.1652 0.7096 0.6850
vn -0.1637 0.7161 -0.6785
vn -0.9843 -0.0000 0.1767
vn -0.2581 -0.6468 -0.7177
vn -0.2596 0.6451 -0.7186
vn -0.1043 0.7071 0.6993
vn -0.1043 -0.7071 0.6994
vn 0.1295 -0.7071 0.6951
vn 0.1295 0.7071 0.6951
vn -0.0826 -0.7072 0.7022
vn -0.0826 0.7072 0.7022
vn -0.1294 -0.7069 0.6954
vn -0.1294 0.7069 0.6954
vn -0.5667 -0.7186 -0.4030
vn 0.6414 -0.6991 0.3160
vn 0.6414 0.6991 0.3160
vn -0.5664 0.7204 -0.4002
vn -0.1898 -0.7173 -0.6704
vn 0.1187 -0.7093 0.6948
vn 0.1187 0.7093 0.6948
vn -0.1910 0.7187 -0.6686
vn -0.1636 -0.7165 -0.6782
vn 0.1648 -0.7100 0.6847
vn 0.1648 0.7100 0.6847
vn -0.1643 0.7176 -0.6768
vn -0.1637 -0.7161 -0.6785
vn 0.1650 -0.7097 0.6849
vn 0.1650 0.7097 0.6849
vn -0.1642 0.7165 -0.6780
s 0
usemtl drewno
f 75//1 66//1 74//1
f 70//2 63//2 62//2
f 65//3 64//3 72//3
f 59//1 1//1 58//1
f 13//4 80//4 20//4
f 62//2 10//2 7//2
f 116//1 108//1 106//1
f 106//1 100//1 97//1
f 101//2 114//2 104//2
f 61//5 4//5 60//5
f 49//1 146//1 47//1
f 98//6 135//6 133//6
f 104//2 114//2 136//2
f 99//7 110//7 102//7
f 22//8 130//8 32//8
f 57//3 11//3 64//3
f 69//5 60//5 68//5
f 73//3 72//3 80//3
f 78//2 71//2 70//2
f 91//1 82//1 90//1
f 77//5 68//5 76//5
f 81//9 20//9 88//9
f 85//10 16//10 84//10
f 87//2 18//2 86//2
f 15//1 74//1 14//1
f 17//11 76//11 16//11
f 18//2 79//2 78//2
f 24//1 124//1 21//1
f 82//1 15//1 14//1
f 89//12 88//12 96//12
f 94//2 87//2 86//2
f 97//1 91//1 90//1
f 93//13 84//13 92//13
f 98//12 96//12 103//12
f 104//2 94//2 101//2
f 106//1 97//1 132//1
f 102//13 92//13 99//13
f 122//14 105//14 112//14
f 121//2 111//2 120//2
f 125//1 116//1 124//1
f 119//15 109//15 118//15
f 123//8 122//8 130//8
f 128//2 121//2 120//2
f 147//1 138//1 146//1
f 127//15 118//15 126//15
f 31//16 25//16 23//16
f 29//2 129//2 128//2
f 33//17 134//17 42//17
f 27//15 126//15 26//15
f 137//18 44//18 144//18
f 141//19 38//19 140//19
f 143//2 40//2 142//2
f 37//1 132//1 35//1
f 41//20 107//20 36//20
f 40//2 136//2 114//2
f 45//21 152//21 54//21
f 138//1 37//1 35//1
f 145//21 144//21 152//21
f 150//2 143//2 142//2
f 149//22 140//22 148//22
f 52//22 148//22 48//22
f 51//2 151//2 150//2
f 67//1 58//1 66//1
f 53//23 46//23 56//23
f 1//24 2//24 3//24
f 4//25 5//25 6//25
f 7//26 8//26 9//26
f 10//27 11//27 12//27
f 21//28 22//28 23//28
f 24//29 25//29 26//29
f 27//30 28//30 29//30
f 30//31 31//31 32//31
f 33//32 34//32 35//32
f 36//33 37//33 38//33
f 39//34 40//34 41//34
f 42//35 43//35 44//35
f 45//36 46//36 47//36
f 48//37 49//37 50//37
f 51//38 52//38 53//38
f 54//39 55//39 56//39
f 105//40 106//40 107//40
f 112//41 113//41 114//41
f 131//42 132//42 133//42
f 134//43 135//43 136//43
f 21//44 25//44 24//44
f 26//45 28//45 27//45
f 133//46 134//46 131//46
f 97//47 133//47 132//47
f 7//48 12//48 8//48
f 104//49 135//49 103//49
f 102//50 111//50 101//50
f 9//51 5//51 4//51
f 30//52 28//52 31//52
f 99//53 108//53 109//53
f 6//54 2//54 1//54
f 32//55 23//55 22//55
f 11//56 2//56 12//56
f 45//57 56//57 46//57
f 55//58 53//58 56//58
f 48//59 53//59 52//59
f 47//60 50//60 49//60
f 57//61 1//61 3//61
f 60//62 6//62 59//62
f 7//63 61//63 62//63
f 11//64 63//64 64//64
f 65//61 58//61 57//61
f 68//62 59//62 67//62
f 62//63 69//63 70//63
f 72//64 63//64 71//64
f 73//61 66//61 65//61
f 76//65 67//65 75//65
f 70//66 77//66 78//66
f 80//64 71//64 79//64
f 73//67 14//67 74//67
f 16//68 75//68 15//68
f 78//69 17//69 18//69
f 80//70 19//70 20//70
f 81//71 14//71 13//71
f 16//72 83//72 84//72
f 86//73 17//73 85//73
f 88//74 19//74 87//74
f 89//75 82//75 81//75
f 92//76 83//76 91//76
f 86//77 93//77 94//77
f 96//78 87//78 95//78
f 89//75 97//75 90//75
f 99//79 91//79 100//79
f 94//80 102//80 101//80
f 96//78 104//78 103//78
f 105//81 116//81 106//81
f 109//82 117//82 118//82
f 120//83 110//83 119//83
f 112//84 121//84 122//84
f 107//85 112//85 105//85
f 115//86 124//86 116//86
f 126//82 117//82 125//82
f 120//83 127//83 128//83
f 122//87 129//87 130//87
f 123//86 21//86 124//86
f 26//88 125//88 24//88
f 128//89 27//89 29//89
f 130//87 30//87 32//87
f 131//90 35//90 132//90
f 107//91 37//91 36//91
f 39//92 36//92 38//92
f 40//93 113//93 41//93
f 134//94 43//94 42//94
f 34//95 42//95 44//95
f 34//96 138//96 35//96
f 38//97 139//97 140//97
f 142//98 39//98 141//98
f 44//99 143//99 144//99
f 137//100 146//100 138//100
f 140//101 147//101 148//101
f 150//102 141//102 149//102
f 144//103 151//103 152//103
f 145//104 47//104 146//104
f 148//105 49//105 48//105
f 51//106 149//106 52//106
f 152//107 55//107 54//107
f 5//108 12//108 2//108
f 75//1 67//1 66//1
f 70//2 71//2 63//2
f 65//3 57//3 64//3
f 59//1 6//1 1//1
f 13//4 73//4 80//4
f 62//2 63//2 10//2
f 116//1 117//1 108//1
f 106//1 108//1 100//1
f 101//2 111//2 114//2
f 61//5 9//5 4//5
f 49//1 147//1 146//1
f 98//6 103//6 135//6
f 99//7 109//7 110//7
f 22//8 123//8 130//8
f 57//3 3//3 11//3
f 69//5 61//5 60//5
f 73//3 65//3 72//3
f 78//2 79//2 71//2
f 91//1 83//1 82//1
f 77//5 69//5 68//5
f 81//9 13//9 20//9
f 85//10 17//10 16//10
f 87//2 19//2 18//2
f 15//1 75//1 74//1
f 17//11 77//11 76//11
f 18//2 19//2 79//2
f 24//1 125//1 124//1
f 82//1 83//1 15//1
f 89//12 81//12 88//12
f 94//2 95//2 87//2
f 97//1 100//1 91//1
f 93//13 85//13 84//13
f 98//12 89//12 96//12
f 104//2 95//2 94//2
f 102//13 93//13 92//13
f 122//14 115//14 105//14
f 121//2 114//2 111//2
f 125//1 117//1 116//1
f 119//15 110//15 109//15
f 123//8 115//8 122//8
f 128//2 129//2 121//2
f 147//1 139//1 138//1
f 127//15 119//15 118//15
f 31//16 28//16 25//16
f 29//2 30//2 129//2
f 33//17 131//17 134//17
f 27//15 127//15 126//15
f 137//18 34//18 44//18
f 141//19 39//19 38//19
f 143//2 43//2 40//2
f 37//1 106//1 132//1
f 41//20 113//20 107//20
f 40//2 43//2 136//2
f 45//21 145//21 152//21
f 138//1 139//1 37//1
f 145//21 137//21 144//21
f 150//2 151//2 143//2
f 149//22 141//22 140//22
f 52//22 149//22 148//22
f 51//2 55//2 151//2
f 67//1 59//1 58//1
f 53//23 50//23 46//23
f 21//44 23//44 25//44
f 26//45 25//45 28//45
f 133//46 135//46 134//46
f 97//109 98//109 133//109
f 7//48 10//48 12//48
f 104//110 136//110 135//110
f 102//111 110//111 111//111
f 9//51 8//51 5//51
f 30//52 29//52 28//52
f 99//112 100//112 108//112
f 6//54 5//54 2//54
f 32//55 31//55 23//55
f 11//56 3//56 2//56
f 45//57 54//57 56//57
f 55//58 51//58 53//58
f 48//59 50//59 53//59
f 47//60 46//60 50//60
f 57//61 58//61 1//61
f 60//62 4//62 6//62
f 7//63 9//63 61//63
f 11//64 10//64 63//64
f 65//61 66//61 58//61
f 68//62 60//62 59//62
f 62//63 61//63 69//63
f 72//64 64//64 63//64
f 73//61 74//61 66//61
f 76//62 68//62 67//62
f 70//63 69//63 77//63
f 80//64 72//64 71//64
f 73//67 13//67 14//67
f 16//113 76//113 75//113
f 78//114 77//114 17//114
f 80//70 79//70 19//70
f 81//71 82//71 14//71
f 16//72 15//72 83//72
f 86//73 18//73 17//73
f 88//74 20//74 19//74
f 89//75 90//75 82//75
f 92//115 84//115 83//115
f 86//116 85//116 93//116
f 96//78 88//78 87//78
f 89//75 98//75 97//75
f 99//76 92//76 91//76
f 94//77 93//77 102//77
f 96//78 95//78 104//78
f 105//81 115//81 116//81
f 109//117 108//117 117//117
f 120//118 111//118 110//118
f 112//84 114//84 121//84
f 107//85 113//85 112//85
f 115//86 123//86 124//86
f 126//82 118//82 117//82
f 120//83 119//83 127//83
f 122//87 121//87 129//87
f 123//86 22//86 21//86
f 26//82 126//82 125//82
f 128//83 127//83 27//83
f 130//87 129//87 30//87
f 131//119 33//119 35//119
f 107//120 106//120 37//120
f 39//92 41//92 36//92
f 40//121 114//121 113//121
f 134//122 136//122 43//122
f 34//95 33//95 42//95
f 34//123 137//123 138//123
f 38//124 37//124 139//124
f 142//125 40//125 39//125
f 44//126 43//126 143//126
f 137//127 145//127 146//127
f 140//128 139//128 147//128
f 150//129 142//129 141//129
f 144//130 143//130 151//130
f 145//131 45//131 47//131
f 148//132 147//132 49//132
f 51//133 150//133 149//133
f 152//134 151//134 55//134
f 5//108 8//108 12//108
