# Blender 4.4.3
# www.blender.org
mtllib patyk_2.mtl
o Vert.007
v -7.196185 0.079336 -0.155157
v -7.281740 -0.028333 -0.030609
v -7.123655 0.079482 0.240464
v -7.247890 -0.028333 0.154027
v -7.123655 0.266067 0.240464
v -7.247890 0.373881 0.154027
v -7.196185 0.266213 -0.155157
v -7.281740 0.373881 -0.030609
v -3.448960 0.006574 -0.908840
v -3.454620 -0.101215 -0.795182
v -3.478154 0.006085 -0.347379
v -3.470965 -0.101215 -0.466963
v -3.478154 0.339464 -0.347379
v -3.470965 0.446763 -0.466963
v -3.454620 0.446763 -0.795182
v -3.448960 0.338974 -0.908840
v -0.151278 -0.028333 0.224203
v -0.139203 0.079621 0.116231
v -0.185561 -0.028333 0.405430
v -0.195496 0.080125 0.514486
v -0.185561 0.373881 0.405430
v -0.195496 0.265423 0.514486
v -0.151278 0.373881 0.224203
v -0.139203 0.265928 0.116231
v 5.651732 0.078923 -0.378845
v 5.770205 -0.028333 -0.284480
v 5.698837 0.078279 0.020785
v 5.792215 -0.028333 -0.097755
v 5.698837 0.267270 0.020785
v 5.792215 0.373881 -0.097755
v 5.651732 0.266626 -0.378845
v 5.770205 0.373881 -0.284480
v 2.028346 -0.028333 1.086484
v 2.099190 0.078279 0.987139
v 1.961424 -0.028333 1.228198
v 1.880026 0.079971 1.324398
v 1.961424 0.373881 1.228198
v 1.880026 0.265577 1.324398
v 2.028346 0.373881 1.086484
v 2.099190 0.267270 0.987139
v 3.309732 0.078279 1.122676
v 3.402221 0.078279 1.240298
v 3.296258 -0.028333 1.228446
v 3.259330 0.079906 1.518666
v 3.272782 -0.028333 1.412896
v 3.378360 0.078279 1.427776
v 3.272782 0.373881 1.412896
v 3.259330 0.265642 1.518666
v 3.378360 0.267270 1.427776
v 3.309732 0.267270 1.122676
v 3.296258 0.373881 1.228446
v 3.402221 0.267270 1.240298
v -3.879072 0.079378 -0.763294
v -3.859757 -0.028333 -0.657935
v -3.825925 -0.028333 -0.473399
v -3.806542 0.079530 -0.367673
v -3.806542 0.266019 -0.367673
v -3.825925 0.373881 -0.473399
v -3.859757 0.373881 -0.657935
v -3.879072 0.266171 -0.763294
v -3.040711 0.079517 -0.722803
v -3.070394 -0.028333 -0.619903
v -3.122370 -0.028333 -0.439719
v -3.152189 0.080112 -0.336346
v -3.152189 0.265436 -0.336346
v -3.122370 0.373881 -0.439719
v -3.070394 0.373881 -0.619903
v -3.040711 0.266031 -0.722803
v 0.821221 0.079831 0.114251
v 0.821221 -0.028333 0.222252
v 0.821221 -0.028333 0.407292
v 0.821221 0.080285 0.516466
v 0.821221 0.265263 0.516466
v 0.821221 0.373881 0.407292
v 0.821221 0.373881 0.222252
v 0.821221 0.265717 0.114251
v 1.150745 -0.140393 0.110153
v 1.049810 0.002244 0.036516
v 1.256862 -0.016023 0.012447
v 1.155846 -0.033107 0.610686
v 1.203910 -0.131782 0.548022
v 1.155846 0.378656 0.610686
v 1.203910 0.477331 0.548022
v 1.049810 0.343305 0.036516
v 1.150745 0.485941 0.110153
v 1.256862 0.361572 0.012447
v 1.847716 0.078948 0.069547
v 1.850533 -0.028333 0.177623
v 1.858418 0.078279 0.480128
v 1.702433 -0.053061 0.391845
v 1.702433 0.398609 0.391845
v 1.858418 0.267270 0.480128
v 1.850533 0.373881 0.177623
v 1.847716 0.266600 0.069547
v 1.583027 -0.028333 0.639127
v 1.478062 0.080172 0.699729
v 1.478062 0.265377 0.699729
v 1.583027 0.373881 0.639127
vn -0.1483 -0.0000 0.9889
vn -0.1406 -0.0000 0.9901
vn 0.0642 -0.9901 0.1245
vn 0.0070 -0.9984 0.0561
vn 0.1008 -0.9946 0.0237
vn -0.0053 -0.0000 -1.0000
vn -0.0123 -0.0000 -0.9999
vn 0.0070 0.9984 0.0561
vn 0.0642 0.9901 0.1245
vn 0.1008 0.9946 0.0237
vn -0.0702 0.9974 0.0189
vn 0.0445 0.9956 -0.0825
vn -0.0702 -0.9974 0.0189
vn -0.1658 -0.9860 0.0161
vn -0.1780 -0.9840 -0.0000
vn -0.1171 -0.0000 -0.9931
vn -0.1803 -0.0000 -0.9836
vn -0.2545 -0.0000 -0.9671
vn 0.9920 -0.0000 0.1263
vn -0.0000 1.0000 -0.0000
vn -0.1073 0.9940 0.0197
vn -0.1006 0.9949 0.0085
vn 0.1803 -0.0000 0.9836
vn 0.0518 -0.0000 0.9987
vn -0.1501 -0.0000 0.9887
vn 0.3505 -0.0000 -0.9366
vn 0.4147 -0.0000 -0.9100
vn -0.0000 -1.0000 -0.0000
vn -0.0056 -1.0000 0.0056
vn 0.1008 0.9947 0.0187
vn 0.0005 0.9999 0.0131
vn 0.1065 0.9938 0.0307
vn 0.0005 -0.9999 0.0131
vn -0.1006 -0.9949 0.0085
vn 0.0011 -1.0000 0.0001
vn -0.0478 -0.0000 0.9989
vn 0.1393 -0.0000 -0.9903
vn 0.1008 -0.9947 0.0187
vn -0.9836 -0.0000 0.1803
vn -0.1788 -0.0000 -0.9839
vn -0.1787 -0.0000 -0.9839
vn -0.0003 1.0000 -0.0038
vn -0.8409 -0.0000 0.5411
vn 0.9033 -0.0000 -0.4290
vn -0.3205 -0.0000 -0.9472
vn -0.2058 -0.0000 -0.9786
vn -0.2687 -0.0000 0.9632
vn -0.2664 -0.0000 0.9639
vn 0.0445 -0.9956 -0.0825
vn -0.0003 -1.0000 -0.0038
vn 0.1113 -0.0000 -0.9938
vn 0.9931 -0.0000 -0.1171
vn 0.1188 -0.0000 0.9929
vn -0.0056 1.0000 0.0056
vn -0.1395 -0.0000 0.9902
vn -0.1658 0.9860 0.0161
vn 0.6402 -0.5803 -0.5034
vn 0.4907 -0.5770 0.6529
vn 0.4907 0.5770 0.6529
vn 0.6402 0.5803 -0.5034
vn -0.1401 -0.6376 -0.7575
vn -0.3486 -0.6129 -0.7091
vn 0.0808 -0.6573 -0.7493
vn -0.3486 0.6129 -0.7091
vn -0.1401 0.6376 -0.7575
vn 0.0808 0.6573 -0.7493
vn 0.7855 -0.0000 0.6188
vn 0.0524 -0.7082 -0.7041
vn 0.0449 -0.7084 -0.7044
vn 0.0524 0.7082 -0.7041
vn -0.5711 -0.0000 0.8209
vn -0.0550 0.5331 0.8442
vn -0.2043 0.5900 0.7811
vn -0.2529 0.6067 0.7537
vn 0.6230 -0.0000 -0.7822
vn -0.0550 -0.5331 0.8442
vn -0.2043 -0.5900 0.7811
vn -0.0589 -0.5296 0.8462
vn -0.8243 -0.0000 -0.5662
vn 0.7861 -0.0000 -0.6181
vn 0.7014 0.7071 0.0893
vn 0.6069 -0.0000 0.7948
vn 0.7014 -0.7071 0.0893
vn -0.1279 -0.7052 -0.6974
vn -0.2364 -0.7008 -0.6731
vn 0.1278 -0.7058 0.6968
vn -0.0296 -0.7062 0.7074
vn -0.0341 -0.6965 0.7168
vn -0.0296 0.7062 0.7074
vn 0.1278 0.7058 0.6968
vn -0.0341 0.6965 0.7168
vn -0.1279 0.7052 -0.6974
vn -0.2364 0.7008 -0.6731
vn -0.2349 0.6994 -0.6751
vn -0.2349 -0.6994 -0.6751
vn -0.3373 -0.6774 -0.6537
vn -0.0325 -0.7285 0.6843
vn -0.0303 -0.7449 0.6665
vn -0.0325 0.7285 0.6843
vn -0.0303 0.7449 0.6665
vn -0.3373 0.6774 -0.6537
vn -0.3365 0.6749 -0.6568
vn 0.3025 -0.6987 -0.6483
vn 0.4032 -0.6767 -0.6161
vn 0.4026 -0.6741 -0.6192
vn -0.0386 -0.7045 0.7086
vn -0.0349 -0.6946 0.7186
vn -0.0386 0.7045 0.7086
vn -0.0349 0.6946 0.7186
vn 0.3025 0.6987 -0.6483
vn 0.4032 0.6767 -0.6161
vn 0.3038 0.7001 -0.6462
vn 0.0996 -0.7092 -0.6980
vn 0.3038 -0.7001 -0.6462
vn -0.1014 -0.7100 0.6969
vn -0.0969 -0.7101 0.6974
vn -0.1014 0.7100 0.6969
vn -0.0969 0.7101 0.6974
vn 0.0996 0.7092 -0.6980
vn 0.0970 0.7092 -0.6983
vn -0.2227 -0.6888 -0.6899
vn 0.0970 -0.7092 -0.6983
vn -0.2036 -0.6941 0.6905
vn -0.2028 -0.6919 0.6929
vn -0.2036 0.6941 0.6905
vn -0.2028 0.6919 0.6929
vn -0.2227 0.6888 -0.6899
vn -0.2228 0.6888 -0.6898
vn -0.2228 -0.6888 -0.6898
vn -0.2529 -0.6067 0.7537
vn -0.0827 -0.7082 -0.7012
vn 0.0958 -0.6326 0.7686
vn 0.0845 -0.7039 0.7052
vn 0.0840 -0.7071 0.7021
vn 0.0845 0.7039 0.7052
vn 0.0958 0.6326 0.7686
vn 0.0840 0.7071 0.7021
vn -0.0827 0.7082 -0.7012
vn 0.7019 -0.6415 -0.3095
vn 0.6543 -0.6920 -0.3050
vn 0.7089 -0.6335 -0.3101
vn -0.5616 -0.7445 0.3608
vn -0.5622 -0.7439 0.3615
vn -0.5623 -0.7437 0.3616
vn -0.5622 0.7439 0.3615
vn -0.5616 0.7445 0.3608
vn -0.5623 0.7437 0.3616
vn 0.7019 0.6415 -0.3095
vn 0.6543 0.6920 -0.3050
vn 0.6387 0.7071 -0.3033
vn 0.0787 -0.7071 -0.7027
vn -0.0994 -0.7017 0.7055
vn -0.0994 -0.7015 0.7057
vn -0.0994 0.7015 0.7057
vn -0.0994 0.7017 0.7055
vn 0.0787 0.7071 -0.7027
vn -0.1073 -0.9940 0.0197
vn 0.0011 1.0000 0.0001
vn 0.1065 -0.9938 0.0307
vn -0.1780 0.9840 -0.0000
vn 0.0449 0.7084 -0.7044
vn -0.0589 0.5296 0.8462
vn -0.3365 -0.6749 -0.6568
vn 0.4026 0.6741 -0.6192
vn 0.0959 -0.6313 0.7696
vn 0.0959 0.6313 0.7696
vn 0.6387 -0.7071 -0.3033
vn -0.5615 -0.7447 0.3607
vn -0.5615 0.7447 0.3607
vn 0.7089 0.6335 -0.3101
vt 0.847474 0.294347
vt 0.699590 0.187918
vt 0.847654 0.112299
vt 0.413424 0.845977
vt 0.431146 0.803439
vt 0.508717 0.869208
vt 0.613209 0.779334
vt 0.542356 0.712315
vt 0.613209 0.714171
vt 0.441042 0.673031
vt 0.424924 0.630547
vt 0.522372 0.617518
vt 0.514169 0.691914
vt 0.595819 0.661925
vt 0.506510 0.795182
vt 0.458861 0.764490
vt 0.480009 0.761946
vt 0.227697 0.617166
vt 0.264659 0.458631
vt 0.355499 0.583890
vt 0.212432 0.796887
vt 0.372742 0.896300
vt 0.205161 0.819817
vt 0.181048 0.159110
vt 0.199458 0.173476
vt 0.182437 0.171996
vt 0.195808 0.791618
vt 0.106129 0.617518
vt 0.272578 0.620818
vt 0.153354 0.815717
vt 0.001063 0.721925
vt 0.160395 0.797202
vt 0.652532 0.196317
vt 0.695782 0.229063
vt 0.647824 0.208822
vt 0.535776 0.518028
vt 0.494946 0.478761
vt 0.538508 0.497217
vt 0.258403 0.085219
vt 0.308348 0.149039
vt 0.210624 0.156795
vt 0.549899 0.485480
vt 0.573966 0.443548
vt 0.570166 0.484370
vt 0.571882 0.573066
vt 0.497936 0.609731
vt 0.506189 0.558684
vt 0.650550 0.466769
vt 0.646066 0.555308
vt 0.610805 0.545342
vt 0.438803 0.112910
vt 0.585655 0.229423
vt 0.439184 0.291014
vt 0.546521 0.530625
vt 0.170262 0.818335
vt 0.187739 0.824895
vt 0.638557 0.140033
vt 0.736250 0.000176
vt 0.683804 0.157412
vt 0.620378 0.260326
vt 0.639180 0.214972
vt 0.670969 0.256374
vt 0.621655 0.204092
vt 0.587806 0.164884
vt 0.626200 0.192766
vt 0.106390 0.566270
vt 0.229107 0.431546
vt 0.240394 0.444603
vt 0.146174 0.075630
vt 0.215271 0.000176
vt 0.202666 0.064259
vt 0.255037 0.228595
vt 0.129627 0.300733
vt 0.150683 0.254125
vt 0.490225 0.533649
vt 0.438803 0.465506
vt 0.514540 0.769784
vt 0.494743 0.732993
vt 0.519386 0.718340
vt 0.412386 0.776590
vt 0.373094 0.781789
vt 0.375897 0.692786
vt 0.438451 0.481449
vt 0.269020 0.428969
vt 0.438451 0.251594
vt 0.200358 0.185251
vt 0.182328 0.181241
vt 0.264318 0.444088
vt 0.499337 0.405785
vt 0.591334 0.405785
vt 0.301964 0.255651
vt 0.237861 0.418427
vt 0.075327 0.177034
vt 0.004331 0.153452
vt 0.104400 0.109558
vt 0.178901 0.148370
vt 0.198127 0.148897
vt 0.462195 0.716189
vt 0.212618 0.173986
vt 0.198120 0.159323
vt 0.168357 0.159887
vt 0.168193 0.177082
vt 0.536567 0.778343
vt 0.255636 0.421918
vt 0.588775 0.830928
vt 0.422395 0.695583
vt 0.246278 0.457702
vt 0.271294 0.998492
vt 0.099768 0.999824
vt 0.000176 0.896342
vt 0.372742 0.724881
vt 0.442887 0.554144
vt 0.587183 0.611683
vt 0.608629 0.469319
vt 0.509518 0.455398
vt 0.567411 0.533314
vt 0.578504 0.520406
vt 0.580870 0.497399
vt 0.547920 0.402518
vt 0.551590 0.000176
vt 0.626986 0.212502
vt 0.645812 0.187968
vt 0.633689 0.186166
vt 0.491346 0.751781
vt 0.484876 0.720836
vt 0.086526 0.036208
vt 0.176894 0.796323
vt 0.342796 0.065055
vt 0.733079 0.405433
vt 0.000176 0.368969
vt 0.449894 0.728038
vt 0.449208 0.751102
s 1
usemtl patyk_2
f 64/1/1 22/2/2 65/3/1
f 95/4/3 81/5/4 90/6/5
f 87/7/6 86/8/7 94/9/6
f 83/10/8 98/11/9 91/12/10
f 85/13/11 91/12/10 93/14/12
f 77/15/13 71/16/14 70/17/15
f 94/18/6 25/19/16 87/20/6
f 7/21/17 53/22/18 1/23/17
f 49/24/19 42/25/19 52/26/19
f 8/27/20 58/28/21 59/29/22
f 3/30/23 57/31/24 5/32/23
f 73/33/25 20/34/2 72/35/25
f 61/36/26 16/37/27 68/38/26
f 35/39/28 33/40/29 45/41/28
f 67/42/30 14/43/31 66/44/32
f 12/45/33 54/46/34 10/47/35
f 57/48/24 56/49/24 11/50/36
f 68/51/26 18/52/37 61/53/26
f 62/54/38 12/45/33 10/47/35
f 4/55/39 8/27/39 2/56/39
f 23/57/20 66/58/32 21/59/20
f 17/60/28 71/61/14 19/62/28
f 69/63/40 24/64/37 76/65/41
f 93/66/12 30/67/42 32/68/20
f 38/69/43 96/70/43 36/71/43
f 34/72/44 92/73/44 40/74/44
f 9/75/45 60/76/18 16/37/45
f 78/77/46 76/78/41 84/79/46
f 77/15/13 90/6/5 81/5/4
f 80/80/47 96/81/48 97/82/48
f 88/83/49 28/84/50 90/85/5
f 41/86/51 40/74/51 50/87/51
f 30/67/52 26/88/52 32/68/52
f 14/43/31 59/89/22 58/90/21
f 89/91/53 29/92/53 92/73/53
f 39/93/54 98/94/9 37/95/20
f 48/96/55 36/71/55 44/97/55
f 85/13/11 74/98/56 83/10/8
f 41/86/57 42/25/57 43/99/57
f 44/97/58 45/41/58 46/100/58
f 47/101/59 48/96/59 49/24/59
f 50/87/60 51/102/60 52/26/60
f 77/15/61 78/77/62 79/103/63
f 84/79/64 85/13/65 86/8/66
f 27/104/67 30/67/67 29/92/67
f 88/105/68 79/103/63 87/7/69
f 84/79/46 79/103/7 78/77/46
f 93/14/70 86/8/66 85/13/65
f 5/32/71 4/55/71 3/30/71
f 97/82/72 83/10/73 82/106/74
f 31/107/75 26/88/75 25/19/75
f 96/81/76 81/5/77 95/4/78
f 1/23/79 8/27/79 7/21/79
f 50/87/80 42/25/80 41/86/80
f 51/102/81 49/24/81 52/26/81
f 48/96/82 46/100/82 49/24/82
f 43/99/83 46/100/83 45/41/83
f 1/23/84 54/108/85 2/56/84
f 3/30/86 55/109/87 56/110/88
f 58/28/89 5/32/90 57/31/91
f 7/21/92 59/29/93 60/111/94
f 53/112/95 10/47/96 54/46/85
f 11/50/97 55/113/87 12/45/98
f 58/90/89 13/114/99 14/43/100
f 60/76/94 15/115/101 16/37/102
f 61/36/103 10/47/104 9/75/105
f 11/50/97 63/116/106 64/117/107
f 66/44/108 13/114/99 65/118/109
f 68/38/110 15/115/111 67/42/112
f 18/52/113 62/119/114 61/53/103
f 64/1/107 19/62/115 20/34/116
f 21/59/117 65/3/109 22/2/118
f 24/64/119 67/120/112 23/57/120
f 18/52/113 70/121/121 17/60/122
f 72/35/123 19/62/115 71/61/124
f 21/59/117 73/33/125 74/122/126
f 24/64/119 75/123/127 76/65/128
f 78/77/62 70/17/121 69/124/129
f 80/80/130 71/16/124 81/5/77
f 74/98/126 82/106/74 83/10/73
f 84/79/64 75/125/127 85/13/65
f 25/19/131 88/83/68 87/20/69
f 89/91/132 28/84/133 27/104/134
f 30/67/135 92/73/136 29/92/137
f 31/107/138 93/66/70 32/68/138
f 89/91/139 33/40/140 90/85/141
f 96/70/142 35/39/143 36/71/144
f 37/95/145 97/126/146 38/69/147
f 92/73/148 39/93/149 40/74/150
f 34/72/151 43/99/151 33/40/151
f 44/97/152 35/39/153 45/41/152
f 37/95/154 48/96/155 47/101/155
f 40/74/156 51/102/156 50/87/156
f 2/56/28 55/109/157 4/55/28
f 64/1/1 20/34/2 22/2/2
f 87/7/6 79/103/7 86/8/7
f 85/13/11 83/10/8 91/12/10
f 77/15/13 81/5/4 71/16/14
f 94/18/6 31/107/16 25/19/16
f 7/21/17 60/111/18 53/22/18
f 49/24/19 46/100/19 42/25/19
f 8/27/20 6/127/20 58/28/21
f 3/30/23 56/110/24 57/31/24
f 73/33/25 22/2/2 20/34/2
f 61/36/26 9/75/27 16/37/27
f 35/39/28 95/128/3 33/40/29
f 95/128/3 90/85/5 33/40/29
f 33/40/29 43/99/28 45/41/28
f 67/42/30 15/115/158 14/43/31
f 12/45/33 55/113/157 54/46/34
f 11/50/36 64/117/1 65/118/1
f 65/118/1 13/114/36 11/50/36
f 13/114/36 57/48/24 11/50/36
f 68/51/26 24/64/37 18/52/37
f 62/54/38 63/116/159 12/45/33
f 4/55/39 6/127/39 8/27/39
f 23/57/20 67/120/30 66/58/32
f 21/59/20 74/122/56 23/57/20
f 74/122/56 75/123/160 23/57/20
f 19/62/28 63/129/159 17/60/28
f 63/129/159 62/119/38 17/60/28
f 17/60/28 70/121/15 71/61/14
f 69/63/40 18/52/37 24/64/37
f 93/66/12 91/130/10 30/67/42
f 38/69/43 97/126/43 96/70/43
f 34/72/44 89/91/44 92/73/44
f 9/75/45 53/112/18 60/76/18
f 78/77/46 69/124/40 76/78/41
f 77/15/13 88/105/49 90/6/5
f 97/82/48 82/106/47 80/80/47
f 82/106/47 73/131/25 80/80/47
f 73/131/25 72/132/25 80/80/47
f 88/83/49 26/88/28 28/84/50
f 41/86/51 34/72/51 40/74/51
f 30/67/52 28/84/52 26/88/52
f 14/43/31 15/115/158 59/89/22
f 89/91/53 27/104/53 29/92/53
f 39/93/54 91/130/10 98/94/9
f 37/95/20 47/101/20 39/93/54
f 47/101/20 51/102/20 39/93/54
f 48/96/55 38/69/55 36/71/55
f 85/13/11 75/125/160 74/98/56
f 27/104/67 28/84/67 30/67/67
f 88/105/68 77/15/61 79/103/63
f 84/79/46 86/8/7 79/103/7
f 93/14/70 94/9/161 86/8/66
f 5/32/71 6/127/71 4/55/71
f 97/82/72 98/11/162 83/10/73
f 31/107/75 32/68/75 26/88/75
f 96/81/76 80/80/130 81/5/77
f 1/23/79 2/56/79 8/27/79
f 50/87/80 52/26/80 42/25/80
f 51/102/81 47/101/81 49/24/81
f 48/96/82 44/97/82 46/100/82
f 43/99/83 42/25/83 46/100/83
f 1/23/84 53/22/95 54/108/85
f 3/30/86 4/55/86 55/109/87
f 58/28/89 6/127/90 5/32/90
f 7/21/92 8/27/92 59/29/93
f 53/112/95 9/75/163 10/47/96
f 11/50/97 56/49/88 55/113/87
f 58/90/89 57/48/91 13/114/99
f 60/76/94 59/89/93 15/115/101
f 61/36/103 62/54/114 10/47/104
f 11/50/97 12/45/98 63/116/106
f 66/44/108 14/43/100 13/114/99
f 68/38/110 16/37/164 15/115/111
f 18/52/113 17/60/122 62/119/114
f 64/1/107 63/129/106 19/62/115
f 21/59/117 66/58/108 65/3/109
f 24/64/119 68/51/110 67/120/112
f 18/52/113 69/63/129 70/121/121
f 72/35/123 20/34/116 19/62/115
f 21/59/117 22/2/118 73/33/125
f 24/64/119 23/57/120 75/123/127
f 78/77/62 77/15/61 70/17/121
f 80/80/130 72/132/123 71/16/124
f 74/98/126 73/131/125 82/106/74
f 84/79/64 76/78/128 75/125/127
f 25/19/131 26/88/131 88/83/68
f 89/91/132 90/85/165 28/84/133
f 30/67/135 91/130/166 92/73/136
f 31/107/138 94/18/161 93/66/70
f 89/91/139 34/72/167 33/40/140
f 96/70/142 95/128/168 35/39/143
f 37/95/145 98/94/169 97/126/146
f 92/73/148 91/130/170 39/93/149
f 34/72/151 41/86/151 43/99/151
f 44/97/152 36/71/153 35/39/153
f 37/95/154 38/69/154 48/96/155
f 40/74/156 39/93/156 51/102/156
f 2/56/28 54/108/34 55/109/157
