# Blender 4.4.3
# www.blender.org
mtllib patyk_2.2.mtl
o Vert.007
v -1.466116 0.048053 -0.027338
v -1.488334 0.020093 0.005006
v -1.447281 0.048091 0.075401
v -1.479544 0.020093 0.052954
v -1.447281 0.096546 0.075401
v -1.479544 0.124544 0.052954
v -1.466116 0.096583 -0.027338
v -1.488334 0.124544 0.005006
v -0.492998 0.029158 -0.223062
v -0.494467 0.001166 -0.193546
v -0.500579 0.029031 -0.077256
v -0.498712 0.001166 -0.108311
v -0.500579 0.115606 -0.077256
v -0.498712 0.143471 -0.108311
v -0.494467 0.143471 -0.193546
v -0.492998 0.115479 -0.223062
v 0.363379 0.020093 0.071178
v 0.366515 0.048127 0.043139
v 0.354476 0.020093 0.118241
v 0.351896 0.048258 0.146562
v 0.354476 0.124544 0.118241
v 0.351896 0.096378 0.146562
v 0.363379 0.124544 0.071178
v 0.366515 0.096509 0.043139
v 1.870366 0.047946 -0.085428
v 1.901132 0.020093 -0.060922
v 1.882599 0.047779 0.018353
v 1.906848 0.020093 -0.012431
v 1.882599 0.096858 0.018353
v 1.906848 0.124544 -0.012431
v 1.870366 0.096691 -0.085428
v 1.901132 0.124544 -0.060922
v 0.929407 0.020093 0.295105
v 0.947804 0.047779 0.269306
v 0.912028 0.020093 0.331906
v 0.890889 0.048218 0.356888
v 0.912028 0.124544 0.331906
v 0.890889 0.096418 0.356888
v 0.929407 0.124544 0.295105
v 0.947804 0.096858 0.269306
v 1.262171 0.047779 0.304503
v 1.286189 0.047779 0.335048
v 1.258672 0.020093 0.331971
v 1.249082 0.048201 0.407338
v 1.252575 0.020093 0.379871
v 1.279993 0.047779 0.383735
v 1.252575 0.124544 0.379871
v 1.249082 0.096435 0.407338
v 1.279993 0.096858 0.383735
v 1.262171 0.096858 0.304503
v 1.258672 0.124544 0.331971
v 1.286189 0.096858 0.335048
v -0.604694 0.048064 -0.185265
v -0.599678 0.020093 -0.157904
v -0.590892 0.020093 -0.109982
v -0.585858 0.048104 -0.082526
v -0.585858 0.096533 -0.082526
v -0.590892 0.124544 -0.109982
v -0.599678 0.124544 -0.157904
v -0.604694 0.096572 -0.185265
v -0.386979 0.048100 -0.174750
v -0.394688 0.020093 -0.148028
v -0.408185 0.020093 -0.101236
v -0.415929 0.048255 -0.074391
v -0.415929 0.096382 -0.074391
v -0.408185 0.124544 -0.101236
v -0.394688 0.124544 -0.148028
v -0.386979 0.096536 -0.174750
v 0.615928 0.048182 0.042625
v 0.615928 0.020093 0.070672
v 0.615928 0.020093 0.118725
v 0.615928 0.048300 0.147076
v 0.615928 0.096337 0.147076
v 0.615928 0.124544 0.118725
v 0.615928 0.124544 0.070672
v 0.615928 0.096455 0.042625
v 0.701502 -0.009008 0.041561
v 0.675290 0.028033 0.022438
v 0.729060 0.023289 0.016187
v 0.702827 0.018853 0.171544
v 0.715309 -0.006772 0.155271
v 0.702827 0.125784 0.171544
v 0.715309 0.151409 0.155271
v 0.675290 0.116604 0.022438
v 0.701502 0.153645 0.041561
v 0.729060 0.121347 0.016187
v 0.882499 0.047953 0.031016
v 0.883230 0.020093 0.059082
v 0.885278 0.047779 0.137640
v 0.844770 0.013671 0.114713
v 0.844770 0.130966 0.114713
v 0.885278 0.096858 0.137640
v 0.883230 0.124544 0.059082
v 0.882499 0.096684 0.031016
v 0.813762 0.020093 0.178930
v 0.786503 0.048270 0.194668
v 0.786503 0.096366 0.194668
v 0.813762 0.124544 0.178930
vn -0.1483 -0.0000 0.9889
vn -0.1406 -0.0000 0.9901
vn 0.0642 -0.9901 0.1245
vn 0.0070 -0.9984 0.0561
vn 0.1008 -0.9946 0.0237
vn -0.0053 -0.0000 -1.0000
vn -0.0123 -0.0000 -0.9999
vn 0.0070 0.9984 0.0561
vn 0.0642 0.9901 0.1245
vn 0.1008 0.9946 0.0237
vn -0.0702 0.9974 0.0189
vn 0.0445 0.9956 -0.0825
vn -0.0702 -0.9974 0.0189
vn -0.1658 -0.9860 0.0161
vn -0.1780 -0.9840 -0.0000
vn -0.1171 -0.0000 -0.9931
vn -0.1803 -0.0000 -0.9836
vn -0.2545 -0.0000 -0.9671
vn 0.9920 -0.0000 0.1263
vn -0.0000 1.0000 -0.0000
vn -0.1073 0.9940 0.0197
vn -0.1006 0.9949 0.0085
vn 0.1803 -0.0000 0.9836
vn 0.0518 -0.0000 0.9987
vn -0.1501 -0.0000 0.9887
vn 0.3505 -0.0000 -0.9366
vn 0.4147 -0.0000 -0.9100
vn -0.0000 -1.0000 -0.0000
vn -0.0056 -1.0000 0.0056
vn 0.1008 0.9947 0.0187
vn 0.0005 0.9999 0.0131
vn 0.1065 0.9938 0.0307
vn 0.0005 -0.9999 0.0131
vn -0.1006 -0.9949 0.0085
vn 0.0011 -1.0000 0.0001
vn -0.0478 -0.0000 0.9989
vn 0.1393 -0.0000 -0.9903
vn 0.1008 -0.9947 0.0187
vn -0.9836 -0.0000 0.1803
vn -0.1788 -0.0000 -0.9839
vn -0.1787 -0.0000 -0.9839
vn -0.0003 1.0000 -0.0038
vn -0.8409 -0.0000 0.5411
vn 0.9033 -0.0000 -0.4290
vn -0.3205 -0.0000 -0.9472
vn -0.2058 -0.0000 -0.9786
vn -0.2687 -0.0000 0.9632
vn -0.2664 -0.0000 0.9639
vn 0.0445 -0.9956 -0.0825
vn -0.0003 -1.0000 -0.0038
vn 0.1113 -0.0000 -0.9938
vn 0.9931 -0.0000 -0.1171
vn 0.1188 -0.0000 0.9929
vn -0.0056 1.0000 0.0056
vn -0.1395 -0.0000 0.9902
vn -0.1658 0.9860 0.0161
vn 0.6402 -0.5803 -0.5034
vn 0.4907 -0.5770 0.6529
vn 0.4907 0.5770 0.6529
vn 0.6402 0.5803 -0.5034
vn -0.1401 -0.6376 -0.7575
vn -0.3486 -0.6129 -0.7091
vn 0.0808 -0.6573 -0.7493
vn -0.3486 0.6129 -0.7091
vn -0.1401 0.6376 -0.7575
vn 0.0808 0.6573 -0.7493
vn 0.7855 -0.0000 0.6188
vn 0.0524 -0.7082 -0.7041
vn 0.0449 -0.7084 -0.7044
vn 0.0524 0.7082 -0.7041
vn -0.5711 -0.0000 0.8209
vn -0.0550 0.5331 0.8442
vn -0.2043 0.5900 0.7811
vn -0.2529 0.6067 0.7537
vn 0.6230 -0.0000 -0.7822
vn -0.0550 -0.5331 0.8442
vn -0.2043 -0.5900 0.7811
vn -0.0589 -0.5296 0.8462
vn -0.8243 -0.0000 -0.5662
vn 0.7861 -0.0000 -0.6181
vn 0.7014 0.7071 0.0893
vn 0.6069 -0.0000 0.7948
vn 0.7014 -0.7071 0.0893
vn -0.1279 -0.7052 -0.6974
vn -0.2364 -0.7008 -0.6731
vn 0.1278 -0.7058 0.6968
vn -0.0296 -0.7062 0.7074
vn -0.0341 -0.6965 0.7168
vn -0.0296 0.7062 0.7074
vn 0.1278 0.7058 0.6968
vn -0.0341 0.6965 0.7168
vn -0.1279 0.7052 -0.6974
vn -0.2364 0.7008 -0.6731
vn -0.2349 0.6994 -0.6751
vn -0.2349 -0.6994 -0.6751
vn -0.3373 -0.6774 -0.6537
vn -0.0325 -0.7285 0.6843
vn -0.0303 -0.7449 0.6665
vn -0.0325 0.7285 0.6843
vn -0.0303 0.7449 0.6665
vn -0.3373 0.6774 -0.6537
vn -0.3365 0.6749 -0.6568
vn 0.3025 -0.6987 -0.6483
vn 0.4032 -0.6767 -0.6161
vn 0.4026 -0.6741 -0.6192
vn -0.0386 -0.7045 0.7086
vn -0.0349 -0.6946 0.7186
vn -0.0386 0.7045 0.7086
vn -0.0349 0.6946 0.7186
vn 0.3025 0.6987 -0.6483
vn 0.4032 0.6767 -0.6161
vn 0.3038 0.7001 -0.6462
vn 0.0996 -0.7092 -0.6980
vn 0.3038 -0.7001 -0.6462
vn -0.1014 -0.7100 0.6969
vn -0.0969 -0.7101 0.6974
vn -0.1014 0.7100 0.6969
vn -0.0969 0.7101 0.6974
vn 0.0996 0.7092 -0.6980
vn 0.0970 0.7092 -0.6983
vn -0.2227 -0.6888 -0.6899
vn 0.0970 -0.7092 -0.6983
vn -0.2036 -0.6941 0.6905
vn -0.2028 -0.6919 0.6929
vn -0.2036 0.6941 0.6905
vn -0.2028 0.6919 0.6929
vn -0.2227 0.6888 -0.6899
vn -0.2228 0.6888 -0.6898
vn -0.2228 -0.6888 -0.6898
vn -0.2529 -0.6067 0.7537
vn -0.0827 -0.7082 -0.7012
vn 0.0958 -0.6326 0.7686
vn 0.0845 -0.7039 0.7052
vn 0.0840 -0.7071 0.7021
vn 0.0845 0.7039 0.7052
vn 0.0958 0.6326 0.7686
vn 0.0840 0.7071 0.7021
vn -0.0827 0.7082 -0.7012
vn 0.7019 -0.6415 -0.3095
vn 0.6543 -0.6920 -0.3050
vn 0.7089 -0.6335 -0.3101
vn -0.5616 -0.7445 0.3608
vn -0.5622 -0.7439 0.3615
vn -0.5623 -0.7437 0.3616
vn -0.5622 0.7439 0.3615
vn -0.5616 0.7445 0.3608
vn -0.5623 0.7437 0.3616
vn 0.7019 0.6415 -0.3095
vn 0.6543 0.6920 -0.3050
vn 0.6387 0.7071 -0.3033
vn 0.0787 -0.7071 -0.7027
vn -0.0994 -0.7017 0.7055
vn -0.0994 -0.7015 0.7057
vn -0.0994 0.7015 0.7057
vn -0.0994 0.7017 0.7055
vn 0.0787 0.7071 -0.7027
vn -0.1073 -0.9940 0.0197
vn 0.0011 1.0000 0.0001
vn 0.1065 -0.9938 0.0307
vn -0.1780 0.9840 -0.0000
vn 0.0449 0.7084 -0.7044
vn -0.0589 0.5296 0.8462
vn -0.3365 -0.6749 -0.6568
vn 0.4026 0.6741 -0.6192
vn 0.0959 -0.6313 0.7696
vn 0.0959 0.6313 0.7696
vn 0.6387 -0.7071 -0.3033
vn -0.5615 -0.7447 0.3607
vn -0.5615 0.7447 0.3607
vn 0.7089 0.6335 -0.3101
s 1
usemtl drewno
f 64//1 22//2 65//1
f 95//3 81//4 90//5
f 87//6 86//7 94//6
f 83//8 98//9 91//10
f 85//11 91//10 93//12
f 77//13 71//14 70//15
f 94//6 25//16 87//6
f 7//17 53//18 1//17
f 49//19 42//19 52//19
f 8//20 58//21 59//22
f 3//23 57//24 5//23
f 73//25 20//2 72//25
f 61//26 16//27 68//26
f 35//28 33//29 45//28
f 67//30 14//31 66//32
f 12//33 54//34 10//35
f 57//24 56//24 11//36
f 68//26 18//37 61//26
f 62//38 12//33 10//35
f 4//39 8//39 2//39
f 23//20 66//32 21//20
f 17//28 71//14 19//28
f 69//40 24//37 76//41
f 93//12 30//42 32//20
f 38//43 96//43 36//43
f 34//44 92//44 40//44
f 9//45 60//18 16//45
f 78//46 76//41 84//46
f 77//13 90//5 81//4
f 80//47 96//48 97//48
f 88//49 28//50 90//5
f 41//51 40//51 50//51
f 30//52 26//52 32//52
f 14//31 59//22 58//21
f 89//53 29//53 92//53
f 39//54 98//9 37//20
f 48//55 36//55 44//55
f 85//11 74//56 83//8
f 41//57 42//57 43//57
f 44//58 45//58 46//58
f 47//59 48//59 49//59
f 50//60 51//60 52//60
f 77//61 78//62 79//63
f 84//64 85//65 86//66
f 27//67 30//67 29//67
f 88//68 79//63 87//69
f 84//46 79//7 78//46
f 93//70 86//66 85//65
f 5//71 4//71 3//71
f 97//72 83//73 82//74
f 31//75 26//75 25//75
f 96//76 81//77 95//78
f 1//79 8//79 7//79
f 50//80 42//80 41//80
f 51//81 49//81 52//81
f 48//82 46//82 49//82
f 43//83 46//83 45//83
f 1//84 54//85 2//84
f 3//86 55//87 56//88
f 58//89 5//90 57//91
f 7//92 59//93 60//94
f 53//95 10//96 54//85
f 11//97 55//87 12//98
f 58//89 13//99 14//100
f 60//94 15//101 16//102
f 61//103 10//104 9//105
f 11//97 63//106 64//107
f 66//108 13//99 65//109
f 68//110 15//111 67//112
f 18//113 62//114 61//103
f 64//107 19//115 20//116
f 21//117 65//109 22//118
f 24//119 67//112 23//120
f 18//113 70//121 17//122
f 72//123 19//115 71//124
f 21//117 73//125 74//126
f 24//119 75//127 76//128
f 78//62 70//121 69//129
f 80//130 71//124 81//77
f 74//126 82//74 83//73
f 84//64 75//127 85//65
f 25//131 88//68 87//69
f 89//132 28//133 27//134
f 30//135 92//136 29//137
f 31//138 93//70 32//138
f 89//139 33//140 90//141
f 96//142 35//143 36//144
f 37//145 97//146 38//147
f 92//148 39//149 40//150
f 34//151 43//151 33//151
f 44//152 35//153 45//152
f 37//154 48//155 47//155
f 40//156 51//156 50//156
f 2//28 55//157 4//28
f 64//1 20//2 22//2
f 87//6 79//7 86//7
f 85//11 83//8 91//10
f 77//13 81//4 71//14
f 94//6 31//16 25//16
f 7//17 60//18 53//18
f 49//19 46//19 42//19
f 8//20 6//20 58//21
f 3//23 56//24 57//24
f 73//25 22//2 20//2
f 61//26 9//27 16//27
f 35//28 95//3 33//29
f 95//3 90//5 33//29
f 33//29 43//28 45//28
f 67//30 15//158 14//31
f 12//33 55//157 54//34
f 11//36 64//1 65//1
f 65//1 13//36 11//36
f 13//36 57//24 11//36
f 68//26 24//37 18//37
f 62//38 63//159 12//33
f 4//39 6//39 8//39
f 23//20 67//30 66//32
f 21//20 74//56 23//20
f 74//56 75//160 23//20
f 19//28 63//159 17//28
f 63//159 62//38 17//28
f 17//28 70//15 71//14
f 69//40 18//37 24//37
f 93//12 91//10 30//42
f 38//43 97//43 96//43
f 34//44 89//44 92//44
f 9//45 53//18 60//18
f 78//46 69//40 76//41
f 77//13 88//49 90//5
f 97//48 82//47 80//47
f 82//47 73//25 80//47
f 73//25 72//25 80//47
f 88//49 26//28 28//50
f 41//51 34//51 40//51
f 30//52 28//52 26//52
f 14//31 15//158 59//22
f 89//53 27//53 29//53
f 39//54 91//10 98//9
f 37//20 47//20 39//54
f 47//20 51//20 39//54
f 48//55 38//55 36//55
f 85//11 75//160 74//56
f 27//67 28//67 30//67
f 88//68 77//61 79//63
f 84//46 86//7 79//7
f 93//70 94//161 86//66
f 5//71 6//71 4//71
f 97//72 98//162 83//73
f 31//75 32//75 26//75
f 96//76 80//130 81//77
f 1//79 2//79 8//79
f 50//80 52//80 42//80
f 51//81 47//81 49//81
f 48//82 44//82 46//82
f 43//83 42//83 46//83
f 1//84 53//95 54//85
f 3//86 4//86 55//87
f 58//89 6//90 5//90
f 7//92 8//92 59//93
f 53//95 9//163 10//96
f 11//97 56//88 55//87
f 58//89 57//91 13//99
f 60//94 59//93 15//101
f 61//103 62//114 10//104
f 11//97 12//98 63//106
f 66//108 14//100 13//99
f 68//110 16//164 15//111
f 18//113 17//122 62//114
f 64//107 63//106 19//115
f 21//117 66//108 65//109
f 24//119 68//110 67//112
f 18//113 69//129 70//121
f 72//123 20//116 19//115
f 21//117 22//118 73//125
f 24//119 23//120 75//127
f 78//62 77//61 70//121
f 80//130 72//123 71//124
f 74//126 73//125 82//74
f 84//64 76//128 75//127
f 25//131 26//131 88//68
f 89//132 90//165 28//133
f 30//135 91//166 92//136
f 31//138 94//161 93//70
f 89//139 34//167 33//140
f 96//142 95//168 35//143
f 37//145 98//169 97//146
f 92//148 91//170 39//149
f 34//151 41//151 43//151
f 44//152 36//153 35//153
f 37//154 38//154 48//155
f 40//156 39//156 51//156
f 2//28 54//34 55//157
