# Blender 4.4.3
# www.blender.org
mtllib waza_2.2.mtl
o Vert.001
v 0.133345 -0.012476 -0.067051
v 0.071516 0.038111 -0.067051
v 0.068706 0.105560 -0.067051
v 0.105241 0.161768 -0.067051
v -0.285404 1.255011 -0.067051
v -0.212802 1.393189 -0.067050
v -0.116780 1.423635 -0.067050
v -0.098044 1.479843 -0.067050
v -0.156594 1.554787 -0.067050
v -0.152024 1.608652 -0.067050
v 0.070580 1.548041 -0.067050
v 0.140839 1.685938 -0.067050
v -0.073910 1.536883 -0.067050
v -0.106011 1.607209 -0.067050
v 0.095476 0.038111 0.053404
v 0.092880 0.105560 0.054480
v 0.126634 0.161768 0.040498
v -0.234275 1.255011 0.189992
v -0.167199 1.393189 0.162208
v -0.078487 1.423635 0.125462
v -0.061177 1.479843 0.118293
v -0.115270 1.554787 0.140699
v -0.111048 1.608652 0.138950
v 0.094611 1.548041 0.053763
v 0.159523 1.685938 0.026876
v -0.038880 1.536883 0.109057
v -0.068537 1.607209 0.121341
v 0.207428 -0.012476 0.111802
v 0.163709 0.038111 0.155521
v 0.161721 0.105560 0.157508
v 0.187556 0.161768 0.131674
v -0.088672 1.255011 0.407902
v -0.037334 1.393189 0.356565
v 0.030563 1.423635 0.288667
v 0.043812 1.479843 0.275419
v 0.002411 1.554787 0.316820
v 0.005642 1.608652 0.313588
v 0.163046 1.548041 0.156184
v 0.212728 1.685938 0.106503
v 0.060877 1.536883 0.258354
v 0.038178 1.607209 0.281052
v 0.265826 0.038111 0.223753
v 0.264750 0.105560 0.226350
v 0.278731 0.161768 0.192596
v 0.129238 1.255011 0.553505
v 0.157022 1.393189 0.486429
v 0.193768 1.423635 0.397717
v 0.200938 1.479843 0.380407
v 0.178532 1.554787 0.434500
v 0.180280 1.608652 0.430278
v 0.265467 1.548041 0.224619
v 0.292355 1.685938 0.159707
v 0.210173 1.536883 0.358110
v 0.197889 1.607209 0.387767
v 0.386281 -0.012476 0.185885
v 0.386281 0.038111 0.247713
v 0.386281 0.105560 0.250524
v 0.386281 0.161768 0.213989
v 0.386281 1.255011 0.604633
v 0.386281 1.393189 0.532032
v 0.386281 1.423635 0.436010
v 0.386281 1.479843 0.417274
v 0.386281 1.554787 0.475824
v 0.386281 1.608652 0.471254
v 0.386281 1.548041 0.248650
v 0.386281 1.685938 0.178390
v 0.386281 1.536883 0.393140
v 0.386281 1.607209 0.425241
v 0.483075 -0.012476 0.166631
v 0.506736 0.038111 0.223753
v 0.507811 0.105560 0.226350
v 0.493830 0.161768 0.192596
v 0.643323 1.255011 0.553504
v 0.615540 1.393189 0.486429
v 0.578794 1.423635 0.397717
v 0.571624 1.479843 0.380407
v 0.594030 1.554787 0.434500
v 0.592281 1.608652 0.430278
v 0.507094 1.548041 0.224619
v 0.480207 1.685938 0.159707
v 0.562388 1.536883 0.358110
v 0.574672 1.607209 0.387767
v 0.608852 0.038111 0.155521
v 0.610840 0.105560 0.157508
v 0.585005 0.161768 0.131674
v 0.861233 1.255011 0.407902
v 0.809896 1.393189 0.356564
v 0.741998 1.423635 0.288667
v 0.728750 1.479843 0.275418
v 0.770151 1.554787 0.316819
v 0.766920 1.608652 0.313588
v 0.609515 1.548041 0.156183
v 0.559834 1.685938 0.106502
v 0.711685 1.536883 0.258353
v 0.734383 1.607209 0.281052
v 0.619962 -0.012476 0.029743
v 0.677085 0.038111 0.053404
v 0.679681 0.105560 0.054480
v 0.645927 0.161768 0.040498
v 1.006836 1.255011 0.189991
v 0.939761 1.393189 0.162208
v 0.851048 1.423635 0.125462
v 0.833738 1.479843 0.118292
v 0.887831 1.554787 0.140698
v 0.883609 1.608652 0.138949
v 0.677950 1.548041 0.053763
v 0.613039 1.685938 0.026875
v 0.811442 1.536883 0.109057
v 0.841098 1.607209 0.121341
v 0.639216 -0.012476 -0.067051
v 0.701045 0.038111 -0.067051
v 0.703855 0.105560 -0.067051
v 0.667320 0.161768 -0.067051
v 1.057965 1.255011 -0.067051
v 0.985363 1.393189 -0.067051
v 0.889341 1.423635 -0.067051
v 0.870605 1.479843 -0.067051
v 0.929155 1.554787 -0.067051
v 0.924585 1.608652 -0.067051
v 0.701981 1.548041 -0.067051
v 0.631722 1.685938 -0.067051
v 0.846472 1.536883 -0.067051
v 0.878572 1.607209 -0.067051
v 0.677085 0.038111 -0.187506
v 0.679681 0.105560 -0.188581
v 0.645927 0.161768 -0.174600
v 1.006836 1.255011 -0.324093
v 0.939760 1.393189 -0.296310
v 0.851048 1.423635 -0.259564
v 0.833738 1.479843 -0.252394
v 0.887831 1.554787 -0.274800
v 0.883609 1.608652 -0.273051
v 0.677950 1.548041 -0.187864
v 0.613038 1.685938 -0.160977
v 0.386281 1.685938 -0.067051
v 0.811441 1.536883 -0.243158
v 0.841098 1.607209 -0.255443
v 0.565133 -0.012476 -0.245903
v 0.608852 0.038111 -0.289623
v 0.610840 0.105560 -0.291610
v 0.585005 0.161768 -0.265776
v 0.861233 1.255011 -0.542003
v 0.809895 1.393189 -0.490666
v 0.741998 1.423635 -0.422768
v 0.728750 1.479843 -0.409520
v 0.770150 1.554787 -0.450921
v 0.766919 1.608652 -0.447690
v 0.609515 1.548041 -0.290285
v 0.559833 1.685938 -0.240604
v 0.711684 1.536883 -0.392455
v 0.734383 1.607209 -0.415153
v 0.483075 -0.012476 -0.300733
v 0.506735 0.038111 -0.357855
v 0.507811 0.105560 -0.360451
v 0.493830 0.161768 -0.326697
v 0.643323 1.255011 -0.687606
v 0.615539 1.393189 -0.620531
v 0.578793 1.423635 -0.531818
v 0.571623 1.479843 -0.514508
v 0.594029 1.554787 -0.568601
v 0.592281 1.608652 -0.564380
v 0.507094 1.548041 -0.358720
v 0.480207 1.685938 -0.293809
v 0.562388 1.536883 -0.492212
v 0.574672 1.607209 -0.521869
v 0.386281 -0.012476 -0.319986
v 0.386281 0.038111 -0.381815
v 0.386281 0.105560 -0.384625
v 0.386281 0.161768 -0.348090
v 0.386280 1.255011 -0.738735
v 0.386280 1.393189 -0.666133
v 0.386280 1.423635 -0.570111
v 0.386280 1.479843 -0.551375
v 0.386280 1.554787 -0.609925
v 0.386280 1.608652 -0.605355
v 0.386280 1.548041 -0.382752
v 0.386280 1.685938 -0.312492
v 0.386280 1.536883 -0.527242
v 0.386280 1.607209 -0.559342
v 0.289486 -0.012476 -0.300733
v 0.265825 0.038111 -0.357855
v 0.264750 0.105560 -0.360451
v 0.278731 0.161768 -0.326697
v 0.129238 1.255011 -0.687606
v 0.157021 1.393189 -0.620530
v 0.193767 1.423635 -0.531818
v 0.200937 1.479843 -0.514508
v 0.178531 1.554787 -0.568601
v 0.180280 1.608652 -0.564379
v 0.265467 1.548041 -0.358720
v 0.292354 1.685938 -0.293809
v 0.210173 1.536883 -0.492212
v 0.197889 1.607209 -0.521868
v 0.207428 -0.012476 -0.245903
v 0.163709 0.038111 -0.289622
v 0.161721 0.105560 -0.291610
v 0.187556 0.161768 -0.265775
v -0.088672 1.255011 -0.542003
v -0.037335 1.393189 -0.490665
v 0.030563 1.423635 -0.422768
v 0.043811 1.479843 -0.409520
v 0.002410 1.554787 -0.450921
v 0.005641 1.608652 -0.447689
v 0.163046 1.548041 -0.290285
v 0.212727 1.685938 -0.240604
v 0.060876 1.536883 -0.392455
v 0.038178 1.607209 -0.415153
v 0.095476 0.038111 -0.187506
v 0.092880 0.105560 -0.188581
v 0.126634 0.161768 -0.174600
v -0.234275 1.255011 -0.324093
v -0.167199 1.393189 -0.296309
v -0.078487 1.423635 -0.259563
v -0.061177 1.479843 -0.252393
v -0.115270 1.554787 -0.274800
v -0.111048 1.608652 -0.273051
v 0.094611 1.548041 -0.187864
v 0.159522 1.685938 -0.160977
v -0.038881 1.536883 -0.243158
v -0.068537 1.607209 -0.255442
v 0.387351 -0.012476 -0.069280
vn -0.0000 -0.6156 -0.7880
vn -0.3016 -0.6156 -0.7280
vn 0.5510 -0.7953 0.2527
vn 0.5850 -0.7740 0.2423
vn 0.4072 -0.8175 0.4072
vn 0.4443 -0.7953 -0.4124
vn 0.4478 -0.7740 -0.4478
vn 0.5321 -0.8175 -0.2204
vn 0.2527 -0.7953 0.5510
vn -0.0000 -0.7740 0.6332
vn -0.0226 -0.7953 0.6058
vn -0.3022 0.9532 -0.0000
vn -0.2792 0.9532 0.1157
vn 0.6058 -0.7953 -0.0226
vn -0.5801 -0.8145 -0.0000
vn -0.6332 -0.7740 -0.0000
vn -0.5321 -0.8175 -0.2204
vn 0.2423 -0.7740 -0.5850
vn -0.4102 -0.8145 0.4102
vn -0.4478 -0.7740 0.4478
vn -0.5321 -0.8175 0.2204
vn -0.4443 -0.7953 -0.4124
vn -0.2423 -0.7740 -0.5850
vn -0.0000 -0.7740 -0.6332
vn -0.9231 -0.0416 0.3824
vn -0.9991 -0.0416 -0.0000
vn -0.7065 -0.0416 0.7065
vn -0.9231 -0.0416 0.3823
vn -0.3824 -0.0416 0.9231
vn -0.0000 -0.0416 0.9991
vn 0.3824 -0.0416 0.9231
vn 0.7065 -0.0416 0.7065
vn 0.3823 -0.0416 0.9231
vn 0.9231 -0.0416 0.3824
vn 0.9991 -0.0416 -0.0000
vn 0.9231 -0.0416 -0.3824
vn 0.7065 -0.0416 -0.7065
vn 0.9231 -0.0416 -0.3823
vn 0.3823 -0.0416 -0.9231
vn -0.0000 -0.0416 -0.9991
vn 0.3824 -0.0416 -0.9231
vn -0.3824 -0.0416 -0.9231
vn -0.7065 -0.0416 -0.7065
vn -0.3823 -0.0416 -0.9231
vn -0.9231 -0.0416 -0.3824
vn -0.5929 0.5450 -0.5929
vn -0.3209 0.5450 -0.7746
vn -0.5929 0.5450 0.5929
vn -0.7746 0.5450 0.3209
vn 0.7746 0.5450 -0.3209
vn 0.8384 0.5450 -0.0000
vn 0.3209 0.5450 0.7746
vn -0.0000 0.5450 0.8384
vn 0.3209 0.5450 -0.7746
vn 0.5929 0.5450 -0.5929
vn 0.7746 0.5450 0.3209
vn 0.5929 0.5450 0.5929
vn -0.8384 0.5450 -0.0000
vn -0.0000 0.5450 -0.8384
vn 0.0544 0.9970 -0.0544
vn 0.0711 0.9970 -0.0295
vn -0.0000 -0.3365 -0.9417
vn 0.3818 0.0670 -0.9218
vn 0.3604 -0.3365 -0.8700
vn -0.6659 -0.3365 0.6659
vn -0.9218 0.0670 0.3818
vn -0.8700 -0.3365 0.3604
vn -0.9978 0.0670 -0.0000
vn -0.9417 -0.3365 -0.0000
vn 0.6659 -0.3365 0.6659
vn 0.3818 0.0670 0.9218
vn 0.3604 -0.3365 0.8700
vn -0.8700 -0.3365 -0.3604
vn -0.7055 0.0670 -0.7055
vn -0.6659 -0.3365 -0.6659
vn -0.0000 0.0670 0.9978
vn -0.3604 -0.3365 0.8700
vn -0.0000 -0.3365 0.9417
vn 0.7055 0.0670 -0.7055
vn 0.8700 -0.3365 -0.3604
vn 0.6659 -0.3365 -0.6659
vn -0.0000 1.0000 -0.0000
vn -0.7055 0.0670 0.7055
vn 0.9218 0.0670 0.3818
vn 0.8700 -0.3365 0.3604
vn 0.9978 0.0670 -0.0000
vn 0.9417 -0.3365 -0.0000
vn -0.3818 0.0670 -0.9218
vn -0.3604 -0.3365 -0.8700
vn -0.8852 0.4651 -0.0000
vn -0.8179 0.4651 0.3388
vn -0.3818 0.0670 0.9218
vn -0.6260 0.4651 0.6260
vn -0.3388 0.4651 0.8179
vn -0.0000 0.4651 0.8852
vn 0.7055 0.0670 0.7055
vn 0.3388 0.4651 0.8179
vn 0.6260 0.4651 0.6260
vn 0.8179 0.4651 0.3388
vn 0.9218 0.0670 -0.3818
vn 0.8852 0.4651 -0.0000
vn 0.8179 0.4651 -0.3388
vn 0.6260 0.4651 -0.6260
vn -0.0000 0.0670 -0.9978
vn 0.3388 0.4651 -0.8179
vn -0.0000 0.4651 -0.8852
vn -0.3388 0.4651 -0.8179
vn -0.9218 0.0670 -0.3818
vn -0.6260 0.4651 -0.6260
vn -0.8179 0.4651 -0.3388
vn 0.2792 0.9532 0.1157
vn 0.3022 0.9532 -0.0000
vn -0.8765 0.3162 0.3631
vn -0.9487 0.3162 -0.0000
vn -0.6708 0.3162 0.6708
vn -0.8765 0.3162 0.3630
vn -0.3630 0.3162 0.8765
vn -0.0000 0.3162 0.9487
vn 0.3631 0.3162 0.8765
vn 0.6708 0.3162 0.6708
vn 0.3630 0.3162 0.8765
vn 0.8765 0.3162 0.3630
vn 0.9487 0.3162 -0.0000
vn 0.8765 0.3162 -0.3631
vn 0.6708 0.3162 -0.6708
vn 0.8765 0.3162 -0.3630
vn 0.3630 0.3162 -0.8765
vn -0.0000 0.3162 -0.9487
vn -0.3631 0.3162 -0.8765
vn -0.6708 0.3162 -0.6708
vn -0.3630 0.3162 -0.8765
vn -0.8765 0.3162 -0.3630
vn -0.5572 -0.6156 -0.5572
vn -0.7280 -0.6156 -0.3016
vn -0.5572 -0.6156 0.5572
vn -0.3016 -0.6156 0.7280
vn 0.3016 -0.6156 0.7280
vn 0.5572 -0.6156 0.5572
vn -0.7880 -0.6156 -0.0000
vn -0.7280 -0.6156 0.3016
vn -0.0000 -0.6156 0.7880
vn 0.7280 -0.6156 0.3016
vn 0.5572 -0.6156 -0.5572
vn 0.3016 -0.6156 -0.7280
vn 0.7880 -0.6156 -0.0000
vn 0.7280 -0.6156 -0.3016
vn -0.9206 0.0845 0.3813
vn -0.9964 0.0845 -0.0000
vn -0.7046 0.0845 0.7046
vn -0.3813 0.0845 0.9206
vn -0.0000 0.0845 0.9964
vn 0.3813 0.0845 0.9206
vn 0.7046 0.0845 0.7046
vn 0.9206 0.0845 0.3813
vn 0.9964 0.0845 -0.0000
vn 0.9206 0.0845 -0.3813
vn 0.7046 0.0845 -0.7046
vn 0.3813 0.0845 -0.9206
vn -0.0000 0.0845 -0.9964
vn -0.3813 0.0845 -0.9206
vn -0.7046 0.0845 -0.7046
vn -0.9206 0.0845 -0.3813
vn -0.0711 0.9970 0.0295
vn -0.0770 0.9970 -0.0000
vn 0.0120 0.9995 0.0290
vn -0.0000 0.9995 0.0313
vn -0.8232 0.4540 0.3410
vn -0.8910 0.4540 -0.0000
vn -0.6300 0.4540 0.6300
vn -0.3410 0.4540 0.8232
vn -0.0000 0.4540 0.8910
vn 0.3410 0.4540 0.8232
vn 0.6300 0.4540 0.6300
vn 0.8232 0.4540 0.3410
vn 0.8910 0.4540 -0.0000
vn 0.8232 0.4540 -0.3410
vn 0.6300 0.4540 -0.6300
vn 0.3410 0.4540 -0.8232
vn -0.0000 0.4540 -0.8910
vn -0.3410 0.4540 -0.8232
vn -0.6300 0.4540 -0.6300
vn -0.8232 0.4540 -0.3410
vn -0.3209 0.5450 0.7746
vn -0.2204 -0.8175 0.5321
vn 0.1157 0.9532 -0.2792
vn -0.0000 0.9532 -0.3022
vn -0.1157 0.9532 0.2792
vn -0.0000 0.9532 0.3022
vn 0.8405 0.4152 -0.3481
vn 0.9097 0.4152 -0.0000
vn 0.6433 0.4152 -0.6433
vn 0.3481 0.4152 -0.8405
vn -0.0000 0.4152 -0.9097
vn -0.3481 0.4152 -0.8405
vn -0.6433 0.4152 -0.6433
vn -0.8405 0.4152 -0.3481
vn -0.9097 0.4152 -0.0000
vn -0.8405 0.4152 0.3481
vn -0.6433 0.4152 0.6433
vn -0.3481 0.4152 0.8405
vn -0.0000 0.4152 0.9097
vn 0.3481 0.4152 0.8405
vn 0.6433 0.4152 0.6433
vn 0.8405 0.4152 0.3481
vn -0.0120 0.9995 -0.0290
vn -0.0000 0.9995 -0.0313
vn -0.0000 -1.0000 -0.0000
vn 0.2423 -0.7740 0.5850
vn 0.6332 -0.7740 -0.0000
vn -0.2137 0.9532 -0.2137
vn -0.2792 0.9532 -0.1157
vn -0.2137 0.9532 0.2137
vn -0.4478 -0.7740 -0.4478
vn -0.7746 0.5450 -0.3209
vn -0.0000 0.9970 0.0770
vn 0.0295 0.9970 0.0711
vn 0.0544 0.9970 0.0544
vn 0.0711 0.9970 0.0295
vn 0.0770 0.9970 -0.0000
vn 0.0295 0.9970 -0.0711
vn -0.0000 0.9970 -0.0770
vn -0.0295 0.9970 -0.0711
vn -0.0544 0.9970 -0.0544
vn 0.2137 0.9532 0.2137
vn 0.2792 0.9532 -0.1157
vn 0.2137 0.9532 -0.2137
vn -0.0544 0.9970 0.0544
vn -0.0295 0.9970 0.0711
vn -0.0711 0.9970 -0.0295
vn 0.0222 0.9995 0.0222
vn 0.0290 0.9995 0.0120
vn 0.0313 0.9995 -0.0000
vn -0.0222 0.9995 0.0222
vn -0.0120 0.9995 0.0290
vn -0.1157 0.9532 -0.2792
vn 0.1157 0.9532 0.2792
vn 0.0222 0.9995 -0.0222
vn 0.0120 0.9995 -0.0290
vn -0.0222 0.9995 -0.0222
vn -0.0290 0.9995 -0.0120
vn -0.0313 0.9995 -0.0000
vn -0.0290 0.9995 0.0120
vn 0.0290 0.9995 -0.0120
s 1
usemtl ceramika
f 174//1 173//1 187//2
f 96//3 97//4 83//5
f 138//6 139//7 124//8
f 69//9 56//10 55//11
f 6//12 20//13 7//12
f 110//14 97//4 96//3
f 1//15 2//16 208//17
f 152//18 139//7 138//6
f 28//19 29//20 15//21
f 194//22 181//23 180//23
f 153//18 152//18 166//24
f 15//25 3//26 2//26
f 29//27 16//28 15//25
f 42//29 30//27 29//27
f 56//30 43//29 42//29
f 70//31 57//30 56//30
f 83//32 71//33 70//31
f 97//34 84//32 83//32
f 111//35 98//34 97//34
f 124//36 112//35 111//35
f 139//37 125//38 124//36
f 153//39 140//37 139//37
f 167//40 154//41 153//39
f 181//42 168//40 167//40
f 195//43 182//44 181//42
f 208//45 196//43 195//43
f 2//26 209//45 208//45
f 197//46 183//47 182//47
f 30//48 17//49 16//49
f 126//50 113//51 112//51
f 71//52 58//53 57//53
f 155//54 141//55 140//55
f 112//51 99//56 98//56
f 85//57 72//52 71//52
f 16//49 17//49 4//58
f 182//47 169//59 168//59
f 150//60 148//60 133//61
f 169//62 156//63 155//64
f 31//65 18//66 17//67
f 17//67 5//68 4//69
f 85//70 73//71 72//72
f 210//73 198//74 197//75
f 59//76 44//77 58//78
f 142//79 126//80 141//81
f 156//63 141//81 155//64
f 25//82 39//82 135//82
f 44//77 32//83 31//65
f 100//84 85//70 99//85
f 114//86 99//85 113//87
f 184//88 169//62 183//89
f 198//74 183//89 197//75
f 126//80 114//86 113//87
f 18//66 6//90 5//68
f 32//83 19//91 18//66
f 45//92 33//93 32//83
f 59//76 46//94 45//92
f 73//71 60//95 59//76
f 86//96 74//97 73//71
f 100//84 87//98 86//96
f 114//86 101//99 100//84
f 127//100 115//101 114//86
f 142//79 128//102 127//100
f 156//63 143//103 142//79
f 170//104 157//105 156//63
f 184//88 171//106 170//104
f 198//74 185//107 184//88
f 211//108 199//109 198//74
f 5//68 212//110 211//108
f 102//111 101//111 116//112
f 72//72 59//76 58//78
f 20//113 8//114 7//114
f 34//115 21//116 20//113
f 47//117 35//115 34//115
f 61//118 48//117 47//117
f 75//119 62//118 61//118
f 88//120 76//121 75//119
f 102//122 89//120 88//120
f 116//123 103//122 102//122
f 129//124 117//123 116//123
f 144//125 130//126 129//124
f 158//127 145//125 144//125
f 172//128 159//127 158//127
f 186//129 173//128 172//128
f 200//130 187//131 186//129
f 213//132 201//130 200//130
f 7//114 214//132 213//132
f 202//133 201//133 214//134
f 35//135 49//136 36//135
f 5//68 210//73 4//69
f 76//137 90//138 77//137
f 9//139 8//139 21//140
f 49//136 48//136 62//141
f 90//138 89//138 103//142
f 146//143 145//143 159//144
f 118//145 117//145 130//146
f 22//147 10//148 9//148
f 36//149 23//147 22//147
f 49//150 37//149 36//149
f 63//151 50//150 49//150
f 77//152 64//151 63//151
f 90//153 78//152 77//152
f 104//154 91//153 90//153
f 118//155 105//154 104//154
f 131//156 119//155 118//155
f 131//156 147//157 132//156
f 146//157 161//158 147//157
f 174//159 161//158 160//158
f 188//160 175//159 174//159
f 202//161 189//160 188//160
f 215//162 203//161 202//161
f 9//148 216//162 215//162
f 24//163 11//164 13//164
f 193//165 179//166 175//166
f 24//167 12//168 11//168
f 38//169 25//167 24//167
f 51//170 39//169 38//169
f 65//171 52//170 51//170
f 79//172 66//171 65//171
f 92//173 80//172 79//172
f 106//174 93//173 92//173
f 120//175 107//174 106//174
f 133//176 121//175 120//175
f 148//177 134//176 133//176
f 162//178 149//177 148//177
f 176//179 163//178 162//178
f 190//180 177//179 176//179
f 204//181 191//180 190//180
f 217//182 205//181 204//181
f 11//168 218//182 217//182
f 44//183 31//48 30//48
f 55//11 56//10 42//184
f 158//185 157//185 172//186
f 46//187 60//188 61//188
f 27//189 13//190 14//190
f 41//191 26//189 27//189
f 54//192 40//191 41//191
f 68//193 53//192 54//192
f 82//194 67//193 68//193
f 95//195 81//194 82//194
f 109//196 94//195 95//195
f 123//197 108//196 109//196
f 137//198 122//197 123//197
f 151//199 136//198 137//198
f 165//200 150//199 151//199
f 179//201 164//200 165//200
f 193//202 178//201 179//201
f 207//203 192//202 193//202
f 220//204 206//203 207//203
f 14//190 219//204 220//204
f 82//205 68//206 64//206
f 39//82 52//82 135//82
f 52//82 66//82 135//82
f 66//82 80//82 135//82
f 80//82 93//82 135//82
f 93//82 107//82 135//82
f 107//82 121//82 135//82
f 121//82 134//82 135//82
f 134//82 149//82 135//82
f 149//82 163//82 135//82
f 163//82 177//82 135//82
f 177//82 191//82 135//82
f 191//82 205//82 135//82
f 205//82 218//82 135//82
f 218//82 12//82 135//82
f 12//82 25//82 135//82
f 28//207 1//207 221//207
f 1//207 194//207 221//207
f 194//207 180//207 221//207
f 180//207 166//207 221//207
f 166//207 152//207 221//207
f 152//207 138//207 221//207
f 138//207 110//207 221//207
f 110//207 96//207 221//207
f 96//207 69//207 221//207
f 69//207 55//207 221//207
f 55//207 28//207 221//207
f 187//2 201//133 202//133
f 202//133 188//2 187//2
f 188//2 174//1 187//2
f 70//208 69//9 83//5
f 69//9 96//3 83//5
f 111//209 110//14 124//8
f 110//14 138//6 124//8
f 69//9 70//208 56//10
f 199//210 212//211 213//211
f 212//211 6//12 7//12
f 199//210 213//211 200//210
f 6//12 19//13 20//13
f 19//13 33//212 20//13
f 20//13 33//212 34//212
f 33//212 46//187 34//212
f 46//187 47//187 34//212
f 213//211 212//211 7//12
f 110//14 111//209 97//4
f 195//213 194//22 208//17
f 194//22 1//15 208//17
f 152//18 153//18 139//7
f 2//16 1//15 15//21
f 1//15 28//19 15//21
f 194//22 195//213 181//23
f 166//24 180//23 181//23
f 181//23 167//24 166//24
f 167//24 153//18 166//24
f 15//25 16//28 3//26
f 29//27 30//27 16//28
f 42//29 43//29 30//27
f 56//30 57//30 43//29
f 70//31 71//33 57//30
f 83//32 84//32 71//33
f 97//34 98//34 84//32
f 111//35 112//35 98//34
f 124//36 125//38 112//35
f 139//37 140//37 125//38
f 153//39 154//41 140//37
f 167//40 168//40 154//41
f 181//42 182//44 168//40
f 195//43 196//43 182//44
f 208//45 209//45 196//43
f 2//26 3//26 209//45
f 182//47 196//46 197//46
f 196//46 209//214 197//46
f 209//214 210//214 197//46
f 30//48 31//48 17//49
f 112//51 125//50 126//50
f 125//50 140//55 126//50
f 140//55 141//55 126//50
f 71//52 72//52 58//53
f 140//55 154//54 155//54
f 154//54 168//59 155//54
f 168//59 169//59 155//54
f 112//51 113//51 99//56
f 71//52 84//57 85//57
f 84//57 98//56 85//57
f 98//56 99//56 85//57
f 210//214 209//214 4//58
f 209//214 3//58 4//58
f 3//58 16//49 4//58
f 182//47 183//47 169//59
f 67//215 81//216 79//216
f 81//216 94//217 92//217
f 67//215 79//216 65//215
f 94//217 108//218 106//218
f 108//218 122//219 120//219
f 122//219 136//61 133//61
f 136//61 150//60 133//61
f 122//219 133//61 120//219
f 150//60 164//220 148//60
f 164//220 178//221 162//220
f 162//220 178//221 176//221
f 178//221 192//222 176//221
f 192//222 206//223 190//222
f 176//221 192//222 190//222
f 206//223 204//223 190//222
f 108//218 120//219 106//218
f 79//216 81//216 92//217
f 164//220 162//220 148//60
f 106//218 92//217 94//217
f 169//62 170//104 156//63
f 31//65 32//83 18//66
f 17//67 18//66 5//68
f 85//70 86//96 73//71
f 210//73 211//108 198//74
f 59//76 45//92 44//77
f 142//79 127//100 126//80
f 156//63 142//79 141//81
f 44//77 45//92 32//83
f 100//84 86//96 85//70
f 114//86 100//84 99//85
f 184//88 170//104 169//62
f 198//74 184//88 183//89
f 126//80 127//100 114//86
f 18//66 19//91 6//90
f 32//83 33//93 19//91
f 45//92 46//94 33//93
f 59//76 60//95 46//94
f 73//71 74//97 60//95
f 86//96 87//98 74//97
f 100//84 101//99 87//98
f 114//86 115//101 101//99
f 127//100 128//102 115//101
f 142//79 143//103 128//102
f 156//63 157//105 143//103
f 170//104 171//106 157//105
f 184//88 185//107 171//106
f 198//74 199//109 185//107
f 211//108 212//110 199//109
f 5//68 6//90 212//110
f 87//224 101//111 102//111
f 101//111 115//112 116//112
f 87//224 102//111 88//224
f 115//112 128//225 116//112
f 128//225 143//226 129//225
f 116//112 128//225 129//225
f 143//226 144//226 129//225
f 72//72 73//71 59//76
f 20//113 21//116 8//114
f 34//115 35//115 21//116
f 47//117 48//117 35//115
f 61//118 62//118 48//117
f 75//119 76//121 62//118
f 88//120 89//120 76//121
f 102//122 103//122 89//120
f 116//123 117//123 103//122
f 129//124 130//126 117//123
f 144//125 145//125 130//126
f 158//127 159//127 145//125
f 172//128 173//128 159//127
f 186//129 187//131 173//128
f 200//130 201//130 187//131
f 213//132 214//132 201//130
f 7//114 8//114 214//132
f 214//134 8//139 9//139
f 9//139 215//134 214//134
f 215//134 202//133 214//134
f 35//135 48//136 49//136
f 5//68 211//108 210//73
f 76//137 89//138 90//138
f 21//140 35//135 36//135
f 36//135 22//140 21//140
f 22//140 9//139 21//140
f 62//141 76//137 77//137
f 77//137 63//141 62//141
f 63//141 49//136 62//141
f 103//142 117//145 118//145
f 118//145 104//142 103//142
f 104//142 90//138 103//142
f 159//144 173//1 174//1
f 174//1 160//144 159//144
f 160//144 146//143 159//144
f 130//146 145//143 146//143
f 146//143 131//146 130//146
f 131//146 118//145 130//146
f 22//147 23//147 10//148
f 36//149 37//149 23//147
f 49//150 50//150 37//149
f 63//151 64//151 50//150
f 77//152 78//152 64//151
f 90//153 91//153 78//152
f 104//154 105//154 91//153
f 118//155 119//155 105//154
f 131//156 132//156 119//155
f 131//156 146//157 147//157
f 146//157 160//158 161//158
f 174//159 175//159 161//158
f 188//160 189//160 175//159
f 202//161 203//161 189//160
f 215//162 216//162 203//161
f 9//148 10//148 216//162
f 26//163 40//227 24//163
f 40//227 53//228 38//227
f 24//163 40//227 38//227
f 53//228 67//215 51//228
f 67//215 65//215 51//228
f 13//164 26//163 24//163
f 206//223 219//229 217//229
f 219//229 13//164 11//164
f 217//229 204//223 206//223
f 11//164 217//229 219//229
f 53//228 51//228 38//227
f 175//166 189//165 193//165
f 189//165 203//230 193//165
f 203//230 216//231 220//231
f 216//231 10//232 220//231
f 10//232 14//232 220//231
f 147//233 161//234 165//234
f 161//234 175//166 165//234
f 165//234 151//233 147//233
f 203//230 220//231 207//230
f 203//230 207//230 193//165
f 179//166 165//234 175//166
f 24//167 25//167 12//168
f 38//169 39//169 25//167
f 51//170 52//170 39//169
f 65//171 66//171 52//170
f 79//172 80//172 66//171
f 92//173 93//173 80//172
f 106//174 107//174 93//173
f 120//175 121//175 107//174
f 133//176 134//176 121//175
f 148//177 149//177 134//176
f 162//178 163//178 149//177
f 176//179 177//179 163//178
f 190//180 191//180 177//179
f 204//181 205//181 191//180
f 217//182 218//182 205//181
f 11//168 12//168 218//182
f 30//48 43//183 44//183
f 43//183 57//53 44//183
f 57//53 58//53 44//183
f 29//20 28//19 42//184
f 28//19 55//11 42//184
f 143//226 157//185 158//185
f 157//185 171//186 172//186
f 143//226 158//185 144//226
f 171//186 185//235 172//186
f 185//235 199//210 186//235
f 172//186 185//235 186//235
f 199//210 200//210 186//235
f 60//188 74//236 61//188
f 74//236 87//224 75//236
f 61//188 74//236 75//236
f 87//224 88//224 75//236
f 61//188 47//187 46//187
f 27//189 26//189 13//190
f 41//191 40//191 26//189
f 54//192 53//192 40//191
f 68//193 67//193 53//192
f 82//194 81//194 67//193
f 95//195 94//195 81//194
f 109//196 108//196 94//195
f 123//197 122//197 108//196
f 137//198 136//198 122//197
f 151//199 150//199 136//198
f 165//200 164//200 150//199
f 179//201 178//201 164//200
f 193//202 192//202 178//201
f 207//203 206//203 192//202
f 220//204 219//204 206//203
f 14//190 13//190 219//204
f 37//237 50//238 54//238
f 50//238 64//206 54//238
f 64//206 78//205 82//205
f 78//205 91//239 82//205
f 91//239 105//240 109//240
f 105//240 119//241 109//240
f 119//241 132//242 123//241
f 132//242 147//233 137//242
f 147//233 151//233 137//242
f 132//242 137//242 123//241
f 10//232 23//243 27//243
f 23//243 37//237 41//237
f 27//243 23//243 41//237
f 27//243 14//232 10//232
f 119//241 123//241 109//240
f 54//238 41//237 37//237
f 91//239 109//240 95//239
f 68//206 54//238 64//206
f 91//239 95//239 82//205
