# Blender 4.4.3
# www.blender.org
mtllib murek_1.mtl
o Vert.004
v -1.138807 0.192218 -2.883254
v -1.138807 0.192218 4.160061
v -1.138807 1.225828 4.160061
v -1.138807 1.225828 1.472676
v -1.138807 2.279126 1.472676
v -1.138807 2.279126 -2.041599
v -1.138807 1.245516 -2.041599
v -1.138807 1.245516 -2.883254
v -0.102007 0.192218 -2.883254
v -0.102007 0.192218 4.160061
v -0.102007 1.225828 4.160061
v -0.102007 1.225828 1.472676
v -0.102007 2.279126 1.472676
v -0.102007 2.279126 -2.041599
v -0.102007 1.245516 -2.041599
v -0.102007 1.245516 -2.883254
vn -0.0000 1.0000 -0.0000
vn -0.0000 -1.0000 -0.0000
vn -0.0000 -0.0000 -1.0000
vn -0.0000 -0.0000 1.0000
vn 1.0000 -0.0000 -0.0000
vn -1.0000 -0.0000 -0.0000
vt 0.092530 0.092246
vt 0.000123 0.331766
vt 0.000123 0.092246
vt 0.465269 0.627876
vt 0.557676 0.000123
vt 0.557676 0.627876
vt 0.000123 0.905999
vt 0.092530 0.999877
vt 0.000123 0.999877
vt 0.092530 0.738862
vt 0.000123 0.830985
vt 0.000123 0.738862
vt 0.092530 0.331766
vt 0.000123 0.425643
vt 0.092530 0.000123
vt 0.000123 0.000123
vt 0.092530 0.830985
vt 0.092530 0.425643
vt 0.184899 0.552861
vt 0.092776 0.239643
vt 0.186654 0.239643
vt 0.465023 0.239643
vt 0.465023 0.552861
vt 0.372900 0.552861
vt 0.465269 0.000123
vt 0.092530 0.905999
vt 0.278777 0.000123
vt 0.278777 0.627876
vt 0.184899 0.627876
vt 0.092776 0.552861
vt 0.186654 0.000123
vt 0.372900 0.627876
vt 0.279023 0.627876
vt 0.279023 0.000123
vt 0.371146 0.239643
vt 0.371146 0.000123
s 0
usemtl ruina
f 11/1/1 4/2/1 3/3/1
f 9/4/2 2/5/2 1/6/2
f 8/7/3 9/8/3 1/9/3
f 14/10/3 7/11/3 6/12/3
f 12/13/4 5/14/4 4/2/4
f 10/15/4 3/3/4 2/16/4
f 15/17/1 8/7/1 7/11/1
f 13/18/1 6/12/1 5/14/1
f 15/19/5 13/20/5 12/21/5
f 5/22/6 6/23/6 7/24/6
f 11/1/1 12/13/1 4/2/1
f 9/4/2 10/25/2 2/5/2
f 8/7/3 16/26/3 9/8/3
f 14/10/3 15/17/3 7/11/3
f 12/13/4 13/18/4 5/14/4
f 10/15/4 11/1/4 3/3/4
f 15/17/1 16/26/1 8/7/1
f 13/18/1 14/10/1 6/12/1
f 10/27/5 9/28/5 12/21/5
f 9/28/5 16/29/5 15/19/5
f 15/19/5 14/30/5 13/20/5
f 9/28/5 15/19/5 12/21/5
f 12/21/5 11/31/5 10/27/5
f 8/32/6 1/33/6 7/24/6
f 1/33/6 2/34/6 4/35/6
f 7/24/6 1/33/6 4/35/6
f 2/34/6 3/36/6 4/35/6
f 4/35/6 5/22/6 7/24/6
