# Blender 4.4.3
# www.blender.org
mtllib sciana_1.mtl
o lowpoly1.001
v 3.163823 0.112945 3.693582
v 3.163823 0.111901 -5.961612
v 3.163823 1.151830 -5.961612
v 3.163823 1.151830 -5.105649
v 3.163823 2.188629 -5.105649
v 3.163823 2.188629 -5.997778
v 3.163823 3.273651 -5.997778
v 3.163823 3.273651 -3.345501
v 3.163823 4.346618 -3.345501
v 3.163823 4.346618 -4.225575
v 3.163823 5.395473 -4.225575
v 3.163823 5.395473 -3.333447
v 3.163823 6.456383 -3.333447
v 3.163823 6.456383 -2.453373
v 3.163823 7.517294 -2.453373
v 3.163823 7.517294 -1.585356
v 3.163823 8.602317 -1.585356
v 3.163823 8.602317 1.946995
v 3.163823 7.553462 1.946995
v 3.163823 7.553462 2.635986
v 3.163823 0.112945 2.635986
v 2.122421 0.112945 3.695086
v 2.122421 0.111901 -5.961612
v 2.122421 1.151830 -5.961612
v 2.122421 1.151830 -5.105649
v 2.122421 2.188629 -5.105649
v 2.122421 2.188629 -5.997778
v 2.122421 3.273651 -5.997778
v 2.122421 4.346618 -4.225575
v 2.122421 5.395473 -4.225575
v 2.122421 5.395473 -3.333447
v 2.122421 6.456383 -3.333447
v 2.122421 6.456383 -2.453373
v 2.122421 7.517294 -2.453373
v 2.122421 7.517294 -1.585356
v 2.122421 8.602317 -1.585356
v 2.122421 8.602317 1.946995
v 2.122421 7.553462 1.946995
v 2.122421 7.553462 2.635986
v 2.122421 0.112945 2.635986
v 3.163823 7.553462 3.693582
v 2.122421 7.553462 3.693582
v 0.350219 7.553462 2.635986
v 0.350219 7.553462 3.693582
v 0.350219 8.602317 2.635986
v 0.350219 8.602317 3.693582
v -1.397873 8.602317 2.635986
v -1.397873 8.602317 3.693582
v -1.397873 7.565517 2.635986
v -1.397873 7.565517 3.693582
v -2.145332 7.565517 2.635986
v -2.145332 7.565517 3.693582
v -2.145332 6.480495 2.635986
v -2.145332 6.480495 3.693582
v -4.954333 6.480495 2.635986
v -4.954333 6.480495 3.693582
v -4.954333 5.407529 2.635986
v -4.954333 5.407529 3.693582
v -5.653570 5.407529 2.635986
v -5.653570 5.407529 3.693582
v -5.653570 4.358675 2.635986
v -5.653570 4.358675 3.693582
v -4.966390 4.358675 2.635986
v -4.966390 4.358675 3.693582
v -4.966390 3.297764 2.635986
v -4.966390 3.297764 3.693582
v -7.425773 3.297764 2.635986
v -7.425773 3.297764 3.693582
v -7.425773 2.224798 2.635986
v -7.425773 2.224798 3.693582
v -8.474626 2.224798 2.635986
v -8.474626 2.224798 3.693582
v -8.474626 1.139775 2.635986
v -8.474626 1.139775 3.693582
v -7.425771 1.139775 2.635986
v -7.425771 1.139775 3.693582
v -7.425771 0.112945 2.635986
v -7.425771 0.112945 3.693582
v 2.115153 4.346347 2.634039
v 2.115150 4.346347 -3.274048
v 1.212659 4.346347 -3.510216
v 0.776974 4.346347 -2.893556
v 0.356849 4.346347 -2.250655
v -0.483402 4.346347 -2.434340
v -1.043570 4.346347 -2.972277
v -1.992741 4.346347 -2.263774
v -2.179463 4.346347 -1.437187
v -2.879670 4.346347 -0.820527
v -3.782163 4.346347 -0.663082
v -4.342330 4.346347 0.360311
v -4.093366 4.346347 1.121295
v -4.264527 4.346347 1.895400
v 2.115153 3.260972 2.634039
v 2.115150 3.260972 -3.274048
v 1.212659 3.260972 -3.510216
v 0.776974 3.260972 -2.893556
v 0.356849 3.260972 -2.250655
v -0.483402 3.260972 -2.434340
v -1.043570 3.260972 -2.972277
v -1.992741 3.260972 -2.263774
v -2.179463 3.260972 -1.437187
v -2.879670 3.260972 -0.820527
v -3.782163 3.260972 -0.663082
v -4.342330 3.260972 0.360311
v -4.093366 3.260972 1.121295
v -4.264527 3.260972 1.895400
vn -0.0000 -0.0000 -1.0000
vn -0.0000 1.0000 -0.0000
vn -0.0000 -0.0000 1.0000
vn -0.0000 -1.0000 -0.0000
vn -0.0680 -0.0000 -0.9977
vn -0.0000 -1.0000 0.0001
vn 1.0000 -0.0000 -0.0000
vn -1.0000 -0.0000 -0.0000
vn -0.0001 0.0002 1.0000
vn -1.0000 0.0009 -0.0011
vn -0.7258 -0.0000 -0.6879
vn -0.5982 -0.0000 -0.8014
vn -0.9754 -0.0000 -0.2203
vn -0.6609 -0.0000 -0.7505
vn 0.2532 -0.0000 -0.9674
vn -0.1719 -0.0000 -0.9851
vn -0.8167 -0.0000 -0.5770
vn -0.8772 -0.0000 -0.4801
vn -0.8371 -0.0000 -0.5470
vn -0.9504 -0.0000 0.3109
vn 0.2136 -0.0000 -0.9769
vn -0.9764 -0.0000 -0.2159
vn 0.6927 -0.0000 -0.7213
vn 0.0017 0.9999 -0.0150
vn -0.0052 -0.9990 0.0447
vn 0.6926 -0.0000 -0.7213
vn -0.0118 0.9999 0.0046
vn 0.0002 -1.0000 -0.0003
vn -0.0002 0.0001 1.0000
vn 0.0014 0.0002 1.0000
vn -0.0000 0.0002 1.0000
vn -1.0000 -0.0023 -0.0000
vn -1.0000 -0.0031 -0.0004
vn -1.0000 0.0023 -0.0000
vn -1.0000 -0.0022 -0.0027
vn -1.0000 -0.0000 -0.0040
vn -0.9999 0.0065 -0.0076
vn -1.0000 0.0034 -0.0000
vn -0.9999 0.0065 -0.0078
vn -0.0003 -0.0006 -1.0000
vn -0.0000 0.0006 -1.0000
vn -0.0005 -0.0000 -1.0000
vn -0.0003 0.0002 -1.0000
vn -0.0002 0.0005 -1.0000
vt 0.000150 0.701852
vt 0.032287 0.669761
vt 0.032287 0.701852
vt 0.000150 0.195420
vt 0.032287 0.086415
vt 0.032287 0.195420
vt 0.000150 0.408223
vt 0.032287 0.375856
vt 0.032287 0.408223
vt 0.000150 0.669761
vt 0.032287 0.643347
vt 0.000150 0.086415
vt 0.032287 0.054048
vt 0.000150 0.375856
vt 0.032287 0.348325
vt 0.000150 0.643347
vt 0.032287 0.611352
vt 0.000150 0.054048
vt 0.032287 0.032787
vt 0.000150 0.348325
vt 0.032287 0.315587
vt 0.000150 0.611352
vt 0.032287 0.583822
vt 0.032287 0.999803
vt 0.000150 0.967167
vt 0.032287 0.967167
vt 0.000150 0.315587
vt 0.032287 0.288428
vt 0.000150 0.583822
vt 0.032287 0.550339
vt 0.000150 0.288428
vt 0.032287 0.255690
vt 0.000150 0.550339
vt 0.032287 0.468492
vt 0.000150 0.255690
vt 0.032287 0.228903
vt 0.000150 0.435381
vt 0.032287 0.435381
vt 0.000150 0.228903
vt 0.000150 0.000150
vt 0.000150 0.032787
vt 0.065224 0.936246
vt 0.032588 0.990935
vt 0.032588 0.936246
vt 0.065224 0.903879
vt 0.032588 0.903879
vt 0.065224 0.849935
vt 0.032588 0.849935
vt 0.065224 0.817940
vt 0.032588 0.817940
vt 0.065224 0.794874
vt 0.032588 0.794874
vt 0.065224 0.761391
vt 0.032588 0.761391
vt 0.065224 0.674708
vt 0.032588 0.674708
vt 0.065224 0.641597
vt 0.032588 0.641597
vt 0.065224 0.620019
vt 0.032588 0.620019
vt 0.065224 0.587653
vt 0.032588 0.587653
vt 0.065224 0.566447
vt 0.032588 0.566447
vt 0.065224 0.533708
vt 0.032588 0.533708
vt 0.065224 0.457814
vt 0.032588 0.457813
vt 0.065224 0.424703
vt 0.032588 0.424703
vt 0.065224 0.392336
vt 0.032588 0.392336
vt 0.065224 0.358853
vt 0.032588 0.358853
vt 0.065224 0.326486
vt 0.032588 0.326486
vt 0.065224 0.294799
vt 0.032588 0.294799
vt 0.032588 0.000150
vt 0.065271 0.000150
vt 0.262068 0.163986
vt 0.065571 0.032287
vt 0.295179 0.086976
vt 0.490893 0.409686
vt 0.523632 0.436844
vt 0.458526 0.409314
vt 0.699024 0.266581
vt 0.623605 0.136314
vt 0.656343 0.109528
vt 0.524344 0.195467
vt 0.557826 0.218533
vt 0.557454 0.272477
vt 0.000000 0.000000
vt 0.000150 0.999850
vt 0.000150 0.468492
vt 0.032287 0.000150
vt 0.065224 0.990935
vt 0.065571 0.326936
vt 0.163852 0.251042
vt 0.065571 0.000150
vt 0.295179 0.032287
vt 0.295179 0.000150
vt 0.327546 0.086976
vt 0.295551 0.140920
vt 0.327546 0.140920
vt 0.097258 0.326936
vt 0.130741 0.359303
vt 0.097258 0.359303
vt 0.130741 0.326936
vt 0.163852 0.326936
vt 0.295551 0.163986
vt 0.262068 0.250670
vt 0.228958 0.250670
vt 0.228958 0.272248
vt 0.196591 0.251042
vt 0.196591 0.272248
vt 0.327879 0.593897
vt 0.327846 0.328583
vt 0.359938 0.354997
vt 0.359938 0.328583
vt 0.557487 0.626534
vt 0.327879 0.626534
vt 0.557487 0.593897
vt 0.425415 0.409314
vt 0.391932 0.354997
vt 0.391932 0.327467
vt 0.425415 0.327467
vt 0.557487 0.572636
vt 0.589853 0.463630
vt 0.589853 0.572635
vt 0.556370 0.436844
vt 0.556370 0.463630
vt 0.458526 0.382155
vt 0.490893 0.382155
vt 0.523632 0.409686
vt 0.852129 0.001266
vt 0.852096 0.266581
vt 0.820037 0.027681
vt 0.775560 0.266581
vt 0.754560 0.081997
vt 0.622488 0.266581
vt 0.622488 0.245319
vt 0.820037 0.001266
vt 0.754560 0.000150
vt 0.788043 0.000150
vt 0.788043 0.027681
vt 0.590122 0.245319
vt 0.590122 0.136314
vt 0.689082 0.054839
vt 0.721449 0.054839
vt 0.689082 0.082369
vt 0.721449 0.081997
vt 0.623605 0.109528
vt 0.656343 0.082369
vt 0.404382 0.327166
vt 0.327846 0.327166
vt 0.426127 0.108411
vt 0.327846 0.032517
vt 0.359533 0.032517
vt 0.359533 0.000150
vt 0.393016 0.032517
vt 0.393016 0.000150
vt 0.557454 0.327166
vt 0.480918 0.327166
vt 0.426127 0.032517
vt 0.458866 0.108411
vt 0.458866 0.087206
vt 0.491233 0.087206
vt 0.491233 0.108783
vt 0.524344 0.108783
vt 0.557826 0.195467
vt 0.589821 0.218533
vt 0.589821 0.272477
s 0
usemtl ruina
f 23/1/1 3/2/1 2/3/1
f 36/4/2 18/5/2 17/6/2
f 29/7/1 11/8/1 10/9/1
f 24/10/2 4/11/2 3/2/2
f 37/12/3 19/13/3 18/5/3
f 30/14/2 12/15/2 11/8/2
f 25/16/1 5/17/1 4/11/1
f 38/18/2 20/19/2 19/13/2
f 31/20/1 13/21/1 12/15/1
f 26/22/4 6/23/4 5/17/4
f 1/24/4 40/25/4 21/26/4
f 32/27/2 14/28/2 13/21/2
f 27/29/1 7/30/1 6/23/1
f 33/31/1 15/32/1 14/28/1
f 28/33/2 8/34/2 7/30/2
f 34/35/2 16/36/2 15/32/2
f 8/34/5 80/37/5 9/38/5
f 40/25/6 2/3/6 21/26/6
f 35/39/1 17/6/1 16/36/1
f 9/38/4 29/7/4 10/9/4
f 42/40/2 20/19/2 39/41/2
f 44/42/2 39/43/2 43/44/2
f 46/45/7 43/44/7 45/46/7
f 48/47/2 45/46/2 47/48/2
f 50/49/8 47/48/8 49/50/8
f 52/51/2 49/50/2 51/52/2
f 54/53/8 51/52/8 53/54/8
f 56/55/2 53/54/2 55/56/2
f 58/57/8 55/56/8 57/58/8
f 60/59/2 57/58/2 59/60/2
f 62/61/8 59/60/8 61/62/8
f 64/63/4 61/62/4 63/64/4
f 66/65/8 63/64/8 65/66/8
f 68/67/2 65/66/2 67/68/2
f 70/69/8 67/68/8 69/70/8
f 72/71/2 69/70/2 71/72/2
f 74/73/8 71/72/8 73/74/8
f 76/75/4 73/74/4 75/76/4
f 78/77/8 75/76/8 77/78/8
f 78/77/4 40/79/4 22/80/4
f 54/81/9 22/82/9 44/83/9
f 12/84/7 14/85/7 9/86/7
f 79/87/10 35/88/10 33/89/10
f 53/90/1 49/91/1 43/92/1
f 88/93/2 90/93/2 91/93/2
f 101/93/4 100/93/4 98/93/4
f 106/93/11 63/93/11 92/93/11
f 99/93/12 86/93/12 85/93/12
f 100/93/13 87/93/13 86/93/13
f 101/93/14 88/93/14 87/93/14
f 94/93/15 81/93/15 80/93/15
f 102/93/16 89/93/16 88/93/16
f 95/93/17 82/93/17 81/93/17
f 103/93/18 90/93/18 89/93/18
f 96/93/19 83/93/19 82/93/19
f 104/93/20 91/93/20 90/93/20
f 97/93/21 84/93/21 83/93/21
f 105/93/22 92/93/22 91/93/22
f 98/93/23 85/93/23 84/93/23
f 79/93/2 80/93/2 83/93/2
f 80/93/2 81/93/2 82/93/2
f 83/93/2 80/93/2 82/93/2
f 84/93/2 85/93/2 86/93/2
f 83/93/2 84/93/2 87/93/2
f 84/93/2 86/93/2 87/93/2
f 63/93/24 79/93/24 92/93/24
f 79/93/2 83/93/2 87/93/2
f 92/93/2 79/93/2 91/93/2
f 91/93/2 79/93/2 88/93/2
f 87/93/2 88/93/2 79/93/2
f 88/93/2 89/93/2 90/93/2
f 95/93/4 94/93/4 96/93/4
f 94/93/4 93/93/4 97/93/4
f 96/93/4 94/93/4 97/93/4
f 93/93/25 65/93/25 106/93/25
f 105/93/4 104/93/4 102/93/4
f 104/93/4 103/93/4 102/93/4
f 93/93/4 106/93/4 105/93/4
f 93/93/4 105/93/4 102/93/4
f 98/93/4 97/93/4 101/93/4
f 97/93/4 93/93/4 101/93/4
f 100/93/4 99/93/4 98/93/4
f 93/93/4 102/93/4 101/93/4
f 106/93/11 65/93/11 63/93/11
f 99/93/12 100/93/12 86/93/12
f 100/93/13 101/93/13 87/93/13
f 101/93/14 102/93/14 88/93/14
f 94/93/15 95/93/15 81/93/15
f 102/93/16 103/93/16 89/93/16
f 95/93/17 96/93/17 82/93/17
f 103/93/18 104/93/18 90/93/18
f 96/93/19 97/93/19 83/93/19
f 104/93/20 105/93/20 91/93/20
f 97/93/21 98/93/21 84/93/21
f 105/93/22 106/93/22 92/93/22
f 98/93/26 99/93/26 85/93/26
f 23/1/1 24/10/1 3/2/1
f 36/4/2 37/12/2 18/5/2
f 29/7/1 30/14/1 11/8/1
f 24/10/2 25/16/2 4/11/2
f 37/12/3 38/18/3 19/13/3
f 30/14/2 31/20/2 12/15/2
f 25/16/1 26/22/1 5/17/1
f 38/18/2 39/41/2 20/19/2
f 31/20/1 32/27/1 13/21/1
f 26/22/4 27/29/4 6/23/4
f 1/24/4 22/94/4 40/25/4
f 32/27/2 33/31/2 14/28/2
f 27/29/1 28/33/1 7/30/1
f 33/31/1 34/35/1 15/32/1
f 28/33/27 94/95/27 8/34/27
f 34/35/2 35/39/2 16/36/2
f 8/34/5 94/95/5 80/37/5
f 40/25/6 23/1/6 2/3/6
f 35/39/1 36/4/1 17/6/1
f 9/38/28 80/37/28 29/7/28
f 42/40/2 41/96/2 20/19/2
f 44/42/2 42/97/2 39/43/2
f 46/45/7 44/42/7 43/44/7
f 48/47/2 46/45/2 45/46/2
f 50/49/8 48/47/8 47/48/8
f 52/51/2 50/49/2 49/50/2
f 54/53/8 52/51/8 51/52/8
f 56/55/2 54/53/2 53/54/2
f 58/57/8 56/55/8 55/56/8
f 60/59/2 58/57/2 57/58/2
f 62/61/8 60/59/8 59/60/8
f 64/63/4 62/61/4 61/62/4
f 66/65/8 64/63/8 63/64/8
f 68/67/2 66/65/2 65/66/2
f 70/69/8 68/67/8 67/68/8
f 72/71/2 70/69/2 69/70/2
f 74/73/8 72/71/8 71/72/8
f 76/75/4 74/73/4 73/74/4
f 78/77/8 76/75/8 75/76/8
f 78/77/4 77/78/4 40/79/4
f 78/98/29 22/82/29 66/99/29
f 22/82/30 1/100/30 42/101/30
f 66/99/29 22/82/29 54/81/29
f 1/100/3 41/102/3 42/101/3
f 44/83/3 46/103/3 50/104/3
f 46/103/3 48/105/3 50/104/3
f 42/101/31 44/83/31 22/82/31
f 76/106/3 78/98/3 66/99/3
f 72/107/3 74/108/3 70/109/3
f 74/108/3 76/106/3 70/109/3
f 66/99/3 68/110/3 70/109/3
f 50/104/3 52/111/3 54/81/3
f 54/81/3 56/112/3 58/113/3
f 58/113/3 60/114/3 64/115/3
f 60/114/3 62/116/3 64/115/3
f 44/83/3 50/104/3 54/81/3
f 54/81/3 58/113/3 64/115/3
f 66/99/3 70/109/3 76/106/3
f 54/81/3 64/115/3 66/99/3
f 21/117/7 2/118/7 4/119/7
f 2/118/7 3/120/7 4/119/7
f 41/121/7 1/122/7 21/117/7
f 20/123/7 41/121/7 21/117/7
f 21/117/7 4/119/7 8/124/7
f 4/119/7 5/125/7 8/124/7
f 5/125/7 6/126/7 7/127/7
f 5/125/7 7/127/7 8/124/7
f 19/128/7 20/123/7 21/117/7
f 17/129/7 18/130/7 19/128/7
f 14/85/7 15/131/7 16/132/7
f 16/132/7 17/129/7 19/128/7
f 9/86/7 10/133/7 11/134/7
f 21/117/7 8/124/7 19/128/7
f 8/124/7 9/86/7 19/128/7
f 16/132/7 19/128/7 14/85/7
f 14/85/7 19/128/7 9/86/7
f 12/84/7 13/135/7 14/85/7
f 9/86/7 11/134/7 12/84/7
f 23/136/8 40/137/8 25/138/8
f 40/137/32 93/139/32 94/140/32
f 25/138/33 40/137/33 94/140/33
f 79/87/34 39/141/34 38/142/34
f 93/139/8 79/87/8 94/140/8
f 25/138/8 24/143/8 23/136/8
f 28/144/8 27/145/8 26/146/8
f 94/140/35 28/144/35 26/146/35
f 26/146/36 25/138/36 94/140/36
f 38/142/8 37/147/8 36/148/8
f 30/149/8 29/150/8 31/151/8
f 29/150/37 80/152/37 31/151/37
f 80/152/8 94/140/8 79/87/8
f 79/87/34 38/142/34 35/88/34
f 38/142/8 36/148/8 35/88/8
f 35/88/8 34/153/8 33/89/8
f 80/152/38 79/87/38 33/89/38
f 31/151/39 80/152/39 33/89/39
f 33/89/8 32/154/8 31/151/8
f 93/155/40 40/156/40 65/157/40
f 40/156/1 77/158/1 65/157/1
f 75/159/1 73/160/1 69/161/1
f 73/160/1 71/162/1 69/161/1
f 77/158/1 75/159/1 65/157/1
f 43/92/41 39/163/41 79/164/41
f 79/164/42 93/155/42 53/90/42
f 69/161/1 67/165/1 65/157/1
f 63/166/1 61/167/1 59/168/1
f 75/159/1 69/161/1 65/157/1
f 63/166/1 59/168/1 57/169/1
f 93/155/43 65/157/43 53/90/43
f 65/157/1 63/166/1 53/90/1
f 63/166/1 57/169/1 53/90/1
f 57/169/1 55/170/1 53/90/1
f 53/90/1 51/171/1 49/91/1
f 49/91/1 47/172/1 45/173/1
f 43/92/44 79/164/44 53/90/44
f 49/91/1 45/173/1 43/92/1
