# Blender 3.6.1
# www.blender.org
mtllib kamien_6.mtl
o Cube
v -0.250871 0.227862 0.228923
v -0.245503 0.230380 -0.223777
v 0.271179 0.337044 0.224286
v 0.272705 0.337044 -0.229897
v -0.330646 0.047833 0.288020
v -0.308872 0.149456 0.270710
v -0.296177 0.258502 0.139818
v -0.317951 0.272627 -0.000348
v -0.296177 0.258502 -0.140515
v -0.308872 0.149456 -0.270710
v -0.330646 0.047833 -0.288020
v -0.139868 0.270087 -0.271059
v -0.004627 0.379291 -0.293878
v 0.171687 0.365165 -0.276568
v 0.331512 0.162669 -0.270710
v 0.362009 0.048254 -0.288020
v 0.335895 0.365165 -0.146025
v 0.357669 0.379291 -0.005858
v 0.335895 0.365165 0.134309
v 0.331731 0.162348 0.270710
v 0.362055 0.048186 0.288020
v 0.171687 0.365165 0.264852
v -0.004627 0.379291 0.282162
v -0.151323 0.265750 0.270710
v -0.433029 0.047833 0.157409
v -0.401624 0.156977 0.149384
v -0.467309 0.047833 0.000000
v -0.433029 0.163525 0.000000
v -0.433029 0.047833 -0.157409
v -0.401624 0.156977 -0.149384
v -0.166351 0.047833 -0.369413
v -0.156845 0.157838 -0.344447
v 0.000000 0.047833 -0.396666
v -0.005420 0.171475 -0.369413
v 0.198002 0.047833 -0.369413
v 0.181368 0.166569 -0.344447
v 0.464679 0.047833 -0.157409
v 0.426993 0.166189 -0.149384
v 0.498959 0.047833 0.000000
v 0.459532 0.171074 -0.000000
v 0.464679 0.047833 0.157409
v 0.427054 0.166100 0.149384
v 0.198002 0.047833 0.369413
v 0.181856 0.165853 0.344447
v -0.000000 0.047833 0.396666
v -0.004939 0.170770 0.369413
v -0.166351 0.047833 0.369413
v -0.156746 0.157693 0.344447
v 0.183281 0.425337 -0.155242
v -0.004627 0.445710 -0.163267
v -0.150112 0.328279 -0.149732
v 0.193375 0.445710 -0.005858
v -0.004627 0.467949 -0.005858
v -0.159222 0.347209 -0.000348
v 0.183281 0.425337 0.143526
v -0.004627 0.445710 0.151551
v -0.150163 0.328354 0.149035
v -0.294426 0.002106 0.259226
v -0.294426 0.002106 -0.259226
v 0.326076 0.002106 -0.259226
v 0.326076 0.002106 0.259226
v -0.386573 0.002106 0.141672
v -0.417426 0.002106 0.000000
v -0.386573 0.002106 -0.141672
v -0.146556 0.002106 -0.332482
v 0.000000 0.002106 -0.357010
v 0.178207 0.002106 -0.332482
v 0.418223 0.002106 -0.141672
v 0.449077 0.002106 0.000000
v 0.418223 0.002106 0.141672
v 0.178207 0.002106 0.332482
v -0.000000 0.002106 0.357010
v -0.146556 0.002106 0.332482
v 0.015759 0.002106 -0.000000
vn -0.9367 0.2845 0.2040
vn -0.9367 0.2845 -0.2040
vn -0.7591 0.2640 0.5950
vn -0.5420 0.6708 0.5062
vn -0.6749 0.7173 0.1733
vn -0.6755 0.7167 -0.1734
vn -0.5480 0.6972 -0.4622
vn -0.7591 0.2640 -0.5950
vn -0.1573 0.2315 -0.9600
vn 0.1330 0.2217 -0.9660
vn -0.4309 0.2405 -0.8698
vn -0.5042 0.5247 -0.6859
vn -0.3993 0.3145 -0.8612
vn 0.1188 0.3388 -0.9333
vn 0.4713 0.3486 -0.8101
vn 0.4304 0.2461 -0.8685
vn 0.9291 0.3096 -0.2023
vn 0.9292 0.3093 0.2024
vn 0.7528 0.2901 -0.5909
vn 0.6750 0.3762 -0.6347
vn 0.8855 0.4281 -0.1807
vn 0.8814 0.4363 0.1809
vn 0.6806 0.3992 0.6143
vn 0.7530 0.2896 0.5909
vn 0.1329 0.2225 0.9658
vn -0.1573 0.2319 0.9599
vn 0.4304 0.2460 0.8685
vn 0.4385 0.3697 0.8192
vn 0.1206 0.3830 0.9158
vn -0.3479 0.3623 0.8647
vn -0.4899 0.6637 0.5653
vn -0.4309 0.2405 0.8698
vn 0.6685 -0.7293 0.1456
vn 0.1105 0.9837 -0.1416
vn -0.6142 0.7814 -0.1104
vn 0.1105 0.9837 0.1416
vn -0.6093 0.7852 0.1109
vn 0.3404 0.7839 -0.5193
vn 0.1152 0.8855 -0.4502
vn -0.6059 0.7091 -0.3606
vn -0.4765 0.7763 -0.4126
vn -0.4340 0.8901 -0.1393
vn -0.4345 0.8899 0.1387
vn -0.4680 0.7876 0.4008
vn -0.5878 0.7211 0.3667
vn 0.1152 0.8855 0.4502
vn 0.3442 0.7968 0.4966
vn 0.3706 0.9166 0.1499
vn 0.3706 0.9166 -0.1499
vn -0.3274 -0.6754 0.6608
vn 0.1034 -0.6517 -0.7514
vn -0.6685 -0.7293 -0.1456
vn 0.5532 -0.7113 0.4336
vn 0.3303 -0.6720 0.6628
vn 0.3274 -0.6754 -0.6608
vn 0.5554 -0.7063 -0.4389
vn -0.5532 -0.7113 -0.4336
vn 0.1034 -0.6517 0.7514
vn -0.3274 -0.6754 -0.6608
vn 0.6685 -0.7293 -0.1456
vn -0.5532 -0.7113 0.4336
vn -0.1222 -0.6551 -0.7456
vn -0.6685 -0.7293 0.1456
vn -0.1254 -0.6500 0.7495
vn -0.3564 0.6617 -0.6597
vn -0.5829 0.6512 0.4860
vn -0.3925 0.5318 0.7504
vn -0.1812 0.5605 0.8081
vn 0.1325 0.3734 0.9181
vn 0.4194 0.3551 0.8355
vn 0.7232 0.3751 0.5798
vn 0.8837 0.4203 0.2061
vn 0.8882 0.4102 -0.2069
vn 0.7326 0.3453 -0.5866
vn 0.4254 0.3112 -0.8498
vn 0.1336 0.3263 -0.9358
vn -0.1837 0.5572 -0.8098
vn -0.9376 0.2778 0.2093
vn -0.9376 0.2778 -0.2093
vn -0.7587 0.2622 0.5963
vn -0.6768 0.7145 0.1771
vn -0.6774 0.7139 -0.1772
vn -0.5553 0.6247 -0.5490
vn -0.7587 0.2622 -0.5963
vn -0.1771 0.2044 -0.9627
vn 0.1349 0.2189 -0.9664
vn -0.4346 0.2349 -0.8694
vn 0.4327 0.2432 -0.8681
vn 0.9307 0.2978 -0.2125
vn 0.9307 0.2978 0.2123
vn 0.7505 0.2796 -0.5988
vn 0.7508 0.2795 0.5985
vn 0.1349 0.2196 0.9662
vn -0.1761 0.2063 0.9625
vn 0.4328 0.2429 0.8682
vn -0.4342 0.2356 0.8695
vn 0.1126 0.9839 -0.1390
vn -0.6299 0.7648 -0.1353
vn 0.1126 0.9839 0.1390
vn -0.6234 0.7702 0.1350
vn 0.4223 0.7954 -0.4348
vn 0.1151 0.8854 -0.4503
vn -0.6188 0.6866 -0.3816
vn -0.3984 0.7678 -0.5018
vn -0.4201 0.8941 -0.1554
vn -0.4201 0.8941 0.1554
vn -0.4041 0.7821 0.4744
vn -0.5873 0.7219 0.3659
vn 0.1151 0.8854 0.4503
vn 0.4052 0.8031 0.4370
vn 0.3705 0.9166 0.1500
vn 0.3705 0.9166 -0.1500
vn 0.5551 -0.7071 0.4380
vn 0.3274 -0.6754 0.6608
vn 0.3308 -0.6714 -0.6632
vn 0.5532 -0.7113 -0.4336
vn -0.5532 -0.7113 -0.4337
vn -0.5532 -0.7113 0.4337
vn -0.1254 -0.6500 -0.7495
vn -0.1222 -0.6551 0.7456
vn -0.0000 -1.0000 -0.0000
vt 0.117235 0.398796
vt 0.116642 0.546016
vt 0.033510 0.444864
vt 0.257275 0.501684
vt 0.237923 0.595398
vt 0.085299 0.320411
vt 0.000136 0.329419
vt 0.147654 0.312622
vt 0.178670 0.351787
vt 0.179517 0.460572
vt 0.283549 0.427757
vt 0.328788 0.444483
vt 0.340936 0.509489
vt 0.357993 0.593096
vt 0.415199 0.469379
vt 0.548252 0.474302
vt 0.468892 0.548060
vt 0.497925 0.340432
vt 0.593892 0.359083
vt 0.364102 0.406318
vt 0.372348 0.344893
vt 0.460129 0.413342
vt 0.397718 0.309515
vt 0.408328 0.278493
vt 0.505654 0.263749
vt 0.593892 0.246616
vt 0.475973 0.190879
vt 0.481048 0.049110
vt 0.558471 0.141301
vt 0.346912 0.096055
vt 0.369686 0.002481
vt 0.389667 0.249942
vt 0.356025 0.222287
vt 0.419722 0.132698
vt 0.319702 0.197975
vt 0.284858 0.187966
vt 0.268654 0.089341
vt 0.258492 0.000136
vt 0.197497 0.119445
vt 0.054962 0.112347
vt 0.151043 0.034015
vt 0.100176 0.237193
vt 0.009120 0.210359
vt 0.259513 0.207673
vt 0.232575 0.243307
vt 0.139337 0.177295
vt 0.170823 0.269977
vt 0.594163 0.250755
vt 0.629812 0.171610
vt 0.630899 0.243967
vt 0.362925 0.284005
vt 0.304624 0.292209
vt 0.329855 0.257738
vt 0.338829 0.318514
vt 0.265887 0.342690
vt 0.294778 0.233918
vt 0.268880 0.267715
vt 0.314444 0.373835
vt 0.221513 0.305521
vt 0.839949 0.002967
vt 0.894627 0.063366
vt 0.831600 0.038155
vt 0.843957 0.423995
vt 0.764949 0.388561
vt 0.836675 0.387539
vt 0.999654 0.175641
vt 0.964424 0.254670
vt 0.963081 0.182156
vt 0.594255 0.163608
vt 0.654562 0.107612
vt 0.684743 0.031081
vt 0.625158 0.087453
vt 0.756758 0.423995
vt 0.701532 0.363104
vt 0.625377 0.332070
vt 0.681160 0.392362
vt 0.999864 0.262263
vt 0.940845 0.318617
vt 0.766221 0.000136
vt 0.704966 0.061325
vt 0.911790 0.394751
vt 0.970158 0.338096
vt 0.655776 0.311962
vt 0.969773 0.094541
vt 0.914876 0.034649
vt 0.891293 0.364945
vt 0.939474 0.114136
vt 0.772472 0.036773
vt 0.228682 0.393425
vt 0.911296 0.502471
vt 0.935611 0.570589
vt 0.764861 0.600151
vt 0.935611 0.642917
vt 0.909389 0.707471
vt 0.857407 0.753871
vt 0.789289 0.778186
vt 0.729433 0.776027
vt 0.664878 0.749804
vt 0.618479 0.697823
vt 0.594163 0.629704
vt 0.594163 0.557377
vt 0.620386 0.492822
vt 0.672368 0.446423
vt 0.728014 0.424266
vt 0.800342 0.424266
vt 0.864896 0.450489
s 0
usemtl kamien
f 26/1/1 27/2/1 25/3/1
f 27/2/2 30/4/2 29/5/2
f 6/6/3 25/3/3 5/7/3
f 6/6/4 1/8/4 7/9/4
f 7/9/5 28/10/5 26/1/5
f 28/10/6 9/11/6 30/4/6
f 30/4/7 2/12/7 10/13/7
f 29/5/8 10/13/8 11/14/8
f 32/15/9 33/16/9 31/17/9
f 33/16/10 36/18/10 35/19/10
f 10/13/11 31/17/11 11/14/11
f 2/12/12 12/20/12 32/15/12
f 12/20/13 13/21/13 34/22/13
f 34/22/14 13/21/14 14/23/14
f 14/23/15 4/24/15 15/25/15
f 35/19/16 15/25/16 16/26/16
f 38/27/17 39/28/17 37/29/17
f 39/28/18 42/30/18 41/31/18
f 15/25/19 37/29/19 16/26/19
f 15/25/20 4/24/20 17/32/20
f 17/32/21 18/33/21 40/34/21
f 40/34/22 18/33/22 19/35/22
f 19/35/23 3/36/23 20/37/23
f 41/31/24 20/37/24 21/38/24
f 44/39/25 45/40/25 43/41/25
f 45/40/26 48/42/26 47/43/26
f 20/37/27 43/41/27 21/38/27
f 20/37/28 3/36/28 22/44/28
f 22/44/29 23/45/29 46/46/29
f 46/46/30 23/45/30 24/47/30
f 24/47/31 1/8/31 6/6/31
f 47/43/32 6/6/32 5/7/32
f 39/48/33 70/49/33 69/50/33
f 49/51/34 53/52/34 52/53/34
f 50/54/35 54/55/35 53/52/35
f 53/52/36 55/56/36 52/53/36
f 54/55/37 56/57/37 53/52/37
f 4/24/38 49/51/38 17/32/38
f 14/23/39 50/54/39 49/51/39
f 13/21/40 51/58/40 50/54/40
f 2/12/41 51/58/41 12/20/41
f 9/11/42 54/55/42 51/58/42
f 54/55/43 7/9/43 57/59/43
f 57/59/44 1/8/44 24/47/44
f 57/59/45 23/45/45 56/57/45
f 56/57/46 22/44/46 55/56/46
f 55/56/47 3/36/47 19/35/47
f 52/53/48 19/35/48 18/33/48
f 17/32/49 52/53/49 18/33/49
f 47/60/50 58/61/50 73/62/50
f 33/63/51 67/64/51 66/65/51
f 27/66/52 64/67/52 63/68/52
f 41/69/53 61/70/53 70/49/53
f 43/71/54 61/70/54 21/72/54
f 35/73/55 60/74/55 67/64/55
f 37/75/56 60/74/56 16/76/56
f 29/77/57 59/78/57 64/67/57
f 45/79/58 71/80/58 43/71/58
f 31/81/59 59/78/59 11/82/59
f 39/48/60 68/83/60 37/75/60
f 25/84/61 58/61/61 5/85/61
f 33/63/62 65/86/62 31/81/62
f 27/66/63 62/87/63 25/84/63
f 45/79/64 73/62/64 72/88/64
f 10/13/65 2/12/65 32/15/65
f 26/1/66 6/6/66 7/9/66
f 48/42/67 24/47/67 6/6/67
f 48/42/68 46/46/68 24/47/68
f 44/39/69 22/44/69 46/46/69
f 44/39/70 20/37/70 22/44/70
f 42/30/71 19/35/71 20/37/71
f 42/30/72 40/34/72 19/35/72
f 38/27/73 17/32/73 40/34/73
f 38/27/74 15/25/74 17/32/74
f 36/18/75 14/23/75 15/25/75
f 36/18/76 34/22/76 14/23/76
f 32/15/77 12/20/77 34/22/77
f 26/1/78 28/10/78 27/2/78
f 27/2/79 28/10/79 30/4/79
f 6/6/80 26/1/80 25/3/80
f 7/9/81 8/89/81 28/10/81
f 28/10/82 8/89/82 9/11/82
f 30/4/83 9/11/83 2/12/83
f 29/5/84 30/4/84 10/13/84
f 32/15/85 34/22/85 33/16/85
f 33/16/86 34/22/86 36/18/86
f 10/13/87 32/15/87 31/17/87
f 35/19/88 36/18/88 15/25/88
f 38/27/89 40/34/89 39/28/89
f 39/28/90 40/34/90 42/30/90
f 15/25/91 38/27/91 37/29/91
f 41/31/92 42/30/92 20/37/92
f 44/39/93 46/46/93 45/40/93
f 45/40/94 46/46/94 48/42/94
f 20/37/95 44/39/95 43/41/95
f 47/43/96 48/42/96 6/6/96
f 39/48/33 41/69/33 70/49/33
f 49/51/97 50/54/97 53/52/97
f 50/54/98 51/58/98 54/55/98
f 53/52/99 56/57/99 55/56/99
f 54/55/100 57/59/100 56/57/100
f 4/24/101 14/23/101 49/51/101
f 14/23/102 13/21/102 50/54/102
f 13/21/103 12/20/103 51/58/103
f 2/12/104 9/11/104 51/58/104
f 9/11/105 8/89/105 54/55/105
f 54/55/106 8/89/106 7/9/106
f 57/59/107 7/9/107 1/8/107
f 57/59/108 24/47/108 23/45/108
f 56/57/109 23/45/109 22/44/109
f 55/56/110 22/44/110 3/36/110
f 52/53/111 55/56/111 19/35/111
f 17/32/112 49/51/112 52/53/112
f 47/60/50 5/85/50 58/61/50
f 33/63/51 35/73/51 67/64/51
f 27/66/52 29/77/52 64/67/52
f 41/69/113 21/72/113 61/70/113
f 43/71/114 71/80/114 61/70/114
f 35/73/115 16/76/115 60/74/115
f 37/75/116 68/83/116 60/74/116
f 29/77/117 11/82/117 59/78/117
f 45/79/58 72/88/58 71/80/58
f 31/81/59 65/86/59 59/78/59
f 39/48/60 69/50/60 68/83/60
f 25/84/118 62/87/118 58/61/118
f 33/63/119 66/65/119 65/86/119
f 27/66/63 63/68/63 62/87/63
f 45/79/120 47/60/120 73/62/120
f 68/90/121 69/91/121 74/92/121
f 69/91/121 70/93/121 74/92/121
f 70/93/121 61/94/121 74/92/121
f 61/94/121 71/95/121 74/92/121
f 71/95/121 72/96/121 74/92/121
f 72/96/121 73/97/121 74/92/121
f 73/97/121 58/98/121 74/92/121
f 58/98/121 62/99/121 74/92/121
f 62/99/121 63/100/121 74/92/121
f 63/100/121 64/101/121 74/92/121
f 64/101/121 59/102/121 74/92/121
f 59/102/121 65/103/121 74/92/121
f 65/103/121 66/104/121 74/92/121
f 66/104/121 67/105/121 74/92/121
f 67/105/121 60/106/121 74/92/121
f 60/106/121 68/90/121 74/92/121
