# Blender 4.4.3
# www.blender.org
mtllib kamien_3.mtl
o rock.003
v 0.007569 2.305662 2.043518
v 0.566222 4.843011 -1.571526
v -4.986919 3.195010 3.552666
v -2.231512 0.016099 -2.434493
v -5.683924 0.016099 -2.463295
v -6.502470 0.016099 0.855054
v -4.716976 6.234460 1.721818
v -7.120249 4.866479 0.094270
v 0.502115 5.700126 -0.415193
v -0.781606 1.032795 2.588498
v -6.226578 5.211121 2.522188
v -0.728201 6.285591 -1.324743
v -2.733356 7.366498 -1.850339
v -6.665543 5.902459 1.769676
v -6.263131 6.737218 0.342235
v -6.497180 1.439654 -2.139520
v -6.432401 5.184465 -1.864564
v -6.670240 1.051774 2.410207
v 1.280584 3.164612 -0.518250
v 0.600393 3.909775 1.039146
v -2.601336 2.477166 3.408792
v -2.172775 5.206681 1.395989
v -5.182929 7.286522 -1.006182
v -4.567251 7.654196 -0.305788
v -1.874039 7.143206 -0.482841
v -0.654072 3.994920 -2.378486
v -2.313922 0.135003 -2.893574
v 0.169330 2.077176 -1.955668
v -5.081459 2.761079 -3.061591
v -2.553325 6.468737 -2.565562
v -1.853830 0.016099 -0.421628
v -2.299074 0.016099 1.705165
v 0.363041 0.853263 -0.533954
v -0.167842 0.274658 1.105751
v -2.336435 -0.027641 2.847481
v -3.844239 0.533792 3.361634
v -7.028970 3.904049 2.508029
v -7.292145 1.924053 0.824565
v -6.479712 6.528708 -0.803683
v 0.867447 1.655779 0.648806
v -1.946807 6.395029 0.320671
v -5.521057 6.823609 1.330865
v -5.212985 6.341078 -2.074657
v -4.629749 0.016099 1.558498
v -0.573744 0.597780 -2.060487
v -4.455039 0.016099 -2.251657
v -6.180930 2.719220 3.364377
vn 0.9164 0.1356 0.3765
vn 0.9536 0.1790 0.2420
vn 0.9558 0.2921 0.0329
vn 0.9191 -0.2965 0.2595
vn 0.6048 0.7098 -0.3611
vn 0.6124 0.2983 -0.7321
vn 0.5419 0.7274 -0.4211
vn 0.3919 0.8795 0.2700
vn 0.8157 -0.3787 -0.4372
vn 0.6801 -0.1749 -0.7119
vn 0.8704 -0.4361 -0.2285
vn 0.2668 0.1932 0.9442
vn 0.3841 0.5181 0.7642
vn 0.3305 0.5546 0.7637
vn 0.0414 -0.1814 0.9825
vn 0.0002 0.2389 0.9711
vn -0.2914 -0.0072 0.9566
vn 0.3849 -0.0314 0.9224
vn -0.2721 0.4731 0.8379
vn 0.2078 0.6186 0.7577
vn 0.3388 0.6419 0.6879
vn 0.3759 0.6057 0.7013
vn -0.3861 0.8457 -0.3683
vn -0.3223 0.9360 -0.1418
vn -0.1905 0.6964 -0.6919
vn -0.5351 0.5757 -0.6183
vn -0.3528 0.4967 -0.7930
vn 0.1633 0.4301 -0.8879
vn -0.4608 0.8448 0.2721
vn -0.6397 0.7595 0.1181
vn -0.8822 0.4477 0.1461
vn 0.3646 0.0911 -0.9267
vn 0.1574 -0.0598 -0.9857
vn 0.3946 0.8802 -0.2638
vn 0.4620 -0.1704 -0.8704
vn -0.2543 0.0410 -0.9662
vn -0.5269 -0.0282 -0.8495
vn -0.4899 0.2948 -0.8204
vn -0.0340 -0.9955 0.0879
vn 0.0561 -0.9983 -0.0154
vn 0.2244 -0.9698 -0.0959
vn -0.1221 -0.9715 0.2030
vn 0.3436 -0.9286 -0.1398
vn 0.1599 -0.9863 -0.0401
vn 0.3504 -0.9329 -0.0827
vn -0.2441 -0.8987 0.3644
vn -0.2392 -0.8529 0.4641
vn -0.0000 -1.0000 -0.0000
vn 0.1831 -0.9698 -0.1611
vn 0.0002 -0.9998 -0.0181
vn -0.9845 -0.1750 -0.0067
vn -0.9798 0.1709 -0.1039
vn -0.9350 -0.2818 -0.2153
vn -0.9680 0.0306 0.2492
vn -0.9205 -0.3823 -0.0813
vn -0.8850 -0.4273 -0.1849
vn -0.7831 -0.1194 0.6103
vn -0.9205 -0.2325 0.3140
vn -0.3530 0.5773 0.7363
vn -0.4981 0.2969 0.8147
vn -0.8259 0.5541 -0.1044
vn 0.8682 -0.1973 -0.4554
vn 0.9406 0.2956 -0.1669
vn 0.8161 -0.1292 0.5633
vn 0.6541 -0.5054 0.5628
vn 0.7455 -0.5215 0.4151
vn 0.4607 0.2644 0.8472
vn 0.0969 0.7052 0.7024
vn 0.1956 0.8841 0.4243
vn 0.1524 -0.9498 -0.2733
vn -0.2683 -0.1486 -0.9518
vn 0.5313 -0.6448 0.5496
vn 0.2657 -0.1573 0.9511
vn -0.3570 -0.3828 0.8521
vn -0.1985 -0.8255 0.5283
vn -0.9433 0.1082 -0.3137
vt 0.456507 0.562449
vt 0.381855 0.637759
vt 0.367032 0.540638
vt 0.489940 0.648571
vt 0.313185 0.573384
vt 0.318246 0.501913
vt 0.341185 0.444848
vt 0.150542 0.680929
vt 0.241587 0.659922
vt 0.390745 0.745468
vt 0.576147 0.358260
vt 0.444929 0.419514
vt 0.657670 0.217313
vt 0.518251 0.244930
vt 0.474408 0.179739
vt 0.615020 0.504636
vt 0.409109 0.240512
vt 0.398150 0.318956
vt 0.381930 0.435568
vt 0.284675 0.336368
vt 0.314724 0.352666
vt 0.281733 0.428008
vt 0.277317 0.284758
vt 0.235180 0.338443
vt 0.244113 0.448206
vt 0.365579 0.301062
vt 0.321843 0.286415
vt 0.367142 0.247127
vt 0.231123 0.565009
vt 0.000103 0.539049
vt 0.094248 0.326954
vt 0.095104 0.197214
vt 0.212738 0.279460
vt 0.924115 0.014856
vt 0.883724 0.053224
vt 0.788211 0.000103
vt 0.960110 0.138865
vt 0.707025 0.036264
vt 0.795329 0.111575
vt 0.689877 0.122635
vt 0.439008 0.079087
vt 0.537853 0.023285
vt 0.999897 0.228534
vt 0.821946 0.264622
vt 0.739410 0.194293
vt 0.856722 0.314400
vt 0.312018 0.090631
vt 0.290173 0.211290
vt 0.400998 0.179629
vt 0.313429 0.000103
vt 0.000103 0.180451
vt 0.538402 0.532894
vt 0.616581 0.639964
vt 0.725294 0.213127
vt 0.999897 0.047068
vt 0.689672 0.385135
s 1
usemtl kamien_3
f 20/1/1 19/2/2 9/3/3
f 40/4/4 19/2/2 20/1/1
f 9/3/5 2/5/6 12/6/7
f 9/3/5 12/6/7 25/7/8
f 45/8/9 28/9/10 33/10/11
f 21/11/12 20/1/13 22/12/14
f 36/13/15 3/14/16 47/15/17
f 21/11/12 22/12/14 3/14/16
f 10/16/18 21/11/12 36/13/15
f 11/17/19 3/14/16 7/18/20
f 41/19/21 22/12/14 9/3/22
f 7/18/20 22/12/14 41/19/21
f 23/20/23 24/21/24 13/22/25
f 39/23/26 23/20/23 43/24/27
f 43/24/27 13/22/25 30/25/28
f 42/26/29 15/27/30 14/28/31
f 26/29/32 27/30/33 30/25/28
f 12/6/7 30/25/28 13/22/34
f 2/5/6 26/29/32 30/25/28
f 2/5/6 28/9/10 26/29/32
f 45/8/35 27/30/33 28/9/10
f 29/31/36 16/32/37 17/33/38
f 29/31/36 17/33/38 43/24/27
f 30/25/28 29/31/36 43/24/27
f 35/34/39 32/35/40 34/36/41
f 32/35/40 35/34/39 44/37/42
f 33/38/43 31/39/44 45/40/45
f 34/36/41 31/39/44 33/38/43
f 36/13/46 18/41/47 44/42/42
f 44/37/42 6/43/48 46/44/48
f 31/39/44 46/44/48 4/45/49
f 46/44/48 5/46/50 4/45/49
f 31/39/44 4/45/49 45/40/45
f 38/47/51 8/48/52 16/32/53
f 37/49/54 8/48/52 38/47/51
f 6/50/55 38/47/51 5/51/56
f 47/15/57 37/49/54 18/41/58
f 11/17/19 14/28/59 37/49/60
f 8/48/52 14/28/31 39/23/61
f 33/10/11 28/9/10 19/2/62
f 9/3/3 19/2/2 2/5/63
f 1/52/64 10/16/65 40/4/4
f 1/52/64 40/4/4 20/1/1
f 10/16/65 34/53/66 40/4/4
f 34/53/66 33/10/11 40/4/4
f 28/9/10 2/5/6 19/2/62
f 33/10/11 19/2/62 40/4/4
f 9/3/22 22/12/14 20/1/13
f 36/13/15 21/11/12 3/14/16
f 1/52/67 20/1/13 21/11/12
f 10/16/18 1/52/67 21/11/12
f 7/18/20 3/14/16 22/12/14
f 25/7/8 41/19/21 9/3/22
f 42/26/68 7/18/20 41/19/21
f 42/26/68 11/17/19 7/18/20
f 14/28/59 11/17/19 42/26/68
f 3/14/16 11/17/19 47/15/17
f 13/22/34 24/21/69 25/7/8
f 23/20/23 15/27/30 24/21/24
f 42/26/29 24/21/24 15/27/30
f 12/6/7 13/22/34 25/7/8
f 25/7/8 24/21/69 42/26/68
f 41/19/21 25/7/8 42/26/68
f 39/23/61 15/27/30 23/20/23
f 43/24/27 23/20/23 13/22/25
f 30/25/28 27/30/33 29/31/36
f 12/6/7 2/5/6 30/25/28
f 28/9/10 27/30/33 26/29/32
f 45/40/45 4/45/49 27/54/70
f 27/54/70 4/45/49 5/46/50
f 29/31/36 27/30/33 5/51/71
f 29/31/36 5/51/71 16/32/37
f 43/24/27 17/33/38 39/23/26
f 34/36/41 32/35/40 31/39/44
f 31/39/44 44/37/42 46/44/48
f 32/35/40 44/37/42 31/39/44
f 35/34/39 36/55/46 44/37/42
f 10/16/65 35/56/72 34/53/66
f 35/56/73 10/16/18 36/13/15
f 36/13/15 47/15/17 18/41/74
f 44/42/42 18/41/47 6/50/75
f 46/44/48 6/43/48 5/46/50
f 5/51/56 38/47/51 16/32/53
f 6/50/55 18/41/58 38/47/51
f 18/41/58 37/49/54 38/47/51
f 47/15/17 11/17/19 37/49/60
f 8/48/52 37/49/54 14/28/31
f 39/23/61 14/28/31 15/27/30
f 8/48/52 39/23/61 17/33/76
f 16/32/53 8/48/52 17/33/76
