# Blender 4.4.3
# www.blender.org
mtllib glaz_1.mtl
o rock.007
v -9.516601 -0.065138 1.994953
v -10.967888 0.642249 -1.052399
v -10.343044 -0.065138 -1.335380
v -11.069716 0.815229 1.895860
v -9.711576 0.973299 5.371008
v -8.138340 -0.065138 -5.877275
v -7.439540 -0.065138 6.308586
v -2.627726 -0.065138 2.088972
v -3.529729 -0.065138 -3.532047
v -3.316250 -0.065138 7.558381
v 1.396142 -0.065138 8.046345
v 1.671273 -0.065138 -0.229657
v 3.189832 -0.065138 5.221390
v 2.501518 -0.065138 6.985748
v 5.236935 -0.065138 6.010268
v 7.228800 -0.065138 2.458203
v -0.125792 1.927117 8.866564
v 5.279171 2.692130 5.417435
v 1.346102 4.711384 6.696711
v 2.642421 7.302544 3.159057
v 5.988152 5.711050 0.663502
v 7.700577 -0.065138 -1.910530
v 1.980409 8.392836 -1.895426
v 5.492096 3.126053 -5.838331
v 5.251455 -0.065138 -7.711948
v -1.232615 2.487293 -10.903574
v -5.047904 4.744070 -7.906138
v -4.126988 1.582064 -11.317852
v 0.102883 -0.065138 -11.521273
v 0.949873 -0.065138 -9.457914
v -3.795033 -0.065138 -10.035782
v -7.481426 1.533999 -9.279564
v -10.483385 2.215368 -2.980392
v -7.886787 5.234731 -5.508129
v -3.157523 8.574190 1.026315
v -8.190605 5.153726 -0.565717
v -0.854356 9.067867 -0.627926
v -0.524881 8.960526 2.279241
v -2.033395 4.578977 7.532489
v -5.327040 5.662740 4.618320
v -7.195218 1.323498 7.609873
v -3.356565 1.471836 8.759330
v -0.968666 -0.065138 -3.599148
v 5.571527 -0.065138 1.699318
vn -0.7024 -0.6901 0.1743
vn -0.4945 -0.8685 0.0339
vn -0.0000 -1.0000 -0.0000
vn -0.4910 -0.8402 0.2301
vn -0.4819 -0.8449 0.2321
vn 0.8686 0.0914 0.4871
vn 0.4684 -0.0059 0.8835
vn 0.5123 0.1730 0.8412
vn 0.5081 0.5954 0.6223
vn 0.4577 0.3833 0.8023
vn 0.6416 0.6006 0.4771
vn 0.9008 0.2930 0.3204
vn 0.9652 0.2397 0.1042
vn 0.9065 0.3641 -0.2139
vn 0.4980 0.8588 0.1200
vn 0.6596 0.6798 -0.3206
vn 0.5267 0.4005 -0.7498
vn 0.9099 0.1569 -0.3841
vn 0.3837 0.7036 -0.5981
vn 0.0494 0.8271 -0.5599
vn -0.1233 0.7110 -0.6923
vn 0.5308 0.4513 -0.7174
vn 0.0558 0.2624 -0.9634
vn -0.2782 -0.6243 -0.7300
vn -0.4046 -0.6111 -0.6803
vn -0.4315 -0.7815 -0.4506
vn -0.8300 0.3509 -0.4335
vn -0.8392 -0.4115 -0.3554
vn -0.4191 0.6067 -0.6754
vn -0.4439 0.6153 -0.6514
vn -0.3490 0.9124 -0.2137
vn -0.5575 0.8299 -0.0207
vn -0.7728 0.6335 -0.0371
vn -0.1966 0.8885 -0.4146
vn -0.0189 0.8643 -0.5026
vn 0.2355 0.9718 0.0092
vn -0.1709 0.9837 0.0557
vn 0.1958 0.7247 0.6607
vn 0.4295 0.8927 0.1363
vn -0.3394 0.8205 0.4601
vn -0.2535 0.7774 0.5756
vn -0.5974 0.7602 0.2554
vn -0.6710 0.6762 0.3042
vn -0.5686 0.6186 0.5423
vn -0.3876 0.6305 0.6725
vn -0.2719 0.4514 0.8499
vn -0.1942 -0.6524 0.7326
vn -0.5194 -0.5339 0.6672
vn -0.2315 -0.6027 0.7636
vn -0.0812 -0.6150 0.7843
vn 0.0208 -0.3670 0.9300
vn -0.0863 0.3975 0.9135
vn 0.1815 0.5430 0.8199
vn 0.1216 0.7790 0.6151
vn -0.7316 0.6314 0.2572
vn -0.8130 0.5783 0.0683
vn -0.9695 0.2403 -0.0476
vn -0.8428 -0.2934 -0.4512
vn -0.7646 -0.5269 -0.3711
vt 0.538656 0.426881
vt 0.561074 0.422844
vt 0.504053 0.533916
vt 0.485303 0.491916
vt 0.999899 0.226048
vt 0.987377 0.303993
vt 0.900029 0.380151
vt 0.402133 0.540941
vt 0.348917 0.602780
vt 0.855125 0.162141
vt 0.994584 0.115992
vt 0.823767 0.289183
vt 0.743438 0.172816
vt 0.918365 0.052521
vt 0.822770 0.000101
vt 0.789920 0.012739
vt 0.759668 0.043958
vt 0.723199 0.009123
vt 0.649515 0.066665
vt 0.054429 0.340701
vt 0.000102 0.376056
vt 0.000102 0.229858
vt 0.133112 0.489880
vt 0.069947 0.492103
vt 0.149146 0.407502
vt 0.173757 0.317150
vt 0.131210 0.230259
vt 0.067356 0.102208
vt 0.214323 0.085830
vt 0.243463 0.235371
vt 0.235939 0.001940
vt 0.421120 0.074270
vt 0.446457 0.192601
vt 0.497525 0.101736
vt 0.419933 0.000102
vt 0.545372 0.078274
vt 0.676002 0.374310
vt 0.770909 0.429158
vt 0.674549 0.426323
vt 0.600782 0.299023
vt 0.534664 0.190914
vt 0.600579 0.265279
vt 0.463937 0.275672
vt 0.528339 0.361083
vt 0.280086 0.288304
vt 0.304490 0.341265
vt 0.428435 0.377390
vt 0.246499 0.332352
vt 0.206035 0.467920
vt 0.307376 0.443674
vt 0.320794 0.561592
vt 0.209420 0.547907
vt 0.199218 0.588769
vt 0.769055 0.267665
vt 0.600782 0.154775
vt 0.677937 0.097379
s 0
usemtl glaz_1
f 2/1/1 3/2/1 1/3/1
f 4/4/2 2/1/2 1/3/2
f 1/5/3 3/6/3 6/7/3
f 4/4/4 1/3/4 5/8/4
f 1/3/5 7/9/5 5/8/5
f 8/10/3 1/5/3 6/7/3
f 1/5/3 8/10/3 7/11/3
f 9/12/3 12/13/3 8/10/3
f 8/10/3 6/7/3 9/12/3
f 8/10/3 10/14/3 7/11/3
f 8/10/3 11/15/3 10/14/3
f 11/15/3 8/10/3 14/16/3
f 12/13/3 13/17/3 8/10/3
f 13/17/3 14/16/3 8/10/3
f 15/18/3 11/15/3 14/16/3
f 14/16/3 13/17/3 15/18/3
f 13/17/3 16/19/3 15/18/3
f 18/20/6 15/21/6 16/22/6
f 17/23/7 11/24/7 15/21/7
f 18/20/8 17/23/8 15/21/8
f 19/25/9 18/20/9 20/26/9
f 19/25/10 17/23/10 18/20/10
f 20/26/11 18/20/11 21/27/11
f 21/27/12 18/20/12 16/22/12
f 21/27/13 16/22/13 22/28/13
f 22/28/14 24/29/14 21/27/14
f 20/26/15 21/27/15 23/30/15
f 21/27/16 24/29/16 23/30/16
f 24/29/17 25/31/17 26/32/17
f 22/28/18 25/31/18 24/29/18
f 24/29/19 26/32/19 23/30/19
f 23/30/20 26/32/20 27/33/20
f 27/33/21 26/32/21 28/34/21
f 26/32/22 25/31/22 29/35/22
f 26/32/23 29/35/23 28/34/23
f 31/36/24 28/34/24 29/35/24
f 30/37/3 31/38/3 29/39/3
f 29/39/3 25/40/3 30/37/3
f 31/38/3 9/12/3 6/7/3
f 30/37/3 9/12/3 31/38/3
f 28/34/25 31/36/25 32/41/25
f 31/36/26 6/42/26 32/41/26
f 34/43/27 32/41/27 33/44/27
f 33/44/28 32/41/28 6/42/28
f 27/33/29 28/34/29 32/41/29
f 27/33/30 32/41/30 34/43/30
f 37/45/31 34/43/31 35/46/31
f 35/46/32 34/43/32 36/47/32
f 34/43/33 33/44/33 36/47/33
f 27/33/34 34/43/34 37/45/34
f 23/30/35 27/33/35 37/45/35
f 38/48/36 23/30/36 37/45/36
f 37/45/37 35/46/37 38/48/37
f 39/49/38 20/26/38 38/48/38
f 20/26/39 23/30/39 38/48/39
f 38/48/40 35/46/40 40/50/40
f 38/48/41 40/50/41 39/49/41
f 35/46/42 36/47/42 40/50/42
f 36/47/43 5/8/43 40/50/43
f 40/50/44 5/8/44 41/51/44
f 40/50/45 41/51/45 39/49/45
f 41/51/46 42/52/46 39/49/46
f 41/51/47 7/9/47 42/52/47
f 5/8/48 7/9/48 41/51/48
f 7/9/49 10/53/49 42/52/49
f 10/53/50 11/24/50 42/52/50
f 17/23/51 42/52/51 11/24/51
f 39/49/52 42/52/52 17/23/52
f 39/49/53 17/23/53 19/25/53
f 39/49/54 19/25/54 20/26/54
f 36/47/55 4/4/55 5/8/55
f 36/47/56 33/44/56 4/4/56
f 33/44/57 2/1/57 4/4/57
f 6/42/58 2/1/58 33/44/58
f 43/54/3 30/37/3 25/40/3
f 9/12/3 30/37/3 43/54/3
f 9/12/3 43/54/3 12/13/3
f 12/13/3 43/54/3 25/40/3
f 12/13/3 25/40/3 22/55/3
f 44/56/3 12/13/3 22/55/3
f 16/19/3 44/56/3 22/55/3
f 13/17/3 44/56/3 16/19/3
f 13/17/3 12/13/3 44/56/3
f 6/42/59 3/2/59 2/1/59
