# Blender 4.4.3
# www.blender.org
mtllib platforma_1.mtl
o Cube.001
v -5.204111 0.242790 5.832523
v -4.735801 2.231206 5.447169
v -4.908047 0.242790 -5.400242
v -4.384183 2.231206 -4.853030
v 3.053395 0.242790 5.699419
v 3.053395 0.242790 -5.038447
v -4.908047 0.242790 -1.459158
v -5.204111 0.242790 1.720819
v -4.908047 0.909457 5.699419
v -4.908047 1.576124 5.699419
v -4.735801 2.231206 2.082276
v -4.384183 2.231206 -1.867875
v -4.908047 1.576124 -5.038447
v -4.908047 0.909457 -5.038447
v 0.399581 0.242790 -5.400242
v -2.254233 0.242790 -5.400242
v -2.170881 2.231206 -4.853030
v 0.399581 2.231206 -5.038447
v 3.053395 1.576124 -5.038447
v 3.053395 0.909457 -5.038447
v 3.053395 0.242790 2.120131
v 3.053395 0.242790 -1.459158
v 3.053395 2.231206 -1.459158
v 3.053395 2.231206 2.120131
v 3.053395 1.576124 6.118992
v 3.053395 0.909457 6.118992
v -2.155545 0.242790 6.252096
v 0.893020 0.242790 6.252096
v 0.253907 2.231206 5.447169
v 0.399581 2.231206 -1.459158
v 0.399581 2.231206 2.120131
v -2.254233 2.231206 -1.459158
v -2.254233 2.231206 2.120131
v -2.254233 0.242790 -1.459158
v -2.254233 0.242790 2.120131
v 0.399581 0.242790 -1.459158
v 0.399581 0.242790 2.120131
v 0.399581 0.909457 6.118992
v -2.254233 0.909457 6.118992
v 0.399581 1.576124 6.118992
v -2.254233 1.576124 6.118992
v 3.053395 0.909457 2.120131
v 3.053395 1.576124 2.120131
v -2.254233 0.909457 -5.038447
v 0.399581 0.909457 -5.038447
v -2.254233 1.576124 -5.038447
v 0.399581 1.576124 -5.038447
v -4.908047 0.909457 2.120131
v -4.908047 0.909457 -1.459158
v -4.908047 1.576124 2.120131
v -4.908047 1.576124 -1.459158
v 5.085966 0.746978 -4.552727
v 5.085966 0.170780 -4.552727
v 5.085966 0.170780 -1.459158
v 5.085966 1.899374 -4.552727
v 5.085966 1.323176 -4.552727
v 5.085966 0.170780 1.634411
v 5.085966 1.899374 -1.459158
v 5.085966 1.899374 1.634411
v 5.085966 0.746978 1.634411
v 5.085966 1.323176 1.634411
v 7.400494 0.704732 -4.131364
v 7.400494 0.254996 -4.131364
v 7.400494 0.254996 -1.716763
v 6.575283 1.604203 -4.131364
v 7.400494 1.154468 -4.131364
v 7.400494 0.254996 0.697839
v 6.575283 1.604203 -1.716763
v 6.575283 1.604203 0.697839
v 7.400494 0.704732 -1.716763
v 7.400494 1.154468 -1.716763
v 7.400494 1.154468 0.697839
v 9.310979 0.698431 -3.894547
v 9.310979 0.299105 -3.894547
v 9.310979 0.299105 -1.750593
v 9.310979 0.299105 0.393359
v 7.400494 0.604880 0.697839
v 7.400494 0.704732 0.158035
v 7.400494 0.804579 0.697839
v 7.020711 0.711664 0.851517
v 8.913548 0.699741 -1.743556
v 9.310979 0.598579 -1.750593
v 9.310979 0.698431 -2.286668
v 9.095064 0.840076 -1.968294
v 9.310979 0.598579 0.393359
v 8.913548 0.699741 -0.083104
v 9.848422 0.327597 1.102959
v 10.050787 0.327597 -1.306893
v 7.856777 0.292249 1.661314
v 8.197090 0.571814 1.374034
v 9.712385 0.567993 0.939448
v 9.857330 0.567994 -0.872054
v 8.790822 1.068697 -3.339972
v 7.683890 1.143052 -1.777193
v 9.007849 0.978779 -1.983101
v 9.058513 0.931019 -3.827098
v 8.272273 1.114106 -3.927188
v 1.043560 2.231206 5.699419
v 3.053395 1.737898 5.699419
v 3.053395 2.231206 2.988687
v 3.053395 2.231206 -3.115387
v 4.223938 2.045020 -4.758724
v 3.053395 1.884608 -5.038447
v 1.627569 2.231206 -5.038447
v 3.133374 0.847511 6.210121
v 3.133374 0.268193 6.210121
v 1.095820 0.268550 6.419201
v 3.199353 0.267361 2.462288
v 0.667033 0.847867 6.303538
v 3.199353 0.846678 2.462288
v 3.457546 0.826627 -5.452411
v 3.457546 0.267621 -5.452411
v 3.457546 1.385634 -5.452411
v 5.161878 0.207239 -5.045131
v 5.161878 0.690387 -5.045131
v 5.161878 1.173535 -5.045131
v 7.102633 0.277855 -4.691813
v 7.102633 0.654963 -4.691813
v -5.299998 0.868383 -4.551544
v -5.299998 0.314477 -4.852145
v -5.299998 0.314477 -1.577659
v -5.299998 1.422289 -4.551544
v -5.299998 0.868383 -1.577659
v -5.299998 1.422289 -1.577659
v -2.247483 1.908947 5.571261
v -0.954809 2.231206 5.447169
v -2.276778 2.231206 5.269643
v -3.527084 2.231206 5.447169
vn -0.7810 0.6245 -0.0000
vn 0.1611 0.9869 -0.0000
vn -0.2251 0.6727 0.7048
vn -0.0000 1.0000 -0.0000
vn -0.0000 -1.0000 -0.0000
vn -0.0817 0.6262 0.7753
vn 1.0000 -0.0000 -0.0000
vn -0.0000 -0.0000 -1.0000
vn -0.1320 0.2501 0.9592
vn -0.1562 -0.0000 0.9877
vn 0.0299 -0.9927 0.1168
vn -0.0000 0.1958 0.9806
vn -0.0000 -0.0000 1.0000
vn -0.0000 0.3593 0.9332
vn 0.2734 -0.9619 0.0050
vn -0.0354 -0.9994 -0.0000
vn 0.2324 -0.0000 0.9726
vn 0.9883 -0.0000 0.1524
vn 0.1190 0.4736 -0.8727
vn -0.0000 0.4770 -0.8789
vn -0.0000 0.2723 -0.9622
vn -0.2894 -0.0000 0.9572
vn -0.9139 0.4059 -0.0000
vn -0.9957 -0.0000 -0.0927
vn -1.0000 -0.0000 -0.0000
vn -0.9671 0.2543 -0.0000
vn 0.3751 -0.0000 0.9270
vn 0.0483 -0.9966 -0.0663
vn 0.1791 -0.0000 -0.9838
vn 0.1944 0.9809 -0.0000
vn 0.5323 -0.0000 0.8465
vn 0.1924 0.3531 -0.9156
vn 0.2324 -0.0000 -0.9726
vn 0.1803 0.9485 -0.2605
vn 0.0231 -0.9997 -0.0000
vn 0.5143 -0.0000 -0.8576
vn 0.0033 1.0000 -0.0000
vn 0.4785 0.8781 -0.0000
vn 0.0364 -0.9993 -0.0000
vn 0.0559 0.9984 -0.0000
vn 0.1230 -0.0000 -0.9924
vn 0.1577 0.0341 0.9869
vn 0.0782 0.9969 0.0080
vn 0.3304 0.9281 0.1717
vn 0.8031 -0.0973 0.5879
vn 0.0322 0.9828 0.1818
vn 0.2467 0.9691 -0.0000
vn 0.2156 0.6297 0.7463
vn 0.8353 0.5453 0.0701
vn 0.0153 0.9989 0.0447
vn 0.0272 -0.9993 0.0258
vn -0.3291 0.8413 0.4288
vn 0.0477 -0.9989 0.0040
vn 0.1299 0.9905 0.0449
vn 0.5774 0.8160 0.0286
vn 0.2413 0.9605 -0.1388
vn 0.1588 0.1485 -0.9761
vn 0.2347 0.9564 0.1740
vn 0.2327 0.9571 -0.1725
vn 0.1021 -0.0000 0.9948
vn 0.9998 -0.0000 0.0176
vn 0.3951 0.9186 -0.0000
vn 0.0209 0.8353 0.5494
vn 0.9198 -0.0000 -0.3924
vn -0.5880 -0.2840 0.7574
vn -0.0171 -0.9969 -0.0764
vn 0.8830 -0.0000 -0.4693
vn 0.0379 0.9934 -0.1083
vn -0.7155 -0.0000 -0.6986
vn -0.3654 0.9309 -0.0000
vn -0.7523 0.3143 -0.5791
vn -0.1799 -0.9837 -0.0000
vn -0.7790 -0.0000 -0.6271
vn 0.1025 0.6847 0.7216
vn 0.1666 0.9860 -0.0000
vn 0.1596 0.9872 0.0019
vn -0.0000 0.9330 0.3598
vn 0.1118 0.4557 0.8831
vn -0.0000 0.8546 0.5193
vn -0.0000 0.7160 0.6981
vn -0.1538 0.1715 0.9731
vn 0.0048 -0.9988 0.0489
vn -0.0817 0.8522 0.5168
vn 0.1660 -0.9861 -0.0000
vn -0.0719 -0.0000 -0.9974
vn -0.8002 0.5955 -0.0712
vn 0.3343 0.6133 0.7156
vn 0.2722 -0.0000 -0.9622
vn 0.4659 0.8457 -0.2603
vn 0.0686 0.9976 0.0055
vn 0.2085 -0.0000 0.9780
vn 0.0123 0.8437 0.5367
vn 0.1298 0.1856 0.9740
vn 0.0464 0.9989 -0.0007
vn 0.0402 0.9992 -0.0000
vn 0.2997 -0.9381 0.1735
vn 0.2457 0.9530 0.1775
vn 0.2142 0.5609 0.7997
vn 0.8478 0.5259 0.0678
vn 0.0093 0.9992 0.0379
vn 0.0239 -0.9995 0.0220
vn -0.9038 -0.0000 0.4280
vn 0.0385 -0.9993 -0.0000
vn 0.6776 0.7355 -0.0000
vn 0.4413 0.8973 -0.0111
vn 0.8461 0.5330 0.0094
vn 0.1146 0.3894 -0.9139
vn 0.2280 -0.0000 -0.9737
vn -0.0921 0.9800 -0.1766
vn 0.0369 0.2219 0.9744
vn 0.6048 0.7963 0.0105
vn -0.0000 0.9486 0.3166
vn -0.0982 0.6753 0.7310
vt 0.625000 0.166667
vt 0.541667 0.250000
vt 0.541667 0.166667
vt 0.625000 0.544773
vt 0.625000 0.583333
vt 0.625000 0.813112
vt 0.625000 0.833333
vt 0.541667 0.833333
vt 0.791667 0.666667
vt 0.710557 0.788090
vt 0.748707 0.750000
vt 0.375000 0.666667
vt 0.291667 0.750000
vt 0.291667 0.666667
vt 0.584005 0.916667
vt 0.625000 0.873707
vt 0.561888 0.750000
vt 0.541667 0.666667
vt 0.625000 0.686888
vt 0.580227 0.500000
vt 0.541667 0.416667
vt 0.625000 0.455227
vt 0.708333 0.583333
vt 0.625000 0.666667
vt 0.791667 0.500000
vt 0.708333 0.500000
vt 0.791667 0.583333
vt 0.708333 0.666667
vt 0.875000 0.583333
vt 0.875000 0.666667
vt 0.208333 0.666667
vt 0.125000 0.750000
vt 0.125000 0.666667
vt 0.208333 0.750000
vt 0.208333 0.500000
vt 0.125000 0.583333
vt 0.125000 0.500000
vt 0.291667 0.500000
vt 0.208333 0.583333
vt 0.291667 0.583333
vt 0.375000 0.500000
vt 0.375000 0.583333
vt 0.375000 0.916667
vt 0.458333 1.000000
vt 0.375000 1.000000
vt 0.541667 0.916667
vt 0.458333 0.916667
vt 0.375000 0.750000
vt 0.458333 0.833333
vt 0.375000 0.833333
vt 0.541667 0.750000
vt 0.458333 0.750000
vt 0.625000 0.959626
vt 0.625000 1.000000
vt 0.541667 1.000000
vt 0.458333 0.666667
vt 0.458333 0.500000
vt 0.541667 0.500000
vt 0.458333 0.416667
vt 0.375000 0.416667
vt 0.458333 0.250000
vt 0.375000 0.333333
vt 0.375000 0.250000
vt 0.458333 0.333333
vt 0.541667 0.333333
vt 0.625000 0.250000
vt 0.625000 0.333333
vt 0.458333 0.166667
vt 0.375000 0.166667
vt 0.375000 0.000000
vt 0.458333 0.083333
vt 0.375000 0.083333
vt 0.541667 0.000000
vt 0.458333 0.000000
vt 0.541667 0.083333
vt 0.625000 0.000000
vt 0.625000 0.083333
vt 0.439831 0.666667
vt 0.625000 0.500000
vt 0.437496 0.583333
vt 0.458333 0.583333
vt 0.458333 0.646390
vt 0.458333 0.583333
vt 0.541667 0.583333
vt 0.458333 0.562497
vt 0.437496 0.666667
vt 0.497410 0.583333
vt 0.541667 0.583333
vt 0.541667 0.540450
vt 0.476834 0.666667
vt 0.458363 0.666667
vt 0.478062 0.583333
vt 0.458333 0.648037
vt 0.439831 0.666667
vt 0.437496 0.666667
vt 0.541667 0.540473
vt 0.508412 0.500000
vt 0.688111 0.750000
vt 0.669773 0.500000
vt 0.834626 0.750000
vt 0.875000 0.750000
vt 0.708333 0.750000
vt 0.625000 0.416667
vt 0.875000 0.500000
vt 0.458333 0.583354
s 0
usemtl skala
f 12/1/1 13/2/1 51/3/1
f 101/4/2 23/5/2 58/5/2
f 98/6/3 29/7/3 40/8/3
f 33/9/4 127/10/4 126/11/4
f 21/12/5 28/13/5 37/14/5
f 125/15/6 40/8/6 126/16/6
f 99/17/7 43/18/7 100/19/7
f 103/20/8 47/21/8 104/22/8
f 30/23/4 24/24/4 23/5/4
f 17/25/4 30/23/4 18/26/4
f 32/27/4 31/28/4 30/23/4
f 17/25/4 12/29/4 32/27/4
f 32/27/4 11/30/4 33/9/4
f 35/31/5 1/32/5 8/33/5
f 37/14/5 27/34/5 35/31/5
f 16/35/5 7/36/5 3/37/5
f 7/36/5 35/31/5 8/33/5
f 15/38/5 34/39/5 16/35/5
f 36/40/5 35/31/5 34/39/5
f 6/41/5 36/40/5 15/38/5
f 22/42/5 37/14/5 36/40/5
f 27/43/9 9/44/9 1/45/9
f 41/46/10 9/44/10 39/47/10
f 5/48/11 107/13/11 28/13/11
f 38/49/12 27/43/12 28/50/12
f 25/51/13 38/49/13 26/52/13
f 40/8/13 39/47/13 38/49/13
f 128/53/14 2/54/14 10/55/14
f 5/48/15 108/12/15 106/48/15
f 43/18/7 26/52/7 42/56/7
f 22/42/16 53/41/16 54/42/16
f 22/42/16 57/12/16 21/12/16
f 42/56/17 61/18/17 43/18/17
f 52/57/18 116/58/18 56/58/18
f 23/5/2 59/24/2 58/5/2
f 43/18/17 59/24/17 24/24/17
f 45/59/19 6/41/19 15/60/19
f 47/21/8 20/57/8 45/59/8
f 14/61/20 16/62/20 3/63/20
f 44/64/20 15/60/20 16/62/20
f 13/2/8 44/64/8 14/61/8
f 46/65/8 45/59/8 44/64/8
f 4/66/21 46/65/21 13/2/21
f 17/67/21 47/21/21 46/65/21
f 49/68/22 121/69/22 7/69/22
f 49/68/22 124/3/22 123/68/22
f 1/70/23 48/71/23 8/72/23
f 8/72/24 49/68/24 7/69/24
f 10/73/25 48/71/25 9/74/25
f 50/75/25 49/68/25 48/71/25
f 2/76/26 50/75/26 10/73/26
f 11/77/26 51/3/26 50/75/26
f 67/12/27 77/78/27 80/56/27
f 53/41/28 117/41/28 63/41/28
f 52/57/29 66/58/29 62/57/29
f 58/5/30 69/24/30 68/5/30
f 61/18/31 69/24/31 59/24/31
f 56/58/32 65/79/32 66/58/32
f 21/12/17 60/56/17 42/56/17
f 103/20/33 102/79/33 55/79/33
f 56/58/34 113/58/34 19/58/34
f 64/42/35 76/12/35 67/12/35
f 82/80/36 88/42/36 75/42/36
f 70/81/37 86/82/37 81/83/37
f 65/79/38 71/84/38 66/58/38
f 68/5/38 72/18/38 71/84/38
f 54/42/39 67/12/39 57/12/39
f 54/42/39 63/41/39 64/42/39
f 58/5/30 65/79/30 55/79/30
f 82/80/7 74/41/7 83/85/7
f 85/86/40 92/80/40 82/80/40
f 62/57/41 74/41/41 63/41/41
f 95/87/42 94/88/42 70/81/42
f 94/88/43 93/89/43 97/58/43
f 80/56/27 79/90/27 72/18/27
f 64/42/35 74/41/35 75/42/35
f 78/91/44 80/56/44 77/78/44
f 81/83/45 83/85/45 84/92/45
f 77/78/46 86/82/46 78/93/46
f 86/82/47 82/80/47 81/83/47
f 71/84/7 79/90/7 78/93/7
f 90/94/48 87/12/48 91/95/48
f 92/80/49 87/12/49 88/42/49
f 85/86/50 90/94/50 91/95/50
f 76/12/51 89/12/51 67/12/51
f 77/78/52 89/12/52 90/94/52
f 76/12/53 88/42/53 87/12/53
f 93/96/54 94/88/54 95/87/54
f 84/92/55 83/85/55 96/97/55
f 96/97/56 97/58/56 93/89/56
f 96/97/57 62/57/57 97/58/57
f 98/98/58 99/17/58 100/19/58
f 31/28/4 98/98/4 100/19/4
f 101/4/59 103/20/59 104/22/59
f 104/99/4 18/26/4 30/23/4
f 105/52/60 107/50/60 106/48/60
f 110/56/61 106/48/61 108/12/61
f 26/52/62 110/56/62 42/56/62
f 26/52/63 109/49/63 105/52/63
f 21/12/64 110/56/64 108/12/64
f 28/50/65 109/49/65 38/49/65
f 112/41/33 115/57/33 114/41/33
f 115/57/29 117/41/29 114/41/29
f 111/57/33 116/58/33 115/57/33
f 53/41/66 112/41/66 114/41/66
f 63/41/67 118/57/67 62/57/67
f 52/57/68 118/57/68 115/57/68
f 20/57/69 113/58/69 111/57/69
f 6/41/69 111/57/69 112/41/69
f 121/69/25 119/61/25 120/63/25
f 124/3/25 119/61/25 123/68/25
f 51/3/70 122/2/70 124/3/70
f 14/61/71 120/63/71 119/61/71
f 7/36/72 120/37/72 3/37/72
f 14/61/73 122/2/73 13/2/73
f 125/15/74 127/10/74 128/100/74
f 11/30/4 2/101/4 128/100/4
f 12/1/1 4/66/1 13/2/1
f 55/79/75 102/79/75 58/5/75
f 102/79/76 101/4/76 58/5/76
f 40/8/77 25/51/77 99/17/77
f 99/17/78 98/6/78 40/8/78
f 29/102/4 31/28/4 126/11/4
f 31/28/4 33/9/4 126/11/4
f 21/12/5 5/48/5 28/13/5
f 41/46/79 40/8/79 125/15/79
f 40/8/80 29/7/80 126/16/80
f 25/51/7 43/18/7 99/17/7
f 43/18/7 24/24/7 100/19/7
f 19/58/8 47/21/8 103/20/8
f 47/21/8 18/103/8 104/22/8
f 30/23/4 31/28/4 24/24/4
f 17/25/4 32/27/4 30/23/4
f 32/27/4 33/9/4 31/28/4
f 17/25/4 4/104/4 12/29/4
f 32/27/4 12/29/4 11/30/4
f 35/31/5 27/34/5 1/32/5
f 37/14/5 28/13/5 27/34/5
f 16/35/5 34/39/5 7/36/5
f 7/36/5 34/39/5 35/31/5
f 15/38/5 36/40/5 34/39/5
f 36/40/5 37/14/5 35/31/5
f 6/41/5 22/42/5 36/40/5
f 22/42/5 21/12/5 37/14/5
f 27/43/81 39/47/81 9/44/81
f 41/46/10 10/55/10 9/44/10
f 5/48/82 106/48/82 107/13/82
f 38/49/12 39/47/12 27/43/12
f 25/51/13 40/8/13 38/49/13
f 40/8/13 41/46/13 39/47/13
f 10/55/83 41/46/83 125/15/83
f 125/15/14 128/53/14 10/55/14
f 5/48/84 21/12/84 108/12/84
f 43/18/7 25/51/7 26/52/7
f 22/42/16 6/41/16 53/41/16
f 22/42/16 54/42/16 57/12/16
f 42/56/17 60/56/17 61/18/17
f 52/57/18 115/57/18 116/58/18
f 23/5/2 24/24/2 59/24/2
f 43/18/17 61/18/17 59/24/17
f 45/59/8 20/57/8 6/41/8
f 47/21/8 19/58/8 20/57/8
f 14/61/20 44/64/20 16/62/20
f 44/64/20 45/59/20 15/60/20
f 13/2/8 46/65/8 44/64/8
f 46/65/8 47/21/8 45/59/8
f 4/66/21 17/67/21 46/65/21
f 17/67/85 18/103/85 47/21/85
f 49/68/22 123/68/22 121/69/22
f 49/68/22 51/3/22 124/3/22
f 1/70/23 9/74/23 48/71/23
f 8/72/23 48/71/23 49/68/23
f 10/73/25 50/75/25 48/71/25
f 50/75/25 51/3/25 49/68/25
f 2/76/26 11/77/26 50/75/26
f 11/77/86 12/1/86 51/3/86
f 80/56/27 60/56/27 57/12/27
f 57/12/27 67/12/27 80/56/27
f 53/41/28 114/41/28 117/41/28
f 52/57/29 56/58/29 66/58/29
f 58/5/30 59/24/30 69/24/30
f 61/18/87 72/18/87 69/24/87
f 56/58/88 55/79/88 65/79/88
f 21/12/17 57/12/17 60/56/17
f 56/58/33 19/58/33 55/79/33
f 19/58/33 103/20/33 55/79/33
f 56/58/34 116/58/34 113/58/34
f 64/42/35 75/42/35 76/12/35
f 82/80/89 92/80/89 88/42/89
f 70/81/37 78/93/37 86/82/37
f 65/79/38 68/5/38 71/84/38
f 68/5/38 69/24/38 72/18/38
f 54/42/39 64/42/39 67/12/39
f 54/42/39 53/41/39 63/41/39
f 58/5/30 68/5/30 65/79/30
f 75/42/7 74/41/7 82/80/7
f 74/41/7 73/57/7 83/85/7
f 85/86/90 91/95/90 92/80/90
f 62/57/41 73/57/41 74/41/41
f 94/88/91 71/84/91 70/81/91
f 70/81/92 81/83/92 84/92/92
f 84/92/93 95/87/93 70/81/93
f 97/58/94 66/58/94 94/88/94
f 66/58/95 71/84/95 94/88/95
f 72/18/27 61/18/27 60/56/27
f 60/56/27 80/56/27 72/18/27
f 64/42/35 63/41/35 74/41/35
f 78/91/96 79/90/96 80/56/96
f 81/83/97 82/105/97 83/85/97
f 77/78/46 85/86/46 86/82/46
f 86/82/47 85/86/47 82/80/47
f 78/93/7 70/81/7 71/84/7
f 71/84/7 72/18/7 79/90/7
f 90/94/98 89/12/98 87/12/98
f 92/80/99 91/95/99 87/12/99
f 85/86/100 77/78/100 90/94/100
f 76/12/101 87/12/101 89/12/101
f 77/78/102 67/12/102 89/12/102
f 76/12/103 75/42/103 88/42/103
f 83/85/104 73/57/104 96/97/104
f 96/97/105 93/96/105 95/87/105
f 95/87/106 84/92/106 96/97/106
f 73/57/107 62/57/107 96/97/107
f 62/57/108 66/58/108 97/58/108
f 100/19/4 24/24/4 31/28/4
f 31/28/4 29/102/4 98/98/4
f 101/4/109 102/79/109 103/20/109
f 23/5/4 101/4/4 30/23/4
f 101/4/4 104/99/4 30/23/4
f 105/52/110 109/49/110 107/50/110
f 110/56/61 105/52/61 106/48/61
f 26/52/111 105/52/111 110/56/111
f 26/52/112 38/49/112 109/49/112
f 21/12/64 42/56/64 110/56/64
f 28/50/65 107/50/65 109/49/65
f 112/41/33 111/57/33 115/57/33
f 115/57/29 118/57/29 117/41/29
f 111/57/33 113/58/33 116/58/33
f 53/41/66 6/41/66 112/41/66
f 63/41/67 117/41/67 118/57/67
f 52/57/68 62/57/68 118/57/68
f 20/57/69 19/58/69 113/58/69
f 6/41/69 20/57/69 111/57/69
f 121/69/25 123/68/25 119/61/25
f 124/3/25 122/2/25 119/61/25
f 51/3/70 13/2/70 122/2/70
f 14/61/71 3/63/71 120/63/71
f 7/36/72 121/36/72 120/37/72
f 14/61/73 119/61/73 122/2/73
f 125/15/113 126/16/113 127/10/113
f 127/10/4 33/9/4 128/100/4
f 33/9/4 11/30/4 128/100/4
