# Blender 4.4.3
# www.blender.org
mtllib kamien_4.mtl
o rock.001
v -0.011898 0.585576 0.040758
v -0.236099 0.092229 -0.397262
v -0.318350 0.017637 0.184331
v -0.217066 0.243051 -0.219839
v 0.302289 0.166473 -0.171047
v 0.225086 -0.008932 0.117412
v 0.405762 0.204363 0.147710
v 0.321778 0.028127 0.065651
v -0.127320 0.294492 0.229399
v 0.154786 0.453924 -0.162885
v -0.145508 0.562138 -0.100755
v -0.125032 0.360131 -0.260870
v -0.026860 0.366787 -0.292739
v -0.361656 0.198288 0.129132
v -0.200435 0.503432 0.081696
v -0.017027 0.423349 0.221110
v 0.103084 0.272902 0.369944
v 0.122460 0.543692 0.105739
v 0.246250 0.256223 0.315379
v 0.267591 0.470748 0.125273
v 0.344740 0.382580 -0.078613
v 0.294920 0.292312 -0.231054
v 0.165647 0.145838 -0.470966
v 0.180616 0.017637 -0.132954
v -0.094731 0.017637 -0.433353
v -0.074350 0.122733 0.381913
v 0.194093 0.017637 -0.034216
v 0.158542 0.125447 0.376638
v -0.192589 0.492217 -0.145979
v -0.235827 0.547978 -0.040880
v 0.209864 0.364717 0.281226
v 0.117980 0.529214 -0.068041
v 0.193089 0.027946 -0.358178
v -0.080630 0.017637 -0.018941
v -0.314886 0.017637 -0.015357
v 0.012914 0.017637 0.307953
v 0.088178 0.252034 -0.442007
v -0.332311 0.262319 0.019624
v -0.289410 0.045155 -0.260331
v -0.251054 0.017637 -0.234920
v 0.390505 0.372085 0.098150
v 0.412736 0.263597 0.046598
v -0.120869 0.121394 -0.473528
v -0.189613 0.303735 -0.257533
v -0.319687 0.187318 0.194894
v -0.065922 0.017637 -0.195110
v 0.326598 0.044731 0.150129
vn 0.1712 0.8029 -0.5710
vn -0.2873 0.5769 -0.7646
vn -0.2881 0.6341 -0.7175
vn -0.4360 0.4533 -0.7775
vn -0.1618 0.9868 -0.0107
vn -0.1473 0.6052 -0.7823
vn -0.8662 0.1952 -0.4599
vn -0.8730 0.2155 -0.4375
vn -0.2917 0.8689 0.4000
vn -0.8453 -0.0398 0.5328
vn -0.7123 0.4589 0.5311
vn -0.1776 0.7342 0.6553
vn 0.3673 0.3891 0.8448
vn 0.3686 0.1800 0.9120
vn -0.0084 0.6999 0.7142
vn 0.1550 0.9406 -0.3022
vn 0.4970 0.6657 -0.5566
vn -0.0000 -1.0000 -0.0000
vn 0.2140 -0.6488 -0.7302
vn -0.5055 -0.7654 -0.3982
vn -0.2535 -0.6886 0.6794
vn -0.2305 -0.9654 -0.1220
vn 0.3320 -0.7833 0.5255
vn 0.4234 -0.8932 0.1514
vn 0.2465 -0.9448 -0.2159
vn 0.9067 -0.1371 -0.3989
vn 0.6447 -0.6357 -0.4246
vn 0.5345 0.5620 -0.6312
vn -0.4255 -0.4180 -0.8027
vn 0.0384 -0.3524 -0.9351
vn -0.0130 0.2542 -0.9671
vn -0.9003 0.3745 -0.2218
vn -0.3293 -0.8461 -0.4191
vn -0.9711 -0.2379 -0.0169
vn -0.9925 -0.0550 -0.1094
vn -0.8186 0.3862 -0.4251
vn -0.4246 0.5244 0.7381
vn 0.7389 0.2519 0.6250
vn 0.6962 -0.1368 0.7047
vn 0.6955 -0.3353 0.6355
vn 0.9288 0.2962 -0.2229
vn 0.6072 0.7868 -0.1105
vn 0.1260 0.7332 -0.6682
vn -0.4759 0.6807 -0.5569
vn -0.5235 0.5616 -0.6407
vn -0.5553 0.5399 -0.6325
vn -0.9151 0.1946 -0.3532
vn -0.7836 0.4761 0.3992
vn -0.9494 0.3045 -0.0764
vn -0.3890 0.4371 0.8109
vn -0.4274 0.4174 0.8020
vn -0.5067 0.4798 0.7163
vn -0.3633 0.4924 0.7909
vn -0.0902 0.7417 0.6646
vn -0.0095 0.6977 0.7163
vn 0.2892 0.7385 0.6091
vn 0.3345 0.9384 -0.0868
vn 0.4566 0.8855 -0.0856
vn 0.5309 0.8324 -0.1591
vn 0.4774 0.7690 -0.4252
vn 0.9066 -0.1618 -0.3897
vn 0.0470 -0.9980 -0.0431
vn 0.7759 -0.6307 0.0141
vn 0.2994 -0.8410 0.4506
vn 0.0253 -0.5612 0.8273
vn 0.0916 -0.9957 -0.0125
vn 0.8955 -0.4436 0.0361
vn 0.8857 -0.3653 -0.2864
vn 0.9179 -0.3668 -0.1516
vn 0.4718 0.6571 -0.5879
vn -0.2745 0.6485 -0.7100
vn 0.0363 0.8056 -0.5914
vn -0.5098 -0.8474 -0.1482
vn -0.9611 -0.0292 -0.2746
vn -0.9332 0.3170 -0.1693
vn -0.6143 -0.0538 0.7872
vn 0.0220 0.0536 0.9983
vn 0.9806 0.1320 0.1450
vn 0.6383 0.4176 0.6466
vn 0.9176 0.1286 -0.3761
vn 0.5792 0.5583 0.5940
vn 0.8976 -0.1458 -0.4159
s 0
usemtl kamien
f 10//1 11//1 32//1
f 13//2 12//2 11//2
f 12//3 37//3 43//3
f 12//4 44//4 29//4
f 11//5 30//5 1//5
f 12//6 29//6 11//6
f 29//7 38//7 30//7
f 4//8 38//8 29//8
f 30//9 15//9 1//9
f 45//10 14//10 3//10
f 14//11 45//11 15//11
f 16//12 1//12 15//12
f 31//13 17//13 19//13
f 19//14 17//14 28//14
f 31//15 16//15 17//15
f 1//16 32//16 11//16
f 10//17 21//17 22//17
f 46//18 24//18 27//18
f 23//19 33//19 25//19
f 25//20 40//20 2//20
f 27//18 34//18 46//18
f 35//18 34//18 3//18
f 36//21 26//21 3//21
f 27//22 6//22 36//22
f 28//23 36//23 47//23
f 6//24 8//24 47//24
f 27//25 8//25 6//25
f 42//26 5//26 22//26
f 8//27 24//27 5//27
f 23//28 37//28 22//28
f 43//29 25//29 2//29
f 43//30 23//30 25//30
f 37//31 23//31 43//31
f 39//32 4//32 2//32
f 40//33 39//33 2//33
f 14//34 35//34 3//34
f 38//35 39//35 35//35
f 4//36 39//36 38//36
f 26//37 9//37 45//37
f 7//38 41//38 19//38
f 7//39 19//39 28//39
f 47//40 7//40 28//40
f 21//41 41//41 42//41
f 41//42 21//42 20//42
f 10//43 13//43 11//43
f 11//44 29//44 30//44
f 43//45 44//45 12//45
f 2//46 44//46 43//46
f 4//47 29//47 44//47
f 15//48 30//48 14//48
f 14//49 30//49 38//49
f 9//50 15//50 45//50
f 9//51 16//51 15//51
f 9//52 26//52 16//52
f 17//53 16//53 26//53
f 16//54 18//54 1//54
f 31//55 18//55 16//55
f 20//56 18//56 31//56
f 18//57 32//57 1//57
f 20//58 32//58 18//58
f 20//59 21//59 32//59
f 10//60 32//60 21//60
f 22//61 33//61 23//61
f 24//62 25//62 33//62
f 24//63 33//63 5//63
f 25//18 24//18 46//18
f 46//18 35//18 40//18
f 46//18 34//18 35//18
f 25//18 46//18 40//18
f 34//18 27//18 36//18
f 34//18 36//18 3//18
f 47//64 36//64 6//64
f 28//65 26//65 36//65
f 27//66 24//66 8//66
f 7//67 47//67 8//67
f 42//68 8//68 5//68
f 7//69 8//69 42//69
f 10//70 22//70 37//70
f 12//71 13//71 37//71
f 10//72 37//72 13//72
f 40//73 35//73 39//73
f 14//74 38//74 35//74
f 44//75 2//75 4//75
f 3//76 26//76 45//76
f 17//77 26//77 28//77
f 42//78 41//78 7//78
f 19//79 41//79 31//79
f 22//80 21//80 42//80
f 20//81 31//81 41//81
f 22//82 5//82 33//82
