# Blender 4.4.3
# www.blender.org
mtllib kamien_4.mtl
o rock.018
v -0.616590 6.355410 0.075275
v -2.846497 1.607786 -3.665131
v -3.567420 0.926431 1.606260
v -2.592155 2.990072 -2.343197
v 2.408718 2.265774 -1.853462
v 1.665328 0.653131 0.969105
v 3.405055 2.714137 1.204770
v 2.596376 0.996252 0.461163
v -1.727991 3.603104 1.967409
v 0.988413 5.034754 -1.850323
v -1.903122 6.092666 -1.280697
v -1.705959 4.106249 -2.768867
v -0.760657 4.161951 -3.077362
v -3.984405 2.650784 1.027545
v -2.432013 5.575479 0.490879
v -0.665972 4.841228 1.853805
v 0.490572 3.432166 3.325876
v 0.677141 5.969310 0.711732
v 1.869118 3.257304 2.805039
v 2.074607 5.272319 0.918901
v 2.817478 4.370162 -1.020453
v 2.337761 3.461289 -2.464080
v 0.956036 1.771658 -4.362075
v 1.237131 0.843171 -1.447743
v -1.183613 1.301401 -4.210034
v -1.217936 1.989866 3.480491
v 1.171765 0.509628 -0.282852
v 1.024582 2.014601 3.429003
v -2.356459 5.407782 -1.697654
v -2.772803 5.972089 -0.700663
v 1.518758 4.292642 2.447835
v 0.634004 5.784347 -0.957174
v 1.280967 0.991004 -3.368425
v -1.225441 0.250395 0.501678
v -3.534057 0.874029 -0.315821
v -0.377675 0.958870 2.796171
v 0.347045 3.018236 -4.484018
v -3.701848 3.238370 -0.043323
v -3.288753 1.074609 -2.681021
v -2.919420 0.816413 -2.429205
v 3.258151 4.315523 0.683718
v 3.472208 3.257751 0.215974
v -1.718655 1.841884 -4.502467
v -2.327807 3.564291 -2.721948
v -3.580287 2.562451 1.663409
v -1.294006 0.434508 -1.752040
v 2.642792 1.178236 1.269938
vn 0.3339 0.7406 -0.5831
vn -0.1520 0.8660 -0.4763
vn 0.3384 0.8702 -0.3581
vn -0.1127 0.6933 -0.7117
vn -0.3653 0.5315 -0.7643
vn 0.1793 0.4221 -0.8886
vn -0.3733 -0.0655 -0.9254
vn -0.7414 0.3903 -0.5459
vn -0.5664 0.4683 -0.6782
vn -0.6897 0.7175 -0.0973
vn 0.0126 0.9825 0.1859
vn -0.9525 0.1830 -0.2433
vn -0.8956 0.3012 -0.3274
vn -0.4940 0.6651 0.5600
vn -0.6807 0.2436 0.6909
vn -0.9681 0.1463 0.2033
vn -0.6794 -0.5989 0.4240
vn -0.2337 0.6379 0.7338
vn 0.3399 0.6091 0.7166
vn 0.0231 0.4258 0.9045
vn 0.5933 0.2001 0.7797
vn 0.3546 -0.3108 0.8819
vn 0.7571 0.5380 -0.3705
vn 0.7760 0.2600 -0.5747
vn -0.0145 -0.9798 -0.1992
vn 0.4165 -0.8758 -0.2438
vn 0.2350 -0.9683 -0.0850
vn 0.4813 -0.2942 -0.8257
vn -0.0235 -0.9583 -0.2847
vn -0.0576 -0.7667 -0.6394
vn -0.2966 -0.9183 -0.2623
vn -0.3076 -0.7767 -0.5496
vn -0.0460 -0.9932 0.1073
vn -0.2637 -0.9642 -0.0290
vn 0.0326 -0.8133 0.5809
vn -0.3197 -0.0898 0.9432
vn 0.2265 -0.9496 0.2165
vn 0.6699 -0.6402 0.3760
vn 0.6903 -0.7167 -0.0992
vn 0.9863 -0.0363 -0.1606
vn 0.8585 -0.3647 -0.3605
vn -0.9311 0.2588 -0.2571
vn -0.7930 0.4298 -0.4317
vn -0.3265 -0.8566 -0.3994
vn -0.9881 -0.1086 -0.1092
vn -0.4435 0.4904 0.7502
vn 0.9287 -0.1302 0.3473
vn 0.8396 0.5069 0.1950
vn 0.5237 0.8093 0.2658
vn 0.2308 0.9153 0.3300
vn 0.8712 -0.3633 -0.3302
vt 0.451234 0.327962
vt 0.377183 0.457008
vt 0.396720 0.341990
vt 0.498688 0.436380
vt 0.476794 0.492869
vt 0.590990 0.382735
vt 0.631498 0.525216
vt 0.469983 0.540695
vt 0.396310 0.493087
vt 0.339200 0.479761
vt 0.334060 0.388589
vt 0.268718 0.592788
vt 0.450940 0.584823
vt 0.282350 0.460119
vt 0.146914 0.550689
vt 0.189965 0.585328
vt 0.063613 0.599560
vt 0.230189 0.368798
vt 0.240099 0.258420
vt 0.169051 0.274463
vt 0.212901 0.217137
vt 0.125851 0.214882
vt 0.424783 0.229640
vt 0.516307 0.227685
vt 0.891138 0.254923
vt 0.754037 0.254295
vt 0.733892 0.202940
vt 0.639965 0.334423
vt 0.699208 0.248593
vt 0.699208 0.546459
vt 0.497658 0.718784
vt 0.570510 0.597265
vt 0.877118 0.161383
vt 0.999896 0.131852
vt 0.979710 0.027469
vt 0.000104 0.224136
vt 0.074636 0.327382
vt 0.699417 0.124108
vt 0.791940 0.000104
vt 0.269051 0.054127
vt 0.235913 0.007615
vt 0.339296 0.040810
vt 0.445738 0.000104
vt 0.368219 0.153997
vt 0.515786 0.149141
vt 0.536872 0.042419
vt 0.489112 0.688868
vt 0.268218 0.717344
vt 0.172785 0.418331
vt 0.308052 0.127243
vt 0.343370 0.197166
vt 0.326473 0.263001
vt 0.320973 0.329521
vt 0.938968 0.374880
vt 0.779607 0.374880
vt 0.993367 0.252416
s 1
usemtl kamien_4
f 10/1/1 11/2/2 32/3/3
f 13/4/4 12/5/5 11/2/2
f 12/5/5 37/6/6 43/7/7
f 12/5/5 44/8/8 29/9/9
f 11/2/2 30/10/10 1/11/11
f 12/5/5 29/9/9 11/2/2
f 29/9/9 38/12/12 30/10/10
f 4/13/13 38/12/12 29/9/9
f 30/10/10 15/14/14 1/11/11
f 45/15/15 14/16/16 3/17/17
f 14/16/16 45/15/15 15/14/14
f 16/18/18 1/11/11 15/14/14
f 31/19/19 17/20/20 19/21/21
f 19/21/21 17/20/20 28/22/22
f 31/19/19 16/18/18 17/20/20
f 1/11/11 32/3/3 11/2/2
f 10/1/1 21/23/23 22/24/24
f 46/25/25 24/26/26 27/27/27
f 23/28/28 33/29/29 25/30/30
f 25/30/30 40/31/31 2/32/32
f 27/27/27 34/33/33 46/25/25
f 35/34/34 34/33/33 3/35/17
f 36/36/35 26/37/36 3/17/17
f 27/27/27 6/38/37 36/39/35
f 28/22/22 36/36/35 47/40/38
f 6/41/37 8/42/39 47/40/38
f 27/43/27 8/42/39 6/41/37
f 42/44/40 5/45/41 22/24/24
f 8/42/39 24/46/26 5/45/41
f 23/28/28 37/6/6 22/24/24
f 43/7/7 25/30/30 2/32/32
f 43/7/7 23/28/28 25/30/30
f 37/6/6 23/28/28 43/7/7
f 39/47/42 4/13/13 2/32/43
f 40/31/31 39/47/44 2/32/32
f 14/16/16 35/48/45 3/17/17
f 38/12/12 39/47/42 35/48/45
f 4/13/13 39/47/42 38/12/12
f 26/37/36 9/49/46 45/15/15
f 7/50/47 41/51/48 19/21/21
f 7/50/47 19/21/21 28/22/22
f 47/40/38 7/50/47 28/22/22
f 21/23/23 41/51/48 42/44/40
f 41/51/48 21/23/23 20/52/49
f 10/1/1 13/4/4 11/2/2
f 11/2/2 29/9/9 30/10/10
f 43/7/7 44/8/8 12/5/5
f 2/32/43 44/8/8 43/7/7
f 4/13/13 29/9/9 44/8/8
f 15/14/14 30/10/10 14/16/16
f 14/16/16 30/10/10 38/12/12
f 9/49/46 15/14/14 45/15/15
f 9/49/46 16/18/18 15/14/14
f 9/49/46 26/37/36 16/18/18
f 17/20/20 16/18/18 26/37/36
f 16/18/18 18/53/50 1/11/11
f 31/19/19 18/53/50 16/18/18
f 20/52/49 18/53/50 31/19/19
f 18/53/50 32/3/3 1/11/11
f 20/52/49 32/3/3 18/53/50
f 20/52/49 21/23/23 32/3/3
f 10/1/1 32/3/3 21/23/23
f 22/24/24 33/29/51 23/28/28
f 24/26/26 25/54/30 33/55/29
f 24/46/26 33/29/51 5/45/41
f 25/54/30 24/26/26 46/25/25
f 46/25/25 35/34/34 40/56/31
f 46/25/25 34/33/33 35/34/34
f 25/54/30 46/25/25 40/56/31
f 34/33/33 27/27/27 36/39/35
f 34/33/33 36/39/35 3/35/17
f 47/40/38 36/36/35 6/41/37
f 28/22/22 26/37/36 36/36/35
f 27/43/27 24/46/26 8/42/39
f 7/50/47 47/40/38 8/42/39
f 42/44/40 8/42/39 5/45/41
f 7/50/47 8/42/39 42/44/40
f 10/1/1 22/24/24 37/6/6
f 12/5/5 13/4/4 37/6/6
f 10/1/1 37/6/6 13/4/4
f 40/31/31 35/48/34 39/47/44
f 14/16/16 38/12/12 35/48/45
f 44/8/8 2/32/43 4/13/13
f 3/17/17 26/37/36 45/15/15
f 17/20/20 26/37/36 28/22/22
f 42/44/40 41/51/48 7/50/47
f 19/21/21 41/51/48 31/19/19
f 22/24/24 21/23/23 42/44/40
f 20/52/49 31/19/19 41/51/48
f 22/24/24 5/45/41 33/29/51
