# Blender 4.4.3
# www.blender.org
mtllib kamien_3.mtl
o rock.016
v -3.273540 2.573052 -1.349902
v -3.376961 5.070939 1.201693
v 0.796991 2.426221 -2.552506
v -1.807428 1.031755 2.521729
v 0.921746 0.958427 1.971550
v 1.610542 0.412872 0.235040
v 0.989016 5.061683 -1.470420
v 2.708029 3.872757 0.033165
v -3.211854 5.592171 0.183042
v -2.818976 1.407155 -1.613507
v 2.046912 3.964844 -1.951946
v -2.160246 5.998413 0.859112
v -0.429437 6.643227 1.186891
v 2.486498 4.539173 -1.429136
v 2.279491 5.418754 -0.405243
v 1.801279 1.528964 1.799172
v 2.206210 4.450463 1.534741
v 1.310839 0.594968 -1.358459
v -4.166177 3.724375 0.553163
v -3.528539 4.027997 -0.757695
v -1.186378 2.196975 -2.400550
v -1.161220 4.633094 -1.140181
v 1.498095 6.154875 0.576505
v 1.060011 6.438447 -0.035565
v -1.139163 6.415596 0.111673
v -2.524591 4.344843 1.968142
v -1.726354 1.399441 2.838015
v -3.432024 2.902162 1.846157
v 0.813887 2.878948 2.747507
v -0.691692 6.051839 1.858210
v -2.106266 0.298383 1.000158
v -1.753971 -0.019056 -0.677685
v -3.748628 1.797554 0.861421
v -3.405786 1.075543 -0.358954
v -1.730246 0.341194 -1.660263
v -0.462285 0.756554 -2.141354
v 2.507369 2.838468 -1.767701
v 2.451373 1.459984 -0.189652
v 2.423034 5.366503 0.533027
v -4.040639 2.347860 -0.183143
v -1.181430 5.723108 -0.434413
v 1.703860 5.463947 -1.214739
v 1.395707 5.541452 1.537970
v 0.090158 0.676584 -0.665309
v -3.041498 1.659864 2.121778
v -0.115772 0.305496 1.988082
v 1.678248 1.919511 -2.321944
vn -0.8811 0.2257 -0.4155
vn -0.9106 0.2945 -0.2900
vn -0.8939 0.4369 -0.1003
vn -0.9556 -0.1772 -0.2353
vn -0.4783 0.8460 0.2356
vn -0.5543 0.5024 0.6636
vn -0.4134 0.8619 0.2938
vn -0.2402 0.8807 -0.4083
vn -0.8674 -0.1688 0.4682
vn -0.6999 0.0488 0.7125
vn -0.9308 -0.2473 0.2691
vn -0.2310 0.0820 -0.9695
vn -0.2926 0.4522 -0.8425
vn -0.2336 0.4791 -0.8461
vn -0.0655 -0.3391 -0.9385
vn 0.0389 0.0804 -0.9960
vn 0.2842 -0.1906 -0.9396
vn -0.3795 -0.1082 -0.9189
vn 0.3470 0.2894 -0.8921
vn -0.1020 0.5222 -0.8467
vn -0.2273 0.5770 -0.7845
vn -0.2699 0.5459 -0.7932
vn 0.5214 0.8167 0.2474
vn 0.4735 0.8808 0.0083
vn 0.3037 0.7524 0.5846
vn 0.6234 0.5669 0.5386
vn 0.4305 0.5463 0.7185
vn -0.0893 0.5813 0.8088
vn 0.5949 0.7064 -0.3836
vn 0.7571 0.6172 -0.2141
vn 0.9444 0.2692 -0.1890
vn -0.3467 0.2907 0.8918
vn -0.1470 0.0545 0.9876
vn -0.2427 0.9627 0.1192
vn -0.4704 0.0476 0.8811
vn 0.3032 0.0236 0.9526
vn 0.5098 -0.2127 0.8336
vn 0.5552 0.3033 0.7745
vn -0.0026 -0.9564 -0.2921
vn -0.0886 -0.9919 -0.0905
vn -0.6230 -0.7783 0.0782
vn 0.0519 -0.9952 -0.0826
vn -0.6625 -0.7015 0.2624
vn -0.3238 -0.9188 0.2259
vn -0.5936 -0.6931 0.4089
vn 0.1447 -0.9836 -0.1074
vn -0.1018 -0.9928 -0.0624
vn 0.0788 -0.9968 0.0165
vn 0.1420 -0.8257 0.5460
vn -0.2581 -0.7008 0.6650
vn 0.4117 -0.6736 0.6139
vn 0.9084 -0.4179 0.0103
vn 0.9939 0.0158 0.1089
vn 0.7843 -0.5521 0.2828
vn 0.9484 -0.2325 -0.2155
vn 0.8016 -0.5680 0.1867
vn 0.6657 -0.6770 0.3140
vn 0.7897 -0.4888 -0.3708
vn 0.7645 -0.5560 -0.3261
vn 0.4441 0.3930 -0.8052
vn 0.5405 0.0840 -0.8371
vn 0.9065 0.4201 0.0412
vn -0.8889 0.0195 0.4577
vn -0.8784 0.4680 0.0971
vn -0.8262 -0.0771 -0.5581
vn -0.7290 -0.4704 -0.4973
vn -0.8218 -0.4487 -0.3512
vn -0.4104 0.2050 -0.8886
vn 0.0218 0.5968 -0.8021
vn -0.0459 0.8296 -0.5565
vn -0.1683 -0.6212 0.7653
vn 0.3079 -0.3415 0.8880
vn -0.6311 -0.6244 -0.4602
vn -0.2747 -0.2398 -0.9311
vn 0.2712 -0.6143 -0.7410
vn -0.1177 -0.9889 -0.0909
vn 0.9465 -0.0157 0.3224
vt 0.456507 0.562449
vt 0.381855 0.637759
vt 0.367032 0.540638
vt 0.489940 0.648571
vt 0.313185 0.573384
vt 0.318246 0.501913
vt 0.341185 0.444848
vt 0.150542 0.680929
vt 0.241587 0.659922
vt 0.390745 0.745468
vt 0.576147 0.358260
vt 0.444929 0.419514
vt 0.657670 0.217313
vt 0.518251 0.244930
vt 0.474408 0.179739
vt 0.615020 0.504636
vt 0.409109 0.240512
vt 0.398150 0.318956
vt 0.381930 0.435568
vt 0.284675 0.336368
vt 0.314724 0.352666
vt 0.281733 0.428008
vt 0.277317 0.284758
vt 0.235180 0.338443
vt 0.244113 0.448206
vt 0.365579 0.301062
vt 0.321843 0.286415
vt 0.367142 0.247127
vt 0.231123 0.565009
vt 0.000103 0.539049
vt 0.094248 0.326954
vt 0.095104 0.197214
vt 0.212738 0.279460
vt 0.924115 0.014856
vt 0.883724 0.053224
vt 0.788211 0.000103
vt 0.960110 0.138865
vt 0.707025 0.036264
vt 0.795329 0.111575
vt 0.689877 0.122635
vt 0.439008 0.079087
vt 0.537853 0.023285
vt 0.999897 0.228534
vt 0.821946 0.264622
vt 0.739410 0.194293
vt 0.856722 0.314400
vt 0.312018 0.090631
vt 0.290173 0.211290
vt 0.400998 0.179629
vt 0.313429 0.000103
vt 0.000103 0.180451
vt 0.538402 0.532894
vt 0.616581 0.639964
vt 0.725294 0.213127
vt 0.999897 0.047068
vt 0.689672 0.385135
s 1
usemtl kamien_3
f 20/1/1 19/2/2 9/3/3
f 40/4/4 19/2/2 20/1/1
f 9/3/5 2/5/6 12/6/7
f 9/3/5 12/6/7 25/7/8
f 45/8/9 28/9/10 33/10/11
f 21/11/12 20/1/13 22/12/14
f 36/13/15 3/14/16 47/15/17
f 21/11/12 22/12/14 3/14/16
f 10/16/18 21/11/12 36/13/15
f 11/17/19 3/14/16 7/18/20
f 41/19/21 22/12/14 9/3/22
f 7/18/20 22/12/14 41/19/21
f 23/20/23 24/21/24 13/22/25
f 39/23/26 23/20/23 43/24/27
f 43/24/27 13/22/25 30/25/28
f 42/26/29 15/27/30 14/28/31
f 26/29/32 27/30/33 30/25/28
f 12/6/7 30/25/28 13/22/34
f 2/5/6 26/29/32 30/25/28
f 2/5/6 28/9/10 26/29/32
f 45/8/35 27/30/33 28/9/10
f 29/31/36 16/32/37 17/33/38
f 29/31/36 17/33/38 43/24/27
f 30/25/28 29/31/36 43/24/27
f 35/34/39 32/35/40 34/36/41
f 32/35/40 35/34/39 44/37/42
f 33/38/43 31/39/44 45/40/45
f 34/36/41 31/39/44 33/38/43
f 36/13/46 18/41/47 44/42/42
f 44/37/42 6/43/48 46/44/49
f 31/39/44 46/44/49 4/45/50
f 46/44/49 5/46/51 4/45/50
f 31/39/44 4/45/50 45/40/45
f 38/47/52 8/48/53 16/32/54
f 37/49/55 8/48/53 38/47/52
f 6/50/56 38/47/52 5/51/57
f 47/15/58 37/49/55 18/41/59
f 11/17/19 14/28/60 37/49/61
f 8/48/53 14/28/31 39/23/62
f 33/10/11 28/9/10 19/2/63
f 9/3/3 19/2/2 2/5/64
f 1/52/65 10/16/66 40/4/4
f 1/52/65 40/4/4 20/1/1
f 10/16/66 34/53/67 40/4/4
f 34/53/67 33/10/11 40/4/4
f 28/9/10 2/5/6 19/2/63
f 33/10/11 19/2/63 40/4/4
f 9/3/22 22/12/14 20/1/13
f 36/13/15 21/11/12 3/14/16
f 1/52/68 20/1/13 21/11/12
f 10/16/18 1/52/68 21/11/12
f 7/18/20 3/14/16 22/12/14
f 25/7/8 41/19/21 9/3/22
f 42/26/69 7/18/20 41/19/21
f 42/26/69 11/17/19 7/18/20
f 14/28/60 11/17/19 42/26/69
f 3/14/16 11/17/19 47/15/17
f 13/22/34 24/21/70 25/7/8
f 23/20/23 15/27/30 24/21/24
f 42/26/29 24/21/24 15/27/30
f 12/6/7 13/22/34 25/7/8
f 25/7/8 24/21/70 42/26/69
f 41/19/21 25/7/8 42/26/69
f 39/23/62 15/27/30 23/20/23
f 43/24/27 23/20/23 13/22/25
f 30/25/28 27/30/33 29/31/36
f 12/6/7 2/5/6 30/25/28
f 28/9/10 27/30/33 26/29/32
f 45/40/45 4/45/50 27/54/71
f 27/54/71 4/45/50 5/46/51
f 29/31/36 27/30/33 5/51/72
f 29/31/36 5/51/72 16/32/37
f 43/24/27 17/33/38 39/23/26
f 34/36/41 32/35/40 31/39/44
f 31/39/44 44/37/42 46/44/49
f 32/35/40 44/37/42 31/39/44
f 35/34/39 36/55/46 44/37/42
f 10/16/66 35/56/73 34/53/67
f 35/56/74 10/16/18 36/13/15
f 36/13/15 47/15/17 18/41/75
f 44/42/42 18/41/47 6/50/76
f 46/44/49 6/43/48 5/46/51
f 5/51/57 38/47/52 16/32/54
f 6/50/56 18/41/59 38/47/52
f 18/41/59 37/49/55 38/47/52
f 47/15/17 11/17/19 37/49/61
f 8/48/53 37/49/55 14/28/31
f 39/23/62 14/28/31 15/27/30
f 8/48/53 39/23/62 17/33/77
f 16/32/54 8/48/53 17/33/77
