# Blender 4.4.3
# www.blender.org
mtllib kamien_5.mtl
o rock.013
v 2.494572 3.144555 -0.437393
v -0.342142 4.339163 2.171033
v 2.839548 1.796972 -1.121535
v -0.015338 5.782707 -0.267548
v 2.115464 0.796583 0.885923
v 1.191431 5.368182 -0.122851
v 0.540873 0.490734 -2.214945
v -1.243694 1.310548 -1.182864
v -1.187727 2.588508 -1.663398
v -0.685420 4.970440 -1.000985
v -1.298353 2.505213 2.044650
v -0.978362 4.644502 1.685718
v -1.639309 1.354902 0.889224
v 2.945900 1.603943 -0.728964
v 1.858457 1.825333 -2.222514
v 1.189626 2.109070 -2.554427
v 0.446954 4.211456 -2.088267
v -0.061643 2.481330 -2.621806
v 1.986357 3.176482 -1.812253
v -0.696828 3.861296 -1.831568
v 1.595820 4.471335 -1.417974
v 0.537640 2.561880 2.509749
v 1.593892 4.680424 0.768565
v -0.578066 1.834121 2.587965
v 0.178122 1.298539 2.419947
v 1.507850 1.468636 1.609775
v 2.124622 2.138811 0.874620
v 0.398833 5.281693 -1.159715
v 0.823161 4.752742 1.680014
v -0.287464 5.696553 0.735668
v 0.603574 0.508015 0.937007
v 2.019871 0.626129 -0.335139
v -0.959232 1.035941 2.171763
v -0.389673 0.505572 0.899823
v -0.825054 0.608862 -0.340022
v 1.503106 0.467073 -1.715129
v 1.997851 0.704451 -1.831449
v -1.754022 2.280423 -0.173589
v -1.147497 4.988737 0.129975
v -1.310336 3.794632 -0.990939
v -0.746393 0.718527 -2.013019
v 0.479635 0.107520 -0.740979
v 1.150681 1.000886 1.461355
v -1.609525 3.677397 0.859306
vn 0.9793 -0.2008 0.0236
vn 0.9091 0.0281 -0.4157
vn 0.9390 0.3391 0.0569
vn 0.8162 -0.2617 0.5150
vn 0.8316 0.1055 0.5452
vn 0.5042 -0.8606 0.0715
vn 0.5652 -0.0511 -0.8234
vn 0.6830 0.3286 -0.6523
vn 0.5805 -0.6127 -0.5363
vn 0.2626 0.0123 -0.9648
vn 0.0262 0.4930 -0.8696
vn -0.0025 -0.6951 -0.7189
vn -0.2672 0.0733 -0.9608
vn 0.6412 0.5702 -0.5135
vn 0.5867 0.8097 -0.0169
vn -0.5801 -0.5754 -0.5765
vn -0.8191 0.0485 -0.5715
vn 0.0745 0.7948 -0.6022
vn 0.4578 0.5564 0.6934
vn -0.1324 0.4332 0.8915
vn 0.3883 0.0781 0.9182
vn -0.7832 0.0644 0.6184
vn -0.2689 -0.0927 0.9587
vn 0.2279 -0.5539 0.8008
vn -0.4809 -0.6351 0.6044
vn 0.3179 -0.7525 0.5768
vn 0.6225 -0.2219 0.7505
vn -0.5790 0.6230 -0.5260
vn -0.1149 0.9725 -0.2024
vn 0.7828 0.5000 0.3705
vn -0.1987 0.9288 0.3128
vn -0.5699 0.3726 -0.7324
vn -0.0202 -0.9997 -0.0118
vn 0.2866 -0.9179 -0.2743
vn -0.2703 -0.9380 0.2170
vn -0.5777 -0.8157 -0.0298
vn -0.8996 -0.3451 -0.2676
vn -0.9647 0.2156 0.1512
vn -0.8908 -0.4327 0.1386
vn -0.9884 -0.0448 -0.1454
vn -0.8892 0.2752 -0.3655
vn -0.8190 0.5697 -0.0689
vn -0.6251 0.5272 0.5756
vn 0.1825 -0.9102 0.3719
vn -0.1205 -0.9818 0.1465
vt 0.084348 0.447967
vt 0.094093 0.387720
vt 0.178750 0.414178
vt 0.177741 0.623211
vt 0.228116 0.566740
vt 0.000102 0.581466
vt 0.125979 0.224912
vt 0.189174 0.273930
vt 0.030250 0.235516
vt 0.206039 0.153775
vt 0.323256 0.222670
vt 0.203837 0.002892
vt 0.350263 0.113665
vt 0.259123 0.304975
vt 0.318048 0.368426
vt 0.539145 0.000102
vt 0.518093 0.167774
vt 0.345312 0.296517
vt 0.368870 0.464038
vt 0.447860 0.478373
vt 0.412564 0.586969
vt 0.562855 0.515905
vt 0.523094 0.593510
vt 0.460499 0.643533
vt 0.594236 0.625858
vt 0.354614 0.734343
vt 0.313815 0.653397
vt 0.416468 0.280395
vt 0.381630 0.338919
vt 0.304197 0.434634
vt 0.408213 0.384011
vt 0.419459 0.207093
vt 0.786152 0.057588
vt 0.880677 0.147250
vt 0.791259 0.177012
vt 0.999897 0.029253
vt 0.999897 0.133601
vt 0.785947 0.310584
vt 0.630537 0.192158
vt 0.949678 0.256795
vt 0.847197 0.238538
vt 0.542078 0.390580
vt 0.674455 0.448555
vt 0.601048 0.308068
vt 0.489806 0.250821
vt 0.458658 0.341090
vt 0.471896 0.433075
vt 0.403357 0.794492
vt 0.926196 0.000102
vt 0.678128 0.665490
vt 0.000102 0.189061
s 1
usemtl kamien_5
f 14/1/1 3/2/2 1/3/3
f 5/4/4 14/1/1 27/5/5
f 32/6/6 14/1/1 5/4/4
f 27/5/5 14/1/1 1/3/3
f 15/7/7 19/8/8 3/2/2
f 37/9/9 14/1/1 32/6/6
f 19/8/8 16/10/10 17/11/11
f 16/10/10 7/12/12 18/13/13
f 1/3/3 21/14/14 6/15/15
f 1/3/3 19/8/8 21/14/14
f 15/7/7 37/9/9 16/10/10
f 18/13/13 41/16/16 9/17/17
f 21/14/14 17/11/11 28/18/18
f 29/19/19 2/20/20 22/21/21
f 2/20/20 11/22/22 24/23/23
f 25/24/24 33/25/25 43/26/26
f 27/5/5 22/21/21 26/27/27
f 10/28/28 4/29/29 28/18/18
f 6/15/15 23/30/30 1/3/3
f 28/18/18 6/15/15 21/14/14
f 6/15/15 29/19/19 23/30/30
f 6/15/15 30/31/31 29/19/19
f 20/32/32 10/28/28 17/11/11
f 29/19/19 30/31/31 2/20/20
f 32/33/6 42/34/33 36/35/34
f 34/36/35 35/37/36 42/34/33
f 26/27/27 43/26/26 5/4/4
f 35/38/36 8/39/37 41/16/16
f 42/34/33 41/40/16 7/41/12
f 42/34/33 7/41/12 36/35/34
f 11/22/22 44/42/38 13/43/39
f 38/44/40 44/42/38 40/45/41
f 44/42/38 39/46/42 40/45/41
f 38/44/40 9/17/17 8/39/37
f 13/43/39 38/44/40 8/39/37
f 11/22/22 12/47/43 44/42/38
f 44/42/38 12/47/43 39/46/42
f 39/46/42 10/28/28 40/45/41
f 1/3/3 3/2/2 19/8/8
f 26/27/27 5/4/4 27/5/5
f 37/9/9 15/7/7 3/2/2
f 37/9/9 3/2/2 14/1/1
f 21/14/14 19/8/8 17/11/11
f 17/11/11 16/10/10 18/13/13
f 19/8/8 15/7/7 16/10/10
f 16/10/10 37/9/9 7/12/12
f 18/13/13 7/12/12 41/16/16
f 9/17/17 41/16/16 8/39/37
f 20/32/32 18/13/13 9/17/17
f 17/11/11 18/13/13 20/32/32
f 27/5/5 29/19/19 22/21/21
f 22/21/21 2/20/20 24/23/23
f 2/20/20 12/47/43 11/22/22
f 24/23/23 11/22/22 33/25/25
f 22/21/21 24/23/23 25/24/24
f 25/24/24 24/23/23 33/25/25
f 26/27/27 22/21/21 25/24/24
f 23/30/30 29/19/19 27/5/5
f 1/3/3 23/30/30 27/5/5
f 6/15/15 4/29/29 30/31/31
f 28/18/18 4/29/29 6/15/15
f 10/28/28 39/46/42 4/29/29
f 17/11/11 10/28/28 28/18/18
f 2/20/20 30/31/31 12/47/43
f 30/31/31 4/29/29 39/46/42
f 30/31/31 39/46/42 12/47/43
f 43/26/26 31/48/44 32/6/6
f 31/49/44 34/36/35 42/34/33
f 32/33/6 31/49/44 42/34/33
f 26/27/27 25/24/24 43/26/26
f 43/26/26 33/25/25 31/48/44
f 31/48/44 33/25/25 34/50/35
f 34/50/35 13/43/39 35/38/36
f 34/50/35 33/25/25 13/43/39
f 35/38/36 13/43/39 8/39/37
f 42/34/33 35/37/36 41/40/16
f 36/51/34 7/12/12 37/9/9
f 37/9/9 32/6/6 36/51/34
f 5/4/45 43/26/26 32/6/6
f 13/43/39 44/42/38 38/44/40
f 33/25/25 11/22/22 13/43/39
f 40/45/41 10/28/28 20/32/32
f 9/17/17 40/45/41 20/32/32
f 38/44/40 40/45/41 9/17/17
