# Blender 4.4.3
# www.blender.org
mtllib kamien_5.mtl
o rock
v 0.250958 0.288945 -0.015283
v -0.043643 0.400246 0.261099
v 0.286784 0.152459 -0.092780
v -0.009704 0.561805 0.015109
v 0.211586 0.038960 0.110631
v 0.115623 0.518102 0.028113
v 0.048060 0.008777 -0.212534
v -0.137272 0.102294 -0.101497
v -0.131460 0.237196 -0.145160
v -0.079294 0.481091 -0.064910
v -0.142949 0.210604 0.239109
v -0.109717 0.434271 0.212231
v -0.178358 0.096864 0.113676
v 0.297829 0.130534 -0.052989
v 0.184895 0.160731 -0.206858
v 0.115435 0.191773 -0.239917
v 0.038307 0.407618 -0.181379
v -0.014513 0.230717 -0.245104
v 0.198178 0.298913 -0.157756
v -0.080479 0.370049 -0.156445
v 0.157620 0.431333 -0.110585
v 0.047725 0.214231 0.287633
v 0.157419 0.442438 0.117259
v -0.068145 0.138354 0.292224
v 0.010388 0.083606 0.272201
v 0.148484 0.105174 0.188977
v 0.212537 0.178258 0.115957
v 0.033309 0.514149 -0.079870
v 0.077377 0.445528 0.212163
v -0.037965 0.548010 0.118765
v 0.054572 0.008777 0.114534
v 0.201659 0.008777 -0.016867
v -0.107730 0.057566 0.245183
v -0.048580 0.008703 0.110664
v -0.093795 0.008777 -0.017457
v 0.143488 0.008777 -0.161337
v 0.199372 0.042558 -0.171715
v -0.190271 0.198023 0.007901
v -0.127282 0.477514 0.052504
v -0.144193 0.359064 -0.069561
v -0.085626 0.008777 -0.190421
v 0.046689 0.008777 -0.085904
v 0.112873 0.031252 0.151475
v -0.175265 0.337945 0.121816
vn 0.9480 0.3034 -0.0960
vn 0.8898 -0.0235 0.4558
vn 0.7937 -0.6029 0.0809
vn 0.8982 0.1692 0.4057
vn 0.7420 0.1600 -0.6511
vn 0.7535 -0.6399 -0.1507
vn 0.3741 0.3649 -0.8526
vn -0.0044 -0.1464 -0.9892
vn 0.8539 0.5165 -0.0646
vn 0.8775 0.3752 -0.2988
vn 0.3319 -0.2313 -0.9145
vn -0.6489 0.0205 -0.7606
vn 0.2759 0.6698 -0.6894
vn 0.2740 0.2664 0.9241
vn -0.4739 0.1475 0.8681
vn 0.0897 -0.8837 0.4594
vn 0.7257 0.0497 0.6863
vn -0.3027 0.7898 -0.5334
vn 0.8628 0.5050 0.0241
vn 0.4492 0.8123 -0.3721
vn 0.5097 0.7590 0.4052
vn 0.4001 0.8212 0.4069
vn -0.3416 0.6000 -0.7234
vn 0.0321 0.6927 0.7205
vn -0.0000 -1.0000 -0.0000
vn -0.0002 -1.0000 -0.0005
vn 0.3550 -0.5533 0.7535
vn -0.8910 -0.4521 -0.0421
vn -0.9632 0.0033 0.2689
vn -0.9679 0.2126 -0.1337
vn -0.9557 0.2661 -0.1258
vn -0.9231 -0.0818 -0.3756
vn -0.9341 -0.3046 -0.1861
vn -0.8784 0.1835 0.4413
vn -0.8884 0.4089 0.2084
vn -0.8297 0.4537 -0.3253
vn 0.8699 0.3956 -0.2946
vn 0.7660 -0.0298 0.6421
vn 0.7376 -0.1079 -0.6666
vn 0.8318 -0.3552 -0.4266
vn 0.4022 0.4141 -0.8166
vn 0.1282 0.3020 -0.9446
vn 0.5039 0.2458 -0.8280
vn 0.3037 -0.2494 -0.9195
vn -0.1603 -0.1874 -0.9691
vn -0.9017 -0.0975 -0.4212
vn -0.6334 0.1791 -0.7528
vn -0.3082 0.4025 -0.8619
vn 0.7287 0.1262 0.6731
vn -0.0404 0.1216 0.9918
vn -0.5243 0.1780 0.8328
vn -0.6490 -0.1195 0.7514
vn 0.1407 -0.1557 0.9777
vn -0.0990 -0.4640 0.8803
vn 0.5282 -0.2470 0.8124
vn 0.7577 0.1550 0.6340
vn 0.8907 0.1838 0.4158
vn 0.3030 0.9304 0.2064
vn 0.3418 0.8929 -0.2932
vn -0.6142 0.7555 -0.2280
vn -0.2851 0.6542 -0.7006
vn -0.1688 0.6872 0.7066
vn -0.5932 0.8032 -0.0549
vn -0.7087 0.6574 0.2559
vn 0.2136 -0.9472 0.2391
vn 0.0007 -1.0000 -0.0000
vn 0.4875 -0.5703 0.6612
vn 0.0750 -0.9001 0.4293
vn -0.0120 -0.9415 0.3367
vn -0.5483 -0.8137 0.1930
vn -0.5603 -0.8266 0.0539
vn -0.8256 -0.5377 -0.1712
vn 0.3256 -0.7251 -0.6069
vn 0.4809 -0.8551 -0.1936
vn 0.1642 -0.9627 0.2151
vn -0.9927 0.0087 0.1201
vn -0.8876 -0.1876 0.4207
vn -0.7560 0.4212 -0.5011
vn -0.7944 0.2581 -0.5499
vn -0.9369 0.1082 -0.3323
s 0
usemtl kamien
f 14//1 3//1 1//1
f 5//2 14//2 27//2
f 32//3 14//3 5//3
f 27//4 14//4 1//4
f 15//5 19//5 3//5
f 37//6 14//6 32//6
f 19//7 16//7 17//7
f 16//8 7//8 18//8
f 1//9 21//9 6//9
f 1//10 19//10 21//10
f 15//11 37//11 16//11
f 18//12 41//12 9//12
f 21//13 17//13 28//13
f 29//14 2//14 22//14
f 2//15 11//15 24//15
f 25//16 33//16 43//16
f 27//17 22//17 26//17
f 10//18 4//18 28//18
f 6//19 23//19 1//19
f 28//20 6//20 21//20
f 6//21 29//21 23//21
f 6//22 30//22 29//22
f 20//23 10//23 17//23
f 29//24 30//24 2//24
f 32//25 42//25 36//25
f 34//26 35//26 42//26
f 26//27 43//27 5//27
f 35//28 8//28 41//28
f 42//25 41//25 7//25
f 42//25 7//25 36//25
f 11//29 44//29 13//29
f 38//30 44//30 40//30
f 44//31 39//31 40//31
f 38//32 9//32 8//32
f 13//33 38//33 8//33
f 11//34 12//34 44//34
f 44//35 12//35 39//35
f 39//36 10//36 40//36
f 1//37 3//37 19//37
f 26//38 5//38 27//38
f 37//39 15//39 3//39
f 37//40 3//40 14//40
f 21//41 19//41 17//41
f 17//42 16//42 18//42
f 19//43 15//43 16//43
f 16//44 37//44 7//44
f 18//45 7//45 41//45
f 9//46 41//46 8//46
f 20//47 18//47 9//47
f 17//48 18//48 20//48
f 27//49 29//49 22//49
f 22//50 2//50 24//50
f 2//51 12//51 11//51
f 24//52 11//52 33//52
f 22//53 24//53 25//53
f 25//54 24//54 33//54
f 26//55 22//55 25//55
f 23//56 29//56 27//56
f 1//57 23//57 27//57
f 6//58 4//58 30//58
f 28//59 4//59 6//59
f 10//60 39//60 4//60
f 17//61 10//61 28//61
f 2//62 30//62 12//62
f 30//63 4//63 39//63
f 30//64 39//64 12//64
f 43//65 31//65 32//65
f 31//66 34//66 42//66
f 32//25 31//25 42//25
f 26//67 25//67 43//67
f 43//68 33//68 31//68
f 31//69 33//69 34//69
f 34//70 13//70 35//70
f 34//71 33//71 13//71
f 35//72 13//72 8//72
f 42//25 35//25 41//25
f 36//73 7//73 37//73
f 37//74 32//74 36//74
f 5//75 43//75 32//75
f 13//76 44//76 38//76
f 33//77 11//77 13//77
f 40//78 10//78 20//78
f 9//79 40//79 20//79
f 38//80 40//80 9//80
