# Blender 4.4.3
# www.blender.org
mtllib kamien_1.mtl
o rock.015
v -3.041040 4.705547 -0.878455
v -1.025955 0.861410 1.686110
v 0.026088 6.607390 -1.661960
v 1.362134 4.178238 -3.181509
v 0.441082 1.276325 2.891051
v 3.374872 2.976291 0.107074
v -3.326667 4.141439 1.648596
v -2.519731 5.966246 -1.956490
v -3.065934 3.468290 2.090279
v -3.065232 3.267186 -0.466283
v -1.229889 1.163666 -1.643942
v 1.911750 0.762781 2.604925
v -1.177945 5.005772 2.180334
v 2.220152 3.509828 2.817158
v 2.124196 4.738966 2.641578
v 2.040313 6.172803 -1.546759
v 2.109747 6.311417 0.203681
v 2.311217 0.981677 -2.192001
v -2.632162 3.655970 -2.026128
v 0.770831 5.861908 2.332474
v -1.804519 0.838697 0.142993
v 2.415959 0.804025 -0.354796
v -1.550416 5.968811 -2.553489
v 1.174479 5.720383 -2.610580
v -2.240444 5.102633 -2.946599
v 0.255155 1.091665 -2.820893
v -0.583274 4.805399 -3.819910
v 2.194881 1.242420 -2.607394
v -0.905090 2.089888 -3.048592
v 2.972618 1.207309 -1.408265
v 2.882455 1.091233 0.964300
v 1.603622 0.518541 1.827346
v 2.573943 4.948783 -2.237349
v -1.166397 3.869250 2.565182
v -0.423423 6.735085 -0.836990
v 2.756175 5.413796 -1.194180
v 0.674208 0.021626 -0.346657
v -0.338157 0.239823 0.744563
v 1.894803 0.382149 -1.433303
v -0.776877 0.672661 -1.365327
vn -0.7857 -0.2822 -0.5506
vn -0.9739 0.1484 -0.1718
vn -0.6672 0.1823 -0.7222
vn -0.9364 -0.3022 -0.1785
vn -0.8642 0.3020 0.4023
vn -0.1990 0.7853 -0.5862
vn -0.6954 0.6800 -0.2324
vn -0.4582 -0.6875 0.5634
vn -0.2173 0.0648 0.9740
vn -0.2989 0.1284 0.9456
vn 0.0457 -0.9581 0.2828
vn -0.3453 -0.7006 0.6244
vn 0.1602 -0.9574 0.2401
vn -0.3557 0.6118 0.7065
vn 0.0109 0.7133 0.7008
vn -0.0641 0.1559 0.9857
vn -0.1754 0.9805 0.0883
vn 0.4979 0.8002 -0.3343
vn 0.2994 0.6296 -0.7169
vn 0.0540 0.9338 -0.3537
vn 0.3698 -0.8991 -0.2341
vn 0.5037 -0.8638 0.0109
vn 0.0228 -0.9969 -0.0754
vn -0.6772 -0.7356 -0.0176
vn -0.8896 -0.4457 0.1001
vn -0.6461 -0.6124 -0.4556
vn -0.3870 -0.8557 -0.3436
vn -0.0699 0.2383 -0.9687
vn 0.4303 0.1044 -0.8966
vn 0.4978 -0.4064 -0.7662
vn -0.4501 -0.4145 -0.7910
vn 0.4987 -0.7298 -0.4676
vn -0.2154 -0.8376 -0.5021
vn 0.8418 -0.4601 -0.2824
vn 0.9145 0.3826 -0.1317
vn 0.9962 0.0480 0.0731
vn 0.8237 -0.5091 0.2499
vn 0.9205 0.0079 0.3907
vn 0.8909 -0.0855 0.4461
vn 0.5743 0.7982 0.1819
vn 0.8341 0.4150 0.3634
vn 0.8060 0.2306 -0.5451
vn -0.0712 0.0283 0.9971
vn 0.0476 0.0599 0.9971
vn 0.2788 0.2880 0.9162
vn -0.2362 -0.9532 0.1885
vn 0.1159 -0.0909 -0.9891
vt 0.114583 0.423594
vt 0.168411 0.338983
vt 0.178940 0.455318
vt 0.108829 0.292769
vt 0.220541 0.217725
vt 0.233918 0.443836
vt 0.208842 0.402934
vt 0.278343 0.000103
vt 0.347050 0.171420
vt 0.225128 0.173485
vt 0.661086 0.177579
vt 0.525105 0.133650
vt 0.697632 0.158002
vt 0.331386 0.231911
vt 0.412113 0.294612
vt 0.496214 0.294940
vt 0.314109 0.393542
vt 0.406626 0.470268
vt 0.352677 0.504536
vt 0.319178 0.434626
vt 0.776155 0.215605
vt 0.725556 0.168957
vt 0.847040 0.154445
vt 0.000103 0.168564
vt 0.000103 0.570204
vt 0.917758 0.219370
vt 0.968525 0.139932
vt 0.999897 0.304402
vt 0.239224 0.524939
vt 0.363108 0.574285
vt 0.494135 0.724059
vt 0.113398 0.608103
vt 0.523516 0.755293
vt 0.225375 0.720966
vt 0.596507 0.633354
vt 0.461402 0.479005
vt 0.581219 0.447010
vt 0.671218 0.360516
vt 0.540674 0.265292
vt 0.702288 0.526427
vt 0.427538 0.402477
vt 0.430029 0.530663
vt 0.702494 0.279027
vt 0.787200 0.013930
vt 0.999897 0.000103
vt 0.905548 0.096170
vt 0.866774 0.299147
s 1
usemtl kamien_1
f 19/1/1 1/2/2 25/3/3
f 1/2/2 10/4/4 7/5/5
f 23/6/6 25/3/3 8/7/7
f 8/7/7 1/2/2 7/5/5
f 2/8/8 34/9/9 9/10/10
f 12/11/11 5/12/12 32/13/13
f 32/13/13 5/12/12 2/8/8
f 9/10/10 13/14/14 7/5/5
f 13/14/14 34/9/9 20/15/15
f 20/15/15 34/9/9 15/16/16
f 20/15/15 35/17/17 13/14/14
f 16/18/18 24/19/19 3/20/20
f 35/17/17 8/7/7 7/5/5
f 39/21/21 22/22/22 37/23/23
f 10/4/4 21/24/24 9/10/25
f 11/25/26 21/24/24 10/4/4
f 40/26/27 21/27/24 11/28/26
f 21/24/24 2/8/8 9/10/25
f 23/6/6 24/19/19 27/29/28
f 3/20/20 24/19/19 23/6/6
f 23/6/6 27/29/28 25/3/3
f 4/30/29 28/31/30 27/29/28
f 28/31/30 29/32/31 27/29/28
f 29/32/31 11/25/26 25/3/3
f 28/31/30 18/33/32 26/34/33
f 29/32/31 26/34/33 11/25/26
f 27/29/28 29/32/31 25/3/3
f 18/33/32 28/31/30 30/35/34
f 28/31/30 36/36/35 30/35/34
f 36/36/35 6/37/36 30/35/34
f 30/35/34 6/37/36 31/38/37
f 6/37/36 14/39/38 12/11/39
f 22/40/22 31/38/37 32/13/13
f 18/33/32 30/35/34 22/40/22
f 36/36/35 17/41/40 15/16/41
f 33/42/42 16/18/18 36/36/35
f 36/36/35 16/18/18 17/41/40
f 17/41/40 20/15/15 15/16/41
f 8/7/7 25/3/3 1/2/2
f 10/4/4 19/1/1 11/25/26
f 7/5/5 10/4/4 9/10/25
f 1/2/2 19/1/1 10/4/4
f 25/3/3 11/25/26 19/1/1
f 2/8/8 5/12/12 34/9/9
f 14/39/43 15/16/16 34/9/9
f 9/10/10 34/9/9 13/14/14
f 14/39/43 34/9/9 12/11/44
f 12/11/44 34/9/9 5/12/45
f 17/41/40 3/20/20 35/17/17
f 13/14/14 35/17/17 7/5/5
f 20/15/15 17/41/40 35/17/17
f 17/41/40 16/18/18 3/20/20
f 3/20/20 23/6/6 8/7/7
f 35/17/17 3/20/20 8/7/7
f 18/43/32 22/22/22 39/21/21
f 37/23/23 22/22/22 32/44/13
f 2/45/8 21/27/24 38/46/46
f 24/19/19 4/30/29 27/29/28
f 16/18/18 33/42/42 24/19/19
f 24/19/19 33/42/42 4/30/29
f 28/31/30 26/34/47 29/32/31
f 33/42/42 28/31/30 4/30/29
f 31/38/37 6/37/36 12/11/39
f 32/13/13 31/38/37 12/11/11
f 22/40/22 30/35/34 31/38/37
f 6/37/36 36/36/35 15/16/41
f 6/37/36 15/16/41 14/39/38
f 28/31/30 33/42/42 36/36/35
f 37/23/23 32/44/13 38/46/46
f 40/26/27 26/47/33 37/23/23
f 21/27/24 37/23/23 38/46/46
f 32/44/13 2/45/8 38/46/46
f 26/47/33 39/21/21 37/23/23
f 26/47/33 18/43/32 39/21/21
f 21/27/24 40/26/27 37/23/23
f 26/47/33 40/26/27 11/28/26
