# Blender 4.4.3
# www.blender.org
mtllib patyk_2.mtl
o Vert.007
v -0.719337 0.042494 -0.050246
v -0.730446 0.028514 -0.034074
v -0.709919 0.042513 0.001124
v -0.726051 0.028514 -0.010100
v -0.709919 0.066741 0.001124
v -0.726051 0.080740 -0.010100
v -0.719337 0.066760 -0.050246
v -0.730446 0.080740 -0.034074
v -0.232778 0.033047 -0.148108
v -0.233513 0.019051 -0.133350
v -0.236568 0.032983 -0.075205
v -0.235635 0.019051 -0.090732
v -0.236568 0.076271 -0.075205
v -0.235635 0.090203 -0.090732
v -0.233513 0.090203 -0.133350
v -0.232778 0.076207 -0.148108
v 0.195411 0.028514 -0.000988
v 0.196979 0.042531 -0.015007
v 0.190959 0.028514 0.022544
v 0.189669 0.042597 0.036704
v 0.190959 0.080740 0.022544
v 0.189669 0.066657 0.036704
v 0.195411 0.080740 -0.000988
v 0.196979 0.066723 -0.015007
v 0.948904 0.042441 -0.079291
v 0.964287 0.028514 -0.067038
v 0.955021 0.042357 -0.027401
v 0.967145 0.028514 -0.042792
v 0.955021 0.066897 -0.027401
v 0.967145 0.080740 -0.042792
v 0.948904 0.066813 -0.079291
v 0.964287 0.080740 -0.067038
v 0.478425 0.028514 0.110975
v 0.487623 0.042357 0.098076
v 0.469735 0.028514 0.129376
v 0.459166 0.042577 0.141867
v 0.469735 0.080740 0.129376
v 0.459166 0.066677 0.141867
v 0.478425 0.080740 0.110975
v 0.487623 0.066897 0.098076
v 0.644807 0.042357 0.115675
v 0.656816 0.042357 0.130947
v 0.643057 0.028514 0.129408
v 0.638262 0.042568 0.167092
v 0.640009 0.028514 0.153358
v 0.653718 0.042357 0.155291
v 0.640009 0.080740 0.153358
v 0.638262 0.066685 0.167092
v 0.653718 0.066897 0.155291
v 0.644807 0.066897 0.115675
v 0.643057 0.080740 0.129408
v 0.656816 0.066897 0.130947
v -0.288626 0.042500 -0.129210
v -0.286118 0.028514 -0.115529
v -0.281725 0.028514 -0.091568
v -0.279208 0.042520 -0.077840
v -0.279208 0.066734 -0.077840
v -0.281725 0.080740 -0.091568
v -0.286118 0.080740 -0.115529
v -0.288626 0.066754 -0.129210
v -0.179768 0.042518 -0.123952
v -0.183623 0.028514 -0.110591
v -0.190371 0.028514 -0.087195
v -0.194243 0.042595 -0.073772
v -0.194243 0.066659 -0.073772
v -0.190371 0.080740 -0.087195
v -0.183623 0.080740 -0.110591
v -0.179768 0.066736 -0.123952
v 0.321685 0.042559 -0.015264
v 0.321685 0.028514 -0.001241
v 0.321685 0.028514 0.022786
v 0.321685 0.042618 0.036961
v 0.321685 0.066636 0.036961
v 0.321685 0.080740 0.022786
v 0.321685 0.080740 -0.001241
v 0.321685 0.066695 -0.015264
v 0.364472 0.013964 -0.015797
v 0.351366 0.032484 -0.025358
v 0.378251 0.030113 -0.028483
v 0.365135 0.027894 0.049195
v 0.371376 0.015082 0.041059
v 0.365135 0.081360 0.049195
v 0.371376 0.094172 0.041059
v 0.351366 0.076770 -0.025358
v 0.364472 0.095290 -0.015797
v 0.378251 0.079141 -0.028483
v 0.454971 0.042444 -0.021069
v 0.455336 0.028514 -0.007036
v 0.456360 0.042357 0.032243
v 0.436106 0.025303 0.020780
v 0.436106 0.083951 0.020780
v 0.456360 0.066897 0.032243
v 0.455336 0.080740 -0.007036
v 0.454971 0.066810 -0.021069
v 0.420602 0.028514 0.052888
v 0.406973 0.042603 0.060757
v 0.406973 0.066651 0.060757
v 0.420602 0.080740 0.052888
vn -0.1483 -0.0000 0.9889
vn -0.1406 -0.0000 0.9901
vn 0.0642 -0.9901 0.1245
vn 0.0070 -0.9984 0.0561
vn 0.1008 -0.9946 0.0237
vn -0.0053 -0.0000 -1.0000
vn -0.0123 -0.0000 -0.9999
vn 0.0070 0.9984 0.0561
vn 0.0642 0.9901 0.1245
vn 0.1008 0.9946 0.0237
vn -0.0702 0.9974 0.0189
vn 0.0445 0.9956 -0.0825
vn -0.0702 -0.9974 0.0189
vn -0.1658 -0.9860 0.0161
vn -0.1780 -0.9840 -0.0000
vn -0.1171 -0.0000 -0.9931
vn -0.1803 -0.0000 -0.9836
vn -0.2545 -0.0000 -0.9671
vn 0.9920 -0.0000 0.1263
vn -0.0000 1.0000 -0.0000
vn -0.1073 0.9940 0.0197
vn -0.1006 0.9949 0.0085
vn 0.1803 -0.0000 0.9836
vn 0.0518 -0.0000 0.9987
vn -0.1501 -0.0000 0.9887
vn 0.3505 -0.0000 -0.9366
vn 0.4147 -0.0000 -0.9100
vn -0.0000 -1.0000 -0.0000
vn -0.0056 -1.0000 0.0056
vn 0.1008 0.9947 0.0187
vn 0.0005 0.9999 0.0131
vn 0.1065 0.9938 0.0307
vn 0.0005 -0.9999 0.0131
vn -0.1006 -0.9949 0.0085
vn 0.0011 -1.0000 0.0001
vn -0.0478 -0.0000 0.9989
vn 0.1393 -0.0000 -0.9903
vn 0.1008 -0.9947 0.0187
vn -0.9836 -0.0000 0.1803
vn -0.1788 -0.0000 -0.9839
vn -0.1787 -0.0000 -0.9839
vn -0.0003 1.0000 -0.0038
vn -0.8409 -0.0000 0.5411
vn 0.9033 -0.0000 -0.4290
vn -0.3205 -0.0000 -0.9472
vn -0.2058 -0.0000 -0.9786
vn -0.2687 -0.0000 0.9632
vn -0.2664 -0.0000 0.9639
vn 0.0445 -0.9956 -0.0825
vn -0.0003 -1.0000 -0.0038
vn 0.1113 -0.0000 -0.9938
vn 0.9931 -0.0000 -0.1171
vn 0.1188 -0.0000 0.9929
vn -0.0056 1.0000 0.0056
vn -0.1395 -0.0000 0.9902
vn -0.1658 0.9860 0.0161
vn 0.6402 -0.5803 -0.5034
vn 0.4907 -0.5770 0.6529
vn 0.4907 0.5770 0.6529
vn 0.6402 0.5803 -0.5034
vn -0.1401 -0.6376 -0.7575
vn -0.3486 -0.6129 -0.7091
vn 0.0808 -0.6573 -0.7493
vn -0.3486 0.6129 -0.7091
vn -0.1401 0.6376 -0.7575
vn 0.0808 0.6573 -0.7493
vn 0.7855 -0.0000 0.6188
vn 0.7856 -0.0000 0.6188
vn 0.0524 -0.7082 -0.7041
vn 0.0449 -0.7084 -0.7044
vn 0.0524 0.7082 -0.7041
vn -0.5711 -0.0000 0.8209
vn -0.0550 0.5331 0.8442
vn -0.2043 0.5900 0.7811
vn -0.2529 0.6067 0.7537
vn 0.6230 -0.0000 -0.7822
vn -0.0550 -0.5331 0.8442
vn -0.2043 -0.5900 0.7811
vn -0.0589 -0.5296 0.8462
vn -0.8243 -0.0000 -0.5662
vn 0.7861 -0.0000 -0.6181
vn 0.7014 0.7071 0.0893
vn 0.6069 -0.0000 0.7948
vn 0.7014 -0.7071 0.0893
vn -0.1279 -0.7052 -0.6974
vn -0.2364 -0.7008 -0.6731
vn 0.1278 -0.7058 0.6968
vn -0.0296 -0.7062 0.7074
vn -0.0341 -0.6965 0.7168
vn -0.0296 0.7062 0.7074
vn 0.1278 0.7058 0.6968
vn -0.0341 0.6965 0.7168
vn -0.1279 0.7052 -0.6974
vn -0.2364 0.7008 -0.6731
vn -0.2349 0.6994 -0.6751
vn -0.2349 -0.6994 -0.6751
vn -0.3373 -0.6774 -0.6537
vn -0.0325 -0.7285 0.6843
vn -0.0303 -0.7449 0.6665
vn -0.0325 0.7285 0.6843
vn -0.0303 0.7449 0.6665
vn -0.3373 0.6774 -0.6537
vn -0.3365 0.6749 -0.6568
vn 0.3025 -0.6987 -0.6483
vn 0.4032 -0.6767 -0.6161
vn 0.4026 -0.6741 -0.6192
vn -0.0386 -0.7045 0.7086
vn -0.0349 -0.6946 0.7186
vn -0.0386 0.7045 0.7086
vn -0.0349 0.6946 0.7186
vn 0.3025 0.6987 -0.6483
vn 0.4032 0.6767 -0.6161
vn 0.3038 0.7001 -0.6462
vn 0.0996 -0.7092 -0.6980
vn 0.3038 -0.7001 -0.6462
vn -0.1014 -0.7100 0.6969
vn -0.0969 -0.7101 0.6974
vn -0.1014 0.7100 0.6969
vn -0.0969 0.7101 0.6974
vn 0.0996 0.7092 -0.6980
vn 0.0970 0.7092 -0.6983
vn -0.2227 -0.6888 -0.6899
vn 0.0970 -0.7092 -0.6983
vn -0.2036 -0.6941 0.6905
vn -0.2028 -0.6919 0.6929
vn -0.2036 0.6941 0.6905
vn -0.2028 0.6919 0.6929
vn -0.2227 0.6888 -0.6899
vn -0.2228 0.6888 -0.6898
vn -0.2228 -0.6888 -0.6898
vn -0.2529 -0.6067 0.7537
vn -0.0827 -0.7082 -0.7012
vn 0.0958 -0.6326 0.7686
vn 0.0845 -0.7039 0.7052
vn 0.0840 -0.7071 0.7021
vn 0.0845 0.7039 0.7052
vn 0.0958 0.6326 0.7686
vn 0.0840 0.7071 0.7021
vn -0.0827 0.7082 -0.7012
vn 0.7019 -0.6415 -0.3095
vn 0.6543 -0.6920 -0.3050
vn 0.7089 -0.6335 -0.3101
vn -0.5616 -0.7445 0.3608
vn -0.5622 -0.7439 0.3615
vn -0.5623 -0.7437 0.3616
vn -0.5622 0.7439 0.3615
vn -0.5616 0.7445 0.3608
vn -0.5623 0.7437 0.3616
vn 0.7019 0.6415 -0.3095
vn 0.6543 0.6920 -0.3050
vn 0.6387 0.7071 -0.3033
vn 0.0787 -0.7071 -0.7027
vn -0.0994 -0.7017 0.7055
vn -0.0994 -0.7015 0.7057
vn -0.0994 0.7015 0.7057
vn -0.0994 0.7017 0.7055
vn 0.0787 0.7071 -0.7027
vn -0.1073 -0.9940 0.0197
vn 0.0011 1.0000 0.0001
vn 0.1065 -0.9938 0.0307
vn -0.1780 0.9840 -0.0000
vn 0.0449 0.7084 -0.7044
vn -0.0589 0.5296 0.8462
vn -0.3365 -0.6749 -0.6568
vn 0.4026 0.6741 -0.6192
vn 0.0959 -0.6313 0.7696
vn 0.0959 0.6313 0.7696
vn 0.6387 -0.7071 -0.3033
vn -0.5615 -0.7447 0.3607
vn -0.5615 0.7447 0.3607
vn 0.7089 0.6335 -0.3101
s 1
usemtl drewno
f 64//1 22//2 65//1
f 95//3 81//4 90//5
f 87//6 86//7 94//6
f 83//8 98//9 91//10
f 85//11 91//10 93//12
f 77//13 71//14 70//15
f 94//6 25//16 87//6
f 7//17 53//18 1//17
f 49//19 42//19 52//19
f 8//20 58//21 59//22
f 3//23 57//24 5//23
f 73//25 20//2 72//25
f 61//26 16//27 68//26
f 35//28 33//29 45//28
f 67//30 14//31 66//32
f 12//33 54//34 10//35
f 57//24 56//24 11//36
f 68//26 18//37 61//26
f 62//38 12//33 10//35
f 4//39 8//39 2//39
f 23//20 66//32 21//20
f 17//28 71//14 19//28
f 69//40 24//37 76//41
f 93//12 30//42 32//20
f 38//43 96//43 36//43
f 34//44 92//44 40//44
f 9//45 60//18 16//45
f 78//46 76//41 84//46
f 77//13 90//5 81//4
f 80//47 96//48 97//48
f 88//49 28//50 90//5
f 41//51 40//51 50//51
f 30//52 26//52 32//52
f 14//31 59//22 58//21
f 89//53 29//53 92//53
f 39//54 98//9 37//20
f 48//55 36//55 44//55
f 85//11 74//56 83//8
f 41//57 42//57 43//57
f 44//58 45//58 46//58
f 47//59 48//59 49//59
f 50//60 51//60 52//60
f 77//61 78//62 79//63
f 84//64 85//65 86//66
f 27//67 30//67 29//68
f 88//69 79//63 87//70
f 84//46 79//7 78//46
f 93//71 86//66 85//65
f 5//72 4//72 3//72
f 97//73 83//74 82//75
f 31//76 26//76 25//76
f 96//77 81//78 95//79
f 1//80 8//80 7//80
f 50//81 42//81 41//81
f 51//82 49//82 52//82
f 48//83 46//83 49//83
f 43//84 46//84 45//84
f 1//85 54//86 2//85
f 3//87 55//88 56//89
f 58//90 5//91 57//92
f 7//93 59//94 60//95
f 53//96 10//97 54//86
f 11//98 55//88 12//99
f 58//90 13//100 14//101
f 60//95 15//102 16//103
f 61//104 10//105 9//106
f 11//98 63//107 64//108
f 66//109 13//100 65//110
f 68//111 15//112 67//113
f 18//114 62//115 61//104
f 64//108 19//116 20//117
f 21//118 65//110 22//119
f 24//120 67//113 23//121
f 18//114 70//122 17//123
f 72//124 19//116 71//125
f 21//118 73//126 74//127
f 24//120 75//128 76//129
f 78//62 70//122 69//130
f 80//131 71//125 81//78
f 74//127 82//75 83//74
f 84//64 75//128 85//65
f 25//132 88//69 87//70
f 89//133 28//134 27//135
f 30//136 92//137 29//138
f 31//139 93//71 32//139
f 89//140 33//141 90//142
f 96//143 35//144 36//145
f 37//146 97//147 38//148
f 92//149 39//150 40//151
f 34//152 43//152 33//152
f 44//153 35//154 45//153
f 37//155 48//156 47//156
f 40//157 51//157 50//157
f 2//28 55//158 4//28
f 64//1 20//2 22//2
f 87//6 79//7 86//7
f 85//11 83//8 91//10
f 77//13 81//4 71//14
f 94//6 31//16 25//16
f 7//17 60//18 53//18
f 49//19 46//19 42//19
f 8//20 6//20 58//21
f 3//23 56//24 57//24
f 73//25 22//2 20//2
f 61//26 9//27 16//27
f 35//28 95//3 33//29
f 95//3 90//5 33//29
f 33//29 43//28 45//28
f 67//30 15//159 14//31
f 12//33 55//158 54//34
f 11//36 64//1 65//1
f 65//1 13//36 11//36
f 13//36 57//24 11//36
f 68//26 24//37 18//37
f 62//38 63//160 12//33
f 4//39 6//39 8//39
f 23//20 67//30 66//32
f 21//20 74//56 23//20
f 74//56 75//161 23//20
f 19//28 63//160 17//28
f 63//160 62//38 17//28
f 17//28 70//15 71//14
f 69//40 18//37 24//37
f 93//12 91//10 30//42
f 38//43 97//43 96//43
f 34//44 89//44 92//44
f 9//45 53//18 60//18
f 78//46 69//40 76//41
f 77//13 88//49 90//5
f 97//48 82//47 80//47
f 82//47 73//25 80//47
f 73//25 72//25 80//47
f 88//49 26//28 28//50
f 41//51 34//51 40//51
f 30//52 28//52 26//52
f 14//31 15//159 59//22
f 89//53 27//53 29//53
f 39//54 91//10 98//9
f 37//20 47//20 39//54
f 47//20 51//20 39//54
f 48//55 38//55 36//55
f 85//11 75//161 74//56
f 27//67 28//67 30//67
f 88//69 77//61 79//63
f 84//46 86//7 79//7
f 93//71 94//162 86//66
f 5//72 6//72 4//72
f 97//73 98//163 83//74
f 31//76 32//76 26//76
f 96//77 80//131 81//78
f 1//80 2//80 8//80
f 50//81 52//81 42//81
f 51//82 47//82 49//82
f 48//83 44//83 46//83
f 43//84 42//84 46//84
f 1//85 53//96 54//86
f 3//87 4//87 55//88
f 58//90 6//91 5//91
f 7//93 8//93 59//94
f 53//96 9//164 10//97
f 11//98 56//89 55//88
f 58//90 57//92 13//100
f 60//95 59//94 15//102
f 61//104 62//115 10//105
f 11//98 12//99 63//107
f 66//109 14//101 13//100
f 68//111 16//165 15//112
f 18//114 17//123 62//115
f 64//108 63//107 19//116
f 21//118 66//109 65//110
f 24//120 68//111 67//113
f 18//114 69//130 70//122
f 72//124 20//117 19//116
f 21//118 22//119 73//126
f 24//120 23//121 75//128
f 78//62 77//61 70//122
f 80//131 72//124 71//125
f 74//127 73//126 82//75
f 84//64 76//129 75//128
f 25//132 26//132 88//69
f 89//133 90//166 28//134
f 30//136 91//167 92//137
f 31//139 94//162 93//71
f 89//140 34//168 33//141
f 96//143 95//169 35//144
f 37//146 98//170 97//147
f 92//149 91//171 39//150
f 34//152 41//152 43//152
f 44//153 36//154 35//154
f 37//155 38//155 48//156
f 40//157 39//157 51//157
f 2//28 54//34 55//158
