# Blender 4.4.3
# www.blender.org
mtllib stos_top.mtl
o rock.002
v 1.026193 4.704556 -2.036110
v 0.659452 5.806393 -0.965729
v 1.639709 5.516888 -1.165024
v -0.949968 2.984737 -1.251991
v -0.542626 2.784262 -2.848190
v -1.247935 3.626221 -0.194527
v 1.289599 4.115566 -2.841492
v 1.756045 2.442284 -3.877090
v -0.626339 1.667089 -3.765602
v 2.680648 3.160305 -3.159882
v 0.747491 1.979439 -4.139580
v 1.482638 0.640633 -4.118179
v -0.671265 0.656425 -3.784500
v -1.508635 0.698872 -2.788933
v -1.283667 0.164177 -1.997704
v 0.982633 0.164177 -3.610802
v 2.900649 0.674484 -3.538643
v 0.123851 0.164175 -0.944679
v 3.538730 0.164177 -2.058952
v 3.385898 0.164177 0.184547
v 3.804526 0.797161 -2.232216
v 3.831863 1.514591 -0.809578
v 3.208425 3.048214 -2.640747
v 2.360760 4.787979 -0.265594
v 3.010388 2.756386 1.622368
v 1.014943 5.734047 0.576645
v 1.913230 4.187084 1.550446
v 2.649280 2.693878 2.079506
v 0.397011 4.706841 1.933662
v 1.517039 2.806606 2.255203
v -0.540410 3.568638 2.434387
v -1.346301 2.635288 2.145294
v 3.049943 0.736740 1.377686
v 0.014082 0.983202 1.619530
v -1.800682 0.931198 0.743439
v 0.620706 0.164175 0.976616
v -1.423594 0.164177 -0.025581
v -1.910852 0.826725 -1.679695
v -1.596520 1.343151 -2.590309
v -1.961960 1.585596 -0.114250
v -2.005039 2.737673 0.529983
v -2.071407 2.872154 1.256073
v -1.325310 4.415134 0.316887
v -0.933026 5.195297 1.059036
v -1.360722 3.884083 1.852707
v -0.429492 4.842163 1.791588
v -0.308308 5.676197 0.009705
vn -0.7632 0.3615 -0.5355
vn -0.6809 0.3788 -0.6268
vn -0.3879 0.6814 -0.6206
vn 0.0653 0.7064 -0.7048
vn 0.4439 0.8353 -0.3245
vn -0.0698 0.6807 -0.7292
vn -0.7817 0.5094 -0.3598
vn -0.6405 0.5987 -0.4809
vn 0.2498 0.3283 -0.9110
vn -0.1160 0.2641 -0.9575
vn 0.5149 0.4634 -0.7212
vn -0.6478 0.3866 -0.6564
vn -0.2137 -0.0329 -0.9764
vn 0.1623 0.0166 -0.9866
vn -0.2689 0.0300 -0.9627
vn -0.7635 0.0460 -0.6442
vn -0.8484 0.0363 -0.5280
vn -0.0137 -0.9092 -0.4162
vn -0.2726 -0.8698 -0.4114
vn 0.1297 -0.7834 -0.6078
vn -0.4217 -0.8954 -0.1431
vn -0.5849 -0.7394 -0.3334
vn -0.0000 -1.0000 -0.0000
vn 0.0636 -0.9925 -0.1047
vn 0.2470 -0.8671 -0.4325
vn 0.0485 -0.9844 0.1694
vn 0.9447 -0.3181 0.0803
vn 0.9594 -0.1540 0.2365
vn 0.9262 -0.3717 0.0631
vn 0.7543 -0.4481 -0.4798
vn 0.9909 0.0913 0.0988
vn 0.8350 0.4004 -0.3775
vn 0.9127 0.1747 -0.3694
vn 0.6192 0.1174 -0.7764
vn 0.7890 0.6025 0.1203
vn 0.8561 0.2730 0.4389
vn 0.5332 0.5472 0.6452
vn 0.2750 0.8940 0.3539
vn 0.1426 0.5848 0.7986
vn 0.6361 0.5166 0.5731
vn 0.2271 0.3565 0.9063
vn 0.1795 0.4060 0.8961
vn -0.2243 0.3357 0.9149
vn -0.0201 -0.2799 0.9598
vn -0.1375 -0.3902 0.9104
vn 0.0382 -0.3287 0.9436
vn -0.1468 -0.5413 0.8279
vn 0.1149 -0.3144 0.9423
vn 0.0977 -0.6767 0.7298
vn -0.3200 -0.6601 0.6796
vn -0.0546 -0.8899 0.4529
vn -0.2937 -0.7449 0.5990
vn -0.9616 -0.2336 -0.1439
vn -0.8464 -0.5313 0.0365
vn -0.9621 -0.2655 0.0620
vn -0.8803 0.2641 -0.3940
vn -0.9927 0.0507 -0.1092
vn -0.9431 0.2036 -0.2630
vn -0.9542 0.1030 0.2809
vn -0.7210 0.0143 0.6927
vn -0.7812 -0.2590 0.5680
vn -0.6874 0.3843 0.6163
vn -0.8365 0.4281 -0.3421
vn -0.8092 0.5712 0.1378
vn -0.3400 0.5087 0.7910
vn -0.0879 0.8848 0.4577
vn 0.0843 0.9190 0.3851
vn -0.7205 0.4532 -0.5249
vn -0.1351 0.9668 0.2168
vn 0.1431 0.9896 0.0134
vn 0.9325 -0.0465 0.3582
vn 0.7872 -0.0589 0.6138
vt 0.540194 0.387074
vt 0.594554 0.488617
vt 0.542926 0.514808
vt 0.602578 0.526287
vt 0.519775 0.542190
vt 0.485073 0.411472
vt 0.439547 0.473228
vt 0.466452 0.588652
vt 0.415516 0.552107
vt 0.542350 0.616232
vt 0.379296 0.493863
vt 0.330905 0.501969
vt 0.371458 0.591131
vt 0.316660 0.447071
vt 0.304335 0.576051
vt 0.243102 0.445016
vt 0.000107 0.509082
vt 0.572741 0.772225
vt 0.484433 0.671417
vt 0.856998 0.999893
vt 0.588204 0.748482
vt 0.713656 0.772408
vt 0.579832 0.647941
vt 0.654534 0.557139
vt 0.758492 0.585451
vt 0.719537 0.497144
vt 0.650836 0.477115
vt 0.687734 0.417317
vt 0.765656 0.543416
vt 0.762857 0.414393
vt 0.689962 0.337897
vt 0.694350 0.264075
vt 0.808425 0.127317
vt 0.829359 0.672895
vt 0.543970 0.257786
vt 0.856998 0.000107
vt 0.427015 0.299309
vt 0.976865 0.173594
vt 0.857212 0.170493
vt 0.976865 0.000107
vt 0.361450 0.392161
vt 0.361385 0.432438
vt 0.495121 0.320795
vt 0.555767 0.326585
vt 0.599748 0.304778
vt 0.646783 0.332225
vt 0.580074 0.384277
vt 0.627296 0.394674
vt 0.661499 0.391326
vt 0.609931 0.440131
s 1
usemtl stos_top
f 6/1/1 2/2/2 1/3/3
f 2/2/4 3/4/5 1/3/3
f 3/4/5 7/5/6 1/3/3
f 1/3/3 4/6/7 6/1/1
f 5/7/8 4/6/7 1/3/3
f 1/3/3 7/5/6 5/7/8
f 7/5/6 8/8/9 11/9/10
f 10/10/11 8/8/9 7/5/6
f 5/7/8 7/5/6 9/11/12
f 10/10/11 7/5/6 3/4/5
f 7/5/6 11/9/10 9/11/12
f 13/12/13 11/9/10 12/13/14
f 8/8/9 12/13/14 11/9/10
f 9/11/15 11/9/10 13/12/13
f 13/12/16 14/14/17 9/11/12
f 16/15/18 13/12/19 12/13/20
f 15/16/21 14/14/22 13/12/19
f 16/15/18 15/16/21 13/12/19
f 18/17/23 15/16/21 16/15/18
f 19/18/24 16/15/18 17/19/25
f 16/15/18 12/13/20 17/19/25
f 19/18/24 18/17/23 16/15/18
f 20/20/26 18/17/23 19/18/24
f 21/21/27 20/20/28 19/18/29
f 17/19/30 21/21/30 19/18/30
f 21/21/27 22/22/31 20/20/28
f 23/23/32 22/22/31 21/21/33
f 23/23/32 21/21/33 17/19/34
f 10/10/11 3/4/5 23/23/32
f 3/4/5 24/24/35 23/23/32
f 23/23/32 24/24/35 22/22/31
f 23/23/32 17/19/34 10/10/11
f 24/24/35 25/25/36 22/22/31
f 27/26/37 25/25/36 24/24/35
f 3/4/5 26/27/38 24/24/35
f 24/24/35 26/27/38 27/26/37
f 27/26/37 26/27/38 29/28/39
f 27/26/37 28/29/40 25/25/36
f 27/26/37 30/30/41 28/29/42
f 27/26/37 29/28/39 30/30/41
f 29/28/39 31/31/43 30/30/41
f 31/31/44 32/32/45 30/30/46
f 30/30/46 32/32/45 34/33/47
f 28/29/48 30/30/46 33/34/49
f 30/30/46 34/33/47 33/34/49
f 34/33/47 32/32/45 35/35/50
f 34/33/47 35/35/50 36/36/51
f 33/34/49 34/33/47 36/36/51
f 35/35/50 37/37/52 36/36/51
f 36/38/51 18/39/23 20/40/26
f 33/34/49 36/36/51 20/20/26
f 37/37/23 18/17/23 36/36/51
f 37/37/23 15/16/21 18/17/23
f 38/41/53 37/37/54 35/35/55
f 38/41/53 15/16/21 37/37/54
f 38/41/53 14/14/22 15/16/21
f 14/14/17 38/41/53 39/42/56
f 40/43/57 39/42/56 38/41/53
f 40/43/57 38/41/53 35/35/55
f 40/43/57 4/6/7 39/42/56
f 41/44/58 4/6/7 40/43/57
f 42/45/59 41/44/58 40/43/57
f 42/45/59 40/43/57 35/35/55
f 32/32/60 42/45/59 35/35/61
f 45/46/62 42/45/59 32/32/60
f 42/45/59 43/47/63 41/44/58
f 44/48/64 43/47/63 42/45/59
f 45/46/62 44/48/64 42/45/59
f 31/31/43 45/46/62 32/32/60
f 46/49/65 45/46/62 31/31/43
f 46/49/65 44/48/64 45/46/62
f 29/28/39 44/48/66 46/49/67
f 29/28/39 46/49/65 31/31/43
f 47/50/68 43/47/63 44/48/64
f 44/48/66 26/27/38 47/50/69
f 29/28/39 26/27/38 44/48/66
f 47/50/69 26/27/38 2/2/70
f 43/47/63 47/50/68 2/2/2
f 43/47/63 6/1/1 41/44/58
f 6/1/1 43/47/63 2/2/2
f 41/44/58 6/1/1 4/6/7
f 5/7/8 39/42/56 4/6/7
f 9/11/12 39/42/56 5/7/8
f 9/11/12 14/14/17 39/42/56
f 22/22/31 33/34/71 20/20/28
f 25/25/36 28/29/72 33/34/71
f 25/25/36 33/34/71 22/22/31
f 2/2/70 26/27/38 3/4/5
f 17/19/34 12/13/14 8/8/9
f 10/10/11 17/19/34 8/8/9
