# Blender 4.4.3
# www.blender.org
mtllib stos_podstawa.mtl
o rock
v 7.077744 9.377964 4.999672
v 5.644601 4.705678 -6.804031
v 8.022375 2.143560 -3.386017
v 7.091105 -0.132487 -1.359367
v 7.738114 0.679319 1.665588
v 3.386416 6.728636 -7.833626
v 3.272166 -0.132487 0.294136
v 7.743382 8.459607 0.171516
v -2.391189 2.151409 -8.288605
v 7.740355 10.820303 3.546753
v -3.847000 7.346334 5.527332
v 2.785184 -0.132487 3.239937
v 6.697479 1.339818 4.011654
v 7.376644 4.882581 5.237907
v 0.382258 1.092833 -9.496124
v 5.437973 1.265583 -6.872066
v -0.209192 8.432756 -5.987583
v 2.077745 9.689646 -6.945518
v 2.749252 10.820303 6.315025
v 1.226161 10.820303 2.937271
v 4.477445 10.820303 2.160187
v -1.933612 4.551959 7.263908
v 4.253475 3.989677 6.840691
v 2.746927 1.305712 5.563263
v 5.070578 8.133853 6.418541
v 1.320379 8.590159 7.554352
v -1.559210 8.955856 7.241730
v 2.567335 2.575069 -9.216301
v 0.340245 4.957582 -8.661583
v -4.919725 2.070888 2.235023
v -3.006491 8.185470 0.912178
v -3.150182 4.081330 -2.495422
v -3.541034 2.346784 5.774231
v -5.224976 4.190297 3.390797
v -2.607148 0.431165 4.529396
v 0.148200 -0.132487 -6.413761
v -2.025002 -0.132486 -6.799675
v 5.515723 -0.132486 -5.630890
v 6.862966 7.127356 -3.693375
v 0.038729 10.618811 -3.173344
v -1.390337 10.421766 4.824375
v 0.949945 10.820303 0.463463
v 5.353423 10.820303 -3.973171
v -4.098287 2.090016 -0.905224
v -2.615383 -0.132487 0.627533
v 6.899224 10.820303 -3.335228
v 8.808757 2.872684 1.613747
vn -0.5571 0.8293 -0.0425
vn -0.5449 0.8336 0.0903
vn -0.8083 0.5548 -0.1971
vn -0.7549 0.5485 -0.3595
vn -0.7056 0.5042 -0.4979
vn -0.4872 0.8613 0.1443
vn -0.5637 0.5700 -0.5978
vn -0.0284 0.9964 -0.0802
vn -0.0581 0.9889 -0.1370
vn -0.0337 0.9994 -0.0093
vn -0.9114 0.2993 -0.2823
vn -0.8987 0.3670 -0.2400
vn -0.2628 0.3591 -0.8955
vn -0.0884 0.9887 0.1214
vn -0.0000 1.0000 -0.0000
vn -0.0713 0.9973 0.0164
vn -0.5178 0.7471 0.4168
vn -0.0232 -0.3210 0.9468
vn 0.2823 -0.2682 0.9211
vn 0.0836 0.2026 0.9757
vn -0.0868 0.1572 0.9837
vn 0.1155 -0.6705 0.7329
vn -0.8233 0.5662 0.0398
vn -0.6972 0.0205 0.7166
vn -0.6593 0.0157 0.7517
vn -0.6241 0.0570 0.7793
vn -0.0568 -0.8221 0.5665
vn -0.0624 -0.5463 0.8352
vn 0.0870 -0.9528 0.2909
vn 0.5200 -0.6273 0.5798
vn 0.7339 -0.1117 0.6700
vn 0.4037 0.1665 0.8996
vn 0.6423 0.2772 0.7146
vn 0.2700 0.3957 0.8778
vn -0.1874 0.2054 -0.9606
vn -0.4144 0.2887 -0.8631
vn 0.3350 -0.0523 -0.9408
vn 0.7202 0.1245 -0.6825
vn 0.3638 0.3195 -0.8750
vn 0.4281 0.4766 -0.7678
vn 0.3892 0.4182 -0.8208
vn 0.3586 0.5436 -0.7589
vn 0.6413 -0.3240 -0.6955
vn -0.9671 -0.0242 -0.2531
vn -0.9617 -0.0260 -0.2727
vn -0.9324 -0.2870 -0.2197
vn -0.8623 -0.1720 0.4762
vn -0.8116 -0.2669 0.5197
vn -0.9315 -0.2913 -0.2178
vn -0.7090 -0.6627 0.2410
vn -0.7709 -0.6040 0.2021
vn -0.6919 -0.7220 -0.0022
vn -0.7103 -0.7016 -0.0565
vn 0.0296 -0.9825 -0.1840
vn -0.0000 -1.0000 -0.0000
vn 0.0110 -0.9971 -0.0756
vn 0.0733 -0.9949 0.0686
vn -0.0254 -0.9983 0.0525
vn 0.0577 -0.9292 -0.3650
vn 0.0274 -0.9877 -0.1543
vn 0.6856 -0.5092 -0.5203
vn 0.9249 -0.1851 -0.3321
vn 0.9335 0.0996 -0.3445
vn 0.9765 0.1452 -0.1590
vn 0.9758 -0.0775 0.2044
vn 0.9710 0.0604 -0.2314
vn 0.9839 0.1236 0.1292
vn 0.8011 -0.3801 0.4624
vn 0.8953 -0.4388 -0.0768
vn 0.8960 -0.4374 -0.0764
vn -0.0781 0.9574 -0.2781
vn 0.4052 0.5497 0.7305
vn 0.2380 -0.9338 0.2673
vn 0.4097 -0.5109 -0.7558
vn -0.9326 0.2773 -0.2309
vn -0.5003 -0.5277 -0.6864
vn 0.8609 -0.4861 -0.1503
vt 0.291912 0.510632
vt 0.210727 0.530734
vt 0.292077 0.366699
vt 0.126274 0.529032
vt 0.370190 0.427486
vt 0.175256 0.639442
vt 0.282139 0.667694
vt 0.225404 0.271272
vt 0.000108 0.286557
vt 0.062297 0.653599
vt 0.422275 0.500025
vt 0.370743 0.571331
vt 0.342731 0.496973
vt 0.427054 0.409498
vt 0.439293 0.610057
vt 0.326474 0.686212
vt 0.501146 0.359671
vt 0.577470 0.485400
vt 0.461051 0.456862
vt 0.634291 0.432269
vt 0.412784 0.345377
vt 0.566370 0.279969
vt 0.514266 0.294144
vt 0.694832 0.417505
vt 0.640545 0.573743
vt 0.566274 0.579832
vt 0.494458 0.528672
vt 0.471637 0.579094
vt 0.000108 0.933470
vt 0.147697 0.882097
vt 0.344312 0.830609
vt 0.191284 0.761145
vt 0.537466 0.886946
vt 0.469997 0.213912
vt 0.415931 0.157971
vt 0.486538 0.000108
vt 0.420921 0.255104
vt 0.613256 0.208380
vt 0.895944 0.267419
vt 0.739272 0.459110
vt 0.755427 0.908441
vt 0.717748 0.722387
vt 0.896160 0.176040
vt 0.999892 0.169711
vt 0.997411 0.238978
vt 0.999892 0.000108
vt 0.618584 0.812461
vt 0.394997 0.758666
vt 0.447798 0.688861
vt 0.606614 0.677667
vt 0.666921 0.657653
vt 0.918359 0.273416
s 1
usemtl stos_podstawa
f 42/1/1 40/2/2 31/3/3
f 31/3/3 40/2/4 17/4/5
f 42/1/1 31/3/3 41/5/6
f 18/6/7 17/4/5 40/2/4
f 43/7/8 40/2/9 42/1/10
f 32/8/11 17/4/5 9/9/12
f 32/8/11 31/3/3 17/4/5
f 17/4/5 18/6/7 29/10/13
f 19/11/14 21/12/15 20/13/16
f 19/11/14 41/5/6 27/14/17
f 19/11/14 20/13/16 41/5/6
f 10/15/15 21/12/15 19/11/14
f 21/12/15 10/15/15 46/16/15
f 22/17/18 23/18/19 26/19/20
f 27/14/21 22/17/18 26/19/20
f 24/20/22 23/18/19 22/17/18
f 11/21/23 27/14/17 41/5/6
f 11/21/24 22/17/25 27/14/26
f 35/22/27 24/20/22 33/23/28
f 12/24/29 24/20/22 35/22/27
f 12/24/29 13/25/30 24/20/22
f 24/20/22 13/25/30 23/18/19
f 13/25/30 14/26/31 23/18/19
f 23/18/19 14/26/31 25/27/32
f 14/26/31 1/28/33 25/27/32
f 23/18/19 25/27/32 26/19/20
f 19/11/34 25/27/32 1/28/33
f 29/10/13 15/29/35 9/9/36
f 29/10/13 28/30/37 15/29/35
f 2/31/38 6/32/39 46/16/40
f 6/32/39 18/6/41 43/7/42
f 6/32/39 29/10/13 18/6/41
f 16/33/43 28/30/37 2/31/38
f 30/34/44 44/35/45 37/36/46
f 34/37/47 33/23/48 11/21/24
f 37/36/46 44/35/45 9/9/49
f 35/22/50 30/34/51 45/38/52
f 45/38/52 30/34/51 37/36/53
f 36/39/54 7/40/55 12/24/29
f 36/39/54 38/41/56 4/42/57
f 36/39/54 4/42/57 7/40/55
f 45/38/58 12/24/29 35/22/27
f 15/43/59 36/44/54 37/45/60
f 36/44/54 15/43/59 38/46/56
f 38/41/61 16/33/43 3/47/62
f 7/40/55 4/42/57 12/24/29
f 39/48/63 8/49/64 3/47/62
f 8/49/64 47/50/65 3/47/62
f 46/16/66 39/48/63 2/31/38
f 10/15/67 14/26/31 47/50/65
f 47/50/65 13/25/30 5/51/68
f 47/50/69 5/51/70 3/47/62
f 2/31/38 3/47/62 16/33/43
f 11/21/23 41/5/6 31/3/3
f 20/13/16 42/1/10 41/5/6
f 43/7/8 18/6/71 40/2/9
f 9/9/36 17/4/5 29/10/13
f 1/28/33 10/15/72 19/11/34
f 43/7/8 21/12/15 46/16/15
f 20/13/16 21/12/15 43/7/8
f 42/1/10 20/13/16 43/7/8
f 33/23/28 24/20/22 22/17/18
f 12/24/29 5/51/73 13/25/30
f 19/11/34 26/19/20 25/27/32
f 19/11/34 27/14/21 26/19/20
f 2/31/38 28/30/37 6/32/39
f 29/10/13 6/32/39 28/30/37
f 46/16/40 6/32/39 43/7/42
f 16/33/43 15/29/74 28/30/37
f 38/41/61 15/29/74 16/33/43
f 44/35/45 30/34/44 34/37/75
f 44/35/45 34/37/75 32/8/11
f 33/23/48 34/37/47 30/34/51
f 31/3/3 34/37/75 11/21/23
f 31/3/3 32/8/11 34/37/75
f 11/21/24 33/23/48 22/17/25
f 9/9/12 44/35/45 32/8/11
f 35/22/50 33/23/48 30/34/51
f 45/38/58 36/39/54 12/24/29
f 37/36/60 36/39/54 45/38/58
f 9/52/76 15/43/76 37/45/76
f 4/42/77 38/41/61 3/47/62
f 12/24/29 4/42/57 5/51/73
f 8/49/64 10/15/67 47/50/65
f 46/16/66 8/49/64 39/48/63
f 46/16/66 10/15/67 8/49/64
f 10/15/67 1/28/33 14/26/31
f 47/50/65 14/26/31 13/25/30
f 3/47/62 5/51/70 4/42/77
f 2/31/38 39/48/63 3/47/62
