# Blender 4.4.3
# www.blender.org
mtllib waza_2.mtl
o Vert.002
v 0.206861 0.000000 -0.002336
v 0.278292 0.011710 -0.002336
v 0.281805 0.033959 -0.002336
v 0.421154 0.224832 -0.002336
v 0.414128 0.398139 -0.002336
v 0.376656 0.471912 -0.002336
v 0.287660 0.546856 -0.002336
v 0.278292 0.658101 -0.002336
v 0.307567 0.690889 -0.002336
v 0.307567 0.703770 -0.002336
v 0.206862 0.703770 -0.002336
v 0.206861 0.000000 -0.002336
v 0.258791 0.000000 -0.023846
v 0.272855 0.011710 -0.029672
v 0.276101 0.033959 -0.031016
v 0.404842 0.224832 -0.084342
v 0.398351 0.398139 -0.081654
v 0.281510 0.546856 -0.033257
v 0.272855 0.658101 -0.029672
v 0.299902 0.690889 -0.040875
v 0.299902 0.703770 -0.040875
v 0.206862 0.703770 -0.002336
v 0.206861 0.000000 -0.002336
v 0.257371 0.011710 -0.052845
v 0.259855 0.033959 -0.055330
v 0.358389 0.224832 -0.153864
v 0.353421 0.398139 -0.148896
v 0.326925 0.471912 -0.122399
v 0.263995 0.546856 -0.059470
v 0.257371 0.658101 -0.052845
v 0.278071 0.690889 -0.073546
v 0.278071 0.703770 -0.073546
v 0.206862 0.703770 -0.002336
v 0.206861 0.000000 -0.002336
v 0.228371 0.000000 -0.054266
v 0.234197 0.011710 -0.068330
v 0.235541 0.033959 -0.071575
v 0.288868 0.224832 -0.200317
v 0.286179 0.398139 -0.193826
v 0.237782 0.546856 -0.076985
v 0.234197 0.658101 -0.068330
v 0.245400 0.690889 -0.095376
v 0.245400 0.703770 -0.095376
v 0.206862 0.703770 -0.002336
v 0.206861 0.000000 -0.002336
v 0.206861 0.011710 -0.073767
v 0.206861 0.033959 -0.077280
v 0.206862 0.224832 -0.216629
v 0.206862 0.398139 -0.209603
v 0.206862 0.471912 -0.172131
v 0.206862 0.546856 -0.083135
v 0.206862 0.658101 -0.073767
v 0.206862 0.690889 -0.103042
v 0.206862 0.703770 -0.103042
v 0.206862 0.703770 -0.002336
v 0.206861 0.000000 -0.002336
v 0.185352 0.000000 -0.054266
v 0.179526 0.011710 -0.068330
v 0.178182 0.033959 -0.071575
v 0.124855 0.224832 -0.200317
v 0.127544 0.398139 -0.193826
v 0.141884 0.471912 -0.159206
v 0.175941 0.546856 -0.076985
v 0.179526 0.658101 -0.068330
v 0.168323 0.690889 -0.095376
v 0.168323 0.703770 -0.095376
v 0.206862 0.703770 -0.002336
v 0.206861 0.000000 -0.002336
v 0.156352 0.011710 -0.052845
v 0.153868 0.033959 -0.055330
v 0.055334 0.224832 -0.153864
v 0.060302 0.398139 -0.148896
v 0.149728 0.546856 -0.059470
v 0.156352 0.658101 -0.052846
v 0.135652 0.690889 -0.073546
v 0.135652 0.703770 -0.073546
v 0.206862 0.703770 -0.002336
v 0.206861 0.000000 -0.002336
v 0.154932 0.000000 -0.023846
v 0.140868 0.011710 -0.029672
v 0.137622 0.033959 -0.031016
v 0.008881 0.224832 -0.084342
v 0.015372 0.398139 -0.081654
v 0.049992 0.471912 -0.067314
v 0.132213 0.546856 -0.033257
v 0.140868 0.658101 -0.029672
v 0.113821 0.690889 -0.040875
v 0.113821 0.703770 -0.040875
v 0.206862 0.703770 -0.002336
v 0.206861 0.000000 -0.002336
v 0.135431 0.011710 -0.002336
v 0.131918 0.033959 -0.002336
v -0.007431 0.224832 -0.002336
v -0.000405 0.398139 -0.002336
v 0.126063 0.546856 -0.002336
v 0.135431 0.658101 -0.002336
v 0.106156 0.690889 -0.002336
v 0.106156 0.703770 -0.002336
v 0.206861 0.703770 -0.002336
v 0.206861 0.000000 -0.002336
v 0.154932 0.000000 0.019174
v 0.140868 0.011710 0.024999
v 0.137622 0.033959 0.026344
v 0.008881 0.224832 0.079670
v 0.015372 0.398139 0.076981
v 0.049992 0.471912 0.062641
v 0.132213 0.546856 0.028584
v 0.140868 0.658101 0.024999
v 0.113821 0.690889 0.036202
v 0.113821 0.703770 0.036202
v 0.206861 0.703770 -0.002336
v 0.206861 0.000000 -0.002336
v 0.156352 0.011710 0.048173
v 0.153868 0.033959 0.050657
v 0.055334 0.224832 0.149192
v 0.060302 0.398139 0.144224
v 0.149728 0.546856 0.054797
v 0.156352 0.658101 0.048173
v 0.135652 0.690889 0.068874
v 0.135652 0.703770 0.068874
v 0.206861 0.703770 -0.002336
v 0.206861 0.000000 -0.002336
v 0.185352 0.000000 0.049593
v 0.179526 0.011710 0.063657
v 0.178182 0.033959 0.066903
v 0.124855 0.224832 0.195645
v 0.127544 0.398139 0.189153
v 0.141884 0.471912 0.154534
v 0.175941 0.546856 0.072312
v 0.179526 0.658101 0.063657
v 0.168323 0.690889 0.090704
v 0.168323 0.703770 0.090704
v 0.206861 0.703770 -0.002336
v 0.206861 0.000000 -0.002336
v 0.206861 0.011710 0.069095
v 0.206861 0.033959 0.072608
v 0.206861 0.224832 0.211957
v 0.206861 0.398139 0.204931
v 0.206861 0.546856 0.078463
v 0.206861 0.658101 0.069095
v 0.206861 0.690889 0.098370
v 0.206861 0.703770 0.098370
v 0.206861 0.703770 -0.002336
v 0.206861 0.000000 -0.002336
v 0.228371 0.000000 0.049593
v 0.234197 0.011710 0.063657
v 0.235541 0.033959 0.066903
v 0.288868 0.224832 0.195644
v 0.286179 0.398139 0.189153
v 0.271839 0.471912 0.154534
v 0.237782 0.546856 0.072312
v 0.234197 0.658101 0.063657
v 0.245400 0.690889 0.090704
v 0.245400 0.703770 0.090704
v 0.206861 0.703770 -0.002336
v 0.206861 0.000000 -0.002336
v 0.246607 0.000000 0.037409
v 0.257371 0.011710 0.048173
v 0.259855 0.033959 0.050657
v 0.358389 0.224832 0.149192
v 0.353421 0.398139 0.144224
v 0.326925 0.471912 0.117727
v 0.263995 0.546856 0.054797
v 0.257371 0.658101 0.048173
v 0.278071 0.690889 0.068874
v 0.278071 0.703770 0.068874
v 0.206861 0.703770 -0.002336
v 0.206861 0.000000 -0.002336
v 0.258791 0.000000 0.019174
v 0.272855 0.011710 0.024999
v 0.276101 0.033959 0.026344
v 0.404842 0.224832 0.079670
v 0.398351 0.398139 0.076981
v 0.281510 0.546856 0.028584
v 0.272855 0.658101 0.024999
v 0.299902 0.690889 0.036202
v 0.299902 0.703770 0.036202
v 0.206861 0.703770 -0.002336
v 0.206861 0.703770 -0.002336
v 0.207144 0.000000 -0.002054
vn -0.0000 -1.0000 -0.0000
vn -0.6631 0.7486 -0.0000
vn -0.5951 0.7649 -0.2465
vn -0.7202 0.6263 -0.2983
vn 0.2135 -0.8299 -0.5155
vn 0.2333 -0.7926 -0.5633
vn 0.3956 -0.8289 -0.3956
vn -0.2135 -0.8299 -0.5155
vn -0.2333 -0.7926 -0.5633
vn -0.0000 -0.8289 -0.5594
vn -0.5155 -0.8299 0.2135
vn -0.5633 -0.7926 0.2333
vn -0.5594 -0.8289 -0.0000
vn 0.2333 -0.7926 0.5633
vn 0.2019 -0.8122 0.5473
vn 0.4311 -0.7926 0.4311
vn -0.2135 -0.8299 0.5155
vn -0.2333 -0.7926 0.5633
vn -0.3956 -0.8289 0.3956
vn 0.3683 0.2720 -0.8891
vn 0.6788 -0.2800 -0.6788
vn 0.3674 -0.2800 -0.8869
vn 0.5155 -0.8299 -0.2135
vn 0.5633 -0.7926 -0.2333
vn 0.5594 -0.8289 -0.0000
vn -0.0000 -0.8289 0.5594
vn 0.9878 -0.1560 -0.0000
vn 0.9126 -0.1560 -0.3780
vn 0.6985 -0.1560 -0.6985
vn 0.3780 -0.1560 -0.9126
vn -0.0000 -0.1560 -0.9878
vn -0.3780 -0.1560 -0.9126
vn -0.6985 -0.1560 -0.6985
vn -0.6985 -0.1560 -0.6984
vn -0.9126 -0.1560 -0.3780
vn -0.9878 -0.1560 -0.0000
vn -0.9126 -0.1560 0.3780
vn -0.6985 -0.1560 0.6985
vn -0.3780 -0.1560 0.9126
vn -0.0000 -0.1560 0.9878
vn 0.3780 -0.1560 0.9126
vn 0.6985 -0.1560 0.6985
vn 0.9126 -0.1560 0.3780
vn -0.5155 -0.8299 -0.2135
vn -0.5633 -0.7926 -0.2333
vn -0.3956 -0.8289 -0.3956
vn 0.6788 -0.2800 0.6788
vn 0.3674 -0.2800 0.8869
vn 0.5711 -0.5896 0.5711
vn 0.7459 -0.6660 -0.0000
vn 0.6892 -0.6660 0.2855
vn 0.8869 -0.2800 -0.3674
vn 0.7462 -0.5896 -0.3091
vn 0.5711 -0.5896 -0.5711
vn 0.3091 -0.5896 -0.7462
vn -0.0000 -0.5896 -0.8077
vn -0.3674 -0.2800 -0.8869
vn -0.3091 -0.5896 -0.7462
vn -0.5711 -0.5896 -0.5711
vn -0.8869 -0.2800 -0.3674
vn -0.7462 -0.5896 -0.3091
vn -0.8077 -0.5896 -0.0000
vn -0.8869 -0.2800 0.3674
vn -0.7462 -0.5896 0.3091
vn -0.5711 -0.5896 0.5711
vn -0.3674 -0.2800 0.8869
vn -0.3091 -0.5896 0.7462
vn -0.0000 -0.5896 0.8077
vn 0.3709 0.2463 0.8954
vn -0.0000 -0.2800 0.9600
vn -0.8954 0.2463 0.3709
vn -0.9600 -0.2800 -0.0000
vn 0.8891 0.2720 0.3683
vn 0.8869 -0.2800 0.3674
vn 0.6853 0.2463 0.6853
vn -0.6805 0.2720 -0.6805
vn -0.6788 -0.2800 -0.6788
vn 0.6126 0.7486 0.2537
vn 0.4555 0.7649 0.4555
vn 0.5887 0.6171 0.5221
vn -0.6805 0.2720 0.6805
vn -0.6788 -0.2800 0.6788
vn -0.8954 0.2463 -0.3709
vn -0.3709 0.2463 -0.8954
vn -0.0000 -0.2800 -0.9600
vn -0.3709 0.2463 0.8954
vn -0.0000 0.2720 0.9623
vn 0.8891 0.2720 -0.3683
vn 0.9600 -0.2800 -0.0000
vn -0.0000 0.2463 -0.9692
vn 0.9692 0.2463 -0.0000
vn -0.9623 0.2720 -0.0000
vn 0.6853 0.2463 -0.6853
vn -0.2983 0.6263 0.7202
vn 0.2571 0.6171 0.7437
vn -0.7202 0.6263 0.2983
vn -0.3440 0.6171 -0.7076
vn 0.0471 0.6171 -0.7854
vn 0.7796 0.6263 -0.0000
vn 0.5512 0.6263 -0.5512
vn 0.6126 0.7486 -0.2537
vn 0.6441 0.7649 -0.0000
vn -0.4689 0.7486 0.4688
vn -0.5951 0.7649 0.2465
vn -0.4688 0.7486 -0.4689
vn -0.0000 0.7649 -0.6441
vn 0.2537 0.7486 -0.6126
vn -0.2465 0.7649 -0.5951
vn 0.7046 0.0839 0.7046
vn 0.3813 0.0839 0.9206
vn 0.2465 0.7649 0.5951
vn -0.0000 0.7486 0.6631
vn -0.9206 0.0839 0.3813
vn -0.9965 0.0839 -0.0000
vn -0.0000 0.0839 0.9965
vn -0.3813 0.0839 0.9206
vn 0.9965 0.0839 -0.0000
vn 0.9206 0.0839 0.3813
vn -0.7046 0.0839 0.7046
vn 0.3813 0.0839 -0.9206
vn 0.7046 0.0839 -0.7046
vn -0.0000 0.0839 -0.9965
vn -0.3813 0.0839 -0.9206
vn 0.9206 0.0839 -0.3813
vn -0.7046 0.0839 -0.7046
vn -0.9206 0.0839 -0.3813
vn 0.6892 -0.6660 -0.2855
vn 0.5275 -0.6660 -0.5275
vn -0.6892 -0.6660 -0.2855
vn -0.7459 -0.6660 -0.0000
vn -0.0000 -0.6660 -0.7459
vn 0.2855 -0.6660 -0.6892
vn -0.2855 -0.6660 0.6892
vn -0.0000 -0.6660 0.7459
vn -0.5275 -0.6660 -0.5275
vn -0.2855 -0.6660 -0.6892
vn 0.2855 -0.6660 0.6892
vn 0.5275 -0.6660 0.5275
vn -0.6892 -0.6660 0.2855
vn -0.5275 -0.6660 0.5275
vn 1.0000 -0.0000 -0.0000
vn 0.9239 -0.0000 -0.3827
vn 0.7071 -0.0000 -0.7071
vn 0.3827 -0.0000 -0.9239
vn -0.0000 -0.0000 -1.0000
vn -0.3827 -0.0000 -0.9239
vn -0.7071 -0.0000 -0.7071
vn -0.9239 -0.0000 -0.3827
vn -1.0000 -0.0000 -0.0000
vn -0.9239 -0.0000 0.3827
vn -0.7071 -0.0000 0.7071
vn -0.3827 -0.0000 0.9239
vn -0.0000 -0.0000 1.0000
vn 0.3827 -0.0000 0.9239
vn 0.7071 -0.0000 0.7071
vn 0.9239 -0.0000 0.3827
vn -0.0000 1.0000 -0.0000
vn 0.8077 -0.5896 -0.0000
vn 0.5473 -0.8122 0.2019
vn 0.5633 -0.7926 0.2333
vn 0.3091 -0.5896 0.7462
vn 0.7462 -0.5896 0.3091
vn 0.4555 0.7649 -0.4555
vn -0.2465 0.7649 0.5951
s 1
usemtl ceramika
f 13//1 169//1 180//1
f 95//2 85//3 84//4
f 35//1 13//1 180//1
f 35//5 36//6 24//7
f 57//8 58//9 46//10
f 101//11 102//12 91//13
f 146//14 145//15 157//16
f 123//17 124//18 113//19
f 39//20 26//21 38//22
f 13//23 14//24 2//25
f 145//15 146//14 135//26
f 2//27 15//28 3//27
f 14//28 25//29 15//28
f 24//29 37//30 25//29
f 36//30 47//31 37//30
f 46//31 59//32 47//31
f 58//32 70//33 59//32
f 69//34 81//35 70//33
f 80//35 92//36 81//35
f 91//36 103//37 92//36
f 102//37 114//38 103//37
f 113//38 125//39 114//38
f 124//39 136//40 125//39
f 135//40 147//41 136//40
f 146//41 159//42 147//41
f 158//42 171//43 159//42
f 170//43 3//27 171//43
f 79//44 80//45 69//46
f 160//47 148//48 159//49
f 9//50 176//51 8//50
f 16//52 15//53 25//54
f 38//22 37//55 47//56
f 60//57 59//58 70//59
f 82//60 81//61 92//62
f 104//63 103//64 114//65
f 126//66 125//67 136//68
f 149//69 137//70 148//48
f 105//71 93//72 104//63
f 173//73 160//47 172//74
f 161//75 148//48 160//47
f 72//76 60//57 71//77
f 174//78 163//79 162//80
f 116//81 104//63 115//82
f 83//83 71//77 82//60
f 61//84 48//85 60//57
f 127//86 115//82 126//66
f 138//87 126//66 137//70
f 17//88 4//89 16//52
f 49//90 38//22 48//85
f 5//91 172//74 4//89
f 94//92 82//60 93//72
f 27//93 16//52 26//21
f 128//94 138//87 150//95
f 84//4 94//92 106//96
f 49//90 62//97 50//98
f 6//99 17//88 28//100
f 162//80 173//73 6//99
f 28//100 39//20 50//98
f 149//69 162//80 150//95
f 106//96 116//81 128//94
f 18//101 7//102 6//99
f 163//79 150//95 162//80
f 117//103 107//104 106//96
f 84//4 85//3 73//105
f 50//98 51//106 40//107
f 63//108 50//98 62//97
f 164//109 151//110 163//109
f 150//95 151//111 139//112
f 108//113 95//114 107//113
f 140//115 129//116 139//115
f 8//117 174//118 7//117
f 130//116 117//119 129//116
f 41//120 29//121 40//120
f 152//110 139//115 151//110
f 52//122 40//120 51//122
f 118//119 107//113 117//119
f 64//123 51//122 63//123
f 30//121 18//124 29//121
f 19//124 7//117 18//124
f 74//125 63//123 73//125
f 175//118 163//109 174//118
f 86//126 73//125 85//126
f 96//114 85//126 95//114
f 20//127 19//127 30//128
f 87//129 86//129 96//130
f 52//131 42//132 41//132
f 131//133 130//133 140//134
f 86//129 75//135 74//135
f 53//131 52//131 64//136
f 153//137 152//137 164//138
f 109//139 108//139 118//140
f 62//97 72//76 84//4
f 9//141 21//142 10//141
f 20//142 32//143 21//142
f 31//143 43//144 32//143
f 42//144 54//145 43//144
f 53//145 66//146 54//145
f 65//146 76//147 66//146
f 75//147 88//148 76//147
f 87//148 98//149 88//148
f 97//149 110//150 98//149
f 109//150 120//151 110//150
f 119//151 132//152 120//151
f 131//152 142//153 132//152
f 141//153 154//154 142//153
f 153//154 166//155 154//154
f 165//155 177//156 166//155
f 176//156 10//141 177//156
f 21//157 32//157 179//157
f 32//157 43//157 179//157
f 43//157 54//157 179//157
f 54//157 66//157 179//157
f 66//157 76//157 179//157
f 76//157 88//157 179//157
f 88//157 98//157 179//157
f 98//157 110//157 179//157
f 110//157 120//157 179//157
f 120//157 132//157 179//157
f 132//157 142//157 179//157
f 142//157 154//157 179//157
f 154//157 166//157 179//157
f 166//157 177//157 179//157
f 177//157 10//157 179//157
f 10//157 21//157 179//157
f 169//1 157//1 180//1
f 157//1 145//1 180//1
f 145//1 123//1 180//1
f 123//1 101//1 180//1
f 101//1 79//1 180//1
f 79//1 57//1 180//1
f 57//1 35//1 180//1
f 4//89 172//74 3//158
f 84//4 106//96 95//2
f 106//96 107//104 95//2
f 14//24 13//23 24//7
f 13//23 35//5 24//7
f 36//6 35//5 46//10
f 35//5 57//8 46//10
f 80//45 79//44 91//13
f 79//44 101//11 91//13
f 157//16 169//159 170//160
f 170//160 158//16 157//16
f 158//16 146//14 157//16
f 102//12 101//11 113//19
f 101//11 123//17 113//19
f 39//20 27//93 26//21
f 170//160 169//159 2//25
f 169//159 13//23 2//25
f 124//18 123//17 135//26
f 123//17 145//15 135//26
f 2//27 14//28 15//28
f 14//28 24//29 25//29
f 24//29 36//30 37//30
f 36//30 46//31 47//31
f 46//31 58//32 59//32
f 58//32 69//34 70//33
f 69//34 80//35 81//35
f 80//35 91//36 92//36
f 91//36 102//37 103//37
f 102//37 113//38 114//38
f 113//38 124//39 125//39
f 124//39 135//40 136//40
f 135//40 146//41 147//41
f 146//41 158//42 159//42
f 158//42 170//43 171//43
f 170//43 2//27 3//27
f 58//9 57//8 69//46
f 57//8 79//44 69//46
f 148//48 147//161 159//49
f 159//49 171//162 172//74
f 172//74 160//47 159//49
f 176//51 175//51 8//50
f 8//50 19//127 20//127
f 20//127 9//50 8//50
f 25//54 37//55 38//22
f 38//22 26//21 25//54
f 26//21 16//52 25//54
f 47//56 59//58 60//57
f 60//57 48//85 47//56
f 48//85 38//22 47//56
f 70//59 81//61 82//60
f 82//60 71//77 70//59
f 71//77 60//57 70//59
f 92//62 103//64 104//63
f 104//63 93//72 92//62
f 93//72 82//60 92//62
f 114//65 125//67 126//66
f 126//66 115//82 114//65
f 115//82 104//63 114//65
f 136//68 147//161 148//48
f 148//48 137//70 136//68
f 137//70 126//66 136//68
f 149//69 138//87 137//70
f 105//71 94//92 93//72
f 173//73 161//75 160//47
f 161//75 149//69 148//48
f 72//76 61//84 60//57
f 162//80 6//99 174//78
f 6//99 7//102 174//78
f 116//81 105//71 104//63
f 83//83 72//76 71//77
f 61//84 49//90 48//85
f 127//86 116//81 115//82
f 138//87 127//86 126//66
f 17//88 5//91 4//89
f 49//90 39//20 38//22
f 5//91 173//73 172//74
f 94//92 83//83 82//60
f 27//93 17//88 16//52
f 127//86 138//87 128//94
f 138//87 149//69 150//95
f 83//83 94//92 84//4
f 94//92 105//71 106//96
f 49//90 61//84 62//97
f 5//91 17//88 6//99
f 17//88 27//93 28//100
f 161//75 173//73 162//80
f 173//73 5//91 6//99
f 27//93 39//20 28//100
f 39//20 49//90 50//98
f 149//69 161//75 162//80
f 105//71 116//81 106//96
f 116//81 127//86 128//94
f 6//99 28//100 18//101
f 28//100 29//163 18//101
f 163//79 151//111 150//95
f 106//96 128//94 117//103
f 128//94 129//164 117//103
f 73//105 63//108 62//97
f 62//97 84//4 73//105
f 40//107 29//163 28//100
f 28//100 50//98 40//107
f 63//108 51//106 50//98
f 164//109 152//110 151//110
f 139//112 129//164 128//94
f 128//94 150//95 139//112
f 108//113 96//114 95//114
f 140//115 130//116 129//116
f 8//117 175//118 174//118
f 130//116 118//119 117//119
f 41//120 30//121 29//121
f 152//110 140//115 139//115
f 52//122 41//120 40//120
f 118//119 108//113 107//113
f 64//123 52//122 51//122
f 30//121 19//124 18//124
f 19//124 8//117 7//117
f 74//125 64//123 63//123
f 175//118 164//109 163//109
f 86//126 74//125 73//125
f 96//114 86//126 85//126
f 30//128 41//132 42//132
f 42//132 31//128 30//128
f 31//128 20//127 30//128
f 96//130 108//139 109//139
f 109//139 97//130 96//130
f 97//130 87//129 96//130
f 52//131 53//131 42//132
f 140//134 152//137 153//137
f 153//137 141//134 140//134
f 141//134 131//133 140//134
f 86//129 87//129 75//135
f 64//136 74//135 75//135
f 75//135 65//136 64//136
f 65//136 53//131 64//136
f 164//138 175//51 176//51
f 176//51 165//138 164//138
f 165//138 153//137 164//138
f 118//140 130//133 131//133
f 131//133 119//140 118//140
f 119//140 109//139 118//140
f 61//84 72//76 62//97
f 72//76 83//83 84//4
f 9//141 20//142 21//142
f 20//142 31//143 32//143
f 31//143 42//144 43//144
f 42//144 53//145 54//145
f 53//145 65//146 66//146
f 65//146 75//147 76//147
f 75//147 87//148 88//148
f 87//148 97//149 98//149
f 97//149 109//150 110//150
f 109//150 119//151 120//151
f 119//151 131//152 132//152
f 131//152 141//153 142//153
f 141//153 153//154 154//154
f 153//154 165//155 166//155
f 165//155 176//156 177//156
f 176//156 9//141 10//141
f 172//74 171//162 3//158
f 3//158 15//53 16//52
f 16//52 4//89 3//158
l 12 1
l 22 11
l 23 12
l 33 22
l 34 23
l 44 33
l 45 34
l 55 44
l 56 45
l 67 55
l 68 56
l 77 67
l 78 68
l 89 77
l 90 78
l 99 89
l 100 90
l 111 99
l 112 100
l 121 111
l 122 112
l 133 121
l 134 122
l 143 133
l 144 134
l 155 143
l 156 144
l 167 155
l 168 156
l 178 167
l 1 168
l 11 178
