# Blender 4.4.3
# www.blender.org
mtllib glaz_podwojny.mtl
o rock.008
v 5.936896 20.605238 -3.989433
v 8.210049 18.205795 -6.119720
v 9.306067 12.738346 1.226913
v 5.566028 20.142723 -5.869820
v -11.344856 17.778545 -2.767296
v -3.986971 17.923780 2.389915
v 10.944872 12.936049 -0.899063
v -9.368349 18.400631 -5.518929
v -3.343634 16.936203 3.407043
v -6.356590 15.702414 4.225380
v -0.867169 -0.039157 7.468269
v -7.683118 11.931365 6.165520
v -8.164022 8.379514 6.853905
v -10.070889 9.222929 5.593941
v -12.665485 15.824396 -1.136429
v -13.965000 14.231974 -3.142769
v -12.951092 16.091389 -5.129845
v -14.326206 9.699766 -0.528801
v -14.916968 4.635417 -5.642754
v -11.311562 3.770697 1.920120
v -10.476849 0.858771 1.002274
v -9.006157 0.265133 4.205368
v -8.698683 0.265133 -6.729843
v -7.284542 0.265133 6.226692
v -12.175770 0.284068 -5.194527
v -2.041420 0.265133 6.640419
v 5.712809 0.265133 4.568306
v -2.188187 7.103084 12.991089
v -2.101765 0.265134 8.755386
v 5.523453 3.784249 1.784294
v 1.875757 3.893047 5.007759
v 2.330144 8.587034 8.514565
v -4.570019 0.265132 7.261345
v 9.660434 0.265133 -4.594917
v 10.718779 0.265133 5.597778
v 5.206612 0.265132 7.502495
v 0.064269 0.265132 14.524010
v 9.571923 0.265133 16.347160
v 9.220991 0.265132 11.193504
v 11.427698 0.265132 4.920166
v 12.448819 0.854163 4.783302
v 9.488252 1.293243 1.670982
v 12.495840 1.685375 11.089691
v 12.429411 2.716838 16.266350
v 13.323880 5.013911 14.144524
v 11.290236 5.716175 17.439995
v 9.080012 10.710178 12.678017
v 12.494544 6.924950 11.331184
v 11.808570 3.123064 3.791428
v 7.561106 10.826113 7.925972
v 5.726005 8.232965 2.356529
v 4.873009 11.666430 9.989311
v 7.783909 6.878622 1.344261
v 4.845090 11.256849 15.470932
v 0.310381 10.033112 13.348724
v -0.149782 8.784750 17.086418
v 1.461493 4.065957 20.423271
v -1.293400 4.102076 16.264381
v 5.915188 9.433874 18.078026
v 4.490471 6.245535 20.837883
v 6.122849 2.903495 21.210976
v 9.871339 3.692638 19.991463
v 9.621283 1.509018 19.153099
v 3.483549 0.265132 19.720726
v 11.933031 0.265133 -4.652603
v 11.974407 3.534743 2.749718
v 12.514831 2.433549 -3.149406
v 11.477745 11.505931 -5.661186
v 7.940777 7.202385 -13.948303
v 9.540133 0.265132 -11.697525
v 6.127208 0.265133 -15.043097
v 7.354567 0.265133 -9.685623
v 5.106040 0.265132 -13.680237
v 3.850925 1.171372 -15.350989
v -9.925776 0.438456 -9.247215
v 5.370532 8.206400 -14.548409
v -9.555141 6.907703 -10.380768
v -11.222328 13.950176 -7.550682
v -12.750572 6.101818 -8.987190
v -14.371887 4.596267 -7.224068
v -10.931515 16.857914 -6.489319
vn 0.5451 0.7828 -0.3001
vn 0.7889 0.5876 0.1799
vn 0.6032 0.6039 0.5211
vn 0.3278 0.6156 0.7167
vn -0.1181 0.9694 -0.2151
vn -0.1527 0.9819 0.1123
vn -0.1462 0.9725 0.1813
vn 0.1917 0.7620 0.6186
vn -0.0855 0.6873 0.7214
vn 0.0638 0.4387 0.8964
vn 0.2470 0.2594 0.9337
vn 0.2840 0.2621 0.9223
vn -0.4642 0.2287 0.8557
vn 0.1179 0.1735 0.9777
vn -0.5444 0.5272 0.6525
vn -0.6309 0.4183 0.6535
vn -0.7852 0.6116 0.0970
vn -0.4331 0.7318 0.5262
vn -0.8918 0.2773 0.3575
vn -0.8271 0.5538 0.0962
vn -0.7813 0.2678 0.5638
vn -0.8771 -0.2868 0.3853
vn -0.9954 0.0927 0.0232
vn -0.8135 -0.1861 0.5509
vn -0.8570 -0.3614 0.3672
vn -0.8726 -0.3557 0.3347
vn -0.8178 -0.1818 0.5460
vn -0.0055 -1.0000 -0.0002
vn -0.0000 -1.0000 -0.0000
vn -0.7478 -0.1876 0.6369
vn -0.8018 -0.5334 0.2693
vn -0.2037 -0.6141 -0.7624
vn -0.9996 0.0050 -0.0285
vn -0.6910 0.4839 -0.5370
vn -0.6155 0.3459 -0.7082
vn -0.6775 0.4812 -0.5563
vn -0.0645 -0.9628 -0.2625
vn -0.0256 -0.9495 -0.3128
vn 0.5076 -0.8547 0.1089
vn 0.3889 -0.7859 -0.4808
vn 0.3977 -0.9068 0.1399
vn 0.0192 -0.9499 -0.3120
vn 0.6456 -0.7473 0.1572
vn 0.9502 -0.3030 0.0726
vn 0.9638 -0.2653 0.0278
vn 0.3970 -0.9174 -0.0270
vn 0.7211 0.6179 0.3133
vn 0.8559 0.1292 0.5007
vn 0.9703 0.1738 -0.1680
vn 0.7618 0.6178 0.1951
vn 0.6899 0.6947 -0.2036
vn 0.9640 0.1915 -0.1843
vn 0.7192 0.5919 -0.3639
vn -0.0325 0.9101 -0.4130
vn 0.3034 0.8217 -0.4825
vn 0.2567 0.9647 -0.0585
vn 0.7433 0.5845 -0.3254
vn 0.6060 0.1391 -0.7832
vn -0.0803 -0.0826 -0.9933
vn -0.3643 0.1351 -0.9214
vn 0.1757 0.9816 0.0742
vn -0.2902 0.9544 0.0698
vn -0.5739 0.6872 -0.4454
vn -0.6160 0.6904 -0.3794
vn -0.7626 0.6359 0.1185
vn -0.3614 0.8969 0.2551
vn -0.6499 0.6096 -0.4539
vn -0.8286 0.1058 0.5498
vn -0.4164 0.4259 0.8033
vn -0.9083 0.1535 0.3891
vn -0.1825 0.7690 0.6126
vn -0.1881 0.6895 0.6994
vn 0.3648 0.5108 0.7784
vn 0.2569 0.2303 0.9386
vn -0.1586 0.0327 0.9868
vn 0.3570 -0.3702 0.8577
vn 0.4633 0.5507 0.6944
vn 0.8323 0.1030 0.5446
vn 0.7429 -0.3124 0.5920
vn 0.6247 -0.7179 0.3073
vn 0.2174 -0.8937 0.3924
vn 0.1964 -0.6238 0.7565
vn -0.2301 -0.2939 0.9277
vn -0.7336 -0.4785 0.4827
vn -0.7336 -0.4793 0.4818
vn 0.3825 0.8236 0.4188
vn 0.5371 0.6944 0.4789
vn -0.9799 -0.1137 0.1636
vn -0.8404 -0.4405 0.3156
vn -0.7853 0.4175 -0.4571
vn -0.6548 0.1257 -0.7453
vn 0.7136 -0.1016 -0.6931
vn -0.3877 -0.5847 -0.7127
vn 0.1410 0.3416 0.9292
vn 0.6879 0.3082 0.6571
vn 0.9566 -0.2686 0.1133
vn 0.9888 0.1338 0.0656
vn 0.7379 0.3129 0.5979
vn 0.9238 -0.3521 0.1504
vn 0.9203 -0.0031 -0.3912
vn 0.9886 0.1326 0.0708
vn 0.9464 -0.0311 -0.3215
vn 0.9313 0.1012 -0.3498
vn 0.6983 -0.0701 -0.7124
vn -0.3294 -0.9113 -0.2468
vn -0.1813 -0.9151 -0.3601
vn 0.1756 0.1085 -0.9785
vn 0.0186 -0.9968 -0.0777
vn -0.3952 -0.1365 -0.9084
vn 0.2480 0.0568 -0.9671
vn -0.2787 0.1681 -0.9456
vn -0.4387 0.2437 -0.8650
vn -0.2807 0.2999 -0.9117
vn -0.3659 -0.1402 -0.9200
vn -0.8103 0.2544 -0.5279
vn -0.5903 -0.2594 -0.7643
vn -0.6976 0.2110 -0.6848
vn -0.9334 0.1727 -0.3147
vn -0.9292 0.1767 -0.3247
vn -0.8036 -0.5334 -0.2638
vn -0.7147 -0.5608 -0.4181
vn -0.6099 0.3248 -0.7229
vn 0.2643 0.3073 -0.9142
vn -0.1353 0.5841 -0.8003
vn -0.0722 0.4390 -0.8956
vn -0.4908 0.8315 -0.2602
vn -0.5946 0.7626 -0.2547
vn 0.3315 0.5513 -0.7657
vn 0.3834 0.5292 -0.7569
vn -0.0294 -0.9981 -0.0544
vn 0.7839 0.3471 -0.5148
vn 0.8992 0.4365 -0.0305
vn -0.0536 0.0264 0.9982
vn -0.3540 -0.1102 0.9287
vn -0.8265 -0.4926 0.2723
vn -0.5849 -0.1253 0.8013
vn -0.3609 0.7919 0.4926
vt 0.269359 0.421119
vt 0.265415 0.386440
vt 0.286677 0.383509
vt 0.356052 0.460156
vt 0.389139 0.433788
vt 0.355114 0.254524
vt 0.227023 0.222571
vt 0.252419 0.195331
vt 0.336010 0.253051
vt 0.353753 0.212323
vt 0.389088 0.168497
vt 0.579503 0.243052
vt 0.419907 0.140403
vt 0.379024 0.121865
vt 0.264380 0.168330
vt 0.214769 0.182113
vt 0.262712 0.103984
vt 0.232523 0.153296
vt 0.149946 0.067115
vt 0.326158 0.039227
vt 0.308522 0.007306
vt 0.409571 0.000156
vt 0.790133 0.748249
vt 0.647202 0.748249
vt 0.642279 0.693777
vt 0.855552 0.664431
vt 0.825653 0.734084
vt 0.480068 0.061781
vt 0.126501 0.000712
vt 0.937939 0.148412
vt 0.999844 0.128287
vt 0.944492 0.342217
vt 0.096258 0.811962
vt 0.193701 0.850892
vt 0.078291 0.850892
vt 0.901040 0.374271
vt 0.795474 0.322353
vt 0.843001 0.247052
vt 0.202478 0.821698
vt 0.917733 0.246582
vt 0.872914 0.652225
vt 0.852322 0.701811
vt 0.899565 0.485217
vt 0.755837 0.453395
vt 0.193766 0.733252
vt 0.068058 0.672972
vt 0.053976 0.745876
vt 0.000156 0.824931
vt 0.859705 0.000156
vt 0.847822 0.019126
vt 0.726985 0.044354
vt 0.904040 0.079270
vt 0.695672 0.003914
vt 0.645610 0.111431
vt 0.579815 0.100762
vt 0.697349 0.103364
vt 0.753014 0.175114
vt 0.669447 0.150502
vt 0.747523 0.113407
vt 0.810544 0.174872
vt 0.852736 0.061156
vt 0.801132 0.214815
vt 0.884288 0.169664
vt 0.887083 0.139162
vt 0.741659 0.232684
vt 0.779464 0.279620
vt 0.734944 0.301838
vt 0.734680 0.365430
vt 0.655463 0.306888
vt 0.661650 0.258837
vt 0.703089 0.229008
vt 0.632162 0.177961
vt 0.619798 0.247822
vt 0.607283 0.158559
vt 0.579815 0.318013
vt 0.165046 0.648289
vt 0.738054 0.421824
vt 0.538603 0.509229
vt 0.456022 0.520030
vt 0.765449 0.422138
vt 0.321811 0.647977
vt 0.339034 0.608318
vt 0.287164 0.495689
vt 0.120227 0.502302
vt 0.142933 0.606713
vt 0.031047 0.532139
vt 0.611082 0.473281
vt 0.597564 0.452772
vt 0.658818 0.422136
vt 0.675906 0.461257
vt 0.579815 0.483100
vt 0.000156 0.466208
vt 0.602226 0.699097
vt 0.000156 0.138059
vt 0.078325 0.197385
vt 0.099342 0.458040
vt 0.102891 0.133457
vt 0.165417 0.197082
vt 0.124111 0.084329
vt 0.206474 0.204968
vt 0.536095 0.147713
s 0
usemtl glaz_podwojny
f 2/1/1 4/2/1 1/3/1
f 7/4/2 2/1/2 1/3/2
f 7/4/3 1/3/3 3/5/3
f 1/3/4 9/6/4 3/5/4
f 1/3/5 4/2/5 8/7/5
f 1/3/6 8/7/6 5/8/6
f 1/3/7 5/8/7 6/9/7
f 1/3/8 6/9/8 9/6/8
f 9/6/9 6/9/9 10/10/9
f 9/6/10 10/10/10 12/11/10
f 3/5/11 9/6/11 11/12/11
f 9/6/12 12/11/12 11/12/12
f 13/13/13 12/11/13 14/14/13
f 12/11/14 13/13/14 11/12/14
f 10/10/15 15/15/15 12/11/15
f 15/15/16 14/14/16 12/11/16
f 17/16/17 15/15/17 5/8/17
f 5/8/18 15/15/18 10/10/18
f 18/17/19 15/15/19 16/18/19
f 17/16/20 16/18/20 15/15/20
f 18/17/21 14/14/21 15/15/21
f 18/17/22 19/19/22 20/20/22
f 18/17/23 16/18/23 19/19/23
f 14/14/24 18/17/24 20/20/24
f 19/19/25 21/21/25 20/20/25
f 22/22/26 20/20/26 21/21/26
f 20/20/27 22/22/27 14/14/27
f 22/23/28 25/24/28 23/25/28
f 22/23/29 23/25/29 26/26/29
f 24/27/29 22/23/29 26/26/29
f 22/22/30 24/28/30 14/14/30
f 25/29/31 22/22/31 21/21/31
f 30/30/32 27/31/32 26/32/32
f 36/33/29 26/34/29 27/35/29
f 29/36/33 28/37/33 26/32/33
f 26/32/34 28/37/34 32/38/34
f 36/33/29 29/39/29 26/34/29
f 31/40/35 30/30/35 26/32/35
f 26/32/36 32/38/36 31/40/36
f 11/41/37 33/42/37 26/26/37
f 26/26/29 33/42/29 24/27/29
f 35/43/29 26/26/29 34/44/29
f 26/26/29 23/25/29 34/44/29
f 11/41/38 26/26/38 35/43/38
f 29/39/29 36/33/29 37/45/29
f 37/45/29 36/33/29 38/46/29
f 38/46/29 36/33/29 39/47/29
f 39/47/29 36/33/29 40/48/29
f 36/33/29 27/35/29 40/48/29
f 40/49/39 41/50/39 43/51/39
f 40/49/40 42/52/40 41/50/40
f 43/51/41 39/53/41 40/49/41
f 40/49/42 27/31/42 42/52/42
f 44/54/43 38/55/43 43/51/43
f 45/56/44 44/54/44 43/51/44
f 43/51/45 41/50/45 45/56/45
f 43/51/46 38/55/46 39/53/46
f 45/56/47 47/57/47 46/58/47
f 46/58/48 44/54/48 45/56/48
f 45/56/49 41/50/49 48/59/49
f 48/59/50 47/57/50 45/56/50
f 48/59/51 50/60/51 47/57/51
f 41/50/52 49/61/52 48/59/52
f 49/61/53 50/60/53 48/59/53
f 52/62/54 50/60/54 51/63/54
f 53/64/55 51/63/55 50/60/55
f 52/62/56 47/57/56 50/60/56
f 49/61/57 53/64/57 50/60/57
f 42/52/58 53/64/58 49/61/58
f 53/64/59 42/52/59 30/30/59
f 53/64/60 30/30/60 51/63/60
f 47/57/61 52/62/61 54/65/61
f 54/65/62 52/62/62 55/66/62
f 32/38/63 55/66/63 52/62/63
f 32/38/64 52/62/64 51/63/64
f 56/67/65 55/66/65 28/37/65
f 54/65/66 55/66/66 56/67/66
f 28/37/67 55/66/67 32/38/67
f 56/67/68 58/68/68 57/69/68
f 57/69/69 60/70/69 56/67/69
f 56/67/70 28/37/70 58/68/70
f 59/71/71 54/65/71 56/67/71
f 60/70/72 59/71/72 56/67/72
f 62/72/73 59/71/73 60/70/73
f 61/73/74 62/72/74 60/70/74
f 57/69/75 61/73/75 60/70/75
f 63/74/76 62/72/76 61/73/76
f 46/58/77 59/71/77 62/72/77
f 46/58/78 62/72/78 44/54/78
f 63/74/79 44/54/79 62/72/79
f 38/55/80 44/54/80 63/74/80
f 38/55/81 63/74/81 64/75/81
f 64/75/82 63/74/82 61/73/82
f 37/45/29 38/46/29 64/76/29
f 57/69/83 64/75/83 61/73/83
f 64/75/84 58/68/84 37/77/84
f 57/69/85 58/68/85 64/75/85
f 47/57/86 54/65/86 59/71/86
f 47/57/87 59/71/87 46/58/87
f 29/36/88 58/68/88 28/37/88
f 37/77/89 58/68/89 29/36/89
f 31/40/90 32/38/90 51/63/90
f 31/40/91 51/63/91 30/30/91
f 42/52/92 49/61/92 41/50/92
f 30/30/93 42/52/93 27/31/93
f 35/78/94 3/5/94 11/12/94
f 3/5/95 35/78/95 66/79/95
f 35/43/29 34/44/29 65/80/29
f 65/81/96 66/79/96 35/78/96
f 67/82/97 7/4/97 66/79/97
f 66/79/98 7/4/98 3/5/98
f 65/81/99 67/82/99 66/79/99
f 68/83/100 67/82/100 69/84/100
f 67/82/101 68/83/101 7/4/101
f 67/82/102 65/81/102 70/85/102
f 69/84/103 67/82/103 70/85/103
f 71/86/104 69/84/104 70/85/104
f 73/87/29 71/88/29 70/89/29
f 73/87/29 70/89/29 72/90/29
f 72/90/29 70/89/29 65/80/29
f 71/88/105 73/87/105 74/91/105
f 23/25/29 73/87/29 72/90/29
f 73/87/106 23/25/106 74/91/106
f 74/92/107 69/84/107 71/86/107
f 23/25/108 75/93/108 74/91/108
f 74/92/109 75/94/109 77/95/109
f 74/92/110 76/96/110 69/84/110
f 77/95/111 76/96/111 74/92/111
f 79/97/112 78/98/112 77/95/112
f 77/95/113 78/98/113 76/96/113
f 75/94/114 79/97/114 77/95/114
f 78/98/115 79/97/115 80/99/115
f 79/97/116 75/94/116 80/99/116
f 80/99/117 17/16/117 78/98/117
f 16/18/118 17/16/118 80/99/118
f 19/19/119 16/18/119 80/99/119
f 19/19/120 80/99/120 25/29/120
f 80/99/121 75/94/121 25/29/121
f 17/16/122 81/100/122 78/98/122
f 78/98/123 81/100/123 8/7/123
f 4/2/124 76/96/124 78/98/124
f 4/2/125 78/98/125 8/7/125
f 81/100/126 17/16/126 5/8/126
f 81/100/127 5/8/127 8/7/127
f 2/1/128 76/96/128 4/2/128
f 2/1/129 69/84/129 76/96/129
f 75/93/130 23/25/130 25/24/130
f 72/90/29 65/80/29 34/44/29
f 23/25/29 72/90/29 34/44/29
f 69/84/131 2/1/131 68/83/131
f 7/4/132 68/83/132 2/1/132
f 13/13/133 33/101/133 11/12/133
f 24/28/134 33/101/134 13/13/134
f 21/21/135 19/19/135 25/29/135
f 14/14/136 24/28/136 13/13/136
f 10/10/137 6/9/137 5/8/137
