# Blender 3.6.1
# www.blender.org
mtllib kolumna.mtl
o Cube.001
v -1.991831 -0.050683 1.472330
v -1.220227 9.864261 0.700726
v -1.991831 -0.050683 -1.375857
v -1.220227 9.864261 -0.604253
v 0.856356 -0.050683 1.472330
v 0.084752 9.864261 0.700726
v 0.856356 -0.050683 -1.375857
v 0.084752 9.864261 -0.604253
v -1.611478 4.703622 1.091977
v -1.611478 4.183571 -0.995504
v 0.476003 4.183571 -0.995504
v 0.476003 4.703622 1.091977
v -1.535900 6.612322 1.002687
v -1.535900 7.308952 -0.908695
v 0.375482 7.308952 -0.908695
v 0.375482 6.612322 1.002687
v -1.428963 8.801764 0.919612
v -1.428963 8.295661 -0.821302
v 0.311951 8.295661 -0.821302
v 0.311951 8.801764 0.919612
v -1.736983 4.015119 -1.121009
v 0.601507 4.015119 -1.121009
v 0.601507 4.576787 1.217482
v -1.736983 4.576787 1.217482
v -1.724547 4.323843 -1.108573
v 0.589071 4.323844 -1.108573
v 0.589071 4.903471 1.205046
v -1.724547 4.903471 1.205046
v -1.604435 6.534423 1.085103
v -1.604435 7.188887 -0.988600
v 0.469266 7.188887 -0.988600
v 0.469266 6.534423 1.085103
v -1.595587 7.420334 -0.979750
v 0.460418 7.420334 -0.979750
v 0.460418 6.765871 1.076254
v -1.595587 6.765871 1.076254
v -1.512619 8.703672 0.993118
v -1.512619 8.156939 -0.896645
v 0.377144 8.156939 -0.896645
v 0.377144 8.703672 0.993118
v -1.503915 8.926970 0.984414
v -1.503915 8.435091 -0.887941
v 0.368440 8.435091 -0.887941
v 0.368440 8.926970 0.984414
vn -0.9718 0.2330 -0.0361
vn -0.0000 0.1947 -0.9809
vn 0.9718 0.2330 -0.0361
vn -0.0000 0.2897 0.9571
vn -0.0000 -1.0000 -0.0000
vn -0.0000 1.0000 -0.0000
vn -0.0000 0.7034 0.7108
vn 0.7526 0.6397 -0.1563
vn -0.0000 0.5975 -0.8019
vn -0.7526 0.6397 -0.1563
vn -0.0000 0.7267 0.6869
vn 0.7054 0.6713 0.2276
vn -0.0000 0.5540 -0.8325
vn -0.8060 0.5605 0.1900
vn -0.0000 0.5997 0.8002
vn 0.8671 0.4785 -0.1387
vn -0.0000 0.4773 -0.8788
vn -0.8049 0.5699 -0.1653
vn -0.9983 0.0585 -0.0063
vn -0.0000 0.0626 -0.9980
vn 0.9983 0.0585 -0.0063
vn -0.0000 0.0550 0.9985
vn -0.8249 -0.5484 0.1370
vn -0.0000 -0.6276 -0.7786
vn 0.8249 -0.5484 0.1370
vn -0.0000 -0.4924 0.8704
vn -0.9986 0.0534 0.0009
vn -0.0000 0.0418 -0.9991
vn 0.9986 0.0532 0.0009
vn -0.0000 0.0733 0.9973
vn -0.9035 -0.4058 -0.1382
vn -0.0000 -0.5378 -0.8431
vn 0.8288 -0.5297 -0.1804
vn -0.0000 -0.4321 0.9018
vn -0.9981 0.0619 0.0017
vn -0.0000 0.1121 -0.9937
vn 0.9981 0.0622 0.0017
vn -0.0000 0.0429 0.9991
vn -0.0000 -0.4597 0.8881
vn 0.9146 -0.3897 0.1076
vn -0.0000 -0.4312 -0.9022
vn -0.8626 -0.4877 0.1347
vt 0.763357 -0.721117
vt 0.823891 -0.720854
vt 0.821225 -0.106065
vt 0.760692 -0.106327
vt 0.818560 0.508725
vt 0.758026 0.508462
vt 0.815895 1.123514
vt 0.755361 1.123252
vt 0.813229 1.738304
vt 0.752696 1.738041
vt -0.411019 0.503394
vt 0.203770 0.506059
vt 0.201105 1.120849
vt -0.413685 1.118183
vt 1.433349 0.511390
vt 1.430683 1.126179
vt 0.484994 1.122079
vt 0.494071 1.122119
vt 0.491405 1.736909
vt 0.482328 1.736869
vt 0.487659 0.507290
vt 0.496736 0.507329
vt 0.490324 -0.107500
vt 0.499402 -0.107460
vt 0.492990 -0.722289
vt 0.502067 -0.722250
vt 0.653254 1.122809
vt 0.660183 1.122839
vt 0.657518 1.737628
vt 0.650589 1.737598
vt 0.655920 0.508019
vt 0.662849 0.508049
vt 0.658585 -0.106770
vt 0.665514 -0.106740
vt 0.661251 -0.721560
vt 0.668180 -0.721530
vt 0.741246 1.123191
vt 0.748610 1.123222
vt 0.745945 1.738012
vt 0.738580 1.737980
vt 0.743912 0.508401
vt 0.751276 0.508433
vt 0.746577 -0.106388
vt 0.753941 -0.106357
vt 0.749242 -0.721179
vt 0.756606 -0.721146
vt 0.209101 -0.723520
vt 0.206436 -0.108730
vt 0.198440 1.735638
vt 0.512013 -0.722207
vt 0.509348 -0.107417
vt 0.506683 0.507372
vt 0.504017 1.122162
vt 0.501352 1.736951
vt 0.675080 -0.721500
vt 0.672414 -0.106711
vt 0.669749 0.508079
vt 0.667083 1.122869
vt 0.664418 1.737659
s 0
usemtl kamien
f 41/1/1 2/2/1 4/3/1 42/4/1
f 42/4/2 4/3/2 8/5/2 43/6/2
f 43/6/3 8/5/3 6/7/3 44/8/3
f 44/8/4 6/7/4 2/9/4 41/10/4
f 3/11/5 7/12/5 5/13/5 1/14/5
f 8/5/6 4/15/6 2/16/6 6/7/6
f 23/17/7 12/18/7 9/19/7 24/20/7
f 22/21/8 11/22/8 12/18/8 23/17/8
f 21/23/9 10/24/9 11/22/9 22/21/9
f 24/25/10 9/26/10 10/24/10 21/23/10
f 32/27/11 16/28/11 13/29/11 29/30/11
f 31/31/12 15/32/12 16/28/12 32/27/12
f 30/33/13 14/34/13 15/32/13 31/31/13
f 29/35/14 13/36/14 14/34/14 30/33/14
f 40/37/15 20/38/15 17/39/15 37/40/15
f 39/41/16 19/42/16 20/38/16 40/37/16
f 38/43/17 18/44/17 19/42/17 39/41/17
f 37/45/18 17/46/18 18/44/18 38/43/18
f 1/47/19 24/25/19 21/23/19 3/48/19
f 3/48/20 21/23/20 22/21/20 7/12/20
f 7/12/21 22/21/21 23/17/21 5/13/21
f 5/13/22 23/17/22 24/20/22 1/49/22
f 9/26/23 28/50/23 25/51/23 10/24/23
f 10/24/24 25/51/24 26/52/24 11/22/24
f 11/22/25 26/52/25 27/53/25 12/18/25
f 12/18/26 27/53/26 28/54/26 9/19/26
f 28/50/27 29/35/27 30/33/27 25/51/27
f 25/51/28 30/33/28 31/31/28 26/52/28
f 26/52/29 31/31/29 32/27/29 27/53/29
f 27/53/30 32/27/30 29/30/30 28/54/30
f 13/36/31 36/55/31 33/56/31 14/34/31
f 14/34/32 33/56/32 34/57/32 15/32/32
f 15/32/33 34/57/33 35/58/33 16/28/33
f 16/28/34 35/58/34 36/59/34 13/29/34
f 36/55/35 37/45/35 38/43/35 33/56/35
f 33/56/36 38/43/36 39/41/36 34/57/36
f 34/57/37 39/41/37 40/37/37 35/58/37
f 35/58/38 40/37/38 37/40/38 36/59/38
f 20/38/39 44/8/39 41/10/39 17/39/39
f 19/42/40 43/6/40 44/8/40 20/38/40
f 18/44/41 42/4/41 43/6/41 19/42/41
f 17/46/42 41/1/42 42/4/42 18/44/42
