# Blender 4.4.3
# www.blender.org
mtllib kolumna_czesc_srodek.mtl
o Cylinder.021
v 2.051383 0.097939 -1.368975
v 1.186412 0.097939 -2.028788
v 0.107811 0.097939 -2.264269
v -0.970791 0.097939 -2.028788
v -1.835761 0.097939 -1.368975
v -2.315784 0.097939 -0.415529
v -2.315784 0.097939 0.642729
v -1.835761 0.097939 1.596182
v -1.835761 0.628408 1.596182
v -0.970791 0.097939 2.255987
v -0.970791 0.628408 2.255987
v 0.107811 0.628408 2.491468
v -0.950393 0.628408 2.215475
v -0.028610 0.628408 2.282873
v -0.753258 0.628408 2.124662
v -0.999080 0.628408 2.011427
v -0.999080 12.997913 2.011426
v -1.580203 0.628408 1.568144
v -1.069276 0.628408 2.150854
v -1.069276 12.997913 2.150853
v -0.823454 0.628408 2.264089
v -0.823454 12.997913 2.264088
v -0.753258 12.997913 2.124661
v -0.950393 12.997913 2.215474
v -0.028610 12.997913 2.282872
v -0.970791 12.997913 2.255986
v 0.107811 12.997913 2.491467
v 0.107811 13.487774 2.491467
v 1.186412 12.997913 2.255986
v 0.107811 12.997913 2.446500
v 0.244232 12.997913 2.282872
v 1.186412 13.487774 2.255986
v 2.051383 13.487774 1.596181
v 2.531406 13.487774 0.642728
v 2.531406 13.487774 -0.415530
v 2.051383 13.487774 -1.368976
v 2.531406 12.997913 -0.415530
v 2.531406 12.997913 0.642728
v 2.051383 12.997913 1.596181
v 2.485572 12.997913 0.632718
v 1.965939 12.997913 1.364094
v 2.288437 12.997913 0.723530
v 2.349150 12.997913 0.469090
v 2.349150 0.628408 0.469091
v 2.349150 12.997913 -0.241885
v 2.506878 12.997913 0.503522
v 2.506878 0.628408 0.503523
v 2.446165 0.628408 0.757963
v 2.288437 0.628408 0.723531
v 2.485572 0.628408 0.632719
v 1.965939 0.628408 1.364095
v 2.531406 0.628408 0.642729
v 2.051383 0.628408 1.596182
v 2.446165 12.997913 0.757962
v 2.051383 0.097939 1.596182
v 1.186412 0.628408 2.255987
v 2.014627 0.628408 1.568144
v 1.795825 0.628408 1.568144
v 1.186412 0.097939 2.255987
v 0.107811 0.097939 2.491468
v 2.531406 0.097939 0.642729
v 2.531406 0.097939 -0.415529
v 2.531406 0.628408 -0.415529
v 2.051383 0.628408 -1.368975
v 2.485572 0.628408 -0.405520
v 1.965939 0.628408 -1.136896
v 2.288437 0.628408 -0.496325
v 2.349150 0.628408 -0.241884
v 2.506878 0.628408 -0.276324
v 2.506878 12.997913 -0.276325
v 2.446165 12.997913 -0.530765
v 2.288437 12.997913 -0.496326
v 2.485572 12.997913 -0.405521
v 1.965939 12.997913 -1.136897
v 2.051383 12.997913 -1.368976
v 2.446165 0.628408 -0.530764
v 1.186412 12.997913 -2.028789
v 2.014627 12.997913 -1.340938
v 1.795825 12.997913 -1.340938
v 1.186412 13.487774 -2.028789
v 0.107811 13.487774 -2.264270
v -0.970791 13.487774 -2.028789
v -1.835761 13.487774 -1.368976
v -0.970791 12.997913 -2.028789
v 0.107811 12.997913 -2.264270
v 0.107811 12.997913 -2.219302
v -0.028610 12.997913 -2.055675
v 0.968880 12.997913 -1.897464
v 0.244232 12.997913 -2.055675
v 0.244232 0.628408 -2.055674
v 0.244232 12.997913 -2.210422
v 0.968880 0.628408 -1.897463
v 1.166014 0.628408 -1.988268
v 1.214702 0.628408 -1.784228
v 1.039075 0.628408 -2.036890
v 1.186412 0.628408 -2.028788
v 0.107811 0.628408 -2.264269
v -0.970791 0.628408 -2.028788
v 0.107811 0.628408 -2.219301
v -0.753258 0.628408 -1.897463
v -0.028610 0.628408 -2.055674
v -0.028610 0.628408 -2.210421
v -0.753258 12.997913 -1.897464
v -0.950393 12.997913 -1.988269
v -0.999080 12.997913 -1.784229
v -0.823454 12.997913 -2.036891
v -1.069276 12.997913 -1.923656
v -0.823454 0.628408 -2.036890
v -1.069276 0.628408 -1.923655
v -0.999080 0.628408 -1.784228
v -0.950393 0.628408 -1.988268
v -1.580203 0.628408 -1.340937
v -1.580203 12.997913 -1.340938
v -1.799005 12.997913 -1.340938
v -1.750317 12.997913 -1.136897
v -1.706691 12.997913 -1.437427
v -1.835761 12.997913 -1.368976
v -2.315784 12.997913 -0.415530
v -2.315784 13.487774 -0.415530
v -2.315784 13.487774 0.642728
v -1.835761 13.487774 1.596181
v -2.315784 12.997913 0.642728
v -1.835761 12.997913 1.596181
v -2.269950 12.997913 0.632718
v -2.133528 12.997913 -0.241885
v -2.133528 12.997913 0.469090
v -2.072816 12.997913 0.723530
v -2.072816 0.628408 0.723531
v -1.750317 12.997913 1.364094
v -2.230544 12.997913 0.757962
v -2.291257 12.997913 0.503522
v -2.230544 0.628408 0.757963
v -2.291257 0.628408 0.503523
v -2.133528 0.628408 0.469091
v -2.269950 0.628408 0.632719
v -2.133528 0.628408 -0.241884
v -2.315784 0.628408 0.642729
v -2.315784 0.628408 -0.415529
v -1.835761 0.628408 -1.368975
v -2.269950 0.628408 -0.405520
v -2.072816 0.628408 -0.496325
v -2.072816 12.997913 -0.496326
v -1.750317 0.628408 -1.136896
v -2.230544 0.628408 -0.530764
v -2.291257 0.628408 -0.276324
v -2.230544 12.997913 -0.530765
v -2.291257 12.997913 -0.276325
v -1.799005 0.628408 -1.340937
v -1.876805 0.628408 -1.233385
v -1.706691 0.628408 -1.437426
v -1.876805 12.997913 -1.233386
v -2.269950 12.997913 -0.405521
v -1.750317 0.628408 1.364095
v -1.799005 0.628408 1.568144
v -1.876805 0.628408 1.460584
v -1.876805 12.997913 1.460583
v -1.706691 0.628408 1.664625
v -1.706691 12.997913 1.664624
v -1.580203 12.997913 1.568143
v -1.799005 12.997913 1.568143
v -0.970791 13.487774 2.255986
v 0.244232 0.628408 -2.210421
v -0.028610 12.997913 -2.210422
v 1.284898 0.628408 -1.923655
v 1.039075 12.997913 -2.036891
v 1.284898 12.997913 -1.923656
v 1.214702 12.997913 -1.784229
v 1.166014 12.997913 -1.988269
v 1.795825 0.628408 -1.340937
v 2.014627 0.628408 -1.340937
v 1.922312 0.628408 -1.437426
v 2.092427 0.628408 -1.233385
v 1.922312 12.997913 -1.437427
v 2.092427 12.997913 -1.233386
v 1.795825 12.997913 1.568143
v 1.214702 0.628408 2.011427
v 1.922312 0.628408 1.664625
v 1.922312 12.997913 1.664624
v 2.092427 12.997913 1.460583
v 2.092427 0.628408 1.460584
v 1.166014 0.628408 2.215475
v 0.968880 0.628408 2.124662
v 1.214702 12.997913 2.011426
v 1.284898 0.628408 2.150854
v 1.039075 0.628408 2.264089
v 1.039075 12.997913 2.264088
v 1.284898 12.997913 2.150853
v 0.968880 12.997913 2.124661
v 1.166014 12.997913 2.215474
v 0.244232 0.628408 2.282873
v 0.107811 0.628408 2.446501
v 0.244232 0.628408 2.437620
v -0.028610 0.628408 2.437620
v 0.244232 12.997913 2.437619
v -0.028610 12.997913 2.437619
v 2.014627 12.997913 1.568143
vn -0.4199 -0.0000 0.9076
vn -0.7695 -0.0000 0.6387
vn -0.9729 -0.0000 0.2311
vn -0.0000 -0.0000 1.0000
vn -0.0000 1.0000 -0.0000
vn -0.0000 -1.0000 -0.0000
vn -0.8932 -0.0000 -0.4497
vn -0.6065 -0.0000 0.7951
vn -0.4184 -0.0000 0.9083
vn 0.8932 -0.0000 0.4497
vn -0.2133 -0.0000 0.9770
vn 0.4199 -0.0000 0.9076
vn 0.7695 -0.0000 0.6387
vn 0.9729 -0.0000 -0.2311
vn 0.9729 -0.0000 0.2311
vn 0.7695 -0.0000 -0.6387
vn 1.0000 -0.0000 -0.0000
vn 0.2133 -0.0000 -0.9770
vn 0.9727 -0.0000 0.2321
vn 0.2133 -0.0000 0.9770
vn 0.9727 -0.0000 -0.2321
vn 0.8932 -0.0000 -0.4497
vn -0.2133 -0.0000 -0.9770
vn 0.4199 -0.0000 -0.9076
vn -0.0000 -0.0000 -1.0000
vn -0.4199 -0.0000 -0.9076
vn -0.7695 -0.0000 -0.6387
vn -1.0000 -0.0000 -0.0000
vn -0.4184 -0.0000 -0.9083
vn -0.6065 -0.0000 -0.7951
vn -0.8932 -0.0000 0.4497
vn 0.6065 -0.0000 -0.7951
vn -0.9729 -0.0000 -0.2311
vn -0.9727 -0.0000 0.2321
vn -0.9727 -0.0000 -0.2321
vn -0.7681 -0.0000 -0.6404
vn -0.7681 -0.0000 0.6404
vn 0.6065 -0.0000 0.7951
vn 0.4184 -0.0000 -0.9083
vn 0.7681 -0.0000 -0.6404
vn 0.7681 -0.0000 0.6404
vn 0.4184 -0.0000 0.9083
vt 0.428571 0.645382
vt 0.357143 0.645382
vt 0.357143 0.632752
vt 0.285714 0.632752
vt 0.428571 0.632752
vt 0.500000 0.645382
vt 0.418802 0.645382
vt 0.490231 0.645382
vt 0.438340 0.645382
vt 0.419770 0.645382
vt 0.418802 0.942798
vt 0.366912 0.645382
vt 0.438340 0.942798
vt 0.437373 0.942798
vt 0.428571 0.942798
vt 0.490231 0.942798
vt 0.500000 0.942798
vt 0.571428 0.954462
vt 0.500000 0.954462
vt 0.571428 0.942798
vt 0.509769 0.942798
vt 0.642857 0.954462
vt 0.785714 0.954462
vt 0.714286 0.954462
vt 0.714286 0.942798
vt 0.857143 0.954462
vt 0.785714 0.942798
vt 0.642857 0.942798
vt 0.724055 0.942798
vt 0.652626 0.942798
vt 0.704517 0.942798
vt 0.723087 0.942798
vt 0.775945 0.942798
vt 0.724055 0.645382
vt 0.704517 0.645382
vt 0.705484 0.645382
vt 0.714286 0.645382
vt 0.652626 0.645382
vt 0.642857 0.645382
vt 0.642857 0.632752
vt 0.571428 0.632752
vt 0.571428 0.645382
vt 0.633088 0.645382
vt 0.500000 0.632752
vt 0.785714 0.645382
vt 0.714286 0.632752
vt 0.785714 0.632752
vt 0.857143 0.645382
vt 0.775945 0.645382
vt 0.847374 0.645382
vt 0.795483 0.645382
vt 0.776913 0.645382
vt 0.794516 0.942798
vt 0.795483 0.942798
vt 0.847374 0.942798
vt 0.857143 0.942798
vt 0.928571 0.954462
vt 0.928571 0.942798
vt 0.866912 0.942798
vt 1.000000 0.954462
vt 0.071428 0.954462
vt -0.000000 0.954462
vt -0.000000 0.942798
vt 0.142857 0.954462
vt 0.071428 0.942798
vt 1.000000 0.942798
vt 0.938340 0.942798
vt 0.009769 0.942798
vt 0.990231 0.942798
vt 0.990231 0.645382
vt 0.938340 0.645382
vt 0.928572 0.645382
vt 0.919770 0.645382
vt 1.000000 0.645382
vt 0.928571 0.632752
vt 0.857143 0.632752
vt 0.918803 0.645382
vt 0.071428 0.645382
vt -0.000000 0.645382
vt -0.000000 0.632752
vt 1.000000 0.632752
vt 0.061660 0.645382
vt 0.009769 0.645382
vt 0.061660 0.942798
vt 0.080230 0.942798
vt 0.081197 0.942798
vt 0.081197 0.645382
vt 0.062627 0.645382
vt 0.133088 0.942798
vt 0.133088 0.645382
vt 0.142857 0.942798
vt 0.151658 0.942798
vt 0.214286 0.954462
vt 0.214286 0.942798
vt 0.152626 0.942798
vt 0.285714 0.954462
vt 0.357143 0.954462
vt 0.285714 0.942798
vt 0.357143 0.942798
vt 0.295483 0.942798
vt 0.224054 0.942798
vt 0.275945 0.942798
vt 0.294516 0.942798
vt 0.347374 0.942798
vt 0.295483 0.645382
vt 0.276913 0.645382
vt 0.275945 0.645382
vt 0.285714 0.645382
vt 0.224054 0.645382
vt 0.214286 0.645382
vt 0.214286 0.632752
vt 0.142857 0.632752
vt 0.142857 0.645382
vt 0.204517 0.645382
vt 0.205484 0.645382
vt 0.204517 0.942798
vt 0.152626 0.645382
vt 0.223087 0.942798
vt 0.134056 0.645382
vt 0.071428 0.632752
vt 0.347374 0.645382
vt 0.348341 0.645382
vt 0.366912 0.942798
vt 0.365944 0.942798
vt 0.428571 0.954462
vt 0.918802 0.942798
vt 0.937373 0.942798
vt 0.866912 0.645382
vt 0.848341 0.645382
vt 0.865944 0.942798
vt 0.634056 0.645382
vt 0.633088 0.942798
vt 0.581197 0.645382
vt 0.651658 0.942798
vt 0.562627 0.645382
vt 0.581197 0.942798
vt 0.561660 0.645382
vt 0.561660 0.942798
vt 0.580230 0.942798
vt 0.509769 0.645382
vt 0.491198 0.645382
vt 0.508801 0.942798
vt 0.061805 0.237753
vt 0.080507 0.152093
vt 0.439496 0.237753
vt 0.856282 0.091097
vt 0.908700 0.159815
vt 0.620714 0.091097
vt 0.132908 0.083399
vt 0.368394 0.083399
vt 0.208628 0.045276
vt 0.292673 0.045276
vt 0.420795 0.152093
vt 0.420795 0.323414
vt 0.080507 0.323414
vt 0.368394 0.392108
vt 0.292673 0.430230
vt 0.208629 0.430230
vt 0.132908 0.392108
vt 0.927408 0.245504
vt 0.549588 0.245504
vt 0.908700 0.331194
vt 0.856282 0.399912
vt 0.620715 0.399912
vt 0.780535 0.438047
vt 0.696461 0.438047
vt 0.568296 0.331194
vt 0.568296 0.159815
vt 0.696461 0.052961
vt 0.780535 0.052961
s 1
usemtl kolumna_czesci
f 11/1/1 9/2/2 8/3/2
f 9/2/2 7/4/3 8/3/2
f 11/1/1 8/3/2 10/5/1
f 12/6/4 11/1/1 10/5/1
f 9/2/5 11/1/5 16/7/5
f 11/1/5 12/6/5 14/8/5
f 11/1/5 13/1/5 16/7/5
f 15/9/5 13/1/5 11/1/5
f 14/8/5 15/9/5 11/1/5
f 16/10/6 15/9/6 21/9/6
f 15/9/5 16/10/5 13/1/5
f 16/7/7 20/11/7 17/11/7
f 17/11/8 18/12/8 16/7/8
f 16/7/5 18/12/5 9/2/5
f 16/7/7 19/7/7 20/11/7
f 16/10/6 21/9/6 19/10/6
f 19/7/9 21/9/9 22/13/9
f 23/13/10 22/13/10 21/9/10
f 23/13/10 21/9/10 15/9/10
f 17/11/5 22/14/5 23/14/5
f 17/11/6 23/14/6 24/15/6
f 26/15/6 24/15/6 23/13/6
f 25/16/11 23/13/11 15/9/11
f 23/13/6 25/16/6 27/17/6
f 27/17/6 26/15/6 23/13/6
f 32/18/12 28/19/4 27/17/4
f 28/19/4 26/15/1 27/17/4
f 32/18/12 27/17/4 29/20/12
f 29/20/6 27/17/6 31/21/6
f 27/17/6 30/17/6 31/21/6
f 25/16/6 30/17/6 27/17/6
f 33/22/13 32/18/12 29/20/12
f 35/23/14 34/24/15 38/25/15
f 36/26/16 35/23/14 37/27/14
f 35/23/14 38/25/15 37/27/14
f 34/24/15 39/28/13 38/25/15
f 37/27/6 38/25/6 43/29/6
f 38/25/6 39/28/6 41/30/6
f 38/25/6 40/25/6 43/29/6
f 42/31/6 40/25/6 38/25/6
f 41/30/6 42/31/6 38/25/6
f 42/31/5 46/32/5 43/32/5
f 42/31/6 43/32/6 40/25/6
f 45/33/17 43/29/17 44/34/17
f 43/29/18 47/34/18 44/34/18
f 43/29/6 45/33/6 37/27/6
f 43/29/18 46/29/18 47/34/18
f 48/35/19 47/34/19 46/29/19
f 49/36/6 47/34/6 48/36/6
f 49/36/6 44/34/6 47/34/6
f 44/34/5 49/36/5 50/37/5
f 52/37/5 50/37/5 49/35/5
f 49/35/11 54/31/11 42/31/11
f 42/31/10 51/38/10 49/35/10
f 49/35/5 51/38/5 53/39/5
f 49/35/11 48/35/11 54/31/11
f 53/39/5 52/37/5 49/35/5
f 42/31/5 54/31/5 46/32/5
f 48/35/19 46/29/19 54/31/19
f 52/37/15 53/39/13 55/40/13
f 53/39/13 59/41/12 55/40/13
f 53/39/13 56/42/12 59/41/12
f 56/42/5 53/39/5 58/43/5
f 53/39/5 57/39/5 58/43/5
f 51/38/5 57/39/5 53/39/5
f 56/42/12 60/44/4 59/41/12
f 63/45/14 52/37/15 61/46/15
f 52/37/15 55/40/13 61/46/15
f 63/45/14 61/46/15 62/47/14
f 64/48/16 63/45/14 62/47/14
f 52/37/5 63/45/5 68/49/5
f 63/45/5 64/48/5 66/50/5
f 63/45/5 65/45/5 68/49/5
f 67/51/5 65/45/5 63/45/5
f 66/50/5 67/51/5 63/45/5
f 67/51/6 69/52/6 68/52/6
f 67/51/5 68/52/5 65/45/5
f 68/49/20 70/33/20 45/33/20
f 45/33/17 44/34/17 68/49/17
f 68/49/5 44/34/5 52/37/5
f 68/49/20 69/49/20 70/33/20
f 72/53/5 70/33/5 71/53/5
f 69/49/21 71/54/21 70/33/21
f 72/53/5 45/33/5 70/33/5
f 45/33/6 72/53/6 73/27/6
f 37/27/6 73/27/6 72/54/6
f 74/55/22 72/54/22 67/51/22
f 72/54/23 76/51/23 67/51/23
f 72/54/6 74/55/6 75/56/6
f 72/54/23 71/54/23 76/51/23
f 75/56/6 37/27/6 72/54/6
f 69/49/21 76/51/21 71/54/21
f 67/51/6 76/51/6 69/52/6
f 80/57/24 36/26/16 75/56/16
f 36/26/16 37/27/14 75/56/16
f 80/57/24 75/56/16 77/58/24
f 77/58/6 75/56/6 79/59/6
f 75/56/6 78/56/6 79/59/6
f 74/55/6 78/56/6 75/56/6
f 81/60/25 80/57/24 77/58/24
f 82/61/26 81/62/25 85/63/25
f 83/64/27 82/61/26 84/65/26
f 82/61/26 85/63/25 84/65/26
f 81/60/25 77/58/24 85/66/25
f 85/66/6 77/58/6 88/67/6
f 84/65/6 85/63/6 87/68/6
f 89/69/6 86/66/6 85/66/6
f 85/63/6 86/63/6 87/68/6
f 88/67/6 89/69/6 85/66/6
f 89/63/6 87/68/6 86/63/6
f 87/68/5 89/63/5 91/63/5
f 90/70/17 91/69/17 89/69/17
f 89/69/18 92/71/18 90/70/18
f 89/69/18 88/67/18 92/71/18
f 92/71/5 93/72/5 96/72/5
f 92/71/5 94/73/5 93/72/5
f 94/73/6 92/71/6 95/71/6
f 88/67/7 95/71/7 92/71/7
f 90/70/5 92/71/5 96/72/5
f 97/74/25 96/72/24 2/75/24
f 96/72/24 1/76/16 2/75/24
f 96/72/24 64/48/16 1/76/16
f 64/48/5 96/72/5 94/77/5
f 96/72/5 97/74/5 90/70/5
f 96/72/5 93/72/5 94/77/5
f 98/78/26 97/79/25 3/80/25
f 97/74/25 2/75/24 3/81/25
f 97/79/5 98/78/5 100/82/5
f 97/74/5 99/74/5 90/70/5
f 101/83/5 99/79/5 97/79/5
f 100/82/5 101/83/5 97/79/5
f 101/83/5 90/79/5 99/79/5
f 90/79/6 101/83/6 102/83/6
f 103/84/23 87/68/23 101/83/23
f 87/68/28 102/83/28 101/83/28
f 103/84/23 101/83/23 100/82/23
f 103/84/6 104/65/6 84/65/6
f 103/84/6 105/85/6 104/65/6
f 105/85/5 103/84/5 106/84/5
f 100/82/22 106/84/22 103/84/22
f 87/68/6 103/84/6 84/65/6
f 105/85/5 106/84/5 107/85/5
f 108/82/29 107/86/29 106/84/29
f 100/82/22 108/82/22 106/84/22
f 110/87/6 109/87/6 108/88/6
f 108/82/29 109/87/29 107/86/29
f 110/87/6 108/88/6 100/88/6
f 110/87/5 111/78/5 98/78/5
f 110/87/5 100/88/5 111/78/5
f 113/89/30 105/86/30 110/87/30
f 105/86/31 109/87/31 110/87/31
f 112/90/5 110/87/5 98/78/5
f 113/89/30 110/87/30 112/90/30
f 113/89/6 114/91/6 117/91/6
f 113/89/6 115/92/6 114/91/6
f 115/92/5 113/89/5 116/89/5
f 112/90/32 116/89/32 113/89/32
f 105/86/6 113/89/6 117/91/6
f 119/93/33 83/64/27 117/91/27
f 83/64/27 84/65/26 117/91/27
f 119/93/33 117/91/27 118/94/33
f 118/94/6 117/91/6 115/95/6
f 117/91/6 84/65/6 105/86/6
f 117/91/6 114/91/6 115/95/6
f 120/96/3 119/93/33 118/94/33
f 121/97/2 120/96/3 122/98/3
f 120/96/3 118/94/33 122/98/3
f 121/97/2 122/98/3 123/99/2
f 123/99/6 122/98/6 127/100/6
f 122/98/6 118/94/6 125/101/6
f 122/98/6 124/98/6 127/100/6
f 126/102/6 124/98/6 122/98/6
f 125/101/6 126/102/6 122/98/6
f 127/103/5 126/102/5 131/102/5
f 126/102/6 127/103/6 124/98/6
f 129/104/31 127/100/31 128/105/31
f 127/100/20 132/105/20 128/105/20
f 127/100/6 129/104/6 123/99/6
f 127/100/20 130/100/20 132/105/20
f 127/103/5 131/102/5 130/103/5
f 128/105/6 132/105/6 133/106/6
f 133/107/34 132/105/34 130/100/34
f 134/107/23 133/107/23 131/102/23
f 133/107/34 130/100/34 131/102/34
f 128/105/6 133/106/6 134/106/6
f 128/105/5 134/106/5 135/108/5
f 137/108/5 135/108/5 134/107/5
f 134/107/23 131/102/23 126/102/23
f 126/102/28 136/109/28 134/107/28
f 134/107/5 136/109/5 138/110/5
f 138/110/5 137/108/5 134/107/5
f 137/108/3 138/110/33 6/111/33
f 138/110/33 5/112/27 6/111/33
f 138/110/33 139/113/27 5/112/27
f 139/113/5 138/110/5 141/114/5
f 138/110/5 140/110/5 141/114/5
f 136/109/5 140/110/5 138/110/5
f 141/115/6 136/109/6 145/109/6
f 136/109/5 141/115/5 140/110/5
f 141/114/18 146/116/18 142/116/18
f 142/116/7 143/117/7 141/114/7
f 141/114/5 143/117/5 139/113/5
f 141/114/18 144/114/18 146/116/18
f 141/115/6 145/109/6 144/115/6
f 142/116/5 146/116/5 147/118/5
f 144/114/35 147/101/35 146/116/35
f 125/101/11 147/101/11 145/109/11
f 144/114/35 145/109/35 147/101/35
f 142/116/5 147/118/5 125/118/5
f 125/101/11 145/109/11 136/109/11
f 143/117/5 148/113/5 139/113/5
f 143/117/5 112/119/5 148/113/5
f 143/117/6 150/119/6 112/119/6
f 142/116/7 115/95/7 143/117/7
f 115/95/8 149/117/8 143/117/8
f 143/117/6 149/117/6 150/119/6
f 150/90/36 149/117/36 151/95/36
f 112/90/32 150/90/32 116/89/32
f 150/90/36 151/95/36 116/89/36
f 115/92/5 116/89/5 151/92/5
f 115/95/8 151/95/8 149/117/8
f 139/113/5 148/113/5 112/90/5
f 142/116/6 152/94/6 118/94/6
f 142/116/6 125/118/6 152/94/6
f 115/95/6 142/116/6 118/94/6
f 118/94/6 152/94/6 125/101/6
f 139/113/27 4/120/26 5/112/27
f 139/113/27 98/78/26 4/120/26
f 98/78/5 139/113/5 112/90/5
f 9/2/2 137/108/3 7/4/3
f 137/108/3 6/111/33 7/4/3
f 137/108/5 9/2/5 153/121/5
f 128/105/5 135/108/5 137/108/5
f 153/121/5 128/105/5 137/108/5
f 153/122/6 18/12/6 157/12/6
f 18/12/5 153/122/5 154/2/5
f 9/2/5 154/2/5 153/121/5
f 153/121/30 156/104/30 129/104/30
f 129/104/31 128/105/31 153/121/31
f 153/121/30 155/121/30 156/104/30
f 153/122/6 157/12/6 155/122/6
f 155/121/37 157/12/37 158/123/37
f 159/123/38 158/123/38 157/12/38
f 159/123/38 157/12/38 18/12/38
f 129/104/5 158/124/5 159/124/5
f 129/104/6 159/124/6 160/99/6
f 123/99/6 160/99/6 159/123/6
f 17/11/8 159/123/8 18/12/8
f 159/123/6 17/11/6 26/15/6
f 26/15/6 123/99/6 159/123/6
f 129/104/6 160/99/6 123/99/6
f 129/104/5 156/104/5 158/124/5
f 155/121/37 158/123/37 156/104/37
f 18/12/5 154/2/5 9/2/5
f 126/102/28 125/101/28 136/109/28
f 161/125/1 121/97/2 123/99/2
f 161/125/1 123/99/2 26/15/1
f 28/19/4 161/125/1 26/15/1
f 98/78/5 111/78/5 100/82/5
f 105/86/31 107/86/31 109/87/31
f 84/65/6 104/65/6 105/86/6
f 90/79/6 102/83/6 162/79/6
f 163/68/25 162/79/25 102/83/25
f 87/68/28 163/68/28 102/83/28
f 163/68/25 91/63/25 162/79/25
f 87/68/5 91/63/5 163/68/5
f 90/70/17 162/70/17 91/69/17
f 98/78/26 3/80/25 4/120/26
f 164/77/39 95/71/39 165/67/39
f 94/73/6 95/71/6 164/73/6
f 88/67/7 165/67/7 95/71/7
f 167/126/5 166/126/5 165/127/5
f 164/77/39 165/67/39 166/126/39
f 167/126/5 165/127/5 88/127/5
f 167/126/6 168/58/6 77/58/6
f 167/126/6 88/127/6 168/58/6
f 94/77/10 166/126/10 167/126/10
f 167/126/32 169/128/32 94/77/32
f 79/59/6 167/126/6 77/58/6
f 167/126/32 79/59/32 169/128/32
f 169/128/5 170/48/5 64/48/5
f 169/128/5 66/129/5 170/48/5
f 66/129/6 169/128/6 171/128/6
f 79/59/30 171/128/30 169/128/30
f 94/77/5 169/128/5 64/48/5
f 172/50/40 171/128/40 173/59/40
f 66/129/6 171/128/6 172/129/6
f 79/59/30 173/59/30 171/128/30
f 74/55/5 174/55/5 173/130/5
f 172/50/40 173/59/40 174/55/40
f 74/55/5 173/130/5 79/130/5
f 66/50/38 172/50/38 174/55/38
f 66/50/38 174/55/38 74/55/38
f 64/48/5 170/48/5 66/50/5
f 77/58/6 168/58/6 88/67/6
f 94/77/10 164/77/10 166/126/10
f 74/55/6 79/130/6 78/56/6
f 74/55/22 67/51/22 66/50/22
f 45/33/6 73/27/6 37/27/6
f 64/48/16 62/47/14 1/76/16
f 56/42/12 12/6/4 60/44/4
f 12/6/4 10/5/1 60/44/4
f 51/38/6 177/131/6 58/131/6
f 51/38/5 58/131/5 57/39/5
f 58/43/8 178/132/8 175/132/8
f 175/132/38 176/133/38 58/43/38
f 58/43/5 176/133/5 56/42/5
f 58/43/8 177/43/8 178/132/8
f 41/134/5 178/132/5 179/134/5
f 177/43/41 179/30/41 178/132/41
f 41/134/5 175/132/5 178/132/5
f 41/30/32 179/30/32 180/38/32
f 177/43/41 180/38/41 179/30/41
f 51/38/6 180/38/6 177/131/6
f 41/30/32 180/38/32 51/38/32
f 176/133/5 181/42/5 56/42/5
f 176/133/5 182/135/5 181/42/5
f 176/133/6 185/135/6 182/135/6
f 175/132/38 183/136/38 176/133/38
f 183/136/22 184/133/22 176/133/22
f 176/133/6 184/133/6 185/135/6
f 185/137/42 184/133/42 187/136/42
f 182/137/31 185/137/31 186/138/31
f 185/137/42 187/136/42 186/138/42
f 183/139/5 186/138/5 187/139/5
f 183/136/22 187/136/22 184/133/22
f 183/139/5 188/138/5 186/138/5
f 182/137/31 186/138/31 188/138/31
f 188/138/6 189/20/6 29/20/6
f 188/138/6 183/139/6 189/20/6
f 188/138/20 190/140/20 182/137/20
f 188/138/20 31/21/20 190/140/20
f 31/21/6 188/138/6 29/20/6
f 190/140/5 191/6/5 12/6/5
f 190/140/5 14/141/5 191/6/5
f 14/141/6 190/140/6 192/140/6
f 31/21/17 192/140/17 190/140/17
f 182/137/5 190/140/5 12/6/5
f 193/8/4 192/140/4 194/21/4
f 14/141/6 192/140/6 193/141/6
f 31/21/17 194/21/17 192/140/17
f 193/8/4 194/21/4 195/16/4
f 31/142/5 195/16/5 194/142/5
f 14/8/28 193/8/28 195/16/28
f 31/142/5 25/16/5 195/16/5
f 14/8/28 195/16/28 25/16/28
f 12/6/5 191/6/5 14/8/5
f 29/20/6 189/20/6 183/136/6
f 183/136/6 175/132/6 39/28/6
f 39/28/6 29/20/6 183/136/6
f 56/42/5 181/42/5 182/137/5
f 12/6/5 56/42/5 182/137/5
f 175/132/6 196/28/6 39/28/6
f 175/132/6 41/134/6 196/28/6
f 39/28/6 196/28/6 41/30/6
f 44/34/5 50/37/5 52/37/5
f 42/31/10 41/30/10 51/38/10
f 34/24/15 33/22/13 39/28/13
f 33/22/13 29/20/12 39/28/13
f 25/16/6 31/142/6 30/17/6
f 17/11/6 24/15/6 26/15/6
f 25/16/11 15/9/11 14/8/11
f 17/11/5 20/11/5 22/14/5
f 19/7/9 22/13/9 20/11/9
f 3/143/6 2/144/6 60/145/6
f 121/146/5 161/147/5 83/148/5
f 2/144/6 1/149/6 55/150/6
f 1/149/6 62/151/6 55/150/6
f 62/151/6 61/152/6 55/150/6
f 55/150/6 59/153/6 2/144/6
f 59/153/6 60/145/6 2/144/6
f 60/145/6 10/154/6 4/155/6
f 10/154/6 8/156/6 4/155/6
f 8/156/6 7/157/6 6/158/6
f 6/158/6 5/159/6 8/156/6
f 5/159/6 4/155/6 8/156/6
f 4/155/6 3/143/6 60/145/6
f 161/147/5 28/160/5 81/161/5
f 28/160/5 32/162/5 81/161/5
f 32/162/5 33/163/5 36/164/5
f 33/163/5 34/165/5 36/164/5
f 34/165/5 35/166/5 36/164/5
f 36/164/5 80/167/5 32/162/5
f 80/167/5 81/161/5 32/162/5
f 81/161/5 82/168/5 161/147/5
f 82/168/5 83/148/5 161/147/5
f 83/148/5 119/169/5 120/170/5
f 120/170/5 121/146/5 83/148/5
