# Blender 4.4.3
# www.blender.org
mtllib kolumna_podstawa.mtl
o Cylinder.029
v 0.551553 -0.022819 -1.594032
v 1.549043 -0.022819 -1.376259
v -0.445937 -0.022819 -1.376259
v 0.551553 -0.022819 -1.772850
v 2.792892 -0.022819 0.115685
v 1.630154 -0.022819 -1.537369
v 2.495124 -0.022819 -0.877556
v 1.731543 -0.022819 -1.738754
v 2.677820 -0.022819 -1.016922
v 3.037560 -0.022816 -1.327797
v 3.202966 -0.022819 0.026154
v 3.651552 -0.022816 -0.084793
v 3.651552 -0.022816 1.294838
v 3.476348 0.953925 -0.033531
v 2.897056 0.953925 -1.184158
v 2.677820 0.953925 -1.016922
v 1.853209 0.953925 -1.980415
v 3.202966 0.953925 0.026154
v 3.202966 0.953925 1.183884
v 1.731543 0.953925 -1.738754
v 0.551553 0.953925 -1.996376
v -0.628437 0.953925 -1.738754
v -1.574716 0.953925 -1.016922
v -2.099861 0.953925 0.026154
v -2.099861 0.953925 1.183884
v 2.677820 0.953925 2.226959
v 1.731543 0.953925 2.948792
v 0.551553 0.953925 3.206413
v 1.853209 0.953925 3.190453
v 0.551553 0.953925 3.474632
v 0.551553 -0.022816 3.705017
v -0.750104 0.953925 3.190453
v -0.828077 -0.022816 3.398026
v 1.931182 -0.022816 3.398026
v -0.628437 0.953925 2.948792
v -1.574716 0.953925 2.226959
v -1.793951 0.953925 2.394196
v -1.934455 -0.022816 2.537834
v -2.373243 0.953925 1.243568
v -2.548448 -0.022816 1.294838
v -2.099861 -0.022819 1.183884
v -2.548448 -0.022816 -0.084793
v -1.574716 -0.022819 2.226959
v -2.099861 -0.022819 0.026154
v -2.373243 0.953925 -0.033531
v -1.793951 0.953925 -1.184158
v -1.934455 -0.022816 -1.327797
v -0.750104 0.953925 -1.980415
v -0.828077 -0.022816 -2.187988
v 0.551553 0.953925 -2.264595
v 0.551553 -0.022816 -2.494980
v 1.931182 -0.022816 -2.187988
v 0.551553 -0.022819 -1.996376
v -0.628437 -0.022819 -1.738754
v -0.527049 -0.022819 -1.537369
v -1.392019 -0.022819 -0.877556
v -1.245862 -0.022819 -0.766068
v -1.689787 -0.022819 0.115685
v -1.689787 -0.022819 1.094353
v -1.872043 -0.022819 0.075890
v -1.245862 -0.022819 1.976105
v -0.445937 -0.022819 2.586296
v -1.392019 -0.022819 2.087601
v 0.551553 -0.022819 2.804077
v -1.872043 -0.022819 1.134148
v 1.549043 -0.022819 2.586296
v 0.551553 -0.022819 2.982887
v -0.527049 -0.022819 2.747406
v -0.628437 -0.022819 2.948792
v 0.551553 -0.022819 3.206413
v 1.731543 -0.022819 2.948792
v 1.630154 -0.022819 2.747406
v 2.495124 -0.022819 2.087601
v 2.348968 -0.022819 1.976105
v 2.792892 -0.022819 1.094353
v 2.975147 -0.022819 1.134148
v 2.975147 -0.022819 0.075890
v 3.202966 -0.022819 1.183884
v 2.677820 -0.022819 2.226959
v 3.037560 -0.022816 2.537834
v 2.897056 0.953925 2.394196
v 3.476348 0.953925 1.243568
v 2.348968 -0.022819 -0.766068
v -1.574716 -0.022819 -1.016922
v 2.966912 3.021104 -0.442703
v 3.202966 2.818175 0.026146
v 3.202966 2.732862 0.731056
v 3.202966 3.409092 0.565810
v 3.202966 3.409074 0.562020
v -1.920667 2.523178 1.539810
v -2.017111 2.560009 1.348245
v 2.936978 3.223436 1.712205
v 2.677820 3.039604 2.226959
v 2.071451 2.605855 2.689505
v 1.731543 2.362712 2.948792
v 0.728184 1.642318 3.167850
v -0.628437 2.025413 2.948792
v -0.378427 1.928304 3.003375
v -1.300784 2.285214 2.435918
v 0.551553 1.567080 3.206413
v 0.598104 1.548923 3.196250
v -1.574716 2.391064 2.226959
v 3.202966 3.412112 1.183884
v 2.677820 3.023753 -1.016922
v 2.307063 2.755778 -1.299742
v 0.551553 1.547846 -1.996376
v 0.382215 1.613894 -1.959406
v 0.104113 1.722364 -1.898686
v -0.628437 2.008085 -1.738750
v -2.099861 2.588851 0.437735
v -2.099861 2.587330 0.026158
v -1.852057 2.489058 -0.466053
v -1.745174 2.446671 -0.678352
v -1.574716 2.379072 -1.016916
v -1.152629 2.213594 -1.338897
v 2.845001 3.145587 -0.684853
v 1.431404 2.123671 -1.804280
v 1.331270 2.051563 -1.826144
v -0.864379 2.100586 -1.558776
v 1.731543 2.339806 -1.738751
v 1.932391 2.484974 -1.585546
v -2.099861 2.591609 1.183884
v -2.099861 2.591476 1.147666
v 2.747585 3.078587 -0.061282
v 3.202966 3.408188 0.380844
v 2.600605 2.978877 1.161734
v -2.057756 2.570632 -0.057471
v 0.603667 1.527604 -1.984998
vn -0.0000 -1.0000 -0.0000
vn 0.9567 0.1835 -0.2258
vn 0.9561 0.1855 0.2268
vn 0.9561 0.1855 -0.2268
vn 0.7577 0.1983 -0.6218
vn 0.7552 0.2029 -0.6233
vn -0.0000 1.0000 -0.0000
vn 0.4145 0.2182 -0.8835
vn 1.0000 -0.0000 -0.0000
vn 0.9729 -0.0000 0.2311
vn -0.8932 -0.0000 0.4497
vn -0.9729 -0.0000 0.2311
vn 0.8092 -0.0000 0.5875
vn 0.7695 -0.0000 0.6387
vn 0.8932 -0.0000 0.4497
vn 0.6065 -0.0000 0.7951
vn 0.4928 -0.0000 0.8701
vn 0.4199 -0.0000 0.9076
vn 0.2133 -0.0000 0.9770
vn 0.4121 0.2218 0.8837
vn -0.0000 0.2274 0.9738
vn -0.0000 0.2296 0.9733
vn -0.4121 0.2218 0.8837
vn -0.4145 0.2182 0.8835
vn 0.4145 0.2182 0.8835
vn -0.4626 -0.0000 0.8866
vn -0.4199 -0.0000 0.9076
vn -0.2133 -0.0000 0.9770
vn -0.6065 -0.0000 0.7951
vn -0.0338 0.1177 0.9925
vn -0.7918 -0.0000 0.6108
vn -0.7695 -0.0000 0.6387
vn -0.7577 0.1983 0.6218
vn -0.7552 0.2029 0.6233
vn -0.9561 0.1855 0.2268
vn -0.9567 0.1835 0.2258
vn -0.9567 0.1835 -0.2258
vn -0.9561 0.1855 -0.2268
vn -0.7577 0.1983 -0.6218
vn -0.7552 0.2029 -0.6233
vn -0.4145 0.2182 -0.8835
vn -0.4121 0.2218 -0.8837
vn -0.0000 0.2274 -0.9738
vn 0.4121 0.2218 -0.8837
vn -0.0000 0.2296 -0.9733
vn 0.7552 0.2029 0.6233
vn 0.7577 0.1983 0.6218
vn 0.9567 0.1835 0.2258
vn 0.9785 -0.0000 0.2062
vn 0.7695 -0.0000 -0.6387
vn 0.6065 -0.0000 -0.7951
vn 0.8097 -0.0000 -0.5868
vn -0.0000 -0.0000 -1.0000
vn -0.2133 -0.0000 -0.9770
vn -0.0504 -0.0000 -0.9987
vn -0.4199 -0.0000 -0.9076
vn -0.9729 -0.0000 -0.2311
vn -1.0000 -0.0000 -0.0000
vn -0.9762 -0.0000 -0.2171
vn -0.8932 -0.0000 -0.4497
vn -0.7695 -0.0000 -0.6387
vn -0.7923 -0.0000 -0.6101
vn -0.6065 -0.0000 -0.7951
vn 0.8932 -0.0000 -0.4497
vn 0.2133 -0.0000 -0.9770
vn 0.4199 -0.0000 -0.9076
vn -0.4629 -0.0000 -0.8864
vn 0.4931 -0.0000 -0.8700
vn 0.9644 -0.0000 -0.2643
vn 0.9729 -0.0000 -0.2311
vn -0.9759 -0.0000 0.2181
vn 0.5170 0.8387 0.1709
vn -0.6353 -0.3555 -0.6855
vn 0.4511 0.8835 0.1262
vn 0.5237 0.8457 0.1024
vn 0.3627 0.9319 -0.0034
vn -0.5838 0.8119 -0.0040
vn 0.0480 -0.2243 0.9733
vt 0.750000 0.490000
vt 0.854132 0.466233
vt 0.983983 0.303405
vt 0.645868 0.466233
vt 0.937640 0.399638
vt 0.983983 0.196595
vt 0.785714 0.523256
vt 0.714286 0.500000
vt 0.785714 0.500000
vt 0.857143 0.523256
vt 0.857143 0.500000
vt 0.928571 0.523256
vt 0.742224 0.565611
vt 0.752419 0.581712
vt 0.714286 0.523256
vt 0.310088 0.560619
vt 0.296970 0.561496
vt 0.285714 0.523256
vt 0.642857 0.572915
vt 0.642857 0.523256
vt 0.678107 0.577292
vt 0.597086 0.562588
vt 0.571428 0.556799
vt 0.571428 0.523256
vt 0.510692 0.539646
vt 0.500000 0.523256
vt 0.571428 0.500000
vt 0.500000 0.500000
vt 0.428571 0.500000
vt 0.428571 0.523256
vt 0.428571 0.548768
vt 0.443705 0.546455
vt 0.377820 0.554953
vt 0.357143 0.523256
vt 0.500000 0.537855
vt 0.357143 0.557474
vt 0.357143 0.500000
vt 0.285714 0.500000
vt 0.516017 0.303405
vt 0.516017 0.196595
vt 0.562360 0.100362
vt 0.214286 0.523256
vt 0.214286 0.500000
vt 0.142857 0.523256
vt 0.071428 0.523256
vt 0.142857 0.500000
vt -0.000000 0.523256
vt 0.071428 0.500000
vt 1.000000 0.523256
vt 0.928571 0.500000
vt 1.000000 0.500000
vt -0.000000 0.500000
vt 0.562360 0.399638
vt 0.750000 0.010000
vt 0.645868 0.033767
vt 0.854132 0.033767
vt 0.937640 0.100362
vt 0.642857 0.500000
vt 0.714286 0.581784
vt 0.885129 0.566157
vt 0.857143 0.572538
vt 0.010251 0.538970
vt 0.000000 0.537397
vt 0.027085 0.541552
vt 0.239679 0.562183
vt 0.214286 0.562146
vt 0.180580 0.559807
vt 0.142857 0.557188
vt 0.110997 0.553248
vt 0.817821 0.572474
vt 0.946739 0.551107
vt 0.952801 0.549390
vt 0.089238 0.550557
vt 0.071428 0.548355
vt 0.928571 0.556253
vt 0.785714 0.567643
vt 0.913410 0.559709
vt 0.285714 0.562248
vt 0.283480 0.562245
vt 0.166042 0.558797
vt 0.495642 0.775126
vt 0.489744 0.780174
vt 0.491239 0.785800
vt 0.763831 0.581690
vt 0.752653 0.581711
vt 0.489939 0.750000
vt 0.503591 0.750000
vt 0.493529 0.733890
vt 0.208559 0.561749
vt 1.000000 0.537397
vt 0.996845 0.536915
vt 0.486924 0.766026
vt 0.418200 0.883137
vt 0.414923 0.947505
vt 0.430807 0.932591
vt 0.169507 0.728390
vt 0.199267 0.693987
vt 0.173252 0.715307
vt 0.254740 0.750000
vt 0.376058 0.870085
vt 0.834403 0.575438
vt 0.436403 0.905066
vt 0.436402 0.904448
vt 0.434516 0.901650
vt 0.432318 0.898388
vt 0.436420 0.917170
vt 0.424435 0.886688
vt 0.402898 0.874423
vt 0.397211 0.873504
vt 0.375000 0.870260
vt 0.386358 0.957107
vt 0.380035 0.958155
vt 0.375000 0.958601
vt 0.376185 0.958793
vt 0.403013 0.954346
vt 0.408374 0.951267
vt 0.435475 0.925615
vt 0.436430 0.924188
vt 0.428382 0.936216
vt 0.424514 0.941996
vt 0.169131 0.731004
vt 0.166399 0.750000
vt 0.220115 0.697789
vt 0.254260 0.746606
vt 0.250557 0.720423
vt 0.246147 0.711558
vt 0.238280 0.695744
vt 0.229512 0.688994
vt 0.220512 0.682066
vt 0.209974 0.682083
vt 0.209909 0.682083
vt 0.206820 0.682088
vt 0.170634 0.720554
vt 0.178137 0.705520
vt 0.188639 0.691461
vt 0.182971 0.695834
s 1
usemtl kolumna_z.001
f 1/1/1 2/2/1 5/3/1
f 1/1/1 6/2/1 2/2/1
f 3/4/1 1/1/1 5/3/1
f 3/4/1 4/1/1 1/1/1
f 1/1/1 4/1/1 6/2/1
f 2/2/1 6/2/1 7/5/1
f 4/1/1 8/2/1 6/2/1
f 6/2/1 9/5/1 7/5/1
f 6/2/1 8/2/1 9/5/1
f 9/5/1 10/5/1 12/3/1
f 8/2/1 10/5/1 9/5/1
f 7/5/1 9/5/1 11/3/1
f 9/5/1 12/3/1 11/3/1
f 11/3/1 12/3/1 13/6/1
f 14/7/2 13/8/3 12/9/4
f 15/10/5 14/7/2 12/9/4
f 15/10/5 12/9/4 10/11/6
f 16/10/7 15/10/7 17/12/7
f 18/7/7 15/10/7 16/10/7
f 17/12/8 15/10/5 10/11/6
f 18/7/7 14/7/7 15/10/7
f 87/13/9 88/14/9 19/15/10
f 19/15/7 14/7/7 18/7/7
f 90/16/11 91/17/11 25/18/12
f 93/19/13 26/20/14 92/21/15
f 94/22/16 26/20/14 93/19/13
f 95/23/17 27/24/18 94/22/16
f 96/25/19 27/24/18 95/23/17
f 27/24/7 28/26/7 30/26/7
f 26/20/7 27/24/7 29/24/7
f 27/24/7 30/26/7 29/24/7
f 34/27/20 30/26/21 31/28/22
f 30/26/21 33/29/23 31/28/22
f 35/30/7 32/30/7 30/26/7
f 30/26/21 32/30/24 33/29/23
f 34/27/20 29/24/25 30/26/21
f 35/30/7 30/26/7 28/26/7
f 97/31/26 35/30/27 98/32/28
f 99/33/29 35/30/27 97/31/26
f 36/34/7 32/30/7 35/30/7
f 35/30/27 100/35/30 98/32/28
f 102/36/31 36/34/32 99/33/29
f 36/34/32 90/16/11 25/18/12
f 25/18/7 37/34/7 36/34/7
f 36/34/7 37/34/7 32/30/7
f 32/30/24 37/34/33 38/37/34
f 37/34/33 40/38/35 38/37/34
f 25/18/7 39/18/7 37/34/7
f 37/34/33 39/18/36 40/38/35
f 44/39/1 41/40/1 40/40/1
f 43/41/1 40/40/1 41/40/1
f 40/38/35 45/42/37 42/43/38
f 44/39/1 40/40/1 42/39/1
f 40/38/35 39/18/36 45/42/37
f 43/41/1 38/41/1 40/40/1
f 42/43/38 45/42/37 46/44/39
f 24/42/7 46/44/7 45/42/7
f 24/42/7 45/42/7 39/18/7
f 24/42/7 23/44/7 46/44/7
f 23/44/7 48/45/7 46/44/7
f 47/46/40 46/44/39 48/45/41
f 42/43/38 46/44/39 47/46/40
f 23/44/7 22/45/7 48/45/7
f 22/45/7 50/47/7 48/45/7
f 49/48/42 48/45/41 50/47/43
f 47/46/40 48/45/41 49/48/42
f 22/45/7 21/47/7 50/47/7
f 20/12/7 50/49/7 21/49/7
f 50/49/43 52/50/44 51/51/45
f 49/48/42 50/47/43 51/52/45
f 50/49/43 17/12/8 52/50/44
f 20/12/7 17/12/7 50/49/7
f 8/2/1 52/2/1 10/5/1
f 53/1/1 52/2/1 8/2/1
f 17/12/8 10/11/6 52/50/44
f 53/1/1 51/1/1 52/2/1
f 53/1/1 54/4/1 49/4/1
f 55/4/1 54/4/1 53/1/1
f 4/1/1 53/1/1 8/2/1
f 55/4/1 53/1/1 4/1/1
f 53/1/1 49/4/1 51/1/1
f 3/4/1 55/4/1 4/1/1
f 57/53/1 55/4/1 3/4/1
f 57/53/1 56/53/1 55/4/1
f 56/53/1 54/4/1 55/4/1
f 58/39/1 57/53/1 3/4/1
f 58/39/1 56/53/1 57/53/1
f 61/41/1 59/40/1 58/39/1
f 59/40/1 60/39/1 58/39/1
f 58/39/1 60/39/1 56/53/1
f 61/41/1 58/39/1 5/3/1
f 58/39/1 3/4/1 5/3/1
f 64/54/1 62/55/1 61/41/1
f 62/55/1 63/41/1 61/41/1
f 61/41/1 65/40/1 59/40/1
f 61/41/1 63/41/1 65/40/1
f 64/54/1 61/41/1 5/3/1
f 59/40/1 65/40/1 60/39/1
f 65/40/1 41/40/1 44/39/1
f 63/41/1 41/40/1 65/40/1
f 65/40/1 44/39/1 60/39/1
f 66/56/1 64/54/1 5/3/1
f 66/56/1 67/54/1 64/54/1
f 64/54/1 68/55/1 62/55/1
f 64/54/1 67/54/1 68/55/1
f 62/55/1 68/55/1 63/41/1
f 67/54/1 69/55/1 68/55/1
f 68/55/1 43/41/1 63/41/1
f 68/55/1 69/55/1 43/41/1
f 69/55/1 38/41/1 43/41/1
f 67/54/1 70/54/1 69/55/1
f 70/54/1 33/55/1 69/55/1
f 69/55/1 33/55/1 38/41/1
f 70/54/1 71/56/1 34/56/1
f 72/56/1 71/56/1 70/54/1
f 72/56/1 70/54/1 67/54/1
f 70/54/1 31/54/1 33/55/1
f 70/54/1 34/56/1 31/54/1
f 66/56/1 72/56/1 67/54/1
f 74/57/1 72/56/1 66/56/1
f 74/57/1 73/57/1 72/56/1
f 73/57/1 71/56/1 72/56/1
f 5/3/1 75/6/1 74/57/1
f 75/6/1 73/57/1 74/57/1
f 74/57/1 66/56/1 5/3/1
f 5/3/1 76/6/1 75/6/1
f 75/6/1 76/6/1 73/57/1
f 5/3/1 77/3/1 76/6/1
f 77/3/1 78/6/1 76/6/1
f 73/57/1 76/6/1 78/6/1
f 79/57/1 78/6/1 13/6/1
f 73/57/1 78/6/1 79/57/1
f 77/3/1 11/3/1 78/6/1
f 11/3/1 13/6/1 78/6/1
f 71/56/1 79/57/1 80/57/1
f 79/57/1 13/6/1 80/57/1
f 73/57/1 79/57/1 71/56/1
f 80/58/46 29/24/25 34/27/20
f 71/56/1 80/57/1 34/56/1
f 80/58/46 81/20/47 29/24/25
f 13/8/3 81/20/47 80/58/46
f 26/20/7 29/24/7 81/20/7
f 13/8/3 82/15/48 81/20/47
f 19/15/7 81/20/7 82/15/7
f 19/15/7 26/20/7 81/20/7
f 19/15/7 82/15/7 14/7/7
f 14/7/2 82/15/48 13/8/3
f 83/5/1 77/3/1 5/3/1
f 83/5/1 7/5/1 77/3/1
f 7/5/1 11/3/1 77/3/1
f 2/2/1 83/5/1 5/3/1
f 2/2/1 7/5/1 83/5/1
f 63/41/1 43/41/1 41/40/1
f 56/53/1 60/39/1 44/39/1
f 56/53/1 84/53/1 54/4/1
f 56/53/1 44/39/1 84/53/1
f 54/4/1 84/53/1 47/53/1
f 84/53/1 44/39/1 42/39/1
f 84/53/1 42/39/1 47/53/1
f 54/4/1 47/53/1 49/4/1
f 24/42/7 39/18/7 25/18/7
f 32/30/24 38/37/34 33/29/23
f 19/15/10 88/14/9 103/59/49
f 19/15/10 92/21/15 26/20/14
f 16/10/7 17/12/7 20/12/7
f 16/10/50 105/60/51 104/61/52
f 21/47/53 107/62/54 106/63/55
f 22/45/56 108/64/54 21/47/53
f 24/42/57 110/65/58 111/66/59
f 112/67/60 23/44/61 24/42/57
f 114/68/62 115/69/63 23/44/61
f 104/61/52 85/70/64 16/10/50
f 117/71/65 20/12/66 118/72/65
f 22/45/56 119/73/63 109/74/67
f 20/12/66 117/71/65 120/75/68
f 86/76/69 18/7/70 85/70/64
f 16/10/50 121/77/51 105/60/51
f 25/18/12 122/78/71 123/79/58
f 23/44/61 113/80/60 114/68/62
f 124/81/72 85/82/72 116/83/72
f 19/15/10 18/7/70 87/13/9
f 87/13/9 18/7/70 86/76/69
f 87/13/9 125/84/9 89/85/9
f 91/17/11 122/78/71 25/18/12
f 87/86/73 126/87/73 125/88/73
f 107/62/54 21/47/53 108/64/54
f 24/42/57 111/66/59 127/89/60
f 24/42/57 127/89/60 112/67/60
f 22/45/56 115/69/63 119/73/63
f 18/7/70 16/10/50 85/70/64
f 21/49/53 106/90/55 128/91/65
f 120/75/68 121/77/51 20/12/66
f 25/18/12 110/65/58 24/42/57
f 124/81/74 87/86/74 85/82/74
f 85/82/75 87/86/75 86/92/75
s 0
f 99/93/76 115/94/76 112/95/76
f 117/96/77 124/97/77 121/98/77
s 1
f 87/13/9 89/85/9 88/14/9
f 94/22/16 27/24/18 26/20/14
f 96/25/19 28/26/78 27/24/18
f 99/33/29 36/34/32 35/30/27
f 35/30/27 28/26/78 100/35/30
f 101/99/19 100/100/30 28/26/78
f 36/34/32 102/36/31 90/16/11
f 19/15/10 103/59/49 92/21/15
f 22/45/56 109/74/67 108/64/54
f 112/67/60 113/80/60 23/44/61
f 104/61/52 116/101/64 85/70/64
f 16/10/50 20/12/66 121/77/51
f 22/45/56 23/44/61 115/69/63
f 128/91/65 118/72/65 20/12/66
f 20/12/66 21/49/53 128/91/65
f 25/18/12 123/79/58 110/65/58
f 124/81/74 126/87/74 87/86/74
s 0
f 123/102/76 122/103/76 91/104/76
f 91/104/76 90/105/76 110/106/76
f 90/105/76 102/107/76 99/93/76
f 99/93/76 97/108/76 98/109/76
f 98/109/76 100/100/76 101/110/76
f 108/111/76 101/110/76 107/112/76
f 101/110/76 128/113/76 107/112/76
f 98/109/76 101/110/76 108/111/76
f 128/113/76 106/114/76 107/112/76
f 108/111/76 109/115/76 119/116/76
f 90/105/76 99/93/76 112/95/76
f 110/106/76 90/105/76 112/95/76
f 110/106/76 123/102/76 91/104/76
f 127/117/76 111/118/76 110/106/76
f 113/119/76 112/95/76 115/94/76
f 112/95/76 127/117/76 110/106/76
f 115/94/76 114/120/76 113/119/76
f 108/111/76 119/116/76 115/94/76
f 98/109/76 108/111/76 115/94/76
f 99/93/76 98/109/76 115/94/76
f 117/96/77 118/121/77 124/97/77
f 118/121/77 128/122/77 126/123/77
f 128/122/77 101/99/77 96/124/77
f 96/124/77 95/125/77 126/123/77
f 95/125/77 94/126/77 126/123/77
f 94/126/77 93/127/77 126/123/77
f 93/127/77 92/128/77 126/123/77
f 92/128/77 103/129/77 126/123/77
f 103/129/77 88/130/77 126/123/77
f 88/130/77 89/131/77 126/123/77
f 89/131/77 125/132/77 126/123/77
f 128/122/77 96/124/77 126/123/77
f 120/133/77 117/96/77 121/98/77
f 118/121/77 126/123/77 124/97/77
f 105/134/77 121/98/77 124/97/77
f 116/135/77 104/136/77 124/97/77
f 104/136/77 105/134/77 124/97/77
s 1
f 96/124/19 101/99/19 28/26/78
