# Blender 4.4.3
# www.blender.org
mtllib kolumna_czesc_podstawa.mtl
o Cylinder.003
v 0.067175 -0.056522 -1.963541
v 1.064665 -0.056522 -1.745768
v -0.930315 -0.056522 -1.745768
v 0.067175 -0.056522 -2.142359
v 2.308514 -0.056522 -0.253825
v 1.145776 -0.056522 -1.906878
v 2.010747 -0.056522 -1.247065
v 1.247165 -0.056522 -2.108263
v 2.193443 -0.056522 -1.386431
v 2.553182 -0.056520 -1.697306
v 2.718588 -0.056522 -0.343356
v 3.167175 -0.056520 -0.454302
v 3.167175 -0.056520 0.925329
v 2.991970 0.920221 -0.403040
v 2.412679 0.920221 -1.553667
v 2.193443 0.920221 -1.386431
v 1.368831 0.920221 -2.349924
v 2.718588 0.920221 -0.343356
v 2.718588 5.519059 -0.343357
v 2.718588 0.920221 0.814375
v 2.193443 5.519059 -1.386431
v 2.010747 5.519059 -1.247066
v 1.247165 5.519059 -2.108263
v 1.247165 0.920221 -2.108263
v 1.145776 5.519059 -1.906878
v 0.067175 5.519059 -2.365886
v 0.067175 5.519059 -2.142360
v 0.067175 0.920221 -2.365885
v -1.112815 5.519059 -2.108263
v -1.112815 0.920221 -2.108263
v -1.011427 5.519059 -1.906878
v -2.059093 5.519059 -1.386431
v -2.059093 0.920221 -1.386431
v -1.876397 5.519059 -1.247066
v -2.584239 5.519059 -0.343357
v -2.584239 0.920221 -0.343356
v -2.356420 5.519059 -0.293620
v -2.584239 5.519059 0.814374
v -2.584239 0.920221 0.814375
v -2.356420 5.519059 0.764638
v -2.059093 5.519059 1.857450
v -1.876397 5.519059 1.718091
v -1.011427 5.519059 2.377896
v -1.112815 5.519059 2.579281
v 2.010747 5.519059 1.718091
v 1.145776 5.519059 2.377896
v 1.247165 5.519059 2.579281
v 0.067175 5.519059 2.613378
v 2.193443 5.519059 1.857450
v 2.193443 0.920221 1.857450
v 2.718588 5.519059 0.814374
v 1.247165 0.920221 2.579282
v 0.067175 0.920221 2.836904
v 1.368831 0.920221 2.820943
v 0.067175 0.920221 3.105123
v 0.067175 -0.056520 3.335508
v -1.234482 0.920221 2.820943
v -1.312455 -0.056520 3.028516
v 1.446805 -0.056520 3.028516
v -1.112815 0.920221 2.579282
v -2.059093 0.920221 1.857450
v 0.067175 5.519059 2.836904
v -2.278329 0.920221 2.024686
v -2.418832 -0.056520 2.168325
v -2.857621 0.920221 0.874059
v -3.032825 -0.056520 0.925329
v -2.584239 -0.056522 0.814375
v -3.032825 -0.056520 -0.454302
v -2.059093 -0.056522 1.857450
v -2.584239 -0.056522 -0.343356
v -2.857621 0.920221 -0.403040
v -2.278329 0.920221 -1.553667
v -2.418832 -0.056520 -1.697306
v -1.234482 0.920221 -2.349924
v -1.312455 -0.056520 -2.557497
v 0.067175 0.920221 -2.634104
v 0.067175 -0.056520 -2.864489
v 1.446805 -0.056520 -2.557497
v 0.067175 -0.056522 -2.365885
v -1.112815 -0.056522 -2.108263
v -1.011427 -0.056522 -1.906878
v -1.876397 -0.056522 -1.247065
v -1.730240 -0.056522 -1.135577
v -2.174164 -0.056522 -0.253825
v -2.174164 -0.056522 0.724844
v -2.356420 -0.056522 -0.293619
v -1.730240 -0.056522 1.606596
v -0.930315 -0.056522 2.216787
v -1.876397 -0.056522 1.718092
v 0.067175 -0.056522 2.434568
v -2.356420 -0.056522 0.764639
v 1.064665 -0.056522 2.216787
v 0.067175 -0.056522 2.613378
v -1.011427 -0.056522 2.377897
v -1.112815 -0.056522 2.579282
v 0.067175 -0.056522 2.836904
v 1.247165 -0.056522 2.579282
v 1.145776 -0.056522 2.377897
v 2.010747 -0.056522 1.718092
v 1.864590 -0.056522 1.606596
v 2.308514 -0.056522 0.724844
v 2.490770 -0.056522 0.764639
v 2.490770 -0.056522 -0.293619
v 2.718588 -0.056522 0.814375
v 2.193443 -0.056522 1.857450
v 2.553182 -0.056520 2.168325
v 2.412679 0.920221 2.024686
v 2.991970 0.920221 0.874059
v 1.864590 -0.056522 -1.135577
v -2.059093 -0.056522 -1.386431
v 2.490770 5.519059 0.764638
v 2.490770 5.519059 -0.293620
vn -0.0000 -1.0000 -0.0000
vn 0.9567 0.1835 -0.2258
vn 0.9561 0.1855 0.2268
vn 0.9561 0.1855 -0.2268
vn 0.7577 0.1983 -0.6218
vn 0.7552 0.2029 -0.6233
vn -0.0000 1.0000 -0.0000
vn 0.4145 0.2182 -0.8835
vn 0.7695 -0.0000 -0.6387
vn 0.9729 -0.0000 -0.2311
vn 0.9729 -0.0000 0.2311
vn 0.4199 -0.0000 -0.9076
vn -0.0000 -0.0000 -1.0000
vn -0.4199 -0.0000 -0.9076
vn -0.7695 -0.0000 -0.6387
vn -0.9729 -0.0000 -0.2311
vn -0.9729 -0.0000 0.2311
vn -0.7695 -0.0000 0.6387
vn 0.7695 -0.0000 0.6387
vn 0.4199 -0.0000 0.9076
vn -0.0000 -0.0000 1.0000
vn 0.4121 0.2218 0.8837
vn -0.0000 0.2274 0.9738
vn -0.0000 0.2296 0.9733
vn -0.4121 0.2218 0.8837
vn -0.4145 0.2182 0.8835
vn 0.4145 0.2182 0.8835
vn -0.4199 -0.0000 0.9076
vn -0.7577 0.1983 0.6218
vn -0.7552 0.2029 0.6234
vn -0.9561 0.1855 0.2268
vn -0.9567 0.1835 0.2258
vn -0.9567 0.1835 -0.2258
vn -0.9561 0.1855 -0.2268
vn -0.7577 0.1983 -0.6218
vn -0.7552 0.2029 -0.6233
vn -0.4145 0.2182 -0.8835
vn -0.4121 0.2218 -0.8837
vn -0.0000 0.2274 -0.9738
vn 0.4121 0.2218 -0.8837
vn -0.0000 0.2296 -0.9733
vn 0.7552 0.2029 0.6234
vn 0.7577 0.1983 0.6218
vn 0.9567 0.1835 0.2258
vt 0.125646 0.330021
vt 0.096037 0.268079
vt 0.123900 0.140470
vt 0.084137 0.270423
vt 0.178377 0.373985
vt 0.116154 0.337401
vt 0.083463 0.197272
vt 0.069261 0.273353
vt 0.068524 0.193326
vt 0.037173 0.187060
vt 0.077818 0.103162
vt 0.102222 0.122396
vt 0.151057 0.046219
vt 0.785714 0.523256
vt 0.714286 0.500000
vt 0.785714 0.500000
vt 0.857143 0.523256
vt 0.857143 0.500000
vt 0.928571 0.523256
vt 0.857143 0.632752
vt 0.785714 0.632752
vt 0.714286 0.523256
vt 0.928571 0.632752
vt 0.902433 0.289970
vt 0.917423 0.294186
vt 0.875840 0.363295
vt 0.924452 0.215359
vt 1.000000 0.632752
vt 0.864423 0.353141
vt 0.807939 0.408997
vt 0.802356 0.394915
vt 0.727168 0.422240
vt 0.071428 0.632752
vt -0.000000 0.632752
vt -0.000000 0.523256
vt 1.000000 0.523256
vt 0.142857 0.632752
vt 0.071428 0.523256
vt 0.728526 0.407021
vt 0.649527 0.400402
vt 0.214286 0.632752
vt 0.142857 0.523256
vt 0.657555 0.387060
vt 0.590391 0.347809
vt 0.285714 0.632752
vt 0.214286 0.523256
vt 0.603501 0.338985
vt 0.561475 0.274875
vt 0.357143 0.632752
vt 0.285714 0.523256
vt 0.583494 0.200264
vt 0.577069 0.272318
vt 0.568504 0.196048
vt 0.610087 0.126940
vt 0.621504 0.137094
vt 0.757401 0.083213
vt 0.758759 0.067994
vt 0.836400 0.089832
vt 0.683571 0.095319
vt 0.828372 0.103175
vt 0.714286 0.632752
vt 0.642857 0.632752
vt 0.642857 0.523256
vt 0.571428 0.523256
vt 0.895536 0.142426
vt 0.571428 0.632752
vt 0.500000 0.523256
vt 0.571428 0.500000
vt 0.500000 0.500000
vt 0.428571 0.500000
vt 0.428571 0.523256
vt 0.500000 0.632752
vt 0.428571 0.632752
vt 0.357143 0.523256
vt 0.677988 0.081238
vt 0.357143 0.500000
vt 0.285714 0.500000
vt 0.321089 0.403903
vt 0.382549 0.356119
vt 0.406953 0.375354
vt 0.416247 0.285190
vt 0.214286 0.500000
vt 0.333714 0.432296
vt 0.447598 0.291456
vt 0.142857 0.500000
vt 0.071428 0.500000
vt 0.928571 0.500000
vt 1.000000 0.500000
vt -0.000000 0.500000
vt 0.037173 0.281296
vt 0.104287 0.346627
vt 0.077818 0.367206
vt 0.166666 0.398635
vt 0.151058 0.427775
vt 0.173172 0.384941
vt 0.243786 0.391265
vt 0.243899 0.403626
vt 0.308917 0.378438
vt 0.389357 0.278086
vt 0.360870 0.338045
vt 0.314327 0.389756
vt 0.359125 0.148495
vt 0.388734 0.210436
vt 0.401308 0.281243
vt 0.370505 0.346078
vt 0.306394 0.104530
vt 0.368617 0.141115
vt 0.400634 0.208093
vt 0.415510 0.205163
vt 0.380483 0.131889
vt 0.447598 0.197220
vt 0.318105 0.079881
vt 0.333713 0.050741
vt 0.311599 0.093575
vt 0.406952 0.111310
vt 0.240985 0.087250
vt 0.240872 0.074890
vt 0.175854 0.100077
vt 0.170444 0.088759
vt 0.114265 0.132438
vt 0.163682 0.074613
vt 0.240729 0.059439
vt 0.242385 0.027511
vt 0.642857 0.500000
vt 0.095414 0.200430
vt 0.244042 0.419077
vt 0.242386 0.451005
vt 0.882426 0.151250
vt 0.908858 0.217916
s 1
usemtl kolumna_czesci
f 1/1/1 2/2/1 5/3/1
f 1/1/1 6/4/1 2/2/1
f 3/5/1 1/1/1 5/3/1
f 3/5/1 4/6/1 1/1/1
f 1/1/1 4/6/1 6/4/1
f 2/2/1 6/4/1 7/7/1
f 4/6/1 8/8/1 6/4/1
f 6/4/1 9/9/1 7/7/1
f 6/4/1 8/8/1 9/9/1
f 9/9/1 10/10/1 12/11/1
f 8/8/1 10/10/1 9/9/1
f 7/7/1 9/9/1 11/12/1
f 9/9/1 12/11/1 11/12/1
f 11/12/1 12/11/1 13/13/1
f 14/14/2 13/15/3 12/16/4
f 15/17/5 14/14/2 12/16/4
f 15/17/5 12/16/4 10/18/6
f 16/17/7 15/17/7 17/19/7
f 18/14/7 15/17/7 16/17/7
f 17/19/8 15/17/5 10/18/6
f 18/14/7 14/14/7 15/17/7
f 21/20/9 19/21/10 18/14/10
f 19/21/10 20/22/11 18/14/10
f 20/22/7 14/14/7 18/14/7
f 21/20/9 18/14/10 16/17/9
f 23/23/12 21/20/9 16/17/9
f 22/24/7 21/25/7 23/26/7
f 22/24/7 19/27/7 21/25/7
f 26/28/13 23/23/12 24/19/12
f 23/23/12 16/17/9 24/19/12
f 25/29/7 23/26/7 26/30/7
f 22/24/7 23/26/7 25/29/7
f 27/31/7 26/30/7 29/32/7
f 25/29/7 26/30/7 27/31/7
f 29/33/14 26/34/13 28/35/13
f 26/28/13 24/19/12 28/36/13
f 32/37/15 29/33/14 30/38/14
f 29/33/14 28/35/13 30/38/14
f 31/39/7 29/32/7 32/40/7
f 27/31/7 29/32/7 31/39/7
f 35/41/16 32/37/15 33/42/15
f 32/37/15 30/38/14 33/42/15
f 34/43/7 32/40/7 35/44/7
f 31/39/7 32/40/7 34/43/7
f 38/45/17 35/41/16 36/46/16
f 35/41/16 33/42/15 36/46/16
f 37/47/7 35/44/7 38/48/7
f 34/43/7 35/44/7 37/47/7
f 41/49/18 38/45/17 39/50/17
f 38/45/17 36/46/16 39/50/17
f 42/51/7 40/52/7 38/48/7
f 37/47/7 38/48/7 40/52/7
f 42/51/7 38/48/7 41/53/7
f 42/51/7 41/53/7 44/54/7
f 42/51/7 44/54/7 43/55/7
f 46/56/7 47/57/7 49/58/7
f 48/59/7 47/57/7 46/56/7
f 46/56/7 49/58/7 45/60/7
f 51/61/11 49/62/19 50/63/19
f 49/62/19 52/64/20 50/63/19
f 45/60/7 49/58/7 51/65/7
f 49/62/19 47/66/20 52/64/20
f 47/66/20 53/67/21 52/64/20
f 52/64/7 53/67/7 55/67/7
f 50/63/7 52/64/7 54/64/7
f 52/64/7 55/67/7 54/64/7
f 59/68/22 55/67/23 56/69/24
f 55/67/23 58/70/25 56/69/24
f 60/71/7 57/71/7 55/67/7
f 55/67/23 57/71/26 58/70/25
f 59/68/22 54/64/27 55/67/23
f 60/71/7 55/67/7 53/67/7
f 62/72/21 44/73/28 60/71/28
f 44/73/28 61/74/18 60/71/28
f 61/74/7 57/71/7 60/71/7
f 62/72/21 60/71/28 53/67/21
f 47/66/20 62/72/21 53/67/21
f 48/59/7 62/75/7 47/57/7
f 43/55/7 62/75/7 48/59/7
f 43/55/7 44/54/7 62/75/7
f 44/73/28 41/49/18 61/74/18
f 41/49/18 39/50/17 61/74/18
f 39/50/7 63/74/7 61/74/7
f 61/74/7 63/74/7 57/71/7
f 57/71/26 63/74/29 64/76/30
f 63/74/29 66/77/31 64/76/30
f 39/50/7 65/50/7 63/74/7
f 63/74/29 65/50/32 66/77/31
f 70/78/1 67/79/1 66/80/1
f 69/81/1 66/80/1 67/79/1
f 66/77/31 71/46/33 68/82/34
f 70/78/1 66/80/1 68/83/1
f 66/77/31 65/50/32 71/46/33
f 69/81/1 64/84/1 66/80/1
f 68/82/34 71/46/33 72/42/35
f 36/46/7 72/42/7 71/46/7
f 36/46/7 71/46/7 65/50/7
f 36/46/7 33/42/7 72/42/7
f 33/42/7 74/38/7 72/42/7
f 73/85/36 72/42/35 74/38/37
f 68/82/34 72/42/35 73/85/36
f 33/42/7 30/38/7 74/38/7
f 30/38/7 76/35/7 74/38/7
f 75/86/38 74/38/37 76/35/39
f 73/85/36 74/38/37 75/86/38
f 30/38/7 28/35/7 76/35/7
f 24/19/7 76/36/7 28/36/7
f 76/36/39 78/87/40 77/88/41
f 75/86/38 76/35/39 77/89/41
f 76/36/39 17/19/8 78/87/40
f 24/19/7 17/19/7 76/36/7
f 8/8/1 78/90/1 10/10/1
f 79/91/1 78/90/1 8/8/1
f 17/19/8 10/18/6 78/87/40
f 79/91/1 77/92/1 78/90/1
f 79/91/1 80/93/1 75/94/1
f 81/95/1 80/93/1 79/91/1
f 4/6/1 79/91/1 8/8/1
f 81/95/1 79/91/1 4/6/1
f 79/91/1 75/94/1 77/92/1
f 3/5/1 81/95/1 4/6/1
f 83/96/1 81/95/1 3/5/1
f 83/96/1 82/97/1 81/95/1
f 82/97/1 80/93/1 81/95/1
f 84/98/1 83/96/1 3/5/1
f 84/98/1 82/97/1 83/96/1
f 87/99/1 85/100/1 84/98/1
f 85/100/1 86/101/1 84/98/1
f 84/98/1 86/101/1 82/97/1
f 87/99/1 84/98/1 5/3/1
f 84/98/1 3/5/1 5/3/1
f 90/102/1 88/103/1 87/99/1
f 88/103/1 89/104/1 87/99/1
f 87/99/1 91/105/1 85/100/1
f 87/99/1 89/104/1 91/105/1
f 90/102/1 87/99/1 5/3/1
f 85/100/1 91/105/1 86/101/1
f 91/105/1 67/79/1 70/78/1
f 89/104/1 67/79/1 91/105/1
f 91/105/1 70/78/1 86/101/1
f 92/106/1 90/102/1 5/3/1
f 92/106/1 93/107/1 90/102/1
f 90/102/1 94/108/1 88/103/1
f 90/102/1 93/107/1 94/108/1
f 88/103/1 94/108/1 89/104/1
f 93/107/1 95/109/1 94/108/1
f 94/108/1 69/81/1 89/104/1
f 94/108/1 95/109/1 69/81/1
f 95/109/1 64/84/1 69/81/1
f 93/107/1 96/110/1 95/109/1
f 96/110/1 58/111/1 95/109/1
f 95/109/1 58/111/1 64/84/1
f 96/110/1 97/112/1 59/113/1
f 98/114/1 97/112/1 96/110/1
f 98/114/1 96/110/1 93/107/1
f 96/110/1 56/115/1 58/111/1
f 96/110/1 59/113/1 56/115/1
f 92/106/1 98/114/1 93/107/1
f 100/116/1 98/114/1 92/106/1
f 100/116/1 99/117/1 98/114/1
f 99/117/1 97/112/1 98/114/1
f 5/3/1 101/118/1 100/116/1
f 101/118/1 99/117/1 100/116/1
f 100/116/1 92/106/1 5/3/1
f 5/3/1 102/119/1 101/118/1
f 101/118/1 102/119/1 99/117/1
f 5/3/1 103/120/1 102/119/1
f 103/120/1 104/121/1 102/119/1
f 99/117/1 102/119/1 104/121/1
f 105/122/1 104/121/1 13/13/1
f 99/117/1 104/121/1 105/122/1
f 103/120/1 11/12/1 104/121/1
f 11/12/1 13/13/1 104/121/1
f 97/112/1 105/122/1 106/123/1
f 105/122/1 13/13/1 106/123/1
f 99/117/1 105/122/1 97/112/1
f 106/124/42 54/64/27 59/68/22
f 97/112/1 106/123/1 59/113/1
f 106/124/42 107/63/43 54/64/27
f 13/15/3 107/63/43 106/124/42
f 50/63/7 54/64/7 107/63/7
f 13/15/3 108/22/44 107/63/43
f 20/22/7 107/63/7 108/22/7
f 20/22/7 50/63/7 107/63/7
f 20/22/7 108/22/7 14/14/7
f 14/14/2 108/22/44 13/15/3
f 109/125/1 103/120/1 5/3/1
f 109/125/1 7/7/1 103/120/1
f 7/7/1 11/12/1 103/120/1
f 2/2/1 109/125/1 5/3/1
f 2/2/1 7/7/1 109/125/1
f 89/104/1 69/81/1 67/79/1
f 82/97/1 86/101/1 70/78/1
f 82/97/1 110/126/1 80/93/1
f 82/97/1 70/78/1 110/126/1
f 80/93/1 110/126/1 73/127/1
f 110/126/1 70/78/1 68/83/1
f 110/126/1 68/83/1 73/127/1
f 80/93/1 73/127/1 75/94/1
f 36/46/7 65/50/7 39/50/7
f 57/71/26 64/76/30 58/70/25
f 19/21/10 51/61/11 20/22/11
f 51/61/11 50/63/19 20/22/11
f 111/128/7 51/65/7 19/27/7
f 45/60/7 51/65/7 111/128/7
f 111/128/7 19/27/7 112/129/7
f 22/24/7 112/129/7 19/27/7
f 16/17/7 17/19/7 24/19/7
f 45/60/7 111/128/7 112/129/7
f 112/129/7 22/24/7 45/60/7
f 22/24/7 25/29/7 45/60/7
f 25/29/7 27/31/7 48/59/7
f 27/31/7 31/39/7 48/59/7
f 31/39/7 34/43/7 42/51/7
f 34/43/7 37/47/7 42/51/7
f 37/47/7 40/52/7 42/51/7
f 42/51/7 43/55/7 31/39/7
f 43/55/7 48/59/7 31/39/7
f 48/59/7 46/56/7 25/29/7
f 46/56/7 45/60/7 25/29/7
