# Blender 4.4.3
# www.blender.org
mtllib kolumna_podstawa.mtl
o Cylinder.003
v 0.551553 -0.022819 -1.594032
v 2.792892 -0.022819 0.115685
v 1.549043 -0.022819 -1.376259
v 1.630154 -0.022819 -1.537369
v -0.445937 -0.022819 -1.376259
v 0.551553 -0.022819 -1.772850
v 1.731543 -0.022819 -1.738754
v 0.551553 -0.022819 -1.996376
v -0.527049 -0.022819 -1.537369
v -0.628437 -0.022819 -1.738754
v -1.245862 -0.022819 -0.766068
v -1.392019 -0.022819 -0.877556
v -1.689787 -0.022819 0.115685
v -1.872043 -0.022819 0.075890
v -2.099861 -0.022819 0.026154
v -1.574716 -0.022819 -1.016922
v -1.934455 -0.022816 -1.327797
v -2.548448 -0.022816 -0.084793
v -2.548448 -0.022816 1.294838
v -2.373243 0.953925 -0.033531
v -1.793951 0.953925 -1.184158
v -2.099861 0.953925 0.026154
v -1.574716 0.953925 -1.016922
v -0.750104 0.953925 -1.980415
v -0.628437 0.953925 -1.738754
v 0.551553 0.953925 -2.264595
v -0.828077 -0.022816 -2.187988
v 0.551553 -0.022816 -2.494980
v 1.931182 -0.022816 -2.187988
v 1.853209 0.953925 -1.980415
v 3.037560 -0.022816 -1.327797
v 2.677820 -0.022819 -1.016922
v 3.651552 -0.022816 -0.084793
v 2.897056 0.953925 -1.184158
v 3.476348 0.953925 -0.033531
v 2.677820 0.953925 -1.016922
v 3.202966 0.953925 0.026154
v 3.202966 0.953925 1.183884
v 3.202966 2.818175 0.026146
v 2.966912 3.021104 -0.442703
v 3.202966 2.732862 0.731056
v 3.202966 3.409092 0.565810
v 3.202966 3.409074 0.562020
v 3.202966 3.408188 0.380844
v 2.600605 2.978877 1.161734
v 2.747585 3.078587 -0.061282
v 2.845001 3.145587 -0.684853
v 1.431404 2.123671 -1.804280
v 1.932391 2.484974 -1.585546
v 1.331270 2.051563 -1.826144
v 2.307063 2.755778 -1.299742
v 2.677820 3.023753 -1.016922
v 1.731543 0.953925 -1.738754
v 0.603667 1.527604 -1.984998
v 0.551553 0.953925 -1.996376
v 0.551553 1.547846 -1.996376
v 0.598104 1.548923 3.196250
v 0.382215 1.613894 -1.959406
v 0.728184 1.642318 3.167850
v 1.731543 2.362712 2.948792
v 1.731543 0.953925 2.948792
v 0.551553 0.953925 3.206413
v 0.551553 0.953925 3.474632
v -0.628437 0.953925 2.948792
v 0.551553 1.567080 3.206413
v -0.378427 1.928304 3.003375
v -0.628437 2.025413 2.948792
v -1.300784 2.285214 2.435918
v 0.104113 1.722364 -1.898686
v -1.152629 2.213594 -1.338897
v -1.574716 2.379072 -1.016916
v -0.864379 2.100586 -1.558776
v -1.852057 2.489058 -0.466053
v -1.745174 2.446671 -0.678352
v -2.057756 2.570632 -0.057471
v -1.920667 2.523178 1.539810
v -2.099861 2.588851 0.437735
v -2.099861 2.587330 0.026158
v -2.099861 0.953925 1.183884
v -2.099861 2.591476 1.147666
v -2.017111 2.560009 1.348245
v -2.099861 2.591609 1.183884
v -1.574716 0.953925 2.226959
v -1.793951 0.953925 2.394196
v -2.373243 0.953925 1.243568
v -0.750104 0.953925 3.190453
v -1.934455 -0.022816 2.537834
v -1.574716 -0.022819 2.226959
v -0.628437 -0.022819 2.948792
v -0.828077 -0.022816 3.398026
v 0.551553 -0.022816 3.705017
v 0.551553 -0.022819 3.206413
v 0.551553 -0.022819 2.982887
v 1.931182 -0.022816 3.398026
v 1.731543 -0.022819 2.948792
v 1.630154 -0.022819 2.747406
v 1.549043 -0.022819 2.586296
v 2.348968 -0.022819 1.976105
v 2.495124 -0.022819 2.087601
v 2.792892 -0.022819 1.094353
v 2.975147 -0.022819 1.134148
v 3.202966 -0.022819 1.183884
v 2.677820 -0.022819 2.226959
v 3.651552 -0.022816 1.294838
v 3.037560 -0.022816 2.537834
v 1.853209 0.953925 3.190453
v 2.897056 0.953925 2.394196
v 2.677820 0.953925 2.226959
v 3.476348 0.953925 1.243568
v 2.677820 3.039604 2.226959
v 2.936978 3.223436 1.712205
v 2.071451 2.605855 2.689505
v 3.202966 3.412112 1.183884
v 3.202966 -0.022819 0.026154
v 2.495124 -0.022819 -0.877556
v 2.975147 -0.022819 0.075890
v 2.348968 -0.022819 -0.766068
v 0.551553 -0.022819 2.804077
v -1.245862 -0.022819 1.976105
v -0.445937 -0.022819 2.586296
v -0.527049 -0.022819 2.747406
v -1.392019 -0.022819 2.087601
v -1.872043 -0.022819 1.134148
v -2.099861 -0.022819 1.183884
v -1.689787 -0.022819 1.094353
v -1.574716 2.391064 2.226959
v -0.628437 2.008085 -1.738750
v 1.731543 2.339806 -1.738751
vn -0.0000 -1.0000 -0.0000
vn -0.9561 0.1855 0.2268
vn -0.9567 0.1835 -0.2258
vn -0.9561 0.1855 -0.2268
vn -0.7577 0.1983 -0.6218
vn -0.7552 0.2029 -0.6233
vn -0.0000 1.0000 -0.0000
vn -0.4145 0.2182 -0.8835
vn -0.4121 0.2218 -0.8837
vn -0.0000 0.2274 -0.9738
vn -0.0000 0.2296 -0.9733
vn 0.4121 0.2218 -0.8837
vn 0.4145 0.2182 -0.8835
vn 0.7552 0.2029 -0.6233
vn 0.7577 0.1983 -0.6218
vn 0.9561 0.1855 -0.2268
vn 0.9567 0.1835 -0.2258
vn 0.9729 -0.0000 -0.2311
vn 0.7695 -0.0000 -0.6387
vn 0.8932 -0.0000 -0.4497
vn 0.9729 -0.0000 0.2311
vn 1.0000 -0.0000 -0.0000
vn 0.9644 -0.0000 -0.2643
vn 0.5237 0.8457 0.1024
vn -0.6353 -0.3555 -0.6855
vn 0.4511 0.8835 0.1262
vn 0.5170 0.8387 0.1709
vn -0.5838 0.8119 -0.0040
vn 0.6065 -0.0000 -0.7951
vn 0.8097 -0.0000 -0.5868
vn 0.2133 -0.0000 -0.9770
vn 0.4199 -0.0000 -0.9076
vn -0.0000 -0.0000 -1.0000
vn -0.0504 -0.0000 -0.9987
vn 0.3627 0.9319 -0.0034
vn 0.3627 0.9319 -0.0035
vn 0.2133 -0.0000 0.9770
vn 0.4199 -0.0000 0.9076
vn 0.4928 -0.0000 0.8701
vn 0.0480 -0.2242 0.9734
vn -0.4199 -0.0000 0.9076
vn -0.0338 0.1176 0.9925
vn -0.2133 -0.0000 0.9770
vn -0.4626 -0.0000 0.8866
vn -0.7923 -0.0000 -0.6101
vn -0.6065 -0.0000 -0.7951
vn -0.7695 -0.0000 -0.6387
vn -0.4199 -0.0000 -0.9076
vn -0.8932 -0.0000 -0.4497
vn -0.9729 -0.0000 -0.2311
vn -1.0000 -0.0000 -0.0000
vn -0.9762 -0.0000 -0.2171
vn -0.9729 -0.0000 0.2311
vn -0.8932 -0.0000 0.4497
vn -0.9759 -0.0000 0.2181
vn -0.7695 -0.0000 0.6387
vn -0.7577 0.1983 0.6218
vn -0.9567 0.1835 0.2258
vn -0.4145 0.2182 0.8835
vn -0.7552 0.2029 0.6234
vn -0.4121 0.2218 0.8837
vn -0.0000 0.2274 0.9738
vn -0.0000 0.2296 0.9733
vn 0.9561 0.1855 0.2268
vn 0.7577 0.1983 0.6218
vn 0.7552 0.2029 0.6233
vn 0.4145 0.2182 0.8835
vn 0.4121 0.2218 0.8837
vn 0.9567 0.1835 0.2258
vn 0.8092 -0.0000 0.5875
vn 0.7695 -0.0000 0.6387
vn 0.8932 -0.0000 0.4497
vn 0.6065 -0.0000 0.7951
vn 0.9785 -0.0000 0.2062
vn -0.5837 0.8119 -0.0039
vn -0.6065 -0.0000 0.7951
vn -0.7918 -0.0000 0.6108
vn -0.4629 -0.0000 -0.8864
vn -0.2133 -0.0000 -0.9770
vn 0.4931 -0.0000 -0.8700
vn -0.5838 0.8119 -0.0039
vt 0.866106 0.027009
vt 0.895725 0.033475
vt 0.932660 0.077777
vt 0.836486 0.033475
vt 0.898134 0.028691
vt 0.866106 0.021699
vt 0.834078 0.028691
vt 0.901145 0.022712
vt 0.866106 0.015062
vt 0.831067 0.022712
vt 0.808393 0.048284
vt 0.812733 0.051595
vt 0.799551 0.077777
vt 0.802968 0.044146
vt 0.794139 0.076596
vt 0.787375 0.075119
vt 0.792286 0.034915
vt 0.774054 0.071824
vt 0.441133 0.889709
vt 0.399835 0.920515
vt 0.396753 0.889709
vt 0.774054 0.112791
vt 0.361398 0.925993
vt 0.353636 0.896715
vt 0.400241 0.929653
vt 0.362828 0.934132
vt 0.324721 0.936630
vt 0.327217 0.943837
vt 0.313330 0.909833
vt 0.290671 0.953288
vt 0.276582 0.927866
vt 0.825139 0.009372
vt 0.866106 0.000256
vt 0.360737 0.615801
vt 0.314728 0.634095
vt 0.336640 0.599020
vt 0.907073 0.009372
vt 0.340455 0.648555
vt 0.296894 0.672783
vt 0.939926 0.034915
vt 0.929243 0.044146
vt 0.958157 0.071824
vt 0.325222 0.684392
vt 0.283956 0.714507
vt 0.314657 0.722082
vt 0.323290 0.723790
vt 0.333225 0.686894
vt 0.388640 0.722032
vt 0.318433 0.762699
vt 0.374472 0.754345
vt 0.380075 0.735190
vt 0.394436 0.751716
vt 0.394448 0.751607
vt 0.448772 0.730301
vt 0.416650 0.747720
vt 0.432437 0.733767
vt 0.394991 0.746394
vt 0.417368 0.774376
vt 0.394894 0.746467
vt 0.445835 0.743160
vt 0.457045 0.728199
vt 0.468070 0.726068
vt 0.514418 0.742284
vt 0.497803 0.733912
vt 0.517309 0.744400
vt 0.482814 0.729984
vt 0.389804 0.690264
vt 0.393314 0.704900
vt 0.393903 0.715690
vt 0.386665 0.675522
vt 0.383295 0.657522
vt 0.347485 0.651893
vt 0.382605 0.654100
vt 0.378918 0.629782
vt 0.536777 0.757574
vt 0.295168 0.959001
vt 0.301610 0.973706
vt 0.300070 0.973783
vt 0.366053 0.620904
vt 0.538156 0.758380
vt 0.541260 0.762542
vt 0.440394 0.865957
vt 0.437567 0.862388
vt 0.347347 0.866896
vt 0.320348 0.840226
vt 0.363313 0.835499
vt 0.414890 0.838893
vt 0.329768 0.876070
vt 0.345634 0.871091
vt 0.323059 0.879579
vt 0.510500 0.944283
vt 0.547244 0.953794
vt 0.542731 0.959538
vt 0.536089 0.974756
vt 0.537468 0.974821
vt 0.508385 0.974302
vt 0.465858 0.881474
vt 0.441247 0.867101
vt 0.500848 0.974687
vt 0.497085 0.888080
vt 0.472474 0.885338
vt 0.564078 0.806232
vt 0.546358 0.769378
vt 0.370436 0.975870
vt 0.355436 0.974076
vt 0.567534 0.821410
vt 0.565046 0.831897
vt 0.345110 0.973742
vt 0.561718 0.795868
vt 0.563485 0.838473
vt 0.381002 0.976065
vt 0.387650 0.976256
vt 0.400193 0.977619
vt 0.560482 0.851129
vt 0.552201 0.862320
vt 0.527660 0.881762
vt 0.413967 0.977531
vt 0.402787 0.977937
vt 0.437878 0.929603
vt 0.559867 0.853719
vt 0.433345 0.978256
vt 0.538978 0.877155
vt 0.533388 0.879690
vt 0.445436 0.977289
vt 0.439473 0.977822
vt 0.434346 0.978330
vt 0.538303 0.877912
vt 0.474852 0.934532
vt 0.476298 0.926441
vt 0.438447 0.921132
vt 0.513008 0.937061
vt 0.484194 0.897103
vt 0.524444 0.910230
vt 0.802968 0.140470
vt 0.792286 0.149701
vt 0.831067 0.161904
vt 0.825139 0.175243
vt 0.561341 0.928267
vt 0.866106 0.169554
vt 0.866106 0.184359
vt 0.866106 0.162916
vt 0.898134 0.155924
vt 0.901145 0.161904
vt 0.907073 0.175243
vt 0.923818 0.136332
vt 0.895725 0.151140
vt 0.919478 0.133021
vt 0.932660 0.106838
vt 0.929243 0.140470
vt 0.938072 0.108020
vt 0.944837 0.109497
vt 0.958157 0.112791
vt 0.939926 0.149701
vt 0.276582 0.759329
vt 0.308091 0.801893
vt 0.276641 0.804789
vt 0.312475 0.841467
vt 0.282908 0.848244
vt 0.316700 0.801830
vt 0.309010 0.761726
vt 0.381092 0.801209
vt 0.386539 0.784918
vt 0.369061 0.822854
vt 0.409226 0.826834
vt 0.398198 0.804825
vt 0.396617 0.787102
vt 0.392954 0.768838
vt 0.391940 0.769317
vt 0.944837 0.075119
vt 0.923818 0.048284
vt 0.938072 0.076596
vt 0.919478 0.051595
vt 0.866106 0.157607
vt 0.836486 0.151140
vt 0.812733 0.133021
vt 0.834078 0.155924
vt 0.808393 0.136332
vt 0.794139 0.108020
vt 0.787375 0.109497
vt 0.799551 0.106838
vt 0.294425 0.889196
vt 0.476634 0.975578
vt 0.466810 0.976678
vt 0.507113 0.889196
vt 0.336609 0.973632
vt 0.559786 0.787384
vt 0.314841 0.973059
vt 0.306617 0.973461
vt 0.385537 0.667607
vt 0.505811 0.735986
s 1
usemtl kolumna_z_czesci
f 1/1/1 3/2/1 2/3/1
f 5/4/1 1/1/1 2/3/1
f 1/1/1 4/5/1 3/2/1
f 1/1/1 6/6/1 4/5/1
f 5/4/1 6/6/1 1/1/1
f 5/4/1 9/7/1 6/6/1
f 6/6/1 7/8/1 4/5/1
f 6/6/1 8/9/1 7/8/1
f 9/7/1 8/9/1 6/6/1
f 9/7/1 10/10/1 8/9/1
f 12/11/1 10/10/1 9/7/1
f 11/12/1 9/7/1 5/4/1
f 11/12/1 12/11/1 9/7/1
f 13/13/1 12/11/1 11/12/1
f 12/11/1 16/14/1 10/10/1
f 13/13/1 14/15/1 12/11/1
f 12/11/1 14/15/1 15/16/1
f 12/11/1 15/16/1 16/14/1
f 10/10/1 16/14/1 17/17/1
f 16/14/1 15/16/1 18/18/1
f 16/14/1 18/18/1 17/17/1
f 19/19/2 20/20/3 18/21/4
f 15/16/1 19/22/1 18/18/1
f 18/21/4 20/20/3 21/23/5
f 18/21/4 21/23/5 17/24/6
f 22/25/7 21/23/7 20/20/7
f 22/25/7 23/26/7 21/23/7
f 23/26/7 24/27/7 21/23/7
f 17/24/6 21/23/5 24/27/8
f 23/26/7 25/28/7 24/27/7
f 17/24/6 24/27/8 27/29/9
f 25/28/7 26/30/7 24/27/7
f 27/29/9 24/27/8 26/30/10
f 27/29/9 26/30/10 28/31/11
f 10/10/1 17/17/1 27/32/1
f 8/9/1 27/32/1 28/33/1
f 8/9/1 10/10/1 27/32/1
f 26/34/10 29/35/12 28/36/11
f 8/9/1 28/33/1 29/37/1
f 26/34/10 30/38/13 29/35/12
f 30/38/13 31/39/14 29/35/12
f 7/8/1 29/37/1 31/40/1
f 8/9/1 29/37/1 7/8/1
f 32/41/1 31/40/1 33/42/1
f 7/8/1 31/40/1 32/41/1
f 34/43/15 33/44/16 31/39/14
f 30/38/13 34/43/15 31/39/14
f 34/43/15 35/45/17 33/44/16
f 37/46/7 35/45/7 34/43/7
f 36/47/7 34/43/7 30/38/7
f 37/46/7 34/43/7 36/47/7
f 37/46/18 36/47/19 40/48/20
f 38/49/7 35/45/7 37/46/7
f 38/49/21 37/46/18 41/50/22
f 39/51/23 37/46/18 40/48/20
f 41/50/22 37/46/18 39/51/23
f 41/50/22 42/52/22 38/49/21
f 41/50/22 43/53/22 42/52/22
f 40/54/24 41/55/24 39/56/24
f 41/50/22 44/57/22 43/53/22
f 41/55/25 45/58/25 44/59/25
f 46/60/26 45/58/26 41/55/26
f 46/60/26 41/55/26 40/54/26
f 46/60/27 40/54/27 47/61/27
f 47/61/28 52/62/28 46/60/28
f 48/63/28 46/60/28 49/64/28
f 48/63/28 50/65/28 46/60/28
f 51/66/28 49/64/28 46/60/28
f 50/65/28 45/58/28 46/60/28
f 52/62/28 51/66/28 46/60/28
f 36/47/19 51/67/29 52/68/30
f 52/68/30 40/48/20 36/47/19
f 52/68/30 47/69/20 40/48/20
f 36/47/19 49/70/29 51/67/29
f 48/71/31 53/72/32 50/73/31
f 54/74/31 50/73/31 53/72/32
f 50/65/28 54/75/28 45/58/28
f 55/76/33 56/77/34 54/78/31
f 53/72/32 55/79/33 54/74/31
f 54/75/35 56/80/36 58/81/35
f 57/82/35 54/75/35 58/81/35
f 54/75/28 57/82/28 59/83/28
f 54/75/28 59/83/28 45/58/28
f 59/84/37 61/85/38 60/86/39
f 59/83/28 60/87/28 45/58/28
f 59/84/37 62/88/40 61/85/38
f 59/84/37 57/89/37 62/88/40
f 61/85/7 62/88/7 63/90/7
f 64/91/7 63/92/7 62/93/7
f 64/91/41 62/93/40 65/94/42
f 57/95/37 65/94/42 62/93/40
f 64/91/41 65/94/42 66/96/43
f 66/97/35 65/98/36 57/82/35
f 67/99/44 64/91/41 66/96/43
f 68/100/35 67/101/35 66/97/35
f 68/100/35 66/97/35 70/102/35
f 66/97/35 57/82/35 69/103/35
f 66/97/35 69/103/35 70/102/35
f 71/104/45 70/105/46 23/26/47
f 70/102/35 71/106/35 74/107/35
f 25/28/48 23/26/47 70/105/46
f 25/28/48 70/105/46 72/108/46
f 69/103/35 72/109/35 70/102/35
f 68/100/35 70/102/35 73/110/35
f 74/107/35 73/110/35 70/102/35
f 23/26/47 74/111/49 71/104/45
f 73/112/49 74/111/49 23/26/47
f 73/112/49 23/26/47 22/25/50
f 22/25/50 75/113/49 73/112/49
f 73/110/35 75/114/35 77/115/35
f 76/116/35 68/100/35 73/110/35
f 77/115/35 76/116/35 73/110/35
f 22/25/50 77/117/51 78/118/52
f 79/119/53 77/117/51 22/25/50
f 75/114/35 78/120/35 77/115/35
f 79/119/53 80/121/51 77/117/51
f 77/115/35 80/122/35 81/123/35
f 81/123/35 76/116/35 77/115/35
f 76/124/54 81/125/54 79/119/53
f 81/125/54 82/126/55 79/119/53
f 80/122/35 82/127/35 81/123/35
f 79/119/53 82/126/55 80/121/51
f 83/128/56 76/124/54 79/119/53
f 79/119/7 84/129/7 83/128/7
f 79/119/7 85/130/7 84/129/7
f 22/25/7 85/130/7 79/119/7
f 84/129/57 85/130/58 19/19/2
f 19/19/2 85/130/58 20/20/3
f 22/25/7 20/20/7 85/130/7
f 83/128/7 84/129/7 86/131/7
f 86/131/59 84/129/57 87/132/60
f 84/129/57 19/19/2 87/132/60
f 86/131/59 87/132/60 90/133/61
f 88/134/1 87/135/1 19/22/1
f 89/136/1 87/135/1 88/134/1
f 89/136/1 90/137/1 87/135/1
f 63/92/62 90/133/61 91/138/63
f 63/92/62 86/131/59 90/133/61
f 92/139/1 91/140/1 90/137/1
f 92/139/1 90/137/1 89/136/1
f 93/141/1 92/139/1 89/136/1
f 96/142/1 92/139/1 93/141/1
f 92/139/1 95/143/1 94/144/1
f 92/139/1 94/144/1 91/140/1
f 96/142/1 95/143/1 92/139/1
f 99/145/1 95/143/1 96/142/1
f 97/146/1 96/142/1 93/141/1
f 98/147/1 96/142/1 97/146/1
f 98/147/1 99/145/1 96/142/1
f 100/148/1 99/145/1 98/147/1
f 99/145/1 103/149/1 95/143/1
f 100/148/1 101/150/1 99/145/1
f 99/145/1 101/150/1 102/151/1
f 99/145/1 102/151/1 103/149/1
f 103/149/1 102/151/1 104/152/1
f 103/149/1 104/152/1 105/153/1
f 95/143/1 103/149/1 105/153/1
f 95/143/1 105/153/1 94/144/1
f 104/154/64 107/155/65 105/156/66
f 105/156/66 106/157/67 94/158/68
f 105/156/66 107/155/65 106/157/67
f 108/159/7 106/157/7 107/155/7
f 104/154/64 109/160/69 107/155/65
f 38/49/7 108/159/7 107/155/7
f 38/49/7 107/155/7 109/160/7
f 35/45/17 109/160/69 104/154/64
f 38/49/7 109/160/7 35/45/7
f 110/161/70 108/159/71 111/162/72
f 112/163/73 108/159/71 110/161/70
f 38/49/21 111/162/72 108/159/71
f 112/163/73 61/85/38 108/159/71
f 108/159/7 61/85/7 106/157/7
f 112/164/28 110/165/28 45/58/28
f 60/86/39 61/85/38 112/163/73
f 60/87/28 112/164/28 45/58/28
f 110/165/28 111/166/28 45/58/28
f 38/49/21 113/167/74 111/162/72
f 111/166/28 113/168/28 45/58/28
f 38/49/21 42/52/22 113/167/74
f 113/168/28 42/52/75 45/58/28
f 61/85/7 63/90/7 106/157/7
f 94/158/68 106/157/67 63/90/62
f 114/169/1 33/42/1 104/152/1
f 114/169/1 104/152/1 102/151/1
f 35/45/17 104/154/64 33/44/16
f 115/170/1 32/41/1 114/169/1
f 115/170/1 114/169/1 116/171/1
f 32/41/1 33/42/1 114/169/1
f 116/171/1 114/169/1 102/151/1
f 2/3/1 116/171/1 101/150/1
f 117/172/1 116/171/1 2/3/1
f 116/171/1 102/151/1 101/150/1
f 117/172/1 115/170/1 116/171/1
f 3/2/1 117/172/1 2/3/1
f 3/2/1 115/170/1 117/172/1
f 3/2/1 4/5/1 115/170/1
f 4/5/1 32/41/1 115/170/1
f 2/3/1 101/150/1 100/148/1
f 2/3/1 100/148/1 98/147/1
f 98/147/1 97/146/1 2/3/1
f 97/146/1 118/173/1 2/3/1
f 97/146/1 93/141/1 118/173/1
f 118/173/1 120/174/1 119/175/1
f 118/173/1 119/175/1 2/3/1
f 118/173/1 121/176/1 120/174/1
f 118/173/1 93/141/1 121/176/1
f 120/174/1 121/176/1 122/177/1
f 93/141/1 89/136/1 121/176/1
f 121/176/1 88/134/1 122/177/1
f 121/176/1 89/136/1 88/134/1
f 120/174/1 122/177/1 119/175/1
f 119/175/1 122/177/1 123/178/1
f 122/177/1 124/179/1 123/178/1
f 122/177/1 88/134/1 124/179/1
f 15/16/1 124/179/1 19/22/1
f 123/178/1 124/179/1 15/16/1
f 88/134/1 19/22/1 124/179/1
f 119/175/1 123/178/1 125/180/1
f 125/180/1 123/178/1 14/15/1
f 123/178/1 15/16/1 14/15/1
f 119/175/1 125/180/1 13/13/1
f 125/180/1 14/15/1 13/13/1
f 119/175/1 13/13/1 2/3/1
f 94/158/68 63/90/62 91/181/63
f 64/91/7 86/131/7 63/92/7
f 83/128/7 86/131/7 64/91/7
f 68/182/76 83/128/56 64/91/41
f 126/183/77 83/128/56 68/182/76
f 83/128/56 126/183/77 76/124/54
f 76/116/35 126/184/35 68/100/35
f 22/25/50 78/118/52 75/113/49
f 25/28/48 72/108/46 127/185/78
f 69/103/35 127/186/35 72/109/35
f 25/28/48 127/185/78 69/187/79
f 25/28/48 69/187/79 55/76/33
f 58/188/79 55/76/33 69/187/79
f 69/103/35 57/82/35 58/81/35
f 68/182/76 64/91/41 67/99/44
f 55/76/33 58/188/79 56/77/34
f 25/28/7 55/76/7 26/30/7
f 53/72/7 26/34/7 55/79/7
f 53/72/7 30/38/7 26/34/7
f 36/47/7 30/38/7 53/72/7
f 36/47/19 53/72/32 49/70/29
f 53/72/32 48/71/31 128/189/80
f 128/189/80 49/70/29 53/72/32
f 128/190/28 48/63/28 49/64/28
f 43/53/81 44/59/28 45/58/28
f 42/52/75 43/53/81 45/58/28
f 4/5/1 7/8/1 32/41/1
f 13/13/1 11/12/1 5/4/1
f 13/13/1 5/4/1 2/3/1
