# Blender 4.4.3
# www.blender.org
mtllib kolumna_podstawa.mtl
o Cylinder.005
v 1.363096 3.364698 1.486793
v 0.561398 4.606948 -2.184891
v -2.070545 2.859783 0.412864
v 0.258715 -0.022819 -1.944398
v 1.256205 -0.022819 -1.726624
v -0.738775 -0.022819 -1.726624
v 0.258715 -0.022819 -2.123215
v 2.500054 -0.022819 -0.234681
v 1.337316 -0.022819 -1.887734
v 2.202286 -0.022819 -1.227921
v 1.438705 -0.022819 -2.089120
v 2.384983 -0.022819 -1.367287
v 2.744722 -0.022816 -1.678162
v 2.910128 -0.022819 -0.324212
v 3.358715 -0.022816 -0.435158
v 3.358715 -0.022816 0.944473
v 3.183510 0.953925 -0.383896
v 2.604218 0.953925 -1.534524
v 2.384983 0.953925 -1.367287
v 1.560371 0.953925 -2.330781
v 2.910128 0.953925 -0.324212
v 2.910128 0.953925 0.833518
v 1.438705 0.953925 -2.089120
v 0.258715 0.953925 -2.346741
v -0.921275 0.953925 -2.089120
v -1.867553 0.953925 -1.367287
v -2.392699 0.953925 -0.324212
v -2.392699 0.953925 0.833518
v -1.867553 5.552763 1.876594
v -1.684857 5.552763 1.737235
v -0.819887 5.552763 2.397041
v -0.921275 5.552763 2.598426
v -0.819887 6.083232 2.397041
v 2.202286 5.552763 1.737235
v 1.337316 5.552763 2.397041
v 1.438705 5.552763 2.598426
v 0.258715 5.552763 2.632522
v 2.384983 5.552763 1.876594
v 2.384983 0.953925 1.876594
v 1.438705 0.953925 2.598426
v 0.258715 0.953925 2.856048
v 1.560371 0.953925 2.840087
v 0.258715 0.953925 3.124267
v 0.258715 -0.022816 3.354652
v -1.042942 0.953925 2.840087
v -1.120915 -0.022816 3.047660
v 1.638345 -0.022816 3.047660
v -0.921275 0.953925 2.598426
v -1.867553 0.953925 1.876594
v 0.258715 5.552763 2.856048
v -2.086789 0.953925 2.043830
v -2.227293 -0.022816 2.187469
v -2.666081 0.953925 0.893203
v -2.841285 -0.022816 0.944473
v -2.392699 -0.022819 0.833518
v -2.841285 -0.022816 -0.435158
v -1.867553 -0.022819 1.876594
v -2.392699 -0.022819 -0.324212
v -2.666081 0.953925 -0.383896
v -2.086789 0.953925 -1.534524
v -2.227293 -0.022816 -1.678162
v -1.042942 0.953925 -2.330781
v -1.120915 -0.022816 -2.538354
v 0.258715 0.953925 -2.614960
v 0.258715 -0.022816 -2.845345
v 1.638345 -0.022816 -2.538354
v 0.258715 -0.022819 -2.346741
v -0.921275 -0.022819 -2.089120
v -0.819887 -0.022819 -1.887734
v -1.684857 -0.022819 -1.227921
v -1.538700 -0.022819 -1.116433
v -1.982625 -0.022819 -0.234681
v -1.982625 -0.022819 0.743987
v -2.164880 -0.022819 -0.274476
v -1.538700 -0.022819 1.625739
v -0.738775 -0.022819 2.235931
v -1.684857 -0.022819 1.737235
v 0.258715 -0.022819 2.453712
v -2.164880 -0.022819 0.783782
v 1.256205 -0.022819 2.235931
v 0.258715 -0.022819 2.632522
v -0.819887 -0.022819 2.397041
v -0.921275 -0.022819 2.598426
v 0.258715 -0.022819 2.856048
v 1.438705 -0.022819 2.598426
v 1.337316 -0.022819 2.397041
v 2.202286 -0.022819 1.737235
v 2.056130 -0.022819 1.625739
v 2.500054 -0.022819 0.743987
v 2.682310 -0.022819 0.783782
v 2.682310 -0.022819 -0.274476
v 2.910128 -0.022819 0.833518
v 2.384983 -0.022819 1.876594
v 2.744722 -0.022816 2.187469
v 2.604218 0.953925 2.043830
v 3.183510 0.953925 0.893203
v 2.056130 -0.022819 -1.116433
v -1.867553 -0.022819 -1.367287
v 2.685334 4.841424 -0.770714
v 2.674075 3.021104 -0.793069
v 2.384983 3.316295 -1.367287
v 1.748242 3.807747 -1.852997
v 1.807117 3.762306 -1.808091
v 2.910128 4.092151 -0.324212
v 2.910128 2.818176 -0.324219
v 2.910128 2.732862 0.380691
v 1.438705 3.915842 -2.089112
v 0.543282 4.443704 -2.284608
v 0.380302 4.339253 -2.320199
v 0.258715 4.189719 -2.346741
v -0.398678 3.516017 -2.203217
v -0.921275 2.980456 -2.089112
v -1.281289 2.703564 -1.814499
v -1.867553 2.804818 -1.367280
v -2.085129 2.859301 -0.935128
v -2.341404 2.923474 -0.426087
v -2.293766 5.552763 1.030021
v -2.169149 5.292784 1.277542
v -2.392699 5.204452 0.833518
v -2.392699 5.181373 0.740020
v -2.392699 4.029766 -0.058762
v -2.392699 3.477774 -0.324204
v -1.080599 4.861793 0.197977
v -0.961926 4.834167 0.065585
v -0.952678 4.879465 -0.149977
v 2.910128 5.078596 -0.205682
v -2.191882 5.553026 1.075845
v -2.212369 5.552763 1.063746
v -1.943088 5.556185 1.224321
v -0.979207 6.083232 2.275510
v -1.684857 5.947556 1.737235
v -0.742660 6.083232 2.413901
v -0.188348 5.863361 2.534919
v -0.823401 6.083232 2.366664
v -0.768996 6.083232 2.398493
v -0.808872 6.083232 2.375164
v -0.796063 6.083232 2.382658
v 2.213025 5.564631 1.715905
v 2.202286 5.569777 1.737235
v 1.514212 5.661250 2.262103
v 1.337316 5.684766 2.397041
v 0.490684 5.666848 2.581878
v 2.534419 5.552763 1.579775
v 2.890635 5.382060 0.872236
v 2.263401 5.552763 1.659210
v 2.910128 5.372719 0.833518
v 2.237790 5.552763 1.666716
v 0.285781 5.662512 2.626613
v 0.258715 5.686031 2.632522
v 2.385741 5.101943 0.030502
v 2.473063 5.037134 -0.224075
v 2.508677 5.092479 -0.482609
v 2.652897 5.129535 -0.631721
v 2.910128 5.076144 -0.324212
v 2.775365 5.126320 -0.591887
v -1.856779 5.175509 0.922867
v -2.166683 5.446670 0.992257
v -2.262220 5.530116 1.013917
v -2.288190 5.552763 1.019871
v -2.211890 5.486225 1.002380
v -1.154412 4.822793 0.081817
v -1.209219 4.839971 0.158571
v -2.249033 5.150476 0.670236
v -1.307262 4.822568 0.125819
v -2.170185 4.835778 0.425416
v 1.902656 5.202776 0.528361
v 2.910128 5.062959 -0.260931
v 2.720251 5.146841 -0.701358
v 2.701795 5.142099 -0.682279
vn 0.4313 0.8790 0.2032
vn -0.3605 0.9327 0.0036
vn 0.0920 0.9667 -0.2386
vn 0.9451 0.1416 -0.2944
vn -0.0000 -1.0000 -0.0000
vn 0.9567 0.1835 -0.2258
vn 0.9561 0.1855 0.2268
vn 0.9561 0.1855 -0.2268
vn 0.7577 0.1983 -0.6218
vn 0.7552 0.2029 -0.6233
vn -0.0000 1.0000 -0.0000
vn 0.4145 0.2182 -0.8835
vn 1.0000 -0.0000 -0.0000
vn 0.9729 -0.0000 0.2311
vn -0.8932 -0.0000 0.4497
vn -0.9729 -0.0000 0.2311
vn -0.7695 -0.0000 0.6387
vn -0.0028 1.0000 0.0022
vn -0.2257 0.9668 0.1201
vn -0.0206 0.9996 0.0166
vn -0.4988 0.7613 0.4143
vn -0.6065 -0.0000 0.7951
vn -0.7271 -0.0000 0.6866
vn -0.4199 -0.0000 0.9076
vn -0.2133 -0.0000 0.9770
vn 0.7539 -0.0000 0.6570
vn 0.7695 -0.0000 0.6387
vn 0.8932 -0.0000 0.4497
vn 0.6065 -0.0000 0.7951
vn 0.4142 -0.0000 0.9102
vn 0.4199 -0.0000 0.9076
vn 0.2133 -0.0000 0.9770
vn -0.0000 -0.0000 1.0000
vn 0.4121 0.2218 0.8837
vn -0.0000 0.2274 0.9738
vn -0.0000 0.2296 0.9733
vn -0.4121 0.2218 0.8837
vn -0.4145 0.2182 0.8835
vn 0.4145 0.2182 0.8835
vn -0.7577 0.1983 0.6218
vn -0.7552 0.2029 0.6234
vn -0.9561 0.1855 0.2268
vn -0.9567 0.1835 0.2258
vn -0.9567 0.1835 -0.2258
vn -0.9561 0.1855 -0.2268
vn -0.7577 0.1983 -0.6218
vn -0.7552 0.2029 -0.6233
vn -0.4145 0.2182 -0.8835
vn -0.4121 0.2218 -0.8837
vn -0.0000 0.2274 -0.9738
vn 0.4121 0.2218 -0.8837
vn -0.0000 0.2296 -0.9733
vn 0.7552 0.2029 0.6234
vn 0.7577 0.1983 0.6218
vn 0.9567 0.1835 0.2258
vn 0.9635 -0.0000 0.2676
vn -0.0832 -0.0000 0.9965
vn -0.8961 -0.3925 -0.2075
vn 0.6065 -0.0000 -0.7951
vn 0.7235 -0.0000 -0.6903
vn 0.7695 -0.0000 -0.6387
vn -0.2133 -0.0000 -0.9770
vn 0.1116 -0.0000 -0.9938
vn -0.0000 -0.0000 -1.0000
vn -0.3390 -0.0000 -0.9408
vn -0.4199 -0.0000 -0.9076
vn -0.9995 -0.0000 -0.0317
vn -0.9729 -0.0000 -0.2311
vn -1.0000 -0.0000 -0.0000
vn -0.8932 -0.0000 -0.4497
vn -0.7695 -0.0000 -0.6387
vn -0.6065 -0.0000 -0.7951
vn -0.7811 -0.0000 -0.6244
vn -0.7275 0.2300 -0.6465
vn 0.8932 -0.0000 -0.4497
vn 0.4199 -0.0000 -0.9076
vn 0.2133 -0.0000 -0.9770
vn 0.3723 -0.0000 -0.9281
vn 0.9644 -0.0000 -0.2643
vn 0.9729 -0.0000 -0.2311
vn 0.9660 -0.0000 -0.2587
vn -0.9650 -0.0000 0.2624
vn 0.4295 0.4356 -0.7911
vn 0.5170 0.8387 0.1709
vn -0.6585 -0.6600 -0.3617
vn -0.7595 0.2534 -0.5991
vn -0.7142 0.6335 -0.2975
vn -0.5953 0.4373 -0.6740
vn -0.5689 0.7301 -0.3785
vn 0.2375 0.9714 -0.0029
vn 0.3476 -0.2666 -0.8989
vn -0.2665 0.5493 -0.7920
vn 0.1512 -0.4916 -0.8576
vn 0.9966 -0.0000 -0.0827
vn -0.6353 -0.3555 -0.6855
vn -0.7246 -0.1392 -0.6749
vn -0.7274 0.2300 -0.6465
vn 0.2134 -0.0001 -0.9770
vn 0.6065 0.0001 -0.7951
vn -0.1556 0.5275 -0.8352
vn 0.5816 0.6755 -0.4532
vn 0.4511 0.8835 0.1262
vn 0.5237 0.8457 0.1024
vn 0.3908 0.6256 -0.6752
vn 0.3947 0.6237 -0.6747
vn -0.0796 0.9592 -0.2715
vn -0.0406 0.9782 0.2038
vn -0.6581 -0.6593 -0.3637
vn 0.3907 0.6256 -0.6753
vn 0.3908 0.6256 -0.6753
vn 0.3947 0.6237 -0.6746
vn 0.3947 0.6238 -0.6746
vt 0.431957 0.489165
vt 0.554256 0.540271
vt 0.436337 0.505994
vt 0.385366 0.623241
vt 0.354475 0.553209
vt 0.372744 0.515686
vt 0.286466 0.467102
vt 0.281144 0.464730
vt 0.264090 0.455292
vt 0.338990 0.516722
vt 0.329734 0.495832
vt 0.705131 0.172547
vt 0.717245 0.117062
vt 0.800234 0.047873
vt 0.708283 0.112550
vt 0.717245 0.228032
vt 0.695184 0.172547
vt 0.744985 0.064436
vt 0.697081 0.106911
vt 0.737233 0.054274
vt 0.719940 0.034264
vt 0.789082 0.000110
vt 0.795254 0.025063
vt 0.865824 0.000110
vt 0.571896 0.800160
vt 0.654795 0.842340
vt 0.575489 0.854674
vt 0.478299 0.822804
vt 0.478181 0.875881
vt 0.478857 0.808763
vt 0.364297 0.828485
vt 0.572552 0.784207
vt 0.633114 0.607068
vt 0.618705 0.399035
vt 0.649748 0.772555
vt 0.258854 0.433344
vt 0.070541 0.405055
vt 0.283729 0.403853
vt 0.273673 0.438758
vt 0.295734 0.430360
vt 0.275614 0.438272
vt 0.268148 0.441552
vt 0.295101 0.405461
vt 0.322043 0.357358
vt 0.338770 0.381188
vt 0.311949 0.409648
vt 0.329692 0.362041
vt 0.344368 0.374280
vt 0.347326 0.372799
vt 0.344650 0.375730
vt 0.346378 0.373661
vt 0.345288 0.375005
vt 0.345378 0.374559
vt 0.534427 0.335365
vt 0.534773 0.334500
vt 0.536548 0.335836
vt 0.476018 0.335396
vt 0.462674 0.334431
vt 0.460524 0.329329
vt 0.457527 0.319800
vt 0.540660 0.323602
vt 0.395813 0.342251
vt 0.415162 0.345572
vt 0.642563 0.337053
vt 0.385077 0.089681
vt 0.314699 0.117609
vt 0.542711 0.336091
vt 0.568053 0.329957
vt 0.239256 0.159033
vt 0.229639 0.148860
vt 0.306948 0.105498
vt 0.280301 0.058653
vt 0.196683 0.107147
vt 0.113647 0.178939
vt 0.165920 0.220038
vt 0.153878 0.213025
vt 0.387452 0.332921
vt 0.105553 0.306584
vt 0.092317 0.302090
vt 0.045569 0.278765
vt 0.005018 0.395667
vt 0.056673 0.403934
vt 0.795254 0.320032
vt 0.859652 0.320032
vt 0.865824 0.344984
vt 0.917673 0.290821
vt 0.051111 0.512144
vt 0.000110 0.521050
vt 0.789082 0.344984
vt 0.934965 0.310831
vt 0.075871 0.626791
vt 0.064903 0.509510
vt 0.088147 0.622258
vt 0.139801 0.728415
vt 0.030221 0.650050
vt 0.149631 0.720098
vt 0.239032 0.802060
vt 0.103891 0.765105
vt 0.244164 0.790633
vt 0.366653 0.815218
vt 0.354453 0.880153
vt 0.217266 0.848053
vt 0.672092 0.095806
vt 0.682751 0.172547
vt 0.655016 0.172547
vt 0.697081 0.238184
vt 0.672092 0.249289
vt 0.708283 0.232544
vt 0.751186 0.272528
vt 0.744985 0.280658
vt 0.800234 0.297221
vt 0.903719 0.272528
vt 0.854672 0.297221
vt 0.798020 0.307359
vt 0.949775 0.172547
vt 0.937661 0.228032
vt 0.909921 0.280658
vt 0.856885 0.307359
vt 0.937661 0.117062
vt 0.959721 0.172547
vt 0.946623 0.232544
vt 0.957825 0.238184
vt 0.972155 0.172547
vt 0.982813 0.249289
vt 0.957825 0.106911
vt 0.982813 0.095806
vt 0.946623 0.112550
vt 0.999890 0.172547
vt 0.903719 0.072566
vt 0.909921 0.064436
vt 0.854672 0.047873
vt 0.856886 0.037735
vt 0.798020 0.037735
vt 0.859652 0.025063
vt 0.917673 0.054274
vt 0.934965 0.034264
vt 0.356372 0.026909
vt 0.378463 0.076024
vt 0.426277 0.000110
vt 0.443178 0.049868
vt 0.445243 0.064173
vt 0.649532 0.788913
vt 0.751186 0.072566
vt 0.737233 0.290821
vt 0.719940 0.310831
vt 0.654795 0.341498
vt 0.540462 0.336672
vt 0.404761 0.350629
vt 0.402037 0.350392
vt 0.377493 0.359595
vt 0.611479 0.476365
vt 0.571187 0.407565
vt 0.580846 0.411667
vt 0.455690 0.686467
vt 0.501131 0.686664
vt 0.237804 0.661161
vt 0.279495 0.670267
vt 0.203533 0.655205
vt 0.177297 0.522111
vt 0.243499 0.465454
vt 0.159523 0.564352
vt 0.180860 0.637629
vt 0.166757 0.593562
vt 0.598786 0.416580
vt 0.601857 0.426587
vt 0.591503 0.414551
vt 0.543525 0.674653
vt 0.295915 0.667228
vt 0.406114 0.687075
vt 0.580272 0.655360
vt 0.615185 0.403656
vt 0.605166 0.414069
vt 0.245858 0.460093
vt 0.430390 0.635316
vt 0.408200 0.686108
vt 0.422760 0.639893
vt 0.280653 0.442845
vt 0.325020 0.446125
vt 0.268475 0.441725
vt 0.271405 0.441664
vt 0.420736 0.481042
vt 0.418017 0.637285
vt 0.411902 0.636568
vt 0.362984 0.611767
vt 0.353779 0.570702
vt 0.355467 0.598868
vt 0.354735 0.532617
vt 0.303413 0.462300
vt 0.412413 0.472504
vt 0.404422 0.473426
vt 0.329588 0.468157
vt 0.422098 0.470622
vt 0.542020 0.400177
vt 0.617003 0.401401
vt 0.269118 0.441400
vt 0.627775 0.604173
vt 0.154242 0.526903
vt 0.602295 0.417381
vt 0.601088 0.417086
vt 0.456166 0.683205
vt 0.458284 0.685063
vt 0.459312 0.684610
vt 0.580417 0.654444
vt 0.276310 0.442235
s 0
usemtl kolumna_podstawa
f 124/1/1 1/2/1 125/3/1
f 111/4/2 115/5/2 3/6/2
f 120/7/3 119/8/3 118/9/3
f 3/6/4 122/10/4 121/11/4
s 1
f 4/12/5 5/13/5 8/14/5
f 4/12/5 9/15/5 5/13/5
f 6/16/5 4/12/5 8/14/5
f 6/16/5 7/17/5 4/12/5
f 4/12/5 7/17/5 9/15/5
f 5/13/5 9/15/5 10/18/5
f 7/17/5 11/19/5 9/15/5
f 9/15/5 12/20/5 10/18/5
f 9/15/5 11/19/5 12/20/5
f 12/20/5 13/21/5 15/22/5
f 11/19/5 13/21/5 12/20/5
f 10/18/5 12/20/5 14/23/5
f 12/20/5 15/22/5 14/23/5
f 14/23/5 15/22/5 16/24/5
f 17/25/6 16/26/7 15/27/8
f 18/28/9 17/25/6 15/27/8
f 18/28/9 15/27/8 13/29/10
f 19/30/11 18/28/11 20/31/11
f 21/32/11 18/28/11 19/30/11
f 20/31/12 18/28/9 13/29/10
f 21/32/11 17/25/11 18/28/11
f 106/33/13 126/34/13 22/35/14
f 22/35/11 17/25/11 21/32/11
f 118/36/15 28/37/16 29/38/17
f 128/39/18 129/40/19 127/41/20
f 117/42/11 29/38/11 30/43/21
f 30/43/21 29/38/11 32/44/11
f 30/43/21 130/45/22 131/46/23
f 131/46/23 129/40/19 30/43/21
f 30/43/21 31/47/24 33/48/24
f 30/43/21 32/44/11 31/47/11
f 31/47/24 132/49/25 33/48/24
f 33/48/11 134/50/11 130/45/11
f 135/51/11 33/48/11 132/49/11
f 33/48/11 136/52/11 134/50/11
f 136/52/11 33/48/11 137/53/11
f 137/53/11 33/48/11 135/51/11
f 139/54/26 34/55/27 138/56/28
f 140/57/29 34/55/27 139/54/26
f 141/58/30 35/59/31 140/57/29
f 35/59/11 36/60/11 38/61/11
f 35/59/11 37/62/11 36/60/11
f 142/63/32 35/59/31 141/58/30
f 34/55/11 35/59/11 38/61/11
f 144/64/28 38/61/27 39/65/27
f 40/66/31 39/65/27 38/61/27
f 145/67/11 38/61/11 143/68/11
f 36/60/31 40/66/31 38/61/27
f 41/69/33 40/66/31 36/60/31
f 40/66/11 41/69/11 43/70/11
f 39/65/11 40/66/11 42/71/11
f 40/66/11 43/70/11 42/71/11
f 47/72/34 43/70/35 44/73/36
f 43/70/35 46/74/37 44/73/36
f 48/75/11 45/76/11 43/70/11
f 43/70/35 45/76/38 46/74/37
f 47/72/34 42/71/39 43/70/35
f 48/75/11 43/70/11 41/69/11
f 32/44/24 48/75/24 50/77/33
f 49/78/17 48/75/24 32/44/24
f 49/78/11 45/76/11 48/75/11
f 48/75/24 41/69/33 50/77/33
f 50/77/33 41/69/33 36/60/31
f 37/62/11 50/77/11 36/60/11
f 31/47/11 50/77/11 37/62/11
f 31/47/11 32/44/11 50/77/11
f 29/38/17 49/78/17 32/44/24
f 29/38/17 28/37/16 49/78/17
f 28/37/11 51/79/11 49/78/11
f 49/78/11 51/79/11 45/76/11
f 45/76/38 51/79/40 52/80/41
f 51/79/40 54/81/42 52/80/41
f 28/37/11 53/82/11 51/79/11
f 51/79/40 53/82/43 54/81/42
f 58/83/5 55/84/5 54/85/5
f 57/86/5 54/85/5 55/84/5
f 54/81/42 59/87/44 56/88/45
f 58/83/5 54/85/5 56/89/5
f 54/81/42 53/82/43 59/87/44
f 57/86/5 52/90/5 54/85/5
f 56/88/45 59/87/44 60/91/46
f 27/92/11 60/91/11 59/87/11
f 27/92/11 59/87/11 53/82/11
f 27/92/11 26/93/11 60/91/11
f 26/93/11 62/94/11 60/91/11
f 61/95/47 60/91/46 62/94/48
f 56/88/45 60/91/46 61/95/47
f 26/93/11 25/96/11 62/94/11
f 25/96/11 64/97/11 62/94/11
f 63/98/49 62/94/48 64/97/50
f 61/95/47 62/94/48 63/98/49
f 25/96/11 24/99/11 64/97/11
f 23/100/11 64/97/11 24/99/11
f 64/97/50 66/101/51 65/102/52
f 63/98/49 64/97/50 65/102/52
f 64/97/50 20/31/12 66/101/51
f 23/100/11 20/31/11 64/97/11
f 11/19/5 66/103/5 13/21/5
f 67/104/5 66/103/5 11/19/5
f 20/31/12 13/29/10 66/101/51
f 67/104/5 65/105/5 66/103/5
f 67/104/5 68/106/5 63/107/5
f 69/108/5 68/106/5 67/104/5
f 7/17/5 67/104/5 11/19/5
f 69/108/5 67/104/5 7/17/5
f 67/104/5 63/107/5 65/105/5
f 6/16/5 69/108/5 7/17/5
f 71/109/5 69/108/5 6/16/5
f 71/109/5 70/110/5 69/108/5
f 70/110/5 68/106/5 69/108/5
f 72/111/5 71/109/5 6/16/5
f 72/111/5 70/110/5 71/109/5
f 75/112/5 73/113/5 72/111/5
f 73/113/5 74/114/5 72/111/5
f 72/111/5 74/114/5 70/110/5
f 75/112/5 72/111/5 8/14/5
f 72/111/5 6/16/5 8/14/5
f 78/115/5 76/116/5 75/112/5
f 76/116/5 77/117/5 75/112/5
f 75/112/5 79/118/5 73/113/5
f 75/112/5 77/117/5 79/118/5
f 78/115/5 75/112/5 8/14/5
f 73/113/5 79/118/5 74/114/5
f 79/118/5 55/84/5 58/83/5
f 77/117/5 55/84/5 79/118/5
f 79/118/5 58/83/5 74/114/5
f 80/119/5 78/115/5 8/14/5
f 80/119/5 81/120/5 78/115/5
f 78/115/5 82/121/5 76/116/5
f 78/115/5 81/120/5 82/121/5
f 76/116/5 82/121/5 77/117/5
f 81/120/5 83/122/5 82/121/5
f 82/121/5 57/86/5 77/117/5
f 82/121/5 83/122/5 57/86/5
f 83/122/5 52/90/5 57/86/5
f 81/120/5 84/123/5 83/122/5
f 84/123/5 46/124/5 83/122/5
f 83/122/5 46/124/5 52/90/5
f 84/123/5 85/125/5 47/126/5
f 86/127/5 85/125/5 84/123/5
f 86/127/5 84/123/5 81/120/5
f 84/123/5 44/128/5 46/124/5
f 84/123/5 47/126/5 44/128/5
f 80/119/5 86/127/5 81/120/5
f 88/129/5 86/127/5 80/119/5
f 88/129/5 87/130/5 86/127/5
f 87/130/5 85/125/5 86/127/5
f 8/14/5 89/131/5 88/129/5
f 89/131/5 87/130/5 88/129/5
f 88/129/5 80/119/5 8/14/5
f 8/14/5 90/132/5 89/131/5
f 89/131/5 90/132/5 87/130/5
f 8/14/5 91/133/5 90/132/5
f 91/133/5 92/134/5 90/132/5
f 87/130/5 90/132/5 92/134/5
f 93/135/5 92/134/5 16/24/5
f 87/130/5 92/134/5 93/135/5
f 91/133/5 14/23/5 92/134/5
f 14/23/5 16/24/5 92/134/5
f 85/125/5 93/135/5 94/136/5
f 93/135/5 16/24/5 94/136/5
f 87/130/5 93/135/5 85/125/5
f 94/137/53 42/71/39 47/72/34
f 85/125/5 94/136/5 47/126/5
f 94/137/53 95/138/54 42/71/39
f 16/139/7 95/138/54 94/137/53
f 39/65/11 42/71/11 95/138/11
f 16/139/7 96/140/55 95/138/54
f 22/141/11 95/138/11 96/140/11
f 22/141/11 39/65/11 95/138/11
f 22/35/11 96/142/11 17/25/11
f 17/25/6 96/142/55 16/26/7
f 97/143/5 91/133/5 8/14/5
f 97/143/5 10/18/5 91/133/5
f 10/18/5 14/23/5 91/133/5
f 5/13/5 97/143/5 8/14/5
f 5/13/5 10/18/5 97/143/5
f 77/117/5 57/86/5 55/84/5
f 70/110/5 74/114/5 58/83/5
f 70/110/5 98/144/5 68/106/5
f 70/110/5 58/83/5 98/144/5
f 68/106/5 98/144/5 61/145/5
f 98/144/5 58/83/5 56/89/5
f 98/144/5 56/89/5 61/145/5
f 68/106/5 61/145/5 63/107/5
f 27/92/11 53/82/11 28/37/11
f 45/76/38 52/80/41 46/74/37
f 146/146/56 22/35/14 126/34/13
f 144/64/28 22/141/14 146/146/56
f 147/147/11 34/55/11 145/67/11
f 138/56/28 34/55/27 147/147/28
f 37/62/33 148/148/32 149/149/57
f 133/150/25 37/62/33 149/149/57
f 19/30/11 20/31/11 23/100/11
s 0
f 104/151/58 150/152/58 151/153/58
s 1
f 103/154/59 101/155/60 19/30/61
f 111/156/62 110/157/63 24/99/64
f 112/158/65 24/99/64 25/96/66
f 122/159/67 27/92/68 120/160/69
f 115/161/70 26/93/71 27/92/68
f 113/162/72 26/93/71 114/163/73
s 0
f 153/164/74 99/165/74 152/166/74
s 1
f 100/167/75 19/30/61 101/155/60
f 23/100/76 110/157/63 108/168/77
f 113/162/72 112/158/65 25/96/66
f 108/168/77 107/169/78 23/100/76
f 100/167/75 105/170/79 21/32/80
f 154/171/81 99/165/75 155/172/75
f 103/154/59 19/30/61 23/100/76
f 119/173/82 120/160/69 28/37/16
f 115/161/70 114/163/73 26/93/71
s 0
f 2/174/83 107/175/83 108/176/83
f 100/167/84 101/155/84 1/2/84
f 157/177/85 156/178/85 118/9/85
f 117/179/85 158/180/85 118/9/85
f 158/180/85 157/177/85 118/9/85
f 3/6/86 161/181/86 125/3/86
f 3/6/87 2/174/87 111/4/87
f 2/174/87 109/182/87 110/183/87
f 111/4/87 2/174/87 110/183/87
f 111/4/88 112/184/88 114/185/88
f 112/184/72 113/186/72 114/185/72
f 114/185/89 115/5/89 111/4/89
f 115/5/90 116/187/90 3/6/90
f 120/7/3 156/178/3 163/188/3
f 162/189/91 121/11/91 164/190/91
f 120/7/92 163/188/92 165/191/92
f 3/6/4 116/187/4 122/10/4
f 1/2/93 123/192/93 166/193/93
s 1
f 22/35/14 21/32/80 106/33/13
f 21/32/80 105/170/79 106/33/13
f 104/151/94 154/171/81 167/194/13
f 29/38/17 117/42/15 118/36/15
f 118/36/15 119/173/82 28/37/16
f 117/42/11 128/39/18 159/195/11
s 0
f 104/151/95 106/196/95 1/2/95
f 104/151/96 166/193/96 150/152/96
s 1
f 112/158/65 111/156/62 24/99/64
f 121/11/69 122/10/67 120/7/69
f 27/92/68 122/159/67 116/197/70
f 116/197/70 115/161/70 27/92/68
f 113/162/72 25/96/66 26/93/71
s 0
f 168/198/97 99/165/97 169/199/97
f 169/199/74 99/165/74 153/164/74
s 1
f 100/167/75 21/32/80 19/30/61
f 24/99/64 110/157/63 23/100/76
f 110/183/63 109/182/98 108/176/77
f 99/165/75 168/198/75 155/172/75
f 23/100/76 107/169/78 103/154/59
f 107/175/78 102/200/99 103/201/59
f 120/160/69 27/92/68 28/37/16
s 0
f 108/176/100 109/182/100 2/174/100
f 2/174/101 102/200/101 107/175/101
f 103/202/84 102/200/84 1/2/84
f 102/200/84 2/174/84 1/2/84
f 1/2/102 106/196/102 100/167/102
f 103/202/84 1/2/84 101/155/84
f 106/196/103 105/203/103 100/167/103
f 128/39/104 160/204/104 158/180/104
f 148/148/105 156/178/105 133/150/105
f 150/152/106 126/34/106 151/153/106
f 124/1/107 125/3/107 161/181/107
f 151/153/107 167/194/107 154/171/107
f 124/1/1 123/192/1 1/2/1
f 1/2/1 2/174/1 125/3/1
s 1
f 128/39/18 30/43/21 129/40/19
f 30/43/21 33/48/24 130/45/22
f 31/47/24 133/150/25 132/49/25
f 140/57/29 35/59/31 34/55/27
f 142/63/32 37/62/33 35/59/31
f 144/64/28 143/68/28 38/61/27
f 145/67/11 34/55/11 38/61/11
f 144/64/28 39/65/27 22/141/14
f 37/62/33 142/63/32 148/148/32
f 133/150/25 31/47/24 37/62/33
s 0
f 152/166/58 99/165/58 151/153/58
f 99/165/58 104/151/58 151/153/58
s 1
f 154/171/81 104/151/94 99/165/75
s 0
f 117/179/85 159/195/85 158/180/85
f 158/180/108 160/204/108 157/177/108
f 125/3/86 2/174/86 3/6/86
f 3/6/86 162/189/86 161/181/86
f 120/7/3 118/9/3 156/178/3
f 162/189/91 3/6/91 121/11/91
f 165/191/92 164/190/92 121/11/92
f 121/11/92 120/7/92 165/191/92
s 1
f 167/194/13 126/34/13 104/151/94
f 126/34/13 106/196/13 104/151/94
f 117/42/11 30/43/21 128/39/18
s 0
f 104/151/96 1/2/96 166/193/96
f 158/180/109 159/195/109 128/39/109
f 128/39/110 127/41/110 160/204/110
f 160/204/111 127/41/111 157/177/111
f 127/41/105 129/40/105 157/177/105
f 129/40/105 131/46/105 156/178/105
f 131/46/105 130/45/105 156/178/105
f 130/45/105 134/50/105 133/150/105
f 156/178/105 130/45/105 133/150/105
f 165/191/105 163/188/105 156/178/105
f 156/178/105 157/177/105 129/40/105
f 134/50/105 136/52/105 133/150/105
f 136/52/112 137/53/112 133/150/112
f 148/148/105 165/191/105 156/178/105
f 135/51/105 132/49/105 133/150/105
f 137/53/105 135/51/105 133/150/105
f 149/149/112 148/148/112 133/150/112
f 142/63/106 141/58/106 140/57/106
f 140/57/106 139/54/106 166/193/106
f 139/54/106 138/56/106 166/193/106
f 138/56/106 147/147/106 166/193/106
f 148/148/106 142/63/106 123/192/106
f 142/63/106 140/57/106 166/193/106
f 148/148/106 123/192/106 165/191/106
f 164/190/106 165/191/106 162/189/106
f 162/189/106 165/191/106 123/192/106
f 124/1/106 161/181/106 123/192/106
f 161/181/106 162/189/106 123/192/106
f 145/67/106 143/68/106 166/193/106
f 143/68/106 144/64/106 166/193/106
f 123/192/106 142/63/106 166/193/106
f 147/147/106 145/67/106 166/193/106
f 144/64/106 146/146/106 166/193/106
f 146/146/106 126/34/106 150/152/106
f 126/34/106 167/194/106 151/153/106
f 146/146/106 150/152/106 166/193/106
f 168/198/107 169/199/107 155/172/107
f 169/199/107 153/164/107 155/172/107
f 153/164/107 152/166/107 155/172/107
f 152/166/107 151/153/107 154/171/107
f 155/172/107 152/166/107 154/171/107
