# Blender 4.4.3
# www.blender.org
mtllib pol_sufit.mtl
o lowpoly1.002
v 10.447304 25.529718 -10.512724
v -17.869286 25.578487 13.246235
v -17.893398 21.358952 13.246236
v 10.432774 21.260714 13.238446
v 10.432762 21.260712 -10.393923
v 10.440042 25.557137 13.240393
v 6.822797 25.538733 -11.338598
v 5.080057 25.538733 -8.871952
v 3.399558 25.538734 -6.300346
v 0.038552 25.538734 -7.035089
v -2.202118 25.538733 -9.186838
v -5.998804 25.538734 -6.352821
v -6.745694 25.538734 -3.046475
v -9.546523 25.538734 -0.579832
v -13.156496 25.538734 0.049952
v -15.397160 25.538734 4.143528
v -14.401302 25.538734 7.187468
v -15.085949 25.538734 10.283887
v 6.822797 21.197229 -11.338598
v 5.080057 21.197229 -8.871952
v 3.399558 21.197229 -6.300346
v 0.038552 21.197229 -7.035089
v -2.202118 21.197229 -9.186838
v -5.998804 21.197229 -6.352821
v -6.745694 21.197231 -3.046474
v -9.546523 21.197231 -0.579831
v -13.156496 21.197231 0.049953
v -15.397160 21.197231 4.143528
v -14.401302 21.197231 7.187468
v -15.085949 21.197231 10.283888
v 14.375443 -0.091003 17.281189
v 14.375443 29.671093 13.050800
v 14.375443 -0.091003 13.050802
v 10.209831 -0.091003 17.287209
v 10.209833 29.671093 13.050800
v 10.209831 -0.091003 13.050802
v 14.375443 29.671093 17.281187
v 10.209833 29.671093 17.281187
v 3.121021 29.671093 13.050800
v 3.121021 29.671093 17.281187
v 3.121021 33.488434 13.050800
v 3.121021 33.866520 17.281187
v -3.871345 33.488434 13.050800
v -3.871345 33.866520 17.281187
v -3.871345 29.719315 13.050800
v -3.871345 29.719315 17.281187
v -6.642384 29.369234 13.050800
v -6.642384 29.369234 17.281187
v -6.861183 25.379223 13.050800
v -6.861183 25.379223 17.281187
v -18.097187 25.379223 13.050800
v -18.097187 25.379223 17.281187
v -18.121300 21.096912 13.050801
v -18.097187 21.087355 17.281187
v -20.894133 21.087355 13.050801
v -20.894133 21.087355 17.281187
v -20.894133 16.891932 13.050801
v -20.894133 16.891932 17.281189
v -18.145412 16.877378 13.050801
v -18.145412 16.891932 17.281189
v -18.334455 12.837330 13.050801
v -18.334455 12.837330 17.281189
v -27.730886 12.585272 13.050801
v -27.730886 12.585272 17.281189
v -27.982944 8.356417 13.050802
v -27.982944 8.356417 17.281189
v -31.926304 7.852303 13.050802
v -31.926304 7.852303 17.281189
v -32.178360 4.016323 13.050802
v -32.178360 4.016323 17.281189
v -28.424036 3.827279 13.050802
v -28.424036 3.827279 17.281189
v -27.982937 -0.091003 13.050802
v -27.982937 -0.091003 17.281189
v 10.180761 16.779140 13.043012
v 10.180761 12.501120 13.043012
v 10.188028 21.075562 13.044959
vn -0.0005 1.0000 -0.0004
vn -0.0000 1.0000 -0.0000
vn -0.0005 1.0000 -0.0002
vn 0.0001 -1.0000 0.0005
vn -0.0000 -1.0000 -0.0000
vn -0.7272 0.0021 -0.6864
vn -0.7273 0.0020 -0.6863
vn -0.7288 -0.0000 -0.6847
vn -0.5982 -0.0000 -0.8014
vn -0.9754 -0.0000 -0.2203
vn -0.6609 -0.0000 -0.7505
vn 0.2220 -0.0279 -0.9746
vn -0.1719 -0.0000 -0.9851
vn -0.8167 -0.0000 -0.5770
vn -0.8772 -0.0000 -0.4801
vn -0.8371 -0.0000 -0.5470
vn -0.9504 -0.0000 0.3109
vn 0.2136 -0.0000 -0.9769
vn -0.9764 -0.0000 -0.2159
vn 0.6927 -0.0000 -0.7213
vn -0.0000 1.0000 -0.0062
vn 0.0020 1.0000 0.0012
vn 0.0008 1.0000 0.0002
vn 0.0021 1.0000 0.0015
vn 0.0021 1.0000 0.0014
vn -0.0001 1.0000 -0.0002
vn 0.0008 0.9999 -0.0127
vn -0.0004 1.0000 -0.0013
vn 0.0148 -0.9998 0.0105
vn 0.0148 -0.9998 0.0102
vn 0.0147 -0.9998 0.0101
vn 0.0090 -1.0000 -0.0000
vn 0.0016 -1.0000 -0.0009
vn 0.0001 -1.0000 0.0003
vn 0.0146 -0.9998 0.0095
vn -0.0034 -0.9987 0.0513
vn 0.0007 -1.0000 0.0004
vn 0.0004 -1.0000 0.0004
vn 0.0024 -1.0000 0.0005
vn -0.7257 0.0041 -0.6880
vn 0.2532 -0.0000 -0.9674
vn 0.0002 -0.0004 1.0000
vn 0.0002 -0.0005 1.0000
vn 0.0003 -0.0000 1.0000
vn -0.0003 -1.0000 -0.0000
vn -0.0003 1.0000 0.0001
vn 1.0000 -0.0000 -0.0000
vn -0.0000 0.9960 -0.0890
vn -1.0000 -0.0000 -0.0000
vn -0.1253 0.9921 -0.0000
vn -0.9985 0.0548 -0.0000
vn -1.0000 0.0028 0.0029
vn -1.0000 0.0028 0.0028
vn -1.0000 0.0056 0.0057
vn -0.0030 1.0000 0.0003
vn -0.0005 1.0000 0.0019
vn -0.0034 1.0000 -0.0000
vn -0.0047 -1.0000 0.0030
vn -0.0007 -1.0000 0.0004
vn -0.0053 -1.0000 0.0034
vn -0.9989 0.0467 -0.0001
vn -0.9989 0.0467 -0.0000
vn -0.0268 0.9996 -0.0000
vn -0.9982 0.0595 -0.0000
vn -0.1268 0.9919 -0.0000
vn -0.9978 0.0656 -0.0000
vn -0.0503 -0.9987 -0.0000
vn -0.9937 -0.1119 -0.0000
vn -0.0001 0.0001 1.0000
vn 0.0007 0.0002 1.0000
vn -0.0000 0.0001 1.0000
vn -0.0002 0.0002 -1.0000
vn -0.0000 -0.0000 -1.0000
vn -0.0001 0.0003 -1.0000
vn -0.0000 1.0000 0.0023
vn -0.9989 0.0466 -0.0002
vn 0.0013 0.0002 1.0000
vn 0.0001 0.0001 1.0000
vn -0.0000 -0.0000 1.0000
vn 1.0000 -0.0001 0.0003
vn 0.0004 -0.0005 -1.0000
vn 0.0004 0.0001 -1.0000
vn -0.0001 -0.0003 -1.0000
vn -0.0003 -0.0003 -1.0000
vn -0.0001 -0.0000 -1.0000
vn -0.0002 0.0005 -1.0000
vn -0.0004 0.0002 -1.0000
vn 1.0000 -0.0072 0.0003
vn 1.0000 -0.0025 0.0002
vn 1.0000 -0.0029 0.0002
vn -0.0000 0.0007 -1.0000
vn 1.0000 -0.0037 -0.0005
vn 0.0012 0.0001 -1.0000
vn 0.0036 0.0006 -1.0000
vn 0.0003 -0.0006 -1.0000
vn 0.2578 -0.0000 -0.9662
vt 0.398391 0.852967
vt 0.315080 0.956206
vt 0.261374 0.938648
vt 0.300789 0.303222
vt 0.242457 0.290046
vt 0.230418 0.183531
vt 0.076235 0.072156
vt 0.153389 0.000290
vt 0.152830 0.072004
vt 0.077163 0.540825
vt 0.153593 0.457087
vt 0.153758 0.540673
vt 0.076997 0.457239
vt 0.153474 0.397285
vt 0.076879 0.397436
vt 0.153344 0.331440
vt 0.078855 0.829643
vt 0.154200 0.763660
vt 0.154200 0.829245
vt 0.076749 0.331592
vt 0.153216 0.266789
vt 0.077605 0.763812
vt 0.154094 0.710376
vt 0.076621 0.266940
vt 0.153053 0.184456
vt 0.077499 0.710528
vt 0.153987 0.656178
vt 0.076458 0.184608
vt 0.152941 0.127952
vt 0.077392 0.656330
vt 0.153867 0.595481
vt 0.076346 0.128104
vt 0.077272 0.595633
vt 0.154490 0.500404
vt 0.573557 0.500186
vt 0.499266 0.624542
vt 0.588141 0.564129
vt 0.544630 0.594884
vt 0.512242 0.683837
vt 0.550213 0.723360
vt 0.500228 0.790354
vt 0.441898 0.803544
vt 0.154490 0.999855
vt 0.206747 0.950738
vt 0.387293 0.916659
vt 0.154490 0.063843
vt 0.171159 0.000145
vt 0.198009 0.094588
vt 0.588096 0.000145
vt 0.243380 0.124234
vt 0.588313 0.499896
vt 0.535973 0.450364
vt 0.481344 0.438285
vt 0.427641 0.455856
vt 0.344308 0.352636
vt 0.355420 0.416325
vt 0.192456 0.223063
vt 0.078945 0.000145
vt 0.075945 0.499896
vt 0.000145 0.499774
vt 0.001416 0.000325
vt 0.075860 0.000145
vt 0.000165 0.002447
vt 0.034421 0.032694
vt 0.002435 0.034929
vt 0.032099 0.999835
vt 0.003085 0.964529
vt 0.035019 0.967404
vt 0.102767 0.934117
vt 0.069819 0.988448
vt 0.070206 0.933885
vt 0.102997 0.901824
vt 0.070435 0.901593
vt 0.103379 0.848004
vt 0.070818 0.847773
vt 0.103606 0.816083
vt 0.071044 0.815852
vt 0.103769 0.793070
vt 0.071208 0.792839
vt 0.104006 0.759664
vt 0.071445 0.759433
vt 0.104620 0.673180
vt 0.072059 0.672949
vt 0.104855 0.640146
vt 0.072293 0.639988
vt 0.104837 0.618617
vt 0.072275 0.618644
vt 0.104810 0.586324
vt 0.072248 0.586352
vt 0.104792 0.565167
vt 0.072230 0.565194
vt 0.104653 0.532503
vt 0.072091 0.532642
vt 0.104330 0.456782
vt 0.071768 0.456921
vt 0.104189 0.423747
vt 0.071627 0.423886
vt 0.104051 0.391454
vt 0.071489 0.391593
vt 0.103908 0.358048
vt 0.071346 0.358187
vt 0.103770 0.325755
vt 0.071208 0.325894
vt 0.103635 0.294140
vt 0.071073 0.294279
vt 0.069818 0.000304
vt 0.102427 0.000165
vt 0.301234 0.163628
vt 0.105185 0.032228
vt 0.334270 0.086793
vt 0.562942 0.195037
vt 0.596349 0.218050
vt 0.595977 0.271872
vt 0.032147 0.000165
vt 0.000165 0.996960
vt 0.102380 0.988679
vt 0.105185 0.326206
vt 0.203242 0.250485
vt 0.105185 0.000165
vt 0.334270 0.032228
vt 0.334270 0.000165
vt 0.366563 0.086793
vt 0.334641 0.140614
vt 0.366563 0.140614
vt 0.136800 0.326206
vt 0.170206 0.358499
vt 0.136800 0.358499
vt 0.170206 0.326206
vt 0.203242 0.326206
vt 0.334641 0.163628
vt 0.301234 0.250114
vt 0.268199 0.250114
vt 0.268199 0.271642
vt 0.235906 0.250485
vt 0.235906 0.271642
vt 0.596009 0.625151
vt 0.366924 0.625151
vt 0.366924 0.592589
vt 0.596009 0.592589
vt 0.367462 0.304854
vt 0.594263 0.273111
vt 0.594263 0.304854
vt 0.463817 0.326212
vt 0.366892 0.326436
vt 0.464949 0.108179
vt 0.366892 0.032458
vt 0.398507 0.032458
vt 0.398507 0.000165
vt 0.431914 0.032458
vt 0.431914 0.000165
vt 0.529816 0.326268
vt 0.496745 0.326212
vt 0.464949 0.032458
vt 0.134825 0.358829
vt 0.155983 0.358829
vt 0.156154 0.391122
vt 0.134811 0.391308
vt 0.497501 0.108179
vt 0.529980 0.108365
vt 0.562942 0.108551
vt 0.596349 0.195037
vt 0.628271 0.218050
vt 0.628271 0.271872
vt 0.363056 0.707065
vt 0.362967 0.762944
vt 0.055608 0.762590
vt 0.595977 0.326436
vt 0.054127 0.707065
vt 0.463420 0.272889
vt 0.528761 0.272944
vt 0.367462 0.273110
vt 0.496020 0.272889
s 1
usemtl sufit_1_2
f 14/1/1 16/2/2 17/3/3
f 25/4/4 24/5/5 22/6/5
f 30/7/6 2/8/7 18/9/8
f 23/10/9 12/11/9 11/12/9
f 24/13/10 13/14/10 12/11/10
f 25/15/11 14/16/11 13/14/11
f 5/17/12 7/18/12 1/19/12
f 26/20/13 15/21/13 14/16/13
f 19/22/14 8/23/14 7/18/14
f 27/24/15 16/25/15 15/21/15
f 20/26/16 9/27/16 8/23/16
f 28/28/17 17/29/17 16/25/17
f 21/30/18 10/31/18 9/27/18
f 29/32/19 18/9/19 17/29/19
f 22/33/20 11/12/20 10/31/20
f 6/34/21 1/35/22 9/36/23
f 1/35/22 7/37/24 8/38/25
f 9/36/23 1/35/22 8/38/25
f 10/39/2 11/40/2 12/41/2
f 9/36/23 10/39/2 13/42/26
f 10/39/2 12/41/2 13/42/26
f 2/43/27 6/34/21 18/44/28
f 6/34/21 9/36/23 13/42/26
f 18/44/28 6/34/21 17/3/3
f 17/3/3 6/34/21 14/1/1
f 13/42/26 14/1/1 6/34/21
f 14/1/1 15/45/2 16/2/2
f 19/46/29 5/47/30 20/48/31
f 5/47/32 4/49/33 21/50/34
f 20/48/31 5/47/30 21/50/35
f 4/49/36 3/51/36 30/52/36
f 29/53/37 28/54/5 26/55/38
f 28/54/5 27/56/5 26/55/38
f 4/49/33 30/52/39 29/53/37
f 4/49/33 29/53/37 26/55/38
f 22/6/5 21/50/34 25/4/4
f 21/50/34 4/49/33 25/4/4
f 24/5/5 23/57/5 22/6/5
f 4/49/33 26/55/38 25/4/4
f 30/7/6 3/58/40 2/8/7
f 23/10/9 24/13/9 12/11/9
f 24/13/10 25/15/10 13/14/10
f 25/15/11 26/20/11 14/16/11
f 5/17/41 19/22/41 7/18/41
f 26/20/13 27/24/13 15/21/13
f 19/22/14 20/26/14 8/23/14
f 27/24/15 28/28/15 16/25/15
f 20/26/16 21/30/16 9/27/16
f 28/28/17 29/32/17 17/29/17
f 21/30/18 22/33/18 10/31/18
f 29/32/19 30/7/19 18/9/19
f 22/33/20 23/10/20 11/12/20
f 4/59/42 6/60/43 2/61/44
f 3/62/44 4/59/42 2/61/44
f 6/164/88 4/165/89 5/166/90
f 1/168/92 6/164/88 5/166/90
usemtl sufit_1
f 31/63/5 36/64/45 33/65/5
f 38/66/2 32/67/46 35/68/2
f 40/69/2 35/70/2 39/71/2
f 42/72/47 39/71/47 41/73/47
f 44/74/48 41/73/48 43/75/48
f 46/76/49 43/75/49 45/77/49
f 48/78/50 45/77/50 47/79/50
f 50/80/51 47/79/51 49/81/51
f 52/82/2 49/81/2 51/83/2
f 54/84/52 51/83/53 53/85/54
f 56/86/55 53/85/56 55/87/57
f 58/88/49 55/87/49 57/89/49
f 60/90/58 57/89/59 59/91/60
f 62/92/61 59/91/61 61/93/62
f 64/94/63 61/93/63 63/95/63
f 66/96/64 63/95/64 65/97/64
f 68/98/65 65/97/65 67/99/65
f 70/100/66 67/99/66 69/101/66
f 72/102/67 69/101/67 71/103/67
f 74/104/68 71/103/68 73/105/68
f 74/104/5 36/106/45 34/107/5
f 50/108/69 34/109/70 40/110/71
f 49/111/72 45/112/73 39/113/74
f 31/63/5 34/114/5 36/64/45
f 38/66/2 37/115/2 32/67/46
f 40/69/2 38/116/2 35/70/2
f 42/72/47 40/69/47 39/71/47
f 44/74/48 42/72/48 41/73/48
f 46/76/49 44/74/49 43/75/49
f 48/78/50 46/76/50 45/77/50
f 50/80/51 48/78/51 47/79/51
f 52/82/2 50/80/2 49/81/2
f 54/84/52 52/82/49 51/83/53
f 56/86/55 54/84/75 53/85/56
f 58/88/49 56/86/49 55/87/49
f 60/90/58 58/88/5 57/89/59
f 62/92/61 60/90/76 59/91/61
f 64/94/63 62/92/63 61/93/63
f 66/96/64 64/94/64 63/95/64
f 68/98/65 66/96/65 65/97/65
f 70/100/66 68/98/66 67/99/66
f 72/102/67 70/100/67 69/101/67
f 74/104/68 72/102/68 71/103/68
f 74/104/5 73/105/5 36/106/45
f 74/117/69 34/109/70 62/118/69
f 34/109/70 31/119/77 38/120/78
f 62/118/69 34/109/70 50/108/69
f 31/119/77 37/121/79 38/120/78
f 40/110/71 42/122/79 46/123/79
f 42/122/79 44/124/79 46/123/79
f 38/120/78 40/110/71 34/109/70
f 72/125/79 74/117/69 62/118/69
f 68/126/79 70/127/79 66/128/79
f 70/127/79 72/125/79 66/128/79
f 62/118/69 64/129/79 66/128/79
f 46/123/79 48/130/79 50/108/69
f 50/108/69 52/131/79 54/132/79
f 54/132/79 56/133/79 60/134/79
f 56/133/79 58/135/79 60/134/79
f 40/110/71 46/123/79 50/108/69
f 50/108/69 54/132/79 60/134/79
f 62/118/69 66/128/79 72/125/79
f 50/108/69 60/134/79 62/118/69
f 37/136/47 31/137/47 33/138/47
f 32/139/80 37/136/47 33/138/47
f 33/140/81 35/141/82 32/142/83
f 76/143/84 36/144/73 61/145/85
f 36/144/73 73/146/73 61/145/85
f 71/147/73 69/148/73 65/149/73
f 69/148/73 67/150/73 65/149/73
f 73/146/73 71/147/73 61/145/85
f 39/113/74 77/151/86 75/152/87
f 75/152/87 76/143/84 49/111/72
f 65/149/73 63/153/73 61/145/85
f 59/154/73 57/155/73 55/156/73
f 71/147/73 65/149/73 61/145/85
f 59/154/73 55/156/73 53/157/73
f 76/143/84 61/145/85 49/111/72
f 61/145/85 59/158/73 49/111/72
f 59/158/73 53/159/73 49/111/72
f 53/159/73 51/160/73 49/111/72
f 49/111/72 47/161/73 45/112/73
f 45/112/73 43/162/73 41/163/73
f 39/113/74 75/152/87 49/111/72
f 45/112/73 41/163/73 39/113/74
f 39/113/74 35/167/91 77/151/86
f 76/169/93 77/170/94 33/140/81
f 33/140/81 36/171/95 76/169/93
f 76/169/93 75/172/96 77/170/94
f 77/170/94 35/141/82 33/140/81
