# Blender 4.4.3
# www.blender.org
mtllib ruina_1_top_duzy.mtl
o Cylinder.005
v 15.517093 2.157993 11.813696
v 15.517093 1.110754 11.813696
v -0.549873 2.157993 11.988222
v 15.388833 2.157991 0.006302
v 15.388843 1.110752 0.006892
v -0.678123 2.157991 0.181418
v -0.549873 1.110754 11.988222
v -0.549873 0.063520 11.988222
v -11.845461 1.110754 12.110920
v -5.968265 2.157993 12.047080
v 0.393878 0.063520 11.977971
v -11.845461 0.063520 12.110920
v -16.654926 0.215111 8.656502
v -0.678123 0.573986 0.181419
v -16.745092 0.573986 0.355945
v -16.873341 0.063518 -11.450861
v -16.745092 1.110752 0.355945
v -16.873341 1.110752 -11.450861
v -16.654926 1.110752 8.656502
v -16.654926 1.601448 8.656502
v -16.701841 2.157991 4.337646
v -11.845461 1.601450 12.110920
v -16.707176 2.157991 3.846627
v -11.994889 2.157991 0.304346
v -16.783007 2.157991 -3.134740
v -16.745092 1.690208 0.355945
v -16.873341 2.157991 -11.450861
v -0.805570 2.157991 -11.625395
v -0.806375 1.110752 -11.625384
v 15.260589 1.110752 -11.799911
v 15.260589 0.353077 -11.799911
v 10.818080 0.063518 -11.751657
v 15.292467 0.190391 -8.865395
v 15.388843 0.573986 0.006892
v 15.408580 0.495422 1.824001
v 15.517093 1.049242 11.813696
v -0.806375 0.063518 -11.625384
vn 0.0109 -0.0000 0.9999
vn 0.9999 -0.0000 -0.0109
vn -0.0000 1.0000 -0.0000
vn -0.5834 -0.0000 0.8122
vn -0.0005 -0.9991 -0.0432
vn 0.0005 -0.9991 0.0432
vn -0.9999 -0.0000 0.0109
vn -0.0921 0.9875 0.1282
vn -0.0986 0.9865 -0.1311
vn -0.0957 0.9865 0.1332
vn 0.0638 0.9940 -0.0889
vn -0.0109 -0.0000 -0.9999
vn 0.0643 -0.9964 -0.0559
vn 0.0655 -0.9964 0.0545
vt 0.391164 0.548832
vt 0.436841 0.301615
vt 0.404221 0.561785
vt 0.205815 0.568535
vt 0.419157 0.300172
vt 0.793086 0.435511
vt 0.642026 0.245471
vt 0.795127 0.237982
vt 0.648701 0.451916
vt 0.207102 0.550924
vt 0.451837 0.318922
vt 0.453517 0.301770
vt 0.452475 0.114221
vt 0.420346 0.213902
vt 0.435941 0.117732
vt 0.389852 0.021371
vt 0.833383 0.439740
vt 0.776473 0.515907
vt 0.644015 0.514915
vt 0.644986 0.257667
vt 0.834023 0.258400
vt 0.455322 0.514855
vt 0.247405 0.000211
vt 0.047751 0.019608
vt 0.034354 0.006527
vt 0.381959 0.034037
vt 0.246987 0.009178
vt 0.428178 0.119991
vt 0.308748 0.036528
vt 0.377274 0.040879
vt 0.687273 0.039785
vt 0.787761 0.095754
vt 0.789142 0.170135
vt 0.741439 0.037706
vt 0.639419 0.100627
vt 0.681097 0.039429
vt 0.301011 0.035285
vt 0.636826 0.032761
vt 0.492483 0.056287
vt 0.592803 0.042794
vt 0.491415 0.252960
vt 0.498460 0.455797
vt 0.061154 0.032256
vt 0.034497 0.279962
vt 0.017211 0.279032
vt 0.017271 0.536480
vt 0.000211 0.465204
vt 0.061218 0.559405
vt 0.006932 0.543469
vt 0.501197 0.001469
vt 0.644207 0.000240
vt 0.455205 0.072861
vt 0.453940 0.002206
vt 0.204649 0.577002
vt 0.673470 0.000211
vt 0.236922 0.577686
vt 0.407672 0.564928
vt 0.834028 0.000336
vt 0.834028 0.243226
vt 0.000211 0.277836
vt 0.455686 0.258342
vt 0.189311 0.028163
vt 0.246079 0.021184
s 1
usemtl ruina_1_czesc
f 1/1/1 7/2/1 2/3/1
f 5/4/2 1/1/2 2/3/2
f 1/1/1 3/5/1 7/2/1
f 1/6/3 6/7/3 3/8/3
f 1/6/3 4/9/3 6/7/3
f 5/4/2 4/10/2 1/1/2
f 7/2/1 11/11/1 2/3/1
f 8/12/1 11/11/1 7/2/1
f 7/2/1 12/13/1 8/12/1
f 7/2/1 3/5/1 10/14/1
f 7/2/1 9/15/1 12/13/1
f 9/15/1 7/2/1 10/14/1
f 13/16/4 12/13/4 9/15/4
f 12/17/5 13/18/5 15/19/5
f 14/20/5 8/21/5 12/17/5
f 12/17/5 15/19/5 14/20/5
f 14/20/6 15/19/6 16/22/6
f 15/23/7 18/24/7 16/25/7
f 19/26/7 17/27/7 15/23/7
f 15/23/7 17/27/7 18/24/7
f 19/26/7 15/23/7 13/16/7
f 19/26/4 9/15/4 22/28/4
f 13/16/4 9/15/4 19/26/4
f 17/27/7 19/26/7 21/29/7
f 19/26/7 20/30/7 21/29/7
f 19/26/4 22/28/4 20/30/4
f 21/31/8 22/32/8 10/33/8
f 10/14/1 22/28/1 9/15/1
f 21/31/8 20/34/8 22/32/8
f 21/31/3 10/33/3 24/35/3
f 23/36/3 21/31/3 24/35/3
f 17/27/7 21/29/7 23/37/7
f 26/38/9 23/36/9 24/35/9
f 27/39/3 25/40/3 24/35/3
f 26/38/10 24/35/10 25/40/10
f 24/35/3 6/7/3 28/41/3
f 6/7/3 24/35/3 10/33/3
f 24/35/3 28/41/3 27/39/3
f 30/42/11 28/41/11 4/9/11
f 6/7/3 4/9/3 28/41/3
f 27/43/12 28/44/12 29/45/12
f 29/45/12 28/44/12 30/46/12
f 29/45/12 30/46/12 32/47/12
f 5/4/2 33/48/2 30/46/2
f 30/46/2 4/10/2 5/4/2
f 33/48/2 31/49/2 30/46/2
f 30/46/12 31/49/12 32/47/12
f 33/50/6 34/51/6 32/52/6
f 32/52/13 31/53/13 33/50/13
f 34/54/2 33/48/2 5/4/2
f 34/51/5 35/55/5 14/20/5
f 34/51/6 14/20/6 32/52/6
f 35/56/2 34/54/2 5/4/2
f 2/3/2 36/57/2 35/56/2
f 36/58/14 11/59/14 35/55/14
f 35/55/5 11/59/5 14/20/5
f 5/4/2 2/3/2 35/56/2
f 11/11/1 36/57/1 2/3/1
f 32/47/12 37/60/12 29/45/12
f 14/20/6 37/61/6 32/52/6
f 18/24/12 37/60/12 16/25/12
f 14/20/6 16/22/6 37/61/6
f 18/24/12 29/45/12 37/60/12
f 27/43/12 29/45/12 18/24/12
f 25/62/7 27/43/7 18/24/7
f 17/27/7 26/63/7 25/62/7
f 23/37/7 26/63/7 17/27/7
f 18/24/7 17/27/7 25/62/7
f 11/59/5 8/21/5 14/20/5
f 10/33/3 3/8/3 6/7/3
