# Blender 4.4.3
# www.blender.org
mtllib ruina_1_top_maly.mtl
o Cylinder.006
v 4.613849 0.121189 0.043058
v 0.245082 0.121189 0.008776
v 4.613849 1.525116 0.043058
v 4.581675 0.121190 4.143102
v 4.635079 0.121189 -2.662293
v 1.759089 0.121189 -8.130668
v 4.677811 1.059135 -8.107763
v 0.309044 0.121189 -8.142047
v 4.677811 1.525116 -8.107763
v 0.309044 1.525116 -8.142047
v 4.677811 1.986744 -8.107763
v 1.674804 2.489616 -8.131330
v 4.670082 2.285850 -7.122935
v 1.935919 2.655182 -7.044312
v 4.613849 2.929039 0.043058
v 0.255887 2.929039 -1.368107
v -1.886732 2.929039 -8.159275
v 0.245082 2.929039 0.008776
v -4.077281 2.467033 -5.938707
v -4.123683 2.929039 -0.025507
v -4.123683 1.525116 -0.025507
v -4.128993 2.929039 0.651056
v -0.181511 2.929040 8.156752
v -4.187644 1.641648 8.125315
v -4.187644 1.525117 8.125315
v 0.181122 1.525117 8.159598
v -4.187644 1.339623 8.125315
v -4.146584 0.438355 2.892784
v -1.383056 0.438355 8.147324
v 0.181122 0.121190 8.159598
v 2.378912 0.121190 8.176688
v 2.378709 1.525117 8.176843
v 3.923274 1.525117 7.002445
v 2.378908 2.929028 8.176690
v 0.181122 2.929040 8.159598
v 3.923274 1.411252 7.002445
v -4.123683 0.121189 -0.025507
v -4.077281 0.636280 -5.938707
v -3.713585 0.717018 -7.518187
v -4.077281 1.525116 -5.938707
v -2.860377 0.636280 -8.166918
v -2.860377 1.525116 -8.166918
v -3.713585 1.525116 -7.518187
v -2.860377 2.643692 -8.166918
v -3.713585 2.446361 -7.518187
v 0.309044 2.223415 -8.142047
vn -0.0000 -1.0000 -0.0000
vn -0.0232 -0.9997 -0.0029
vn 0.9840 0.1418 0.1074
vn 1.0000 -0.0000 0.0078
vn -0.0651 -0.9978 -0.0134
vn 0.3032 -0.9395 -0.1594
vn 0.0078 -0.0000 -1.0000
vn 0.1310 0.9558 -0.2632
vn 0.1552 0.9660 -0.2070
vn 0.1201 0.9502 -0.2876
vn 0.0896 0.9951 -0.0425
vn 0.0752 0.9932 -0.0890
vn 0.0381 0.9986 -0.0369
vn 0.9993 0.0265 0.0260
vn 0.0233 0.9971 -0.0719
vn 0.1281 0.9712 -0.2007
vn -0.0350 0.9991 -0.0226
vn -0.2099 0.9777 -0.0036
vn -0.1475 0.9890 -0.0084
vn -0.0097 0.9995 -0.0315
vn -0.0000 1.0000 -0.0000
vn -1.0000 -0.0000 -0.0078
vn -0.3032 0.9395 0.1594
vn -0.0078 -0.0000 1.0000
vn -0.3032 -0.9395 0.1594
vn -0.0719 -0.9970 0.0292
vn -0.1984 -0.9745 0.1044
vn -0.0561 -0.9973 0.0480
vn -0.0078 -0.0001 1.0000
vn 0.6053 -0.0000 0.7960
vn -0.0078 0.0001 1.0000
vn 0.7478 -0.5235 0.4084
vn 0.9790 0.0682 0.1919
vn 0.9745 -0.0000 0.2244
vn 0.7387 0.6428 0.2030
vn -0.0008 -0.9941 0.1080
vn 0.0007 -0.9962 -0.0868
vn -0.1046 -0.9935 -0.0458
vn -0.1591 -0.9834 -0.0869
vn -0.9745 -0.0000 -0.2244
vn -0.6053 -0.0000 -0.7960
vn -0.2799 0.9570 -0.0770
vn -0.2798 0.9570 -0.0770
vn 0.1624 0.8123 -0.5602
vn -0.1895 0.9764 -0.1032
vn 0.1637 0.9687 -0.1869
vt 0.944654 0.605173
vt 0.944328 0.647939
vt 0.874149 0.647772
vt 0.944654 0.712875
vt 0.403700 0.650250
vt 0.432078 0.721531
vt 0.411122 0.727484
vt 0.435741 0.770636
vt 0.876291 0.517253
vt 0.899590 0.517722
vt 0.427944 0.886293
vt 0.402574 0.849968
vt 0.397159 0.849859
vt 0.364394 0.892019
vt 0.363377 0.867735
vt 0.389194 0.834056
vt 0.391985 0.846725
vt 0.357169 0.849505
vt 0.315835 0.768031
vt 0.386901 0.730815
vt 0.311240 0.882047
vt 0.268238 0.858980
vt 0.243363 0.764131
vt 0.313919 0.747626
vt 0.242927 0.754271
vt 0.218276 0.766096
vt 0.236680 0.638757
vt 0.289006 0.624913
vt 0.234506 0.636960
vt 0.200511 0.716602
vt 0.274891 0.600101
vt 0.210044 0.602564
vt 0.232578 0.636937
vt 0.875677 0.778440
vt 0.850128 0.778853
vt 0.804520 0.695063
vt 0.271802 0.578109
vt 0.327779 0.598644
vt 0.342762 0.578109
vt 0.911005 0.777860
vt 0.356575 0.622217
vt 0.356025 0.623557
vt 0.323757 0.619675
vt 0.293582 0.623319
vt 0.804351 0.647622
vt 0.196870 0.771455
vt 0.805191 0.551984
vt 0.242182 0.872023
vt 0.811094 0.526589
vt 0.824915 0.516329
vt 0.267917 0.903616
vt 0.254982 0.866107
vt 0.298654 0.918352
vt 0.297151 0.904405
vt 0.377458 0.910799
vt 0.275646 0.893125
vt 0.282387 0.881739
vt 0.297914 0.886596
vt 0.349857 0.878880
s 1
usemtl ruina_1_czesc
f 5/1/1 1/2/1 2/3/2
f 1/2/1 4/4/1 2/3/2
f 4/5/3 1/6/4 3/7/4
f 1/6/4 5/8/4 3/7/4
f 8/9/5 6/10/1 5/1/1
f 6/11/6 7/12/6 5/8/6
f 5/8/4 7/12/4 9/13/4
f 2/3/2 8/9/5 5/1/1
f 3/7/4 5/8/4 9/13/4
f 10/14/7 9/13/7 6/11/7
f 9/13/7 10/14/7 12/15/7
f 3/7/4 9/13/4 13/16/4
f 9/13/7 7/12/7 6/11/7
f 12/15/7 11/17/7 9/13/7
f 9/13/4 11/17/4 13/16/4
f 11/17/8 14/18/9 13/16/10
f 13/16/11 14/18/12 16/19/13
f 13/16/4 15/20/14 3/7/4
f 15/20/15 13/16/11 16/19/13
f 17/21/16 16/19/13 14/18/12
f 16/19/17 17/21/18 19/22/19
f 20/23/20 18/24/21 16/19/17
f 16/19/13 18/24/21 15/20/15
f 19/22/19 20/23/20 16/19/17
f 20/23/20 22/25/21 18/24/21
f 22/25/22 20/23/22 21/26/22
f 21/26/22 20/23/22 19/22/22
f 22/25/23 24/27/23 23/28/23
f 22/25/21 23/28/21 18/24/21
f 25/29/22 24/27/22 22/25/22
f 21/26/22 25/29/22 22/25/22
f 21/26/22 28/30/22 25/29/22
f 25/29/24 26/31/24 23/28/24
f 26/31/24 25/29/24 29/32/24
f 23/28/24 24/27/24 25/29/24
f 25/29/24 27/33/24 29/32/24
f 28/30/22 27/33/22 25/29/22
f 27/33/25 28/30/25 29/32/25
f 30/34/26 29/35/27 28/36/28
f 29/32/24 30/37/24 26/31/24
f 2/3/2 4/4/1 30/34/26
f 2/3/2 30/34/26 28/36/28
f 32/38/24 26/31/24 30/37/24
f 32/38/24 30/37/24 31/39/29
f 4/4/1 31/40/1 30/34/26
f 32/38/30 36/41/30 33/42/30
f 34/43/30 32/38/30 33/42/30
f 32/38/24 35/44/24 26/31/24
f 32/38/30 31/39/30 36/41/30
f 32/38/24 34/43/31 35/44/24
f 4/5/32 36/41/32 31/39/32
f 33/42/33 36/41/34 4/5/3
f 34/43/21 18/24/21 35/44/21
f 23/28/21 35/44/21 18/24/21
f 26/31/24 35/44/24 23/28/24
f 34/43/35 33/42/35 15/20/35
f 34/43/21 15/20/21 18/24/21
f 15/20/14 33/42/33 4/5/3
f 28/36/28 37/45/36 2/3/2
f 37/46/22 28/30/22 21/26/22
f 2/3/2 37/45/37 38/47/38
f 21/26/22 38/48/22 37/46/22
f 38/47/38 39/49/39 41/50/39
f 39/51/40 38/48/40 40/52/40
f 21/26/22 40/52/22 38/48/22
f 8/9/5 38/47/38 41/50/39
f 8/9/5 2/3/2 38/47/38
f 41/53/7 42/54/7 10/14/7
f 42/54/41 41/53/41 39/51/41
f 41/53/7 10/14/7 8/55/7
f 42/54/41 39/51/41 43/56/41
f 42/54/41 43/56/41 45/57/41
f 42/54/41 45/57/41 44/58/41
f 42/54/7 44/58/7 17/21/7
f 10/14/7 42/54/7 17/21/7
f 17/21/18 44/58/42 45/57/43
f 45/57/40 43/56/40 40/52/40
f 45/57/43 19/22/19 17/21/18
f 45/57/40 40/52/40 19/22/40
f 39/51/40 40/52/40 43/56/40
f 21/26/22 19/22/22 40/52/22
f 17/21/7 46/59/7 10/14/7
f 46/59/44 17/21/16 14/18/12
f 10/14/7 46/59/7 12/15/7
f 12/15/45 46/59/44 14/18/12
f 3/7/4 15/20/14 4/5/3
f 11/17/8 12/15/46 14/18/9
f 6/11/7 8/55/7 10/14/7
