# Blender 4.4.3
# www.blender.org
mtllib ruina_2_top.mtl
o Cylinder.013
v -5.084537 1.878333 -9.315587
v -5.084537 0.848995 -9.315587
v -0.474855 1.878333 -9.315587
v -5.084537 1.878333 0.138332
v -5.084537 0.848995 0.137859
v -0.474855 1.878333 0.137859
v -0.474855 0.848995 -9.315587
v -0.474855 -0.180347 -9.315587
v 2.765897 0.848995 -9.315587
v 2.765897 1.331303 -9.315587
v 1.079703 1.878333 -9.315587
v -0.745623 -0.180347 -9.315587
v -5.084537 0.788532 -9.315587
v 2.765897 -0.180347 -9.315587
v 4.134825 -0.031345 -6.508214
v -0.474855 0.321400 0.137859
v -0.474855 -0.180347 9.591296
v -5.084537 0.321400 0.137859
v 4.134825 0.321400 0.137859
v -5.084537 -0.055641 7.241694
v -3.809962 -0.180347 9.591296
v -5.084537 0.244179 -1.317059
v -5.084537 0.104267 9.591296
v -0.474855 0.848995 9.591296
v -5.084537 0.848995 9.591296
v 4.134825 0.848995 9.591296
v -0.475086 1.878333 9.591296
v 4.134825 1.878333 9.591296
v 4.134825 1.878333 2.932765
v 4.134825 1.418549 0.137859
v 2.771974 1.878333 0.137859
v 4.134825 1.878333 -2.657056
v 4.134825 1.878333 -3.050206
v 4.134825 1.331303 -6.508214
v 4.134825 0.848995 -6.508214
v 4.134825 0.848995 0.137859
v 4.134825 -0.180347 9.591296
v -2.296473 3.410384 10.134410
v -2.296473 2.917430 10.134410
v -4.459008 3.946769 4.563128
v -0.641313 3.707690 9.491946
v 0.689683 2.917430 8.975307
v 0.689683 3.429416 8.975307
v -4.459008 2.917430 4.563128
v -1.107545 3.946769 4.345164
v 2.190550 3.946769 8.392735
v -1.472853 3.946769 3.404033
v 1.513303 3.946769 2.244930
v 3.675838 3.479850 7.816211
v 1.513303 2.917430 2.244930
v 1.333800 3.946769 1.782481
v -3.387521 3.946769 -2.263463
v -0.649233 3.002872 -3.326352
v -0.649233 2.917430 -3.326352
v -3.635388 2.917430 -2.167256
v -3.635388 1.888087 -2.167256
v -3.635388 3.946769 -2.167256
v -5.137491 2.917430 -1.584203
v -5.137491 3.946769 -1.584203
v -2.566236 2.120627 -2.582249
v -0.649233 2.781428 -3.326352
v 0.739036 2.120627 0.250209
v 1.513303 1.888087 2.244930
v -1.472853 1.888087 3.404033
v 0.689683 1.888087 8.975307
v -4.459008 1.888087 4.563128
v -3.741239 1.888087 6.412303
v -0.301456 1.888087 9.360026
v -2.296473 2.575778 10.134410
v -5.546812 1.888087 1.760646
v -5.137588 1.888087 -1.584042
v -5.872093 2.833945 -0.365910
v -5.872093 2.917430 -0.365910
v -5.872093 3.877856 -0.365910
v 3.675838 2.408660 7.816211
v 3.675838 2.917430 7.816211
vn -0.0000 -0.0000 -1.0000
vn -1.0000 -0.0000 -0.0000
vn -0.0000 1.0000 -0.0000
vn 0.8988 -0.0000 -0.4383
vn -0.0000 -0.9986 0.0530
vn -0.0000 -0.9986 -0.0530
vn -0.2175 -0.9738 -0.0663
vn -0.2175 -0.9738 0.0663
vn -0.0000 -0.0000 1.0000
vn 1.0000 -0.0000 -0.0000
vn 0.3159 0.9362 -0.1540
vn 0.3159 0.9362 0.1540
vn 0.3051 0.9406 -0.1488
vn 0.3052 0.9406 -0.1488
vn -0.2167 0.9705 0.1057
vn 0.3619 -0.0000 0.9322
vn -0.9322 -0.0000 0.3619
vn -0.9418 0.0139 0.3358
vn -0.0019 0.9992 0.0393
vn -0.0958 0.9928 0.0723
vn -0.0120 0.9996 0.0272
vn -0.9481 -0.0000 0.3180
vn -0.0855 0.9869 0.1365
vn 0.0028 0.9756 0.2195
vn 0.2030 0.9789 -0.0224
vn 0.0249 0.9997 -0.0027
vn 0.2885 0.9570 -0.0318
vn 0.9322 -0.0000 -0.3619
vn 0.2229 0.9395 -0.2601
vn -0.3619 -0.0000 -0.9322
vn -0.3618 -0.0000 -0.9322
vn -0.6436 -0.0000 -0.7653
vn -0.6395 -0.0000 -0.7688
vn 0.2229 -0.9395 -0.2601
vn 0.1373 -0.9885 -0.0635
vn 0.0104 -0.9977 -0.0663
vn 0.0070 -0.9998 -0.0175
vn 0.0091 -0.9989 -0.0470
vn 0.0623 -0.9980 0.0076
vn -0.0000 -1.0000 -0.0000
vn 0.0931 -0.9950 -0.0361
vn -0.2229 -0.9395 0.2601
vn -0.9319 0.2367 0.2748
vn -0.8457 -0.5235 -0.1035
vn -0.9028 -0.2630 -0.3402
vn -0.6950 -0.1281 -0.7075
vn -0.9598 0.0605 0.2741
vn -0.9613 -0.0000 0.2756
vn -0.8564 -0.0000 -0.5164
vn -0.0208 0.9998 0.0023
vn -0.0790 0.9968 0.0087
vn 0.1800 -0.9834 0.0220
vt 0.135653 0.502025
vt 0.240472 0.537338
vt 0.114827 0.516829
vt 0.092891 0.282622
vt 0.238530 0.508195
vt 0.228283 0.282424
vt 0.117865 0.283139
vt 0.111469 0.519353
vt 0.244998 0.560214
vt 0.234194 0.560795
vt 0.336996 0.530328
vt 0.272828 0.504305
vt 0.321764 0.511296
vt 0.314558 0.503134
vt 0.376256 0.444894
vt 0.528134 0.477094
vt 0.499895 0.412254
vt 0.610176 0.264776
vt 0.601514 0.479915
vt 0.605157 0.049456
vt 0.681112 0.047764
vt 0.505192 0.264285
vt 0.607660 0.480149
vt 0.714472 0.265633
vt 0.714052 0.300259
vt 0.711712 0.100566
vt 0.081769 0.320581
vt 0.708237 0.484877
vt 0.080487 0.281266
vt 0.710582 0.046491
vt 0.233072 0.029107
vt 0.111607 0.038004
vt 0.143227 0.023849
vt 0.236101 0.003711
vt 0.121886 0.053026
vt 0.230545 0.056559
vt 0.353735 0.060338
vt 0.332569 0.073387
vt 0.335771 0.220025
vt 0.348251 0.285375
vt 0.305214 0.284122
vt 0.336332 0.349225
vt 0.336163 0.358244
vt 0.344363 0.438447
vt 0.355587 0.440788
vt 0.361925 0.285303
vt 0.374592 0.285275
vt 0.376255 0.048062
vt 0.499895 0.052251
vt 0.092936 0.106727
vt 0.720834 0.868283
vt 0.657219 0.919733
vt 0.713404 0.862176
vt 0.759165 0.723289
vt 0.726706 0.724914
vt 0.639108 0.755610
vt 0.683349 0.872701
vt 0.659163 0.896604
vt 0.633805 0.870689
vt 0.542283 0.760029
vt 0.634384 0.734450
vt 0.607439 0.877099
vt 0.507366 0.771746
vt 0.541429 0.749650
vt 0.601240 0.599364
vt 0.539590 0.613282
vt 0.585039 0.567088
vt 0.537480 0.611683
vt 0.534159 0.610960
vt 0.509021 0.571728
vt 0.582071 0.541198
vt 0.652546 0.563838
vt 0.606773 0.597632
vt 0.641776 0.588395
vt 0.491786 0.709430
vt 0.111718 0.604931
vt 0.171794 0.677781
vt 0.112583 0.737404
vt 0.478154 0.792133
vt 0.180885 0.723340
vt 0.139807 0.864306
vt 0.117230 0.869268
vt 0.086779 0.609928
vt 0.044364 0.751579
vt 0.053426 0.794058
vt 0.738908 0.929166
vt 0.726101 0.872550
vt 0.785579 0.786259
vt 0.592666 0.966462
vt 0.783815 0.717304
vt 0.746214 0.628392
vt 0.031382 0.687216
vt 0.052463 0.616904
vt 0.689827 0.589253
vt 0.673585 0.537636
vt 0.688019 0.591093
vt 0.672156 0.603211
vt 0.598695 0.894227
vt 0.603144 0.886406
s 0
usemtl ruina_2_top
f 1/1/1 7/2/1 2/3/1
f 5/4/2 1/1/2 2/3/2
f 1/1/1 3/5/1 7/2/1
f 1/1/3 6/6/3 3/5/3
f 1/1/3 4/7/3 6/6/3
f 5/4/2 4/7/2 1/1/2
f 13/8/1 2/3/1 7/2/1
f 8/9/1 12/10/1 7/2/1
f 7/2/1 14/11/1 8/9/1
f 7/2/1 3/5/1 11/12/1
f 7/2/1 9/13/1 14/11/1
f 9/13/1 7/2/1 10/14/1
f 10/14/1 7/2/1 11/12/1
f 12/10/1 13/8/1 7/2/1
f 15/15/4 14/11/4 9/13/4
f 14/16/5 15/17/5 16/18/5
f 16/18/5 8/19/5 14/16/5
f 16/18/6 17/20/6 21/21/6
f 19/22/6 17/20/6 16/18/6
f 12/23/5 8/19/5 16/18/5
f 18/24/5 22/25/5 16/18/5
f 20/26/6 18/24/6 16/18/6
f 15/17/5 19/22/5 16/18/5
f 16/18/6 21/21/6 20/26/6
f 22/25/5 12/23/5 16/18/5
f 5/4/2 13/8/2 22/27/2
f 13/28/7 12/23/7 22/25/7
f 22/27/2 18/29/2 5/4/2
f 21/21/8 23/30/8 20/26/8
f 24/31/9 23/32/9 21/33/9
f 21/33/9 17/34/9 24/31/9
f 24/31/9 25/35/9 23/32/9
f 24/31/9 27/36/9 25/35/9
f 26/37/9 24/31/9 17/34/9
f 28/38/9 24/31/9 26/37/9
f 28/38/9 27/36/9 24/31/9
f 29/39/10 28/38/10 26/37/10
f 28/38/3 29/39/3 27/36/3
f 30/40/10 29/39/10 26/37/10
f 30/40/11 31/41/11 29/39/11
f 29/39/3 31/41/3 27/36/3
f 30/40/12 32/42/12 31/41/12
f 32/42/3 33/43/3 31/41/3
f 31/41/3 6/6/3 27/36/3
f 6/6/3 31/41/3 11/12/3
f 33/43/3 11/12/3 31/41/3
f 33/43/13 10/14/13 11/12/13
f 33/43/14 34/44/14 10/14/14
f 34/44/10 33/43/10 30/40/10
f 33/43/10 32/42/10 30/40/10
f 35/45/4 10/14/4 34/44/4
f 36/46/10 35/45/10 34/44/10
f 30/40/10 36/46/10 34/44/10
f 19/47/10 36/46/10 26/37/10
f 26/37/10 36/46/10 30/40/10
f 35/45/10 36/46/10 19/47/10
f 35/45/4 9/13/4 10/14/4
f 15/15/4 9/13/4 35/45/4
f 35/45/10 19/47/10 15/15/10
f 25/35/15 27/36/15 4/7/15
f 6/6/3 4/7/3 27/36/3
f 19/47/10 26/37/10 37/48/10
f 26/37/9 17/34/9 37/48/9
f 19/22/6 37/49/6 17/20/6
f 25/35/2 5/4/2 18/29/2
f 25/35/2 4/7/2 5/4/2
f 20/50/2 23/32/2 25/35/2
f 18/29/2 20/50/2 25/35/2
f 5/4/2 2/3/2 13/8/2
f 11/12/3 3/5/3 6/6/3
s 1
f 39/51/16 42/52/16 38/53/16
f 38/53/17 44/54/18 39/51/17
f 40/55/19 38/53/20 45/56/21
f 38/53/17 40/55/22 44/54/18
f 38/53/20 41/57/23 45/56/21
f 43/58/16 41/57/16 38/53/16
f 42/52/16 43/58/16 38/53/16
f 46/59/24 45/56/21 41/57/23
f 46/59/25 48/60/26 45/56/21
f 45/56/21 47/61/3 40/55/19
f 48/60/26 47/61/3 45/56/21
f 49/62/27 48/60/26 46/59/25
f 50/63/28 48/60/28 49/62/28
f 48/60/26 51/64/3 47/61/3
f 51/64/28 48/60/28 50/63/28
f 51/64/3 52/65/3 47/61/3
f 51/64/29 53/66/29 52/65/29
f 53/66/28 51/64/28 50/63/28
f 53/66/30 55/67/30 52/65/31
f 54/68/30 55/67/30 53/66/30
f 50/63/28 54/68/28 53/66/28
f 55/67/30 54/68/30 61/69/30
f 60/70/30 56/71/30 55/67/30
f 58/72/32 55/67/30 56/71/30
f 55/67/30 57/73/31 52/65/31
f 59/74/33 57/73/31 55/67/30
f 59/74/33 55/67/30 58/72/32
f 55/67/30 61/69/30 60/70/30
f 61/69/34 62/75/34 60/70/34
f 62/75/28 61/69/28 50/63/28
f 61/69/28 54/68/28 50/63/28
f 60/76/35 62/77/36 64/78/37
f 63/79/28 62/75/28 50/63/28
f 62/77/36 63/80/38 64/78/37
f 64/78/37 65/81/39 68/82/40
f 63/80/38 65/81/39 64/78/37
f 64/78/37 56/83/41 60/76/35
f 56/83/41 64/78/37 66/84/40
f 67/85/40 66/84/40 64/78/37
f 64/78/37 68/82/40 67/85/40
f 68/86/42 69/87/42 67/88/42
f 42/52/16 69/87/16 68/86/16
f 68/86/16 65/89/16 42/52/16
f 67/88/17 69/87/17 44/54/18
f 42/52/16 39/51/16 69/87/16
f 69/87/17 39/51/17 44/54/18
f 66/90/17 67/88/17 44/54/18
f 70/91/43 66/90/17 44/54/18
f 66/84/40 70/92/40 56/83/41
f 70/92/40 71/93/40 56/83/41
f 70/91/44 72/94/45 71/95/46
f 72/94/47 70/91/43 44/54/18
f 58/72/32 71/95/46 72/94/45
f 73/96/48 72/94/47 44/54/18
f 58/72/32 72/94/45 73/96/49
f 58/72/32 73/96/49 74/97/49
f 74/97/48 73/96/48 44/54/18
f 58/72/32 74/97/49 59/74/33
f 59/74/50 74/97/51 40/55/19
f 40/55/22 74/97/48 44/54/18
f 58/72/32 56/71/30 71/95/46
f 63/79/38 75/98/52 65/89/39
f 75/98/16 42/52/16 65/89/16
f 50/63/28 76/99/28 75/98/28
f 75/98/16 76/99/16 42/52/16
f 50/63/28 75/98/28 63/79/28
f 76/99/16 49/62/16 43/58/16
f 50/63/28 49/62/28 76/99/28
f 42/52/16 76/99/16 43/58/16
f 57/73/3 59/74/50 40/55/19
f 47/61/3 57/73/3 40/55/19
f 52/65/3 57/73/3 47/61/3
f 49/62/16 46/59/16 43/58/16
f 46/59/24 41/57/23 43/58/16
