# Blender 4.4.3
# www.blender.org
mtllib sufit_1.mtl
o lowpoly1.002
v 10.447304 25.529720 -10.512723
v -17.869286 25.578487 13.246237
v -17.893398 21.358952 13.246237
v 10.432774 21.260714 13.238447
v 10.432761 21.260714 -10.393922
v 10.440042 25.557137 13.240395
v 6.822797 25.538734 -11.338597
v 5.080057 25.538734 -8.871951
v 3.399558 25.538734 -6.300345
v 0.038552 25.538734 -7.035088
v -2.202118 25.538734 -9.186838
v -5.998804 25.538734 -6.352820
v -6.745694 25.538734 -3.046473
v -9.546523 25.538734 -0.579830
v -13.156496 25.538734 0.049953
v -15.397160 25.538734 4.143529
v -14.401302 25.538734 7.187469
v -15.085949 25.538734 10.283889
v 6.822797 21.197231 -11.338597
v 5.080057 21.197231 -8.871951
v 3.399558 21.197231 -6.300345
v 0.038552 21.197231 -7.035088
v -2.202118 21.197231 -9.186838
v -5.998804 21.197231 -6.352820
v -6.745694 21.197231 -3.046473
v -9.546523 21.197231 -0.579830
v -13.156496 21.197231 0.049953
v -15.397160 21.197231 4.143529
v -14.401302 21.197231 7.187469
v -15.085949 21.197231 10.283889
v 14.375442 -0.091003 17.281189
v 14.375442 -0.095179 -21.339622
v 14.375442 3.875498 -20.835510
v 14.375442 4.064542 -17.915768
v 14.375442 8.211741 -17.915768
v 14.375442 8.211741 -21.484287
v 14.375442 12.425806 -20.980175
v 14.375442 12.803892 -11.190244
v 14.375442 16.843702 -10.875173
v 14.375442 16.969730 -13.954373
v 14.375442 21.039129 -14.395471
v 14.375442 21.039129 -10.826955
v 14.375442 25.156746 -10.574899
v 14.375442 25.471817 -7.558709
v 14.375442 29.526421 -7.306652
v 14.375442 29.526421 -3.834579
v 14.375442 33.412819 -3.532111
v 14.375442 33.866520 10.294836
v 14.375442 29.671093 10.294836
v 14.375442 29.671093 13.050802
v 14.375442 -0.091003 13.050802
v 10.209831 -0.091003 17.287209
v 10.209832 -0.095179 -21.339622
v 10.209832 3.875498 -20.835510
v 10.209832 4.064542 -17.915768
v 10.209832 8.211741 -17.915768
v 10.209832 8.211741 -21.484287
v 10.209832 12.425806 -20.980175
v 10.209832 16.969730 -13.954373
v 10.209832 21.039129 -14.395471
v 10.195291 21.048145 -10.708158
v 10.209832 25.156746 -10.574899
v 10.209832 25.471817 -7.558709
v 10.209832 29.526421 -7.306652
v 10.209832 29.526421 -3.834579
v 10.209832 33.412819 -3.532111
v 10.209832 33.866520 10.294836
v 10.209832 29.671093 10.294836
v 10.209832 29.671093 13.050802
v 10.209831 -0.091003 13.050802
v 14.375442 29.671093 17.281189
v 10.209832 29.671093 17.281189
v 3.121021 29.671093 13.050802
v 3.121021 29.671093 17.281189
v 3.121021 33.488434 13.050802
v 3.121021 33.866520 17.281189
v -3.871345 33.488434 13.050802
v -3.871345 33.866520 17.281189
v -3.871345 29.719315 13.050802
v -3.871345 29.719315 17.281189
v -6.642384 29.369234 13.050802
v -6.642384 29.369234 17.281189
v -6.861183 25.379223 13.050802
v -6.861183 25.379223 17.281189
v -18.097187 25.379223 13.050802
v -18.097187 25.379223 17.281189
v -18.121300 21.096912 13.050802
v -18.097187 21.087355 17.281189
v -20.894133 21.087355 13.050802
v -20.894133 21.087355 17.281189
v -20.894133 16.891932 13.050802
v -20.894133 16.891932 17.281189
v -18.145412 16.877378 13.050802
v -18.145412 16.891932 17.281189
v -18.334455 12.837330 13.050802
v -18.334455 12.837330 17.281189
v -27.730886 12.585272 13.050802
v -27.730886 12.585272 17.281189
v -27.982944 8.356417 13.050802
v -27.982944 8.356417 17.281189
v -31.926304 7.852302 13.050802
v -31.926304 7.852302 17.281189
v -32.178360 4.016323 13.050802
v -32.178360 4.016323 17.281189
v -28.424036 3.827279 13.050802
v -28.424036 3.827279 17.281189
v -27.982937 -0.091003 13.050802
v -27.982937 -0.091003 17.281189
v 10.180760 16.779140 13.043013
v 10.180748 16.779140 -10.589360
v 10.180760 12.501120 13.043013
v 10.180748 12.753178 -10.904431
v 10.188028 21.075562 13.044960
vn -0.0000 1.0000 -0.0000
vn -0.0000 -1.0000 -0.0000
vn -0.7288 -0.0000 -0.6847
vn -0.5982 -0.0000 -0.8014
vn -0.9754 -0.0000 -0.2203
vn -0.6609 -0.0000 -0.7505
vn 0.2220 -0.0279 -0.9746
vn -0.1719 -0.0000 -0.9851
vn -0.8167 -0.0000 -0.5770
vn -0.8772 -0.0000 -0.4801
vn -0.8371 -0.0000 -0.5470
vn -0.9504 -0.0000 0.3109
vn 0.2136 -0.0000 -0.9769
vn -0.9764 -0.0000 -0.2159
vn 0.6927 -0.0000 -0.7213
vn 0.0006 1.0000 -0.0012
vn 0.0021 1.0000 0.0015
vn 0.0021 1.0000 0.0014
vn 0.0008 0.9999 -0.0127
vn -0.0003 1.0000 -0.0008
vn -0.0007 1.0000 -0.0002
vn -0.0006 1.0000 -0.0004
vn -0.0005 1.0000 -0.0006
vn 0.0148 -0.9998 0.0105
vn 0.0090 -1.0000 -0.0000
vn 0.0146 -0.9998 0.0095
vn -0.0034 -0.9987 0.0513
vn 0.0024 -1.0000 0.0005
vn 0.0022 -1.0000 0.0014
vn 0.0009 -1.0000 0.0029
vn 0.0018 -1.0000 0.0020
vn -0.7257 0.0041 -0.6880
vn 0.2532 -0.0000 -0.9674
vn 0.0002 -0.0005 1.0000
vn 1.0000 -0.0034 -0.0000
vn 0.0003 -0.0000 1.0000
vn 1.0000 -0.0017 0.0003
vn -0.0000 0.1259 -0.9920
vn -0.0000 0.9995 -0.0328
vn -0.0000 -0.1078 -0.9942
vn -0.0000 0.9979 -0.0646
vn -0.0000 -0.0000 1.0000
vn -0.0000 -0.0000 -1.0000
vn -0.0282 0.0611 -0.9977
vn -0.0000 0.9946 -0.1039
vn -0.0000 0.1188 -0.9929
vn -0.0000 0.0620 -0.9981
vn -0.0000 0.9993 -0.0386
vn -0.0690 0.0776 -0.9946
vn -0.0000 -1.0000 0.0001
vn -0.0000 0.0776 -0.9970
vn -0.0000 -0.9992 -0.0409
vn 1.0000 -0.0000 -0.0000
vn -0.0000 0.9960 -0.0890
vn -1.0000 -0.0000 -0.0000
vn -0.1253 0.9921 -0.0000
vn -0.9985 0.0548 -0.0000
vn -1.0000 0.0056 0.0057
vn -0.0034 1.0000 -0.0000
vn -0.0053 -1.0000 0.0034
vn -0.9989 0.0467 -0.0000
vn -0.0268 0.9996 -0.0000
vn -0.9982 0.0595 -0.0000
vn -0.1268 0.9919 -0.0000
vn -0.9978 0.0656 -0.0000
vn -0.0503 -0.9987 -0.0000
vn -0.9937 -0.1119 -0.0000
vn -0.0001 0.0002 1.0000
vn -1.0000 0.0009 -0.0010
vn 0.0021 1.0000 -0.0024
vn -0.0000 0.0324 -0.9995
vn -0.0143 0.9994 -0.0325
vn -0.0687 0.0778 -0.9946
vn 0.0115 -0.9983 -0.0564
vn -0.0000 1.0000 0.0023
vn -0.9989 0.0466 -0.0002
vn -0.0002 0.0001 1.0000
vn 0.0014 0.0002 1.0000
vn -0.0001 0.0001 1.0000
vn -0.0000 0.0002 1.0000
vn -1.0000 -0.0023 -0.0000
vn -1.0000 -0.0030 -0.0004
vn -1.0000 0.0017 -0.0026
vn -1.0000 -0.0021 -0.0028
vn -1.0000 -0.0000 -0.0041
vn -1.0000 -0.0004 -0.0039
vn -1.0000 0.0032 -0.0085
vn -1.0000 0.0023 -0.0000
vn -1.0000 0.0033 -0.0000
vn -1.0000 0.0034 -0.0002
vn -1.0000 0.0036 -0.0004
vn -0.0003 -0.0006 -1.0000
vn -0.0003 0.0005 -1.0000
vn -0.0005 -0.0000 -1.0000
vn -0.0003 0.0002 -1.0000
vn -0.0002 0.0005 -1.0000
vn -1.0000 0.0025 -0.0000
vn -0.0000 0.0007 -1.0000
vt 0.398391 0.852967
vt 0.315080 0.956206
vt 0.261374 0.938648
vt 0.300789 0.303222
vt 0.242457 0.290046
vt 0.230418 0.183531
vt 0.076235 0.072156
vt 0.153389 0.000290
vt 0.152830 0.072004
vt 0.077163 0.540825
vt 0.153593 0.457087
vt 0.153758 0.540673
vt 0.076997 0.457239
vt 0.153474 0.397285
vt 0.076879 0.397436
vt 0.153344 0.331440
vt 0.078855 0.829643
vt 0.154200 0.763660
vt 0.154200 0.829245
vt 0.076749 0.331592
vt 0.153216 0.266789
vt 0.077605 0.763812
vt 0.154094 0.710376
vt 0.076621 0.266940
vt 0.153053 0.184456
vt 0.077499 0.710528
vt 0.153987 0.656178
vt 0.076458 0.184608
vt 0.152941 0.127952
vt 0.077392 0.656330
vt 0.153867 0.595481
vt 0.076346 0.128104
vt 0.077272 0.595633
vt 0.154490 0.500404
vt 0.573557 0.500186
vt 0.499266 0.624542
vt 0.588141 0.564129
vt 0.544630 0.594884
vt 0.512242 0.683837
vt 0.550213 0.723360
vt 0.500228 0.790354
vt 0.441898 0.803544
vt 0.154490 0.999855
vt 0.206747 0.950738
vt 0.387293 0.916659
vt 0.154490 0.063843
vt 0.171159 0.000145
vt 0.198009 0.094588
vt 0.588096 0.000145
vt 0.243380 0.124234
vt 0.588313 0.499896
vt 0.535973 0.450364
vt 0.481344 0.438285
vt 0.427641 0.455856
vt 0.344308 0.352636
vt 0.355420 0.416325
vt 0.192456 0.223063
vt 0.078945 0.000145
vt 0.075945 0.499896
vt 0.000145 0.499774
vt 0.001416 0.000325
vt 0.075464 0.916832
vt 0.000145 0.918841
vt 0.075860 0.000145
vt 0.052877 0.296760
vt 0.023123 0.330936
vt 0.020891 0.298996
vt 0.049570 0.805794
vt 0.007883 0.911238
vt 0.017635 0.802919
vt 0.067073 0.593357
vt 0.033036 0.623563
vt 0.035073 0.591334
vt 0.055109 0.328700
vt 0.024961 0.357226
vt 0.039817 0.914113
vt 0.004987 0.943401
vt 0.065035 0.625586
vt 0.031303 0.650976
vt 0.056946 0.354990
vt 0.027187 0.389070
vt 0.036921 0.946276
vt 0.003085 0.964529
vt 0.063356 0.653919
vt 0.028386 0.683510
vt 0.059172 0.386835
vt 0.029102 0.416471
vt 0.000165 0.002447
vt 0.034421 0.032694
vt 0.002435 0.034929
vt 0.060321 0.686385
vt 0.025957 0.710497
vt 0.061087 0.414235
vt 0.031431 0.449796
vt 0.057891 0.713372
vt 0.023028 0.743030
vt 0.063416 0.447561
vt 0.037124 0.531258
vt 0.054962 0.745905
vt 0.020631 0.769647
vt 0.069149 0.564129
vt 0.036783 0.564292
vt 0.052565 0.772522
vt 0.032099 0.999835
vt 0.035019 0.967404
vt 0.102767 0.934117
vt 0.069819 0.988448
vt 0.070206 0.933885
vt 0.102997 0.901824
vt 0.070435 0.901593
vt 0.103379 0.848004
vt 0.070818 0.847773
vt 0.103606 0.816083
vt 0.071044 0.815852
vt 0.103769 0.793070
vt 0.071208 0.792839
vt 0.104006 0.759664
vt 0.071445 0.759433
vt 0.104620 0.673180
vt 0.072059 0.672949
vt 0.104855 0.640146
vt 0.072293 0.639988
vt 0.104837 0.618617
vt 0.072275 0.618644
vt 0.104810 0.586324
vt 0.072248 0.586352
vt 0.104792 0.565167
vt 0.072230 0.565194
vt 0.104653 0.532503
vt 0.072091 0.532642
vt 0.104330 0.456782
vt 0.071768 0.456921
vt 0.104189 0.423747
vt 0.071627 0.423886
vt 0.104051 0.391454
vt 0.071489 0.391593
vt 0.103908 0.358048
vt 0.071346 0.358187
vt 0.103770 0.325755
vt 0.071208 0.325894
vt 0.103635 0.294140
vt 0.071073 0.294279
vt 0.069818 0.000304
vt 0.102427 0.000165
vt 0.301234 0.163628
vt 0.105185 0.032228
vt 0.334270 0.086793
vt 0.529567 0.408797
vt 0.562232 0.435894
vt 0.497274 0.408426
vt 0.758486 0.000225
vt 0.856604 0.130135
vt 0.823940 0.156860
vt 0.562942 0.195037
vt 0.596349 0.218050
vt 0.595977 0.271872
vt 0.032147 0.000165
vt 0.069489 0.531202
vt 0.000165 0.996960
vt 0.102380 0.988679
vt 0.105185 0.326206
vt 0.203242 0.250485
vt 0.105185 0.000165
vt 0.334270 0.032228
vt 0.334270 0.000165
vt 0.366563 0.086793
vt 0.334641 0.140614
vt 0.366563 0.140614
vt 0.136800 0.326206
vt 0.170206 0.358499
vt 0.136800 0.358499
vt 0.170206 0.326206
vt 0.203242 0.326206
vt 0.334641 0.163628
vt 0.301234 0.250114
vt 0.268199 0.250114
vt 0.268199 0.271642
vt 0.235906 0.250485
vt 0.235906 0.271642
vt 0.366924 0.592589
vt 0.366892 0.327879
vt 0.398911 0.354233
vt 0.398911 0.327879
vt 0.596009 0.625151
vt 0.366924 0.625151
vt 0.596009 0.592589
vt 0.464239 0.408426
vt 0.430832 0.354233
vt 0.430832 0.326765
vt 0.464239 0.326765
vt 0.596009 0.571376
vt 0.628303 0.462619
vt 0.628303 0.571376
vt 0.594896 0.435894
vt 0.594896 0.462619
vt 0.497274 0.381329
vt 0.529567 0.381329
vt 0.562232 0.408797
vt 0.628600 0.264875
vt 0.628632 0.000165
vt 0.660618 0.238521
vt 0.725557 0.000225
vt 0.725557 0.182128
vt 0.791556 0.000210
vt 0.857718 0.021378
vt 0.660618 0.264875
vt 0.725947 0.265989
vt 0.692540 0.265989
vt 0.692540 0.238521
vt 0.890011 0.021378
vt 0.890011 0.130135
vt 0.105185 0.391619
vt 0.105185 0.359326
vt 0.133567 0.391689
vt 0.134482 0.358829
vt 0.758486 0.182128
vt 0.856604 0.156860
vt 0.791345 0.183042
vt 0.823940 0.183957
vt 0.463817 0.326212
vt 0.366892 0.326436
vt 0.464949 0.108179
vt 0.366892 0.032458
vt 0.398507 0.032458
vt 0.398507 0.000165
vt 0.431914 0.032458
vt 0.431914 0.000165
vt 0.529816 0.326268
vt 0.496745 0.326212
vt 0.464949 0.032458
vt 0.134825 0.358829
vt 0.155983 0.358829
vt 0.156154 0.391122
vt 0.134811 0.391308
vt 0.497501 0.108179
vt 0.529980 0.108365
vt 0.562942 0.108551
vt 0.596349 0.195037
vt 0.628271 0.218050
vt 0.628271 0.271872
vt 0.857718 0.000165
vt 0.595977 0.326436
s 0
usemtl sufit_1_2
f 14/1/1 16/2/1 17/3/1
f 25/4/2 24/5/2 22/6/2
f 30/7/3 2/8/3 18/9/3
f 23/10/4 12/11/4 11/12/4
f 24/13/5 13/14/5 12/11/5
f 25/15/6 14/16/6 13/14/6
f 5/17/7 7/18/7 1/19/7
f 26/20/8 15/21/8 14/16/8
f 19/22/9 8/23/9 7/18/9
f 27/24/10 16/25/10 15/21/10
f 20/26/11 9/27/11 8/23/11
f 28/28/12 17/29/12 16/25/12
f 21/30/13 10/31/13 9/27/13
f 29/32/14 18/9/14 17/29/14
f 22/33/15 11/12/15 10/31/15
f 6/34/16 1/35/16 9/36/16
f 1/35/17 7/37/17 8/38/17
f 9/36/18 1/35/18 8/38/18
f 10/39/1 11/40/1 12/41/1
f 9/36/1 10/39/1 13/42/1
f 10/39/1 12/41/1 13/42/1
f 2/43/19 6/34/19 18/44/19
f 6/34/20 9/36/20 13/42/20
f 18/44/21 6/34/21 17/3/21
f 17/3/22 6/34/22 14/1/22
f 13/42/23 14/1/23 6/34/23
f 14/1/1 15/45/1 16/2/1
f 19/46/24 5/47/24 20/48/24
f 5/47/25 4/49/25 21/50/25
f 20/48/26 5/47/26 21/50/26
f 4/49/27 3/51/27 30/52/27
f 29/53/2 28/54/2 26/55/2
f 28/54/2 27/56/2 26/55/2
f 4/49/28 30/52/28 29/53/28
f 4/49/29 29/53/29 26/55/29
f 22/6/2 21/50/2 25/4/2
f 21/50/30 4/49/30 25/4/30
f 24/5/2 23/57/2 22/6/2
f 4/49/31 26/55/31 25/4/31
f 30/7/32 3/58/32 2/8/32
f 23/10/4 24/13/4 12/11/4
f 24/13/5 25/15/5 13/14/5
f 25/15/6 26/20/6 14/16/6
f 5/17/33 19/22/33 7/18/33
f 26/20/8 27/24/8 15/21/8
f 19/22/9 20/26/9 8/23/9
f 27/24/10 28/28/10 16/25/10
f 20/26/11 21/30/11 9/27/11
f 28/28/12 29/32/12 17/29/12
f 21/30/13 22/33/13 10/31/13
f 29/32/14 30/7/14 18/9/14
f 22/33/15 23/10/15 11/12/15
f 4/59/34 6/60/34 2/61/34
f 4/59/35 5/62/35 1/63/35
f 3/64/36 4/59/36 2/61/36
f 6/60/37 4/59/37 1/63/37
usemtl sufit_1
f 53/65/38 33/66/38 32/67/38
f 66/68/39 48/69/39 47/70/39
f 59/71/40 41/72/40 40/73/40
f 54/74/41 34/75/41 33/66/41
f 67/76/42 49/77/42 48/69/42
f 60/78/1 42/79/1 41/72/1
f 55/80/43 35/81/43 34/75/43
f 68/82/1 50/83/1 49/77/1
f 61/84/44 43/85/44 42/79/44
f 56/86/2 36/87/2 35/81/2
f 31/88/2 70/89/2 51/90/2
f 62/91/45 44/92/45 43/85/45
f 57/93/46 37/94/46 36/87/46
f 63/95/47 45/96/47 44/92/47
f 58/97/48 38/98/48 37/94/48
f 64/99/1 46/100/1 45/96/1
f 38/98/49 110/101/49 39/102/49
f 70/89/50 32/67/50 51/90/50
f 65/103/51 47/70/51 46/100/51
f 39/102/52 59/71/52 40/73/52
f 72/104/1 50/83/1 69/105/1
f 74/106/1 69/107/1 73/108/1
f 76/109/53 73/108/53 75/110/53
f 78/111/54 75/110/54 77/112/54
f 80/113/55 77/112/55 79/114/55
f 82/115/56 79/114/56 81/116/56
f 84/117/57 81/116/57 83/118/57
f 86/119/1 83/118/1 85/120/1
f 88/121/58 85/120/58 87/122/58
f 90/123/59 87/122/59 89/124/59
f 92/125/55 89/124/55 91/126/55
f 94/127/60 91/126/60 93/128/60
f 96/129/61 93/128/61 95/130/61
f 98/131/62 95/130/62 97/132/62
f 100/133/63 97/132/63 99/134/63
f 102/135/64 99/134/64 101/136/64
f 104/137/65 101/136/65 103/138/65
f 106/139/66 103/138/66 105/140/66
f 108/141/67 105/140/67 107/142/67
f 108/141/2 70/143/2 52/144/2
f 84/145/68 52/146/68 74/147/68
f 42/148/53 44/149/53 39/150/53
f 109/151/69 65/152/69 63/153/69
f 83/154/43 79/155/43 73/156/43
f 53/65/38 54/74/38 33/66/38
f 66/68/39 67/76/39 48/69/39
f 59/71/40 60/78/40 41/72/40
f 54/74/41 55/80/41 34/75/41
f 67/76/42 68/82/42 49/77/42
f 60/78/70 61/84/70 42/79/70
f 55/80/43 56/86/43 35/81/43
f 68/82/1 69/105/1 50/83/1
f 61/84/71 62/91/71 43/85/71
f 56/86/2 57/93/2 36/87/2
f 31/88/2 52/157/2 70/89/2
f 62/91/45 63/95/45 44/92/45
f 57/93/46 58/97/46 37/94/46
f 63/95/47 64/99/47 45/96/47
f 58/97/72 112/158/72 38/98/72
f 64/99/1 65/103/1 46/100/1
f 38/98/73 112/158/73 110/101/73
f 70/89/50 53/65/50 32/67/50
f 65/103/51 66/68/51 47/70/51
f 39/102/74 110/101/74 59/71/74
f 72/104/1 71/159/1 50/83/1
f 74/106/1 72/160/1 69/107/1
f 76/109/53 74/106/53 73/108/53
f 78/111/54 76/109/54 75/110/54
f 80/113/55 78/111/55 77/112/55
f 82/115/56 80/113/56 79/114/56
f 84/117/57 82/115/57 81/116/57
f 86/119/1 84/117/1 83/118/1
f 88/121/55 86/119/55 85/120/55
f 90/123/75 88/121/75 87/122/75
f 92/125/55 90/123/55 89/124/55
f 94/127/2 92/125/2 91/126/2
f 96/129/76 94/127/76 93/128/76
f 98/131/62 96/129/62 95/130/62
f 100/133/63 98/131/63 97/132/63
f 102/135/64 100/133/64 99/134/64
f 104/137/65 102/135/65 101/136/65
f 106/139/66 104/137/66 103/138/66
f 108/141/67 106/139/67 105/140/67
f 108/141/2 107/142/2 70/143/2
f 108/161/77 52/146/77 96/162/77
f 52/146/78 31/163/78 72/164/78
f 96/162/79 52/146/79 84/145/79
f 31/163/42 71/165/42 72/164/42
f 74/147/42 76/166/42 80/167/42
f 76/166/42 78/168/42 80/167/42
f 72/164/80 74/147/80 52/146/80
f 106/169/42 108/161/42 96/162/42
f 102/170/42 104/171/42 100/172/42
f 104/171/42 106/169/42 100/172/42
f 96/162/42 98/173/42 100/172/42
f 80/167/42 82/174/42 84/145/42
f 84/145/42 86/175/42 88/176/42
f 88/176/42 90/177/42 94/178/42
f 90/177/42 92/179/42 94/178/42
f 74/147/42 80/167/42 84/145/42
f 84/145/42 88/176/42 94/178/42
f 96/162/42 100/172/42 106/169/42
f 84/145/42 94/178/42 96/162/42
f 51/180/53 32/181/53 34/182/53
f 32/181/53 33/183/53 34/182/53
f 71/184/53 31/185/53 51/180/53
f 50/186/53 71/184/53 51/180/53
f 51/180/53 34/182/53 38/187/53
f 34/182/53 35/188/53 38/187/53
f 35/188/53 36/189/53 37/190/53
f 35/188/53 37/190/53 38/187/53
f 49/191/53 50/186/53 51/180/53
f 47/192/53 48/193/53 49/191/53
f 44/149/53 45/194/53 46/195/53
f 46/195/53 47/192/53 49/191/53
f 39/150/53 40/196/53 41/197/53
f 51/180/53 38/187/53 49/191/53
f 38/187/53 39/150/53 49/191/53
f 46/195/53 49/191/53 44/149/53
f 44/149/53 49/191/53 39/150/53
f 42/148/53 43/198/53 44/149/53
f 39/150/53 41/197/53 42/148/53
f 53/199/55 70/200/55 55/201/55
f 70/200/81 111/202/81 112/203/81
f 55/201/82 70/200/82 112/203/82
f 113/204/83 68/205/83 109/151/83
f 111/202/55 109/151/55 112/203/55
f 55/201/55 54/206/55 53/199/55
f 58/207/55 57/208/55 56/209/55
f 112/203/84 58/207/84 56/209/84
f 56/209/85 55/201/85 112/203/85
f 68/205/55 67/210/55 66/211/55
f 60/212/86 59/213/86 61/214/86
f 59/213/87 110/215/87 61/214/87
f 110/216/55 112/203/55 109/151/55
f 109/151/88 68/205/88 65/152/88
f 68/205/55 66/211/55 65/152/55
f 65/152/55 64/217/55 63/153/55
f 110/216/89 109/151/89 63/153/89
f 61/218/90 110/216/90 63/153/90
f 63/153/91 62/219/91 61/218/91
f 111/220/92 70/221/92 95/222/92
f 70/221/43 107/223/43 95/222/43
f 105/224/43 103/225/43 99/226/43
f 103/225/43 101/227/43 99/226/43
f 107/223/43 105/224/43 95/222/43
f 73/156/93 113/228/93 109/229/93
f 109/229/94 111/220/94 83/154/94
f 99/226/43 97/230/43 95/222/43
f 93/231/43 91/232/43 89/233/43
f 105/224/43 99/226/43 95/222/43
f 93/231/43 89/233/43 87/234/43
f 111/220/95 95/222/95 83/154/95
f 95/222/43 93/235/43 83/154/43
f 93/235/43 87/236/43 83/154/43
f 87/236/43 85/237/43 83/154/43
f 83/154/43 81/238/43 79/155/43
f 79/155/43 77/239/43 75/240/43
f 73/156/96 109/229/96 83/154/96
f 79/155/43 75/240/43 73/156/43
f 113/204/97 69/241/97 68/205/97
f 73/156/98 69/242/98 113/228/98
