# Blender 4.4.3
# www.blender.org
mtllib t_skala_2_s.mtl
o t_skala_2
v -0.060318 20.109398 -0.252250
v 0.202960 2.302616 -4.197873
v -0.950623 19.403023 1.053258
v -0.222600 19.316055 -2.051728
v 1.678589 19.468159 0.729771
v -0.044007 1.846076 -3.925872
v -2.057180 7.529384 2.649537
v -1.983228 1.841965 3.238235
v -1.542310 1.448138 3.342569
v 3.218280 3.398137 0.815622
v -1.805529 18.856480 -0.852123
v -0.075193 18.804464 2.091720
v 2.457128 18.604149 -1.558597
v -1.518180 6.769087 3.386979
v -1.959740 4.832813 3.531786
v 2.896725 3.141516 1.380179
v 3.260104 3.142363 0.158115
v 0.247136 0.985231 -3.904541
v 0.663919 0.496132 -3.697184
v -1.573382 0.250255 2.251399
v -1.545441 0.610750 2.754215
v -1.976958 0.498030 2.041864
v 2.290730 0.350492 -0.576048
v 2.834571 0.984645 0.633271
v 2.308314 0.562627 1.026171
v -0.683950 4.580009 -0.477686
v 1.047094 0.009614 -1.141763
v 0.390551 -0.272571 1.014075
v -0.742712 5.288198 -0.312704
v -0.574904 6.319026 -0.662791
v -0.369734 6.886767 -1.118286
v -0.291085 7.686029 -1.616751
v -0.156248 8.742951 -1.888990
v -0.333557 9.385252 -1.450429
v -0.499819 10.041625 -1.037049
v -0.955784 10.448144 0.041376
v -1.293006 9.916470 0.805957
v -1.466251 8.912763 1.169787
v -1.470797 8.209047 1.152477
v -1.342420 7.810825 0.837595
v -1.138990 7.695448 0.359072
v -0.729543 7.783924 -0.131537
v -1.140577 8.153034 0.380912
v -1.199339 8.861224 0.545894
v -1.085532 9.227479 0.295268
v -0.799505 9.115177 -0.375572
v -0.550192 8.309421 -0.755857
v -0.637337 7.602632 -0.580850
v -0.749408 6.981922 -0.229949
v -0.914585 5.903379 0.112116
v -0.891598 5.200689 0.030701
v -0.810044 4.793893 -0.175433
v -1.066738 4.733306 -0.585438
v -1.030990 5.156232 -0.459449
v -1.208525 5.196013 -0.093403
v -1.204779 5.123005 -0.134569
v -1.168763 5.474843 -0.042048
v -1.057042 4.574504 -0.623782
v -1.153999 4.788818 -0.310120
v -0.431393 8.751064 -2.009728
v -0.547373 7.693586 -1.729213
v -0.724707 6.881530 -1.257287
v -0.816237 8.331264 -0.913802
v -0.575521 9.392387 -1.556606
v -0.710446 10.047835 -1.129475
v -1.039190 5.283823 -0.428800
v -0.896395 6.314282 -0.788682
v -1.037623 6.977670 -0.342809
v -0.925382 7.462142 -0.643085
v -0.891837 7.623526 -0.731942
v -0.921414 8.874086 -0.579140
v -0.962351 9.119979 -0.447031
v -1.144540 8.015132 0.023353
v -1.177353 7.732378 0.103593
v -1.249238 7.698699 0.310693
v -1.248664 8.156222 0.333482
v -1.028188 7.831475 -0.324587
v -1.294386 8.864026 0.504186
v -1.521792 8.210551 1.130100
v -1.515125 8.914204 1.148340
v -1.417163 7.813029 0.804797
v -1.367571 9.918669 0.773238
v -1.178446 5.899487 0.008792
v -1.198664 9.230815 0.245624
v -1.086221 10.451990 -0.015861
v -1.217021 4.593804 -0.689705
v -1.252793 5.301191 -0.515575
v -1.344748 4.808294 -0.388581
v -0.934791 4.575377 -0.556866
v -1.062518 4.789867 -0.255743
v -1.134650 5.196578 -0.046072
v -0.970563 5.282765 -0.382737
v -0.749239 6.310444 -0.710406
v -1.132030 5.898196 0.045689
v -1.031469 6.328872 -0.843245
v -0.787900 6.893996 -1.282342
v -1.414261 5.916624 -0.087150
v -1.193914 6.991954 -0.406134
v -0.973411 7.644998 -0.784027
v -0.911684 6.973528 -0.273295
v -0.691181 7.626572 -0.651188
v -0.569553 8.331421 -0.811826
v -0.505670 6.875569 -1.149503
v -0.245876 7.686337 -1.588998
v -0.059113 8.740322 -1.839589
v -0.528105 7.704763 -1.721836
v -0.341343 8.758749 -1.972428
v -0.507618 9.401294 -1.530025
v -0.851783 8.349848 -0.944665
v -1.020990 9.135347 -0.476202
v -0.738760 9.116920 -0.343364
v -1.043046 9.231262 0.318985
v -0.225388 9.382868 -1.397187
v -0.379193 10.039373 -0.979344
v -0.855384 10.448739 0.089162
v -1.240051 9.920651 0.833174
v -1.137614 10.467166 -0.043677
v -1.522281 9.939078 0.700336
v -1.748414 8.938513 1.041984
v -1.462386 8.884977 0.426861
v -1.325276 9.249689 0.186146
v -1.180156 8.866549 0.559699
v -1.144384 8.159162 0.385569
v -1.466184 8.920087 1.174822
v -1.498556 8.217660 1.146161
v -1.375560 7.819140 0.829561
v -1.780786 8.236087 1.013323
v -1.657790 7.837568 0.696722
v -1.442761 7.720803 0.223673
v -1.426614 8.177588 0.252731
v -1.139531 7.865258 -0.400534
v -0.857301 7.846830 -0.267696
v -1.160531 7.702376 0.356511
v -0.661422 10.057800 -1.112183
v -1.416880 5.215005 -0.178911
vn -0.5470 0.8263 -0.1343
vn -0.5390 0.8271 -0.1594
vn -0.5905 0.8064 0.0336
vn 0.7345 0.0429 0.6773
vn 0.9785 -0.1027 0.1787
vn 0.9176 -0.0844 0.3883
vn 0.0381 0.8736 0.4852
vn 0.0383 0.8726 0.4869
vn 0.0396 0.8673 0.4962
vn 0.3748 0.8758 -0.3040
vn 0.3851 0.8690 -0.3107
vn 0.5032 0.7731 -0.3862
vn -0.3053 -0.0906 0.9479
vn 0.4805 0.0375 0.8762
vn 0.4010 -0.0137 0.9160
vn -0.7081 0.1585 0.6880
vn -0.7196 0.1679 0.6738
vn -0.6864 0.1934 0.7010
vn 0.4181 -0.2617 0.8699
vn 0.2827 -0.6516 0.7039
vn 0.5012 -0.3490 0.7919
vn -0.8924 0.1684 -0.4187
vn -0.9025 0.1424 -0.4065
vn -0.9204 -0.0316 -0.3896
vn -0.9455 0.0391 -0.3232
vn -0.8957 0.1575 -0.4158
vn 0.8714 -0.2062 0.4451
vn -0.3852 -0.8927 -0.2341
vn -0.4031 -0.8935 -0.1979
vn -0.2876 -0.9451 -0.1550
vn -0.9985 -0.0143 0.0532
vn -0.9615 0.0166 -0.2744
vn -0.8603 -0.4459 -0.2472
vn -0.3505 -0.3321 -0.8757
vn -0.5702 -0.7771 -0.2663
vn -0.7946 -0.5040 -0.3385
vn -0.6797 -0.5394 0.4971
vn -0.6263 -0.6167 0.4769
vn -0.6862 -0.4995 0.5289
vn 0.8374 -0.5000 -0.2208
vn 0.8553 -0.1993 -0.4782
vn 0.8593 -0.1181 -0.4976
vn -0.4785 0.8186 -0.3177
vn 0.7728 -0.2275 0.5925
vn 0.0367 0.8789 0.4756
vn 0.2913 0.9235 -0.2496
vn 0.5811 0.0239 0.8135
vn 0.6105 0.0120 0.7920
vn -0.8397 0.1485 0.5223
vn 0.3569 -0.6105 0.7070
vn -0.9522 0.0155 -0.3049
vn -0.9179 0.1357 0.3729
vn -0.5421 -0.2372 -0.8062
vn -0.9454 0.0174 -0.3253
vn 0.6635 -0.7426 0.0910
vn 0.5176 -0.8489 0.1067
vn 0.4062 -0.9127 0.0453
vn 0.3448 -0.9376 0.0447
vn 0.1448 -0.8079 0.5712
vn 0.2810 -0.9589 -0.0399
vn -0.9998 0.0094 -0.0158
vn -0.6758 0.2070 0.7074
vn 0.2122 0.1275 -0.9689
vn 0.8207 -0.0138 -0.5712
vn 0.7447 0.0051 -0.6674
vn 0.6029 0.1847 -0.7762
vn -0.5767 -0.4682 0.6695
vn -0.6389 -0.4674 0.6111
vn 0.9546 0.0920 0.2833
vn 0.9528 0.0928 0.2891
vn 0.8058 -0.1277 -0.5783
vn 0.9257 -0.2459 -0.2874
vn 0.5741 0.0159 -0.8186
vn 0.3874 0.1063 -0.9158
vn -0.9062 -0.0849 -0.4142
vn 0.4651 0.5281 -0.7104
vn 0.4758 -0.2662 -0.8383
vn 0.4100 -0.5038 -0.7603
vn 0.3483 -0.3314 -0.8769
vn 0.3605 0.1190 -0.9251
vn 0.3140 0.4785 -0.8200
vn 0.1888 0.8370 -0.5136
vn -0.3509 -0.2400 0.9051
vn -0.3458 0.3517 0.8699
vn -0.2823 0.6603 0.6959
vn -0.3284 0.5272 0.7837
vn -0.3794 0.2759 0.8831
vn -0.3383 -0.5926 0.7311
vn -0.3464 -0.5612 0.7517
vn -0.1552 -0.9443 0.2903
vn 0.1948 -0.8435 -0.5006
vn 0.3637 -0.3723 -0.8539
vn 0.4022 0.0199 -0.9153
vn 0.3217 0.6489 -0.6895
vn 0.1113 0.9758 -0.1880
vn 0.0076 0.9736 0.2280
vn -0.1830 -0.9166 0.3555
vn -0.3961 -0.2394 0.8865
vn -0.3064 0.6006 0.7385
vn 0.0857 0.9880 -0.1289
vn -0.9333 0.0602 -0.3540
vn -0.7699 0.0278 -0.6375
vn -0.9188 0.0156 -0.3944
vn -0.9407 -0.0288 -0.3381
vn -0.9484 0.0400 -0.3144
vn -0.9401 -0.1089 -0.3230
vn -0.9486 0.0392 -0.3139
vn -0.9203 -0.0530 -0.3877
vn 0.3629 0.4872 -0.7943
vn 0.3112 -0.5517 -0.7738
vn -0.3172 0.5241 0.7904
vn -0.0359 0.9883 0.1483
vn -0.3579 -0.8699 0.3395
vn -0.9032 0.0590 -0.4251
vn 0.4264 0.2365 -0.8731
vn -0.2785 -0.8342 0.4760
vn -0.3999 -0.4750 0.7838
vn 0.9032 -0.0590 0.4251
vn 0.3792 -0.3542 -0.8548
vn 0.2835 -0.6616 -0.6942
vn -0.3248 0.5535 0.7669
vn -0.3835 0.3340 0.8610
vn -0.3958 0.2685 0.8782
vn 0.3327 -0.5296 -0.7803
vn 0.3941 -0.2781 -0.8760
vn 0.3752 0.5896 -0.7153
vn -0.3887 -0.5323 0.7521
vn -0.1188 -0.9862 0.1157
vn 0.1913 0.9420 -0.2757
vn -0.1824 0.8438 0.5046
vn -0.3748 0.3743 0.8482
vn 0.3075 -0.6020 -0.7369
vn -0.4267 -0.0172 0.9042
vn -0.3592 -0.6460 0.6736
vn -0.1456 -0.9739 0.1742
vn 0.2199 0.9142 -0.3404
vn 0.0347 -0.9772 -0.2093
vn 0.3829 0.5582 -0.7361
vn -0.4292 -0.1156 0.8958
vt 0.652022 0.749107
vt 0.654873 0.733395
vt 0.662674 0.747411
vt 0.745434 0.895972
vt 0.566435 0.904999
vt 0.694144 0.895463
vt 0.656336 0.777037
vt 0.638980 0.726595
vt 0.787978 0.661121
vt 0.798659 0.679302
vt 0.769913 0.698312
vt 0.752422 0.730774
vt 0.670088 0.753714
vt 0.738393 0.686712
vt 0.800540 0.573382
vt 0.840672 0.837773
vt 0.667022 0.628341
vt 0.513129 0.608930
vt 0.520617 0.605847
vt 0.696405 0.631761
vt 0.695866 0.635903
vt 0.696515 0.633276
vt 0.779100 0.588946
vt 0.461973 0.573382
vt 0.774912 0.593773
vt 0.486944 0.594510
vt 0.504963 0.599321
vt 0.789419 0.618276
vt 0.645781 0.999798
vt 0.632859 0.786753
vt 0.687070 0.628135
vt 0.698950 0.684461
vt 0.707720 0.680086
vt 0.423858 0.641189
vt 0.434705 0.651634
vt 0.405617 0.663016
vt 0.446874 0.690114
vt 0.403035 0.690114
vt 0.452576 0.847581
vt 0.660520 0.658311
vt 0.670550 0.666964
vt 0.641597 0.665724
vt 0.668041 0.658784
vt 0.671600 0.663970
vt 0.672914 0.653580
vt 0.675333 0.647523
vt 0.675210 0.652408
vt 0.665703 0.652632
vt 0.683505 0.648655
vt 0.687592 0.639438
vt 0.695195 0.640260
vt 0.686944 0.633898
vt 0.681875 0.630826
vt 0.674946 0.629690
vt 0.667128 0.627082
vt 0.667754 0.631718
vt 0.675459 0.634633
vt 0.653871 0.640777
vt 0.667727 0.632953
vt 0.662154 0.642308
vt 0.637695 0.645268
vt 0.633586 0.652853
vt 0.623808 0.652414
vt 0.627429 0.660775
vt 0.618839 0.661971
vt 0.635511 0.666921
vt 0.650124 0.672492
vt 0.653461 0.671646
vt 0.680365 0.681454
vt 0.680107 0.680221
vt 0.697850 0.683433
vt 0.706798 0.679330
vt 0.708456 0.673376
vt 0.702480 0.666144
vt 0.703365 0.665880
vt 0.694263 0.659842
vt 0.694546 0.658542
vt 0.686787 0.659122
vt 0.681760 0.656573
vt 0.690367 0.657050
vt 0.693127 0.664733
vt 0.690992 0.664892
vt 0.685030 0.661783
vt 0.692265 0.671339
vt 0.687312 0.673433
vt 0.686755 0.672273
vt 0.672873 0.666388
vt 0.707408 0.673002
vt 0.693951 0.672330
vt 0.647978 0.646903
vt 0.277700 0.512776
vt 0.279233 0.553799
vt 0.264773 0.538440
vt 0.778077 0.485290
vt 0.800847 0.512769
vt 0.797100 0.528306
vt 0.816471 0.505567
vt 0.828479 0.512408
vt 0.818324 0.483014
vt 0.794550 0.480927
vt 0.765593 0.425924
vt 0.779542 0.420999
vt 0.820607 0.448348
vt 0.251532 0.481047
vt 0.293267 0.453003
vt 0.263745 0.420823
vt 0.313857 0.419584
vt 0.748787 0.392827
vt 0.283743 0.379507
vt 0.823835 0.384844
vt 0.792192 0.345142
vt 0.805871 0.340409
vt 0.835034 0.447333
vt 0.809817 0.388211
vt 0.775270 0.298696
vt 0.739039 0.347042
vt 0.761698 0.386360
vt 0.726357 0.354206
vt 0.695619 0.311553
vt 0.709363 0.306913
vt 0.370256 0.341215
vt 0.337314 0.380526
vt 0.302470 0.334257
vt 0.362431 0.306040
vt 0.696970 0.273264
vt 0.311681 0.265214
vt 0.789699 0.295581
vt 0.767604 0.231358
vt 0.782323 0.230854
vt 0.771604 0.175320
vt 0.706771 0.188027
vt 0.712506 0.271772
vt 0.700522 0.239380
vt 0.692693 0.184020
vt 0.715351 0.146555
vt 0.728596 0.153151
vt 0.351198 0.188964
vt 0.374170 0.223609
vt 0.309173 0.209504
vt 0.335850 0.150574
vt 0.300760 0.168478
vt 0.738245 0.108170
vt 0.786340 0.177420
vt 0.783787 0.138937
vt 0.797587 0.144828
vt 0.810232 0.092092
vt 0.765357 0.087903
vt 0.751242 0.114830
vt 0.752854 0.080571
vt 0.767597 0.060158
vt 0.777852 0.070462
vt 0.311393 0.102959
vt 0.325198 0.121453
vt 0.282577 0.121220
vt 0.288146 0.095770
vt 0.791443 0.045884
vt 0.251532 0.090865
vt 0.829433 0.098070
vt 0.825103 0.060350
vt 0.835034 0.047090
vt 0.795806 0.059793
vt 0.378850 0.275834
vt 0.686130 0.239927
vt 0.257032 0.516615
vt 0.832887 0.485325
s 1
usemtl t_skaly_1
f 1/1/1 11/2/2 3/3/3
f 16/4/4 17/5/5 10/6/6
f 3/3/7 5/7/8 1/1/9
f 5/7/10 4/8/11 1/1/12
f 8/9/13 9/10/13 15/11/13
f 14/12/14 15/11/15 16/4/4
f 12/13/16 7/14/17 14/12/18
f 9/10/19 28/15/20 25/16/21
f 53/17/22 2/18/23 6/19/24
f 56/20/25 57/21/26 55/22/27
f 28/15/28 20/23/29 27/24/30
f 15/11/31 7/14/32 22/25/33
f 2/18/34 19/26/34 6/19/34
f 19/26/35 22/25/33 18/27/36
f 22/25/37 20/23/38 21/28/39
f 27/24/40 19/26/41 17/5/42
f 1/1/1 4/8/43 11/2/2
f 16/4/4 24/29/44 17/5/5
f 3/3/7 12/13/45 5/7/8
f 5/7/10 13/30/46 4/8/11
f 15/11/15 9/10/19 16/4/4
f 9/10/19 25/16/21 16/4/4
f 25/16/21 24/29/44 16/4/4
f 16/4/4 10/6/6 14/12/14
f 10/6/6 5/7/47 14/12/14
f 5/7/47 12/13/48 14/12/14
f 3/3/49 7/14/17 12/13/16
f 9/10/19 21/28/50 28/15/20
f 18/27/36 22/25/33 6/19/24
f 22/25/33 56/20/25 59/31/51
f 3/3/49 11/2/52 7/14/17
f 11/2/53 4/8/53 7/14/53
f 82/32/54 80/33/54 7/14/32
f 24/34/55 25/35/56 23/36/57
f 25/35/56 28/37/58 23/36/57
f 28/15/20 21/28/50 20/23/59
f 20/23/29 19/26/35 27/24/30
f 27/38/60 23/36/57 28/37/58
f 22/25/33 8/9/61 15/11/31
f 15/11/62 14/12/18 7/14/17
f 2/18/63 4/8/63 13/30/63
f 13/30/64 19/26/41 2/18/65
f 19/26/66 18/27/66 6/19/66
f 19/26/35 20/23/29 22/25/33
f 9/10/67 8/9/68 21/28/39
f 8/9/68 22/25/37 21/28/39
f 19/26/41 13/30/64 17/5/42
f 13/30/69 5/7/70 10/6/6
f 17/5/5 13/30/69 10/6/6
f 17/5/71 24/29/72 23/39/73
f 23/39/73 27/24/74 17/5/71
s 0
f 47/40/75 46/41/75 34/42/75
f 47/40/76 63/43/76 71/44/76
f 47/40/77 70/45/77 63/43/77
f 49/46/78 69/47/78 48/48/78
f 68/49/79 50/50/79 83/51/79
f 51/52/80 55/22/80 57/21/80
f 52/53/81 59/31/81 56/20/81
f 59/31/82 26/54/82 58/55/82
f 54/56/83 53/17/83 26/54/83
f 29/57/84 67/58/84 66/59/84
f 30/60/85 62/61/85 67/58/85
f 62/61/86 32/62/86 61/63/86
f 61/63/87 33/64/87 60/65/87
f 33/64/88 64/66/88 60/65/88
f 34/42/89 65/67/89 64/66/89
f 35/68/90 85/69/90 65/67/90
f 36/70/91 82/32/91 85/69/91
f 37/71/92 80/33/92 82/32/92
f 38/72/93 79/73/93 80/33/93
f 79/73/94 40/74/94 81/75/94
f 81/75/95 41/76/95 75/77/95
f 42/78/96 77/79/96 74/80/96
f 43/81/97 76/82/97 73/83/97
f 43/81/98 78/84/98 76/82/98
f 78/84/99 45/85/99 84/86/99
f 84/86/100 46/41/100 72/87/100
s 1
f 53/17/22 54/56/101 2/18/23
f 56/20/25 7/14/32 57/21/26
f 58/55/51 53/17/22 6/19/24
f 22/25/33 7/14/32 56/20/25
f 59/31/51 58/55/51 22/25/33
f 58/55/51 6/19/24 22/25/33
f 78/84/54 84/86/54 72/87/54
f 71/44/54 63/43/54 77/79/54
f 63/43/54 70/45/54 77/79/54
f 78/84/54 72/87/54 71/44/54
f 73/83/54 76/82/54 71/44/54
f 76/82/54 78/84/54 71/44/54
f 77/79/54 73/83/54 71/44/54
f 70/45/54 69/47/54 77/79/54
f 69/47/54 68/49/54 77/79/54
f 77/79/54 68/49/54 74/80/54
f 83/51/54 57/21/26 7/14/32
f 68/49/54 83/51/54 75/77/54
f 83/51/54 7/14/32 81/75/54
f 75/77/54 83/51/54 81/75/54
f 2/18/23 54/56/101 62/61/54
f 54/56/101 66/59/54 67/58/54
f 62/61/54 54/56/101 67/58/54
f 62/61/54 61/63/54 2/18/23
f 60/65/54 64/66/54 4/8/54
f 64/66/54 65/67/54 4/8/54
f 2/18/23 61/63/54 60/65/54
f 75/77/54 74/80/54 68/49/54
f 4/8/54 2/18/23 60/65/54
f 79/73/54 81/75/54 7/14/32
f 4/8/54 65/67/54 85/69/54
f 4/8/54 85/69/54 82/32/54
f 80/33/54 79/73/54 7/14/32
f 4/8/54 82/32/54 7/14/32
s 0
f 43/81/102 42/78/102 41/76/102
f 41/76/103 40/74/103 43/81/103
f 40/74/103 39/88/103 43/81/103
f 39/88/103 38/72/103 44/89/103
f 38/72/103 37/71/103 44/89/103
f 37/71/103 36/70/103 45/85/103
f 36/70/103 35/68/103 46/41/103
f 34/42/104 33/64/104 47/40/104
f 33/64/105 32/62/105 47/40/105
f 36/70/103 46/41/103 45/85/103
f 35/68/103 34/42/103 46/41/103
f 44/89/103 43/81/103 39/88/103
f 32/62/106 31/90/106 48/48/106
f 32/62/107 48/48/107 47/40/107
f 31/90/103 30/60/103 49/46/103
f 48/48/108 31/90/108 49/46/108
f 45/85/103 44/89/103 37/71/103
f 30/60/103 29/57/103 50/50/103
f 29/57/103 26/54/103 52/53/103
f 52/53/103 51/52/103 29/57/103
f 51/52/103 50/50/103 29/57/103
f 50/50/103 49/46/103 30/60/103
f 71/44/109 72/87/109 46/41/109
f 46/41/109 47/40/109 71/44/109
f 47/40/77 48/48/77 70/45/77
f 68/49/110 69/47/110 49/46/110
f 69/47/78 70/45/78 48/48/78
f 68/49/79 49/46/79 50/50/79
f 57/21/80 83/51/80 50/50/80
f 50/50/80 51/52/80 57/21/80
f 56/20/81 55/22/81 51/52/81
f 51/52/81 52/53/81 56/20/81
f 59/31/82 52/53/82 26/54/82
f 53/17/83 58/55/83 26/54/83
f 26/54/83 29/57/83 54/56/83
f 29/57/83 66/59/83 54/56/83
f 29/57/84 30/60/84 67/58/84
f 30/60/85 31/90/85 62/61/85
f 62/61/111 31/90/111 32/62/111
f 61/63/87 32/62/87 33/64/87
f 33/64/88 34/42/88 64/66/88
f 34/42/89 35/68/89 65/67/89
f 35/68/90 36/70/90 85/69/90
f 36/70/91 37/71/91 82/32/91
f 37/71/92 38/72/92 80/33/92
f 38/72/93 39/88/93 79/73/93
f 79/73/94 39/88/94 40/74/94
f 81/75/95 40/74/95 41/76/95
f 74/80/112 75/77/112 41/76/112
f 41/76/112 42/78/112 74/80/112
f 73/83/113 77/79/113 42/78/113
f 42/78/113 43/81/113 73/83/113
f 43/81/98 44/89/98 78/84/98
f 78/84/99 44/89/99 45/85/99
f 84/86/100 45/85/100 46/41/100
usemtl t_zawijasy_szare
f 87/91/114 86/92/114 88/93/114
f 87/94/115 89/95/115 86/96/115
f 86/96/116 90/97/116 88/98/116
f 86/96/116 89/95/116 90/97/116
f 88/98/117 90/97/117 91/99/117
f 91/99/118 90/97/118 92/100/118
f 90/97/118 89/95/118 92/100/118
f 87/94/115 92/100/115 89/95/115
f 95/101/119 93/102/119 92/100/119
f 93/102/118 94/103/118 92/100/118
f 95/101/119 92/100/119 87/94/119
f 94/103/118 91/99/118 92/100/118
f 97/104/114 95/105/114 87/91/114
f 95/105/114 98/106/114 96/107/114
f 96/108/120 93/102/120 95/101/120
f 97/104/114 98/106/114 95/105/114
f 98/106/114 99/109/114 96/107/114
f 98/110/121 101/111/121 99/112/121
f 97/113/122 100/114/122 98/110/122
f 98/110/121 100/114/121 101/111/121
f 99/112/123 101/111/123 102/115/123
f 101/111/118 104/116/118 102/115/118
f 101/111/118 100/114/118 103/117/118
f 103/117/118 104/116/118 101/111/118
f 106/118/124 104/116/124 103/117/124
f 107/119/125 105/120/125 104/116/125
f 104/116/118 105/120/118 102/115/118
f 107/119/125 104/116/125 106/118/125
f 107/121/114 106/122/114 109/123/114
f 108/124/114 107/121/114 109/123/114
f 108/125/126 105/120/126 107/119/126
f 110/126/114 108/124/114 109/123/114
f 109/127/127 111/128/127 110/129/127
f 99/109/114 109/123/114 106/122/114
f 99/112/123 102/115/123 109/127/123
f 109/127/127 102/115/127 111/128/127
f 110/129/128 111/128/128 112/130/128
f 115/131/118 112/130/118 111/128/118
f 102/115/118 113/132/118 111/128/118
f 113/132/118 114/133/118 111/128/118
f 114/133/118 115/131/118 111/128/118
f 117/134/129 115/131/129 114/133/129
f 118/135/130 116/136/130 115/131/130
f 115/131/118 116/136/118 112/130/118
f 118/135/130 115/131/130 117/134/130
f 118/137/114 117/138/114 121/139/114
f 119/140/114 118/137/114 120/141/114
f 119/142/131 116/136/131 118/135/131
f 121/139/114 120/141/114 118/137/114
f 121/143/132 122/144/132 120/145/132
f 117/138/114 110/126/114 121/139/114
f 110/129/128 112/130/128 121/143/128
f 121/143/132 112/130/132 122/144/132
f 120/145/115 122/144/115 123/146/115
f 125/147/118 123/146/118 122/144/118
f 116/136/118 122/144/118 112/130/118
f 116/136/118 124/148/118 122/144/118
f 124/148/118 125/147/118 122/144/118
f 127/149/133 125/147/133 124/148/133
f 128/150/134 126/151/134 125/147/134
f 125/147/118 126/151/118 123/146/118
f 128/150/134 125/147/134 127/149/134
f 128/152/114 127/153/114 130/154/114
f 129/155/114 128/152/114 130/154/114
f 129/156/135 126/151/135 128/150/135
f 131/157/114 129/155/114 130/154/114
f 130/158/136 132/159/136 131/160/136
f 130/154/114 127/153/114 120/141/114
f 120/145/115 123/146/115 130/158/115
f 130/158/136 123/146/136 132/159/136
f 131/160/137 132/159/137 133/161/137
f 133/161/118 132/159/118 123/146/118
f 129/156/135 133/161/135 126/151/135
f 126/151/118 133/161/118 123/146/118
f 131/160/137 133/161/137 129/156/137
f 127/153/114 119/140/114 120/141/114
f 127/149/133 124/148/133 119/142/133
f 119/142/131 124/148/131 116/136/131
f 117/138/114 134/162/114 110/126/114
f 117/134/129 114/133/129 134/163/129
f 134/162/114 108/124/114 110/126/114
f 134/163/138 113/132/138 108/125/138
f 134/163/138 114/133/138 113/132/138
f 108/125/126 113/132/126 105/120/126
f 105/120/118 113/132/118 102/115/118
f 106/122/114 96/107/114 99/109/114
f 106/118/124 103/117/124 96/108/124
f 96/108/120 103/117/120 93/102/120
f 93/102/118 103/117/118 100/114/118
f 97/113/122 94/103/122 100/114/122
f 100/114/118 94/103/118 93/102/118
f 135/164/114 97/104/114 87/91/114
f 135/165/139 94/103/139 97/113/139
f 88/93/114 135/164/114 87/91/114
f 88/98/117 91/99/117 135/165/117
f 135/165/139 91/99/139 94/103/139
