# Blender 4.4.3
# www.blender.org
mtllib 2.mtl
o alpha_color.003
v -0.500000 0.000000 0.507989
v 0.500000 0.000000 0.507989
v -0.500000 0.000000 -0.492011
v 0.500000 0.000000 -0.492011
v 0.000000 0.126127 0.007989
v -0.498758 -0.009845 0.506747
v 0.498758 -0.009845 0.506747
v -0.498758 -0.009845 -0.490769
v 0.498758 -0.009845 -0.490769
v 0.000000 0.116127 0.007989
vn 0.2446 0.9696 -0.0000
vn -0.2446 0.9696 -0.0000
vn -0.0000 0.9696 -0.2446
vn -0.0000 0.9696 0.2446
vn -0.2449 -0.9696 -0.0000
vn 0.2449 -0.9696 -0.0000
vn -0.0000 -0.9696 0.2449
vn -0.0000 -0.9696 -0.2449
vn -0.9921 -0.1251 -0.0000
vn -0.0000 -0.1251 0.9921
vn 0.9921 -0.1251 -0.0000
vn -0.0000 -0.1251 -0.9921
vt 1.000000 0.000000
vt 1.000000 1.000000
vt 0.500000 0.500000
vt 0.000000 1.000000
vt 0.000000 0.000000
s 0
usemtl alpha_color_1
f 2/1/1 4/2/1 5/3/1
f 3/4/2 1/5/2 5/3/2
f 4/2/3 3/4/3 5/3/3
f 1/5/4 2/1/4 5/3/4
f 7/1/5 10/3/5 9/2/5
f 8/4/6 10/3/6 6/5/6
f 9/2/7 10/3/7 8/4/7
f 6/5/8 10/3/8 7/1/8
f 3/4/9 6/5/9 1/5/9
f 1/5/10 7/1/10 2/1/10
f 2/1/11 9/2/11 4/2/11
f 4/2/12 8/4/12 3/4/12
f 3/4/9 8/4/9 6/5/9
f 1/5/10 6/5/10 7/1/10
f 2/1/11 7/1/11 9/2/11
f 4/2/12 9/2/12 8/4/12
