# Blender 4.4.3
# www.blender.org
mtllib glazy_1.2.mtl
o rock.015
v 8.705361 0.587758 -18.287544
v 10.069304 0.587758 -22.168770
v 10.505496 1.140880 -18.505068
v 5.317985 0.587758 -17.687496
v 11.216596 0.587758 -20.870781
v 8.162028 1.732717 -16.946556
v 5.141072 0.587758 -19.288977
v 4.640674 0.587759 -24.458185
v 1.941730 0.587759 -20.919262
v 1.158157 0.587759 -21.813492
v 3.708340 3.904391 -18.557014
v 3.987979 5.215789 -22.174860
v 6.248699 4.674914 -17.442081
v 5.017768 5.673863 -19.168406
v 7.879983 6.386176 -19.924204
v 5.757253 6.998467 -22.304218
v 8.647962 6.384764 -22.838955
v 6.120170 6.728144 -24.316477
v 3.072953 5.529545 -26.220440
v 3.556984 4.867453 -27.563221
v 2.661214 2.954915 -26.707518
v 2.311613 2.688528 -23.864853
v 4.314892 1.624186 -28.482491
v 3.726469 0.587759 -25.908499
v 6.394396 0.587758 -27.975697
v 6.831605 1.246687 -28.308350
v 7.887885 0.587758 -24.319815
v 9.337508 0.587759 -25.508690
v 11.355783 0.587759 -23.144751
v 10.972117 3.077084 -24.259312
v 11.377469 3.203069 -21.973415
v 9.547228 4.362266 -25.030548
v 6.210704 2.623979 -28.331150
v 11.703359 1.800824 -20.446638
v 9.332593 5.173954 -19.330990
v 9.711674 3.074773 -17.793465
v 0.878342 20.605238 -7.845652
v 1.068653 0.265133 -18.899313
v -17.809128 6.101818 -12.843405
v -16.370117 3.770697 -1.936092
v -15.535403 0.858771 -2.853940
v -15.990070 16.857914 -10.345531
v -18.009647 16.091389 -8.986061
v -11.415146 15.702414 0.369166
v 3.151494 18.205795 -9.975935
v 6.419190 11.505931 -9.517401
v 4.247513 12.738346 -2.629303
v 5.660224 0.265133 1.741566
v 6.874476 0.265133 -8.508817
v -5.925724 -0.039157 3.612055
v -17.234325 0.284068 -9.050742
v -14.064712 0.265133 0.349151
v -16.403412 17.778545 -6.623512
v -9.045526 17.923780 -1.466302
v 5.886318 12.936049 -4.755280
v 7.456276 2.433549 -7.005619
v 2.882222 7.202385 -17.804522
v 4.481578 0.265132 -15.553743
v 0.311977 8.206400 -18.404629
v -1.207630 1.171372 -19.207203
v -14.613696 6.907703 -14.236982
v -16.280884 13.950176 -11.406898
v -8.402188 16.936203 -0.449170
v -12.741673 11.931365 2.309306
v -19.975525 4.635417 -9.498966
v -19.384762 9.699766 -4.385018
v -19.430443 4.596267 -11.080281
v -17.724041 15.824396 -4.992643
v -19.023556 14.231974 -6.998981
v -15.129444 9.222929 1.737723
v -9.628572 0.265132 3.405128
v 4.601879 0.265133 -8.451129
v -13.757237 0.265133 -10.586060
v 0.047485 0.265132 -17.536449
v 2.296012 0.265133 -13.541839
v -14.426904 18.400631 -9.375145
v 6.915853 3.534743 -1.106496
v 0.507473 20.142723 -9.726033
v -13.222577 8.379514 2.997691
v -14.984330 0.438456 -13.103428
v -12.343098 0.265133 2.370481
v -1.575006 0.265132 15.864511
v -7.099974 0.265133 2.784201
v 4.429697 1.293243 -2.185232
v -3.182797 3.893047 1.151542
v 0.148057 0.265132 3.646275
v -2.728411 8.587034 4.658347
v 4.513369 0.265133 12.490943
v 6.369144 0.265132 1.063950
v 0.654254 0.265133 0.712094
v -3.597061 4.065957 16.567055
v -5.208337 8.784750 13.230197
v 4.812784 3.692638 16.135244
v 6.231680 5.716175 13.583781
v 7.435989 6.924950 7.474968
v -4.748174 10.033112 9.492506
v 2.725355 6.878622 -2.511953
v 7.437285 1.685375 7.233474
v 0.667450 8.232965 -1.499683
v 2.502551 10.826113 4.069759
v 4.162436 0.265132 7.337289
v -7.160320 0.265134 4.899169
v -4.994286 0.265132 10.667795
v 0.856633 9.433874 14.221807
v 4.021458 10.710178 8.821805
v -0.213465 11.256849 11.614719
v 0.464898 3.784249 -2.071918
v 4.562728 1.509018 15.296882
v 7.370856 2.716839 12.410129
v 6.750015 3.123064 -0.064789
v 7.390265 0.854163 0.927091
v -7.246742 7.103084 9.134871
v -0.185546 11.666430 6.133097
v -6.351954 4.102076 12.408171
v 1.064294 2.903495 17.354763
v -0.568084 6.245535 16.981663
v 8.265326 5.013911 10.288312
v 0.501022 1.776925 4.085398
v -0.767718 2.376965 1.421352
v -0.221469 1.776925 1.173966
v -0.856738 2.528186 3.998770
v 0.330571 2.666374 7.036801
v 1.705921 1.776925 -2.796635
v 2.316823 1.776926 7.856448
v 6.523392 1.776926 4.167591
v 5.734845 1.776925 -0.746397
v 5.921472 1.776924 8.949039
v 10.041123 1.776925 9.375626
v 10.281648 1.776926 2.140607
v 11.609197 1.776925 6.906003
v 11.007461 1.776925 8.448435
v 13.398808 1.776925 7.595654
v 15.140130 1.776926 4.490379
v 8.710624 3.500217 10.092675
v 13.435732 4.169004 7.077389
v 9.997377 5.934270 8.195753
v 11.130641 8.199505 5.103078
v 14.055534 6.808194 2.921422
v 15.552566 1.776926 0.671160
v 10.551899 9.152657 0.684364
v 13.621874 4.548347 -2.762589
v 13.411503 1.776925 -4.400537
v 7.743020 3.989933 -7.190709
v 4.407631 5.962844 -4.570301
v 5.212711 3.198566 -7.552878
v 8.910535 1.409516 -7.730712
v 9.650988 1.776925 -5.926889
v 5.502912 1.776925 -6.432071
v 2.280205 3.156547 -5.770973
v -0.344157 3.752211 -0.264131
v 1.925832 6.391788 -2.473921
v 6.060234 9.311199 3.238599
v 1.660230 6.320973 1.846818
v 8.073701 9.742780 1.792433
v 8.361732 9.648941 4.333928
v 7.042965 5.818518 8.926404
v 4.163606 6.765961 6.378789
v 2.530413 2.972524 8.994055
v 5.886228 3.102203 9.998929
v 7.973769 1.776926 -0.805059
v 13.691315 1.776926 3.826950
v -1.941524 1.776924 20.180374
v 0.430298 1.776924 23.541733
v -2.807838 2.330045 21.773270
v -0.466761 1.776923 17.072411
v -1.292430 1.776924 23.724113
v -2.719217 2.921882 18.960272
v 0.940717 1.776923 17.856644
v 5.442796 1.776924 20.445551
v 4.123799 1.776923 16.194838
v 5.306684 1.776923 16.074762
v 1.174867 5.093556 16.264900
v 3.960662 6.404954 18.590054
v -1.206276 5.864079 17.688507
v 0.913954 6.863029 17.686281
v -0.129457 7.575341 20.456625
v 3.040402 8.187633 20.106691
v 1.800346 7.573929 22.772099
v 4.469651 7.917309 21.568928
v 7.787546 6.718710 20.189732
v 8.601077 6.056618 21.362553
v 8.423118 4.144080 20.136597
v 6.309513 3.877692 18.203815
v 8.910752 2.813351 22.513021
v 7.154518 1.776923 20.541395
v 7.292297 1.776922 23.913658
v 7.309899 2.435853 24.462749
v 3.447611 1.776924 23.011238
v 3.575974 1.776925 24.881630
v 0.479767 1.776923 25.155769
v 1.610353 4.266249 25.489267
v -0.487235 4.392235 24.494406
v 3.064793 5.551431 24.775330
v 7.688417 3.813143 23.970039
v -1.920211 2.989990 23.874861
v -1.454914 6.363120 21.296356
v -2.927480 4.263939 20.713919
vn -0.0000 -1.0000 -0.0000
vn 0.3132 -0.8996 0.3045
vn 0.2881 -0.6675 0.6866
vn 0.1191 -0.7308 0.6722
vn -0.7503 -0.0686 0.6575
vn -0.6842 -0.1447 0.7148
vn -0.8421 0.5247 0.1251
vn -0.4115 0.0390 0.9106
vn -0.7641 0.6231 0.1668
vn -0.4686 0.5777 0.6684
vn -0.0680 0.8417 0.5356
vn -0.1353 0.9238 0.3583
vn -0.6987 0.7031 0.1322
vn 0.1895 0.9771 -0.0971
vn 0.2174 0.9744 0.0568
vn -0.2638 0.9486 -0.1750
vn -0.6864 0.6964 0.2093
vn -0.0617 0.8862 -0.4592
vn -0.8777 0.2208 -0.4253
vn -0.8748 0.4259 0.2309
vn -0.9789 0.1762 -0.1039
vn -0.9020 0.4259 -0.0710
vn -0.8496 0.5241 0.0590
vn -0.7390 -0.4890 -0.4635
vn -0.7209 0.0278 -0.6925
vn -0.7913 -0.4828 -0.3753
vn -0.3224 -0.8503 -0.4161
vn -0.0053 -0.4479 -0.8941
vn 0.4984 -0.6309 -0.5946
vn 0.7493 -0.1710 -0.6398
vn 0.7225 -0.1340 -0.6782
vn 0.9814 0.0716 -0.1780
vn 0.7703 0.6145 -0.1705
vn 0.6216 0.2420 -0.7450
vn 0.7224 0.6300 -0.2849
vn 0.4076 0.7483 -0.5234
vn 0.3195 0.6662 -0.6739
vn 0.6067 0.2611 -0.7508
vn 0.3627 0.6557 -0.6622
vn -0.0598 0.2593 -0.9640
vn 0.0714 0.0157 -0.9973
vn 0.9861 0.0610 -0.1545
vn 0.8271 0.4907 0.2741
vn 0.7451 0.6618 0.0830
vn 0.2978 0.6832 0.6668
vn 0.5945 0.7888 0.1562
vn 0.3481 0.5940 0.7252
vn 0.8076 0.4364 0.3967
vn 0.2362 0.3087 0.9214
vn 0.5359 -0.0890 0.8396
vn 0.8224 0.1341 0.5529
vn 0.8196 -0.4520 0.3520
vn 0.9196 -0.3887 0.0563
vn -0.2518 -0.0008 0.9678
vn 0.1756 0.1085 -0.9785
vn -0.0855 0.6873 0.7214
vn 0.6983 -0.0701 -0.7124
vn -0.1527 0.9819 0.1123
vn -0.7852 0.6116 0.0970
vn -0.0055 -1.0000 -0.0002
vn 0.5451 0.7828 -0.3001
vn 0.3315 0.5513 -0.7657
vn 0.0186 -0.9968 -0.0777
vn -0.4642 0.2287 0.8557
vn -0.0536 0.0264 0.9982
vn -0.1462 0.9725 0.1813
vn -0.8570 -0.3614 0.3672
vn -0.8103 0.2544 -0.5279
vn -0.0256 -0.9495 -0.3128
vn -0.8018 -0.5334 0.2693
vn -0.1353 0.5841 -0.8003
vn 0.7839 0.3471 -0.5148
vn -0.4387 0.2437 -0.8650
vn -0.9292 0.1767 -0.3247
vn -0.5946 0.7626 -0.2547
vn 0.7889 0.5876 0.1799
vn 0.9566 -0.2686 0.1133
vn 0.9888 0.1338 0.0656
vn 0.2840 0.2621 0.9223
vn -0.5904 -0.2594 -0.7643
vn 0.6032 0.6039 0.5211
vn -0.8918 0.2773 0.3575
vn -0.3609 0.7919 0.4926
vn 0.3278 0.6156 0.7167
vn -0.0294 -0.9981 -0.0544
vn -0.2301 -0.2939 0.9277
vn -0.8286 0.1058 0.5498
vn 0.3648 0.5108 0.7784
vn 0.4633 0.5507 0.6944
vn 0.5371 0.6944 0.4789
vn 0.3825 0.8236 0.4188
vn 0.2569 0.2303 0.9386
vn 0.7211 0.6179 0.3133
vn 0.1757 0.9816 0.0742
vn -0.3877 -0.5847 -0.7127
vn -0.6155 0.3459 -0.7082
vn -0.2037 -0.6141 -0.7624
vn -0.3643 0.1351 -0.9214
vn 0.6456 -0.7473 0.1572
vn 0.2174 -0.8937 0.3924
vn 0.7429 -0.3124 0.5920
vn 0.3977 -0.9068 0.1399
vn 0.3970 -0.9174 -0.0270
vn 0.8559 0.1292 0.5007
vn 0.8323 0.1030 0.5446
vn 0.9640 0.1915 -0.1843
vn 0.5076 -0.8547 0.1089
vn 0.7136 -0.1017 -0.6931
vn 0.6060 0.1391 -0.7832
vn 0.6899 0.6947 -0.2036
vn 0.7618 0.6178 0.1951
vn -0.6160 0.6904 -0.3794
vn -0.6775 0.4812 -0.5563
vn -0.6499 0.6096 -0.4539
vn -0.7626 0.6359 0.1185
vn 0.2567 0.9647 -0.0585
vn -0.0325 0.9101 -0.4130
vn -0.6548 0.1257 -0.7453
vn -0.9799 -0.1137 0.1636
vn -0.7336 -0.4785 0.4827
vn -0.7336 -0.4793 0.4818
vn -0.9083 0.1535 0.3891
vn -0.9996 0.0050 -0.0285
vn -0.8404 -0.4405 0.3156
vn -0.2902 0.9544 0.0698
vn -0.1825 0.7690 0.6126
vn -0.3614 0.8969 0.2551
vn -0.4164 0.4259 0.8033
vn -0.1881 0.6895 0.6994
vn -0.1586 0.0327 0.9868
vn 0.0192 -0.9499 -0.3120
vn 0.3889 -0.7859 -0.4808
vn -0.0803 -0.0826 -0.9933
vn 0.6247 -0.7179 0.3073
vn 0.1964 -0.6238 0.7565
vn 0.3570 -0.3702 0.8577
vn 0.9502 -0.3030 0.0726
vn 0.9703 0.1738 -0.1680
vn 0.9638 -0.2653 0.0278
vn 0.7433 0.5845 -0.3254
vn 0.3034 0.8217 -0.4825
vn 0.7192 0.5919 -0.3639
vn -0.5739 0.6872 -0.4454
vn -0.6910 0.4839 -0.5370
vn -0.7853 0.4175 -0.4571
vn -0.4855 -0.8735 0.0345
vn -0.6922 -0.7010 0.1718
vn -0.4825 -0.8459 0.2271
vn -0.4749 -0.8498 0.2287
vn 0.8685 0.0921 0.4870
vn 0.4684 -0.0060 0.8835
vn 0.5121 0.1743 0.8411
vn 0.4577 0.3833 0.8023
vn 0.5081 0.5954 0.6223
vn 0.6416 0.6006 0.4771
vn 0.9002 0.2942 0.3211
vn 0.9058 0.3654 -0.2144
vn 0.9650 0.2405 0.1042
vn 0.4980 0.8588 0.1200
vn 0.6596 0.6798 -0.3206
vn 0.9097 0.1579 -0.3840
vn 0.5260 0.4028 -0.7491
vn 0.3837 0.7036 -0.5981
vn 0.0494 0.8271 -0.5599
vn -0.1233 0.7110 -0.6923
vn 0.5253 0.3953 -0.7535
vn 0.0660 0.2329 -0.9703
vn -0.3360 -0.6245 -0.7051
vn -0.0959 -0.9669 0.2363
vn -0.0255 -0.9775 0.2096
vn -0.4026 -0.6160 -0.6771
vn -0.4280 -0.7855 -0.4470
vn -0.8379 -0.4152 -0.3544
vn -0.8300 0.3509 -0.4335
vn -0.4439 0.6153 -0.6514
vn -0.4191 0.6067 -0.6754
vn -0.5575 0.8299 -0.0207
vn -0.3490 0.9124 -0.2137
vn -0.7728 0.6335 -0.0371
vn -0.1966 0.8885 -0.4146
vn 0.2355 0.9718 0.0092
vn -0.0189 0.8643 -0.5026
vn -0.1709 0.9837 0.0557
vn 0.4295 0.8927 0.1363
vn 0.1958 0.7247 0.6607
vn -0.3394 0.8205 0.4601
vn -0.2535 0.7774 0.5756
vn -0.6710 0.6762 0.3042
vn -0.5974 0.7602 0.2554
vn -0.5686 0.6186 0.5423
vn -0.3876 0.6305 0.6725
vn -0.1925 -0.6582 0.7279
vn -0.2719 0.4514 0.8499
vn -0.5162 -0.5402 0.6646
vn -0.0808 -0.6203 0.7802
vn -0.2303 -0.6080 0.7598
vn -0.0863 0.3975 0.9135
vn 0.0213 -0.3700 0.9288
vn 0.1216 0.7790 0.6151
vn 0.1815 0.5430 0.8199
vn -0.8130 0.5783 0.0683
vn -0.7316 0.6314 0.2572
vn -0.8420 -0.2945 -0.4519
vn -0.9695 0.2403 -0.0476
vn -0.7581 -0.5384 -0.3680
vn -0.4296 -0.8996 0.0787
vn -0.7265 -0.6675 -0.1633
vn -0.6167 -0.7308 -0.2926
vn -0.1008 -0.0686 -0.9925
vn -0.1858 -0.1447 -0.9719
vn 0.3862 0.5247 -0.7587
vn -0.5034 0.0390 -0.8632
vn 0.3071 0.6231 -0.7193
vn -0.2730 0.5777 -0.7693
vn -0.3970 0.8417 -0.3659
vn -0.2135 0.9238 -0.3179
vn 0.2973 0.7031 -0.6460
vn -0.0307 0.9771 0.2107
vn -0.1723 0.9744 0.1442
vn 0.2955 0.9486 -0.1135
vn 0.2274 0.6964 -0.6806
vn 0.4099 0.8862 0.2159
vn 0.8553 0.2208 -0.4686
vn 0.3190 0.4259 -0.8467
vn 0.6521 0.1762 -0.7374
vn 0.5808 0.4259 -0.6938
vn 0.4445 0.5241 -0.7265
vn 0.8060 -0.4890 -0.3335
vn 0.9822 0.0278 -0.1860
vn 0.7645 -0.4828 -0.4272
vn 0.5259 -0.8503 -0.0215
vn 0.7316 -0.4479 0.5140
vn 0.1956 -0.6309 0.7508
vn 0.0869 -0.1710 0.9814
vn 0.1338 -0.1340 0.9819
vn -0.4239 0.0716 0.9029
vn -0.3077 0.6145 0.7265
vn 0.2467 0.2420 0.9384
vn -0.1866 0.6300 0.7538
vn 0.1902 0.7483 0.6355
vn 0.3638 0.6662 0.6510
vn 0.2601 0.2611 0.9296
vn 0.3293 0.6557 0.6794
vn 0.8201 0.2593 0.5101
vn 0.7713 0.0157 0.6363
vn -0.4458 0.0610 0.8931
vn -0.7028 0.4907 0.5151
vn -0.4996 0.6618 0.5590
vn -0.7159 0.6832 -0.1438
vn -0.4719 0.7888 0.3938
vn -0.7927 0.5940 -0.1368
vn -0.7914 0.4364 0.4281
vn -0.8876 0.3087 -0.3417
vn -0.9948 -0.0890 -0.0501
vn -0.9273 0.1341 0.3495
vn -0.7620 -0.4520 0.4638
vn -0.5790 -0.3887 0.7167
vn -0.6426 -0.0008 -0.7662
vn 0.2480 0.0568 -0.9671
vn -0.1181 0.9694 -0.2151
vn -0.8271 0.5538 0.0962
vn 0.3834 0.5292 -0.7569
vn -0.3294 -0.9113 -0.2468
vn -0.1813 -0.9151 -0.3601
vn -0.5849 -0.1253 0.8013
vn -0.3540 -0.1102 0.9287
vn -0.8178 -0.1818 0.5460
vn -0.7478 -0.1876 0.6369
vn -0.8135 -0.1861 0.5509
vn -0.8771 -0.2868 0.3853
vn -0.6976 0.2110 -0.6848
vn -0.6099 0.3248 -0.7229
vn -0.0645 -0.9628 -0.2625
vn -0.8726 -0.3557 0.3347
vn -0.8265 -0.4926 0.2723
vn -0.2807 0.2999 -0.9117
vn 0.2643 0.3073 -0.9142
vn -0.0722 0.4390 -0.8956
vn 0.9203 -0.0031 -0.3912
vn 0.9464 -0.0311 -0.3215
vn 0.9313 0.1012 -0.3498
vn -0.2787 0.1681 -0.9456
vn -0.3952 -0.1365 -0.9084
vn -0.3659 -0.1402 -0.9200
vn -0.9954 0.0927 0.0232
vn -0.9334 0.1727 -0.3147
vn -0.4908 0.8315 -0.2602
vn 0.8992 0.4365 -0.0305
vn 0.9238 -0.3521 0.1504
vn 0.9886 0.1326 0.0708
vn 0.1410 0.3416 0.9292
vn 0.2470 0.2594 0.9337
vn 0.0638 0.4387 0.8964
vn 0.1179 0.1735 0.9777
vn 0.6879 0.3082 0.6571
vn 0.7379 0.3129 0.5979
vn -0.7813 0.2678 0.5638
vn -0.4331 0.7318 0.5262
vn -0.6309 0.4183 0.6535
vn -0.5444 0.5272 0.6525
vn 0.1917 0.7620 0.6186
vn -0.8036 -0.5334 -0.2638
vn -0.7147 -0.5608 -0.4181
s 0
usemtl skala
f 7//1 2//1 1//1
f 2//1 5//1 1//1
f 1//2 5//2 3//2
f 6//3 1//3 3//3
f 6//4 4//4 1//4
f 1//1 4//1 7//1
f 7//1 8//1 2//1
f 9//1 8//1 7//1
f 7//1 4//1 9//1
f 8//1 10//1 24//1
f 9//5 11//5 10//5
f 9//6 4//6 11//6
f 10//7 11//7 12//7
f 13//8 11//8 4//8
f 11//9 14//9 12//9
f 13//10 14//10 11//10
f 15//11 14//11 13//11
f 15//12 16//12 14//12
f 12//13 14//13 16//13
f 16//14 17//14 18//14
f 17//15 16//15 15//15
f 16//16 18//16 19//16
f 12//17 16//17 19//17
f 20//18 19//18 18//18
f 20//19 21//19 19//19
f 22//20 12//20 19//20
f 22//21 19//21 21//21
f 22//22 21//22 10//22
f 10//23 12//23 22//23
f 21//24 24//24 10//24
f 20//25 23//25 21//25
f 21//26 23//26 24//26
f 25//27 24//27 23//27
f 8//1 24//1 25//1
f 25//28 23//28 26//28
f 25//29 26//29 28//29
f 28//1 27//1 25//1
f 27//1 8//1 25//1
f 30//30 29//30 28//30
f 29//1 2//1 28//1
f 28//31 26//31 30//31
f 28//1 2//1 27//1
f 31//32 29//32 30//32
f 30//33 17//33 31//33
f 30//34 26//34 32//34
f 32//35 17//35 30//35
f 32//36 18//36 17//36
f 33//37 18//37 32//37
f 26//38 33//38 32//38
f 33//39 20//39 18//39
f 23//40 20//40 33//40
f 23//41 33//41 26//41
f 31//42 34//42 29//42
f 31//43 35//43 34//43
f 17//44 35//44 31//44
f 35//45 15//45 13//45
f 17//46 15//46 35//46
f 36//47 35//47 13//47
f 34//48 35//48 36//48
f 6//49 36//49 13//49
f 6//50 3//50 36//50
f 3//51 34//51 36//51
f 5//52 34//52 3//52
f 5//53 29//53 34//53
f 2//1 29//1 5//1
f 2//1 8//1 27//1
f 13//54 4//54 6//54
f 60//55 57//55 38//55
f 63//56 54//56 44//56
f 38//57 57//57 58//57
f 37//58 76//58 53//58
f 43//59 68//59 53//59
f 52//60 51//60 73//60
f 45//61 78//61 37//61
f 45//62 59//62 78//62
f 48//1 72//1 49//1
f 73//63 80//63 60//63
f 79//64 64//64 70//64
f 79//65 71//65 50//65
f 37//66 53//66 54//66
f 65//67 41//67 40//67
f 62//68 39//68 67//68
f 50//69 83//69 48//69
f 51//70 52//70 41//70
f 78//71 59//71 62//71
f 73//1 74//1 75//1
f 75//1 49//1 72//1
f 57//72 45//72 46//72
f 39//73 62//73 61//73
f 65//74 69//74 67//74
f 42//75 53//75 76//75
f 55//76 45//76 37//76
f 81//1 52//1 83//1
f 49//77 77//77 48//77
f 56//78 55//78 77//78
f 63//79 64//79 50//79
f 39//80 80//80 67//80
f 55//81 37//81 47//81
f 66//82 68//82 69//82
f 74//1 58//1 75//1
f 44//83 54//83 53//83
f 37//84 63//84 47//84
f 80//85 73//85 51//85
f 102//1 86//1 103//1
f 101//1 86//1 89//1
f 86//1 90//1 89//1
f 91//86 82//86 115//86
f 92//87 114//87 91//87
f 93//88 104//88 116//88
f 94//89 104//89 93//89
f 105//90 104//90 94//90
f 105//91 106//91 104//91
f 115//92 93//92 116//92
f 117//93 105//93 94//93
f 105//94 113//94 106//94
f 107//95 84//95 90//95
f 85//96 107//96 83//96
f 107//97 90//97 83//97
f 97//98 107//98 99//98
f 109//99 88//99 98//99
f 88//100 108//100 82//100
f 108//101 109//101 93//101
f 98//102 101//102 89//102
f 98//103 88//103 101//103
f 94//104 109//104 117//104
f 94//105 93//105 109//105
f 111//106 110//106 95//106
f 89//107 111//107 98//107
f 84//108 110//108 111//108
f 84//109 97//109 110//109
f 95//110 100//110 105//110
f 95//111 105//111 117//111
f 87//112 113//112 99//112
f 83//113 87//113 85//113
f 112//114 96//114 87//114
f 92//115 96//115 112//115
f 113//116 105//116 100//116
f 113//117 100//117 99//117
f 85//118 99//118 107//118
f 103//1 86//1 88//1
f 88//1 86//1 101//1
f 103//1 88//1 82//1
f 102//119 114//119 112//119
f 82//120 114//120 103//120
f 91//121 114//121 82//121
f 92//122 112//122 114//122
f 102//123 112//123 83//123
f 103//124 114//124 102//124
f 106//125 113//125 96//125
f 104//126 106//126 92//126
f 106//127 96//127 92//127
f 91//128 116//128 92//128
f 116//129 104//129 92//129
f 91//130 115//130 116//130
f 89//131 90//131 84//131
f 89//132 84//132 111//132
f 97//133 84//133 107//133
f 86//1 83//1 90//1
f 88//134 109//134 108//134
f 82//135 108//135 115//135
f 108//136 93//136 115//136
f 117//137 109//137 98//137
f 117//138 111//138 95//138
f 98//139 111//139 117//139
f 110//140 97//140 100//140
f 97//141 99//141 100//141
f 110//142 100//142 95//142
f 87//143 96//143 113//143
f 83//144 112//144 87//144
f 85//145 87//145 99//145
f 121//146 119//146 118//146
f 119//147 120//147 118//147
f 118//1 120//1 123//1
f 121//148 118//148 122//148
f 118//149 124//149 122//149
f 125//1 118//1 123//1
f 118//1 125//1 124//1
f 125//1 123//1 126//1
f 126//1 129//1 125//1
f 125//1 128//1 127//1
f 125//1 127//1 124//1
f 128//1 125//1 131//1
f 129//1 130//1 125//1
f 130//1 131//1 125//1
f 132//1 128//1 131//1
f 131//1 130//1 132//1
f 135//150 132//150 133//150
f 130//1 133//1 132//1
f 134//151 128//151 132//151
f 135//152 134//152 132//152
f 136//153 134//153 135//153
f 136//154 135//154 137//154
f 137//155 135//155 138//155
f 138//156 135//156 133//156
f 139//157 141//157 138//157
f 138//158 133//158 139//158
f 137//159 138//159 140//159
f 138//160 141//160 140//160
f 139//161 142//161 141//161
f 141//162 142//162 143//162
f 141//163 143//163 140//163
f 140//164 143//164 144//164
f 144//165 143//165 145//165
f 143//166 142//166 146//166
f 143//167 146//167 145//167
f 148//168 145//168 146//168
f 146//169 142//169 147//169
f 147//170 148//170 146//170
f 147//1 126//1 148//1
f 148//1 126//1 123//1
f 145//171 148//171 149//171
f 148//172 123//172 149//172
f 150//173 149//173 123//173
f 151//174 149//174 150//174
f 144//175 149//175 151//175
f 144//176 145//176 149//176
f 152//177 151//177 153//177
f 154//178 151//178 152//178
f 151//179 150//179 153//179
f 144//180 151//180 154//180
f 155//181 140//181 154//181
f 140//182 144//182 154//182
f 154//183 152//183 155//183
f 137//184 140//184 155//184
f 156//185 137//185 155//185
f 155//186 152//186 157//186
f 155//187 157//187 156//187
f 153//188 122//188 157//188
f 152//189 153//189 157//189
f 157//190 122//190 158//190
f 157//191 158//191 156//191
f 158//192 124//192 159//192
f 158//193 159//193 156//193
f 122//194 124//194 158//194
f 127//195 128//195 159//195
f 124//196 127//196 159//196
f 156//197 159//197 134//197
f 134//198 159//198 128//198
f 156//199 136//199 137//199
f 156//200 134//200 136//200
f 153//201 150//201 121//201
f 153//202 121//202 122//202
f 123//203 119//203 150//203
f 150//204 119//204 121//204
f 126//1 147//1 160//1
f 160//1 147//1 142//1
f 129//1 160//1 142//1
f 126//1 160//1 129//1
f 129//1 142//1 139//1
f 161//1 129//1 139//1
f 133//1 161//1 139//1
f 130//1 161//1 133//1
f 130//1 129//1 161//1
f 123//205 120//205 119//205
f 168//1 163//1 162//1
f 163//1 166//1 162//1
f 162//206 166//206 164//206
f 167//207 162//207 164//207
f 167//208 165//208 162//208
f 162//1 165//1 168//1
f 168//1 169//1 163//1
f 170//1 169//1 168//1
f 168//1 165//1 170//1
f 169//1 171//1 185//1
f 170//209 172//209 171//209
f 170//210 165//210 172//210
f 171//211 172//211 173//211
f 174//212 172//212 165//212
f 172//213 175//213 173//213
f 174//214 175//214 172//214
f 176//215 175//215 174//215
f 176//216 177//216 175//216
f 173//217 175//217 177//217
f 177//218 178//218 179//218
f 178//219 177//219 176//219
f 177//220 179//220 180//220
f 173//221 177//221 180//221
f 181//222 180//222 179//222
f 181//223 182//223 180//223
f 183//224 173//224 180//224
f 183//225 180//225 182//225
f 183//226 182//226 171//226
f 171//227 173//227 183//227
f 182//228 185//228 171//228
f 181//229 184//229 182//229
f 182//230 184//230 185//230
f 186//231 185//231 184//231
f 169//1 185//1 186//1
f 186//232 184//232 187//232
f 186//233 187//233 189//233
f 189//1 188//1 186//1
f 188//1 169//1 186//1
f 191//234 190//234 189//234
f 190//1 163//1 189//1
f 189//235 187//235 191//235
f 189//1 163//1 188//1
f 192//236 190//236 191//236
f 191//237 178//237 192//237
f 191//238 187//238 193//238
f 193//239 178//239 191//239
f 193//240 179//240 178//240
f 194//241 179//241 193//241
f 187//242 194//242 193//242
f 194//243 181//243 179//243
f 184//244 181//244 194//244
f 184//245 194//245 187//245
f 192//246 195//246 190//246
f 192//247 196//247 195//247
f 178//248 196//248 192//248
f 196//249 176//249 174//249
f 178//250 176//250 196//250
f 197//251 196//251 174//251
f 195//252 196//252 197//252
f 167//253 197//253 174//253
f 167//254 164//254 197//254
f 164//255 195//255 197//255
f 166//256 195//256 164//256
f 166//257 190//257 195//257
f 163//1 190//1 166//1
f 163//1 169//1 188//1
f 174//258 165//258 167//258
f 8//1 9//1 10//1
f 60//259 59//259 57//259
f 37//260 78//260 76//260
f 43//261 69//261 68//261
f 45//262 57//262 59//262
f 48//1 83//1 72//1
f 38//263 74//263 60//263
f 74//264 73//264 60//264
f 70//265 81//265 79//265
f 81//266 71//266 79//266
f 40//267 52//267 70//267
f 52//268 81//268 70//268
f 70//269 66//269 40//269
f 66//270 65//270 40//270
f 67//271 43//271 62//271
f 43//272 42//272 62//272
f 50//273 71//273 83//273
f 52//274 40//274 41//274
f 41//275 65//275 51//275
f 61//276 62//276 59//276
f 62//277 42//277 76//277
f 78//278 62//278 76//278
f 75//1 58//1 49//1
f 46//279 56//279 57//279
f 56//280 49//280 58//280
f 57//281 56//281 58//281
f 61//282 59//282 60//282
f 60//283 80//283 61//283
f 80//284 39//284 61//284
f 66//285 69//285 65//285
f 69//286 43//286 67//286
f 42//287 43//287 53//287
f 55//288 46//288 45//288
f 52//1 73//1 83//1
f 73//1 75//1 72//1
f 83//1 73//1 72//1
f 83//1 71//1 81//1
f 49//289 56//289 77//289
f 56//290 46//290 55//290
f 48//291 47//291 50//291
f 47//292 63//292 50//292
f 63//293 44//293 64//293
f 64//294 79//294 50//294
f 47//295 48//295 77//295
f 77//296 55//296 47//296
f 66//297 70//297 68//297
f 74//1 38//1 58//1
f 53//298 68//298 44//298
f 68//299 70//299 64//299
f 44//300 68//300 64//300
f 37//301 54//301 63//301
f 65//302 67//302 51//302
f 67//303 80//303 51//303
f 86//1 102//1 83//1
f 169//1 170//1 171//1
