# Blender 4.4.3
# www.blender.org
mtllib platforma_5.2.mtl
o Cylinder
v -3.511180 0.045403 -29.921316
v -3.511180 16.661589 -29.921316
v 3.662774 0.045403 -26.298172
v 3.662774 16.661589 -26.298172
v 8.914473 0.045403 -16.399563
v 8.914473 16.661589 -16.399563
v 10.836728 0.045403 -2.877809
v 10.836728 16.661589 -2.877809
v 8.914473 0.045403 10.643944
v 8.914473 16.661589 10.643944
v 3.662774 0.045403 20.542555
v 3.662774 16.661589 20.542555
v -3.511180 0.045403 24.165695
v -3.511180 16.661589 24.165695
v -10.685134 0.045403 20.542555
v -10.685134 16.661589 20.542555
v -15.936831 0.045403 10.643944
v -15.936833 16.661589 10.643944
v -17.859089 0.045403 -2.877809
v -15.936831 0.045403 -16.399563
v -15.936833 16.661589 -16.399563
v -10.685134 0.045403 -26.298172
v -10.685134 16.661589 -26.298172
v 7.842888 0.045403 -26.997578
v 13.649302 0.045403 -24.065096
v 13.649302 13.789148 -24.065096
v 7.842888 13.789148 -26.997578
v 17.899893 0.045403 -16.053413
v 17.899893 13.789148 -16.053413
v 19.455717 0.045403 -5.109255
v 19.455717 13.789148 -5.109255
v 17.899893 0.045403 5.834905
v 13.649302 0.045403 13.846586
v 13.649302 13.789148 13.846586
v -3.511180 3.797820 -29.921316
v -3.511180 8.085743 -29.921316
v -3.511180 12.373665 -29.921316
v 3.662774 12.373665 20.542555
v 11.811306 0.045403 -29.432518
v 1.141693 0.045403 -32.180008
v -3.511180 12.373665 24.165695
v -3.511180 8.085743 24.165695
v -3.511180 3.797820 24.165695
v -10.685134 12.373665 20.542555
v -10.685134 8.085743 20.542555
v -10.685134 3.797820 20.542555
v -15.936833 12.373665 10.643944
v -15.936833 8.085743 10.643944
v -15.936833 3.797820 10.643944
v -17.859089 12.373665 -2.877809
v -17.859089 8.085743 -2.877809
v -17.859089 3.797820 -2.877809
v -15.936833 12.373665 -16.399563
v -15.936833 8.085743 -16.399563
v -8.038095 3.883238 24.779724
v -10.685134 12.373665 -26.298172
v -10.685134 8.085743 -26.298172
v -10.685134 3.797820 -26.298172
v -13.530338 0.045403 -26.762222
v 7.842888 10.318613 -26.997578
v 13.649302 10.318613 -24.065096
v -18.308775 3.886992 -17.755630
v -18.308775 0.045403 -17.755630
v 17.899893 10.318613 -16.053413
v -20.057808 0.045403 -5.452394
v -20.057808 3.886992 -5.452394
v 19.455717 10.318613 -5.109255
v 19.455717 6.848078 -5.109255
v 19.455717 3.377544 -5.109255
v 17.899893 10.318613 5.834905
v 17.899893 6.848078 5.834905
v 17.899893 3.377544 5.834905
v 13.649302 10.318613 13.846586
v 13.649302 6.848078 13.846586
v 13.649302 3.377544 13.846586
v 14.580698 0.045403 17.383883
v 5.517297 0.045403 23.460892
v 5.517297 3.970459 23.460894
v -0.993517 0.045403 26.749121
v -0.993517 3.970459 26.749121
v 14.580698 3.589033 17.383883
v 5.517297 11.753578 23.460894
v 5.517297 7.862018 23.460894
v -0.993517 7.862018 26.749121
v 14.580698 9.888489 17.383883
v 14.580698 6.738760 17.383883
v 17.267694 0.045403 -26.676813
v 17.267694 3.492145 -26.676813
v 21.262047 0.045403 -19.148098
v 21.262047 3.492145 -19.148098
v 22.724083 0.045403 -8.863682
v 22.724083 3.492145 -8.863682
v 1.141693 3.887086 -32.180008
v 1.141693 7.916521 -32.180008
v 1.141693 11.945955 -32.180008
v 11.811306 3.492145 -29.432518
v 11.811306 6.753467 -29.432518
v 11.811306 10.014788 -29.432518
v 17.267694 6.753466 -26.676813
v 21.262047 10.014788 -19.148098
v 21.262047 6.753466 -19.148098
v 22.724083 6.753466 -8.863682
v -7.002867 0.045403 -30.058867
v -8.038095 0.045403 24.779724
v -14.354593 0.045403 21.589632
v -14.354593 3.883238 21.589632
v -18.978592 0.045403 12.874136
v -18.978592 3.883238 12.874136
v -20.671091 0.045403 0.968548
v -20.671091 3.883238 0.968548
v -14.354593 11.434069 21.589632
v -14.354593 7.658653 21.589632
v -18.978592 7.658653 12.874136
v 19.997084 0.045403 10.380877
v 16.291016 0.045403 17.366222
v 16.291016 3.488132 17.366222
v 17.103094 0.045403 20.450373
v 9.200757 0.045403 25.748890
v 9.200757 4.005092 25.748890
v 17.103094 3.672528 20.450373
v 9.200757 10.791155 25.748890
v 9.200757 7.398123 25.748890
v 17.103094 6.418760 20.450373
v 15.450594 0.045403 -29.996782
v 20.261761 0.045403 -27.566940
v 20.261761 3.415015 -27.566940
v 23.783777 0.045403 -20.928501
v 23.783777 3.415015 -20.928501
v 25.072927 0.045403 -11.860222
v 15.450594 3.415015 -29.996782
v 4.425598 0.045403 -32.952435
v 9.308893 0.045403 -31.694956
v 4.425598 2.791519 -32.952435
v 9.308893 2.610761 -31.694956
v -3.511179 16.661589 -2.877809
v 15.142583 9.727324 18.066967
v 14.848723 9.628902 21.961929
v 17.103094 7.661462 20.450373
v 18.353601 3.401469 6.818386
v 18.223042 3.488132 13.724661
v 19.997084 1.988561 10.380877
v 25.072927 2.053403 -11.860222
v 24.483322 3.415015 -16.007692
v 23.188330 3.476901 -9.455945
v 20.043749 10.263950 -5.784737
v 22.724083 9.532713 -8.863682
v 21.904545 10.014788 -14.628565
v 14.426575 10.253347 -24.626125
v 19.437370 10.014788 -22.587322
v 17.267694 8.180793 -26.676813
v 14.303863 10.014788 -28.173672
v 21.384449 6.290682 -25.450853
v 20.261761 5.341690 -27.566940
v 18.742220 6.525553 -27.115187
v 23.783777 5.341690 -20.928501
v 22.661089 6.290682 -23.044588
v 22.354837 6.552919 -19.919636
v -2.496528 12.123761 25.206850
v -0.993517 10.665791 26.749121
v 0.764404 11.753578 25.861300
v -17.470861 11.899805 11.768681
v -18.978592 10.360789 12.874136
v -17.708866 11.434069 15.267363
v -12.727151 3.822930 -26.235916
v -14.076810 3.463792 -26.140829
v -7.002867 3.463792 -30.058867
v -4.494405 3.822930 -29.960051
v -19.441689 7.871797 -4.730952
v -20.057808 7.365306 -5.452394
v -17.808117 11.266820 -18.699293
v -17.676188 11.872345 -17.393972
v -17.979094 7.365306 -18.785645
v -17.658560 7.869969 -17.384954
v -14.030995 11.266820 -25.818562
v -12.778113 11.870764 -26.639536
v -12.783072 7.866572 -26.640345
v -14.030995 7.788506 -25.818562
v -15.886640 16.661589 -3.209683
v -16.850388 16.661589 -9.973327
v -17.859089 14.332133 -2.877809
v -16.850388 16.661589 4.217708
v 18.747646 13.789148 -0.128452
v 15.098082 14.684824 7.334447
v 15.583790 13.789148 10.200388
v 17.899893 11.831381 5.834905
vn 0.9900 -0.0000 0.1407
vn -0.0000 -1.0000 -0.0000
vn 0.4508 -0.0000 0.8926
vn -0.4508 -0.0000 0.8926
vn -0.8834 -0.0000 0.4687
vn -0.0000 1.0000 -0.0000
vn -0.9900 -0.0000 0.1407
vn -0.8834 -0.0000 -0.4687
vn -0.4508 -0.0000 -0.8926
vn 0.4508 -0.0000 -0.8926
vn 0.8834 -0.0000 -0.4687
vn 0.9900 -0.0000 -0.1407
vn 0.3985 0.8925 0.2114
vn 0.8834 -0.0000 0.4687
vn 0.3395 0.6578 -0.6723
vn 0.3057 0.9511 -0.0435
vn 0.2369 0.9700 0.0556
vn 0.3061 0.9380 -0.1624
vn 0.2494 -0.0000 -0.9684
vn 0.7542 -0.0000 0.6566
vn 0.1474 0.9820 0.1177
vn 0.5569 -0.0000 0.8306
vn 0.9670 -0.0000 -0.2546
vn -0.4367 -0.0000 -0.8996
vn -0.7604 -0.0000 0.6494
vn -0.4967 -0.0002 0.8679
vn -0.9900 -0.0000 -0.1407
vn 0.1610 -0.0000 -0.9870
vn 0.2744 -0.0000 0.9616
vn 0.0149 0.9995 -0.0294
vn 0.7723 -0.0000 -0.6353
vn -0.7162 -0.0000 0.6979
vn 0.6706 -0.0000 -0.7418
vn 0.0162 0.9994 -0.0321
vn 0.0345 0.9971 -0.0682
vn -0.8927 -0.0481 -0.4481
vn 0.0394 -0.0000 -0.9992
vn -0.2145 0.9701 -0.1138
vn -0.1151 0.9932 -0.0164
vn -0.8820 -0.0559 -0.4679
vn -0.8722 0.0490 -0.4867
vn -0.5913 -0.0000 -0.8065
vn 0.0254 0.9997 -0.0036
vn -0.8073 -0.0000 -0.5902
vn 0.1344 -0.0000 0.9909
vn -0.0245 0.9996 -0.0130
vn 0.2282 0.9727 0.0418
vn -0.5276 -0.0000 0.8495
vn -0.7998 -0.0000 0.6003
vn 0.0278 0.9996 -0.0040
vn 0.5768 -0.0000 0.8169
vn -0.2850 -0.0000 -0.9585
vn -0.1532 -0.0000 -0.9882
vn 0.1623 0.8454 -0.5089
vn -0.2290 -0.0000 -0.9734
vn 0.6821 0.7279 0.0699
vn 0.6485 0.7612 0.0027
vn 0.9080 -0.0000 -0.4189
vn 0.6988 0.7031 0.1315
vn 0.7870 -0.0000 0.6169
vn 0.3021 0.9526 0.0367
vn 0.0797 0.9968 -0.0113
vn 0.5518 0.8306 -0.0749
vn 0.0606 0.9976 -0.0321
vn 0.4084 0.7322 -0.5450
vn 0.6463 0.7631 -0.0007
vn 0.1320 0.9888 -0.0700
vn -0.0656 0.6924 0.7185
vn 0.0800 0.9841 0.1583
vn -0.6960 0.7164 0.0480
vn -0.2157 0.9697 0.1144
vn -0.9947 -0.0042 0.1025
vn -0.5484 0.0008 -0.8362
vn -0.5437 -0.0910 -0.8343
vn -0.2580 0.8464 -0.4659
vn -0.5648 0.7689 -0.2996
vn -0.5746 0.8144 -0.0811
vn 0.0132 0.9995 0.0291
vn -0.7663 0.6347 -0.0994
vn 0.7547 0.5839 0.2990
vn 0.3266 0.9440 0.0464
vn -0.4963 -0.0000 0.8681
vn -0.9869 0.0480 -0.1539
vn -0.4829 0.0813 -0.8719
vn -0.8723 0.0455 -0.4869
vn -0.0315 -0.0999 -0.9945
vn -0.8927 -0.0000 -0.4506
vn 0.0278 0.9996 -0.0039
vn 0.2436 0.8301 -0.5015
vn -0.9770 0.0382 0.2098
vn -0.5500 -0.0000 -0.8352
vn -0.0899 0.0750 -0.9931
vn -0.1255 0.9525 -0.2773
vn -0.5667 0.7673 -0.3003
vn -0.6797 0.7258 -0.1060
vn 0.0237 0.9986 0.0468
vn -0.7512 0.6513 0.1070
vn 0.7332 0.6745 0.0865
vt 0.666667 0.929486
vt 0.750000 0.875000
vt 0.712074 1.000000
vt 0.990000 0.250000
vt 0.957846 0.370000
vt 0.870000 0.457846
vt 0.750000 0.490000
vt 0.957846 0.130000
vt 0.870000 0.042154
vt 0.583333 1.000000
vt 0.500000 0.875000
vt 0.583333 0.875000
vt 0.500000 1.000000
vt 0.416667 0.875000
vt 0.416667 1.000000
vt 0.333333 0.875000
vt 0.042154 0.370000
vt 0.075191 0.250000
vt 0.250000 0.250000
vt 0.250000 0.932093
vt 0.293729 1.000000
vt 0.166667 1.000000
vt 0.083333 0.875000
vt 0.166667 0.875000
vt 0.083333 1.000000
vt 0.000000 0.875000
vt 0.630000 0.042154
vt 0.630000 0.457846
vt 1.000000 1.000000
vt 0.916667 0.875000
vt 1.000000 0.875000
vt 0.916667 1.000000
vt 0.833333 0.875000
vt 0.833333 1.000000
vt 0.370000 0.042154
vt 0.409980 0.082134
vt 0.457846 0.130000
vt 0.621259 1.000000
vt 0.583333 0.875000
vt 0.370000 0.457846
vt 0.250000 0.490000
vt 0.490000 0.250000
vt 0.457846 0.370000
vt 0.000000 1.000000
vt 0.750000 0.625000
vt 0.750000 0.500000
vt 0.583333 0.750000
vt 0.583333 0.625000
vt 0.750000 0.010000
vt 0.666667 0.750000
vt 0.666667 0.625000
vt 0.666667 0.875000
vt 0.666667 0.500000
vt 0.750000 0.750000
vt 0.796712 0.875000
vt 0.750000 0.802460
vt 0.000000 0.750000
vt 0.000000 0.625000
vt 0.083333 0.750000
vt 0.083333 0.625000
vt 0.250000 0.625000
vt 0.250000 0.500000
vt 0.166667 0.750000
vt 0.250000 0.736441
vt 0.166667 0.625000
vt 0.083333 0.875000
vt 0.083333 0.500000
vt 0.000000 0.611230
vt 0.000000 0.500000
vt 0.250000 0.875000
vt 0.250000 0.750000
vt 0.416667 0.750000
vt 0.333333 0.750000
vt 0.333333 0.625000
vt 0.416667 0.625000
vt 0.500000 0.625000
vt 0.542154 0.130000
vt 0.333333 0.839465
vt 0.356216 0.875000
vt 0.510000 0.250000
vt 0.500000 0.750000
vt 0.500000 0.840060
vt 0.522500 0.875000
vt 0.583333 0.500000
vt 0.500000 0.500000
vt 0.000000 0.625000
vt 0.833333 0.750000
vt 0.833333 0.625000
vt 0.916667 0.625000
vt 1.000000 0.625000
vt 0.961932 0.875000
vt 0.833333 0.708749
vt 0.916667 0.708749
vt 1.000000 0.750000
vt 0.871401 0.875000
vt 0.916667 0.804707
vt 0.159027 0.736441
vt 0.090973 0.611441
vt 0.166667 0.500000
vt 0.250000 0.750000
vt 0.542154 0.370000
vt 0.090973 0.611230
vt 0.157936 0.861441
vt 0.092065 0.750000
vt 0.333333 0.500000
vt 0.416667 0.500000
vt 0.626776 0.625000
vt 0.583333 0.875000
vt 0.583333 0.806564
vt 0.788113 0.625000
vt 0.833333 0.500000
vt 0.916667 0.500000
vt 1.000000 0.500000
vt 0.916667 0.750000
vt 0.750000 0.574489
vt 0.130000 0.457846
vt 0.206271 1.000000
vt 0.042154 0.130000
vt 0.130000 0.042154
vt 0.250000 0.010000
vt 0.666667 0.570553
vt 0.916667 0.875000
vt 0.890103 0.750000
vt 0.859897 0.750000
vt 0.092065 0.861441
vt 0.083333 0.623827
vt 0.091033 0.625000
vt 0.090895 0.611230
vt 0.166660 0.750000
vt 0.475366 0.195387
vt 0.750000 1.000000
vt 0.333333 1.000000
vt 0.026873 0.312970
vt 0.159105 0.736441
vt 0.026873 0.187030
s 0
usemtl skala
f 185/1/1 67/2/1 182/3/1
f 7/4/2 28/5/2 30/4/2
f 3/6/2 24/7/2 25/6/2
f 7/4/2 32/8/2 9/8/2
f 9/8/2 33/9/2 11/9/2
f 12/10/3 41/11/3 38/12/3
f 14/13/4 44/14/4 41/11/4
f 16/15/5 47/16/5 44/14/5
f 21/17/6 178/18/6 135/19/6
f 180/20/7 47/16/7 181/21/7
f 21/22/8 56/23/8 53/24/8
f 23/25/9 37/26/9 56/23/9
f 7/4/2 15/27/2 22/28/2
f 27/29/10 61/30/10 60/31/10
f 26/32/11 64/33/11 61/30/11
f 29/34/12 67/2/12 64/33/12
f 34/35/13 184/36/13 183/37/13
f 5/5/2 25/6/2 28/5/2
f 184/38/14 34/10/14 73/39/14
f 4/40/15 27/41/15 2/41/15
f 8/42/16 29/43/16 6/43/16
f 73/39/17 82/12/17 85/39/17
f 6/43/18 26/40/18 4/40/18
f 37/26/19 27/44/19 60/26/19
f 69/45/20 91/46/20 92/45/20
f 60/26/21 95/26/21 37/26/21
f 25/6/2 39/7/2 87/6/2
f 38/12/22 34/10/22 12/10/22
f 74/47/23 81/48/23 75/48/23
f 11/9/2 79/49/2 13/49/2
f 71/50/14 75/48/14 72/51/14
f 70/52/14 74/47/14 71/50/14
f 69/45/1 32/53/1 30/46/1
f 68/54/1 72/51/1 69/45/1
f 67/2/1 71/50/1 68/54/1
f 68/54/20 92/45/20 102/54/20
f 28/5/2 91/4/2 30/4/2
f 147/55/12 146/56/12 102/54/12
f 68/54/20 146/56/20 145/2/20
f 28/5/2 87/6/2 89/5/2
f 24/7/2 40/7/2 39/7/2
f 36/57/24 95/26/24 94/57/24
f 35/58/24 94/57/24 93/58/24
f 22/28/2 103/7/2 1/7/2
f 57/59/9 35/58/9 58/60/9
f 56/23/9 36/57/9 57/59/9
f 52/61/25 65/62/25 19/62/25
f 54/63/26 171/24/26 173/63/26
f 169/64/27 62/65/27 66/61/27
f 57/59/28 175/66/28 56/23/28
f 59/67/9 166/68/9 103/69/9
f 50/70/27 54/63/27 51/71/27
f 45/72/29 111/14/29 112/72/29
f 48/73/7 52/61/7 49/74/7
f 47/16/7 51/71/7 48/73/7
f 46/75/30 55/76/30 43/76/30
f 17/77/2 105/27/2 107/77/2
f 162/78/5 112/72/5 163/79/5
f 17/77/2 109/80/2 19/80/2
f 42/81/4 46/75/4 43/76/4
f 41/11/4 45/72/4 42/81/4
f 159/82/3 83/47/3 160/83/3
f 33/9/2 77/9/2 11/9/2
f 74/47/23 85/39/23 86/47/23
f 81/48/31 117/84/31 76/84/31
f 32/8/2 115/9/2 33/9/2
f 76/9/2 118/9/2 77/9/2
f 78/48/3 79/85/3 77/84/3
f 83/47/3 80/76/3 78/48/3
f 75/48/23 76/84/23 33/84/23
f 43/76/32 84/81/32 42/81/32
f 42/81/32 84/81/32 159/82/32
f 43/76/32 79/85/32 80/76/32
f 39/69/33 134/86/33 96/86/33
f 93/58/19 97/57/19 96/86/19
f 94/57/19 98/26/19 97/57/19
f 101/87/12 92/45/12 90/88/12
f 87/6/2 124/7/2 125/6/2
f 88/89/34 130/90/34 96/90/34
f 61/30/35 151/91/35 98/31/35
f 155/92/11 128/88/11 153/93/11
f 97/94/10 88/89/10 96/90/10
f 149/95/11 100/33/11 101/87/11
f 150/96/10 97/94/10 151/91/10
f 35/58/24 40/69/24 1/69/24
f 172/97/36 165/98/36 62/65/36
f 58/60/28 176/59/28 57/59/28
f 1/69/37 166/68/37 167/58/37
f 53/24/38 175/66/38 171/24/38
f 66/61/27 63/99/27 65/62/27
f 54/63/39 168/100/39 51/71/39
f 20/101/2 59/28/2 22/28/2
f 63/99/40 165/102/40 59/67/40
f 51/71/25 168/100/25 169/64/25
f 170/103/41 177/104/41 172/97/41
f 20/101/2 65/80/2 63/101/2
f 108/74/7 109/62/7 107/105/7
f 106/75/5 107/105/5 105/106/5
f 112/72/5 108/74/5 106/75/5
f 55/76/4 105/106/4 104/85/4
f 15/27/2 104/49/2 105/27/2
f 49/74/42 113/73/42 48/73/42
f 49/74/43 110/61/43 108/74/43
f 46/75/29 112/72/29 106/75/29
f 52/61/44 109/62/44 110/61/44
f 48/73/42 162/78/42 161/16/42
f 43/76/45 104/85/45 13/85/45
f 75/48/46 140/107/46 139/51/46
f 118/84/22 120/48/22 119/48/22
f 137/108/47 85/39/47 121/12/47
f 119/48/22 123/47/22 122/47/22
f 78/48/48 118/84/48 119/48/48
f 83/47/48 121/12/48 82/12/48
f 122/47/22 138/109/22 137/108/22
f 75/48/49 115/84/49 116/48/49
f 78/48/48 122/47/48 83/47/48
f 140/107/14 116/48/14 115/84/14
f 81/48/31 123/47/31 120/48/31
f 143/110/50 90/88/50 144/45/50
f 126/89/11 127/111/11 125/112/11
f 90/88/51 155/92/51 157/87/51
f 130/90/10 125/112/10 124/113/10
f 89/5/2 129/4/2 91/4/2
f 153/93/52 88/89/52 154/114/52
f 142/115/12 127/111/12 143/110/12
f 89/5/2 125/6/2 127/5/2
f 39/69/53 130/86/53 124/69/53
f 131/69/19 134/86/19 132/69/19
f 96/86/54 133/58/54 93/58/54
f 39/7/2 131/7/2 132/7/2
f 40/69/55 133/58/55 131/69/55
f 4/40/6 2/41/6 135/19/6
f 2/41/6 23/116/6 135/19/6
f 23/116/6 21/17/6 135/19/6
f 179/117/27 21/22/27 53/24/27
f 18/118/6 16/119/6 135/19/6
f 16/119/6 14/120/6 135/19/6
f 14/120/6 12/35/6 135/19/6
f 12/35/6 10/37/6 135/19/6
f 10/37/6 8/42/6 135/19/6
f 8/42/6 6/43/6 135/19/6
f 6/43/6 4/40/6 135/19/6
f 136/39/56 137/108/56 138/109/56
f 138/109/31 86/47/31 136/39/31
f 139/51/57 140/107/57 141/121/57
f 72/51/58 139/51/58 141/121/58
f 142/115/59 143/110/59 144/45/59
f 91/46/60 129/46/60 142/115/60
f 145/2/61 146/56/61 147/55/61
f 147/55/62 64/33/62 145/2/62
f 148/122/63 150/96/63 151/91/63
f 64/33/64 149/95/64 148/122/64
f 152/123/65 153/93/65 154/114/65
f 155/92/66 156/124/66 157/87/66
f 152/123/67 154/114/67 101/87/67
f 158/11/68 159/82/68 160/83/68
f 160/83/69 38/12/69 158/11/69
f 161/16/70 162/78/70 163/79/70
f 47/16/71 163/79/71 111/14/71
f 170/103/72 173/63/72 171/24/72
f 176/59/73 174/125/73 175/66/73
f 164/126/74 177/104/74 176/59/74
f 164/127/75 166/68/75 165/128/75
f 171/24/76 174/125/76 170/103/76
f 173/129/77 169/64/77 168/100/77
f 58/60/78 167/58/78 164/127/78
f 178/18/79 180/20/79 181/21/79
f 178/18/6 18/118/6 135/19/6
f 183/37/80 185/1/80 182/3/80
f 182/130/81 8/42/81 183/37/81
f 70/52/1 67/2/1 185/1/1
f 67/2/1 31/131/1 182/3/1
f 7/4/2 5/5/2 28/5/2
f 3/6/2 1/7/2 24/7/2
f 7/4/2 30/4/2 32/8/2
f 9/8/2 32/8/2 33/9/2
f 12/10/3 14/13/3 41/11/3
f 14/13/4 16/15/4 44/14/4
f 16/15/5 18/132/5 47/16/5
f 21/17/6 179/133/6 178/18/6
f 50/70/7 47/16/7 180/20/7
f 47/16/7 18/132/7 181/21/7
f 21/22/8 23/25/8 56/23/8
f 23/25/9 2/44/9 37/26/9
f 22/28/2 1/7/2 7/4/2
f 1/7/2 3/6/2 7/4/2
f 3/6/2 5/5/2 7/4/2
f 7/4/2 9/8/2 11/9/2
f 11/9/2 13/49/2 7/4/2
f 13/49/2 15/27/2 7/4/2
f 15/27/2 17/77/2 19/80/2
f 19/80/2 20/101/2 15/27/2
f 20/101/2 22/28/2 15/27/2
f 27/29/10 26/32/10 61/30/10
f 26/32/11 29/34/11 64/33/11
f 29/34/12 31/131/12 67/2/12
f 183/37/13 10/37/13 34/35/13
f 10/37/13 12/35/13 34/35/13
f 5/5/2 3/6/2 25/6/2
f 73/39/14 70/52/14 185/1/14
f 185/1/14 184/38/14 73/39/14
f 4/40/15 26/40/15 27/41/15
f 8/42/16 31/42/16 29/43/16
f 73/39/17 38/12/17 82/12/17
f 6/43/18 29/43/18 26/40/18
f 37/26/19 2/44/19 27/44/19
f 69/45/20 30/46/20 91/46/20
f 60/26/21 98/26/21 95/26/21
f 25/6/2 24/7/2 39/7/2
f 38/12/22 73/39/22 34/10/22
f 74/47/23 86/47/23 81/48/23
f 11/9/2 77/9/2 79/49/2
f 71/50/14 74/47/14 75/48/14
f 70/52/14 73/39/14 74/47/14
f 69/45/1 72/51/1 32/53/1
f 68/54/1 71/50/1 72/51/1
f 67/2/1 70/52/1 71/50/1
f 68/54/20 69/45/20 92/45/20
f 28/5/2 89/5/2 91/4/2
f 102/54/12 101/87/12 147/55/12
f 101/87/12 100/33/12 147/55/12
f 145/2/20 67/2/20 68/54/20
f 68/54/20 102/54/20 146/56/20
f 28/5/2 25/6/2 87/6/2
f 24/7/2 1/7/2 40/7/2
f 36/57/24 37/26/24 95/26/24
f 35/58/24 36/57/24 94/57/24
f 22/28/2 59/28/2 103/7/2
f 57/59/9 36/57/9 35/58/9
f 56/23/9 37/26/9 36/57/9
f 52/61/25 66/61/25 65/62/25
f 54/63/82 53/24/82 171/24/82
f 169/64/83 172/134/83 62/65/83
f 57/59/28 176/59/28 175/66/28
f 59/67/84 165/128/84 166/68/84
f 50/70/27 53/24/27 54/63/27
f 45/72/29 44/14/29 111/14/29
f 48/73/7 51/71/7 52/61/7
f 47/16/7 50/70/7 51/71/7
f 46/75/30 106/75/30 55/76/30
f 17/77/2 15/27/2 105/27/2
f 113/73/5 112/72/5 162/78/5
f 112/72/5 111/14/5 163/79/5
f 17/77/2 107/77/2 109/80/2
f 42/81/4 45/72/4 46/75/4
f 41/11/4 44/14/4 45/72/4
f 84/81/3 83/47/3 159/82/3
f 83/47/3 82/12/3 160/83/3
f 33/9/2 76/9/2 77/9/2
f 74/47/23 73/39/23 85/39/23
f 81/48/31 120/48/31 117/84/31
f 32/8/2 114/8/2 115/9/2
f 76/9/2 117/9/2 118/9/2
f 78/48/3 80/76/3 79/85/3
f 83/47/3 84/81/3 80/76/3
f 75/48/23 81/48/23 76/84/23
f 43/76/32 80/76/32 84/81/32
f 158/11/32 41/11/32 159/82/32
f 41/11/32 42/81/32 159/82/32
f 43/76/32 13/85/32 79/85/32
f 39/69/33 132/69/33 134/86/33
f 93/58/19 94/57/19 97/57/19
f 94/57/19 95/26/19 98/26/19
f 101/87/12 102/54/12 92/45/12
f 87/6/2 39/7/2 124/7/2
f 88/89/34 126/89/34 130/90/34
f 98/31/35 60/31/35 61/30/35
f 61/30/35 148/122/35 151/91/35
f 128/88/11 126/89/11 153/93/11
f 153/93/11 152/123/11 156/124/11
f 156/124/11 155/92/11 153/93/11
f 97/94/10 99/114/10 88/89/10
f 101/87/11 99/114/11 150/96/11
f 150/96/11 149/95/11 101/87/11
f 99/114/10 97/94/10 150/96/10
f 97/94/10 98/31/10 151/91/10
f 35/58/24 93/58/24 40/69/24
f 172/97/85 177/104/85 165/98/85
f 58/60/86 164/126/86 176/59/86
f 167/58/37 35/58/37 1/69/37
f 1/69/37 103/69/37 166/68/37
f 53/24/38 56/23/38 175/66/38
f 66/61/27 62/65/27 63/99/27
f 54/63/39 173/129/39 168/100/39
f 20/101/2 63/101/2 59/28/2
f 63/99/87 62/65/87 165/102/87
f 66/61/25 52/61/25 169/64/25
f 52/61/25 51/71/25 169/64/25
f 170/103/8 174/125/8 177/104/8
f 20/101/2 19/80/2 65/80/2
f 108/74/7 110/61/7 109/62/7
f 106/75/5 108/74/5 107/105/5
f 112/72/5 113/73/5 108/74/5
f 55/76/4 106/75/4 105/106/4
f 15/27/2 13/49/2 104/49/2
f 49/74/42 108/74/42 113/73/42
f 49/74/43 52/61/43 110/61/43
f 46/75/29 45/72/29 112/72/29
f 52/61/44 19/62/44 109/62/44
f 161/16/42 47/16/42 48/73/42
f 48/73/42 113/73/42 162/78/42
f 43/76/45 55/76/45 104/85/45
f 139/51/46 72/51/46 75/48/46
f 75/48/46 116/48/46 140/107/46
f 118/84/22 117/84/22 120/48/22
f 136/39/47 85/39/47 137/108/47
f 85/39/47 82/12/47 121/12/47
f 119/48/22 120/48/22 123/47/22
f 78/48/48 77/84/48 118/84/48
f 83/47/48 122/47/48 121/12/48
f 137/108/22 121/12/22 122/47/22
f 122/47/22 123/47/22 138/109/22
f 75/48/49 33/84/49 115/84/49
f 78/48/48 119/48/48 122/47/48
f 115/84/14 114/53/14 141/121/14
f 141/121/14 140/107/14 115/84/14
f 81/48/31 86/47/31 123/47/31
f 128/88/50 90/88/50 143/110/50
f 90/88/88 92/45/88 144/45/88
f 126/89/11 128/88/11 127/111/11
f 157/87/51 101/87/51 90/88/51
f 90/88/51 128/88/51 155/92/51
f 130/90/10 126/89/10 125/112/10
f 89/5/2 127/5/2 129/4/2
f 126/89/52 88/89/52 153/93/52
f 88/89/52 99/114/52 154/114/52
f 129/46/12 127/111/12 142/115/12
f 127/111/12 128/88/12 143/110/12
f 89/5/2 87/6/2 125/6/2
f 39/69/53 96/86/53 130/86/53
f 131/69/19 133/58/19 134/86/19
f 96/86/54 134/86/54 133/58/54
f 39/7/2 40/7/2 131/7/2
f 40/69/55 93/58/55 133/58/55
f 53/24/27 50/70/27 180/20/27
f 180/20/27 179/117/27 53/24/27
f 123/47/31 86/47/31 138/109/31
f 86/47/31 85/39/31 136/39/31
f 114/53/58 32/53/58 141/121/58
f 32/53/58 72/51/58 141/121/58
f 144/45/60 92/45/60 142/115/60
f 92/45/60 91/46/60 142/115/60
f 100/33/62 64/33/62 147/55/62
f 64/33/62 67/2/62 145/2/62
f 148/122/89 149/95/89 150/96/89
f 148/122/64 61/30/64 64/33/64
f 64/33/64 100/33/64 149/95/64
f 154/114/67 99/114/67 101/87/67
f 101/87/67 157/87/67 156/124/67
f 156/124/67 152/123/67 101/87/67
f 82/12/69 38/12/69 160/83/69
f 38/12/69 41/11/69 158/11/69
f 111/14/71 44/14/71 47/16/71
f 47/16/71 161/16/71 163/79/71
f 170/103/90 172/97/90 173/63/90
f 176/59/91 177/104/91 174/125/91
f 164/126/92 165/98/92 177/104/92
f 164/127/93 167/58/93 166/68/93
f 171/24/94 175/66/94 174/125/94
f 173/129/95 172/134/95 169/64/95
f 58/60/96 35/58/96 167/58/96
f 178/18/97 179/133/97 180/20/97
f 178/18/6 181/135/6 18/118/6
f 183/37/98 184/36/98 185/1/98
f 31/42/81 8/42/81 182/130/81
f 8/42/81 10/37/81 183/37/81
