# Blender 4.4.3
# www.blender.org
mtllib murek_3.2.mtl
o Vert.003
v -2.038266 -0.298259 -12.074288
v -2.038266 -0.298259 16.134401
v -2.038266 1.757148 16.134401
v -2.038266 1.757148 14.267994
v -2.038266 3.859806 14.267994
v -2.038266 3.859806 12.614222
v -2.038266 5.986089 12.614222
v -2.038266 5.986089 5.573860
v -2.038266 3.954307 5.573860
v -2.038266 3.954307 7.274889
v -2.038266 1.804399 7.274889
v -2.038266 1.804399 3.683832
v -2.038266 3.836180 3.683832
v -2.038266 3.836180 2.006430
v -2.038266 6.009714 2.006430
v -2.038266 6.009714 -8.577734
v -2.038266 3.907056 -8.577734
v -2.038266 3.907056 -13.940693
v -2.038266 1.780773 -13.940693
v -2.038266 1.780773 -12.121540
v 0.061766 -0.298259 -12.074288
v 0.061766 -0.298259 16.134401
v 0.061766 1.757148 16.134401
v 0.061766 1.757148 14.267994
v 0.061766 3.859806 14.267994
v 0.061766 3.859806 12.614222
v 0.061766 5.986089 12.614222
v 0.061766 5.986089 5.573860
v 0.061766 3.954307 5.573860
v 0.061766 3.954307 7.274889
v 0.061766 1.804399 7.274889
v 0.061766 1.804399 3.683832
v 0.061766 3.836180 3.683832
v 0.061766 3.836180 2.006430
v 0.061766 6.009714 2.006430
v 0.061766 6.009714 -8.577734
v 0.061766 3.907056 -8.577734
v 0.061766 3.907056 -13.940693
v 0.061766 1.780773 -13.940693
v 0.061766 1.780773 -12.121540
vn -0.0000 -1.0000 -0.0000
vn -0.0000 -0.0000 1.0000
vn -0.0000 1.0000 -0.0000
vn -0.0000 -0.0000 -1.0000
vn -0.0000 -0.0227 -0.9997
vn -1.0000 -0.0000 -0.0000
vn 1.0000 -0.0000 -0.0000
vt 0.000085 0.689731
vt 0.038810 0.658364
vt 0.038810 0.689731
vt 0.310683 0.520253
vt 0.271959 0.558154
vt 0.271959 0.520253
vt 0.000085 0.210079
vt 0.038810 0.111186
vt 0.038810 0.210079
vt 0.000085 0.658364
vt 0.038810 0.618720
vt 0.000085 0.999915
vt 0.038810 0.965498
vt 0.038810 0.999915
vt 0.000085 0.111186
vt 0.038810 0.071978
vt 0.000085 0.618720
vt 0.038810 0.552501
vt 0.000085 0.965498
vt 0.038810 0.926725
vt 0.000085 0.071978
vt 0.038810 0.038432
vt 0.000085 0.552501
vt 0.038810 0.515035
vt 0.000085 0.926725
vt 0.038810 0.896230
vt 0.000085 0.000085
vt 0.038810 0.000085
vt 0.000085 0.515035
vt 0.038810 0.484104
vt 0.000085 0.896230
vt 0.038810 0.857021
vt 0.000085 0.484104
vt 0.038810 0.444024
vt 0.000085 0.857021
vt 0.038810 0.727197
vt 0.000085 0.444024
vt 0.038810 0.248852
vt 0.000085 0.727197
vt 0.310683 0.000085
vt 0.271959 0.000085
vt 0.000085 0.248852
vt 0.115219 0.260605
vt 0.155299 0.260605
vt 0.116526 0.455776
vt 0.233015 0.229673
vt 0.271788 0.520253
vt 0.194242 0.455776
vt 0.310683 0.558154
vt 0.000085 0.038432
vt 0.077318 0.521124
vt 0.038980 0.520253
vt 0.038980 0.000085
vt 0.077753 0.229673
vt 0.077753 0.163454
vt 0.076882 0.000085
vt 0.076882 0.034502
vt 0.115655 0.034502
vt 0.115655 0.064997
vt 0.154863 0.064997
vt 0.117397 0.163454
vt 0.154863 0.194821
vt 0.117397 0.194821
vt 0.116526 0.554669
vt 0.077318 0.554669
vt 0.115219 0.229673
vt 0.155299 0.455776
vt 0.271788 0.000085
vt 0.233451 0.521124
vt 0.233015 0.163454
vt 0.233451 0.554669
vt 0.194242 0.554669
vt 0.155470 0.455776
vt 0.155470 0.260605
vt 0.233887 0.034502
vt 0.233887 0.000085
vt 0.195114 0.064997
vt 0.195114 0.034502
vt 0.155905 0.194821
vt 0.155905 0.064997
vt 0.193371 0.163454
vt 0.193371 0.194821
vt 0.195549 0.260605
vt 0.195549 0.229673
s 0
usemtl ruina
f 29/1/1 10/2/1 9/3/1
f 22/4/2 3/5/2 2/6/2
f 37/7/3 18/8/3 17/9/3
f 30/10/4 11/11/4 10/2/4
f 23/12/3 4/13/3 3/14/3
f 38/15/4 19/16/4 18/8/4
f 31/17/3 12/18/3 11/11/3
f 24/19/2 5/20/2 4/13/2
f 39/21/1 20/22/1 19/16/1
f 32/23/2 13/24/2 12/18/2
f 25/25/3 6/26/3 5/20/3
f 20/22/5 21/27/5 1/28/5
f 33/29/3 14/30/3 13/24/3
f 26/31/2 7/32/2 6/26/2
f 34/33/2 15/34/2 14/30/2
f 27/35/3 8/36/3 7/32/3
f 35/37/3 16/38/3 15/34/3
f 28/39/4 9/3/4 8/36/4
f 21/40/1 2/6/1 1/41/1
f 36/42/4 17/9/4 16/38/4
f 14/43/6 15/44/6 17/45/6
f 32/46/7 21/47/7 37/48/7
f 29/1/1 30/10/1 10/2/1
f 22/4/2 23/49/2 3/5/2
f 37/7/3 38/15/3 18/8/3
f 30/10/4 31/17/4 11/11/4
f 23/12/3 24/19/3 4/13/3
f 38/15/4 39/21/4 19/16/4
f 31/17/3 32/23/3 12/18/3
f 24/19/2 25/25/2 5/20/2
f 39/21/1 40/50/1 20/22/1
f 32/23/2 33/29/2 13/24/2
f 25/25/3 26/31/3 6/26/3
f 20/22/5 40/50/5 21/27/5
f 33/29/3 34/33/3 14/30/3
f 26/31/2 27/35/2 7/32/2
f 34/33/2 35/37/2 15/34/2
f 27/35/3 28/39/3 8/36/3
f 35/37/3 36/42/3 16/38/3
f 28/39/4 29/1/4 9/3/4
f 21/40/1 22/4/1 2/6/1
f 36/42/4 37/7/4 17/9/4
f 20/51/6 1/52/6 17/45/6
f 1/52/6 2/53/6 12/54/6
f 12/54/6 2/53/6 11/55/6
f 2/53/6 3/56/6 4/57/6
f 4/57/6 5/58/6 6/59/6
f 6/59/6 7/60/6 10/61/6
f 7/60/6 8/62/6 10/61/6
f 8/62/6 9/63/6 10/61/6
f 2/53/6 4/57/6 11/55/6
f 4/57/6 6/59/6 11/55/6
f 6/59/6 10/61/6 11/55/6
f 18/64/6 19/65/6 20/51/6
f 12/54/6 13/66/6 14/43/6
f 1/52/6 12/54/6 17/45/6
f 17/45/6 18/64/6 20/51/6
f 15/44/6 16/67/6 17/45/6
f 12/54/6 14/43/6 17/45/6
f 22/68/7 21/47/7 32/46/7
f 21/47/7 40/69/7 37/48/7
f 22/68/7 32/46/7 31/70/7
f 40/69/7 39/71/7 38/72/7
f 37/48/7 36/73/7 35/74/7
f 40/69/7 38/72/7 37/48/7
f 24/75/7 23/76/7 22/68/7
f 26/77/7 25/78/7 24/75/7
f 28/79/7 27/80/7 30/81/7
f 27/80/7 26/77/7 30/81/7
f 30/81/7 29/82/7 28/79/7
f 24/75/7 22/68/7 31/70/7
f 30/81/7 26/77/7 31/70/7
f 26/77/7 24/75/7 31/70/7
f 37/48/7 35/74/7 34/83/7
f 34/83/7 33/84/7 32/46/7
f 37/48/7 34/83/7 32/46/7
