# Blender 4.4.3
# www.blender.org
mtllib sciana_3.2obj.mtl
o Vert.005
v 6.207642 -0.396159 -12.137977
v 6.207642 1.725761 -12.137977
v 6.207642 1.725761 -10.415288
v 6.207642 3.825807 -10.415288
v 6.207642 3.825807 -5.099552
v 6.207642 5.991478 -5.099552
v 6.207642 5.991478 -6.887872
v 6.207642 8.114492 -6.887872
v 6.207642 8.114492 -5.099552
v 6.207642 10.254324 -5.099552
v 6.207642 10.254324 1.922475
v 6.207642 8.114492 1.922475
v 6.207642 8.114492 5.108273
v 6.207642 8.114492 7.200645
v 6.207642 -0.394484 7.200645
v 4.129473 -0.396159 -12.137977
v 4.129473 1.725761 -12.137977
v 4.129473 1.725761 -10.415288
v 4.129473 3.825807 -10.415288
v 4.129473 3.825807 -5.099552
v 4.129473 5.991478 -5.099552
v 4.129473 5.991478 -6.887872
v 4.129473 8.114492 -6.887872
v 4.129473 8.114492 -5.099552
v 4.129473 10.254324 -5.099552
v 4.129473 10.254324 1.922475
v 4.129473 8.114492 1.922475
v 4.129473 8.114492 5.108273
v 4.129473 8.114492 7.200645
v 4.129473 -0.394484 7.200645
v 6.207642 -0.394484 5.108273
v 4.129473 -0.394484 5.108273
v 6.207642 10.278933 5.108273
v 6.207642 10.278933 7.200645
v 4.129473 10.278933 5.108273
v 4.129473 10.278933 7.200645
v 4.129473 12.370775 5.108273
v 4.129473 12.370775 7.200645
v 0.634865 12.370775 5.108273
v 0.634865 12.370775 7.200645
v 0.634865 10.278933 5.108273
v 0.634865 10.278933 7.200645
v -4.336336 10.278933 5.108273
v -4.336336 10.278933 7.200645
v -4.336336 8.172962 5.108273
v -4.336336 8.172962 7.200645
v -6.444129 8.172962 5.108273
v -6.444129 8.172962 7.200645
v -6.444129 6.017697 5.108273
v -6.444129 6.017697 7.200645
v -7.868314 6.017697 5.108273
v -7.868314 6.017697 7.200645
v -7.868314 3.868233 5.108273
v -7.868314 3.868233 7.200645
v -6.444129 3.868233 5.108273
v -6.444129 3.868233 7.200645
v -6.444129 1.738549 5.108273
v -6.444129 1.738549 7.200645
v -7.861721 1.738549 5.108273
v -7.861721 1.738549 7.200645
v -7.861721 -0.394484 5.108273
v -7.861721 -0.394484 7.200645
vn -0.0000 -1.0000 -0.0000
vn -0.0000 -1.0000 0.0001
vn -0.0000 -0.0000 -1.0000
vn -0.0000 -0.0000 1.0000
vn -0.0000 1.0000 -0.0000
vn 1.0000 -0.0000 -0.0000
vn -1.0000 -0.0000 -0.0000
vt 0.000241 0.600523
vt 0.062037 0.547346
vt 0.062037 0.600523
vt 0.823179 0.513073
vt 0.884975 0.000241
vt 0.884975 0.513073
vt 0.000241 0.547346
vt 0.062037 0.484216
vt 0.758330 0.637597
vt 0.505308 0.575801
vt 0.758330 0.575801
vt 0.000241 0.484216
vt 0.062037 0.431039
vt 0.000241 0.999759
vt 0.062037 0.936662
vt 0.062037 0.999759
vt 0.000241 0.431039
vt 0.062037 0.367409
vt 0.000241 0.936662
vt 0.062037 0.885436
vt 0.000241 0.367409
vt 0.062037 0.158603
vt 0.000241 0.885436
vt 0.062037 0.822989
vt 0.000241 0.158603
vt 0.062037 0.094973
vt 0.000241 0.822990
vt 0.062037 0.664921
vt 0.000241 0.094973
vt 0.062037 0.000241
vt 0.000241 0.664921
vt 0.822697 0.513101
vt 0.758330 0.575314
vt 0.758335 0.513095
vt 0.823179 0.575292
vt 0.884975 0.575292
vt 0.187497 0.932549
vt 0.249294 0.870331
vt 0.249294 0.932549
vt 0.822691 0.637597
vt 0.125219 0.870331
vt 0.187015 0.934693
vt 0.125219 0.934693
vt 0.124737 0.934693
vt 0.062519 0.870331
vt 0.124737 0.870331
vt 0.442608 0.883297
vt 0.504826 0.821095
vt 0.504826 0.883297
vt 0.442608 0.821095
vt 0.504826 0.717179
vt 0.442608 0.717179
vt 0.504826 0.654977
vt 0.442608 0.654976
vt 0.504826 0.507154
vt 0.442608 0.507154
vt 0.504826 0.444531
vt 0.442607 0.444531
vt 0.504826 0.381854
vt 0.442607 0.381854
vt 0.504826 0.317765
vt 0.442607 0.317765
vt 0.504826 0.275415
vt 0.442608 0.275415
vt 0.504826 0.211499
vt 0.442607 0.211499
vt 0.504826 0.169150
vt 0.442607 0.169150
vt 0.504826 0.105822
vt 0.442607 0.105822
vt 0.504826 0.063669
vt 0.442607 0.063669
vt 0.504826 0.000241
vt 0.885376 0.575801
vt 0.947594 0.932370
vt 0.885376 0.932370
vt 0.695232 0.209551
vt 0.758361 0.209556
vt 0.758343 0.418363
vt 0.188051 0.660548
vt 0.062539 0.357017
vt 0.315567 0.451735
vt 0.189277 0.042594
vt 0.253193 0.042590
vt 0.317286 0.105264
vt 0.760068 0.889335
vt 0.695980 0.952013
vt 0.632064 0.952013
vt 0.823178 0.000241
vt 0.505308 0.637597
vt 0.000241 0.000241
vt 0.822691 0.575319
vt 0.187497 0.870331
vt 0.822691 0.575801
vt 0.187015 0.870331
vt 0.062519 0.934693
vt 0.442607 0.000241
vt 0.947594 0.575801
vt 0.505313 0.513073
vt 0.505308 0.000241
vt 0.630834 0.209545
vt 0.568405 0.000246
vt 0.568401 0.051472
vt 0.630847 0.051477
vt 0.505308 0.575292
vt 0.695236 0.156374
vt 0.758366 0.156379
vt 0.821991 0.209562
vt 0.821973 0.418368
vt 0.125616 0.869846
vt 0.062519 0.869849
vt 0.125613 0.818620
vt 0.315561 0.357002
vt 0.379196 0.451731
vt 0.379208 0.660537
vt 0.315579 0.660541
vt 0.315582 0.713718
vt 0.252452 0.713722
vt 0.188060 0.818616
vt 0.252449 0.660545
vt 0.442120 0.253080
vt 0.442126 0.356995
vt 0.379923 0.356999
vt 0.062519 0.000448
vt 0.125949 0.042598
vt 0.379917 0.253083
vt 0.379908 0.105260
vt 0.125947 0.000444
vt 0.189275 0.000245
vt 0.253191 0.000241
vt 0.317282 0.042587
vt 0.884894 0.637597
vt 0.884894 0.741512
vt 0.822691 0.741512
vt 0.822691 0.889335
vt 0.505308 0.994166
vt 0.568736 0.952013
vt 0.760068 0.952013
vt 0.568736 0.994166
vt 0.695980 0.994362
vt 0.632064 0.994362
s 0
usemtl ruina
f 21/1/1 7/2/1 6/3/1
f 32/4/2 1/5/2 31/6/2
f 22/7/3 8/8/3 7/2/3
f 29/9/4 15/10/4 14/11/4
f 23/12/5 9/13/5 8/8/5
f 16/14/3 2/15/3 1/16/3
f 24/17/3 10/18/3 9/13/3
f 17/19/5 3/20/5 2/15/5
f 25/21/5 11/22/5 10/18/5
f 18/23/3 4/24/3 3/20/3
f 26/25/4 12/26/4 11/22/4
f 19/27/5 5/28/5 4/24/5
f 27/29/5 13/30/5 12/26/5
f 20/31/3 6/3/3 5/28/3
f 33/32/6 14/33/6 13/34/6
f 30/35/1 31/6/1 15/36/1
f 35/37/5 34/38/5 33/39/5
f 14/11/4 36/40/4 29/9/4
f 35/41/3 13/42/3 28/43/3
f 36/44/7 28/45/7 29/46/7
f 35/47/6 38/48/6 36/49/6
f 37/50/5 40/51/5 38/48/5
f 39/52/7 42/53/7 40/51/7
f 41/54/5 44/55/5 42/53/5
f 43/56/7 46/57/7 44/55/7
f 45/58/5 48/59/5 46/57/5
f 47/60/7 50/61/7 48/59/7
f 49/62/5 52/63/5 50/61/5
f 51/64/7 54/65/7 52/63/7
f 53/66/1 56/67/1 54/65/1
f 55/68/7 58/69/7 56/67/7
f 57/70/5 60/71/5 58/69/5
f 59/72/7 62/73/7 60/71/7
f 62/74/1 32/75/1 30/76/1
f 6/77/6 9/78/6 12/79/6
f 20/80/7 32/81/7 27/82/7
f 55/83/3 49/84/3 45/85/3
f 46/86/4 50/87/4 56/88/4
f 21/1/1 22/7/1 7/2/1
f 32/4/2 16/89/2 1/5/2
f 22/7/3 23/12/3 8/8/3
f 29/9/4 30/90/4 15/10/4
f 23/12/5 24/17/5 9/13/5
f 16/14/3 17/19/3 2/15/3
f 24/17/3 25/21/3 10/18/3
f 17/19/5 18/23/5 3/20/5
f 25/21/5 26/25/5 11/22/5
f 18/23/3 19/27/3 4/24/3
f 26/25/4 27/29/4 12/26/4
f 19/27/5 20/31/5 5/28/5
f 27/29/5 28/91/5 13/30/5
f 20/31/3 21/1/3 6/3/3
f 33/32/6 34/92/6 14/33/6
f 30/35/1 32/4/1 31/6/1
f 35/37/5 36/93/5 34/38/5
f 14/11/4 34/94/4 36/40/4
f 35/41/3 33/95/3 13/42/3
f 36/44/7 35/96/7 28/45/7
f 35/47/6 37/50/6 38/48/6
f 37/50/5 39/52/5 40/51/5
f 39/52/7 41/54/7 42/53/7
f 41/54/5 43/56/5 44/55/5
f 43/56/7 45/58/7 46/57/7
f 45/58/5 47/60/5 48/59/5
f 47/60/7 49/62/7 50/61/7
f 49/62/5 51/64/5 52/63/5
f 51/64/7 53/66/7 54/65/7
f 53/66/1 55/68/1 56/67/1
f 55/68/7 57/70/7 58/69/7
f 57/70/5 59/72/5 60/71/5
f 59/72/7 61/97/7 62/73/7
f 62/74/1 61/98/1 32/75/1
f 31/99/6 1/100/6 5/101/6
f 1/100/6 2/102/6 3/103/6
f 3/103/6 4/104/6 5/101/6
f 1/100/6 3/103/6 5/101/6
f 14/33/6 15/105/6 31/99/6
f 13/34/6 14/33/6 31/99/6
f 6/77/6 7/106/6 8/107/6
f 31/99/6 5/101/6 12/79/6
f 5/101/6 6/77/6 12/79/6
f 12/79/6 13/34/6 31/99/6
f 10/108/6 11/109/6 12/79/6
f 6/77/6 8/107/6 9/78/6
f 9/78/6 10/108/6 12/79/6
f 17/110/7 16/111/7 18/112/7
f 16/111/7 32/81/7 20/80/7
f 18/112/7 16/111/7 20/80/7
f 32/81/7 28/113/7 27/82/7
f 27/82/7 26/114/7 25/115/7
f 24/116/7 23/117/7 22/118/7
f 27/82/7 25/115/7 24/116/7
f 20/80/7 19/119/7 18/112/7
f 24/116/7 22/118/7 21/120/7
f 27/82/7 24/116/7 21/120/7
f 21/120/7 20/80/7 27/82/7
f 39/121/3 37/122/3 35/123/3
f 28/113/3 32/81/3 45/85/3
f 32/81/3 61/124/3 57/125/3
f 39/121/3 35/123/3 41/126/3
f 35/123/3 28/113/3 41/126/3
f 45/85/3 43/127/3 41/126/3
f 61/124/3 59/128/3 57/125/3
f 55/83/3 53/129/3 51/130/3
f 32/81/3 57/125/3 55/83/3
f 55/83/3 51/130/3 49/84/3
f 32/81/3 55/83/3 45/85/3
f 45/85/3 41/126/3 28/113/3
f 49/84/3 47/131/3 45/85/3
f 36/40/4 38/132/4 40/133/4
f 42/134/4 44/135/4 46/86/4
f 36/40/4 40/133/4 42/134/4
f 62/136/4 30/90/4 58/137/4
f 30/90/4 29/9/4 46/86/4
f 58/137/4 30/90/4 56/88/4
f 29/9/4 36/40/4 42/134/4
f 46/86/4 48/138/4 50/87/4
f 29/9/4 42/134/4 46/86/4
f 58/137/4 60/139/4 62/136/4
f 52/140/4 54/141/4 56/88/4
f 56/88/4 30/90/4 46/86/4
f 50/87/4 52/140/4 56/88/4
