# Blender 4.4.3
# www.blender.org
mtllib sciana_1.mtl
o lowpoly2
v 15.975914 0.308412 51.134476
v 15.975914 0.308412 -23.799824
v 15.975914 17.139099 -23.799824
v 15.975914 17.139099 -9.766359
v 15.975914 12.981041 -9.766359
v 15.975914 12.981041 11.555952
v 15.975914 17.139099 11.555952
v 15.975914 17.139099 15.797422
v 15.975914 4.475919 15.796247
v 15.975914 4.475919 18.584042
v 15.975914 8.681229 18.584042
v 15.975914 8.681229 32.664730
v 15.975914 4.475919 32.664730
v 15.975914 4.475919 39.846832
v 15.975914 8.586727 39.846832
v 15.975914 8.586727 46.839920
v 15.975914 4.475920 46.839920
v 15.975914 4.475920 51.134476
v 15.975914 0.308411 11.555952
v 15.975914 17.139099 -19.615940
v 15.975914 0.308411 -19.615940
v 11.762091 0.308412 51.134476
v 11.762091 0.308412 -23.799824
v 11.762091 17.139099 -23.799824
v 11.762091 17.139099 -9.766359
v 11.762091 12.981041 -9.766359
v 11.762091 12.981041 11.555952
v 11.762091 17.139099 11.555952
v 11.762091 17.139099 15.797422
v 11.762091 4.475919 15.796247
v 11.762091 4.475919 18.584042
v 11.762091 8.681229 18.584042
v 11.762091 8.681229 32.664730
v 11.762091 4.475919 32.664730
v 11.762091 4.475919 39.846832
v 11.762091 8.586727 39.846832
v 11.762091 8.586727 46.839920
v 11.762091 4.475920 46.839920
v 11.762091 4.475920 51.134476
v 11.762091 0.308411 11.555952
v 11.762091 17.139099 -19.615940
v 11.762091 0.308411 -19.615940
v 11.762091 12.953499 -19.615940
v 15.975914 12.953499 -23.799824
v 11.762091 12.953499 -23.799824
v 2.012203 0.308412 -23.799824
v 2.012203 0.308411 -19.615940
v 2.012203 12.953499 -19.615940
v 2.012203 12.953499 -23.799824
v 2.012203 8.643452 -19.615940
v 2.012203 8.643452 -23.799824
v -12.251102 8.643452 -19.615940
v -12.251102 8.643452 -23.799824
v -12.251102 12.869410 -19.615940
v -12.251102 12.869410 -23.799824
v -19.205313 12.869410 -19.615940
v -19.205313 12.869410 -23.799824
v -19.205313 8.643452 -19.615940
v -19.205313 8.643452 -23.799824
v -23.594248 8.643452 -19.615940
v -23.594248 8.643452 -23.799824
v -23.594248 4.397626 -19.615940
v -23.594248 4.397626 -23.799824
v -19.246759 4.397626 -19.615940
v -19.246759 4.397626 -23.799824
v -19.246759 0.195204 -19.615940
v -19.246759 0.195204 -23.799824
v -5.267851 17.139099 11.555952
v -5.267851 17.139099 15.797422
v -5.267851 12.906225 11.555952
v -5.267851 12.906225 15.797422
v -23.884718 12.906225 11.555952
v -23.884718 12.906225 15.797422
v -23.884718 8.702766 11.555952
v -23.884718 8.702766 15.797422
v -19.417379 8.702766 11.555952
v -19.417379 8.702766 15.797422
v -19.417379 4.485112 11.555952
v -19.417379 4.485112 15.797422
v -23.845915 4.485112 11.555952
v -23.845915 4.485112 15.797422
v -23.845915 0.178865 11.555952
v -23.845915 0.178865 15.797422
v 15.975914 0.308411 15.797422
v 11.762091 0.308411 15.797422
vn -0.0000 1.0000 -0.0000
vn -0.0000 -0.0000 -1.0000
vn -0.0000 -0.0001 1.0000
vn -0.0000 -1.0000 -0.0000
vn -0.0000 -0.0000 1.0000
vn 0.0053 -1.0000 -0.0000
vn -1.0000 -0.0000 -0.0000
vn 1.0000 -0.0000 -0.0000
vn 0.0036 -1.0000 -0.0000
vn 0.0002 0.0003 1.0000
vt 0.808999 0.279765
vt 0.847165 0.214715
vt 0.847165 0.279765
vt 0.513926 0.717671
vt 0.476266 0.679506
vt 0.513926 0.679506
vt 0.808999 0.214715
vt 0.847165 0.177483
vt 0.668621 0.557314
vt 0.707037 0.595479
vt 0.668621 0.595479
vt 0.808999 0.177483
vt 0.847165 0.114145
vt 0.514468 0.323130
vt 0.629160 0.361296
vt 0.514468 0.361296
vt 0.038436 0.641070
vt 0.000271 0.678964
vt 0.000271 0.641070
vt 0.808999 0.114145
vt 0.847165 0.076913
vt 0.808999 0.508722
vt 0.847165 0.483473
vt 0.847165 0.508722
vt 0.267902 0.960728
vt 0.305689 0.999015
vt 0.267779 0.998894
vt 0.808999 0.076913
vt 0.847165 0.038017
vt 0.808999 0.483473
vt 0.847165 0.445385
vt 0.847165 0.547158
vt 0.809000 0.636367
vt 0.809000 0.547158
vt 0.000271 0.320325
vt 0.038436 0.358741
vt 0.000271 0.358741
vt 0.808999 0.445385
vt 0.847165 0.317853
vt 0.847165 0.636367
vt 0.809000 0.674028
vt 0.847165 0.509264
vt 0.809000 0.509264
vt 0.808999 0.317853
vt 0.847165 0.674028
vt 0.809000 0.867148
vt 0.153373 0.960360
vt 0.153251 0.998525
vt 0.319292 0.678964
vt 0.126743 0.641070
vt 0.319292 0.641070
vt 0.038436 0.678964
vt 0.668621 0.403071
vt 0.707037 0.557314
vt 0.668621 0.364733
vt 0.707037 0.403071
vt 0.668621 0.196116
vt 0.707037 0.364733
vt 0.668621 0.158045
vt 0.707037 0.196116
vt 0.668621 0.117583
vt 0.707037 0.158045
vt 0.668621 0.079383
vt 0.707037 0.117583
vt 0.668621 0.039273
vt 0.707037 0.079383
vt 0.668621 0.000271
vt 0.707037 0.039273
vt 0.038436 0.000271
vt 0.000271 0.000271
vt 0.707578 0.000271
vt 0.745473 0.088577
vt 0.707578 0.088577
vt 0.745473 0.127614
vt 0.707578 0.127614
vt 0.707578 0.256799
vt 0.745473 0.295075
vt 0.707578 0.295075
vt 0.707578 0.358060
vt 0.745473 0.396336
vt 0.707578 0.396336
vt 0.707578 0.436087
vt 0.745473 0.474542
vt 0.707578 0.474542
vt 0.707578 0.513918
vt 0.745473 0.551980
vt 0.707578 0.551980
vt 0.745473 0.513918
vt 0.745473 0.436087
vt 0.745473 0.358060
vt 0.745473 0.256799
vt 0.038180 0.717400
vt 0.000271 0.679506
vt 0.038180 0.679506
vt 0.229149 0.872297
vt 0.268185 0.872422
vt 0.808458 0.256799
vt 0.306353 0.718882
vt 0.344808 0.679506
vt 0.344808 0.719257
vt 0.153657 0.872054
vt 0.229766 0.680127
vt 0.152709 0.999729
vt 0.037931 0.999729
vt 0.037931 0.806609
vt 0.552689 0.643873
vt 0.552805 0.798118
vt 0.514468 0.797979
vt 0.745137 0.876639
vt 0.745282 0.916390
vt 0.706683 0.877154
vt 0.360946 0.358741
vt 0.038436 0.320325
vt 0.360946 0.320325
vt 0.590877 0.040732
vt 0.629077 0.040732
vt 0.552806 0.168887
vt 0.666997 0.643184
vt 0.629222 0.540961
vt 0.629204 0.475911
vt 0.399234 0.384149
vt 0.437322 0.384149
vt 0.399234 0.511680
vt 0.808999 0.038017
vt 0.847165 0.000271
vt 0.476266 0.717671
vt 0.629160 0.323130
vt 0.305811 0.960850
vt 0.847165 0.867148
vt 0.126743 0.678964
vt 0.707037 0.000271
vt 0.745473 0.000271
vt 0.000271 0.717400
vt 0.808458 0.295075
vt 0.306353 0.679506
vt 0.153251 0.679506
vt 0.000271 0.806609
vt 0.152709 0.717400
vt 0.667466 0.644291
vt 0.667466 0.966801
vt 0.628610 0.926550
vt 0.628464 0.966659
vt 0.590410 0.926411
vt 0.590263 0.966872
vt 0.552192 0.966733
vt 0.515029 0.643736
vt 0.668944 0.684745
vt 0.668621 0.596439
vt 0.744435 0.684469
vt 0.783149 0.596021
vt 0.783472 0.684326
vt 0.744907 0.813653
vt 0.783182 0.813514
vt 0.783412 0.876499
vt 0.668621 0.877293
vt 0.706827 0.916530
vt 0.629077 0.000622
vt 0.668080 0.000622
vt 0.666906 0.323130
vt 0.514468 0.168887
vt 0.552806 0.000271
vt 0.590877 0.000271
vt 0.629168 0.348380
vt 0.629251 0.643195
vt 0.629240 0.604299
vt 0.592008 0.604309
vt 0.591990 0.540971
vt 0.591115 0.475922
vt 0.591079 0.348391
vt 0.361488 0.320494
vt 0.361488 0.038165
vt 0.476266 0.127374
vt 0.361488 0.000271
vt 0.476017 0.000271
vt 0.513926 0.000271
vt 0.513926 0.038165
vt 0.361488 0.678964
vt 0.361488 0.358910
vt 0.399234 0.358899
vt 0.399234 0.576730
vt 0.399234 0.640068
vt 0.399234 0.678964
vt 0.436466 0.576730
vt 0.436466 0.640068
vt 0.513926 0.127374
vt 0.476266 0.320494
vt 0.513926 0.320494
vt 0.513926 0.358910
vt 0.437322 0.511680
vt 0.808999 0.000271
s 0
usemtl sciana_1
f 34/1/1 14/2/1 13/3/1
f 27/4/2 7/5/2 6/6/2
f 35/7/2 15/8/2 14/2/2
f 28/9/1 8/10/1 7/11/1
f 36/12/1 16/13/1 15/8/1
f 29/14/3 9/15/3 8/16/3
f 42/17/4 2/18/4 21/19/4
f 37/20/5 17/21/5 16/13/5
f 30/22/1 10/23/1 9/24/1
f 45/25/2 3/26/2 44/27/2
f 38/28/1 18/29/1 17/21/1
f 31/30/2 11/31/2 10/23/2
f 41/32/1 4/33/1 20/34/1
f 84/35/4 40/36/4 19/37/4
f 32/38/1 12/39/1 11/31/1
f 25/40/5 5/41/5 4/33/5
f 24/42/1 20/34/1 3/43/1
f 33/44/5 13/3/5 12/39/5
f 26/45/1 6/46/1 5/41/1
f 40/36/4 21/19/4 19/37/4
f 23/47/2 44/27/2 2/48/2
f 67/49/6 47/50/6 66/51/6
f 47/50/4 23/52/4 42/17/4
f 68/53/1 29/54/1 28/9/1
f 70/55/7 69/56/7 68/53/7
f 72/57/1 71/58/1 70/55/1
f 74/59/7 73/60/7 72/57/7
f 76/61/4 75/62/4 74/59/4
f 78/63/7 77/64/7 76/61/7
f 80/65/1 79/66/1 78/63/1
f 82/67/7 81/68/7 80/65/7
f 22/69/4 84/35/4 1/70/4
f 43/71/1 49/72/1 48/73/1
f 48/73/7 51/74/7 50/75/7
f 52/76/8 55/77/8 54/78/8
f 56/79/7 59/80/7 58/81/7
f 60/82/7 63/83/7 62/84/7
f 64/85/7 67/86/7 66/87/7
f 62/84/4 65/88/4 64/85/4
f 58/81/1 61/89/1 60/82/1
f 54/78/1 57/90/1 56/79/1
f 52/76/1 51/74/1 53/91/1
f 43/92/7 24/93/7 45/94/7
f 51/95/2 49/96/2 45/25/2
f 59/97/2 55/77/2 53/91/2
f 65/98/2 61/99/2 59/100/2
f 46/101/2 59/102/2 51/95/2
f 40/103/7 27/104/7 26/105/7
f 27/106/2 70/107/2 68/108/2
f 58/109/5 60/110/5 64/111/5
f 82/112/9 85/113/9 83/114/9
f 77/115/5 79/116/5 71/117/5
f 22/118/7 35/119/7 34/120/7
f 10/121/8 11/122/8 13/123/8
f 39/124/5 1/125/5 18/29/5
f 34/1/1 35/7/1 14/2/1
f 27/4/2 28/126/2 7/5/2
f 35/7/2 36/12/2 15/8/2
f 28/9/1 29/54/1 8/10/1
f 36/12/1 37/20/1 16/13/1
f 29/14/3 30/127/3 9/15/3
f 42/17/4 23/52/4 2/18/4
f 37/20/5 38/28/5 17/21/5
f 30/22/1 31/30/1 10/23/1
f 45/25/2 24/128/2 3/26/2
f 38/28/1 39/124/1 18/29/1
f 31/30/2 32/38/2 11/31/2
f 41/32/1 25/40/1 4/33/1
f 84/35/4 85/113/4 40/36/4
f 32/38/1 33/44/1 12/39/1
f 25/40/5 26/45/5 5/41/5
f 24/42/1 41/32/1 20/34/1
f 33/44/5 34/1/5 13/3/5
f 26/45/1 27/129/1 6/46/1
f 40/36/4 42/17/4 21/19/4
f 23/47/2 45/25/2 44/27/2
f 67/49/6 46/130/6 47/50/6
f 47/50/4 46/130/4 23/52/4
f 68/53/1 69/56/1 29/54/1
f 70/55/7 71/58/7 69/56/7
f 72/57/1 73/60/1 71/58/1
f 74/59/7 75/62/7 73/60/7
f 76/61/4 77/64/4 75/62/4
f 78/63/7 79/66/7 77/64/7
f 80/65/1 81/68/1 79/66/1
f 82/67/7 83/131/7 81/68/7
f 22/69/4 85/113/4 84/35/4
f 43/71/1 45/132/1 49/72/1
f 48/73/7 49/72/7 51/74/7
f 52/76/8 53/91/8 55/77/8
f 56/79/7 57/90/7 59/80/7
f 60/82/7 61/89/7 63/83/7
f 64/85/7 65/88/7 67/86/7
f 62/84/4 63/83/4 65/88/4
f 58/81/1 59/80/1 61/89/1
f 54/78/1 55/77/1 57/90/1
f 52/76/1 50/75/1 51/74/1
f 43/92/7 41/133/7 24/93/7
f 45/25/2 23/47/2 51/95/2
f 23/47/2 46/101/2 51/95/2
f 59/97/2 57/134/2 55/77/2
f 65/98/2 63/135/2 61/99/2
f 46/101/2 67/136/2 59/102/2
f 25/137/7 41/133/7 26/105/7
f 41/133/7 43/92/7 26/105/7
f 43/92/7 42/138/7 26/105/7
f 42/138/7 40/103/7 26/105/7
f 27/106/2 40/139/2 70/107/2
f 40/139/2 82/140/2 78/141/2
f 82/140/2 80/142/2 78/141/2
f 76/143/2 74/144/2 72/145/2
f 40/139/2 78/141/2 70/107/2
f 76/143/2 72/145/2 70/107/2
f 78/141/2 76/143/2 70/107/2
f 68/108/2 28/146/2 27/106/2
f 47/147/5 42/148/5 50/149/5
f 42/148/5 43/150/5 50/149/5
f 43/150/5 48/151/5 50/149/5
f 52/152/5 54/153/5 56/154/5
f 52/152/5 56/154/5 58/109/5
f 47/147/5 50/149/5 52/152/5
f 64/111/5 66/155/5 52/152/5
f 66/155/5 47/147/5 52/152/5
f 60/110/5 62/156/5 64/111/5
f 52/152/5 58/109/5 64/111/5
f 82/112/9 40/36/9 85/113/9
f 81/157/5 83/158/5 79/116/5
f 83/158/5 85/159/5 79/116/5
f 30/127/3 29/14/3 71/117/3
f 29/14/5 69/160/5 71/117/5
f 85/159/10 30/127/10 71/117/10
f 79/116/5 85/159/5 71/117/5
f 71/117/5 73/161/5 77/115/5
f 73/161/5 75/162/5 77/115/5
f 30/127/7 85/159/7 31/163/7
f 85/159/7 22/118/7 34/120/7
f 31/163/7 85/159/7 34/120/7
f 22/118/7 39/164/7 38/165/7
f 38/165/7 37/166/7 36/167/7
f 38/165/7 36/167/7 35/119/7
f 33/168/7 32/169/7 31/163/7
f 34/120/7 33/168/7 31/163/7
f 22/118/7 38/165/7 35/119/7
f 19/170/8 21/171/8 5/172/8
f 21/171/8 2/173/8 44/174/8
f 44/174/8 3/175/8 20/176/8
f 21/171/8 44/174/8 5/172/8
f 1/177/8 84/178/8 13/123/8
f 84/178/8 19/170/8 9/179/8
f 1/177/8 13/123/8 14/180/8
f 17/181/8 18/182/8 1/177/8
f 15/183/8 16/184/8 17/181/8
f 14/180/8 15/183/8 17/181/8
f 17/181/8 1/177/8 14/180/8
f 44/174/8 20/176/8 5/172/8
f 20/176/8 4/185/8 5/172/8
f 6/186/8 7/187/8 8/188/8
f 6/186/8 8/188/8 9/179/8
f 19/170/8 5/172/8 6/186/8
f 13/123/8 84/178/8 10/121/8
f 11/122/8 12/189/8 13/123/8
f 10/121/8 84/178/8 9/179/8
f 19/170/8 6/186/8 9/179/8
f 39/124/5 22/190/5 1/125/5
