# Blender 4.4.3
# www.blender.org
mtllib stos.mtl
o rock.014
v 3.230984 22.945566 1.871667
v 2.864243 24.047403 2.942048
v 3.844500 23.757898 2.742755
v 1.254823 21.225748 2.655783
v 1.662165 21.025272 1.059587
v 0.956856 21.867231 3.713251
v 3.494390 22.356577 1.066283
v 3.960836 20.683294 0.030689
v 1.578452 19.908100 0.142177
v 4.885439 21.401316 0.747891
v 2.952282 20.220449 -0.231802
v 3.687429 18.881643 -0.210404
v 1.533526 18.897436 0.123275
v 0.696156 18.939882 1.118843
v 0.921124 18.405188 1.910072
v 3.187424 18.405188 0.296976
v 5.105440 18.915495 0.369130
v 2.328642 18.405186 2.963099
v 5.743521 18.405188 1.848823
v 5.590689 18.405188 4.092327
v 6.009317 19.038172 1.675558
v 6.036654 19.755602 3.098196
v 5.413216 21.289225 1.267027
v 4.565551 23.028990 3.642185
v 5.215178 20.997396 5.530145
v 3.219734 23.975058 4.484418
v 4.118021 22.428095 5.458223
v 4.854071 20.934889 5.987280
v 2.601802 22.947851 5.841436
v 3.721830 21.047617 6.162982
v 1.664381 21.809649 6.342163
v 0.858490 20.876299 6.053069
v 5.254734 18.977751 5.285463
v 2.218873 19.224213 5.527308
v 0.404109 19.172209 4.651218
v 2.825497 18.405186 4.884391
v 0.781197 18.405188 3.882195
v 0.293939 19.067736 2.228082
v 0.608272 19.584162 1.317465
v 0.242831 19.826607 3.793523
v 0.199752 20.978683 4.437758
v 0.133384 21.113165 5.163852
v 0.879481 22.656145 4.224666
v 1.271765 23.436308 4.966813
v 0.844069 22.125093 5.760485
v 1.775299 23.083174 5.699363
v 1.896483 23.917208 3.917482
v -0.834630 15.948336 -2.423534
v -1.561493 17.172266 1.258104
v 3.111118 18.417063 -1.369924
v 0.838517 15.284162 -3.752336
v 0.058636 12.638580 -3.450846
v -2.026936 14.624825 -0.631335
v -2.676889 12.890352 3.090998
v -1.677654 12.019766 -0.229732
v -2.963351 15.436474 4.369239
v -1.512733 17.320488 5.895708
v -1.626138 13.193910 6.260964
v -1.106313 15.014268 7.015642
v 2.055054 13.905061 7.817353
v 1.735946 17.257887 7.387444
v 4.545848 14.953755 7.343075
v 2.790077 18.389177 6.223044
v 1.067988 18.417063 5.551606
v -0.232384 18.417063 2.434982
v 4.878560 18.417063 -0.337398
v 6.652307 16.140823 -0.984723
v 3.649605 16.639622 -3.007317
v 6.279230 17.236664 2.064111
v 6.583003 14.141212 4.941506
v 7.489384 13.312608 0.252737
v 5.290308 16.770483 5.488893
v 5.605542 10.774659 -1.416067
v 4.952285 13.122787 -3.311396
v 5.549946 10.774659 4.546039
v 6.301413 10.774660 1.046113
v 4.047353 10.774659 0.272925
v 2.583101 10.774660 -1.912255
v 0.839059 10.774658 -0.055812
v 1.211513 10.774659 4.140080
v 2.002690 10.774659 6.414271
v -0.320994 10.653287 4.468206
v 5.367098 12.778378 6.433856
v 5.880950 9.377964 6.705974
v 4.447806 4.705677 -5.097732
v 6.825580 2.143560 -1.679716
v 5.894311 -0.132488 0.346935
v 6.541319 0.679319 3.371890
v 2.189621 6.728636 -6.127326
v 2.075371 -0.132488 2.000437
v 6.546587 8.459606 1.877816
v -3.587984 2.151409 -6.582305
v 6.543561 10.820303 5.253056
v -5.043795 7.346334 7.233632
v 1.588389 -0.132488 4.946239
v 5.500684 1.339817 5.717955
v 6.179850 4.882580 6.944206
v -0.814537 1.092833 -7.789823
v 4.241178 1.265583 -5.165767
v -1.405987 8.432756 -4.281281
v 0.880950 9.689646 -5.239220
v 1.552457 10.820303 8.021328
v 0.029366 10.820303 4.643574
v 3.280650 10.820303 3.866489
v -3.130407 4.551958 8.970209
v 3.056680 3.989677 8.546990
v 1.550132 1.305712 7.269562
v 3.873783 8.133852 8.124839
v 0.123584 8.590158 9.260655
v -2.756005 8.955856 8.948028
v 1.370540 2.575069 -7.509999
v -0.856550 4.957582 -6.955280
v -6.116521 2.070887 3.941323
v -4.203287 8.185469 2.618481
v -4.346977 4.081329 -0.789123
v -4.737829 2.346783 7.480528
v -6.421770 4.190296 5.097096
v -3.803943 0.431164 6.235695
v -1.048595 -0.132488 -4.707461
v -3.221797 -0.132486 -5.093376
v 4.318928 -0.132486 -3.924587
v 5.666171 7.127356 -1.987073
v -1.158066 10.618811 -1.467043
v -2.587132 10.421766 6.530676
v -0.246850 10.820303 2.169765
v 4.156628 10.820303 -2.266871
v -5.295081 2.090015 0.801077
v -3.812178 -0.132488 2.333835
v 5.702430 10.820303 -1.628928
v 7.611962 2.872684 3.320048
vn -0.6843 0.3780 -0.6236
vn 0.0653 0.7064 -0.7048
vn -0.1510 0.7738 -0.6152
vn -0.6701 0.5357 -0.5138
vn -0.6906 0.6745 -0.2610
vn -0.4611 0.6376 -0.6171
vn -0.0180 0.5226 -0.8524
vn 0.1961 0.5550 -0.8084
vn -0.4280 0.5925 -0.6825
vn 0.3265 0.6906 -0.6454
vn -0.3335 0.5500 -0.7657
vn -0.1530 -0.0998 -0.9832
vn 0.2080 0.0987 -0.9731
vn -0.2689 0.0300 -0.9627
vn -0.7635 0.0460 -0.6442
vn -0.1194 -0.6623 -0.7396
vn -0.4967 -0.7781 -0.3846
vn -0.2368 -0.9129 -0.3326
vn -0.0000 -1.0000 -0.0000
vn 0.2489 -0.8775 -0.4100
vn 0.2365 -0.8137 -0.5311
vn 0.9262 -0.3717 0.0631
vn 0.7543 -0.4481 -0.4798
vn 0.9647 -0.2423 0.1036
vn 0.9636 0.2307 -0.1349
vn 0.8123 0.1112 -0.5725
vn 0.5956 0.6558 -0.4639
vn 0.7903 0.5934 -0.1526
vn 0.9135 0.4058 0.0288
vn 0.7092 0.1671 -0.6849
vn 0.9134 0.3925 0.1081
vn 0.7280 0.5769 0.3703
vn 0.6224 0.7723 0.1270
vn 0.6787 0.6308 0.3760
vn 0.3873 0.6416 0.6620
vn 0.6361 0.5166 0.5731
vn 0.1795 0.4060 0.8961
vn 0.3402 0.3483 0.8735
vn 0.1813 0.2670 0.9465
vn -0.0201 -0.2799 0.9598
vn -0.0175 -0.3163 0.9485
vn 0.1149 -0.3144 0.9423
vn 0.0448 -0.3616 0.9313
vn -0.3546 -0.5358 0.7663
vn -0.2877 -0.7141 0.6382
vn 0.0134 -0.6112 0.7913
vn -0.2937 -0.7449 0.5990
vn 0.1314 -0.8788 0.4587
vn -0.8703 -0.4887 0.0606
vn -0.7376 -0.6732 -0.0523
vn -0.7579 -0.6198 -0.2034
vn -0.9407 -0.0240 -0.3383
vn -0.9451 0.2808 -0.1670
vn -0.9834 -0.1739 0.0522
vn -0.8597 0.4804 -0.1739
vn -0.8508 0.2319 -0.4716
vn -0.9955 0.0152 -0.0938
vn -0.9856 -0.1552 0.0670
vn -0.7812 -0.2590 0.5680
vn -0.7480 0.1432 0.6481
vn -0.9228 0.3549 -0.1501
vn -0.8976 0.4408 0.0111
vn -0.8556 0.4421 0.2693
vn -0.5185 0.1894 0.8339
vn -0.4004 0.4405 0.8035
vn -0.5329 0.5586 0.6356
vn 0.0843 0.9190 0.3851
vn -0.0781 0.4546 0.8873
vn -0.7859 0.5852 -0.1997
vn -0.1780 0.9304 0.3204
vn -0.0816 0.8122 0.5777
vn -0.0705 0.9955 0.0629
vn -0.6778 0.3957 -0.6197
vn -0.8096 0.2613 -0.5256
vn -0.6704 0.3562 -0.6509
vn -0.8279 0.3447 -0.4424
vn -0.7994 0.5361 -0.2713
vn -0.7438 0.4566 -0.4881
vn -0.7798 0.0849 -0.6203
vn 0.9475 -0.0861 0.3081
vn 0.7872 -0.0589 0.6138
vn 0.9438 -0.0215 0.3298
vn 0.2796 0.9599 -0.0194
vn 0.3761 0.0666 -0.9242
vn 0.5160 0.1735 -0.8389
vn -0.8743 0.3819 -0.2996
vn -0.4239 0.8311 -0.3600
vn -0.2564 0.6960 -0.6707
vn -0.5986 0.0857 -0.7965
vn -0.8172 -0.0421 -0.5748
vn -0.9150 0.3345 -0.2256
vn -0.8485 -0.1899 -0.4939
vn -0.9555 -0.1657 -0.2441
vn -0.9833 -0.0198 -0.1809
vn -0.7994 0.1426 0.5837
vn -0.7878 0.6158 -0.0114
vn -0.9072 -0.2658 0.3262
vn -0.8189 -0.0041 0.5740
vn -0.3273 -0.2806 0.9023
vn -0.2098 0.1047 0.9721
vn -0.3858 0.3471 0.8548
vn 0.3892 0.4592 0.7985
vn 0.1288 0.1382 0.9820
vn -0.2117 0.7898 0.5757
vn -0.2516 0.7744 0.5805
vn -0.3690 0.9166 0.1539
vn -0.0000 1.0000 -0.0000
vn 0.0129 0.9999 0.0084
vn 0.3660 0.6881 -0.6266
vn 0.5185 0.5822 -0.6263
vn 0.7628 0.6325 -0.1340
vn 0.4698 0.8693 0.1533
vn 0.9623 0.2296 0.1454
vn 0.8785 0.3687 0.3039
vn 0.5780 0.7695 0.2716
vn 0.9572 0.2891 0.0132
vn 0.7778 0.2636 0.5706
vn 0.5236 0.4939 0.6942
vn 0.8483 -0.4720 -0.2398
vn 0.7991 -0.2271 -0.5567
vn 0.9217 -0.3102 0.2330
vn 0.8149 -0.0123 -0.5794
vn 0.9103 -0.3650 0.1954
vn 0.0735 -0.9970 -0.0256
vn 0.0775 -0.9970 -0.0069
vn -0.4634 -0.6574 0.5943
vn -0.7434 -0.5960 0.3035
vn -0.4319 -0.8918 -0.1347
vn -0.6840 -0.7293 -0.0146
vn 0.3655 -0.6204 0.6939
vn -0.2947 -0.3867 0.8738
vn 0.2336 -0.4009 0.8858
vn 0.8559 -0.3112 0.4132
vn 0.7658 0.0205 0.6427
vn 0.2899 -0.2738 0.9170
vn -0.3907 -0.8418 -0.3724
vn -0.3947 -0.8407 -0.3708
vn 0.1295 -0.6007 -0.7889
vn 0.0796 -0.5683 -0.8190
vn 0.1840 0.1521 -0.9711
vn 0.5680 0.2774 -0.7749
vn 0.0406 -0.1249 -0.9913
vn -0.1169 0.6535 -0.7478
vn -0.4313 0.8188 -0.3790
vn -0.6757 0.7370 -0.0165
vn -0.5449 0.8336 0.0903
vn -0.8122 0.4932 -0.3116
vn -0.5576 0.7987 -0.2262
vn -0.5682 0.6734 -0.4730
vn -0.0445 0.9980 -0.0441
vn -0.8833 0.3978 -0.2482
vn -0.8824 0.3184 -0.3463
vn -0.5451 0.4554 -0.7039
vn -0.2561 0.8344 0.4881
vn -0.1140 0.9921 0.0514
vn 0.0572 -0.1174 0.9914
vn -0.1062 0.0140 0.9942
vn 0.0215 -0.4395 0.8980
vn -0.6972 0.6336 0.3355
vn -0.6241 0.0570 0.7793
vn -0.0662 -0.5662 0.8216
vn 0.0371 -0.8494 0.5264
vn 0.2102 -0.8297 0.5171
vn 0.3106 -0.5450 0.7788
vn 0.5056 -0.3672 0.7807
vn 0.4564 0.0006 0.8898
vn 0.5417 0.0804 0.8367
vn 0.2940 0.0393 0.9550
vn 0.3791 0.3604 0.8523
vn -0.3276 0.1960 -0.9243
vn -0.0179 0.2109 -0.9774
vn 0.6031 0.2964 -0.7405
vn 0.5119 0.4464 -0.7340
vn 0.0733 0.3161 -0.9459
vn 0.6263 -0.0222 -0.7793
vn -0.9430 -0.2219 -0.2480
vn -0.8247 -0.0226 0.5652
vn -0.9315 -0.2913 -0.2178
vn -0.6455 -0.7557 0.1105
vn -0.7103 -0.7016 -0.0565
vn -0.0691 -0.9873 0.1428
vn 0.0647 -0.9290 -0.3644
vn 0.0533 -0.9293 -0.3654
vn 0.7848 -0.3865 -0.4845
vn 0.9379 0.2007 -0.2829
vn 0.9746 0.1410 -0.1739
vn 0.9231 0.0281 -0.3835
vn 0.9369 0.0415 0.3472
vn 0.8011 -0.3801 0.4624
vn 0.8953 -0.4388 -0.0768
vn 0.8072 -0.0368 -0.5891
vn -0.7843 0.6196 -0.0302
vn -0.1396 0.9901 0.0156
vn -0.0781 0.9574 -0.2781
vn -0.5570 0.4494 -0.6984
vn 0.4052 0.5497 0.7305
vn -0.0592 -0.5288 0.8467
vn 0.2631 -0.8919 0.3678
vn 0.3098 0.3024 0.9014
vn -0.0304 0.5003 0.8653
vn 0.5316 0.1713 -0.8295
vn 0.0840 0.2998 -0.9503
vn 0.3142 0.5672 -0.7613
vn 0.4190 -0.4711 -0.7762
vn 0.3843 -0.6009 -0.7009
vn -0.9674 -0.0013 -0.2531
vn -0.9271 0.1778 -0.3301
vn -0.8724 -0.3248 0.3652
vn -0.8920 0.4447 -0.0816
vn -0.8983 0.2989 -0.3222
vn -0.6760 -0.0050 0.7368
vn -0.9372 0.2750 -0.2144
vn -0.7430 -0.5797 0.3346
vn -0.5003 -0.5277 -0.6864
vn 0.7715 -0.5690 -0.2845
vn 0.2223 -0.9525 0.2081
vn 0.9812 0.1587 -0.1101
vn 0.9740 0.0124 -0.2261
vn 0.9778 0.1721 -0.1195
vn 0.8728 0.0835 0.4809
vn 0.8031 -0.3265 0.4984
vn 0.8976 -0.4344 -0.0754
vn 0.8644 0.1720 -0.4724
s 0
usemtl stos_top
f 6//1 2//1 1//1
f 2//2 3//2 1//2
f 3//3 7//3 1//3
f 1//4 4//4 6//4
f 5//5 4//5 1//5
f 1//6 7//6 5//6
f 7//7 8//7 11//7
f 10//8 8//8 7//8
f 5//9 7//9 9//9
f 10//10 7//10 3//10
f 7//11 11//11 9//11
f 13//12 11//12 12//12
f 8//13 12//13 11//13
f 9//14 11//14 13//14
f 13//15 14//15 9//15
f 16//16 13//16 12//16
f 15//17 14//17 13//17
f 16//18 15//18 13//18
f 18//19 15//19 16//19
f 19//20 16//20 17//20
f 16//21 12//21 17//21
f 19//19 18//19 16//19
f 20//19 18//19 19//19
f 21//22 20//22 19//22
f 17//23 21//23 19//23
f 21//24 22//24 20//24
f 23//25 22//25 21//25
f 23//26 21//26 17//26
f 10//27 3//27 23//27
f 3//28 24//28 23//28
f 23//29 24//29 22//29
f 23//30 17//30 10//30
f 24//31 25//31 22//31
f 27//32 25//32 24//32
f 3//33 26//33 24//33
f 24//34 26//34 27//34
f 27//35 26//35 29//35
f 27//36 28//36 25//36
f 27//37 30//37 28//37
f 27//38 29//38 30//38
f 29//39 31//39 30//39
f 31//40 32//40 30//40
f 30//41 32//41 34//41
f 28//42 30//42 33//42
f 30//43 34//43 33//43
f 34//44 32//44 35//44
f 34//45 35//45 36//45
f 33//46 34//46 36//46
f 35//47 37//47 36//47
f 36//19 18//19 20//19
f 33//48 36//48 20//48
f 37//19 18//19 36//19
f 37//19 15//19 18//19
f 38//49 37//49 35//49
f 38//50 15//50 37//50
f 38//51 14//51 15//51
f 14//52 38//52 39//52
f 40//53 39//53 38//53
f 40//54 38//54 35//54
f 40//55 4//55 39//55
f 41//56 4//56 40//56
f 42//57 41//57 40//57
f 42//58 40//58 35//58
f 32//59 42//59 35//59
f 45//60 42//60 32//60
f 42//61 43//61 41//61
f 44//62 43//62 42//62
f 45//63 44//63 42//63
f 31//64 45//64 32//64
f 46//65 45//65 31//65
f 46//66 44//66 45//66
f 29//67 44//67 46//67
f 29//68 46//68 31//68
f 47//69 43//69 44//69
f 44//70 26//70 47//70
f 29//71 26//71 44//71
f 47//72 26//72 2//72
f 43//73 47//73 2//73
f 43//74 6//74 41//74
f 6//75 43//75 2//75
f 41//76 6//76 4//76
f 5//77 39//77 4//77
f 9//78 39//78 5//78
f 9//79 14//79 39//79
f 22//80 33//80 20//80
f 25//81 28//81 33//81
f 25//82 33//82 22//82
f 2//83 26//83 3//83
f 17//84 12//84 8//84
f 10//85 17//85 8//85
usemtl stos_srodek
f 53//86 49//86 48//86
f 49//87 50//87 48//87
f 51//88 48//88 50//88
f 48//89 51//89 52//89
f 48//90 52//90 53//90
f 56//91 49//91 53//91
f 52//92 55//92 53//92
f 53//93 55//93 54//93
f 53//94 54//94 56//94
f 59//95 57//95 56//95
f 56//96 57//96 49//96
f 54//97 58//97 56//97
f 59//98 56//98 58//98
f 60//99 59//99 58//99
f 61//100 59//100 60//100
f 57//101 59//101 61//101
f 63//102 61//102 62//102
f 61//103 60//103 62//103
f 61//104 63//104 64//104
f 64//105 57//105 61//105
f 57//106 64//106 65//106
f 65//107 64//107 66//107
f 63//108 66//108 64//108
f 50//109 66//109 68//109
f 50//107 65//107 66//107
f 66//110 67//110 68//110
f 67//111 66//111 69//111
f 63//112 69//112 66//112
f 71//113 69//113 70//113
f 70//114 69//114 72//114
f 72//115 69//115 63//115
f 71//116 67//116 69//116
f 62//117 70//117 72//117
f 62//118 72//118 63//118
f 76//119 73//119 71//119
f 74//120 71//120 73//120
f 70//121 75//121 71//121
f 67//122 71//122 74//122
f 75//123 76//123 71//123
f 76//19 75//19 77//19
f 76//19 77//19 73//19
f 77//19 79//19 78//19
f 73//19 77//19 78//19
f 79//19 77//19 80//19
f 75//19 80//19 77//19
f 81//19 80//19 75//19
f 81//124 82//124 80//124
f 82//125 79//125 80//125
f 81//126 58//126 82//126
f 54//127 82//127 58//127
f 55//128 79//128 82//128
f 55//129 82//129 54//129
f 83//130 81//130 75//130
f 81//131 60//131 58//131
f 83//132 60//132 81//132
f 83//133 75//133 70//133
f 83//134 70//134 62//134
f 62//135 60//135 83//135
f 52//136 79//136 55//136
f 78//137 79//137 52//137
f 74//138 73//138 78//138
f 74//139 78//139 52//139
f 68//140 74//140 51//140
f 67//141 74//141 68//141
f 51//142 74//142 52//142
f 50//143 68//143 51//143
f 49//144 65//144 50//144
f 57//145 65//145 49//145
usemtl stos_podstawa
f 125//146 123//146 114//146
f 114//147 123//147 100//147
f 125//148 114//148 124//148
f 101//149 100//149 123//149
f 126//150 123//150 125//150
f 115//151 100//151 92//151
f 115//152 114//152 100//152
f 100//153 101//153 112//153
f 102//107 104//107 103//107
f 102//154 124//154 110//154
f 102//155 103//155 124//155
f 93//107 104//107 102//107
f 104//107 93//107 129//107
f 105//156 106//156 109//156
f 110//157 105//157 109//157
f 107//158 106//158 105//158
f 94//159 110//159 124//159
f 94//160 105//160 110//160
f 118//161 107//161 116//161
f 95//162 107//162 118//162
f 95//163 96//163 107//163
f 107//164 96//164 106//164
f 96//165 97//165 106//165
f 106//166 97//166 108//166
f 97//167 84//167 108//167
f 106//168 108//168 109//168
f 102//169 108//169 84//169
f 112//170 98//170 92//170
f 112//171 111//171 98//171
f 85//172 89//172 129//172
f 89//173 101//173 126//173
f 89//174 112//174 101//174
f 99//175 111//175 85//175
f 113//176 127//176 120//176
f 117//177 116//177 94//177
f 120//178 127//178 92//178
f 118//179 113//179 128//179
f 128//180 113//180 120//180
f 119//19 90//19 95//19
f 119//19 121//19 87//19
f 119//19 87//19 90//19
f 128//181 95//181 118//181
f 98//182 119//182 120//182
f 119//183 98//183 121//183
f 121//184 99//184 86//184
f 90//19 87//19 95//19
f 122//185 91//185 86//185
f 91//186 130//186 86//186
f 129//187 122//187 85//187
f 93//188 97//188 130//188
f 130//189 96//189 88//189
f 130//190 88//190 86//190
f 85//191 86//191 99//191
f 94//192 124//192 114//192
f 103//193 125//193 124//193
f 126//194 101//194 123//194
f 92//195 100//195 112//195
f 84//196 93//196 102//196
f 126//107 104//107 129//107
f 103//107 104//107 126//107
f 125//107 103//107 126//107
f 116//197 107//197 105//197
f 95//198 88//198 96//198
f 102//199 109//199 108//199
f 102//200 110//200 109//200
f 85//201 111//201 89//201
f 112//202 89//202 111//202
f 129//203 89//203 126//203
f 99//204 98//204 111//204
f 121//205 98//205 99//205
f 127//206 113//206 117//206
f 127//207 117//207 115//207
f 116//208 117//208 113//208
f 114//209 117//209 94//209
f 114//210 115//210 117//210
f 94//211 116//211 105//211
f 92//212 127//212 115//212
f 118//213 116//213 113//213
f 128//19 119//19 95//19
f 120//19 119//19 128//19
f 92//214 98//214 120//214
f 87//215 121//215 86//215
f 95//216 87//216 88//216
f 91//217 93//217 130//217
f 129//218 91//218 122//218
f 129//219 93//219 91//219
f 93//220 84//220 97//220
f 130//221 97//221 96//221
f 86//222 88//222 87//222
f 85//223 122//223 86//223
