# Blender 4.4.3
# www.blender.org
mtllib stos_srodek.mtl
o rock.001
v -3.035944 5.023007 -4.445831
v -3.762807 6.246938 -0.764193
v 0.909804 7.491735 -3.392221
v -1.362797 4.358833 -5.774633
v -2.142678 1.713252 -5.473144
v -4.228250 3.699496 -2.653632
v -4.878203 1.965024 1.068701
v -3.878968 1.094438 -2.252029
v -5.164665 4.511146 2.346942
v -3.714048 6.395160 3.873411
v -3.827452 2.268581 4.238667
v -3.307626 4.088940 4.993345
v -0.146260 2.979733 5.795056
v -0.465368 6.332559 5.365148
v 2.344534 4.028427 5.320778
v 0.588763 7.463849 4.200747
v -1.133326 7.491735 3.529309
v -2.433698 7.491735 0.412685
v 2.677246 7.491735 -2.359695
v 4.450993 5.215495 -3.007020
v 1.448292 5.714293 -5.029615
v 4.077916 6.311336 0.041814
v 4.381689 3.215884 2.919209
v 5.288070 2.387280 -1.769561
v 3.088994 5.845155 3.466596
v 3.404228 -0.150669 -3.438364
v 2.750971 2.197459 -5.333694
v 3.348632 -0.150669 2.523741
v 4.100099 -0.150668 -0.976184
v 1.846039 -0.150669 -1.749372
v 0.381787 -0.150668 -3.934552
v -1.362255 -0.150670 -2.078109
v -0.989801 -0.150669 2.117783
v -0.198624 -0.150669 4.391974
v -2.522308 -0.272041 2.445909
v 3.165784 1.853049 4.411559
vn -0.8743 0.3819 -0.2996
vn -0.4239 0.8311 -0.3600
vn -0.2564 0.6960 -0.6707
vn -0.5986 0.0857 -0.7965
vn -0.8172 -0.0421 -0.5748
vn -0.9150 0.3345 -0.2256
vn -0.8485 -0.1899 -0.4939
vn -0.9555 -0.1657 -0.2441
vn -0.9833 -0.0198 -0.1809
vn -0.7994 0.1426 0.5837
vn -0.7878 0.6158 -0.0114
vn -0.9072 -0.2658 0.3262
vn -0.8189 -0.0041 0.5740
vn -0.3273 -0.2806 0.9023
vn -0.2098 0.1047 0.9721
vn -0.3858 0.3471 0.8548
vn 0.3892 0.4592 0.7985
vn 0.1288 0.1382 0.9820
vn -0.2117 0.7898 0.5757
vn -0.2516 0.7744 0.5805
vn -0.3690 0.9166 0.1539
vn -0.0000 1.0000 -0.0000
vn 0.0129 0.9999 0.0084
vn 0.3660 0.6881 -0.6266
vn 0.5185 0.5822 -0.6263
vn 0.7628 0.6325 -0.1340
vn 0.4698 0.8693 0.1533
vn 0.9623 0.2296 0.1454
vn 0.8785 0.3687 0.3039
vn 0.5780 0.7695 0.2716
vn 0.9572 0.2891 0.0132
vn 0.7778 0.2636 0.5706
vn 0.5236 0.4939 0.6942
vn 0.8483 -0.4720 -0.2398
vn 0.7991 -0.2271 -0.5567
vn 0.9217 -0.3102 0.2330
vn 0.8149 -0.0123 -0.5794
vn 0.9103 -0.3650 0.1954
vn -0.0000 -1.0000 -0.0000
vn 0.0735 -0.9970 -0.0256
vn 0.0775 -0.9970 -0.0069
vn -0.4634 -0.6574 0.5943
vn -0.7434 -0.5960 0.3035
vn -0.4319 -0.8918 -0.1347
vn -0.6840 -0.7293 -0.0146
vn 0.3655 -0.6204 0.6939
vn -0.2947 -0.3867 0.8738
vn 0.2336 -0.4009 0.8858
vn 0.8559 -0.3112 0.4132
vn 0.7658 0.0205 0.6427
vn 0.2899 -0.2738 0.9170
vn -0.3907 -0.8418 -0.3724
vn -0.3947 -0.8407 -0.3708
vn 0.1295 -0.6007 -0.7889
vn 0.0796 -0.5683 -0.8190
vn 0.1840 0.1521 -0.9711
vn 0.5680 0.2774 -0.7749
vn 0.0406 -0.1249 -0.9913
vn -0.1169 0.6535 -0.7478
vn -0.4313 0.8188 -0.3790
vn -0.6757 0.7370 -0.0165
s 0
usemtl stos_srodek
f 6//1 2//1 1//1
f 2//2 3//2 1//2
f 4//3 1//3 3//3
f 1//4 4//4 5//4
f 1//5 5//5 6//5
f 9//6 2//6 6//6
f 5//7 8//7 6//7
f 6//8 8//8 7//8
f 6//9 7//9 9//9
f 12//10 10//10 9//10
f 9//11 10//11 2//11
f 7//12 11//12 9//12
f 12//13 9//13 11//13
f 13//14 12//14 11//14
f 14//15 12//15 13//15
f 10//16 12//16 14//16
f 16//17 14//17 15//17
f 14//18 13//18 15//18
f 14//19 16//19 17//19
f 17//20 10//20 14//20
f 10//21 17//21 18//21
f 18//22 17//22 19//22
f 16//23 19//23 17//23
f 3//24 19//24 21//24
f 3//22 18//22 19//22
f 19//25 20//25 21//25
f 20//26 19//26 22//26
f 16//27 22//27 19//27
f 24//28 22//28 23//28
f 23//29 22//29 25//29
f 25//30 22//30 16//30
f 24//31 20//31 22//31
f 15//32 23//32 25//32
f 15//33 25//33 16//33
f 29//34 26//34 24//34
f 27//35 24//35 26//35
f 23//36 28//36 24//36
f 20//37 24//37 27//37
f 28//38 29//38 24//38
f 29//39 28//39 30//39
f 29//39 30//39 26//39
f 30//39 32//39 31//39
f 26//39 30//39 31//39
f 32//39 30//39 33//39
f 28//39 33//39 30//39
f 34//39 33//39 28//39
f 34//40 35//40 33//40
f 35//41 32//41 33//41
f 34//42 11//42 35//42
f 7//43 35//43 11//43
f 8//44 32//44 35//44
f 8//45 35//45 7//45
f 36//46 34//46 28//46
f 34//47 13//47 11//47
f 36//48 13//48 34//48
f 36//49 28//49 23//49
f 36//50 23//50 15//50
f 15//51 13//51 36//51
f 5//52 32//52 8//52
f 31//53 32//53 5//53
f 27//54 26//54 31//54
f 27//55 31//55 5//55
f 21//56 27//56 4//56
f 20//57 27//57 21//57
f 4//58 27//58 5//58
f 3//59 21//59 4//59
f 2//60 18//60 3//60
f 10//61 18//61 2//61
