# Blender 4.4.3
# www.blender.org
mtllib stos_top.mtl
o rock.002
v -0.170603 4.704556 -0.767454
v -0.537344 5.806393 0.302927
v 0.442913 5.516888 0.103635
v -2.146764 2.984737 0.016662
v -1.739423 2.784262 -1.579534
v -2.444732 3.626221 1.074130
v 0.092803 4.115566 -1.572838
v 0.559249 2.442284 -2.608432
v -1.823135 1.667089 -2.496944
v 1.483851 3.160305 -1.891230
v -0.449305 1.979439 -2.870922
v 0.285842 0.640633 -2.849525
v -1.868062 0.656425 -2.515846
v -2.705431 0.698872 -1.520278
v -2.480464 0.164177 -0.729049
v -0.214163 0.164177 -2.342145
v 1.703853 0.674484 -2.269991
v -1.072945 0.164175 0.323978
v 2.341933 0.164177 -0.790298
v 2.189101 0.164177 1.453206
v 2.607730 0.797161 -0.963563
v 2.635067 1.514591 0.459075
v 2.011628 3.048214 -1.372094
v 1.163964 4.787979 1.003064
v 1.813591 2.756386 2.891024
v -0.181853 5.734047 1.845298
v 0.716434 4.187084 2.819102
v 1.452484 2.693878 3.348159
v -0.799785 4.706841 3.202315
v 0.320243 2.806606 3.523861
v -1.737206 3.568638 3.703042
v -2.543097 2.635288 3.413948
v 1.853147 0.736740 2.646343
v -1.182714 0.983202 2.888187
v -2.997478 0.931198 2.012098
v -0.576090 0.164175 2.245270
v -2.620390 0.164177 1.243074
v -3.107648 0.826725 -0.411039
v -2.793316 1.343151 -1.321656
v -3.158757 1.585596 1.154402
v -3.201836 2.737673 1.798638
v -3.268203 2.872154 2.524731
v -2.522106 4.415134 1.585545
v -2.129822 5.195297 2.327692
v -2.557518 3.884083 3.121364
v -1.626288 4.842163 3.060242
v -1.505105 5.676197 1.278361
vn -0.6843 0.3780 -0.6236
vn 0.0653 0.7064 -0.7048
vn -0.1510 0.7738 -0.6152
vn -0.6701 0.5357 -0.5138
vn -0.6906 0.6745 -0.2610
vn -0.4611 0.6376 -0.6171
vn -0.0180 0.5226 -0.8524
vn 0.1961 0.5550 -0.8084
vn -0.4280 0.5925 -0.6825
vn 0.3265 0.6906 -0.6454
vn -0.3335 0.5500 -0.7657
vn -0.1530 -0.0998 -0.9832
vn 0.2080 0.0987 -0.9731
vn -0.2689 0.0300 -0.9627
vn -0.7635 0.0460 -0.6442
vn -0.1194 -0.6623 -0.7396
vn -0.4967 -0.7781 -0.3846
vn -0.2368 -0.9129 -0.3326
vn -0.0000 -1.0000 -0.0000
vn 0.2489 -0.8775 -0.4100
vn 0.2365 -0.8137 -0.5311
vn 0.9262 -0.3717 0.0631
vn 0.7543 -0.4481 -0.4798
vn 0.9647 -0.2423 0.1036
vn 0.9636 0.2307 -0.1349
vn 0.8123 0.1112 -0.5725
vn 0.5956 0.6558 -0.4639
vn 0.7903 0.5934 -0.1526
vn 0.9135 0.4058 0.0288
vn 0.7092 0.1671 -0.6849
vn 0.9134 0.3925 0.1081
vn 0.7280 0.5769 0.3703
vn 0.6224 0.7723 0.1270
vn 0.6787 0.6308 0.3760
vn 0.3873 0.6416 0.6620
vn 0.6361 0.5166 0.5731
vn 0.1795 0.4060 0.8961
vn 0.3402 0.3483 0.8735
vn 0.1813 0.2670 0.9465
vn -0.0201 -0.2799 0.9598
vn -0.0175 -0.3163 0.9485
vn 0.1149 -0.3144 0.9423
vn 0.0448 -0.3616 0.9313
vn -0.3546 -0.5358 0.7663
vn -0.2877 -0.7141 0.6382
vn 0.0134 -0.6112 0.7913
vn -0.2937 -0.7449 0.5990
vn 0.1314 -0.8788 0.4587
vn -0.8703 -0.4887 0.0606
vn -0.7376 -0.6732 -0.0523
vn -0.7579 -0.6198 -0.2034
vn -0.9407 -0.0240 -0.3383
vn -0.9451 0.2808 -0.1670
vn -0.9834 -0.1739 0.0522
vn -0.8597 0.4804 -0.1739
vn -0.8508 0.2319 -0.4716
vn -0.9955 0.0152 -0.0938
vn -0.9856 -0.1552 0.0670
vn -0.7812 -0.2590 0.5680
vn -0.7480 0.1432 0.6481
vn -0.9228 0.3549 -0.1501
vn -0.8976 0.4408 0.0111
vn -0.8556 0.4421 0.2693
vn -0.5185 0.1894 0.8339
vn -0.4004 0.4405 0.8035
vn -0.5329 0.5586 0.6356
vn 0.0843 0.9190 0.3851
vn -0.0781 0.4546 0.8873
vn -0.7859 0.5852 -0.1997
vn -0.1780 0.9304 0.3204
vn -0.0816 0.8122 0.5777
vn -0.0705 0.9955 0.0629
vn -0.6778 0.3957 -0.6197
vn -0.8096 0.2613 -0.5256
vn -0.6704 0.3562 -0.6509
vn -0.8279 0.3447 -0.4424
vn -0.7994 0.5360 -0.2713
vn -0.7438 0.4566 -0.4881
vn -0.7798 0.0849 -0.6203
vn 0.9475 -0.0861 0.3081
vn 0.7872 -0.0589 0.6138
vn 0.9438 -0.0215 0.3298
vn 0.2796 0.9599 -0.0194
vn 0.3761 0.0666 -0.9242
vn 0.5160 0.1735 -0.8389
s 0
usemtl stos_top
f 6//1 2//1 1//1
f 2//2 3//2 1//2
f 3//3 7//3 1//3
f 1//4 4//4 6//4
f 5//5 4//5 1//5
f 1//6 7//6 5//6
f 7//7 8//7 11//7
f 10//8 8//8 7//8
f 5//9 7//9 9//9
f 10//10 7//10 3//10
f 7//11 11//11 9//11
f 13//12 11//12 12//12
f 8//13 12//13 11//13
f 9//14 11//14 13//14
f 13//15 14//15 9//15
f 16//16 13//16 12//16
f 15//17 14//17 13//17
f 16//18 15//18 13//18
f 18//19 15//19 16//19
f 19//20 16//20 17//20
f 16//21 12//21 17//21
f 19//19 18//19 16//19
f 20//19 18//19 19//19
f 21//22 20//22 19//22
f 17//23 21//23 19//23
f 21//24 22//24 20//24
f 23//25 22//25 21//25
f 23//26 21//26 17//26
f 10//27 3//27 23//27
f 3//28 24//28 23//28
f 23//29 24//29 22//29
f 23//30 17//30 10//30
f 24//31 25//31 22//31
f 27//32 25//32 24//32
f 3//33 26//33 24//33
f 24//34 26//34 27//34
f 27//35 26//35 29//35
f 27//36 28//36 25//36
f 27//37 30//37 28//37
f 27//38 29//38 30//38
f 29//39 31//39 30//39
f 31//40 32//40 30//40
f 30//41 32//41 34//41
f 28//42 30//42 33//42
f 30//43 34//43 33//43
f 34//44 32//44 35//44
f 34//45 35//45 36//45
f 33//46 34//46 36//46
f 35//47 37//47 36//47
f 36//19 18//19 20//19
f 33//48 36//48 20//48
f 37//19 18//19 36//19
f 37//19 15//19 18//19
f 38//49 37//49 35//49
f 38//50 15//50 37//50
f 38//51 14//51 15//51
f 14//52 38//52 39//52
f 40//53 39//53 38//53
f 40//54 38//54 35//54
f 40//55 4//55 39//55
f 41//56 4//56 40//56
f 42//57 41//57 40//57
f 42//58 40//58 35//58
f 32//59 42//59 35//59
f 45//60 42//60 32//60
f 42//61 43//61 41//61
f 44//62 43//62 42//62
f 45//63 44//63 42//63
f 31//64 45//64 32//64
f 46//65 45//65 31//65
f 46//66 44//66 45//66
f 29//67 44//67 46//67
f 29//68 46//68 31//68
f 47//69 43//69 44//69
f 44//70 26//70 47//70
f 29//71 26//71 44//71
f 47//72 26//72 2//72
f 43//73 47//73 2//73
f 43//74 6//74 41//74
f 6//75 43//75 2//75
f 41//76 6//76 4//76
f 5//77 39//77 4//77
f 9//78 39//78 5//78
f 9//79 14//79 39//79
f 22//80 33//80 20//80
f 25//81 28//81 33//81
f 25//82 33//82 22//82
f 2//83 26//83 3//83
f 17//84 12//84 8//84
f 10//85 17//85 8//85
