# Blender 4.4.3
# www.blender.org
mtllib sufit_2.mtl
o Vert.005
v 11.031364 0.155069 -21.368290
v 11.031364 4.398911 -21.368290
v 11.031364 4.398911 -17.922913
v 11.031364 8.599001 -17.922913
v 11.031364 8.599001 -7.291441
v 11.031364 12.930345 -7.291441
v 11.031364 12.930345 -10.868081
v 11.031364 17.176373 -10.868081
v 11.031364 17.176373 -7.291441
v 11.031364 21.456036 -7.291441
v 11.031364 21.456036 6.752613
v 11.031364 17.176373 6.752613
v 11.031364 17.176373 13.124208
v 11.031364 17.176373 17.308954
v 11.031364 0.158420 17.308954
v 6.875026 0.155069 -21.368290
v 6.875026 4.398911 -21.368290
v 6.875026 4.398911 -17.922913
v 6.875026 8.599001 -17.922913
v 6.875026 8.599001 -7.291441
v 6.875026 12.930345 -7.291441
v 6.875026 12.930345 -10.868081
v 6.875026 17.176373 -10.868081
v 6.875026 17.176373 -7.291441
v 6.875026 21.456036 -7.291441
v 6.875026 21.474491 6.752808
v 6.875026 17.176373 6.758454
v 6.875026 17.176373 13.124208
v 6.875026 17.176373 17.308954
v 6.875026 0.158420 17.308954
v 11.031364 0.158420 13.124208
v 6.875026 0.158420 13.124208
v 11.031364 21.505253 13.124208
v 11.031364 21.505253 17.308954
v 6.875026 21.505253 13.124208
v 6.875026 21.505253 17.308954
v 6.875026 25.688938 13.124208
v 6.875026 25.688938 17.308954
v -0.114189 25.688938 13.124208
v -0.114189 25.688938 17.308954
v -0.114189 21.505253 13.124208
v -0.114189 21.505253 17.308954
v -10.056592 21.505253 13.124208
v -10.056592 21.505253 17.308954
v -10.056592 17.293312 13.124208
v -10.056592 17.293312 17.308954
v -14.272179 17.293312 13.124208
v -14.272179 17.293312 17.308954
v -14.272179 12.982781 13.124208
v -14.272179 12.982781 17.308954
v -17.120548 12.982781 13.124208
v -17.120548 12.982781 17.308954
v -17.120548 8.683854 13.124208
v -17.120548 8.683854 17.308954
v -14.272179 8.683854 13.124208
v -14.272179 8.683854 17.308954
v -14.272179 4.424487 13.124208
v -14.272179 4.424487 17.308954
v -17.107361 4.424487 13.124208
v -17.107361 4.424487 17.308954
v -17.107361 0.158420 13.124208
v -17.107361 0.158420 17.308954
v 6.875026 21.480644 -0.554626
v 6.875026 17.176373 2.165162
v -0.114189 21.505253 -0.542409
v -7.787039 21.505253 5.100805
v -7.787039 17.293312 5.100805
v -0.114189 21.505253 6.759111
v -8.921816 21.505253 9.580718
v -8.921816 17.293312 9.580718
vn -0.0000 -1.0000 -0.0000
vn -0.0000 -1.0000 0.0001
vn -0.0000 -0.0000 -1.0000
vn -0.0000 -0.0000 1.0000
vn -0.0000 1.0000 -0.0000
vn 1.0000 -0.0000 -0.0000
vn -1.0000 -0.0000 -0.0000
vn 0.0123 0.9999 -0.0037
vn 0.0014 0.0013 1.0000
vn 0.0044 1.0000 -0.0000
vn -0.0034 -0.5342 -0.8454
vn -0.5925 -0.0000 -0.8056
vn -0.1482 -0.6853 -0.7130
vn -0.9694 -0.0000 -0.2455
vn -0.0080 -1.0000 -0.0000
vn -0.0074 -1.0000 -0.0000
vn -0.9524 -0.0000 -0.3050
vn 0.0044 1.0000 0.0008
vn 0.0035 1.0000 0.0008
vn -0.0078 -1.0000 -0.0020
vn -0.0069 -1.0000 -0.0022
vn 0.0044 1.0000 -0.0048
vt 0.000241 0.600523
vt 0.062037 0.547346
vt 0.062037 0.600523
vt 0.823179 0.513073
vt 0.884975 0.000241
vt 0.884975 0.513073
vt 0.000241 0.547346
vt 0.062037 0.484216
vt 0.758330 0.637597
vt 0.505308 0.575801
vt 0.758330 0.575801
vt 0.000241 0.484216
vt 0.062037 0.431039
vt 0.000241 0.999759
vt 0.062037 0.936662
vt 0.062037 0.999759
vt 0.000241 0.431039
vt 0.062037 0.367409
vt 0.000241 0.936662
vt 0.062037 0.885436
vt 0.000241 0.367409
vt 0.062037 0.158603
vt 0.000241 0.885436
vt 0.062037 0.822989
vt 0.000241 0.158603
vt 0.062037 0.094973
vt 0.000241 0.822990
vt 0.062037 0.664921
vt 0.000241 0.094973
vt 0.062037 0.000241
vt 0.000241 0.664921
vt 0.822697 0.513101
vt 0.758330 0.575314
vt 0.758335 0.513095
vt 0.823179 0.575292
vt 0.884975 0.575292
vt 0.187497 0.932549
vt 0.249294 0.870331
vt 0.249294 0.932549
vt 0.822691 0.637597
vt 0.125219 0.870331
vt 0.187015 0.934693
vt 0.125219 0.934693
vt 0.124737 0.934693
vt 0.062519 0.870331
vt 0.124737 0.870331
vt 0.442608 0.883297
vt 0.504826 0.821095
vt 0.504826 0.883297
vt 0.442608 0.821095
vt 0.504826 0.717179
vt 0.442608 0.717179
vt 0.504826 0.654977
vt 0.442608 0.654976
vt 0.504826 0.507154
vt 0.442608 0.507154
vt 0.504826 0.444531
vt 0.442607 0.444531
vt 0.504826 0.381854
vt 0.442607 0.381854
vt 0.504826 0.317765
vt 0.442607 0.317765
vt 0.504826 0.275415
vt 0.442608 0.275415
vt 0.504826 0.211499
vt 0.442607 0.211499
vt 0.504826 0.169150
vt 0.442607 0.169150
vt 0.504826 0.105822
vt 0.442607 0.105822
vt 0.504826 0.063669
vt 0.442607 0.063669
vt 0.504826 0.000241
vt 0.885376 0.575801
vt 0.947594 0.932370
vt 0.885376 0.932370
vt 0.695232 0.209551
vt 0.758361 0.209556
vt 0.758343 0.418363
vt 0.188051 0.660548
vt 0.062539 0.357017
vt 0.315567 0.451735
vt 0.189277 0.042594
vt 0.253193 0.042590
vt 0.317286 0.105264
vt 0.760068 0.889335
vt 0.695980 0.952013
vt 0.632064 0.952013
vt 0.823178 0.000241
vt 0.505308 0.637597
vt 0.000241 0.263006
vt 0.000241 0.000241
vt 0.822691 0.575319
vt 0.187497 0.870331
vt 0.822691 0.575801
vt 0.187015 0.870331
vt 0.062519 0.934693
vt 0.442607 0.000241
vt 0.947594 0.575801
vt 0.505313 0.513073
vt 0.505308 0.000241
vt 0.630834 0.209545
vt 0.568405 0.000246
vt 0.568401 0.051472
vt 0.630847 0.051477
vt 0.505308 0.575292
vt 0.695236 0.156374
vt 0.758366 0.156379
vt 0.821991 0.209562
vt 0.821973 0.418368
vt 0.125616 0.869846
vt 0.062519 0.869849
vt 0.125613 0.818620
vt 0.315561 0.357002
vt 0.379202 0.556134
vt 0.379208 0.660537
vt 0.315579 0.660541
vt 0.315582 0.713718
vt 0.252452 0.713722
vt 0.315573 0.556138
vt 0.188060 0.818616
vt 0.252449 0.660545
vt 0.442120 0.253080
vt 0.442126 0.356995
vt 0.379923 0.356999
vt 0.062519 0.000448
vt 0.125949 0.042598
vt 0.379917 0.253083
vt 0.379923 0.356999
vt 0.442608 0.509313
vt 0.125947 0.000444
vt 0.189275 0.000245
vt 0.253191 0.000241
vt 0.062519 0.934680
vt 0.317282 0.042587
vt 0.884894 0.637597
vt 0.884894 0.741512
vt 0.822691 0.741512
vt 0.822691 0.889335
vt 0.505308 0.994166
vt 0.568736 0.952013
vt 0.760068 0.952013
vt 0.568736 0.994166
vt 0.695980 0.994362
vt 0.632064 0.994362
vt 0.379908 0.105260
vt 0.442607 0.444531
vt 0.317271 0.107319
vt 0.379196 0.451731
s 0
usemtl sufit_2
f 21/1/1 7/2/1 6/3/1
f 32/4/2 1/5/2 31/6/2
f 22/7/3 8/8/3 7/2/3
f 29/9/4 15/10/4 14/11/4
f 23/12/5 9/13/5 8/8/5
f 16/14/3 2/15/3 1/16/3
f 24/17/3 10/18/3 9/13/3
f 17/19/5 3/20/5 2/15/5
f 25/21/5 11/22/5 10/18/5
f 18/23/3 4/24/3 3/20/3
f 26/25/4 12/26/4 11/22/4
f 19/27/5 5/28/5 4/24/5
f 27/29/5 13/30/5 12/26/5
f 20/31/3 6/3/3 5/28/3
f 33/32/6 14/33/6 13/34/6
f 30/35/1 31/6/1 15/36/1
f 35/37/5 34/38/5 33/39/5
f 14/11/4 36/40/4 29/9/4
f 35/41/3 13/42/3 28/43/3
f 36/44/7 28/45/7 29/46/7
f 35/47/6 38/48/6 36/49/6
f 37/50/5 40/51/5 38/48/5
f 39/52/7 42/53/7 40/51/7
f 41/54/5 44/55/5 42/53/5
f 43/56/7 46/57/7 44/55/7
f 45/58/5 48/59/5 46/57/5
f 47/60/7 50/61/7 48/59/7
f 49/62/5 52/63/5 50/61/5
f 51/64/7 54/65/7 52/63/7
f 53/66/1 56/67/1 54/65/1
f 55/68/7 58/69/7 56/67/7
f 57/70/5 60/71/5 58/69/5
f 59/72/7 62/73/7 60/71/7
f 62/74/1 32/75/1 30/76/1
f 6/77/6 9/78/6 12/79/6
f 20/80/7 32/81/7 27/82/7
f 55/83/3 49/84/3 45/85/3
f 46/86/4 50/87/4 56/88/4
f 21/1/1 22/7/1 7/2/1
f 32/4/2 16/89/2 1/5/2
f 22/7/3 23/12/3 8/8/3
f 29/9/4 30/90/4 15/10/4
f 23/12/5 24/17/5 9/13/5
f 16/14/3 17/19/3 2/15/3
f 24/17/3 25/21/3 10/18/3
f 17/19/5 18/23/5 3/20/5
f 63/91/8 11/22/8 25/21/8
f 18/23/3 19/27/3 4/24/3
f 26/25/9 27/29/9 12/26/9
f 19/27/5 20/31/5 5/28/5
f 27/29/5 28/92/5 13/30/5
f 20/31/3 21/1/3 6/3/3
f 33/32/6 34/93/6 14/33/6
f 30/35/1 32/4/1 31/6/1
f 35/37/5 36/94/5 34/38/5
f 14/11/4 34/95/4 36/40/4
f 35/41/3 33/96/3 13/42/3
f 36/44/7 35/97/7 28/45/7
f 35/47/6 37/50/6 38/48/6
f 37/50/5 39/52/5 40/51/5
f 39/52/7 41/54/7 42/53/7
f 41/54/5 43/56/5 44/55/5
f 43/56/7 45/58/7 46/57/7
f 45/58/5 47/60/5 48/59/5
f 47/60/7 49/62/7 50/61/7
f 49/62/5 51/64/5 52/63/5
f 51/64/7 53/66/7 54/65/7
f 53/66/1 55/68/1 56/67/1
f 55/68/7 57/70/7 58/69/7
f 57/70/5 59/72/5 60/71/5
f 59/72/7 61/98/7 62/73/7
f 62/74/1 61/99/1 32/75/1
f 31/100/6 1/101/6 5/102/6
f 1/101/6 2/103/6 3/104/6
f 3/104/6 4/105/6 5/102/6
f 1/101/6 3/104/6 5/102/6
f 14/33/6 15/106/6 31/100/6
f 13/34/6 14/33/6 31/100/6
f 6/77/6 7/107/6 8/108/6
f 31/100/6 5/102/6 12/79/6
f 5/102/6 6/77/6 12/79/6
f 12/79/6 13/34/6 31/100/6
f 10/109/6 11/110/6 12/79/6
f 6/77/6 8/108/6 9/78/6
f 9/78/6 10/109/6 12/79/6
f 17/111/7 16/112/7 18/113/7
f 16/112/7 32/81/7 20/80/7
f 18/113/7 16/112/7 20/80/7
f 32/81/7 28/114/7 27/82/7
f 27/82/7 63/115/7 25/116/7
f 24/117/7 23/118/7 22/119/7
f 25/116/7 64/120/7 27/82/7
f 20/80/7 19/121/7 18/113/7
f 24/117/7 22/119/7 21/122/7
f 64/120/7 21/122/7 27/82/7
f 21/122/7 20/80/7 27/82/7
f 39/123/3 37/124/3 35/125/3
f 28/114/3 32/81/3 45/85/3
f 32/81/3 61/126/3 57/127/3
f 39/123/3 35/125/3 41/128/3
f 26/129/10 65/128/10 68/128/10
f 68/54/5 66/56/5 69/130/5
f 61/126/3 59/131/3 57/127/3
f 55/83/3 53/132/3 51/133/3
f 32/81/3 57/127/3 55/83/3
f 55/83/3 51/133/3 49/84/3
f 32/81/3 55/83/3 45/85/3
f 26/134/6 64/45/6 63/97/6
f 49/84/3 47/135/3 45/85/3
f 36/40/4 38/136/4 40/137/4
f 42/138/4 44/139/4 46/86/4
f 36/40/4 40/137/4 42/138/4
f 62/140/4 30/90/4 58/141/4
f 30/90/4 29/9/4 46/86/4
f 58/141/4 30/90/4 56/88/4
f 29/9/4 36/40/4 42/138/4
f 46/86/4 48/142/4 50/87/4
f 29/9/4 42/138/4 46/86/4
f 58/141/4 60/143/4 62/140/4
f 52/144/4 54/145/4 56/88/4
f 56/88/4 30/90/4 46/86/4
f 50/87/4 52/144/4 56/88/4
f 63/125/11 64/114/11 65/128/11
f 67/85/12 66/146/12 65/128/12
f 67/85/13 65/128/13 64/114/13
f 69/130/14 67/58/14 70/147/14
f 27/114/15 67/85/15 64/114/15
f 28/114/16 70/148/16 27/114/16
f 43/56/17 70/147/17 45/58/17
f 28/45/6 26/134/6 35/97/6
f 41/54/5 69/130/5 43/56/5
f 35/125/5 68/128/5 41/128/5
f 63/91/18 26/25/18 11/22/18
f 27/82/7 26/149/7 63/115/7
f 25/116/7 24/117/7 64/120/7
f 64/120/7 24/117/7 21/122/7
f 26/129/19 63/125/19 65/128/19
f 68/54/5 65/54/5 66/56/5
f 26/134/6 27/45/6 64/45/6
f 69/130/14 66/56/14 67/58/14
f 27/114/20 70/148/20 67/85/20
f 28/114/21 45/85/21 70/148/21
f 43/56/17 69/130/17 70/147/17
f 28/45/6 27/45/6 26/134/6
f 41/54/5 68/54/5 69/130/5
f 35/125/22 26/129/22 68/128/22
